<svg width="16" height="20" viewBox="0 0 16 20" fill="none" xmlns="http://www.w3.org/2000/svg">
<path d="M6.11164 7.14258C5.97986 7.14258 5.85347 7.19731 5.76028 7.29473C5.6671 7.39215 5.61475 7.52428 5.61475 7.66206V12.5711C5.61475 12.7089 5.6671 12.8411 5.76028 12.9385C5.85347 13.0359 5.97986 13.0906 6.11164 13.0906C6.24343 13.0906 6.36981 13.0359 6.463 12.9385C6.55618 12.8411 6.60854 12.7089 6.60854 12.5711V7.66206C6.60854 7.52428 6.55618 7.39215 6.463 7.29473C6.36981 7.19731 6.24343 7.14258 6.11164 7.14258Z" fill="#304351"/>
<path d="M9.88825 7.14258C9.75647 7.14258 9.63008 7.19731 9.5369 7.29473C9.44371 7.39215 9.39136 7.52428 9.39136 7.66206V12.5711C9.39136 12.7089 9.44371 12.8411 9.5369 12.9385C9.63008 13.0359 9.75647 13.0906 9.88825 13.0906C10.02 13.0906 10.1464 13.0359 10.2396 12.9385C10.3328 12.8411 10.3851 12.7089 10.3851 12.5711V7.66206C10.3851 7.52428 10.3328 7.39215 10.2396 7.29473C10.1464 7.19731 10.02 7.14258 9.88825 7.14258Z" fill="#304351"/>
<path d="M10.2112 0H5.78882C5.32757 0 4.88522 0.191558 4.55907 0.532533C4.23292 0.873508 4.04969 1.33597 4.04969 1.81818V3.58442H0.496894C0.36511 3.58442 0.238723 3.63915 0.145537 3.73657C0.0523513 3.83399 0 3.96612 0 4.1039C0 4.24167 0.0523513 4.3738 0.145537 4.47122C0.238723 4.56865 0.36511 4.62338 0.496894 4.62338H1.24224V17.9221C1.24224 18.4732 1.45164 19.0017 1.82438 19.3914C2.19713 19.7811 2.70268 20 3.22981 20H12.7702C13.2973 20 13.8029 19.7811 14.1756 19.3914C14.5484 19.0017 14.7578 18.4732 14.7578 17.9221V4.62338H15.5031C15.6349 4.62338 15.7613 4.56865 15.8545 4.47122C15.9476 4.3738 16 4.24167 16 4.1039C16 3.96612 15.9476 3.83399 15.8545 3.73657C15.7613 3.63915 15.6349 3.58442 15.5031 3.58442H11.9503V1.81818C11.9503 1.57941 11.9053 1.34299 11.8179 1.12239C11.7305 0.901802 11.6024 0.701367 11.4409 0.532533C11.2794 0.363699 11.0877 0.229773 10.8767 0.138401C10.6657 0.0470287 10.4396 0 10.2112 0ZM5.04348 1.81818C5.04348 1.61152 5.12201 1.41332 5.26178 1.26719C5.40156 1.12106 5.59114 1.03896 5.78882 1.03896H10.2112C10.4089 1.03896 10.5984 1.12106 10.7382 1.26719C10.878 1.41332 10.9565 1.61152 10.9565 1.81818V3.58442H5.04348V1.81818ZM13.764 17.9221C13.764 18.1976 13.6593 18.4619 13.4729 18.6567C13.2865 18.8516 13.0338 18.961 12.7702 18.961H3.22981C2.96624 18.961 2.71347 18.8516 2.5271 18.6567C2.34073 18.4619 2.23603 18.1976 2.23603 17.9221V4.62338H13.764V17.9221Z" fill="#304351"/>
</svg>
