<svg width="1792" height="1792" xmlns="http://www.w3.org/2000/svg">

 <g>
  <title>background</title>
  <rect fill="none" id="canvas_background" height="402" width="582" y="-1" x="-1"/>
 </g>
 <g>
  <title>Layer 1</title>
  <path transform="rotate(-180 896,896) " fill="#304351" id="svg_1" d="m1536,128q0,261 -106.5,461.5t-266.5,306.5q160,106 266.5,306.5t106.5,461.5l96,0q14,0 23,9t9,23l0,64q0,14 -9,23t-23,9l-1472,0q-14,0 -23,-9t-9,-23l0,-64q0,-14 9,-23t23,-9l96,0q0,-261 106.5,-461.5t266.5,-306.5q-160,-106 -266.5,-306.5t-106.5,-461.5l-96,0q-14,0 -23,-9t-9,-23l0,-64q0,-14 9,-23t23,-9l1472,0q14,0 23,9t9,23l0,64q0,14 -9,23t-23,9l-96,0zm-128,0l-1024,0q0,66 9,128l1006,0q9,-61 9,-128zm0,1536q0,-130 -34,-249.5t-90.5,-208t-126.5,-152t-146,-94.5l-230,0q-76,31 -146,94.5t-126.5,152t-90.5,208t-34,249.5l1024,0z"/>
 </g>
</svg>