<svg width="128" height="128" xmlns="http://www.w3.org/2000/svg">
 <title/>

 <g>
  <title>background</title>
  <rect fill="none" id="canvas_background" height="402" width="582" y="-1" x="-1"/>
 </g>
 <g>
  <title stroke="#304351">Layer 1</title>
  <path fill="#304351" stroke="#304351" id="svg_1" d="m98,124l-60,0l0,-120l60,0a2,2 0 0 0 0,-4l-80,0a18,18 0 0 0 -18,18l0,92a18,18 0 0 0 18,18l80,0a2,2 0 0 0 0,-4zm-94,-14l0,-92a14,14 0 0 1 14,-14l16,0l0,120l-16,0a14,14 0 0 1 -14,-14z"/>
  <path fill="#304351" stroke="#304351" id="svg_2" d="m127.41,62.59l-30,-30a2,2 0 0 0 -2.82,2.82l26.58,26.59l-63.17,0a2,2 0 0 0 0,4l63.17,0l-26.58,26.59a2,2 0 1 0 2.82,2.82l30,-30a2,2 0 0 0 0,-2.82z"/>
 </g>
</svg>