<svg width="248" height="92" viewBox="0 0 248 92" fill="none" xmlns="http://www.w3.org/2000/svg">
<g clip-path="url(#clip0)">
<path d="M105.24 58.24C104.056 58.24 102.968 58.064 101.976 57.712C101 57.344 100.16 56.808 99.456 56.104C98.752 55.4 98.2 54.528 97.8 53.488C97.416 52.432 97.224 51.216 97.224 49.84C97.224 48.496 97.416 47.296 97.8 46.24C98.2 45.184 98.752 44.304 99.456 43.6C100.16 42.896 101 42.36 101.976 41.992C102.968 41.624 104.056 41.44 105.24 41.44C106.44 41.44 107.536 41.624 108.528 41.992C109.52 42.36 110.36 42.896 111.048 43.6C111.752 44.304 112.296 45.184 112.68 46.24C113.08 47.296 113.28 48.496 113.28 49.84C113.28 51.216 113.08 52.432 112.68 53.488C112.296 54.528 111.752 55.4 111.048 56.104C110.36 56.808 109.52 57.344 108.528 57.712C107.536 58.064 106.44 58.24 105.24 58.24ZM105.24 55.624C106.856 55.624 108.104 55.104 108.984 54.064C109.864 53.008 110.304 51.6 110.304 49.84C110.304 48.064 109.864 46.656 108.984 45.616C108.104 44.576 106.856 44.056 105.24 44.056C103.64 44.056 102.392 44.576 101.496 45.616C100.616 46.656 100.176 48.064 100.176 49.84C100.176 51.6 100.616 53.008 101.496 54.064C102.392 55.104 103.64 55.624 105.24 55.624ZM116.077 62.656V46.384H118.813V47.848C119.181 47.304 119.693 46.888 120.349 46.6C121.005 46.296 121.725 46.144 122.509 46.144C123.197 46.144 123.845 46.272 124.453 46.528C125.077 46.784 125.605 47.16 126.037 47.656C126.485 48.152 126.837 48.776 127.093 49.528C127.365 50.264 127.501 51.112 127.501 52.072C127.501 54.056 126.997 55.584 125.989 56.656C124.981 57.712 123.693 58.24 122.125 58.24C121.437 58.24 120.813 58.136 120.253 57.928C119.693 57.704 119.221 57.392 118.837 56.992V62.656H116.077ZM118.837 53.128C118.837 53.96 119.125 54.632 119.701 55.144C120.277 55.64 120.989 55.888 121.837 55.888C122.717 55.888 123.421 55.56 123.949 54.904C124.477 54.232 124.741 53.32 124.741 52.168C124.741 51.048 124.477 50.16 123.949 49.504C123.437 48.832 122.725 48.496 121.813 48.496C121.013 48.496 120.317 48.768 119.725 49.312C119.133 49.856 118.837 50.608 118.837 51.568V53.128ZM140.15 52.768H132.014C132.078 53.824 132.374 54.632 132.902 55.192C133.43 55.736 134.118 56.008 134.966 56.008C135.766 56.008 136.374 55.824 136.79 55.456C137.206 55.088 137.478 54.696 137.606 54.28L140.078 54.736C139.822 55.696 139.27 56.52 138.422 57.208C137.59 57.896 136.422 58.24 134.918 58.24C133.174 58.24 131.798 57.704 130.79 56.632C129.798 55.56 129.302 54.08 129.302 52.192C129.302 51.216 129.446 50.352 129.734 49.6C130.038 48.832 130.438 48.2 130.934 47.704C131.446 47.192 132.038 46.808 132.71 46.552C133.398 46.28 134.134 46.144 134.918 46.144C136.582 46.144 137.87 46.672 138.782 47.728C139.694 48.768 140.15 50.184 140.15 51.976V52.768ZM134.918 48.376C134.214 48.376 133.598 48.592 133.07 49.024C132.558 49.44 132.222 50.056 132.062 50.872H137.51C137.446 50.104 137.198 49.496 136.766 49.048C136.35 48.6 135.734 48.376 134.918 48.376ZM142.631 58V46.384H145.295V47.92C145.695 47.312 146.191 46.904 146.783 46.696C147.391 46.488 147.967 46.384 148.511 46.384H149.447V48.88H148.463C147.679 48.88 146.975 49.04 146.351 49.36C145.727 49.664 145.415 50.152 145.415 50.824V58H142.631ZM158.072 58H156.152C154.584 58 153.48 57.672 152.84 57.016C152.2 56.344 151.88 55.24 151.88 53.704V48.832H150.008V46.384H151.88V43.432H154.64V46.384H158V48.832H154.64V53.656C154.64 54.36 154.784 54.856 155.072 55.144C155.376 55.416 155.824 55.552 156.416 55.552H158.072V58ZM166.445 59.032C165.933 60.424 165.341 61.376 164.669 61.888C164.013 62.4 163.085 62.656 161.885 62.656H160.517V60.208H161.525C162.053 60.208 162.493 60.104 162.845 59.896C163.213 59.704 163.501 59.344 163.709 58.816L163.973 58.192L159.101 46.384H162.149L165.413 54.856L168.293 46.384H171.173L166.445 59.032Z" fill="#304351"/>
<path d="M57 28C45.4018 28 36 37.4016 36 48.9995C36 60.5974 45.4018 70 57 70H78V48.9995C78 37.4016 68.5971 28 57 28ZM57 66.1655C47.5194 66.1655 39.8336 58.4777 39.8336 48.9989C39.8336 39.5201 47.5194 31.8329 57 31.8329C66.4806 31.8329 74.1664 39.5186 74.1664 48.9989C74.1664 58.4793 66.4806 66.1655 57 66.1655Z" fill="#21AA63"/>
<path d="M57.1646 41.8164C56.2986 41.8164 55.4726 41.9794 54.7056 42.2632C52.3271 43.1436 50.5546 45.2579 50.1616 47.8324C50.1073 48.1844 50.071 48.5423 50.071 48.9093C50.071 50.7285 50.7613 52.3816 51.8866 53.6369C53.1851 55.0855 55.0657 56.0021 57.1641 56.0021C61.0818 56.0021 64.2576 52.8263 64.2576 48.9087C64.2576 44.9911 61.0823 41.8164 57.1646 41.8164Z" fill="#21AA63"/>
</g>
<defs>
<clipPath id="clip0">
<rect width="248" height="92" fill="white"/>
</clipPath>
</defs>
</svg>
