<svg width="20" height="14" viewBox="0 0 20 14" fill="none" xmlns="http://www.w3.org/2000/svg">
<path d="M17.0179 1H2.98212C1.88916 1 1 1.82027 1 2.82838V11.1716C1 12.1797 1.88916 13 2.98212 13H17.0179C18.1108 13 19 12.1797 19 11.1716V2.82838C19 1.82027 18.1108 1 17.0179 1ZM17.0179 1.69189C17.1918 1.69189 17.3569 1.72616 17.5071 1.78642L10 7.83041L2.49286 1.78642C2.64307 1.72616 2.80817 1.69189 2.98212 1.69189H17.0179ZM18.25 11.1716C18.25 11.7983 17.6972 12.3081 17.0179 12.3081H2.98212C2.3028 12.3081 1.75 11.7983 1.75 11.1716V2.82838C1.75 2.61632 1.81734 2.42 1.92741 2.24994L10 8.74865L18.0726 2.24994C18.1827 2.42 18.25 2.61632 18.25 2.82838V11.1716Z" fill="#304351" stroke="#304351" stroke-width="0.75"/>
</svg>
