<svg width="16" height="21" viewBox="0 0 16 21" fill="none" xmlns="http://www.w3.org/2000/svg">
<path fill-rule="evenodd" clip-rule="evenodd" d="M9 1.39844C9 0.840625 8.6 0.46875 8 0.46875C7.4 0.46875 7 0.840625 7 1.39844V2.42109C3.8 2.88594 1.3 5.39609 1.3 8.55703V11.9039C1.3 12.1828 1.3 12.3687 1.3 12.5547C1.3 13.1125 1.1 13.5773 0.9 14.0422C0.8 14.2281 0.8 14.3211 0.6 14.6L0.2 15.3438C-1.93715e-07 15.6227 0 15.9016 0 16.2734C0 17.2961 0.9 18.1328 2.1 18.1328H13.9C15.1 18.1328 16 17.2961 16 16.1805C16 15.9016 15.9 15.5297 15.8 15.2508L15.4 14.507C15.2 14.2281 15.2 14.1352 15.1 13.9492C14.9 13.4844 14.7 12.9266 14.7 12.4617C14.7 12.2758 14.7 12.1828 14.7 11.8109V8.55703C14.7 5.48906 12.2 2.88594 9 2.42109V1.39844ZM8 4.1875C5.4 4.1875 3.3 6.13984 3.3 8.55703V11.9039C3.3 12.1828 3.3 12.3687 3.3 12.5547C3.2 13.2984 3.1 14.0422 2.7 14.693C2.6 14.8789 2.5 15.0648 2.4 15.3438L2 16.0875C2 16.2734 2 16.2734 2.1 16.2734H13.9C14 16.2734 14 16.2734 14 16.1805L13.6 15.3438C13.5 15.0648 13.4 14.8789 13.3 14.693C13 14.0422 12.8 13.2984 12.7 12.5547C12.7 12.3687 12.7 12.0898 12.7 11.9039V8.55703C12.7 6.13984 10.6 4.1875 8 4.1875Z" fill="#304351"/>
<path d="M5 19.9922C5 19.4344 5.4 19.0625 6 19.0625H10C10.6 19.0625 11 19.4344 11 19.9922C11 20.55 10.6 20.9219 10 20.9219H6C5.4 20.9219 5 20.55 5 19.9922Z" fill="#304351"/>
</svg>
