<svg width="18" height="18" viewBox="0 0 18 18" fill="none" xmlns="http://www.w3.org/2000/svg">
<path d="M16.562 6.52083H16.2079C16.1037 6.22917 15.9996 5.9375 15.8537 5.66667L16.1037 5.41667C16.6662 4.85417 16.6662 3.9375 16.1037 3.375L14.6246 1.89583C14.3538 1.625 13.9996 1.47917 13.6038 1.47917C13.2288 1.47917 12.8538 1.625 12.583 1.89583L12.333 2.14583C12.0622 2.02083 11.7705 1.89583 11.4789 1.79167V1.4375C11.4789 0.645833 10.833 0 10.0414 0H7.95812C7.16647 0 6.52066 0.645833 6.52066 1.4375V1.79167C6.229 1.89583 5.93734 2.02083 5.66651 2.14583L5.41652 1.89583C5.14569 1.625 4.79154 1.47917 4.39571 1.47917C4.02072 1.47917 3.64573 1.625 3.37491 1.89583L1.89578 3.375C1.3333 3.9375 1.3333 4.85417 1.89578 5.41667L2.14578 5.66667C1.99995 5.9375 1.89578 6.22917 1.79162 6.52083H1.43746C0.645816 6.52083 0 7.16667 0 7.95833V10.0417C0 10.8333 0.645816 11.4792 1.43746 11.4792H1.79162C1.89578 11.7708 1.99995 12.0625 2.14578 12.3333L1.89578 12.5833C1.3333 13.1458 1.3333 14.0625 1.89578 14.625L3.37491 16.1042C3.64573 16.375 3.99989 16.5208 4.39571 16.5208C4.7707 16.5208 5.14569 16.375 5.41652 16.1042L5.66651 15.8542C5.93734 15.9792 6.229 16.1042 6.52066 16.2083V16.5625C6.52066 17.3542 7.16647 18 7.95812 18H10.0414C10.833 18 11.4789 17.3542 11.4789 16.5625V16.2083C11.7705 16.1042 12.0622 15.9792 12.333 15.8542L12.583 16.1042C12.8538 16.375 13.208 16.5208 13.6038 16.5208C13.9788 16.5208 14.3538 16.375 14.6246 16.1042L16.1037 14.625C16.6662 14.0625 16.6662 13.1458 16.1037 12.5833L15.8537 12.3333C15.9996 12.0625 16.1037 11.7708 16.2079 11.4792H16.562C17.3537 11.4792 17.9995 10.8333 17.9995 10.0417V7.95833C18.0203 7.16667 17.3745 6.52083 16.562 6.52083ZM16.7704 10.0417C16.7704 10.1458 16.687 10.2292 16.5829 10.2292H15.2912L15.1663 10.6875C15.0204 11.1875 14.8329 11.6875 14.5621 12.1458L14.3329 12.5625L15.2496 13.4792C15.3329 13.5625 15.3329 13.6667 15.2496 13.75L13.7705 15.2292C13.7288 15.2708 13.6663 15.2917 13.6455 15.2917C13.6246 15.2917 13.5621 15.2917 13.5205 15.2292L12.6038 14.3125L12.1872 14.5417C11.7288 14.7917 11.2497 15 10.7289 15.1458L10.2706 15.2708V16.5625C10.2706 16.6667 10.1872 16.75 10.0831 16.75H7.95812C7.85395 16.75 7.77062 16.6667 7.77062 16.5625V15.2708L7.3123 15.1458C6.81231 15 6.31233 14.8125 5.85401 14.5417L5.43735 14.3125L4.52071 15.2292C4.47904 15.2708 4.41655 15.2917 4.39571 15.2917C4.37488 15.2917 4.31238 15.2917 4.27072 15.2292L2.79159 13.75C2.70826 13.6667 2.70826 13.5625 2.79159 13.4792L3.70823 12.5625L3.47907 12.1458C3.22908 11.6875 3.02075 11.2083 2.87492 10.6875L2.74993 10.2292H1.45829C1.35413 10.2292 1.2708 10.1458 1.2708 10.0417V7.95833C1.2708 7.85417 1.35413 7.77083 1.45829 7.77083H2.74993L2.87492 7.3125C3.02075 6.8125 3.20825 6.3125 3.47907 5.85417L3.70823 5.4375L2.79159 4.52083C2.70826 4.4375 2.70826 4.33333 2.79159 4.25L4.27072 2.77083C4.31238 2.72917 4.37488 2.70833 4.39571 2.70833C4.41655 2.70833 4.47904 2.70833 4.52071 2.77083L5.43735 3.6875L5.85401 3.45833C6.31233 3.20833 6.79148 3 7.3123 2.85417L7.77062 2.72917V1.4375C7.77062 1.33333 7.85395 1.25 7.95812 1.25H10.0414C10.1456 1.25 10.2289 1.33333 10.2289 1.4375V2.72917L10.6872 2.85417C11.1872 3 11.6872 3.1875 12.1455 3.45833L12.5622 3.6875L13.4788 2.77083C13.5205 2.72917 13.583 2.70833 13.6038 2.70833C13.6246 2.70833 13.6871 2.70833 13.7288 2.77083L15.2079 4.25C15.2913 4.33333 15.2913 4.4375 15.2079 4.52083L14.2913 5.4375L14.5204 5.85417C14.7704 6.3125 14.9788 6.79167 15.1246 7.3125L15.2496 7.77083H16.5412C16.6454 7.77083 16.7287 7.85417 16.7287 7.95833V10.0417H16.7704Z" fill="#304351"/>
</svg>
