<svg width="18" height="22" viewBox="0 0 18 22" fill="none" xmlns="http://www.w3.org/2000/svg">
<path d="M16.3198 7.61892L9.43933 7.4409L10.0972 0.828723C10.113 0.65938 10.0674 0.489993 9.96763 0.347436C9.86785 0.204879 9.71961 0.0973173 9.54644 0.0418167C9.37326 -0.0136839 9.18507 -0.0139446 9.01172 0.0410756C8.83837 0.0960957 8.68978 0.203246 8.58954 0.345525L0.146518 11.9677C0.0578781 12.0863 0.00732819 12.2258 0.00073821 12.3701C-0.00585177 12.5143 0.0317886 12.6573 0.109289 12.7824C0.186789 12.9076 0.300969 13.0098 0.438569 13.0771C0.57617 13.1445 0.731546 13.1743 0.886654 13.163L7.41081 12.7815L6.64326 20.1821C6.62693 20.3514 6.672 20.5209 6.77132 20.6637C6.87064 20.8065 7.01853 20.9145 7.19151 20.9704L7.46563 21.0213C7.60031 21.0225 7.73324 20.9929 7.85273 20.9353C7.97222 20.8776 8.07463 20.7936 8.15094 20.6907L16.9777 8.8142C17.0618 8.70092 17.1112 8.56868 17.1209 8.43146C17.1306 8.29424 17.1001 8.15715 17.0327 8.03468C16.9653 7.91221 16.8635 7.80892 16.738 7.73573C16.6125 7.66255 16.468 7.62219 16.3198 7.61892ZM8.56213 17.41L9.11038 12.044C9.12191 11.9376 9.10919 11.8301 9.07306 11.7286C9.03692 11.627 8.97818 11.5336 8.90063 11.4545C8.82309 11.3753 8.72848 11.3122 8.62294 11.2692C8.51739 11.2262 8.40328 11.2042 8.288 11.2048H8.23318L2.42175 11.5354L8.17835 3.62618L7.73976 8.07669C7.72841 8.18099 7.74036 8.28635 7.77485 8.38618C7.80934 8.48601 7.86564 8.57817 7.94024 8.65692C8.01483 8.73567 8.10611 8.79931 8.2084 8.84387C8.31068 8.88843 8.42176 8.91296 8.53472 8.91593L14.7573 9.09395L8.56213 17.41Z" fill="#304351"/>
</svg>
