<?xml version="1.0" standalone="no"?>
<!DOCTYPE svg PUBLIC "-//W3C//DTD SVG 1.1//EN" "http://www.w3.org/Graphics/SVG/1.1/DTD/svg11.dtd" >
<svg xmlns="http://www.w3.org/2000/svg" xmlns:xlink="http://www.w3.org/1999/xlink" version="1.1">
<metadata>
Created by FontForge 20170910 at Mon Aug 13 12:37:42 2018
 By Jimmy Wärting
(c) Copyright (c) 2018 LLC Contrast Foundry (LLC CoFo). All rights reserved.
</metadata>
<defs>
<font id="CoFoSans-Black" horiz-adv-x="430" >
  <font-face 
    font-family="CoFo Sans Black"
    font-weight="900"
    font-stretch="normal"
    units-per-em="1000"
    panose-1="2 11 10 3 3 2 2 6 2 3"
    ascent="800"
    descent="-200"
    x-height="495"
    cap-height="680"
    bbox="-381 -286 1349 974"
    underline-thickness="0"
    underline-position="0"
    unicode-range="U+0020-F8FF"
  />
<missing-glyph horiz-adv-x="808" 
d="M100 -194v874h608v-874h-608zM156 -136h496v763h-496v-763zM563 -71l-155 264l-155 -265l-50 29l171 293l-170 289l50 30l154 -262l152 260l50 -29l-169 -288l171 -290z" />
    <glyph glyph-name=".notdef" horiz-adv-x="808" 
d="M100 -194v874h608v-874h-608zM156 -136h496v763h-496v-763zM563 -71l-155 264l-155 -265l-50 29l171 293l-170 289l50 30l154 -262l152 260l50 -29l-169 -288l171 -290z" />
    <glyph glyph-name="uni0000" horiz-adv-x="0" 
 />
    <glyph glyph-name="uni0000" horiz-adv-x="0" 
 />
    <glyph glyph-name="CR" horiz-adv-x="200" 
 />
    <glyph glyph-name="space" unicode=" " horiz-adv-x="200" 
 />
    <glyph glyph-name="uni00A0" unicode="&#xa0;" horiz-adv-x="200" 
 />
    <glyph glyph-name="uniF8FF" unicode="&#xf8ff;" horiz-adv-x="868" 
d="M302 577l18 -3q-4 -24 -20.5 -36.5t-43.5 -12.5q-32 0 -50.5 20.5t-18.5 56.5q0 37 19 57.5t50 20.5q27 0 43.5 -12.5t20.5 -36.5l-18 -3q-3 15 -14 25t-32 10q-25 0 -38 -17t-13 -44q0 -28 13.5 -44t37.5 -16q21 0 32 9.5t14 25.5zM341 602q0 36 20 57t53 21t52.5 -21
t19.5 -57t-19.5 -56.5t-52.5 -20.5t-53 20.5t-20 56.5zM618 527l-82 126v-126h-19v151h24l84 -128v128h18v-151h-25zM467 602q0 28 -14 44.5t-39 16.5t-39.5 -16.5t-14.5 -44.5q0 -27 14.5 -43.5t39.5 -16.5t39 16.5t14 43.5zM573 394q3 -14 14.5 -21t27.5 -7q19 0 28.5 6.5
t9.5 18.5q0 10 -6 16t-19 8l-26 4q-22 4 -33 14t-11 29q0 21 17 31.5t41 10.5q25 0 39 -10.5t18 -29.5l-18 -3q-3 11 -12 18.5t-28 7.5q-17 0 -28 -6.5t-11 -18.5t7.5 -17.5t23.5 -8.5l26 -4q19 -3 29.5 -12.5t10.5 -27.5q0 -22 -16.5 -32.5t-41.5 -10.5q-24 0 -40 10
t-20 32zM118 502h130v-17h-56v-133h-18v133h-56v17zM270 502h58q25 0 38 -12.5t13 -34.5q0 -16 -7 -27.5t-23 -15.5l38 -60h-24l-35 57h-39v-57h-19v150zM687 502h131v-17h-55v-133h-20v133h-56v17zM539 352h-20l-17 42h-68l-14 -42h-22l59 150h24zM496 411l-28 74l-27 -74
h55zM328 427q18 0 25 7.5t7 20.5q0 16 -7 23t-25 7h-39v-58h39zM177 251q0 36 20 56.5t52 20.5q34 0 53 -20.5t19 -56.5q0 -37 -19 -57t-53 -20q-32 0 -52 20t-20 57zM50 326h105v-17h-86v-52h83v-18h-83v-63h-19v150zM456 326h19v-91q0 -31 -15.5 -46t-46.5 -15t-46 15
t-15 46v91h19v-91q0 -26 11.5 -35t30.5 -9q20 0 31.5 9t11.5 35v91zM611 176l-81 126v-126h-18v150h23l84 -128v128h18v-150h-26zM676 326h57q36 0 54 -19.5t18 -55.5t-18.5 -55.5t-55.5 -19.5h-55v150zM302 251q0 28 -14 44t-39 16t-39 -16t-14 -44q0 -27 14 -43.5
t39 -16.5t39 16.5t14 43.5zM732 193q27 0 40.5 15.5t13.5 42.5q0 28 -13.5 43t-40.5 15h-37v-116h37zM341 150h58q25 0 38 -12t13 -34q0 -16 -7 -28t-23 -16l38 -60h-24l-35 57h-39v-57h-19v150zM521 57l-60 93h22l48 -73l47 73h22l-60 -91v-59h-19v57zM399 75q18 0 25.5 8
t7.5 21q0 16 -7.5 22.5t-25.5 6.5h-39v-58h39z" />
    <glyph glyph-name="uni2004" unicode="&#x2004;" horiz-adv-x="320" 
 />
    <glyph glyph-name="uni2007" unicode="&#x2007;" horiz-adv-x="524" 
 />
    <glyph glyph-name="uni2009" unicode="&#x2009;" horiz-adv-x="160" 
 />
    <glyph glyph-name="uni200A" unicode="&#x200a;" horiz-adv-x="80" 
 />
    <glyph glyph-name="uni200B" unicode="&#x200b;" horiz-adv-x="0" 
 />
    <glyph glyph-name="A" unicode="A" horiz-adv-x="732" 
d="M483 680l244 -680h-186l-48 143h-259l-48 -143h-181l244 680h234zM287 299h153l-76 227z" />
    <glyph glyph-name="Agrave" unicode="&#xc0;" horiz-adv-x="732" 
d="M483 680l244 -680h-186l-48 143h-259l-48 -143h-181l244 680h234zM287 299h153l-76 227zM340 876l99 -144h-157l-125 144h183z" />
    <glyph glyph-name="Aacute" unicode="&#xc1;" horiz-adv-x="732" 
d="M483 680l244 -680h-186l-48 143h-259l-48 -143h-181l244 680h234zM287 299h153l-76 227zM379 876h183l-125 -144h-157z" />
    <glyph glyph-name="Acircumflex" unicode="&#xc2;" horiz-adv-x="732" 
d="M483 680l244 -680h-186l-48 143h-259l-48 -143h-181l244 680h234zM287 299h153l-76 227zM283 876h166l122 -144h-160l-45 64l-45 -64h-160z" />
    <glyph glyph-name="Atilde" unicode="&#xc3;" horiz-adv-x="732" 
d="M483 680l244 -680h-186l-48 143h-259l-48 -143h-181l244 680h234zM287 299h153l-76 227zM187 732v17q0 57 26.5 92t71.5 35q20 0 36.5 -5.5t30 -12.5t25.5 -12.5t23 -5.5q13 0 18.5 8t5.5 20v8h101v-17q0 -56 -22 -91.5t-68 -35.5q-22 0 -40 6t-32.5 12.5t-26.5 12.5
t-22 6q-13 0 -19.5 -9.5t-6.5 -21.5v-6h-101z" />
    <glyph glyph-name="Adieresis" unicode="&#xc4;" horiz-adv-x="732" 
d="M483 680l244 -680h-186l-48 143h-259l-48 -143h-181l244 680h234zM287 299h153l-76 227zM191 744v132h146v-132h-146zM400 744v132h146v-132h-146z" />
    <glyph glyph-name="Aring" unicode="&#xc5;" horiz-adv-x="732" 
d="M483 680l244 -680h-186l-48 143h-259l-48 -143h-181l244 680h234zM287 299h153l-76 227zM365 589q-63 0 -108.5 41.5t-45.5 108.5q0 68 44 109.5t110 41.5t110.5 -41.5t44.5 -109.5q0 -67 -44.5 -108.5t-110.5 -41.5zM365 680q27 0 43.5 17t16.5 42q0 24 -16.5 42
t-43.5 18t-43 -18t-16 -42q0 -25 16 -42t43 -17z" />
    <glyph glyph-name="Amacron" unicode="&#x100;" horiz-adv-x="732" 
d="M483 680l244 -680h-186l-48 143h-259l-48 -143h-181l244 680h234zM287 299h153l-76 227zM526 750h-320v110h320v-110z" />
    <glyph glyph-name="Abreve" unicode="&#x102;" horiz-adv-x="732" 
d="M483 680l244 -680h-186l-48 143h-259l-48 -143h-181l244 680h234zM287 299h153l-76 227zM367 728q-85 0 -125.5 39t-47.5 109h118q4 -22 17 -35.5t38 -13.5t36.5 13t15.5 36h119q-7 -70 -46.5 -109t-124.5 -39z" />
    <glyph glyph-name="Aogonek" unicode="&#x104;" horiz-adv-x="732" 
d="M637 -206q-70 0 -115.5 27t-45.5 81q0 31 17.5 56.5t46.5 44.5l-47 140h-259l-48 -143h-181l244 680h234l244 -680q-41 -8 -64 -24.5t-23 -35.5q0 -18 15 -26t38 -8q13 0 21.5 1.5t15.5 2.5l6 -104q-16 -4 -42.5 -8t-56.5 -4zM287 299h153l-76 227z" />
    <glyph glyph-name="AE" unicode="&#xc6;" horiz-adv-x="986" 
d="M5 0l387 680h544v-157h-291l7 -108h269v-145h-260l7 -113h265v-157h-427l-8 143h-226l-79 -143h-188zM358 299h132l-12 218z" />
    <glyph glyph-name="AEacute" unicode="&#x1fc;" horiz-adv-x="986" 
d="M5 0l387 680h544v-157h-291l7 -108h269v-145h-260l7 -113h265v-157h-427l-8 143h-226l-79 -143h-188zM358 299h132l-12 218zM552 876h183l-125 -144h-157z" />
    <glyph glyph-name="uni01E2" unicode="&#x1e2;" horiz-adv-x="986" 
d="M5 0l387 680h544v-157h-291l7 -108h269v-145h-260l7 -113h265v-157h-427l-8 143h-226l-79 -143h-188zM358 299h132l-12 218zM763 750h-320v110h320v-110z" />
    <glyph glyph-name="B" unicode="B" horiz-adv-x="693" 
d="M70 0v680h338q110 0 170 -46t60 -141q0 -45 -24 -87.5t-87 -61.5q73 -16 101.5 -58.5t28.5 -100.5q0 -91 -61 -138t-185 -47h-341zM379 536h-133v-124h133q46 0 63.5 17.5t17.5 47.5q0 29 -17.5 44t-63.5 15zM385 272h-139v-128h138q53 0 72.5 15.5t19.5 49.5
q0 32 -20 47.5t-71 15.5z" />
    <glyph glyph-name="C" unicode="C" horiz-adv-x="736" 
d="M380 146q64 0 97.5 29.5t45.5 77.5l178 -29q-22 -113 -98.5 -173.5t-221.5 -60.5q-75 0 -137 21.5t-106 65t-68.5 109.5t-24.5 154q0 91 25.5 157.5t70.5 109t107.5 63t134.5 20.5q143 0 219.5 -62t98.5 -170l-178 -29q-14 46 -47 75.5t-93 29.5q-67 0 -112.5 -48
t-45.5 -146q0 -95 44 -144.5t111 -49.5z" />
    <glyph glyph-name="Ccedilla" unicode="&#xc7;" horiz-adv-x="736" 
d="M380 146q64 0 97.5 29.5t45.5 77.5l178 -29q-20 -101 -84 -161t-182 -71l-27 -29q51 -1 79 -21t28 -66q0 -47 -39.5 -73t-102.5 -26q-65 0 -97.5 20.5t-38.5 60.5l94 19q4 -16 14 -23.5t29 -7.5t29 7t10 22q0 16 -16 22.5t-50 4.5l-34 -2v53l35 38q-68 4 -124 28
t-95.5 67.5t-61.5 107t-22 146.5q0 91 25.5 157.5t70.5 109t107.5 63t134.5 20.5q143 0 219.5 -62t98.5 -170l-178 -29q-14 46 -47 75.5t-93 29.5q-67 0 -112.5 -48t-45.5 -146q0 -95 44 -144.5t111 -49.5z" />
    <glyph glyph-name="Cacute" unicode="&#x106;" horiz-adv-x="736" 
d="M380 146q64 0 97.5 29.5t45.5 77.5l178 -29q-22 -113 -98.5 -173.5t-221.5 -60.5q-75 0 -137 21.5t-106 65t-68.5 109.5t-24.5 154q0 91 25.5 157.5t70.5 109t107.5 63t134.5 20.5q143 0 219.5 -62t98.5 -170l-178 -29q-14 46 -47 75.5t-93 29.5q-67 0 -112.5 -48
t-45.5 -146q0 -95 44 -144.5t111 -49.5zM371 876h183l-125 -144h-157z" />
    <glyph glyph-name="Ccircumflex" unicode="&#x108;" horiz-adv-x="736" 
d="M380 146q64 0 97.5 29.5t45.5 77.5l178 -29q-22 -113 -98.5 -173.5t-221.5 -60.5q-75 0 -137 21.5t-106 65t-68.5 109.5t-24.5 154q0 91 25.5 157.5t70.5 109t107.5 63t134.5 20.5q143 0 219.5 -62t98.5 -170l-178 -29q-14 46 -47 75.5t-93 29.5q-67 0 -112.5 -48
t-45.5 -146q0 -95 44 -144.5t111 -49.5zM290 876h166l122 -144h-160l-45 64l-45 -64h-160z" />
    <glyph glyph-name="Cdotaccent" unicode="&#x10a;" horiz-adv-x="736" 
d="M380 146q64 0 97.5 29.5t45.5 77.5l178 -29q-22 -113 -98.5 -173.5t-221.5 -60.5q-75 0 -137 21.5t-106 65t-68.5 109.5t-24.5 154q0 91 25.5 157.5t70.5 109t107.5 63t134.5 20.5q143 0 219.5 -62t98.5 -170l-178 -29q-14 46 -47 75.5t-93 29.5q-67 0 -112.5 -48
t-45.5 -146q0 -95 44 -144.5t111 -49.5zM306 736v137h169v-137h-169z" />
    <glyph glyph-name="Ccaron" unicode="&#x10c;" horiz-adv-x="736" 
d="M380 146q64 0 97.5 29.5t45.5 77.5l178 -29q-22 -113 -98.5 -173.5t-221.5 -60.5q-75 0 -137 21.5t-106 65t-68.5 109.5t-24.5 154q0 91 25.5 157.5t70.5 109t107.5 63t134.5 20.5q143 0 219.5 -62t98.5 -170l-178 -29q-14 46 -47 75.5t-93 29.5q-67 0 -112.5 -48
t-45.5 -146q0 -95 44 -144.5t111 -49.5zM292 732l-120 144h160l43 -62l43 62h160l-120 -144h-166z" />
    <glyph glyph-name="D" unicode="D" horiz-adv-x="738" 
d="M70 0v680h264q173 0 266.5 -80.5t93.5 -259.5q0 -180 -94.5 -260t-274.5 -80h-255zM246 158h79q103 0 146 43t43 139q0 97 -43.5 139.5t-146.5 42.5h-78v-364z" />
    <glyph glyph-name="Dcaron" unicode="&#x10e;" horiz-adv-x="738" 
d="M70 0v680h264q173 0 266.5 -80.5t93.5 -259.5q0 -180 -94.5 -260t-274.5 -80h-255zM246 158h79q103 0 146 43t43 139q0 97 -43.5 139.5t-146.5 42.5h-78v-364zM247 732l-120 144h160l43 -62l43 62h160l-120 -144h-166z" />
    <glyph glyph-name="Dcroat" unicode="&#x110;" horiz-adv-x="738" 
d="M70 0v272h-65v136h65v272h264q173 0 266.5 -80.5t93.5 -259.5q0 -180 -94.5 -260t-274.5 -80h-255zM245 158h80q103 0 146 43t43 139q0 97 -43.5 139.5t-146.5 42.5h-79v-114h132v-136h-132v-114z" />
    <glyph glyph-name="Eth" unicode="&#xd0;" horiz-adv-x="738" 
d="M70 0v272h-65v136h65v272h264q173 0 266.5 -80.5t93.5 -259.5q0 -180 -94.5 -260t-274.5 -80h-255zM245 158h80q103 0 146 43t43 139q0 97 -43.5 139.5t-146.5 42.5h-79v-114h132v-136h-132v-114z" />
    <glyph glyph-name="E" unicode="E" horiz-adv-x="621" 
d="M70 0v680h501v-150h-325v-116h310v-146h-310v-118h322v-150h-498z" />
    <glyph glyph-name="Egrave" unicode="&#xc8;" horiz-adv-x="621" 
d="M70 0v680h501v-150h-325v-116h310v-146h-310v-118h322v-150h-498zM321 876l99 -144h-157l-125 144h183z" />
    <glyph glyph-name="Eacute" unicode="&#xc9;" horiz-adv-x="621" 
d="M70 0v680h501v-150h-325v-116h310v-146h-310v-118h322v-150h-498zM309 876h183l-125 -144h-157z" />
    <glyph glyph-name="Ecircumflex" unicode="&#xca;" horiz-adv-x="621" 
d="M70 0v680h501v-150h-325v-116h310v-146h-310v-118h322v-150h-498zM237 876h166l122 -144h-160l-45 64l-45 -64h-160z" />
    <glyph glyph-name="Edieresis" unicode="&#xcb;" horiz-adv-x="621" 
d="M70 0v680h501v-150h-325v-116h310v-146h-310v-118h322v-150h-498zM146 744v132h146v-132h-146zM355 744v132h146v-132h-146z" />
    <glyph glyph-name="Emacron" unicode="&#x112;" horiz-adv-x="621" 
d="M70 0v680h501v-150h-325v-116h310v-146h-310v-118h322v-150h-498zM480 750h-320v110h320v-110z" />
    <glyph glyph-name="Ebreve" unicode="&#x114;" horiz-adv-x="621" 
d="M70 0v680h501v-150h-325v-116h310v-146h-310v-118h322v-150h-498zM321 728q-85 0 -125.5 39t-47.5 109h118q4 -22 17 -35.5t38 -13.5t36.5 13t15.5 36h119q-7 -70 -46.5 -109t-124.5 -39z" />
    <glyph glyph-name="Edotaccent" unicode="&#x116;" horiz-adv-x="621" 
d="M70 0v680h501v-150h-325v-116h310v-146h-310v-118h322v-150h-498zM236 736v137h169v-137h-169z" />
    <glyph glyph-name="Eogonek" unicode="&#x118;" horiz-adv-x="621" 
d="M70 0v680h501v-150h-325v-116h310v-146h-310v-118h322v-150q-33 -8 -53.5 -24.5t-20.5 -35.5q0 -18 15 -26t38 -8q13 0 21.5 1.5t15.5 2.5l6 -104q-16 -4 -42.5 -8t-56.5 -4q-70 0 -115.5 26t-45.5 78q0 31 18.5 58.5t49.5 43.5h-328z" />
    <glyph glyph-name="Ecaron" unicode="&#x11a;" horiz-adv-x="621" 
d="M70 0v680h501v-150h-325v-116h310v-146h-310v-118h322v-150h-498zM237 732l-120 144h160l43 -62l43 62h160l-120 -144h-166z" />
    <glyph glyph-name="uni1EBC" unicode="&#x1ebc;" horiz-adv-x="621" 
d="M70 0v680h501v-150h-325v-116h310v-146h-310v-118h322v-150h-498zM158 732v17q0 57 26.5 92t71.5 35q20 0 36.5 -5.5t30 -12.5t25.5 -12.5t23 -5.5q13 0 18.5 8t5.5 20v8h101v-17q0 -56 -22 -91.5t-68 -35.5q-22 0 -40 6t-32.5 12.5t-26.5 12.5t-22 6q-13 0 -19.5 -9.5
t-6.5 -21.5v-6h-101z" />
    <glyph glyph-name="F" unicode="F" horiz-adv-x="601" 
d="M70 0v680h501v-152h-325v-124h305v-148h-305v-256h-176z" />
    <glyph glyph-name="G" unicode="G" horiz-adv-x="770" 
d="M708 362v-362h-141v73q-39 -40 -88.5 -61.5t-118.5 -21.5q-66 0 -124 22t-100 65t-66.5 109.5t-24.5 154.5q0 92 26 158.5t72.5 108.5t111 62t139.5 20q129 0 209 -52.5t105 -161.5l-182 -29q-13 35 -44.5 61t-87.5 26q-79 0 -124 -49t-45 -144q0 -96 45.5 -144.5
t121.5 -48.5q60 0 100.5 23.5t50.5 54.5h-143v136h308z" />
    <glyph glyph-name="Gcircumflex" unicode="&#x11c;" horiz-adv-x="770" 
d="M708 362v-362h-141v73q-39 -40 -88.5 -61.5t-118.5 -21.5q-66 0 -124 22t-100 65t-66.5 109.5t-24.5 154.5q0 92 26 158.5t72.5 108.5t111 62t139.5 20q129 0 209 -52.5t105 -161.5l-182 -29q-13 35 -44.5 61t-87.5 26q-79 0 -124 -49t-45 -144q0 -96 45.5 -144.5
t121.5 -48.5q60 0 100.5 23.5t50.5 54.5h-143v136h308zM293 876h166l122 -144h-160l-45 64l-45 -64h-160z" />
    <glyph glyph-name="Gbreve" unicode="&#x11e;" horiz-adv-x="770" 
d="M708 362v-362h-141v73q-39 -40 -88.5 -61.5t-118.5 -21.5q-66 0 -124 22t-100 65t-66.5 109.5t-24.5 154.5q0 92 26 158.5t72.5 108.5t111 62t139.5 20q129 0 209 -52.5t105 -161.5l-182 -29q-13 35 -44.5 61t-87.5 26q-79 0 -124 -49t-45 -144q0 -96 45.5 -144.5
t121.5 -48.5q60 0 100.5 23.5t50.5 54.5h-143v136h308zM377 728q-85 0 -125.5 39t-47.5 109h118q4 -22 17 -35.5t38 -13.5t36.5 13t15.5 36h119q-7 -70 -46.5 -109t-124.5 -39z" />
    <glyph glyph-name="Gdotaccent" unicode="&#x120;" horiz-adv-x="770" 
d="M708 362v-362h-141v73q-39 -40 -88.5 -61.5t-118.5 -21.5q-66 0 -124 22t-100 65t-66.5 109.5t-24.5 154.5q0 92 26 158.5t72.5 108.5t111 62t139.5 20q129 0 209 -52.5t105 -161.5l-182 -29q-13 35 -44.5 61t-87.5 26q-79 0 -124 -49t-45 -144q0 -96 45.5 -144.5
t121.5 -48.5q60 0 100.5 23.5t50.5 54.5h-143v136h308zM292 736v137h169v-137h-169z" />
    <glyph glyph-name="Gcommaaccent" unicode="&#x122;" horiz-adv-x="770" 
d="M708 362v-362h-141v73q-39 -40 -88.5 -61.5t-118.5 -21.5q-66 0 -124 22t-100 65t-66.5 109.5t-24.5 154.5q0 92 26 158.5t72.5 108.5t111 62t139.5 20q129 0 209 -52.5t105 -161.5l-182 -29q-13 35 -44.5 61t-87.5 26q-79 0 -124 -49t-45 -144q0 -96 45.5 -144.5
t121.5 -48.5q60 0 100.5 23.5t50.5 54.5h-143v136h308zM331 -161v117h154v-66q0 -78 -33 -121t-117 -55l-11 68q35 5 57 19.5t28 37.5h-78z" />
    <glyph glyph-name="H" unicode="H" horiz-adv-x="754" 
d="M70 0v680h176v-256h262v256h176v-680h-176v260h-262v-260h-176z" />
    <glyph glyph-name="Hcircumflex" unicode="&#x124;" horiz-adv-x="754" 
d="M70 0v680h176v-256h262v256h176v-680h-176v260h-262v-260h-176zM294 876h166l122 -144h-160l-45 64l-45 -64h-160z" />
    <glyph glyph-name="Hbar" unicode="&#x126;" horiz-adv-x="754" 
d="M70 0v489h-65v117h65v74h174v-74h266v74h174v-74h65v-117h-65v-489h-174v260h-266v-260h-174zM244 422h266v67h-266v-67z" />
    <glyph glyph-name="I" unicode="I" horiz-adv-x="316" 
d="M70 0v680h176v-680h-176z" />
    <glyph glyph-name="I.alt" horiz-adv-x="585" 
d="M45 156h160v368h-160v156h495v-156h-160v-368h160v-156h-495v156z" />
    <glyph glyph-name="Igrave" unicode="&#xcc;" horiz-adv-x="316" 
d="M70 0v680h176v-680h-176zM147 876l99 -144h-157l-125 144h183z" />
    <glyph glyph-name="Iacute" unicode="&#xcd;" horiz-adv-x="316" 
d="M70 0v680h176v-680h-176zM169 876h183l-125 -144h-157z" />
    <glyph glyph-name="Icircumflex" unicode="&#xce;" horiz-adv-x="316" 
d="M70 0v680h176v-680h-176zM75 876h166l122 -144h-160l-45 64l-45 -64h-160z" />
    <glyph glyph-name="Idieresis" unicode="&#xcf;" horiz-adv-x="316" 
d="M70 0v680h176v-680h-176zM-17 744v132h146v-132h-146zM192 744v132h146v-132h-146z" />
    <glyph glyph-name="Itilde" unicode="&#x128;" horiz-adv-x="316" 
d="M70 0v680h176v-680h-176zM-11 732v17q0 57 26.5 92t71.5 35q20 0 36.5 -5.5t30 -12.5t25.5 -12.5t23 -5.5q13 0 18.5 8t5.5 20v8h101v-17q0 -56 -22 -91.5t-68 -35.5q-22 0 -40 6t-32.5 12.5t-26.5 12.5t-22 6q-13 0 -19.5 -9.5t-6.5 -21.5v-6h-101z" />
    <glyph glyph-name="Imacron" unicode="&#x12a;" horiz-adv-x="316" 
d="M70 0v680h176v-680h-176zM318 750h-320v110h320v-110z" />
    <glyph glyph-name="Ibreve" unicode="&#x12c;" horiz-adv-x="316" 
d="M70 0v680h176v-680h-176zM159 728q-85 0 -125.5 39t-47.5 109h118q4 -22 17 -35.5t38 -13.5t36.5 13t15.5 36h119q-7 -70 -46.5 -109t-124.5 -39z" />
    <glyph glyph-name="Iogonek" unicode="&#x12e;" horiz-adv-x="316" 
d="M70 0v680h176v-680q-33 -8 -52.5 -24.5t-19.5 -35.5q0 -18 15 -26t38 -8q13 0 21.5 1.5t15.5 2.5l6 -104q-16 -4 -42.5 -8t-56.5 -4q-70 0 -115.5 27t-45.5 81q0 31 16.5 55t43.5 43z" />
    <glyph glyph-name="Idotaccent" unicode="&#x130;" horiz-adv-x="316" 
d="M70 0v680h176v-680h-176zM74 736v137h169v-137h-169z" />
    <glyph glyph-name="J" unicode="J" horiz-adv-x="421" 
d="M361 680v-449q0 -116 -54.5 -173.5t-170.5 -57.5h-116v162h68q51 0 74 20.5t23 66.5v431h176z" />
    <glyph glyph-name="Jcircumflex" unicode="&#x134;" horiz-adv-x="421" 
d="M361 680v-449q0 -116 -54.5 -173.5t-170.5 -57.5h-116v162h68q51 0 74 20.5t23 66.5v431h176zM183 876h166l122 -144h-160l-45 64l-45 -64h-160z" />
    <glyph glyph-name="IJ" unicode="&#x132;" horiz-adv-x="727" 
d="M70 0v680h176v-680h-176zM667 680v-449q0 -116 -54.5 -173.5t-170.5 -57.5h-116v162h68q51 0 74 20.5t23 66.5v431h176z" />
    <glyph glyph-name="uni00CD00A40301" horiz-adv-x="727" 
d="M70 0v680h176v-680h-176zM667 680v-449q0 -116 -54.5 -173.5t-170.5 -57.5h-116v162h68q51 0 74 20.5t23 66.5v431h176zM172 876h183l-125 -144h-157zM585 876h183l-125 -144h-157z" />
    <glyph glyph-name="K" unicode="K" horiz-adv-x="710" 
d="M70 0v680h176v-257h64l187 257h205l-248 -329l254 -351h-213l-184 259h-65v-259h-176z" />
    <glyph glyph-name="Kcommaaccent" unicode="&#x136;" horiz-adv-x="710" 
d="M70 0v680h176v-257h64l187 257h205l-248 -329l254 -351h-213l-184 259h-65v-259h-176zM301 -161v117h154v-66q0 -78 -33 -121t-117 -55l-11 68q35 5 57 19.5t28 37.5h-78z" />
    <glyph glyph-name="L" unicode="L" horiz-adv-x="568" 
d="M548 164v-164h-478v680h176v-516h302z" />
    <glyph glyph-name="Lacute" unicode="&#x139;" horiz-adv-x="568" 
d="M548 164v-164h-478v680h176v-516h302zM167 876h183l-125 -144h-157z" />
    <glyph glyph-name="Lcommaaccent" unicode="&#x13b;" horiz-adv-x="568" 
d="M548 164v-164h-478v680h176v-516h302zM246 -161v117h154v-66q0 -78 -33 -121t-117 -55l-11 68q35 5 57 19.5t28 37.5h-78z" />
    <glyph glyph-name="Lcaron" unicode="&#x13d;" horiz-adv-x="568" 
d="M548 164v-164h-478v680h176v-516h302zM328 690h147l-78 -215h-106z" />
    <glyph glyph-name="Ldot" unicode="&#x13f;" horiz-adv-x="568" 
d="M548 164v-164h-478v680h176v-516h302zM359 290v157h159v-157h-159z" />
    <glyph glyph-name="Lslash" unicode="&#x141;" horiz-adv-x="601" 
d="M581 164v-164h-478v257l-63 -34v138l63 34v285h174v-204l133 72v-138l-133 -72v-174h304z" />
    <glyph glyph-name="M" unicode="M" horiz-adv-x="936" 
d="M390 63l-156 363v-426h-164v680h234l167 -405l167 405h228v-680h-170v432l-156 -369h-150z" />
    <glyph glyph-name="N" unicode="N" horiz-adv-x="782" 
d="M712 0h-180l-290 401v-401h-172v680h180l290 -402v402h172v-680z" />
    <glyph glyph-name="Ntilde" unicode="&#xd1;" horiz-adv-x="782" 
d="M712 0h-180l-290 401v-401h-172v680h180l290 -402v402h172v-680zM222 732v17q0 57 26.5 92t71.5 35q20 0 36.5 -5.5t30 -12.5t25.5 -12.5t23 -5.5q13 0 18.5 8t5.5 20v8h101v-17q0 -56 -22 -91.5t-68 -35.5q-22 0 -40 6t-32.5 12.5t-26.5 12.5t-22 6q-13 0 -19.5 -9.5
t-6.5 -21.5v-6h-101z" />
    <glyph glyph-name="Nacute" unicode="&#x143;" horiz-adv-x="782" 
d="M712 0h-180l-290 401v-401h-172v680h180l290 -402v402h172v-680zM388 876h183l-125 -144h-157z" />
    <glyph glyph-name="Ncommaaccent" unicode="&#x145;" horiz-adv-x="782" 
d="M712 0h-180l-290 401v-401h-172v680h180l290 -402v402h172v-680zM319 -161v117h154v-66q0 -78 -33 -121t-117 -55l-11 68q35 5 57 19.5t28 37.5h-78z" />
    <glyph glyph-name="Ncaron" unicode="&#x147;" horiz-adv-x="782" 
d="M712 0h-180l-290 401v-401h-172v680h180l290 -402v402h172v-680zM308 732l-120 144h160l43 -62l43 62h160l-120 -144h-166z" />
    <glyph glyph-name="uni1E46" unicode="&#x1e46;" horiz-adv-x="782" 
d="M712 0h-180l-290 401v-401h-172v680h180l290 -402v402h172v-680zM313 -181v137h169v-137h-169z" />
    <glyph glyph-name="Eng" unicode="&#x14a;" horiz-adv-x="787" 
d="M717 680v-641q0 -113 -57 -166t-173 -53h-75v157h44q36 0 54 12.5t22 42.5l-275 363v-395h-187v680h190l270 -357v357h187z" />
    <glyph glyph-name="O" unicode="O" horiz-adv-x="784" 
d="M392 -10q-75 0 -139 20.5t-110 63t-72.5 109.5t-26.5 158q0 90 26.5 156t72.5 109t110 63.5t139 20.5t139 -20.5t110.5 -63.5t72.5 -109t26 -156q0 -91 -26 -158t-72.5 -109.5t-110.5 -63t-139 -20.5zM392 146q80 0 124 51t44 144t-44 143t-124 50t-124 -50t-44 -143
t44 -144t124 -51z" />
    <glyph glyph-name="Ograve" unicode="&#xd2;" horiz-adv-x="784" 
d="M392 -10q-75 0 -139 20.5t-110 63t-72.5 109.5t-26.5 158q0 90 26.5 156t72.5 109t110 63.5t139 20.5t139 -20.5t110.5 -63.5t72.5 -109t26 -156q0 -91 -26 -158t-72.5 -109.5t-110.5 -63t-139 -20.5zM392 146q80 0 124 51t44 144t-44 143t-124 50t-124 -50t-44 -143
t44 -144t124 -51zM381 876l99 -144h-157l-125 144h183z" />
    <glyph glyph-name="Oacute" unicode="&#xd3;" horiz-adv-x="784" 
d="M392 -10q-75 0 -139 20.5t-110 63t-72.5 109.5t-26.5 158q0 90 26.5 156t72.5 109t110 63.5t139 20.5t139 -20.5t110.5 -63.5t72.5 -109t26 -156q0 -91 -26 -158t-72.5 -109.5t-110.5 -63t-139 -20.5zM392 146q80 0 124 51t44 144t-44 143t-124 50t-124 -50t-44 -143
t44 -144t124 -51zM394 876h183l-125 -144h-157z" />
    <glyph glyph-name="Ocircumflex" unicode="&#xd4;" horiz-adv-x="784" 
d="M392 -10q-75 0 -139 20.5t-110 63t-72.5 109.5t-26.5 158q0 90 26.5 156t72.5 109t110 63.5t139 20.5t139 -20.5t110.5 -63.5t72.5 -109t26 -156q0 -91 -26 -158t-72.5 -109.5t-110.5 -63t-139 -20.5zM392 146q80 0 124 51t44 144t-44 143t-124 50t-124 -50t-44 -143
t44 -144t124 -51zM309 876h166l122 -144h-160l-45 64l-45 -64h-160z" />
    <glyph glyph-name="Otilde" unicode="&#xd5;" horiz-adv-x="784" 
d="M392 -10q-75 0 -139 20.5t-110 63t-72.5 109.5t-26.5 158q0 90 26.5 156t72.5 109t110 63.5t139 20.5t139 -20.5t110.5 -63.5t72.5 -109t26 -156q0 -91 -26 -158t-72.5 -109.5t-110.5 -63t-139 -20.5zM392 146q80 0 124 51t44 144t-44 143t-124 50t-124 -50t-44 -143
t44 -144t124 -51zM223 732v17q0 57 26.5 92t71.5 35q20 0 36.5 -5.5t30 -12.5t25.5 -12.5t23 -5.5q13 0 18.5 8t5.5 20v8h101v-17q0 -56 -22 -91.5t-68 -35.5q-22 0 -40 6t-32.5 12.5t-26.5 12.5t-22 6q-13 0 -19.5 -9.5t-6.5 -21.5v-6h-101z" />
    <glyph glyph-name="Odieresis" unicode="&#xd6;" horiz-adv-x="784" 
d="M392 -10q-75 0 -139 20.5t-110 63t-72.5 109.5t-26.5 158q0 90 26.5 156t72.5 109t110 63.5t139 20.5t139 -20.5t110.5 -63.5t72.5 -109t26 -156q0 -91 -26 -158t-72.5 -109.5t-110.5 -63t-139 -20.5zM392 146q80 0 124 51t44 144t-44 143t-124 50t-124 -50t-44 -143
t44 -144t124 -51zM217 744v132h146v-132h-146zM426 744v132h146v-132h-146z" />
    <glyph glyph-name="Omacron" unicode="&#x14c;" horiz-adv-x="784" 
d="M392 -10q-75 0 -139 20.5t-110 63t-72.5 109.5t-26.5 158q0 90 26.5 156t72.5 109t110 63.5t139 20.5t139 -20.5t110.5 -63.5t72.5 -109t26 -156q0 -91 -26 -158t-72.5 -109.5t-110.5 -63t-139 -20.5zM392 146q80 0 124 51t44 144t-44 143t-124 50t-124 -50t-44 -143
t44 -144t124 -51zM552 750h-320v110h320v-110z" />
    <glyph glyph-name="Obreve" unicode="&#x14e;" horiz-adv-x="784" 
d="M392 -10q-75 0 -139 20.5t-110 63t-72.5 109.5t-26.5 158q0 90 26.5 156t72.5 109t110 63.5t139 20.5t139 -20.5t110.5 -63.5t72.5 -109t26 -156q0 -91 -26 -158t-72.5 -109.5t-110.5 -63t-139 -20.5zM392 146q80 0 124 51t44 144t-44 143t-124 50t-124 -50t-44 -143
t44 -144t124 -51zM393 728q-85 0 -125.5 39t-47.5 109h118q4 -22 17 -35.5t38 -13.5t36.5 13t15.5 36h119q-7 -70 -46.5 -109t-124.5 -39z" />
    <glyph glyph-name="Ohungarumlaut" unicode="&#x150;" horiz-adv-x="784" 
d="M392 -10q-75 0 -139 20.5t-110 63t-72.5 109.5t-26.5 158q0 90 26.5 156t72.5 109t110 63.5t139 20.5t139 -20.5t110.5 -63.5t72.5 -109t26 -156q0 -91 -26 -158t-72.5 -109.5t-110.5 -63t-139 -20.5zM392 146q80 0 124 51t44 144t-44 143t-124 50t-124 -50t-44 -143
t44 -144t124 -51zM283 876h169l-131 -144h-141zM512 876h168l-148 -144h-149z" />
    <glyph glyph-name="Oslash" unicode="&#xd8;" horiz-adv-x="784" 
d="M392 -10q-75 0 -139 20.5t-110 63t-72.5 109.5t-26.5 158q0 90 26.5 156t72.5 109t110 63.5t139 20.5t139 -20.5t110.5 -63.5t72.5 -109t26 -156q0 -91 -26 -158t-72.5 -109.5t-110.5 -63t-139 -20.5zM221 341q0 -28 4.5 -53.5t13.5 -46.5l231 281q-16 8 -36 12t-42 4
q-80 0 -125.5 -52t-45.5 -145zM392 142q80 0 125.5 53t45.5 146q0 27 -4 50.5t-11 43.5l-229 -279q16 -7 34.5 -10.5t38.5 -3.5z" />
    <glyph glyph-name="Oslashacute" unicode="&#x1fe;" horiz-adv-x="784" 
d="M392 -10q-75 0 -139 20.5t-110 63t-72.5 109.5t-26.5 158q0 90 26.5 156t72.5 109t110 63.5t139 20.5t139 -20.5t110.5 -63.5t72.5 -109t26 -156q0 -91 -26 -158t-72.5 -109.5t-110.5 -63t-139 -20.5zM221 341q0 -28 4.5 -53.5t13.5 -46.5l231 281q-16 8 -36 12t-42 4
q-80 0 -125.5 -52t-45.5 -145zM392 142q80 0 125.5 53t45.5 146q0 27 -4 50.5t-11 43.5l-229 -279q16 -7 34.5 -10.5t38.5 -3.5zM396 876h183l-125 -144h-157z" />
    <glyph glyph-name="OE" unicode="&#x152;" horiz-adv-x="986" 
d="M536 0q-28 -4 -64 -7t-73 -3q-76 0 -141.5 20.5t-112.5 63t-74 109.5t-27 158q0 90 27 156t74 109t112.5 63.5t141.5 20.5q35 0 67 -3.5t57 -6.5h413v-157h-282v-108h267v-145h-267v-113h279v-157h-397zM233 341q0 -92 43 -141.5t123 -49.5q22 0 41.5 1t38.5 2v370
q-17 3 -36.5 4.5t-42.5 1.5q-80 0 -123.5 -47.5t-43.5 -140.5z" />
    <glyph glyph-name="P" unicode="P" horiz-adv-x="676" 
d="M70 0v680h320q57 0 104 -13t81 -40.5t52.5 -72t18.5 -106.5q0 -122 -72.5 -176t-188.5 -54h-139v-218h-176zM246 368h120q54 0 77 19.5t23 60.5q0 43 -23 62.5t-77 19.5h-120v-162z" />
    <glyph glyph-name="Q" unicode="Q" horiz-adv-x="784" 
d="M392 -10q-75 0 -139 20.5t-110 63t-72.5 109.5t-26.5 158q0 90 26.5 156t72.5 109t110 63.5t139 20.5t139 -20.5t110.5 -63.5t72.5 -109t26 -156q0 -96 -30.5 -162.5t-81.5 -108.5l61 -80l-120 -90l-76 103q-24 -7 -50 -10t-51 -3zM480 257l44 -60q17 26 26.5 61.5
t9.5 82.5q0 93 -44 143t-124 50t-124 -50t-44 -143q0 -97 44 -149t124 -52h0.5h4.5l-91 117h174z" />
    <glyph glyph-name="R" unicode="R" horiz-adv-x="703" 
d="M70 0v680h320q57 0 104 -13t81 -40.5t52.5 -72t18.5 -106.5q0 -78 -32 -127.5t-88 -73.5l147 -247h-196l-127 222h-104v-222h-176zM246 368h120q54 0 77 19.5t23 60.5q0 43 -23 62.5t-77 19.5h-120v-162z" />
    <glyph glyph-name="Racute" unicode="&#x154;" horiz-adv-x="703" 
d="M70 0v680h320q57 0 104 -13t81 -40.5t52.5 -72t18.5 -106.5q0 -78 -32 -127.5t-88 -73.5l147 -247h-196l-127 222h-104v-222h-176zM246 368h120q54 0 77 19.5t23 60.5q0 43 -23 62.5t-77 19.5h-120v-162zM329 876h183l-125 -144h-157z" />
    <glyph glyph-name="Rcommaaccent" unicode="&#x156;" horiz-adv-x="703" 
d="M70 0v680h320q57 0 104 -13t81 -40.5t52.5 -72t18.5 -106.5q0 -78 -32 -127.5t-88 -73.5l147 -247h-196l-127 222h-104v-222h-176zM246 368h120q54 0 77 19.5t23 60.5q0 43 -23 62.5t-77 19.5h-120v-162zM286 -161v117h154v-66q0 -78 -33 -121t-117 -55l-11 68
q35 5 57 19.5t28 37.5h-78z" />
    <glyph glyph-name="Rcaron" unicode="&#x158;" horiz-adv-x="703" 
d="M70 0v680h320q57 0 104 -13t81 -40.5t52.5 -72t18.5 -106.5q0 -78 -32 -127.5t-88 -73.5l147 -247h-196l-127 222h-104v-222h-176zM246 368h120q54 0 77 19.5t23 60.5q0 43 -23 62.5t-77 19.5h-120v-162zM252 732l-120 144h160l43 -62l43 62h160l-120 -144h-166z" />
    <glyph glyph-name="S" unicode="S" horiz-adv-x="682" 
d="M40 191l182 29q7 -37 41.5 -58.5t89.5 -21.5t83.5 14t28.5 39q0 19 -15 32t-63 23l-120 26q-43 9 -81.5 23.5t-67 38.5t-45 60t-16.5 88q0 96 76 151t210 55q143 0 215.5 -54t88.5 -145l-182 -29q-5 28 -33 53t-91 25q-51 0 -76.5 -14t-25.5 -38t21 -36t68 -22l145 -31
q84 -18 129 -65.5t45 -131.5q0 -100 -75.5 -156t-222.5 -56q-134 0 -212 48.5t-97 152.5z" />
    <glyph glyph-name="Sacute" unicode="&#x15a;" horiz-adv-x="682" 
d="M40 191l182 29q7 -37 41.5 -58.5t89.5 -21.5t83.5 14t28.5 39q0 19 -15 32t-63 23l-120 26q-43 9 -81.5 23.5t-67 38.5t-45 60t-16.5 88q0 96 76 151t210 55q143 0 215.5 -54t88.5 -145l-182 -29q-5 28 -33 53t-91 25q-51 0 -76.5 -14t-25.5 -38t21 -36t68 -22l145 -31
q84 -18 129 -65.5t45 -131.5q0 -100 -75.5 -156t-222.5 -56q-134 0 -212 48.5t-97 152.5zM349 877h183l-125 -144h-157z" />
    <glyph glyph-name="Scircumflex" unicode="&#x15c;" horiz-adv-x="682" 
d="M40 191l182 29q7 -37 41.5 -58.5t89.5 -21.5t83.5 14t28.5 39q0 19 -15 32t-63 23l-120 26q-43 9 -81.5 23.5t-67 38.5t-45 60t-16.5 88q0 96 76 151t210 55q143 0 215.5 -54t88.5 -145l-182 -29q-5 28 -33 53t-91 25q-51 0 -76.5 -14t-25.5 -38t21 -36t68 -22l145 -31
q84 -18 129 -65.5t45 -131.5q0 -100 -75.5 -156t-222.5 -56q-134 0 -212 48.5t-97 152.5zM267 876h166l122 -144h-160l-45 64l-45 -64h-160z" />
    <glyph glyph-name="Scedilla" unicode="&#x15e;" horiz-adv-x="682" 
d="M40 191l182 29q7 -37 41.5 -58.5t89.5 -21.5t83.5 14t28.5 39q0 19 -15 32t-63 23l-120 26q-43 9 -81.5 23.5t-67 38.5t-45 60t-16.5 88q0 96 76 151t210 55q143 0 215.5 -54t88.5 -145l-182 -29q-5 28 -33 53t-91 25q-51 0 -76.5 -14t-25.5 -38t21 -36t68 -22l145 -31
q84 -18 129 -65.5t45 -131.5q0 -90 -61.5 -145t-181.5 -65l-27 -29q51 -1 79 -21t28 -66q0 -47 -39.5 -73t-102.5 -26q-65 0 -97.5 20.5t-38.5 60.5l94 19q4 -16 14 -23.5t29 -7.5t29 7t10 22q0 16 -16 22.5t-50 4.5l-34 -2v53l35 38q-119 5 -189 54t-88 146z" />
    <glyph glyph-name="Scaron" unicode="&#x160;" horiz-adv-x="682" 
d="M40 191l182 29q7 -37 41.5 -58.5t89.5 -21.5t83.5 14t28.5 39q0 19 -15 32t-63 23l-120 26q-43 9 -81.5 23.5t-67 38.5t-45 60t-16.5 88q0 96 76 151t210 55q143 0 215.5 -54t88.5 -145l-182 -29q-5 28 -33 53t-91 25q-51 0 -76.5 -14t-25.5 -38t21 -36t68 -22l145 -31
q84 -18 129 -65.5t45 -131.5q0 -100 -75.5 -156t-222.5 -56q-134 0 -212 48.5t-97 152.5zM269 732l-120 144h160l43 -62l43 62h160l-120 -144h-166z" />
    <glyph glyph-name="Scommaaccent" unicode="&#x218;" horiz-adv-x="682" 
d="M40 191l182 29q7 -37 41.5 -58.5t89.5 -21.5t83.5 14t28.5 39q0 19 -15 32t-63 23l-120 26q-43 9 -81.5 23.5t-67 38.5t-45 60t-16.5 88q0 96 76 151t210 55q143 0 215.5 -54t88.5 -145l-182 -29q-5 28 -33 53t-91 25q-51 0 -76.5 -14t-25.5 -38t21 -36t68 -22l145 -31
q84 -18 129 -65.5t45 -131.5q0 -100 -75.5 -156t-222.5 -56q-134 0 -212 48.5t-97 152.5zM274 -161v117h154v-66q0 -78 -33 -121t-117 -55l-11 68q35 5 57 19.5t28 37.5h-78z" />
    <glyph glyph-name="uni1E62" unicode="&#x1e62;" horiz-adv-x="682" 
d="M40 191l182 29q7 -37 41.5 -58.5t89.5 -21.5t83.5 14t28.5 39q0 19 -15 32t-63 23l-120 26q-43 9 -81.5 23.5t-67 38.5t-45 60t-16.5 88q0 96 76 151t210 55q143 0 215.5 -54t88.5 -145l-182 -29q-5 28 -33 53t-91 25q-51 0 -76.5 -14t-25.5 -38t21 -36t68 -22l145 -31
q84 -18 129 -65.5t45 -131.5q0 -100 -75.5 -156t-222.5 -56q-134 0 -212 48.5t-97 152.5zM262 -181v137h169v-137h-169z" />
    <glyph glyph-name="T" unicode="T" horiz-adv-x="660" 
d="M20 516v164h620v-164h-222v-516h-176v516h-222z" />
    <glyph glyph-name="uni0162" unicode="&#x162;" horiz-adv-x="660" 
d="M20 516v164h620v-164h-222v-516h-176v516h-222zM252 -161v117h154v-66q0 -78 -33 -121t-117 -55l-11 68q35 5 57 19.5t28 37.5h-78z" />
    <glyph glyph-name="Tcaron" unicode="&#x164;" horiz-adv-x="660" 
d="M20 516v164h620v-164h-222v-516h-176v516h-222zM247 732l-120 144h160l43 -62l43 62h160l-120 -144h-166z" />
    <glyph glyph-name="uni021A" unicode="&#x21a;" horiz-adv-x="660" 
d="M20 516v164h620v-164h-222v-516h-176v516h-222zM252 -161v117h154v-66q0 -78 -33 -121t-117 -55l-11 68q35 5 57 19.5t28 37.5h-78z" />
    <glyph glyph-name="Tbar" unicode="&#x166;" horiz-adv-x="660" 
d="M20 516v164h620v-164h-223v-149h124v-136h-124v-231h-174v231h-124v136h124v149h-223z" />
    <glyph glyph-name="U" unicode="U" horiz-adv-x="736" 
d="M496 274v406h176v-402q0 -146 -71 -217t-228 -71q-155 0 -232 71t-77 217v402h176v-406q0 -56 27.5 -92t105.5 -36q73 0 98 36t25 92z" />
    <glyph glyph-name="Ugrave" unicode="&#xd9;" horiz-adv-x="736" 
d="M496 274v406h176v-402q0 -146 -71 -217t-228 -71q-155 0 -232 71t-77 217v402h176v-406q0 -56 27.5 -92t105.5 -36q73 0 98 36t25 92zM372 876l99 -144h-157l-125 144h183z" />
    <glyph glyph-name="Uacute" unicode="&#xda;" horiz-adv-x="736" 
d="M496 274v406h176v-402q0 -146 -71 -217t-228 -71q-155 0 -232 71t-77 217v402h176v-406q0 -56 27.5 -92t105.5 -36q73 0 98 36t25 92zM366 876h183l-125 -144h-157z" />
    <glyph glyph-name="Ucircumflex" unicode="&#xdb;" horiz-adv-x="736" 
d="M496 274v406h176v-402q0 -146 -71 -217t-228 -71q-155 0 -232 71t-77 217v402h176v-406q0 -56 27.5 -92t105.5 -36q73 0 98 36t25 92zM285 876h166l122 -144h-160l-45 64l-45 -64h-160z" />
    <glyph glyph-name="Udieresis" unicode="&#xdc;" horiz-adv-x="736" 
d="M496 274v406h176v-402q0 -146 -71 -217t-228 -71q-155 0 -232 71t-77 217v402h176v-406q0 -56 27.5 -92t105.5 -36q73 0 98 36t25 92zM191 744v132h146v-132h-146zM400 744v132h146v-132h-146z" />
    <glyph glyph-name="Utilde" unicode="&#x168;" horiz-adv-x="736" 
d="M496 274v406h176v-402q0 -146 -71 -217t-228 -71q-155 0 -232 71t-77 217v402h176v-406q0 -56 27.5 -92t105.5 -36q73 0 98 36t25 92zM199 732v17q0 57 26.5 92t71.5 35q20 0 36.5 -5.5t30 -12.5t25.5 -12.5t23 -5.5q13 0 18.5 8t5.5 20v8h101v-17q0 -56 -22 -91.5
t-68 -35.5q-22 0 -40 6t-32.5 12.5t-26.5 12.5t-22 6q-13 0 -19.5 -9.5t-6.5 -21.5v-6h-101z" />
    <glyph glyph-name="Umacron" unicode="&#x16a;" horiz-adv-x="736" 
d="M496 274v406h176v-402q0 -146 -71 -217t-228 -71q-155 0 -232 71t-77 217v402h176v-406q0 -56 27.5 -92t105.5 -36q73 0 98 36t25 92zM528 750h-320v110h320v-110z" />
    <glyph glyph-name="Ubreve" unicode="&#x16c;" horiz-adv-x="736" 
d="M496 274v406h176v-402q0 -146 -71 -217t-228 -71q-155 0 -232 71t-77 217v402h176v-406q0 -56 27.5 -92t105.5 -36q73 0 98 36t25 92zM369 728q-85 0 -125.5 39t-47.5 109h118q4 -22 17 -35.5t38 -13.5t36.5 13t15.5 36h119q-7 -70 -46.5 -109t-124.5 -39z" />
    <glyph glyph-name="Uring" unicode="&#x16e;" horiz-adv-x="736" 
d="M496 274v406h176v-402q0 -146 -71 -217t-228 -71q-155 0 -232 71t-77 217v402h176v-406q0 -56 27.5 -92t105.5 -36q73 0 98 36t25 92zM370 673q-63 0 -108.5 41.5t-45.5 108.5q0 68 44 109.5t110 41.5t110.5 -41.5t44.5 -109.5q0 -67 -44.5 -108.5t-110.5 -41.5zM370 764
q27 0 43.5 17t16.5 42q0 24 -16.5 42t-43.5 18t-43 -18t-16 -42q0 -25 16 -42t43 -17z" />
    <glyph glyph-name="Uhungarumlaut" unicode="&#x170;" horiz-adv-x="736" 
d="M496 274v406h176v-402q0 -146 -71 -217t-228 -71q-155 0 -232 71t-77 217v402h176v-406q0 -56 27.5 -92t105.5 -36q73 0 98 36t25 92zM274 876h169l-131 -144h-141zM503 876h168l-148 -144h-149z" />
    <glyph glyph-name="Uogonek" unicode="&#x172;" horiz-adv-x="736" 
d="M410 -209q-70 0 -115.5 27t-45.5 81q0 29 15.5 52.5t41.5 42.5q-122 14 -182 84.5t-60 199.5v402h176v-406q0 -56 27.5 -92t105.5 -36q73 0 98 36t25 92v406h176v-402q0 -116 -45 -185.5t-142 -91.5q-32 -10 -52 -27.5t-20 -36.5q0 -18 15 -26t38 -8q13 0 21.5 1.5
t15.5 2.5l6 -104q-16 -4 -42.5 -8t-56.5 -4z" />
    <glyph glyph-name="uni01D3" unicode="&#x1d3;" horiz-adv-x="736" 
d="M496 274v406h176v-402q0 -146 -71 -217t-228 -71q-155 0 -232 71t-77 217v402h176v-406q0 -56 27.5 -92t105.5 -36q73 0 98 36t25 92zM285 732l-120 144h160l43 -62l43 62h160l-120 -144h-166z" />
    <glyph glyph-name="V" unicode="V" horiz-adv-x="705" 
d="M247 0l-242 680h192l161 -483l161 483h184l-242 -680h-214z" />
    <glyph glyph-name="W" unicode="W" horiz-adv-x="1056" 
d="M629 680l132 -455l121 455h170l-193 -680h-200l-130 443l-130 -443h-200l-191 680h178l122 -455l131 455h190z" />
    <glyph glyph-name="Wcircumflex" unicode="&#x174;" horiz-adv-x="1056" 
d="M629 680l132 -455l121 455h170l-193 -680h-200l-130 443l-130 -443h-200l-191 680h178l122 -455l131 455h190zM444 876h166l122 -144h-160l-45 64l-45 -64h-160z" />
    <glyph glyph-name="Wgrave" unicode="&#x1e80;" horiz-adv-x="1056" 
d="M629 680l132 -455l121 455h170l-193 -680h-200l-130 443l-130 -443h-200l-191 680h178l122 -455l131 455h190zM516 876l99 -144h-157l-125 144h183z" />
    <glyph glyph-name="Wacute" unicode="&#x1e82;" horiz-adv-x="1056" 
d="M629 680l132 -455l121 455h170l-193 -680h-200l-130 443l-130 -443h-200l-191 680h178l122 -455l131 455h190zM548 876h183l-125 -144h-157z" />
    <glyph glyph-name="Wdieresis" unicode="&#x1e84;" horiz-adv-x="1056" 
d="M629 680l132 -455l121 455h170l-193 -680h-200l-130 443l-130 -443h-200l-191 680h178l122 -455l131 455h190zM352 744v132h146v-132h-146zM561 744v132h146v-132h-146z" />
    <glyph glyph-name="X" unicode="X" horiz-adv-x="725" 
d="M10 0l236 352l-230 328h215l132 -194l121 194h214l-226 -336l243 -344h-215l-144 218l-135 -218h-211z" />
    <glyph glyph-name="Y" unicode="Y" horiz-adv-x="719" 
d="M273 0v222l-268 458h206l153 -280l152 280h201l-268 -458v-222h-176z" />
    <glyph glyph-name="Yacute" unicode="&#xdd;" horiz-adv-x="719" 
d="M273 0v222l-268 458h206l153 -280l152 280h201l-268 -458v-222h-176zM372 876h183l-125 -144h-157z" />
    <glyph glyph-name="Ycircumflex" unicode="&#x176;" horiz-adv-x="719" 
d="M273 0v222l-268 458h206l153 -280l152 280h201l-268 -458v-222h-176zM279 876h166l122 -144h-160l-45 64l-45 -64h-160z" />
    <glyph glyph-name="Ydieresis" unicode="&#x178;" horiz-adv-x="719" 
d="M273 0v222l-268 458h206l153 -280l152 280h201l-268 -458v-222h-176zM186 744v132h146v-132h-146zM395 744v132h146v-132h-146z" />
    <glyph glyph-name="uni0232" unicode="&#x232;" horiz-adv-x="719" 
d="M273 0v222l-268 458h206l153 -280l152 280h201l-268 -458v-222h-176zM521 750h-320v110h320v-110z" />
    <glyph glyph-name="Ygrave" unicode="&#x1ef2;" horiz-adv-x="719" 
d="M273 0v222l-268 458h206l153 -280l152 280h201l-268 -458v-222h-176zM359 876l99 -144h-157l-125 144h183z" />
    <glyph glyph-name="Z" unicode="Z" horiz-adv-x="693" 
d="M54 0v161l345 355h-339v164h576v-162l-353 -354h363v-164h-592z" />
    <glyph glyph-name="Zacute" unicode="&#x179;" horiz-adv-x="693" 
d="M54 0v161l345 355h-339v164h576v-162l-353 -354h363v-164h-592zM339 876h183l-125 -144h-157z" />
    <glyph glyph-name="Zdotaccent" unicode="&#x17b;" horiz-adv-x="693" 
d="M54 0v161l345 355h-339v164h576v-162l-353 -354h363v-164h-592zM266 736v137h169v-137h-169z" />
    <glyph glyph-name="Zcaron" unicode="&#x17d;" horiz-adv-x="693" 
d="M54 0v161l345 355h-339v164h576v-162l-353 -354h363v-164h-592zM276 732l-120 144h160l43 -62l43 62h160l-120 -144h-166z" />
    <glyph glyph-name="Thorn" unicode="&#xde;" horiz-adv-x="707" 
d="M70 0v680h187v-104h154q57 0 104 -13t81 -40t52.5 -70t18.5 -102q0 -127 -72.5 -180t-188.5 -53h-149v-118h-187zM380 424h-123v-154h123q54 0 77 17.5t23 58.5q0 43 -23 60.5t-77 17.5z" />
    <glyph glyph-name="uni018F" unicode="&#x18f;" horiz-adv-x="755" 
d="M44 339q0 15 2 33t5 28h477q-11 67 -51 99.5t-101 32.5q-57 0 -93 -26.5t-50 -67.5l-181 20q28 111 112.5 171.5t212.5 60.5q76 0 138.5 -23t105.5 -67t66.5 -110t23.5 -150q0 -88 -26 -154t-70.5 -109.5t-105.5 -65t-130 -21.5q-160 0 -247.5 93.5t-87.5 255.5zM379 144
q55 0 93.5 29.5t52.5 91.5h-296q13 -63 52.5 -92t97.5 -29z" />
    <glyph glyph-name="uni01C4" unicode="&#x1c4;" horiz-adv-x="1396" 
d="M70 0v680h264q173 0 266.5 -80.5t93.5 -259.5q0 -180 -94.5 -260t-274.5 -80h-255zM246 158h79q103 0 146 43t43 139q0 97 -43.5 139.5t-146.5 42.5h-78v-364zM757 0v161l345 355h-339v164h576v-162l-353 -354h363v-164h-592zM979 732l-120 144h160l43 -62l43 62h160
l-120 -144h-166z" />
    <glyph glyph-name="uni01C7" unicode="&#x1c7;" horiz-adv-x="1009" 
d="M548 164v-164h-478v680h176v-516h302zM949 680v-449q0 -116 -54.5 -173.5t-170.5 -57.5h-116v162h68q51 0 74 20.5t23 66.5v431h176z" />
    <glyph glyph-name="uni01CA" unicode="&#x1ca;" horiz-adv-x="1193" 
d="M712 0h-180l-290 401v-401h-172v680h180l290 -402v402h172v-680zM1133 680v-449q0 -116 -54.5 -173.5t-170.5 -57.5h-116v162h68q51 0 74 20.5t23 66.5v431h176z" />
    <glyph glyph-name="uni01F1" unicode="&#x1f1;" horiz-adv-x="1396" 
d="M70 0v680h264q173 0 266.5 -80.5t93.5 -259.5q0 -180 -94.5 -260t-274.5 -80h-255zM246 158h79q103 0 146 43t43 139q0 97 -43.5 139.5t-146.5 42.5h-78v-364zM757 0v161l345 355h-339v164h576v-162l-353 -354h363v-164h-592z" />
    <glyph glyph-name="uni0402" unicode="&#x402;" horiz-adv-x="818" 
d="M499 0v146h26q40 0 63 12t23 43q0 34 -23.5 50t-84.5 16q-32 0 -61.5 -2.5t-53.5 -6.5v-258h-176v516h-192v164h610v-164h-242v-109q30 4 66 8t69 4q124 0 191.5 -47t67.5 -165t-62.5 -162.5t-174.5 -44.5h-46z" />
    <glyph glyph-name="uni0404" unicode="&#x404;" horiz-adv-x="733" 
d="M698 466l-178 -29q-12 40 -45 69t-97 29q-54 0 -93.5 -31t-54.5 -90h227v-150h-227q16 -60 56.5 -89.5t94.5 -29.5q62 0 93.5 28.5t45.5 68.5l178 -29q-22 -101 -97 -162t-218 -61q-72 0 -134.5 20.5t-107.5 63t-70.5 109t-25.5 157.5q0 88 24.5 154t68.5 109.5t106 65
t137 21.5q145 0 220 -59.5t97 -164.5z" />
    <glyph glyph-name="uni0405" unicode="&#x405;" horiz-adv-x="682" 
d="M40 191l182 29q7 -37 41.5 -58.5t89.5 -21.5t83.5 14t28.5 39q0 19 -15 32t-63 23l-120 26q-43 9 -81.5 23.5t-67 38.5t-45 60t-16.5 88q0 96 76 151t210 55q143 0 215.5 -54t88.5 -145l-182 -29q-5 28 -33 53t-91 25q-51 0 -76.5 -14t-25.5 -38t21 -36t68 -22l145 -31
q84 -18 129 -65.5t45 -131.5q0 -100 -75.5 -156t-222.5 -56q-134 0 -212 48.5t-97 152.5z" />
    <glyph glyph-name="uni0406" unicode="&#x406;" horiz-adv-x="316" 
d="M70 0v680h176v-680h-176z" />
    <glyph glyph-name="uni0407" unicode="&#x407;" horiz-adv-x="316" 
d="M70 0v680h176v-680h-176zM-17 757v132h146v-132h-146zM192 757v132h146v-132h-146z" />
    <glyph glyph-name="uni0407.alt" horiz-adv-x="316" 
d="M25 749v148h116v-148h-116zM180 749v148h116v-148h-116zM70 0v680h176v-680h-176z" />
    <glyph glyph-name="uni0408" unicode="&#x408;" horiz-adv-x="421" 
d="M361 680v-449q0 -116 -54.5 -173.5t-170.5 -57.5h-116v162h68q51 0 74 20.5t23 66.5v431h176z" />
    <glyph glyph-name="uni0409" unicode="&#x409;" horiz-adv-x="1075" 
d="M140 253q1 40 2 91.5t2 107t1 114.5v114h509v-222h124q116 0 188.5 -53t72.5 -180q0 -59 -18.5 -102t-52.5 -70t-81 -40t-104 -13h-305v516h-162q-1 -66 -2 -139t-3 -147q-2 -68 -17 -112.5t-44 -70.5t-72 -36.5t-100 -10.5h-63v170h34q44 0 67 17.5t24 65.5zM759 306
h-105v-154h105q54 0 77 17.5t23 60.5q0 41 -23 58.5t-77 17.5z" />
    <glyph glyph-name="uni040A" unicode="&#x40a;" horiz-adv-x="1085" 
d="M70 0v680h176v-256h242v256h176v-222h124q116 0 188.5 -53t72.5 -180q0 -59 -18.5 -102t-52.5 -70t-81 -40t-104 -13h-305v260h-242v-260h-176zM769 306h-105v-154h105q54 0 77 17.5t23 60.5q0 41 -23 58.5t-77 17.5z" />
    <glyph glyph-name="uni040B" unicode="&#x40b;" horiz-adv-x="830" 
d="M20 516v164h610v-164h-242v-117q30 5 67.5 9t71.5 4q135 1 195 -55t60 -185v-172h-174v141q0 67 -30 92.5t-89 25.5q-24 0 -51 -2.5t-50 -5.5v-251h-176v516h-192z" />
    <glyph glyph-name="uni040F" unicode="&#x40f;" horiz-adv-x="752" 
d="M682 680v-680h-222v-142h-168v142h-222v680h176v-516h260v516h176z" />
    <glyph glyph-name="uni0410" unicode="&#x410;" horiz-adv-x="732" 
d="M483 680l244 -680h-186l-48 143h-259l-48 -143h-181l244 680h234zM287 299h153l-76 227z" />
    <glyph glyph-name="uni0411" unicode="&#x411;" horiz-adv-x="681" 
d="M70 0v680h525v-156h-349v-102h151q116 0 182 -42.5t66 -161.5t-65 -168.5t-178 -49.5h-332zM381 272h-135v-122h135q46 0 68 13.5t22 49.5q0 34 -22 46.5t-68 12.5z" />
    <glyph glyph-name="uni0412" unicode="&#x412;" horiz-adv-x="693" 
d="M70 0v680h338q110 0 170 -46t60 -141q0 -45 -24 -87.5t-87 -61.5q73 -16 101.5 -58.5t28.5 -100.5q0 -91 -61 -138t-185 -47h-341zM379 536h-133v-124h133q46 0 63.5 17.5t17.5 47.5q0 29 -17.5 44t-63.5 15zM385 272h-139v-128h138q53 0 72.5 15.5t19.5 49.5
q0 32 -20 47.5t-71 15.5z" />
    <glyph glyph-name="uni0413" unicode="&#x413;" horiz-adv-x="562" 
d="M70 0v680h472v-164h-296v-516h-176z" />
    <glyph glyph-name="uni0403" unicode="&#x403;" horiz-adv-x="562" 
d="M70 0v680h472v-164h-296v-516h-176zM306 876h183l-125 -144h-157z" />
    <glyph glyph-name="uni0414" unicode="&#x414;" horiz-adv-x="794" 
d="M8 -142v306h72q31 28 50 84t19 119v313h535v-516h100v-306h-168v142h-440v-142h-168zM317 346q-1 -54 -13.5 -99.5t-36.5 -82.5h241v352h-188z" />
    <glyph glyph-name="uni0415" unicode="&#x415;" horiz-adv-x="621" 
d="M70 0v680h501v-150h-325v-116h310v-146h-310v-118h322v-150h-498z" />
    <glyph glyph-name="uni0400" unicode="&#x400;" horiz-adv-x="621" 
d="M70 0v680h501v-150h-325v-116h310v-146h-310v-118h322v-150h-498zM311 876l99 -144h-157l-125 144h183z" />
    <glyph glyph-name="uni0401" unicode="&#x401;" horiz-adv-x="621" 
d="M70 0v680h501v-150h-325v-116h310v-146h-310v-118h322v-150h-498zM144 744v132h146v-132h-146zM353 744v132h146v-132h-146z" />
    <glyph glyph-name="uni0416" unicode="&#x416;" horiz-adv-x="1042" 
d="M433 0v265h-51l-165 -265h-215l231 349l-231 331h205l169 -257h57v257h176v-257h57l169 257h205l-231 -331l231 -349h-215l-165 265h-51v-265h-176z" />
    <glyph glyph-name="uni0417" unicode="&#x417;" horiz-adv-x="689" 
d="M348 534q-60 0 -89 -24.5t-39 -65.5l-181 29q20 99 96 158t216 59q137 0 209.5 -50.5t72.5 -146.5q0 -52 -28 -89.5t-86 -55.5q63 -13 97 -50.5t34 -100.5q0 -91 -71 -149t-230 -58q-143 0 -222 56t-92 163l178 27q7 -40 41 -65t96 -25q60 0 91 15t31 49t-24.5 47
t-79.5 13h-106v144h108q46 0 65.5 14.5t19.5 44.5t-26 45.5t-81 15.5z" />
    <glyph glyph-name="uni0418" unicode="&#x418;" horiz-adv-x="782" 
d="M536 0v416l-290 -416h-176v680h176v-418l290 418h176v-680h-176z" />
    <glyph glyph-name="uni040D" unicode="&#x40d;" horiz-adv-x="782" 
d="M536 0v416l-290 -416h-176v680h176v-418l290 418h176v-680h-176zM394 876l99 -144h-157l-125 144h183z" />
    <glyph glyph-name="uni0419" unicode="&#x419;" horiz-adv-x="782" 
d="M536 0v416l-290 -416h-176v680h176v-418l290 418h176v-680h-176zM184 884h144q4 -37 19 -53.5t49 -16.5t48 16.5t17 53.5h145q-2 -91 -53 -134.5t-157 -43.5q-107 0 -159 43.5t-53 134.5z" />
    <glyph glyph-name="uni041A" unicode="&#x41a;" horiz-adv-x="710" 
d="M70 0v680h176v-257h64l187 257h205l-248 -329l254 -351h-213l-184 259h-65v-259h-176z" />
    <glyph glyph-name="uni040C" unicode="&#x40c;" horiz-adv-x="710" 
d="M70 0v680h176v-257h64l187 257h205l-248 -329l254 -351h-213l-184 259h-65v-259h-176zM365 876h183l-125 -144h-157z" />
    <glyph glyph-name="uni041B" unicode="&#x41b;" horiz-adv-x="744" 
d="M140 253q1 40 2 91.5t2 107t1 114.5v114h529v-680h-176v516h-182q-1 -66 -2 -139t-3 -147q-2 -68 -17 -112.5t-44 -70.5t-72 -36.5t-100 -10.5h-63v170h34q44 0 67 17.5t24 65.5z" />
    <glyph glyph-name="uni041C" unicode="&#x41c;" horiz-adv-x="936" 
d="M390 63l-156 363v-426h-164v680h234l167 -405l167 405h228v-680h-170v432l-156 -369h-150z" />
    <glyph glyph-name="uni041D" unicode="&#x41d;" horiz-adv-x="754" 
d="M70 0v680h176v-256h262v256h176v-680h-176v260h-262v-260h-176z" />
    <glyph glyph-name="uni041E" unicode="&#x41e;" horiz-adv-x="784" 
d="M392 -10q-75 0 -139 20.5t-110 63t-72.5 109.5t-26.5 158q0 90 26.5 156t72.5 109t110 63.5t139 20.5t139 -20.5t110.5 -63.5t72.5 -109t26 -156q0 -91 -26 -158t-72.5 -109.5t-110.5 -63t-139 -20.5zM392 146q80 0 124 51t44 144t-44 143t-124 50t-124 -50t-44 -143
t44 -144t124 -51z" />
    <glyph glyph-name="uni041F" unicode="&#x41f;" horiz-adv-x="760" 
d="M70 0v680h620v-680h-176v515h-268v-515h-176z" />
    <glyph glyph-name="uni0420" unicode="&#x420;" horiz-adv-x="676" 
d="M70 0v680h320q57 0 104 -13t81 -40.5t52.5 -72t18.5 -106.5q0 -122 -72.5 -176t-188.5 -54h-139v-218h-176zM246 368h120q54 0 77 19.5t23 60.5q0 43 -23 62.5t-77 19.5h-120v-162z" />
    <glyph glyph-name="uni0421" unicode="&#x421;" horiz-adv-x="736" 
d="M380 146q64 0 97.5 29.5t45.5 77.5l178 -29q-22 -113 -98.5 -173.5t-221.5 -60.5q-75 0 -137 21.5t-106 65t-68.5 109.5t-24.5 154q0 91 25.5 157.5t70.5 109t107.5 63t134.5 20.5q143 0 219.5 -62t98.5 -170l-178 -29q-14 46 -47 75.5t-93 29.5q-67 0 -112.5 -48
t-45.5 -146q0 -95 44 -144.5t111 -49.5z" />
    <glyph glyph-name="uni0422" unicode="&#x422;" horiz-adv-x="660" 
d="M20 516v164h620v-164h-222v-516h-176v516h-222z" />
    <glyph glyph-name="uni0423" unicode="&#x423;" horiz-adv-x="687" 
d="M456 168q-21 -48 -43 -80.5t-50.5 -51.5t-66.5 -27.5t-91 -8.5h-84v162h58q28 0 48 3.5t33 10.5l-255 504h198l156 -339l145 339h181z" />
    <glyph glyph-name="uni040E" unicode="&#x40e;" horiz-adv-x="687" 
d="M456 168q-21 -48 -43 -80.5t-50.5 -51.5t-66.5 -27.5t-91 -8.5h-84v162h58q28 0 48 3.5t33 10.5l-255 504h198l156 -339l145 339h181zM143 884h144q4 -37 19 -53.5t49 -16.5t48 16.5t17 53.5h145q-2 -91 -53 -134.5t-157 -43.5q-107 0 -159 43.5t-53 134.5z" />
    <glyph glyph-name="uni0424" unicode="&#x424;" horiz-adv-x="939" 
d="M382 -33v82q-75 0 -138 19t-108 56.5t-70.5 93.5t-25.5 130q0 73 25.5 128t70.5 90.5t108 53.5t138 18v78h176v-78h3q75 0 137.5 -18.5t107 -54.5t69 -90.5t24.5 -126.5q0 -73 -24.5 -129t-69 -93.5t-107 -57t-137.5 -19.5h-3v-82h-176zM558 489h-4v-291h2q67 0 115 37
t48 113q0 77 -47.5 109t-113.5 32zM384 198h2v291q-34 0 -64.5 -7.5t-53 -24.5t-35.5 -44t-13 -65q0 -76 48.5 -113t115.5 -37z" />
    <glyph glyph-name="uni0425" unicode="&#x425;" horiz-adv-x="725" 
d="M10 0l236 352l-230 328h215l132 -194l121 194h214l-226 -336l243 -344h-215l-144 218l-135 -218h-211z" />
    <glyph glyph-name="uni0426" unicode="&#x426;" horiz-adv-x="792" 
d="M682 680v-516h100v-306h-168v142h-544v680h176v-516h260v516h176z" />
    <glyph glyph-name="uni0427" unicode="&#x427;" horiz-adv-x="708" 
d="M222 503q0 -67 32 -93.5t107 -26.5q25 0 51.5 2t49.5 5v290h176v-680h-176v236q-28 -4 -65.5 -8t-75.5 -4q-155 0 -215 59t-60 199v198h176v-177z" />
    <glyph glyph-name="uni0428" unicode="&#x428;" horiz-adv-x="1054" 
d="M70 0v680h176v-516h193v516h176v-516h193v516h176v-680h-914z" />
    <glyph glyph-name="uni0429" unicode="&#x429;" horiz-adv-x="1094" 
d="M70 0v680h176v-516h193v516h176v-516h193v516h176v-516h100v-306h-168v142h-846z" />
    <glyph glyph-name="uni042A" unicode="&#x42a;" horiz-adv-x="805" 
d="M20 516v164h351v-222h137q116 0 188.5 -53t72.5 -180q0 -59 -18.5 -102t-52.5 -70t-81 -40t-104 -13h-318v516h-175zM489 152q54 0 77 17.5t23 60.5q0 41 -23 58.5t-77 17.5h-118v-154h118z" />
    <glyph glyph-name="uni042B" unicode="&#x42b;" horiz-adv-x="966" 
d="M70 680h176v-222h137q116 0 188.5 -53t72.5 -180q0 -59 -18.5 -102t-52.5 -70t-81 -40t-104 -13h-318v680zM720 0v680h176v-680h-176zM364 152q54 0 77 17.5t23 60.5q0 41 -23 58.5t-77 17.5h-118v-154h118z" />
    <glyph glyph-name="uni042C" unicode="&#x42c;" horiz-adv-x="682" 
d="M70 680h176v-222h139q116 0 188.5 -53t72.5 -180q0 -59 -18.5 -102t-52.5 -70t-81 -40t-104 -13h-320v680zM366 152q54 0 77 17.5t23 60.5q0 41 -23 58.5t-77 17.5h-120v-154h120z" />
    <glyph glyph-name="uni042D" unicode="&#x42d;" horiz-adv-x="733" 
d="M35 214l178 29q12 -44 49 -71t101 -27q55 0 92 30.5t50 90.5h-229v150h229q-12 62 -48 90.5t-92 28.5t-95.5 -25.5t-55.5 -71.5l-178 29q32 113 119.5 167.5t206.5 54.5q71 0 131.5 -20.5t103.5 -62.5t67 -107.5t24 -153.5q0 -179 -89.5 -267t-241.5 -88
q-131 0 -215.5 55t-106.5 169z" />
    <glyph glyph-name="uni042E" unicode="&#x42e;" horiz-adv-x="1085" 
d="M693 -10q-66 0 -123.5 16t-102 48.5t-74.5 83.5t-42 120h-105v-258h-176v680h176v-257h105q12 69 42 119.5t74.5 83t102 48.5t123.5 16q75 0 139 -20.5t110.5 -63.5t72.5 -109t26 -156q0 -91 -26 -158t-72.5 -109.5t-110.5 -63t-139 -20.5zM693 146q80 0 124 51t44 144
t-44 143t-124 50t-124 -50t-44 -143t44 -144t124 -51z" />
    <glyph glyph-name="uni042F" unicode="&#x42f;" horiz-adv-x="712" 
d="M642 0h-176v222h-105l-127 -222h-194l144 241q-62 22 -97.5 74.5t-35.5 139.5q0 59 18.5 102t52.5 70t81 40t104 13h335v-680zM331 528q-54 0 -77 -17.5t-23 -60.5q0 -41 23 -58.5t77 -17.5h135v154h-135z" />
    <glyph glyph-name="uni0462" unicode="&#x462;" horiz-adv-x="795" 
d="M185 0v504h-175v148h175v74h174v-74h281v-148h-281v-88h150q116 0 182 -46.5t66 -160.5q0 -112 -65 -160.5t-178 -48.5h-329zM506 268h-147v-120h147q40 0 60 13t20 46t-20 47t-60 14z" />
    <glyph glyph-name="uni0472" unicode="&#x472;" horiz-adv-x="784" 
d="M392 -10q-75 0 -139 20.5t-110 63t-72.5 109.5t-26.5 158q0 90 26.5 156t72.5 109t110 63.5t139 20.5t139 -20.5t110.5 -63.5t72.5 -109t26 -156q0 -91 -26 -158t-72.5 -109.5t-110.5 -63t-139 -20.5zM392 536q-64 0 -107 -32.5t-57 -95.5h328q-14 63 -57 95.5t-107 32.5
zM392 144q64 0 106.5 33t57.5 95h-328q15 -62 57.5 -95t106.5 -33z" />
    <glyph glyph-name="uni0474" unicode="&#x474;" horiz-adv-x="730" 
d="M475 536q13 41 28.5 69t37 44.5t52 23.5t74.5 7h63v-164h-25q-37 0 -54.5 -16.5t-30.5 -53.5l-159 -446h-209l-247 680h192l166 -483z" />
    <glyph glyph-name="uni0490" unicode="&#x490;" horiz-adv-x="577" 
d="M70 0v680h318v137h169v-301h-311v-516h-176z" />
    <glyph glyph-name="uni0492" unicode="&#x492;" horiz-adv-x="562" 
d="M70 0v232h-65v136h65v312h472v-164h-297v-148h151v-136h-151v-232h-175z" />
    <glyph glyph-name="uni049A" unicode="&#x49a;" horiz-adv-x="716" 
d="M70 0v680h176v-257h64l187 257h205l-248 -329l135 -187h119v-306h-168v142h-45l-184 259h-65v-259h-176z" />
    <glyph glyph-name="uni04A2" unicode="&#x4a2;" horiz-adv-x="794" 
d="M70 0v680h176v-256h262v256h176v-516h100v-306h-168v142h-108v260h-262v-260h-176z" />
    <glyph glyph-name="uni04AE" unicode="&#x4ae;" horiz-adv-x="719" 
d="M273 0v222l-268 458h206l153 -280l152 280h201l-268 -458v-222h-176z" />
    <glyph glyph-name="uni04B0" unicode="&#x4b0;" horiz-adv-x="719" 
d="M273 0v189h-164v136h110l-214 355h205l154 -278l154 278h199l-214 -355h106v-136h-160v-189h-176z" />
    <glyph glyph-name="uni04BA" unicode="&#x4ba;" horiz-adv-x="710" 
d="M486 177q0 67 -32 93.5t-107 26.5q-25 0 -51.5 -2t-49.5 -5v-290h-176v680h176v-236q28 4 65.5 8t75.5 4q155 0 215 -59t60 -199v-198h-176v177z" />
    <glyph glyph-name="uni04D8" unicode="&#x4d8;" horiz-adv-x="755" 
d="M44 339q0 15 2 33t5 28h477q-11 67 -51 99.5t-101 32.5q-57 0 -93 -26.5t-50 -67.5l-181 20q28 111 112.5 171.5t212.5 60.5q76 0 138.5 -23t105.5 -67t66.5 -110t23.5 -150q0 -88 -26 -154t-70.5 -109.5t-105.5 -65t-130 -21.5q-160 0 -247.5 93.5t-87.5 255.5zM379 144
q55 0 93.5 29.5t52.5 91.5h-296q13 -63 52.5 -92t97.5 -29z" />
    <glyph glyph-name="uni04E8" unicode="&#x4e8;" horiz-adv-x="784" 
d="M392 -10q-75 0 -139 20.5t-110 63t-72.5 109.5t-26.5 158q0 90 26.5 156t72.5 109t110 63.5t139 20.5t139 -20.5t110.5 -63.5t72.5 -109t26 -156q0 -91 -26 -158t-72.5 -109.5t-110.5 -63t-139 -20.5zM392 536q-64 0 -107 -32.5t-57 -95.5h328q-14 63 -57 95.5t-107 32.5
zM392 144q64 0 106.5 33t57.5 95h-328q15 -62 57.5 -95t106.5 -33z" />
    <glyph glyph-name="a" unicode="a" horiz-adv-x="546" 
d="M338 0v54q-23 -34 -60 -49t-79 -15q-34 0 -64 9.5t-52.5 28.5t-35.5 46.5t-13 63.5q0 78 49.5 113t135.5 42q31 2 60.5 2.5t52.5 -0.5v32q0 26 -16.5 38.5t-48.5 12.5q-24 0 -42 -12t-23 -45l-151 21q9 69 65 116t155 47q47 0 88 -8.5t71 -29t47 -56.5t17 -90v-321h-156z
M332 195q-14 1 -36 0.5t-41 -1.5q-22 -1 -39.5 -10.5t-17.5 -30.5q0 -22 16 -33t42 -11q36 0 56 16.5t20 43.5v26z" />
    <glyph glyph-name="agrave" unicode="&#xe0;" horiz-adv-x="546" 
d="M338 0v54q-23 -34 -60 -49t-79 -15q-34 0 -64 9.5t-52.5 28.5t-35.5 46.5t-13 63.5q0 78 49.5 113t135.5 42q31 2 60.5 2.5t52.5 -0.5v32q0 26 -16.5 38.5t-48.5 12.5q-24 0 -42 -12t-23 -45l-151 21q9 69 65 116t155 47q47 0 88 -8.5t71 -29t47 -56.5t17 -90v-321h-156z
M332 195q-14 1 -36 0.5t-41 -1.5q-22 -1 -39.5 -10.5t-17.5 -30.5q0 -22 16 -33t42 -11q36 0 56 16.5t20 43.5v26zM281 700h-173l119 -150h143z" />
    <glyph glyph-name="aacute" unicode="&#xe1;" horiz-adv-x="546" 
d="M338 0v54q-23 -34 -60 -49t-79 -15q-34 0 -64 9.5t-52.5 28.5t-35.5 46.5t-13 63.5q0 78 49.5 113t135.5 42q31 2 60.5 2.5t52.5 -0.5v32q0 26 -16.5 38.5t-48.5 12.5q-24 0 -42 -12t-23 -45l-151 21q9 69 65 116t155 47q47 0 88 -8.5t71 -29t47 -56.5t17 -90v-321h-156z
M332 195q-14 1 -36 0.5t-41 -1.5q-22 -1 -39.5 -10.5t-17.5 -30.5q0 -22 16 -33t42 -11q36 0 56 16.5t20 43.5v26zM276 700h173l-119 -150h-143z" />
    <glyph glyph-name="acircumflex" unicode="&#xe2;" horiz-adv-x="546" 
d="M338 0v54q-23 -34 -60 -49t-79 -15q-34 0 -64 9.5t-52.5 28.5t-35.5 46.5t-13 63.5q0 78 49.5 113t135.5 42q31 2 60.5 2.5t52.5 -0.5v32q0 26 -16.5 38.5t-48.5 12.5q-24 0 -42 -12t-23 -45l-151 21q9 69 65 116t155 47q47 0 88 -8.5t71 -29t47 -56.5t17 -90v-321h-156z
M332 195q-14 1 -36 0.5t-41 -1.5q-22 -1 -39.5 -10.5t-17.5 -30.5q0 -22 16 -33t42 -11q36 0 56 16.5t20 43.5v26zM196 700h160l106 -150h-140l-46 80l-46 -80h-140z" />
    <glyph glyph-name="atilde" unicode="&#xe3;" horiz-adv-x="546" 
d="M338 0v54q-23 -34 -60 -49t-79 -15q-34 0 -64 9.5t-52.5 28.5t-35.5 46.5t-13 63.5q0 78 49.5 113t135.5 42q31 2 60.5 2.5t52.5 -0.5v32q0 26 -16.5 38.5t-48.5 12.5q-24 0 -42 -12t-23 -45l-151 21q9 69 65 116t155 47q47 0 88 -8.5t71 -29t47 -56.5t17 -90v-321h-156z
M332 195q-14 1 -36 0.5t-41 -1.5q-22 -1 -39.5 -10.5t-17.5 -30.5q0 -22 16 -33t42 -11q36 0 56 16.5t20 43.5v26zM109 556v21q0 51 27 87t75 36q19 0 34 -5.5t26.5 -11.5t22 -11.5t22.5 -5.5q13 0 21 7.5t8 21.5v5h99v-20q0 -49 -22 -86.5t-71 -37.5q-20 0 -37 5.5
t-30.5 11.5t-25 11.5t-21.5 5.5q-13 0 -21 -8.5t-8 -22.5v-3h-99z" />
    <glyph glyph-name="adieresis" unicode="&#xe4;" horiz-adv-x="546" 
d="M338 0v54q-23 -34 -60 -49t-79 -15q-34 0 -64 9.5t-52.5 28.5t-35.5 46.5t-13 63.5q0 78 49.5 113t135.5 42q31 2 60.5 2.5t52.5 -0.5v32q0 26 -16.5 38.5t-48.5 12.5q-24 0 -42 -12t-23 -45l-151 21q9 69 65 116t155 47q47 0 88 -8.5t71 -29t47 -56.5t17 -90v-321h-156z
M332 195q-14 1 -36 0.5t-41 -1.5q-22 -1 -39.5 -10.5t-17.5 -30.5q0 -22 16 -33t42 -11q36 0 56 16.5t20 43.5v26zM94 553v137h149v-137h-149zM304 553v137h149v-137h-149z" />
    <glyph glyph-name="aring" unicode="&#xe5;" horiz-adv-x="546" 
d="M338 0v54q-23 -34 -60 -49t-79 -15q-34 0 -64 9.5t-52.5 28.5t-35.5 46.5t-13 63.5q0 78 49.5 113t135.5 42q31 2 60.5 2.5t52.5 -0.5v32q0 26 -16.5 38.5t-48.5 12.5q-24 0 -42 -12t-23 -45l-151 21q9 69 65 116t155 47q47 0 88 -8.5t71 -29t47 -56.5t17 -90v-321h-156z
M332 195q-14 1 -36 0.5t-41 -1.5q-22 -1 -39.5 -10.5t-17.5 -30.5q0 -22 16 -33t42 -11q36 0 56 16.5t20 43.5v26zM281 525q-51 0 -82 31.5t-31 79.5t31 80t82 32t82.5 -32t31.5 -80t-31.5 -79.5t-82.5 -31.5zM281 599q17 0 27.5 10.5t10.5 26.5t-10.5 27t-27.5 11t-27 -11
t-10 -27t10 -26.5t27 -10.5z" />
    <glyph glyph-name="amacron" unicode="&#x101;" horiz-adv-x="546" 
d="M338 0v54q-23 -34 -60 -49t-79 -15q-34 0 -64 9.5t-52.5 28.5t-35.5 46.5t-13 63.5q0 78 49.5 113t135.5 42q31 2 60.5 2.5t52.5 -0.5v32q0 26 -16.5 38.5t-48.5 12.5q-24 0 -42 -12t-23 -45l-151 21q9 69 65 116t155 47q47 0 88 -8.5t71 -29t47 -56.5t17 -90v-321h-156z
M332 195q-14 1 -36 0.5t-41 -1.5q-22 -1 -39.5 -10.5t-17.5 -30.5q0 -22 16 -33t42 -11q36 0 56 16.5t20 43.5v26zM419 570h-294v110h294v-110z" />
    <glyph glyph-name="abreve" unicode="&#x103;" horiz-adv-x="546" 
d="M338 0v54q-23 -34 -60 -49t-79 -15q-34 0 -64 9.5t-52.5 28.5t-35.5 46.5t-13 63.5q0 78 49.5 113t135.5 42q31 2 60.5 2.5t52.5 -0.5v32q0 26 -16.5 38.5t-48.5 12.5q-24 0 -42 -12t-23 -45l-151 21q9 69 65 116t155 47q47 0 88 -8.5t71 -29t47 -56.5t17 -90v-321h-156z
M332 195q-14 1 -36 0.5t-41 -1.5q-22 -1 -39.5 -10.5t-17.5 -30.5q0 -22 16 -33t42 -11q36 0 56 16.5t20 43.5v26zM273 544q-87 0 -127 41t-44 109h121q2 -25 15 -38.5t37 -13.5q23 0 34 13.5t13 38.5h122q-3 -68 -44 -109t-127 -41z" />
    <glyph glyph-name="aogonek" unicode="&#x105;" horiz-adv-x="546" 
d="M414 -205q-58 0 -99.5 27.5t-41.5 80.5q0 33 17.5 58t47.5 42v51q-23 -34 -60 -49t-79 -15q-34 0 -64 9.5t-52.5 28.5t-35.5 46.5t-13 63.5q0 78 49.5 113t135.5 42q31 2 60.5 2.5t52.5 -0.5v32q0 26 -16.5 38.5t-48.5 12.5q-24 0 -42 -12t-23 -45l-151 21q9 69 65 116
t155 47q47 0 88 -8.5t71 -29t47 -56.5t17 -90v-321q-28 -9 -48.5 -24.5t-20.5 -37.5q0 -16 11 -23t29 -7q10 0 19 1.5t17 2.5l6 -104q-13 -5 -37.5 -9t-55.5 -4zM332 195q-14 1 -36 0.5t-41 -1.5q-22 -1 -39.5 -10.5t-17.5 -30.5q0 -22 16 -33t42 -11q36 0 56 16.5t20 43.5
v26z" />
    <glyph glyph-name="ae" unicode="&#xe6;" horiz-adv-x="840" 
d="M812 155q-13 -72 -66.5 -118.5t-157.5 -46.5q-68 0 -116 22t-74 64q-22 -40 -71.5 -63t-117.5 -23q-75 0 -125 38.5t-50 110.5q0 78 49.5 114t135.5 43q31 2 61 2.5t53 -0.5v27q0 26 -15 39.5t-45 13.5q-26 0 -46 -12t-25 -45l-151 21q9 69 65 116t155 47
q57 0 99.5 -16.5t63.5 -39.5q22 23 62 39.5t90 16.5q114 0 171.5 -66.5t57.5 -176.5v-53h-318q5 -43 28 -68t65 -25q37 0 54 17.5t24 41.5zM586 379q-28 0 -52.5 -17t-32.5 -56h159q-3 31 -21 52t-53 21zM334 198q-14 1 -37 0.5t-42 -1.5q-22 -1 -39.5 -11.5t-17.5 -31.5
q0 -23 17 -34t41 -11q36 0 57 16.5t21 43.5v29z" />
    <glyph glyph-name="aeacute" unicode="&#x1fd;" horiz-adv-x="840" 
d="M812 155q-13 -72 -66.5 -118.5t-157.5 -46.5q-68 0 -116 22t-74 64q-22 -40 -71.5 -63t-117.5 -23q-75 0 -125 38.5t-50 110.5q0 78 49.5 114t135.5 43q31 2 61 2.5t53 -0.5v27q0 26 -15 39.5t-45 13.5q-26 0 -46 -12t-25 -45l-151 21q9 69 65 116t155 47
q57 0 99.5 -16.5t63.5 -39.5q22 23 62 39.5t90 16.5q114 0 171.5 -66.5t57.5 -176.5v-53h-318q5 -43 28 -68t65 -25q37 0 54 17.5t24 41.5zM586 379q-28 0 -52.5 -17t-32.5 -56h159q-3 31 -21 52t-53 21zM334 198q-14 1 -37 0.5t-42 -1.5q-22 -1 -39.5 -11.5t-17.5 -31.5
q0 -23 17 -34t41 -11q36 0 57 16.5t21 43.5v29zM446 700h173l-119 -150h-143z" />
    <glyph glyph-name="uni01E3" unicode="&#x1e3;" horiz-adv-x="840" 
d="M812 155q-13 -72 -66.5 -118.5t-157.5 -46.5q-68 0 -116 22t-74 64q-22 -40 -71.5 -63t-117.5 -23q-75 0 -125 38.5t-50 110.5q0 78 49.5 114t135.5 43q31 2 61 2.5t53 -0.5v27q0 26 -15 39.5t-45 13.5q-26 0 -46 -12t-25 -45l-151 21q9 69 65 116t155 47
q57 0 99.5 -16.5t63.5 -39.5q22 23 62 39.5t90 16.5q114 0 171.5 -66.5t57.5 -176.5v-53h-318q5 -43 28 -68t65 -25q37 0 54 17.5t24 41.5zM586 379q-28 0 -52.5 -17t-32.5 -56h159q-3 31 -21 52t-53 21zM334 198q-14 1 -37 0.5t-42 -1.5q-22 -1 -39.5 -11.5t-17.5 -31.5
q0 -23 17 -34t41 -11q36 0 57 16.5t21 43.5v29zM592 570h-294v110h294v-110z" />
    <glyph glyph-name="b" unicode="b" horiz-adv-x="590" 
d="M55 0v680h168v-225q32 28 64 39t70 11q43 0 80.5 -16.5t65.5 -48t44 -79t16 -109.5q0 -66 -17 -115.5t-46 -82t-69 -48.5t-86 -16q-36 0 -68 11.5t-59 36.5v-38h-163zM223 209q0 -34 21.5 -57t63.5 -23q40 0 63.5 30.5t23.5 88.5t-23.5 88.5t-63.5 30.5q-42 0 -63.5 -23
t-21.5 -57v-78z" />
    <glyph glyph-name="c" unicode="c" horiz-adv-x="527" 
d="M355 196l151 -18q-16 -88 -74.5 -138t-156.5 -50q-115 0 -182.5 66t-67.5 191q0 61 18.5 109t51 81t79 50.5t101.5 17.5q54 0 95 -14.5t68.5 -39t44 -57t22.5 -68.5l-149 -28q-7 31 -24.5 51.5t-53.5 20.5q-40 0 -64 -30.5t-24 -90.5q0 -63 23 -93.5t63 -30.5
q35 0 54 19.5t25 51.5z" />
    <glyph glyph-name="ccedilla" unicode="&#xe7;" horiz-adv-x="527" 
d="M263 -223q-65 0 -97.5 20.5t-38.5 60.5l94 19q4 -16 14 -23.5t29 -7.5t29 7t10 22q0 16 -16 22.5t-50 4.5l-34 -2v53l35 39q-99 10 -156 75.5t-57 179.5q0 61 18.5 109t51 81t79 50.5t101.5 17.5q54 0 95 -14.5t68.5 -39t44 -57t22.5 -68.5l-149 -28q-7 31 -24.5 51.5
t-53.5 20.5q-40 0 -64 -30.5t-24 -90.5q0 -63 23 -93.5t63 -30.5q35 0 54 19.5t25 51.5l151 -18q-13 -76 -59 -124t-121 -60l-28 -31q51 -1 79 -21t28 -66q0 -47 -39.5 -73t-102.5 -26z" />
    <glyph glyph-name="cacute" unicode="&#x107;" horiz-adv-x="527" 
d="M355 196l151 -18q-16 -88 -74.5 -138t-156.5 -50q-115 0 -182.5 66t-67.5 191q0 61 18.5 109t51 81t79 50.5t101.5 17.5q54 0 95 -14.5t68.5 -39t44 -57t22.5 -68.5l-149 -28q-7 31 -24.5 51.5t-53.5 20.5q-40 0 -64 -30.5t-24 -90.5q0 -63 23 -93.5t63 -30.5
q35 0 54 19.5t25 51.5zM277 700h173l-119 -150h-143z" />
    <glyph glyph-name="ccircumflex" unicode="&#x109;" horiz-adv-x="527" 
d="M355 196l151 -18q-16 -88 -74.5 -138t-156.5 -50q-115 0 -182.5 66t-67.5 191q0 61 18.5 109t51 81t79 50.5t101.5 17.5q54 0 95 -14.5t68.5 -39t44 -57t22.5 -68.5l-149 -28q-7 31 -24.5 51.5t-53.5 20.5q-40 0 -64 -30.5t-24 -90.5q0 -63 23 -93.5t63 -30.5
q35 0 54 19.5t25 51.5zM186 700h160l106 -150h-140l-46 80l-46 -80h-140z" />
    <glyph glyph-name="cdotaccent" unicode="&#x10b;" horiz-adv-x="527" 
d="M355 196l151 -18q-16 -88 -74.5 -138t-156.5 -50q-115 0 -182.5 66t-67.5 191q0 61 18.5 109t51 81t79 50.5t101.5 17.5q54 0 95 -14.5t68.5 -39t44 -57t22.5 -68.5l-149 -28q-7 31 -24.5 51.5t-53.5 20.5q-40 0 -64 -30.5t-24 -90.5q0 -63 23 -93.5t63 -30.5
q35 0 54 19.5t25 51.5zM186 553v137h169v-137h-169z" />
    <glyph glyph-name="ccaron" unicode="&#x10d;" horiz-adv-x="527" 
d="M355 196l151 -18q-16 -88 -74.5 -138t-156.5 -50q-115 0 -182.5 66t-67.5 191q0 61 18.5 109t51 81t79 50.5t101.5 17.5q54 0 95 -14.5t68.5 -39t44 -57t22.5 -68.5l-149 -28q-7 31 -24.5 51.5t-53.5 20.5q-40 0 -64 -30.5t-24 -90.5q0 -63 23 -93.5t63 -30.5
q35 0 54 19.5t25 51.5zM192 550l-109 150h143l46 -76l45 76h143l-108 -150h-160z" />
    <glyph glyph-name="d" unicode="d" horiz-adv-x="590" 
d="M372 0v44q-25 -25 -58 -39.5t-79 -14.5q-43 0 -81 16.5t-66 48t-44.5 79t-16.5 109.5q0 66 17 115.5t46 82t69 48.5t86 16q39 0 69.5 -11.5t52.5 -29.5v216h168v-680h-163zM367 209v78q0 34 -19.5 57t-59.5 23q-44 0 -68.5 -31t-24.5 -89q0 -57 23.5 -87.5t63.5 -30.5
q42 0 63.5 23t21.5 57z" />
    <glyph glyph-name="dcaron" unicode="&#x10f;" horiz-adv-x="590" 
d="M372 0v44q-25 -25 -58 -39.5t-79 -14.5q-43 0 -81 16.5t-66 48t-44.5 79t-16.5 109.5q0 66 17 115.5t46 82t69 48.5t86 16q39 0 69.5 -11.5t52.5 -29.5v216h168v-680h-163zM367 209v78q0 34 -19.5 57t-59.5 23q-44 0 -68.5 -31t-24.5 -89q0 -57 23.5 -87.5t63.5 -30.5
q42 0 63.5 23t21.5 57zM595 690h147l-78 -215h-106z" />
    <glyph glyph-name="dcroat" unicode="&#x111;" horiz-adv-x="590" 
d="M372 0v45q-25 -25 -58 -40t-79 -15q-43 0 -81 16.5t-66 48t-44.5 79t-16.5 109.5q0 66 17 115t46 81t69 48t86 16q40 0 71 -12t53 -31v78h-99v96h99v46h166v-46h48v-96h-48v-538h-163zM367 207v78q0 34 -21.5 57t-63.5 23q-40 0 -63.5 -30.5t-23.5 -88.5t23.5 -88.5
t63.5 -30.5q42 0 63.5 23t21.5 57z" />
    <glyph glyph-name="e" unicode="e" horiz-adv-x="534" 
d="M507 210h-323q5 -47 28.5 -70t63.5 -23t57.5 18t23.5 34l146 -28q-7 -26 -23 -53t-43 -48.5t-67 -35.5t-95 -14q-119 0 -184.5 68t-65.5 190q0 64 19.5 112.5t53 80.5t78.5 48t96 16q59 0 103.5 -19t73.5 -53.5t43.5 -83t14.5 -106.5v-33zM272 378q-28 0 -51 -15.5
t-33 -55.5h162q-4 36 -25 53.5t-53 17.5z" />
    <glyph glyph-name="egrave" unicode="&#xe8;" horiz-adv-x="534" 
d="M507 210h-323q5 -47 28.5 -70t63.5 -23t57.5 18t23.5 34l146 -28q-7 -26 -23 -53t-43 -48.5t-67 -35.5t-95 -14q-119 0 -184.5 68t-65.5 190q0 64 19.5 112.5t53 80.5t78.5 48t96 16q59 0 103.5 -19t73.5 -53.5t43.5 -83t14.5 -106.5v-33zM272 378q-28 0 -51 -15.5
t-33 -55.5h162q-4 36 -25 53.5t-53 17.5zM264 700h-173l119 -150h143z" />
    <glyph glyph-name="eacute" unicode="&#xe9;" horiz-adv-x="534" 
d="M507 210h-323q5 -47 28.5 -70t63.5 -23t57.5 18t23.5 34l146 -28q-7 -26 -23 -53t-43 -48.5t-67 -35.5t-95 -14q-119 0 -184.5 68t-65.5 190q0 64 19.5 112.5t53 80.5t78.5 48t96 16q59 0 103.5 -19t73.5 -53.5t43.5 -83t14.5 -106.5v-33zM272 378q-28 0 -51 -15.5
t-33 -55.5h162q-4 36 -25 53.5t-53 17.5zM268 700h173l-119 -150h-143z" />
    <glyph glyph-name="ecircumflex" unicode="&#xea;" horiz-adv-x="534" 
d="M507 210h-323q5 -47 28.5 -70t63.5 -23t57.5 18t23.5 34l146 -28q-7 -26 -23 -53t-43 -48.5t-67 -35.5t-95 -14q-119 0 -184.5 68t-65.5 190q0 64 19.5 112.5t53 80.5t78.5 48t96 16q59 0 103.5 -19t73.5 -53.5t43.5 -83t14.5 -106.5v-33zM272 378q-28 0 -51 -15.5
t-33 -55.5h162q-4 36 -25 53.5t-53 17.5zM188 701h160l106 -150h-140l-46 80l-46 -80h-140z" />
    <glyph glyph-name="edieresis" unicode="&#xeb;" horiz-adv-x="534" 
d="M507 210h-323q5 -47 28.5 -70t63.5 -23t57.5 18t23.5 34l146 -28q-7 -26 -23 -53t-43 -48.5t-67 -35.5t-95 -14q-119 0 -184.5 68t-65.5 190q0 64 19.5 112.5t53 80.5t78.5 48t96 16q59 0 103.5 -19t73.5 -53.5t43.5 -83t14.5 -106.5v-33zM272 378q-28 0 -51 -15.5
t-33 -55.5h162q-4 36 -25 53.5t-53 17.5zM88 553v137h149v-137h-149zM298 553v137h149v-137h-149z" />
    <glyph glyph-name="emacron" unicode="&#x113;" horiz-adv-x="534" 
d="M507 210h-323q5 -47 28.5 -70t63.5 -23t57.5 18t23.5 34l146 -28q-7 -26 -23 -53t-43 -48.5t-67 -35.5t-95 -14q-119 0 -184.5 68t-65.5 190q0 64 19.5 112.5t53 80.5t78.5 48t96 16q59 0 103.5 -19t73.5 -53.5t43.5 -83t14.5 -106.5v-33zM272 378q-28 0 -51 -15.5
t-33 -55.5h162q-4 36 -25 53.5t-53 17.5zM415 570h-294v110h294v-110z" />
    <glyph glyph-name="ebreve" unicode="&#x115;" horiz-adv-x="534" 
d="M507 210h-323q5 -47 28.5 -70t63.5 -23t57.5 18t23.5 34l146 -28q-7 -26 -23 -53t-43 -48.5t-67 -35.5t-95 -14q-119 0 -184.5 68t-65.5 190q0 64 19.5 112.5t53 80.5t78.5 48t96 16q59 0 103.5 -19t73.5 -53.5t43.5 -83t14.5 -106.5v-33zM272 378q-28 0 -51 -15.5
t-33 -55.5h162q-4 36 -25 53.5t-53 17.5zM266 544q-87 0 -127 41t-44 109h121q2 -25 15 -38.5t37 -13.5q23 0 34 13.5t13 38.5h122q-3 -68 -44 -109t-127 -41z" />
    <glyph glyph-name="edotaccent" unicode="&#x117;" horiz-adv-x="534" 
d="M507 210h-323q5 -47 28.5 -70t63.5 -23t57.5 18t23.5 34l146 -28q-7 -26 -23 -53t-43 -48.5t-67 -35.5t-95 -14q-119 0 -184.5 68t-65.5 190q0 64 19.5 112.5t53 80.5t78.5 48t96 16q59 0 103.5 -19t73.5 -53.5t43.5 -83t14.5 -106.5v-33zM272 378q-28 0 -51 -15.5
t-33 -55.5h162q-4 36 -25 53.5t-53 17.5zM182 553v137h169v-137h-169z" />
    <glyph glyph-name="eogonek" unicode="&#x119;" horiz-adv-x="534" 
d="M481 -192q-15 -5 -38.5 -9t-54.5 -4q-58 0 -99.5 27.5t-41.5 80.5q0 28 12.5 50t34.5 38q-4 -1 -9 -1h-10q-119 0 -184.5 68t-65.5 190q0 64 19.5 112.5t53 80.5t78.5 48t96 16q59 0 103 -19t73.5 -53t44 -82t14.5 -105v-36h-323q5 -47 28.5 -70t63.5 -23t58 18t24 34
l144 -28q-5 -23 -20.5 -49t-35.5 -51q-22 -28 -36 -49.5t-15 -43.5q-1 -20 12.5 -30t31.5 -10q10 0 19 1t17 3zM272 378q-28 0 -51 -15.5t-33 -55.5h162q-3 35 -24.5 53t-53.5 18z" />
    <glyph glyph-name="ecaron" unicode="&#x11b;" horiz-adv-x="534" 
d="M507 210h-323q5 -47 28.5 -70t63.5 -23t57.5 18t23.5 34l146 -28q-7 -26 -23 -53t-43 -48.5t-67 -35.5t-95 -14q-119 0 -184.5 68t-65.5 190q0 64 19.5 112.5t53 80.5t78.5 48t96 16q59 0 103.5 -19t73.5 -53.5t43.5 -83t14.5 -106.5v-33zM272 378q-28 0 -51 -15.5
t-33 -55.5h162q-4 36 -25 53.5t-53 17.5zM186 550l-109 150h143l46 -76l45 76h143l-108 -150h-160z" />
    <glyph glyph-name="uni1EBD" unicode="&#x1ebd;" horiz-adv-x="534" 
d="M507 210h-323q5 -47 28.5 -70t63.5 -23t57.5 18t23.5 34l146 -28q-7 -26 -23 -53t-43 -48.5t-67 -35.5t-95 -14q-119 0 -184.5 68t-65.5 190q0 64 19.5 112.5t53 80.5t78.5 48t96 16q59 0 103.5 -19t73.5 -53.5t43.5 -83t14.5 -106.5v-33zM272 378q-28 0 -51 -15.5
t-33 -55.5h162q-4 36 -25 53.5t-53 17.5zM93 556v21q0 51 27 87t75 36q19 0 34 -5.5t26.5 -11.5t22 -11.5t22.5 -5.5q13 0 21 7.5t8 21.5v5h99v-20q0 -49 -22 -86.5t-71 -37.5q-20 0 -37 5.5t-30.5 11.5t-25 11.5t-21.5 5.5q-13 0 -21 -8.5t-8 -22.5v-3h-99z" />
    <glyph glyph-name="f" unicode="f" horiz-adv-x="383" 
d="M88 0v351h-78v144h78v27q0 93 48.5 125.5t139.5 32.5h97v-135h-64q-28 0 -40.5 -7t-12.5 -32v-11h109v-144h-109v-351h-168z" />
    <glyph glyph-name="g" unicode="g" horiz-adv-x="587" 
d="M376 495h158v-472q0 -60 -18.5 -103.5t-52 -70.5t-80.5 -40t-103 -13q-101 0 -162.5 43t-74.5 121l157 20q5 -25 26.5 -38.5t53.5 -13.5q43 0 69 19.5t26 74.5v45q-19 -26 -55 -40.5t-83 -14.5q-43 0 -81 15.5t-66 45.5t-44.5 75.5t-16.5 104.5q0 63 17 111t46 79
t69 46.5t86 15.5q44 0 77 -16t52 -41v47zM371 229v63q0 34 -22 56t-62 22q-41 0 -65.5 -30t-24.5 -84t25 -82.5t65 -28.5q34 0 59 20.5t25 63.5z" />
    <glyph glyph-name="gcircumflex" unicode="&#x11d;" horiz-adv-x="587" 
d="M376 495h158v-472q0 -60 -18.5 -103.5t-52 -70.5t-80.5 -40t-103 -13q-101 0 -162.5 43t-74.5 121l157 20q5 -25 26.5 -38.5t53.5 -13.5q43 0 69 19.5t26 74.5v45q-19 -26 -55 -40.5t-83 -14.5q-43 0 -81 15.5t-66 45.5t-44.5 75.5t-16.5 104.5q0 63 17 111t46 79
t69 46.5t86 15.5q44 0 77 -16t52 -41v47zM371 229v63q0 34 -22 56t-62 22q-41 0 -65.5 -30t-24.5 -84t25 -82.5t65 -28.5q34 0 59 20.5t25 63.5zM208 700h160l106 -150h-140l-46 80l-46 -80h-140z" />
    <glyph glyph-name="gbreve" unicode="&#x11f;" horiz-adv-x="587" 
d="M376 495h158v-472q0 -60 -18.5 -103.5t-52 -70.5t-80.5 -40t-103 -13q-101 0 -162.5 43t-74.5 121l157 20q5 -25 26.5 -38.5t53.5 -13.5q43 0 69 19.5t26 74.5v45q-19 -26 -55 -40.5t-83 -14.5q-43 0 -81 15.5t-66 45.5t-44.5 75.5t-16.5 104.5q0 63 17 111t46 79
t69 46.5t86 15.5q44 0 77 -16t52 -41v47zM371 229v63q0 34 -22 56t-62 22q-41 0 -65.5 -30t-24.5 -84t25 -82.5t65 -28.5q34 0 59 20.5t25 63.5zM288 544q-87 0 -127 41t-44 109h121q2 -25 15 -38.5t37 -13.5q23 0 34 13.5t13 38.5h122q-3 -68 -44 -109t-127 -41z" />
    <glyph glyph-name="gdotaccent" unicode="&#x121;" horiz-adv-x="587" 
d="M376 495h158v-472q0 -60 -18.5 -103.5t-52 -70.5t-80.5 -40t-103 -13q-101 0 -162.5 43t-74.5 121l157 20q5 -25 26.5 -38.5t53.5 -13.5q43 0 69 19.5t26 74.5v45q-19 -26 -55 -40.5t-83 -14.5q-43 0 -81 15.5t-66 45.5t-44.5 75.5t-16.5 104.5q0 63 17 111t46 79
t69 46.5t86 15.5q44 0 77 -16t52 -41v47zM371 229v63q0 34 -22 56t-62 22q-41 0 -65.5 -30t-24.5 -84t25 -82.5t65 -28.5q34 0 59 20.5t25 63.5zM192 553v137h169v-137h-169z" />
    <glyph glyph-name="gcommaaccent" unicode="&#x123;" horiz-adv-x="587" 
d="M358 664v-117h-154v66q0 78 33 121t117 55l11 -68q-35 -5 -57 -19.5t-28 -37.5h78zM376 495h158v-472q0 -60 -18.5 -103.5t-52 -70.5t-80.5 -40t-103 -13q-101 0 -162.5 43t-74.5 121l157 20q5 -25 26.5 -38.5t53.5 -13.5q43 0 69 19.5t26 74.5v45q-19 -26 -55 -40.5
t-83 -14.5q-43 0 -81 15.5t-66 45.5t-44.5 75.5t-16.5 104.5q0 63 17 111t46 79t69 46.5t86 15.5q44 0 77 -16t52 -41v47zM371 229v63q0 34 -22 56t-62 22q-41 0 -65.5 -30t-24.5 -84t25 -82.5t65 -28.5q34 0 59 20.5t25 63.5z" />
    <glyph glyph-name="h" unicode="h" horiz-adv-x="597" 
d="M55 0v680h168v-241q23 28 59 47t93 19q73 0 121.5 -44t48.5 -128v-333h-168v293q0 40 -21 55.5t-56 15.5q-28 0 -52.5 -15t-24.5 -46v-303h-168z" />
    <glyph glyph-name="hcircumflex" unicode="&#x125;" horiz-adv-x="597" 
d="M55 0v680h168v-241q23 28 59 47t93 19q73 0 121.5 -44t48.5 -128v-333h-168v293q0 40 -21 55.5t-56 15.5q-28 0 -52.5 -15t-24.5 -46v-303h-168zM65 860h160l106 -150h-140l-46 80l-46 -80h-140z" />
    <glyph glyph-name="hbar" unicode="&#x127;" horiz-adv-x="597" 
d="M55 0v538h-50v96h50v46h166v-46h97v-96h-97v-101q23 28 59.5 48t94.5 20q73 0 121.5 -44t48.5 -128v-333h-168v293q0 40 -21 55.5t-56 15.5q-28 0 -52.5 -15t-24.5 -46v-303h-168z" />
    <glyph glyph-name="i" unicode="i" horiz-adv-x="278" 
d="M55 553v137h169v-137h-169zM55 0v495h168v-495h-168z" />
    <glyph glyph-name="igrave" unicode="&#xec;" horiz-adv-x="278" 
d="M55 0v495h168v-495h-168zM123 700h-173l119 -150h143z" />
    <glyph glyph-name="iacute" unicode="&#xed;" horiz-adv-x="278" 
d="M55 0v495h168v-495h-168zM155 700h173l-119 -150h-143z" />
    <glyph glyph-name="icircumflex" unicode="&#xee;" horiz-adv-x="278" 
d="M55 0v495h168v-495h-168zM61 700h160l106 -150h-140l-46 80l-46 -80h-140z" />
    <glyph glyph-name="idieresis" unicode="&#xef;" horiz-adv-x="278" 
d="M55 0v495h168v-495h-168zM-40 553v137h149v-137h-149zM170 553v137h149v-137h-149z" />
    <glyph glyph-name="itilde" unicode="&#x129;" horiz-adv-x="278" 
d="M55 0v495h168v-495h-168zM-30 556v21q0 51 27 87t75 36q19 0 34 -5.5t26.5 -11.5t22 -11.5t22.5 -5.5q13 0 21 7.5t8 21.5v5h99v-20q0 -49 -22 -86.5t-71 -37.5q-20 0 -37 5.5t-30.5 11.5t-25 11.5t-21.5 5.5q-13 0 -21 -8.5t-8 -22.5v-3h-99z" />
    <glyph glyph-name="imacron" unicode="&#x12b;" horiz-adv-x="278" 
d="M55 0v495h168v-495h-168zM286 570h-294v110h294v-110z" />
    <glyph glyph-name="ibreve" unicode="&#x12d;" horiz-adv-x="278" 
d="M55 0v495h168v-495h-168zM139 544q-87 0 -127 41t-44 109h121q2 -25 15 -38.5t37 -13.5q23 0 34 13.5t13 38.5h122q-3 -68 -44 -109t-127 -41z" />
    <glyph glyph-name="iogonek" unicode="&#x12f;" horiz-adv-x="278" 
d="M55 553v137h169v-137h-169zM55 0v495h168v-495q-28 -9 -48.5 -24.5t-20.5 -37.5q0 -16 11 -23t29 -7q10 0 19.5 1.5t16.5 2.5l6 -104q-16 -5 -39 -9t-54 -4q-58 0 -99.5 27.5t-41.5 80.5q0 33 15.5 55.5t37.5 41.5z" />
    <glyph glyph-name="i.TRK" horiz-adv-x="278" 
d="M55 553v137h169v-137h-169zM55 0v495h168v-495h-168z" />
    <glyph glyph-name="j" unicode="j" horiz-adv-x="289" 
d="M65 553v137h169v-137h-169zM234 495v-499q0 -99 -45.5 -144.5t-147.5 -45.5h-79v140h33q37 0 54 14t17 48v487h168z" />
    <glyph glyph-name="jcircumflex" unicode="&#x135;" horiz-adv-x="289" 
d="M234 495v-499q0 -99 -45.5 -144.5t-147.5 -45.5h-79v140h33q37 0 54 14t17 48v487h168zM60 700h160l106 -150h-140l-46 80l-46 -80h-140z" />
    <glyph glyph-name="ij" unicode="&#x133;" horiz-adv-x="558" 
d="M55 553v137h169v-137h-169zM55 0v495h168v-495h-168zM334 553v137h169v-137h-169zM503 495v-499q0 -99 -45.5 -144.5t-147.5 -45.5h-79v140h33q37 0 54 14t17 48v487h168z" />
    <glyph glyph-name="uni00ED006A0301" horiz-adv-x="558" 
d="M159 700h173l-119 -150h-143zM431 700h173l-119 -150h-143zM55 0v495h168v-495h-168zM503 495v-499q0 -99 -43 -144.5t-140 -45.5h-89v140h29q39 0 57 16t18 56v477h168z" />
    <glyph glyph-name="k" unicode="k" horiz-adv-x="566" 
d="M55 0v680h168v-352h49l96 167h180l-136 -220l152 -275h-185l-107 202h-49v-202h-168z" />
    <glyph glyph-name="kcommaaccent" unicode="&#x137;" horiz-adv-x="566" 
d="M55 0v680h168v-352h49l96 167h180l-136 -220l152 -275h-185l-107 202h-49v-202h-168zM224 -161v117h154v-66q0 -78 -33 -121t-117 -55l-11 68q35 5 57 19.5t28 37.5h-78z" />
    <glyph glyph-name="l" unicode="l" horiz-adv-x="278" 
d="M55 0v680h168v-680h-168z" />
    <glyph glyph-name="lacute" unicode="&#x13a;" horiz-adv-x="278" 
d="M55 0v680h168v-680h-168zM148 880h173l-119 -150h-143z" />
    <glyph glyph-name="lcommaaccent" unicode="&#x13c;" horiz-adv-x="278" 
d="M55 0v680h168v-680h-168zM61 -161v117h154v-66q0 -78 -33 -121t-117 -55l-11 68q35 5 57 19.5t28 37.5h-78z" />
    <glyph glyph-name="lcaron" unicode="&#x13e;" horiz-adv-x="278" 
d="M55 0v680h168v-680h-168zM282 690h147l-78 -215h-106z" />
    <glyph glyph-name="ldot" unicode="&#x140;" horiz-adv-x="437" 
d="M55 0v680h168v-680h-168zM283 207v137h149v-137h-149z" />
    <glyph glyph-name="lslash" unicode="&#x142;" horiz-adv-x="328" 
d="M81 0v186l-71 -39v122l71 39v372h166v-296l71 39v-123l-71 -39v-261h-166z" />
    <glyph glyph-name="m" unicode="m" horiz-adv-x="911" 
d="M55 0v495h163v-61q23 29 59.5 50t95.5 21q57 0 92 -24t51 -60q31 42 75 63t100 21q73 0 120.5 -45t47.5 -129v-331h-168v295q0 36 -20.5 53t-54.5 17q-28 0 -51.5 -17t-23.5 -45v-303h-168v294q0 36 -20 53t-54 17q-28 0 -52 -16.5t-24 -44.5v-303h-168z" />
    <glyph glyph-name="n" unicode="n" horiz-adv-x="597" 
d="M55 0v495h164v-61q24 29 61 50t94 21q72 0 121.5 -44t49.5 -128v-333h-168v293q0 40 -22 55.5t-55 15.5q-28 0 -52.5 -15t-24.5 -46v-303h-168z" />
    <glyph glyph-name="ntilde" unicode="&#xf1;" horiz-adv-x="597" 
d="M55 0v495h164v-61q24 29 61 50t94 21q72 0 121.5 -44t49.5 -128v-333h-168v293q0 40 -22 55.5t-55 15.5q-28 0 -52.5 -15t-24.5 -46v-303h-168zM132 556v21q0 51 27 87t75 36q19 0 34 -5.5t26.5 -11.5t22 -11.5t22.5 -5.5q13 0 21 7.5t8 21.5v5h99v-20q0 -49 -22 -86.5
t-71 -37.5q-20 0 -37 5.5t-30.5 11.5t-25 11.5t-21.5 5.5q-13 0 -21 -8.5t-8 -22.5v-3h-99z" />
    <glyph glyph-name="nacute" unicode="&#x144;" horiz-adv-x="597" 
d="M55 0v495h164v-61q24 29 61 50t94 21q72 0 121.5 -44t49.5 -128v-333h-168v293q0 40 -22 55.5t-55 15.5q-28 0 -52.5 -15t-24.5 -46v-303h-168zM307 700h173l-119 -150h-143z" />
    <glyph glyph-name="ncommaaccent" unicode="&#x146;" horiz-adv-x="597" 
d="M55 0v495h164v-61q24 29 61 50t94 21q72 0 121.5 -44t49.5 -128v-333h-168v293q0 40 -22 55.5t-55 15.5q-28 0 -52.5 -15t-24.5 -46v-303h-168zM228 -161v117h154v-66q0 -78 -33 -121t-117 -55l-11 68q35 5 57 19.5t28 37.5h-78z" />
    <glyph glyph-name="ncaron" unicode="&#x148;" horiz-adv-x="597" 
d="M55 0v495h164v-61q24 29 61 50t94 21q72 0 121.5 -44t49.5 -128v-333h-168v293q0 40 -22 55.5t-55 15.5q-28 0 -52.5 -15t-24.5 -46v-303h-168zM225 550l-109 150h143l46 -76l45 76h143l-108 -150h-160z" />
    <glyph glyph-name="uni1E47" unicode="&#x1e47;" horiz-adv-x="597" 
d="M55 0v495h164v-61q24 29 61 50t94 21q72 0 121.5 -44t49.5 -128v-333h-168v293q0 40 -22 55.5t-55 15.5q-28 0 -52.5 -15t-24.5 -46v-303h-168zM216 -181v137h169v-137h-169z" />
    <glyph glyph-name="napostrophe" unicode="&#x149;" horiz-adv-x="597" 
d="M55 0v495h164v-61q24 29 61 50t94 21q72 0 121.5 -44t49.5 -128v-333h-168v293q0 40 -22 55.5t-55 15.5q-28 0 -52.5 -15t-24.5 -46v-303h-168zM95 720h147l-78 -215h-106z" />
    <glyph glyph-name="eng" unicode="&#x14b;" horiz-adv-x="597" 
d="M377 20v273q0 40 -22 55.5t-55 15.5q-28 0 -52.5 -15t-24.5 -46v-303h-168v495h164v-61q24 29 61 50t94 21q72 0 121.5 -44t49.5 -128v-335q0 -99 -47.5 -145.5t-134.5 -46.5h-60v142h11q28 0 45.5 16t17.5 56z" />
    <glyph glyph-name="o" unicode="o" horiz-adv-x="563" 
d="M281 -10q-120 0 -188 70t-68 189t68 187.5t188 68.5q121 0 189 -68.5t68 -187.5t-68 -189t-189 -70zM281 126q40 0 66 30.5t26 92.5t-26 91t-66 29t-65.5 -28.5t-25.5 -91.5q0 -62 25.5 -92.5t65.5 -30.5z" />
    <glyph glyph-name="ograve" unicode="&#xf2;" horiz-adv-x="563" 
d="M281 -10q-120 0 -188 70t-68 189t68 187.5t188 68.5q121 0 189 -68.5t68 -187.5t-68 -189t-189 -70zM281 126q40 0 66 30.5t26 92.5t-26 91t-66 29t-65.5 -28.5t-25.5 -91.5q0 -62 25.5 -92.5t65.5 -30.5zM277 700h-173l119 -150h143z" />
    <glyph glyph-name="oacute" unicode="&#xf3;" horiz-adv-x="563" 
d="M281 -10q-120 0 -188 70t-68 189t68 187.5t188 68.5q121 0 189 -68.5t68 -187.5t-68 -189t-189 -70zM281 126q40 0 66 30.5t26 92.5t-26 91t-66 29t-65.5 -28.5t-25.5 -91.5q0 -62 25.5 -92.5t65.5 -30.5zM278 700h173l-119 -150h-143z" />
    <glyph glyph-name="ocircumflex" unicode="&#xf4;" horiz-adv-x="563" 
d="M281 -10q-120 0 -188 70t-68 189t68 187.5t188 68.5q121 0 189 -68.5t68 -187.5t-68 -189t-189 -70zM281 126q40 0 66 30.5t26 92.5t-26 91t-66 29t-65.5 -28.5t-25.5 -91.5q0 -62 25.5 -92.5t65.5 -30.5zM201 700h160l106 -150h-140l-46 80l-46 -80h-140z" />
    <glyph glyph-name="otilde" unicode="&#xf5;" horiz-adv-x="563" 
d="M281 -10q-120 0 -188 70t-68 189t68 187.5t188 68.5q121 0 189 -68.5t68 -187.5t-68 -189t-189 -70zM281 126q40 0 66 30.5t26 92.5t-26 91t-66 29t-65.5 -28.5t-25.5 -91.5q0 -62 25.5 -92.5t65.5 -30.5zM109 556v21q0 51 27 87t75 36q19 0 34 -5.5t26.5 -11.5t22 -11.5
t22.5 -5.5q13 0 21 7.5t8 21.5v5h99v-20q0 -49 -22 -86.5t-71 -37.5q-20 0 -37 5.5t-30.5 11.5t-25 11.5t-21.5 5.5q-13 0 -21 -8.5t-8 -22.5v-3h-99z" />
    <glyph glyph-name="odieresis" unicode="&#xf6;" horiz-adv-x="563" 
d="M281 -10q-120 0 -188 70t-68 189t68 187.5t188 68.5q121 0 189 -68.5t68 -187.5t-68 -189t-189 -70zM281 126q40 0 66 30.5t26 92.5t-26 91t-66 29t-65.5 -28.5t-25.5 -91.5q0 -62 25.5 -92.5t65.5 -30.5zM102 553v137h149v-137h-149zM312 553v137h149v-137h-149z" />
    <glyph glyph-name="omacron" unicode="&#x14d;" horiz-adv-x="563" 
d="M281 -10q-120 0 -188 70t-68 189t68 187.5t188 68.5q121 0 189 -68.5t68 -187.5t-68 -189t-189 -70zM281 126q40 0 66 30.5t26 92.5t-26 91t-66 29t-65.5 -28.5t-25.5 -91.5q0 -62 25.5 -92.5t65.5 -30.5zM429 570h-294v110h294v-110z" />
    <glyph glyph-name="obreve" unicode="&#x14f;" horiz-adv-x="563" 
d="M281 -10q-120 0 -188 70t-68 189t68 187.5t188 68.5q121 0 189 -68.5t68 -187.5t-68 -189t-189 -70zM281 126q40 0 66 30.5t26 92.5t-26 91t-66 29t-65.5 -28.5t-25.5 -91.5q0 -62 25.5 -92.5t65.5 -30.5zM276 544q-87 0 -127 41t-44 109h121q2 -25 15 -38.5t37 -13.5
q23 0 34 13.5t13 38.5h122q-3 -68 -44 -109t-127 -41z" />
    <glyph glyph-name="ohungarumlaut" unicode="&#x151;" horiz-adv-x="563" 
d="M281 -10q-120 0 -188 70t-68 189t68 187.5t188 68.5q121 0 189 -68.5t68 -187.5t-68 -189t-189 -70zM281 126q40 0 66 30.5t26 92.5t-26 91t-66 29t-65.5 -28.5t-25.5 -91.5q0 -62 25.5 -92.5t65.5 -30.5zM220 700h146l-126 -150h-131zM415 700h148l-135 -150h-133z" />
    <glyph glyph-name="oslash" unicode="&#xf8;" horiz-adv-x="563" 
d="M281 -10q-120 0 -188 70t-68 189t68 187.5t188 68.5q121 0 189 -68.5t68 -187.5t-68 -189t-189 -70zM183 249q0 -14 1.5 -27t4.5 -24l137 168q-10 5 -21.5 7.5t-23.5 2.5q-43 0 -70.5 -31t-27.5 -96zM281 119q43 0 71 33t28 97q0 13 -1.5 25.5t-3.5 22.5l-138 -168
q10 -5 21 -7.5t23 -2.5z" />
    <glyph glyph-name="oslashacute" unicode="&#x1ff;" horiz-adv-x="563" 
d="M281 -10q-120 0 -188 70t-68 189t68 187.5t188 68.5q121 0 189 -68.5t68 -187.5t-68 -189t-189 -70zM183 249q0 -14 1.5 -27t4.5 -24l137 168q-10 5 -21.5 7.5t-23.5 2.5q-43 0 -70.5 -31t-27.5 -96zM281 119q43 0 71 33t28 97q0 13 -1.5 25.5t-3.5 22.5l-138 -168
q10 -5 21 -7.5t23 -2.5zM286 700h173l-119 -150h-143z" />
    <glyph glyph-name="oe" unicode="&#x153;" horiz-adv-x="879" 
d="M848 141q-7 -26 -23 -53t-43 -48.5t-67 -35.5t-95 -14q-56 0 -98 15.5t-70 45.5q-28 -29 -71 -45t-100 -16q-120 0 -188 70t-68 189t68 187.5t188 68.5q59 0 102 -17.5t71 -48.5q31 33 73 49.5t93 16.5q59 0 102.5 -19t72.5 -52.5t43 -81.5t14 -105v-37h-322
q4 -48 27.5 -70.5t63.5 -22.5t57.5 18t23.5 34zM617 379q-27 0 -50.5 -15.5t-32.5 -56.5h160q-4 36 -25 54t-52 18zM281 126q40 0 66 30.5t26 92.5t-26 91t-66 29t-65.5 -28.5t-25.5 -91.5q0 -62 25.5 -92.5t65.5 -30.5z" />
    <glyph glyph-name="p" unicode="p" horiz-adv-x="590" 
d="M55 -194v689h164v-52q22 25 57 43.5t84 18.5q43 0 80.5 -16.5t64.5 -48t42.5 -79t15.5 -109.5q0 -66 -17.5 -115.5t-47 -82t-70.5 -48.5t-87 -16q-37 0 -67 10t-51 28v-222h-168zM223 209q0 -34 21.5 -57t63.5 -23q40 0 63.5 30.5t23.5 88.5t-23.5 88.5t-63.5 30.5
q-42 0 -63.5 -23t-21.5 -57v-78z" />
    <glyph glyph-name="q" unicode="q" horiz-adv-x="590" 
d="M367 -194v232q-22 -23 -52.5 -35.5t-79.5 -12.5q-43 0 -81 16.5t-66 48t-44.5 79t-16.5 109.5q0 66 17 115.5t46 82t69 48.5t86 16q49 0 81 -16.5t51 -39.5v46h158v-689h-168zM367 209v78q0 34 -20 57t-60 23q-43 0 -67.5 -30.5t-24.5 -88.5t23.5 -88.5t63.5 -30.5
q42 0 63.5 23t21.5 57z" />
    <glyph glyph-name="r" unicode="r" horiz-adv-x="384" 
d="M55 0v495h163v-56q28 34 61 45t65 11h35v-144h-50q-49 0 -77.5 -19t-28.5 -56v-276h-168z" />
    <glyph glyph-name="racute" unicode="&#x155;" horiz-adv-x="384" 
d="M55 0v495h163v-56q28 34 61 45t65 11h35v-144h-50q-49 0 -77.5 -19t-28.5 -56v-276h-168zM209 700h173l-119 -150h-143z" />
    <glyph glyph-name="rcommaaccent" unicode="&#x157;" horiz-adv-x="384" 
d="M55 0v495h163v-56q28 34 61 45t65 11h35v-144h-50q-49 0 -77.5 -19t-28.5 -56v-276h-168zM61 -161v117h154v-66q0 -78 -33 -121t-117 -55l-11 68q35 5 57 19.5t28 37.5h-78z" />
    <glyph glyph-name="rcaron" unicode="&#x159;" horiz-adv-x="384" 
d="M55 0v495h163v-56q28 34 61 45t65 11h35v-144h-50q-49 0 -77.5 -19t-28.5 -56v-276h-168zM137 550l-109 150h143l46 -76l45 76h143l-108 -150h-160z" />
    <glyph glyph-name="s" unicode="s" horiz-adv-x="504" 
d="M27 148l150 17q5 -24 24.5 -37.5t53.5 -13.5q37 0 52 7.5t15 22.5q0 14 -11 22.5t-50 15.5l-69 13q-73 13 -112.5 47t-39.5 99q0 41 16.5 72t45.5 51.5t69.5 30.5t87.5 10q84 0 145 -37t73 -109l-146 -29q-4 23 -22 37.5t-53 14.5q-33 0 -48 -8t-15 -22q0 -13 11.5 -20
t43.5 -13l63 -12q73 -14 119.5 -46.5t46.5 -101.5q0 -76 -58 -122.5t-168 -46.5q-96 0 -155 41t-69 117z" />
    <glyph glyph-name="sacute" unicode="&#x15b;" horiz-adv-x="504" 
d="M27 148l150 17q5 -24 24.5 -37.5t53.5 -13.5q37 0 52 7.5t15 22.5q0 14 -11 22.5t-50 15.5l-69 13q-73 13 -112.5 47t-39.5 99q0 41 16.5 72t45.5 51.5t69.5 30.5t87.5 10q84 0 145 -37t73 -109l-146 -29q-4 23 -22 37.5t-53 14.5q-33 0 -48 -8t-15 -22q0 -13 11.5 -20
t43.5 -13l63 -12q73 -14 119.5 -46.5t46.5 -101.5q0 -76 -58 -122.5t-168 -46.5q-96 0 -155 41t-69 117zM243 700h173l-119 -150h-143z" />
    <glyph glyph-name="scircumflex" unicode="&#x15d;" horiz-adv-x="504" 
d="M27 148l150 17q5 -24 24.5 -37.5t53.5 -13.5q37 0 52 7.5t15 22.5q0 14 -11 22.5t-50 15.5l-69 13q-73 13 -112.5 47t-39.5 99q0 41 16.5 72t45.5 51.5t69.5 30.5t87.5 10q84 0 145 -37t73 -109l-146 -29q-4 23 -22 37.5t-53 14.5q-33 0 -48 -8t-15 -22q0 -13 11.5 -20
t43.5 -13l63 -12q73 -14 119.5 -46.5t46.5 -101.5q0 -76 -58 -122.5t-168 -46.5q-96 0 -155 41t-69 117zM180 700h160l106 -150h-140l-46 80l-46 -80h-140z" />
    <glyph glyph-name="scedilla" unicode="&#x15f;" horiz-adv-x="504" 
d="M27 148l150 17q5 -24 24.5 -37.5t53.5 -13.5q37 0 52 7.5t15 22.5q0 14 -11 22.5t-50 15.5l-69 13q-73 13 -112.5 47t-39.5 99q0 41 16.5 72t45.5 51.5t69.5 30.5t87.5 10q84 0 145 -37t73 -109l-146 -29q-4 23 -22 37.5t-53 14.5q-33 0 -48 -8t-15 -22q0 -13 11.5 -20
t43.5 -13l63 -12q73 -14 119.5 -46.5t46.5 -101.5q0 -66 -44.5 -110.5t-128.5 -55.5l-28 -30q51 -1 79 -21t28 -66q0 -47 -39.5 -73t-102.5 -26q-65 0 -97.5 20.5t-38.5 60.5l94 19q4 -16 14 -23.5t29 -7.5t29 7t10 22q0 16 -16 22.5t-50 4.5l-34 -2v53l35 38
q-81 7 -130 47.5t-59 109.5z" />
    <glyph glyph-name="scaron" unicode="&#x161;" horiz-adv-x="504" 
d="M27 148l150 17q5 -24 24.5 -37.5t53.5 -13.5q37 0 52 7.5t15 22.5q0 14 -11 22.5t-50 15.5l-69 13q-73 13 -112.5 47t-39.5 99q0 41 16.5 72t45.5 51.5t69.5 30.5t87.5 10q84 0 145 -37t73 -109l-146 -29q-4 23 -22 37.5t-53 14.5q-33 0 -48 -8t-15 -22q0 -13 11.5 -20
t43.5 -13l63 -12q73 -14 119.5 -46.5t46.5 -101.5q0 -76 -58 -122.5t-168 -46.5q-96 0 -155 41t-69 117zM173 550l-109 150h143l46 -76l45 76h143l-108 -150h-160z" />
    <glyph glyph-name="scommaaccent" unicode="&#x219;" horiz-adv-x="504" 
d="M27 148l150 17q5 -24 24.5 -37.5t53.5 -13.5q37 0 52 7.5t15 22.5q0 14 -11 22.5t-50 15.5l-69 13q-73 13 -112.5 47t-39.5 99q0 41 16.5 72t45.5 51.5t69.5 30.5t87.5 10q84 0 145 -37t73 -109l-146 -29q-4 23 -22 37.5t-53 14.5q-33 0 -48 -8t-15 -22q0 -13 11.5 -20
t43.5 -13l63 -12q73 -14 119.5 -46.5t46.5 -101.5q0 -76 -58 -122.5t-168 -46.5q-96 0 -155 41t-69 117zM179 -161v117h154v-66q0 -78 -33 -121t-117 -55l-11 68q35 5 57 19.5t28 37.5h-78z" />
    <glyph glyph-name="uni1E63" unicode="&#x1e63;" horiz-adv-x="504" 
d="M27 148l150 17q5 -24 24.5 -37.5t53.5 -13.5q37 0 52 7.5t15 22.5q0 14 -11 22.5t-50 15.5l-69 13q-73 13 -112.5 47t-39.5 99q0 41 16.5 72t45.5 51.5t69.5 30.5t87.5 10q84 0 145 -37t73 -109l-146 -29q-4 23 -22 37.5t-53 14.5q-33 0 -48 -8t-15 -22q0 -13 11.5 -20
t43.5 -13l63 -12q73 -14 119.5 -46.5t46.5 -101.5q0 -76 -58 -122.5t-168 -46.5q-96 0 -155 41t-69 117zM168 -181v137h169v-137h-169z" />
    <glyph glyph-name="t" unicode="t" horiz-adv-x="403" 
d="M373 0h-89q-102 0 -153 43.5t-51 155.5v152h-70v144h70v118h168v-118h125v-144h-125v-148q0 -34 15 -46.5t45 -12.5h65v-144z" />
    <glyph glyph-name="uni0163" unicode="&#x163;" horiz-adv-x="403" 
d="M373 0h-89q-102 0 -153 43.5t-51 155.5v152h-70v144h70v118h168v-118h125v-144h-125v-148q0 -34 15 -46.5t45 -12.5h65v-144zM156 -161v117h154v-66q0 -78 -33 -121t-117 -55l-11 68q35 5 57 19.5t28 37.5h-78z" />
    <glyph glyph-name="tcaron" unicode="&#x165;" horiz-adv-x="403" 
d="M304 721h142l-65 -185h-106zM373 0h-89q-102 0 -153 43.5t-51 155.5v152h-70v144h70v118h168v-118h125v-144h-125v-148q0 -34 15 -46.5t45 -12.5h65v-144z" />
    <glyph glyph-name="uni021B" unicode="&#x21b;" horiz-adv-x="403" 
d="M373 0h-89q-102 0 -153 43.5t-51 155.5v152h-70v144h70v118h168v-118h125v-144h-125v-148q0 -34 15 -46.5t45 -12.5h65v-144zM156 -161v117h154v-66q0 -78 -33 -121t-117 -55l-11 68q35 5 57 19.5t28 37.5h-78z" />
    <glyph glyph-name="tbar" unicode="&#x167;" horiz-adv-x="393" 
d="M373 0h-89q-102 0 -153 43.5t-51 155.5v8h-68v92h68v54h-70v142h70v118h168v-118h125v-142h-127v-54h95v-92h-95v-4q0 -34 15 -47.5t45 -13.5h67v-142z" />
    <glyph glyph-name="u" unicode="u" horiz-adv-x="595" 
d="M376 0v52q-25 -26 -64 -44t-93 -18q-73 0 -120 44.5t-47 128.5v332h168v-292q0 -39 21 -55.5t55 -16.5t55 18.5t21 43.5v302h168v-495h-164z" />
    <glyph glyph-name="ugrave" unicode="&#xf9;" horiz-adv-x="595" 
d="M376 0v52q-25 -26 -64 -44t-93 -18q-73 0 -120 44.5t-47 128.5v332h168v-292q0 -39 21 -55.5t55 -16.5t55 18.5t21 43.5v302h168v-495h-164zM292 700h-173l119 -150h143z" />
    <glyph glyph-name="uacute" unicode="&#xfa;" horiz-adv-x="595" 
d="M376 0v52q-25 -26 -64 -44t-93 -18q-73 0 -120 44.5t-47 128.5v332h168v-292q0 -39 21 -55.5t55 -16.5t55 18.5t21 43.5v302h168v-495h-164zM300 700h173l-119 -150h-143z" />
    <glyph glyph-name="ucircumflex" unicode="&#xfb;" horiz-adv-x="595" 
d="M376 0v52q-25 -26 -64 -44t-93 -18q-73 0 -120 44.5t-47 128.5v332h168v-292q0 -39 21 -55.5t55 -16.5t55 18.5t21 43.5v302h168v-495h-164zM216 700h160l106 -150h-140l-46 80l-46 -80h-140z" />
    <glyph glyph-name="udieresis" unicode="&#xfc;" horiz-adv-x="595" 
d="M376 0v52q-25 -26 -64 -44t-93 -18q-73 0 -120 44.5t-47 128.5v332h168v-292q0 -39 21 -55.5t55 -16.5t55 18.5t21 43.5v302h168v-495h-164zM116 553v137h149v-137h-149zM326 553v137h149v-137h-149z" />
    <glyph glyph-name="utilde" unicode="&#x169;" horiz-adv-x="595" 
d="M376 0v52q-25 -26 -64 -44t-93 -18q-73 0 -120 44.5t-47 128.5v332h168v-292q0 -39 21 -55.5t55 -16.5t55 18.5t21 43.5v302h168v-495h-164zM132 556v21q0 51 27 87t75 36q19 0 34 -5.5t26.5 -11.5t22 -11.5t22.5 -5.5q13 0 21 7.5t8 21.5v5h99v-20q0 -49 -22 -86.5
t-71 -37.5q-20 0 -37 5.5t-30.5 11.5t-25 11.5t-21.5 5.5q-13 0 -21 -8.5t-8 -22.5v-3h-99z" />
    <glyph glyph-name="umacron" unicode="&#x16b;" horiz-adv-x="595" 
d="M376 0v52q-25 -26 -64 -44t-93 -18q-73 0 -120 44.5t-47 128.5v332h168v-292q0 -39 21 -55.5t55 -16.5t55 18.5t21 43.5v302h168v-495h-164zM441 570h-294v110h294v-110z" />
    <glyph glyph-name="ubreve" unicode="&#x16d;" horiz-adv-x="595" 
d="M376 0v52q-25 -26 -64 -44t-93 -18q-73 0 -120 44.5t-47 128.5v332h168v-292q0 -39 21 -55.5t55 -16.5t55 18.5t21 43.5v302h168v-495h-164zM298 544q-87 0 -127 41t-44 109h121q2 -25 15 -38.5t37 -13.5q23 0 34 13.5t13 38.5h122q-3 -68 -44 -109t-127 -41z" />
    <glyph glyph-name="uring" unicode="&#x16f;" horiz-adv-x="595" 
d="M376 0v52q-25 -26 -64 -44t-93 -18q-73 0 -120 44.5t-47 128.5v332h168v-292q0 -39 21 -55.5t55 -16.5t55 18.5t21 43.5v302h168v-495h-164zM295 525q-51 0 -82 31.5t-31 79.5t31 80t82 32t82.5 -32t31.5 -80t-31.5 -79.5t-82.5 -31.5zM295 599q17 0 27.5 10.5t10.5 26.5
t-10.5 27t-27.5 11t-27 -11t-10 -27t10 -26.5t27 -10.5z" />
    <glyph glyph-name="uhungarumlaut" unicode="&#x171;" horiz-adv-x="595" 
d="M376 0v52q-25 -26 -64 -44t-93 -18q-73 0 -120 44.5t-47 128.5v332h168v-292q0 -39 21 -55.5t55 -16.5t55 18.5t21 43.5v302h168v-495h-164zM237 700h146l-126 -150h-131zM432 700h148l-135 -150h-133z" />
    <glyph glyph-name="uogonek" unicode="&#x173;" horiz-adv-x="595" 
d="M460 -205q-58 0 -99.5 27.5t-41.5 80.5q0 33 16 58t41 42v49q-25 -26 -64 -44t-93 -18q-73 0 -120 44.5t-47 128.5v332h168v-292q0 -39 21 -55.5t55 -16.5t55 18.5t21 43.5v302h168v-495q-28 -9 -48.5 -24.5t-20.5 -37.5q0 -16 11 -23t29 -7q10 0 19 1t17 3l6 -105
q-15 -5 -38.5 -8.5t-54.5 -3.5z" />
    <glyph glyph-name="uni01D4" unicode="&#x1d4;" horiz-adv-x="595" 
d="M376 0v52q-25 -26 -64 -44t-93 -18q-73 0 -120 44.5t-47 128.5v332h168v-292q0 -39 21 -55.5t55 -16.5t55 18.5t21 43.5v302h168v-495h-164zM215 550l-109 150h143l46 -76l45 76h143l-108 -150h-160z" />
    <glyph glyph-name="v" unicode="v" horiz-adv-x="559" 
d="M171 0l-163 495h175l101 -337l98 337h172l-160 -495h-223z" />
    <glyph glyph-name="w" unicode="w" horiz-adv-x="816" 
d="M8 495h172l66 -316l75 316h186l78 -313l66 313h160l-133 -495h-194l-76 300l-76 -300h-194z" />
    <glyph glyph-name="wcircumflex" unicode="&#x175;" horiz-adv-x="816" 
d="M8 495h172l66 -316l75 316h186l78 -313l66 313h160l-133 -495h-194l-76 300l-76 -300h-194zM332 700h160l106 -150h-140l-46 80l-46 -80h-140z" />
    <glyph glyph-name="wgrave" unicode="&#x1e81;" horiz-adv-x="816" 
d="M8 495h172l66 -316l75 316h186l78 -313l66 313h160l-133 -495h-194l-76 300l-76 -300h-194zM406 700h-173l119 -150h143z" />
    <glyph glyph-name="wacute" unicode="&#x1e83;" horiz-adv-x="816" 
d="M8 495h172l66 -316l75 316h186l78 -313l66 313h160l-133 -495h-194l-76 300l-76 -300h-194zM418 700h173l-119 -150h-143z" />
    <glyph glyph-name="wdieresis" unicode="&#x1e85;" horiz-adv-x="816" 
d="M8 495h172l66 -316l75 316h186l78 -313l66 313h160l-133 -495h-194l-76 300l-76 -300h-194zM227 553v137h149v-137h-149zM437 553v137h149v-137h-149z" />
    <glyph glyph-name="x" unicode="x" horiz-adv-x="561" 
d="M365 0l-85 146l-75 -146h-195l161 262l-155 233h186l81 -128l70 128h195l-156 -243l164 -252h-191z" />
    <glyph glyph-name="y" unicode="y" horiz-adv-x="570" 
d="M398 2q-20 -58 -41 -96t-48 -60.5t-64.5 -31t-90.5 -8.5h-74v144h59q28 0 45.5 6t27.5 22l-204 517h187l106 -309l90 309h174z" />
    <glyph glyph-name="yacute" unicode="&#xfd;" horiz-adv-x="570" 
d="M398 2q-20 -58 -41 -96t-48 -60.5t-64.5 -31t-90.5 -8.5h-74v144h59q28 0 45.5 6t27.5 22l-204 517h187l106 -309l90 309h174zM289 700h173l-119 -150h-143z" />
    <glyph glyph-name="ydieresis" unicode="&#xff;" horiz-adv-x="570" 
d="M398 2q-20 -58 -41 -96t-48 -60.5t-64.5 -31t-90.5 -8.5h-74v144h59q28 0 45.5 6t27.5 22l-204 517h187l106 -309l90 309h174zM106 553v137h149v-137h-149zM316 553v137h149v-137h-149z" />
    <glyph glyph-name="ycircumflex" unicode="&#x177;" horiz-adv-x="570" 
d="M398 2q-20 -58 -41 -96t-48 -60.5t-64.5 -31t-90.5 -8.5h-74v144h59q28 0 45.5 6t27.5 22l-204 517h187l106 -309l90 309h174zM213 700h160l106 -150h-140l-46 80l-46 -80h-140z" />
    <glyph glyph-name="uni0233" unicode="&#x233;" horiz-adv-x="570" 
d="M398 2q-20 -58 -41 -96t-48 -60.5t-64.5 -31t-90.5 -8.5h-74v144h59q28 0 45.5 6t27.5 22l-204 517h187l106 -309l90 309h174zM434 570h-294v110h294v-110z" />
    <glyph glyph-name="ygrave" unicode="&#x1ef3;" horiz-adv-x="570" 
d="M398 2q-20 -58 -41 -96t-48 -60.5t-64.5 -31t-90.5 -8.5h-74v144h59q28 0 45.5 6t27.5 22l-204 517h187l106 -309l90 309h174zM286 700h-173l119 -150h143z" />
    <glyph glyph-name="z" unicode="z" horiz-adv-x="537" 
d="M45 0v140l239 211h-235v144h448v-140l-239 -211h239v-144h-452z" />
    <glyph glyph-name="zacute" unicode="&#x17a;" horiz-adv-x="537" 
d="M45 0v140l239 211h-235v144h448v-140l-239 -211h239v-144h-452zM271 700h173l-119 -150h-143z" />
    <glyph glyph-name="zdotaccent" unicode="&#x17c;" horiz-adv-x="537" 
d="M45 0v140l239 211h-235v144h448v-140l-239 -211h239v-144h-452zM186 553v137h169v-137h-169z" />
    <glyph glyph-name="zcaron" unicode="&#x17e;" horiz-adv-x="537" 
d="M45 0v140l239 211h-235v144h448v-140l-239 -211h239v-144h-452zM196 550l-109 150h143l46 -76l45 76h143l-108 -150h-160z" />
    <glyph glyph-name="germandbls" unicode="&#xdf;" horiz-adv-x="596" 
d="M347 0h-68v142h61q37 0 57.5 19t20.5 52q0 39 -22.5 56t-59.5 17h-57v140h36q33 0 50 17t17 45q0 30 -18.5 48t-54.5 18q-41 0 -63.5 -23t-22.5 -66v-465h-168v465q0 111 64.5 168t186.5 57q107 0 166.5 -51.5t59.5 -139.5q0 -43 -20 -77t-60 -53q55 -17 87 -57t32 -108
q0 -96 -58.5 -150t-165.5 -54z" />
    <glyph glyph-name="eth" unicode="&#xf0;" horiz-adv-x="559" 
d="M175 476l-32 70l52 25q-14 7 -28.5 14t-30.5 13l54 108q40 -15 74.5 -33t64.5 -37l95 46l31 -70l-60 -29q66 -63 97 -143.5t31 -176.5q0 -59 -15 -109t-46 -86.5t-78.5 -57t-110.5 -20.5q-53 0 -99.5 15.5t-80 45.5t-52.5 75t-19 104q0 54 17.5 98t48 74.5t72.5 47
t92 16.5q25 0 46.5 -5t38.5 -14q-13 22 -29.5 40.5t-36.5 34.5zM274 120q47 0 68.5 30.5t21.5 79.5t-20.5 79.5t-67.5 30.5q-48 0 -71.5 -30.5t-23.5 -79.5t22.5 -79.5t70.5 -30.5z" />
    <glyph glyph-name="thorn" unicode="&#xfe;" horiz-adv-x="588" 
d="M55 -180v860h168v-238q19 28 54 45.5t83 17.5q88 0 144.5 -67t56.5 -192q0 -64 -17.5 -112.5t-47.5 -80t-72 -47.5t-90 -16q-31 0 -59.5 6t-51.5 18v-194h-168zM223 196q0 -28 23.5 -47t54.5 -19q40 0 66 28t26 88q0 61 -23.5 91.5t-68.5 30.5q-31 0 -54.5 -16.5
t-23.5 -47.5v-108z" />
    <glyph glyph-name="uni01C6" unicode="&#x1c6;" horiz-adv-x="1107" 
d="M372 0v44q-25 -25 -58 -39.5t-79 -14.5q-43 0 -81 16.5t-66 48t-44.5 79t-16.5 109.5q0 66 17 115.5t46 82t69 48.5t86 16q39 0 69.5 -11.5t52.5 -29.5v216h168v-680h-163zM367 209v78q0 34 -19.5 57t-59.5 23q-44 0 -68.5 -31t-24.5 -89q0 -57 23.5 -87.5t63.5 -30.5
q42 0 63.5 23t21.5 57zM615 0v140l239 211h-235v144h448v-140l-239 -211h239v-144h-452zM766 550l-109 150h143l46 -76l45 76h143l-108 -150h-160z" />
    <glyph glyph-name="uni01C9" unicode="&#x1c9;" horiz-adv-x="545" 
d="M55 0v680h168v-680h-168zM346 553v137h169v-137h-169zM515 495v-499q0 -99 -45.5 -144.5t-147.5 -45.5h-79v140h33q37 0 54 14t17 48v487h168z" />
    <glyph glyph-name="uni01CC" unicode="&#x1cc;" horiz-adv-x="867" 
d="M55 0v495h164v-61q24 29 61 50t94 21q72 0 121.5 -44t49.5 -128v-333h-168v293q0 40 -22 55.5t-55 15.5q-28 0 -52.5 -15t-24.5 -46v-303h-168zM668 553v137h169v-137h-169zM837 495v-499q0 -99 -45.5 -144.5t-147.5 -45.5h-79v140h33q37 0 54 14t17 48v487h168z" />
    <glyph glyph-name="uni01F3" unicode="&#x1f3;" horiz-adv-x="1107" 
d="M372 0v44q-25 -25 -58 -39.5t-79 -14.5q-43 0 -81 16.5t-66 48t-44.5 79t-16.5 109.5q0 66 17 115.5t46 82t69 48.5t86 16q39 0 69.5 -11.5t52.5 -29.5v216h168v-680h-163zM367 209v78q0 34 -19.5 57t-59.5 23q-44 0 -68.5 -31t-24.5 -89q0 -57 23.5 -87.5t63.5 -30.5
q42 0 63.5 23t21.5 57zM615 0v140l239 211h-235v144h448v-140l-239 -211h239v-144h-452z" />
    <glyph glyph-name="uni0259" unicode="&#x259;" horiz-adv-x="539" 
d="M276 505q125 -1 181.5 -71.5t56.5 -186.5q0 -64 -19.5 -112.5t-52.5 -80.5t-76.5 -48t-92.5 -16q-61 0 -106.5 19t-75.5 52.5t-44.5 81.5t-14.5 105q0 9 1 19t2 18h320q-4 49 -26 71t-59 22q-35 0 -54.5 -15.5t-29.5 -36.5l-146 28q7 28 24.5 55.5t45.5 48.5t69.5 34.5
t96.5 12.5zM272 117q25 0 47.5 15t30.5 56h-159q5 -37 26 -54t55 -17z" />
    <glyph glyph-name="dotlessi" unicode="&#x131;" horiz-adv-x="278" 
d="M55 0v495h168v-495h-168z" />
    <glyph glyph-name="uni0237" unicode="&#x237;" horiz-adv-x="289" 
d="M234 495v-499q0 -99 -45.5 -144.5t-147.5 -45.5h-79v140h33q37 0 54 14t17 48v487h168z" />
    <glyph glyph-name="ordfeminine" unicode="&#xaa;" horiz-adv-x="382" 
d="M249 397v34q-11 -16 -34.5 -28t-58.5 -12q-56 0 -86 25t-30 68q0 46 34 69t91 24q19 1 40.5 1t40.5 -1v7q0 24 -13.5 34.5t-37.5 10.5q-23 0 -35 -9.5t-16 -22.5l-97 20q10 43 48 68.5t102 25.5q66 0 105.5 -30t39.5 -97v-187h-93zM246 515q-17 1 -31.5 1t-28.5 -1
q-20 -1 -29.5 -6.5t-9.5 -18.5t10.5 -19.5t28.5 -6.5q29 0 44.5 14t15.5 33v4z" />
    <glyph glyph-name="ordmasculine" unicode="&#xba;" horiz-adv-x="388" 
d="M198 391q-71 0 -117 42t-46 120q0 75 45.5 116.5t117.5 41.5t117.5 -41.5t45.5 -116.5q0 -76 -45.5 -119t-117.5 -43zM197 483q32 0 46 19.5t14 50.5q0 33 -15 50.5t-45 17.5q-27 0 -42.5 -17.5t-15.5 -50.5q0 -31 15 -50.5t43 -19.5z" />
    <glyph glyph-name="uni0430" unicode="&#x430;" horiz-adv-x="546" 
d="M338 0v54q-23 -34 -60 -49t-79 -15q-34 0 -64 9.5t-52.5 28.5t-35.5 46.5t-13 63.5q0 78 49.5 113t135.5 42q31 2 60.5 2.5t52.5 -0.5v32q0 26 -16.5 38.5t-48.5 12.5q-24 0 -42 -12t-23 -45l-151 21q9 69 65 116t155 47q47 0 88 -8.5t71 -29t47 -56.5t17 -90v-321h-156z
M332 195q-14 1 -36 0.5t-41 -1.5q-22 -1 -39.5 -10.5t-17.5 -30.5q0 -22 16 -33t42 -11q36 0 56 16.5t20 43.5v26z" />
    <glyph glyph-name="uni0431" unicode="&#x431;" horiz-adv-x="578" 
d="M551 238q0 -116 -64 -181.5t-180 -65.5q-148 0 -207.5 78.5t-59.5 226.5v49q0 88 19.5 150.5t57.5 102.5t94.5 61t130.5 28q50 4 95 9t79 9l14 -153q-37 -4 -81 -8t-94 -9q-81 -8 -118.5 -38.5t-37.5 -90.5v-1q23 31 64 49t89 18q42 0 78.5 -13.5t63 -41.5t42 -72.5
t15.5 -106.5zM300 120q37 0 61.5 28t24.5 83q0 56 -21.5 85.5t-64.5 29.5q-39 0 -63.5 -22t-24.5 -57v-28q0 -64 24 -91.5t64 -27.5z" />
    <glyph glyph-name="uni0432" unicode="&#x432;" horiz-adv-x="530" 
d="M55 0v495h244q90 0 140.5 -30.5t50.5 -98.5q0 -31 -14.5 -60.5t-54.5 -48.5q42 -13 62 -41t20 -72q0 -68 -46 -106t-143 -38h-259zM280 380h-65v-76h64q31 0 44 7.5t13 29.5t-12 30.5t-44 8.5zM294 195h-79v-80h80q31 0 42.5 9t11.5 31t-12 31t-43 9z" />
    <glyph glyph-name="uni0433" unicode="&#x433;" horiz-adv-x="423" 
d="M55 0v495h353v-144h-185v-351h-168z" />
    <glyph glyph-name="uni0453" unicode="&#x453;" horiz-adv-x="423" 
d="M55 0v495h353v-144h-185v-351h-168zM229 700h173l-119 -150h-143z" />
    <glyph glyph-name="uni0434" unicode="&#x434;" horiz-adv-x="613" 
d="M6 144h53q21 18 32.5 45t13.5 65q2 44 2.5 108t1.5 133h426v-351h70v-278h-164v134h-271v-134h-164v278zM259 250q-1 -34 -9.5 -60t-21.5 -46h139v207h-107v-51.5t-1 -49.5z" />
    <glyph glyph-name="uni0435" unicode="&#x435;" horiz-adv-x="534" 
d="M507 210h-323q5 -47 28.5 -70t63.5 -23t57.5 18t23.5 34l146 -28q-7 -26 -23 -53t-43 -48.5t-67 -35.5t-95 -14q-119 0 -184.5 68t-65.5 190q0 64 19.5 112.5t53 80.5t78.5 48t96 16q59 0 103.5 -19t73.5 -53.5t43.5 -83t14.5 -106.5v-33zM272 378q-28 0 -51 -15.5
t-33 -55.5h162q-4 36 -25 53.5t-53 17.5z" />
    <glyph glyph-name="uni0450" unicode="&#x450;" horiz-adv-x="534" 
d="M507 210h-323q5 -47 28.5 -70t63.5 -23t57.5 18t23.5 34l146 -28q-7 -26 -23 -53t-43 -48.5t-67 -35.5t-95 -14q-119 0 -184.5 68t-65.5 190q0 64 19.5 112.5t53 80.5t78.5 48t96 16q59 0 103.5 -19t73.5 -53.5t43.5 -83t14.5 -106.5v-33zM272 378q-28 0 -51 -15.5
t-33 -55.5h162q-4 36 -25 53.5t-53 17.5zM265 700h-173l119 -150h143z" />
    <glyph glyph-name="uni0451" unicode="&#x451;" horiz-adv-x="534" 
d="M507 210h-323q5 -47 28.5 -70t63.5 -23t57.5 18t23.5 34l146 -28q-7 -26 -23 -53t-43 -48.5t-67 -35.5t-95 -14q-119 0 -184.5 68t-65.5 190q0 64 19.5 112.5t53 80.5t78.5 48t96 16q59 0 103.5 -19t73.5 -53.5t43.5 -83t14.5 -106.5v-33zM272 378q-28 0 -51 -15.5
t-33 -55.5h162q-4 36 -25 53.5t-53 17.5zM88 553v137h149v-137h-149zM298 553v137h149v-137h-149z" />
    <glyph glyph-name="uni0436" unicode="&#x436;" horiz-adv-x="802" 
d="M318 0v192h-33l-101 -192h-182l145 265l-137 230h176l99 -177h33v177h166v-177h33l99 177h176l-137 -230l145 -265h-182l-101 192h-33v-192h-166z" />
    <glyph glyph-name="uni0437" unicode="&#x437;" horiz-adv-x="540" 
d="M270 116q42 0 62.5 10t20.5 31q0 20 -14.5 28.5t-49.5 8.5h-78v107h71q34 0 48.5 8.5t14.5 29.5q0 19 -18.5 29.5t-52.5 10.5q-46 0 -69 -19.5t-30 -54.5l-148 27q15 81 79 127t168 46q110 0 169.5 -39t59.5 -111q0 -35 -20 -61t-58 -39q40 -9 64 -34t24 -74
q0 -75 -64 -116t-179 -41q-114 0 -175.5 48.5t-70.5 135.5l150 18q4 -35 27 -55.5t69 -20.5z" />
    <glyph glyph-name="uni0438" unicode="&#x438;" horiz-adv-x="603" 
d="M218 0h-163v495h163v-271l160 271h170v-495h-163v275z" />
    <glyph glyph-name="uni0439" unicode="&#x439;" horiz-adv-x="603" 
d="M218 0h-163v495h163v-271l160 271h170v-495h-163v275zM301 519q-107 0 -145.5 47.5t-38.5 119.5h129q0 -37 12.5 -53t42.5 -16q29 0 40.5 16t11.5 53h130q1 -72 -37.5 -119.5t-144.5 -47.5z" />
    <glyph glyph-name="uni045D" unicode="&#x45d;" horiz-adv-x="603" 
d="M218 0h-163v495h163v-271l160 271h170v-495h-163v275zM309 700h-173l119 -150h143z" />
    <glyph glyph-name="uni043A" unicode="&#x43a;" horiz-adv-x="564" 
d="M55 0v495h168v-177h48l102 177h181l-141 -230l149 -265h-185l-105 192h-49v-192h-168z" />
    <glyph glyph-name="uni045C" unicode="&#x45c;" horiz-adv-x="564" 
d="M55 0v495h168v-177h48l102 177h181l-141 -230l149 -265h-185l-105 192h-49v-192h-168zM298 700h173l-119 -150h-143z" />
    <glyph glyph-name="uni043B" unicode="&#x43b;" horiz-adv-x="592" 
d="M105 224q1 28 1.5 64t1 73t0.5 72.5v61.5h429v-495h-168v351h-110q-1 -38 -1.5 -87.5t-1.5 -80.5q-1 -48 -9 -82.5t-26.5 -57t-51.5 -33t-83 -10.5h-74v144h29q37 0 50 15.5t14 64.5z" />
    <glyph glyph-name="uni043C" unicode="&#x43c;" horiz-adv-x="796" 
d="M55 0v495h247l102 -298l97 298h240v-495h-157v330l-114 -330h-155l-114 329v-329h-146z" />
    <glyph glyph-name="uni043D" unicode="&#x43d;" horiz-adv-x="590" 
d="M55 0v495h168v-169h144v169h168v-495h-168v182h-144v-182h-168z" />
    <glyph glyph-name="uni043E" unicode="&#x43e;" horiz-adv-x="563" 
d="M281 -10q-120 0 -188 70t-68 189t68 187.5t188 68.5q121 0 189 -68.5t68 -187.5t-68 -189t-189 -70zM281 126q40 0 66 30.5t26 92.5t-26 91t-66 29t-65.5 -28.5t-25.5 -91.5q0 -62 25.5 -92.5t65.5 -30.5z" />
    <glyph glyph-name="uni043F" unicode="&#x43f;" horiz-adv-x="586" 
d="M55 0v495h476v-495h-168v351h-140v-351h-168z" />
    <glyph glyph-name="uni0440" unicode="&#x440;" horiz-adv-x="590" 
d="M55 -194v689h164v-52q22 25 57 43.5t84 18.5q43 0 80.5 -16.5t64.5 -48t42.5 -79t15.5 -109.5q0 -66 -17.5 -115.5t-47 -82t-70.5 -48.5t-87 -16q-37 0 -67 10t-51 28v-222h-168zM223 209q0 -34 21.5 -57t63.5 -23q40 0 63.5 30.5t23.5 88.5t-23.5 88.5t-63.5 30.5
q-42 0 -63.5 -23t-21.5 -57v-78z" />
    <glyph glyph-name="uni0441" unicode="&#x441;" horiz-adv-x="527" 
d="M355 196l151 -18q-16 -88 -74.5 -138t-156.5 -50q-115 0 -182.5 66t-67.5 191q0 61 18.5 109t51 81t79 50.5t101.5 17.5q54 0 95 -14.5t68.5 -39t44 -57t22.5 -68.5l-149 -28q-7 31 -24.5 51.5t-53.5 20.5q-40 0 -64 -30.5t-24 -90.5q0 -63 23 -93.5t63 -30.5
q35 0 54 19.5t25 51.5z" />
    <glyph glyph-name="uni0442" unicode="&#x442;" horiz-adv-x="488" 
d="M15 351v144h458v-144h-145v-351h-168v351h-145z" />
    <glyph glyph-name="uni0443" unicode="&#x443;" horiz-adv-x="570" 
d="M398 2q-20 -58 -41 -96t-48 -60.5t-64.5 -31t-90.5 -8.5h-74v144h59q28 0 45.5 6t27.5 22l-204 517h187l106 -309l90 309h174z" />
    <glyph glyph-name="uni045E" unicode="&#x45e;" horiz-adv-x="570" 
d="M398 2q-20 -58 -41 -96t-48 -60.5t-64.5 -31t-90.5 -8.5h-74v144h59q28 0 45.5 6t27.5 22l-204 517h187l106 -309l90 309h174zM294 514q-107 0 -145.5 47.5t-38.5 119.5h129q0 -37 12.5 -53t42.5 -16q29 0 40.5 16t11.5 53h130q1 -72 -37.5 -119.5t-144.5 -47.5z" />
    <glyph glyph-name="uni0444" unicode="&#x444;" horiz-adv-x="766" 
d="M460 680v-177h4q62 -2 113 -18t87.5 -47t56.5 -78.5t20 -111.5t-20 -111.5t-56.5 -79t-87.5 -47.5t-113 -18h-2h-2v-186h-164v186q-60 3 -110.5 19.5t-86 47.5t-55 78.5t-19.5 110.5q0 64 20 111.5t56 78.5t86 47t109 18v177h164zM470 371h-6t-6 1v-249q3 1 6 1h6
q50 2 78 32.5t28 91.5t-28 91t-78 32zM296 124h2v247h-2q-50 -2 -78 -32t-28 -91t28 -91.5t78 -32.5z" />
    <glyph glyph-name="uni0445" unicode="&#x445;" horiz-adv-x="561" 
d="M365 0l-85 146l-75 -146h-195l161 262l-155 233h186l81 -128l70 128h195l-156 -243l164 -252h-191z" />
    <glyph glyph-name="uni0446" unicode="&#x446;" horiz-adv-x="601" 
d="M523 495v-351h70v-278h-164v134h-374v495h168v-351h132v351h168z" />
    <glyph glyph-name="uni0447" unicode="&#x447;" horiz-adv-x="564" 
d="M341 0v166q-21 -7 -50 -11.5t-66 -4.5q-93 0 -141 44.5t-48 136.5v164h168v-140q0 -40 17 -54t57 -14q20 0 36 3.5t27 8.5v196h168v-495h-168z" />
    <glyph glyph-name="uni0448" unicode="&#x448;" horiz-adv-x="842" 
d="M787 495v-495h-732v495h168v-351h114v351h168v-351h114v351h168z" />
    <glyph glyph-name="uni0449" unicode="&#x449;" horiz-adv-x="865" 
d="M787 495v-351h70v-278h-164v134h-638v495h168v-351h114v351h168v-351h114v351h168z" />
    <glyph glyph-name="uni044A" unicode="&#x44a;" horiz-adv-x="634" 
d="M15 495h299v-128h106q86 0 136.5 -43.5t50.5 -136.5t-49 -140t-139 -47h-273v349h-131v146zM361 237h-47v-107h47q43 0 60.5 10t17.5 46q0 32 -19.5 41.5t-58.5 9.5z" />
    <glyph glyph-name="uni044B" unicode="&#x44b;" horiz-adv-x="775" 
d="M552 0v495h168v-495h-168zM55 0v495h168v-128h98q86 0 136.5 -43.5t50.5 -136.5t-49 -140t-139 -47h-265zM270 237h-47v-107h47q43 0 60.5 10t17.5 46q0 32 -19.5 41.5t-58.5 9.5z" />
    <glyph glyph-name="uni044C" unicode="&#x44c;" horiz-adv-x="543" 
d="M55 0v495h168v-128h106q86 0 136.5 -43.5t50.5 -136.5t-49 -140t-139 -47h-273zM270 237h-47v-107h47q43 0 60.5 10t17.5 46q0 32 -19.5 41.5t-58.5 9.5z" />
    <glyph glyph-name="uni044D" unicode="&#x44d;" horiz-adv-x="535" 
d="M26 175l148 18q6 -34 30 -54.5t61 -20.5q34 0 56 19t30 56h-137v115h135q-9 34 -30 51.5t-53 17.5q-33 0 -57 -17.5t-34 -57.5l-146 27q16 81 78.5 128.5t161.5 47.5q111 0 176 -65t65 -188q0 -120 -62.5 -191t-181.5 -71q-106 0 -166 48t-74 137z" />
    <glyph glyph-name="uni044E" unicode="&#x44e;" horiz-adv-x="813" 
d="M55 0v495h168v-177h63q18 88 81.5 137.5t163.5 49.5q121 0 189 -68.5t68 -187.5t-68 -189t-189 -70q-99 0 -162.5 50t-81.5 138h-64v-178h-168zM531 126q40 0 66 30.5t26 92.5t-26 91t-66 29t-65.5 -28.5t-25.5 -91.5q0 -62 25.5 -92.5t65.5 -30.5z" />
    <glyph glyph-name="uni044F" unicode="&#x44f;" horiz-adv-x="569" 
d="M36 323q0 78 50.5 125t149.5 47h278v-495h-168v152h-49l-88 -152h-179l103 167q-46 18 -71.5 57t-25.5 99zM268 277h78v92h-78q-33 0 -48 -11.5t-15 -36.5q0 -22 16 -33t47 -11z" />
    <glyph glyph-name="uni0452" unicode="&#x452;" horiz-adv-x="577" 
d="M368 505q41 0 73.5 -13t54.5 -45.5t33.5 -89.5t11.5 -144q0 -187 -45.5 -267t-167.5 -80h-45v134h21q43 0 56.5 45t13.5 155q0 99 -16 134t-62 35q-28 0 -50.5 -16.5t-22.5 -47.5v-305h-168v538h-70v96h70v46h166v-46h147v-96h-147v-97q25 28 62 46t85 18z" />
    <glyph glyph-name="uni0454" unicode="&#x454;" horiz-adv-x="530" 
d="M509 320l-148 -18q-6 34 -30 54.5t-61 20.5q-34 0 -56 -19t-30 -56h137v-115h-135q9 -34 30 -51.5t53 -17.5q34 0 57.5 17.5t33.5 57.5l146 -27q-16 -81 -77.5 -128.5t-160.5 -47.5q-111 0 -177 65t-66 188q0 120 62.5 191t181.5 71q106 0 166 -48t74 -137z" />
    <glyph glyph-name="uni0455" unicode="&#x455;" horiz-adv-x="504" 
d="M27 148l150 17q5 -24 24.5 -37.5t53.5 -13.5q37 0 52 7.5t15 22.5q0 14 -11 22.5t-50 15.5l-69 13q-73 13 -112.5 47t-39.5 99q0 41 16.5 72t45.5 51.5t69.5 30.5t87.5 10q84 0 145 -37t73 -109l-146 -29q-4 23 -22 37.5t-53 14.5q-33 0 -48 -8t-15 -22q0 -13 11.5 -20
t43.5 -13l63 -12q73 -14 119.5 -46.5t46.5 -101.5q0 -76 -58 -122.5t-168 -46.5q-96 0 -155 41t-69 117z" />
    <glyph glyph-name="uni0456" unicode="&#x456;" horiz-adv-x="278" 
d="M55 553v137h169v-137h-169zM55 0v495h168v-495h-168z" />
    <glyph glyph-name="uni0457" unicode="&#x457;" horiz-adv-x="278" 
d="M-35 553v137h149v-137h-149zM167 553v137h149v-137h-149zM55 0v495h168v-495h-168z" />
    <glyph glyph-name="uni0457.alt" horiz-adv-x="278" 
d="M21 543v157h102v-157h-102zM158 543v157h102v-157h-102zM55 0v495h168v-495h-168z" />
    <glyph glyph-name="uni0458" unicode="&#x458;" horiz-adv-x="289" 
d="M65 553v137h169v-137h-169zM234 495v-499q0 -99 -45.5 -144.5t-147.5 -45.5h-79v140h33q37 0 54 14t17 48v487h168z" />
    <glyph glyph-name="uni0459" unicode="&#x459;" horiz-adv-x="857" 
d="M105 224q1 28 1.5 64t1 73t0.5 72.5v61.5h429v-128h106q86 0 136.5 -43.5t50.5 -136.5t-49 -140t-139 -47h-273v351h-110q-1 -38 -1.5 -87.5t-1.5 -80.5q-1 -48 -9 -82.5t-26.5 -57t-51.5 -33t-83 -10.5h-74v144h29q37 0 50 15.5t14 64.5zM584 237h-47v-107h47
q43 0 60.5 10t17.5 46q0 32 -19.5 41.5t-58.5 9.5z" />
    <glyph glyph-name="uni045A" unicode="&#x45a;" horiz-adv-x="855" 
d="M55 0v495h168v-169h144v169h168v-128h106q86 0 136.5 -43.5t50.5 -136.5t-49 -140t-139 -47h-273v182h-144v-182h-168zM582 237h-47v-107h47q43 0 60.5 10t17.5 46q0 32 -19.5 41.5t-58.5 9.5z" />
    <glyph glyph-name="uni045B" unicode="&#x45b;" horiz-adv-x="597" 
d="M55 0v538h-70v96h70v46h166v-46h147v-96h-147v-101q23 28 59.5 48t94.5 20q73 0 121.5 -44t48.5 -128v-333h-168v293q0 40 -21 55.5t-56 15.5q-28 0 -52.5 -15t-24.5 -46v-303h-168z" />
    <glyph glyph-name="uni045F" unicode="&#x45f;" horiz-adv-x="586" 
d="M531 495v-495h-156v-134h-164v134h-156v495h168v-351h140v351h168z" />
    <glyph glyph-name="uni0463" unicode="&#x463;" horiz-adv-x="637" 
d="M15 495h131v185h165v-185h193v-131h-195v-51h101q96 0 146.5 -34t50.5 -121t-50 -122.5t-147 -35.5h-264v364h-131v131zM389 193h-80v-73h80q32 0 46 7.5t14 28.5q0 22 -14.5 29.5t-45.5 7.5z" />
    <glyph glyph-name="uni0473" unicode="&#x473;" horiz-adv-x="563" 
d="M281 -10q-120 0 -188 70t-68 189t68 187.5t188 68.5q121 0 189 -68.5t68 -187.5t-68 -189t-189 -70zM281 371q-33 0 -57.5 -17.5t-33.5 -56.5h183q-10 39 -34 56.5t-58 17.5zM281 124q34 0 58 18.5t34 58.5h-183q10 -40 34 -58.5t57 -18.5z" />
    <glyph glyph-name="uni0475" unicode="&#x475;" horiz-adv-x="568" 
d="M492 308l-100 -308h-221l-163 495h175l104 -342l61 213q9 32 20 56.5t28.5 40.5t44.5 24t70 8h52v-144h-20q-17 0 -30 -9t-21 -34z" />
    <glyph glyph-name="uni0491" unicode="&#x491;" horiz-adv-x="448" 
d="M57 0v495h208v134h168v-278h-208v-351h-168z" />
    <glyph glyph-name="uni0493" unicode="&#x493;" horiz-adv-x="423" 
d="M55 0v143h-45v120h45v232h353v-144h-187v-88h92v-120h-92v-143h-166z" />
    <glyph glyph-name="uni049B" unicode="&#x49b;" horiz-adv-x="575" 
d="M55 0v495h168v-177h48l102 177h181l-141 -230l68 -121h86v-278h-164v134h-26l-105 192h-49v-192h-168z" />
    <glyph glyph-name="uni04A3" unicode="&#x4a3;" horiz-adv-x="613" 
d="M55 0v495h168v-169h144v169h168v-351h70v-278h-164v134h-74v182h-144v-182h-168z" />
    <glyph glyph-name="uni04AF" unicode="&#x4af;" horiz-adv-x="573" 
d="M568 495l-186 -495v-194h-168v194l-206 495h187l104 -278l90 278h179z" />
    <glyph glyph-name="uni04B1" unicode="&#x4b1;" horiz-adv-x="573" 
d="M501 0h-120v-194h-166v194h-124v126h72l-155 369h187l104 -286l90 286h179l-138 -369h71v-126z" />
    <glyph glyph-name="uni04BB" unicode="&#x4bb;" horiz-adv-x="597" 
d="M55 0v680h168v-241q23 28 59 47t93 19q73 0 121.5 -44t48.5 -128v-333h-168v293q0 40 -21 55.5t-56 15.5q-28 0 -52.5 -15t-24.5 -46v-303h-168z" />
    <glyph glyph-name="uni04D9" unicode="&#x4d9;" horiz-adv-x="539" 
d="M276 505q125 -1 181.5 -71.5t56.5 -186.5q0 -64 -19.5 -112.5t-52.5 -80.5t-76.5 -48t-92.5 -16q-61 0 -106.5 19t-75.5 52.5t-44.5 81.5t-14.5 105q0 9 1 19t2 18h320q-4 49 -26 71t-59 22q-35 0 -54.5 -15.5t-29.5 -36.5l-146 28q7 28 24.5 55.5t45.5 48.5t69.5 34.5
t96.5 12.5zM272 117q25 0 47.5 15t30.5 56h-159q5 -37 26 -54t55 -17z" />
    <glyph glyph-name="uni04E9" unicode="&#x4e9;" horiz-adv-x="563" 
d="M281 -10q-120 0 -188 70t-68 189t68 187.5t188 68.5q121 0 189 -68.5t68 -187.5t-68 -189t-189 -70zM281 371q-33 0 -57.5 -17.5t-33.5 -56.5h183q-10 39 -34 56.5t-58 17.5zM281 124q34 0 58 18.5t34 58.5h-183q10 -40 34 -58.5t57 -18.5z" />
    <glyph glyph-name="uni01C5" unicode="&#x1c5;" horiz-adv-x="1266" 
d="M70 0v680h264q173 0 266.5 -80.5t93.5 -259.5q0 -180 -94.5 -260t-274.5 -80h-255zM246 158h79q103 0 146 43t43 139q0 97 -43.5 139.5t-146.5 42.5h-78v-364zM774 0v140l239 211h-235v144h448v-140l-239 -211h239v-144h-452zM925 550l-109 150h143l46 -76l45 76h143
l-108 -150h-160z" />
    <glyph glyph-name="uni01C8" unicode="&#x1c8;" horiz-adv-x="875" 
d="M548 164v-164h-478v680h176v-516h302zM651 553v137h169v-137h-169zM820 495v-499q0 -99 -45.5 -144.5t-147.5 -45.5h-79v140h33q37 0 54 14t17 48v487h168z" />
    <glyph glyph-name="uni01CB" unicode="&#x1cb;" horiz-adv-x="1059" 
d="M712 0h-180l-290 401v-401h-172v680h180l290 -402v402h172v-680zM835 553v137h169v-137h-169zM1004 495v-499q0 -99 -45.5 -144.5t-147.5 -45.5h-79v140h33q37 0 54 14t17 48v487h168z" />
    <glyph glyph-name="uni01F2" unicode="&#x1f2;" horiz-adv-x="1266" 
d="M70 0v680h264q173 0 266.5 -80.5t93.5 -259.5q0 -180 -94.5 -260t-274.5 -80h-255zM246 158h79q103 0 146 43t43 139q0 97 -43.5 139.5t-146.5 42.5h-78v-364zM774 0v140l239 211h-235v144h448v-140l-239 -211h239v-144h-452z" />
    <glyph glyph-name="uni041B.BUL" horiz-adv-x="732" 
d="M483 680l244 -680h-186l-177 526l-178 -526h-181l244 680h234z" />
    <glyph glyph-name="uni0432.BUL" horiz-adv-x="575" 
d="M50 210v252q0 110 70.5 169t183.5 59q106 0 167 -52t61 -135q0 -49 -27 -87.5t-81 -56.5q55 -14 87 -51.5t32 -103.5q0 -104 -68 -159t-177 -55q-122 0 -185 56.5t-63 163.5zM210 457v-43h75q46 0 70.5 19t24.5 50q0 33 -20.5 53t-56.5 20q-39 0 -66 -24t-27 -75z
M210 212q0 -46 26 -67t65 -21t64 21t25 61q0 45 -27.5 65t-74.5 20h-78v-79z" />
    <glyph glyph-name="uni0433.BUL" horiz-adv-x="520" 
d="M498 149q-12 -81 -78.5 -120t-166.5 -39q-101 0 -159.5 40.5t-58.5 118.5q0 63 40 102.5t130 53.5l70 11q32 5 44.5 12t12.5 19q0 15 -15 24t-43 9q-34 0 -56.5 -13t-31.5 -39l-143 29q16 71 76.5 109.5t156.5 38.5q100 0 154.5 -42.5t54.5 -113.5q0 -66 -44.5 -102
t-128.5 -51l-66 -12q-31 -5 -42.5 -13.5t-11.5 -21.5q0 -16 17.5 -24.5t46.5 -8.5q43 0 65 14.5t29 41.5z" />
    <glyph glyph-name="uni0434.BUL" horiz-adv-x="587" 
d="M376 495h158v-472q0 -60 -18.5 -103.5t-52 -70.5t-80.5 -40t-103 -13q-101 0 -162.5 43t-74.5 121l157 20q5 -25 26.5 -38.5t53.5 -13.5q43 0 69 19.5t26 74.5v45q-19 -26 -55 -40.5t-83 -14.5q-43 0 -81 15.5t-66 45.5t-44.5 75.5t-16.5 104.5q0 63 17 111t46 79
t69 46.5t86 15.5q44 0 77 -16t52 -41v47zM371 229v63q0 34 -22 56t-62 22q-41 0 -65.5 -30t-24.5 -84t25 -82.5t65 -28.5q34 0 59 20.5t25 63.5z" />
    <glyph glyph-name="uni0436.BUL" horiz-adv-x="802" 
d="M318 0v192h-33l-101 -192h-182l145 265l-137 230h176l99 -177h33v362h166v-362h33l99 177h176l-137 -230l145 -265h-182l-101 192h-33v-192h-166z" />
    <glyph glyph-name="uni0437.BUL" horiz-adv-x="542" 
d="M15 -19l151 18q10 -40 35.5 -56.5t62.5 -16.5q40 0 64.5 21t24.5 60q0 38 -22.5 60t-66.5 22h-90v133h84q43 0 67 21t24 56t-21.5 55t-58.5 20q-39 0 -63.5 -20.5t-34.5 -57.5l-145 29q16 89 84 134.5t167 45.5q107 0 166.5 -52.5t59.5 -141.5q0 -54 -26.5 -94.5
t-80.5 -59.5q53 -15 83.5 -52t30.5 -100q0 -99 -66.5 -154t-184.5 -55q-104 0 -167.5 48t-76.5 137z" />
    <glyph glyph-name="uni0438.BUL" horiz-adv-x="595" 
d="M376 0v52q-25 -26 -64 -44t-93 -18q-73 0 -120 44.5t-47 128.5v332h168v-292q0 -39 21 -55.5t55 -16.5t55 18.5t21 43.5v302h168v-495h-164z" />
    <glyph glyph-name="uni0439.BUL" horiz-adv-x="595" 
d="M376 0v52q-25 -26 -64 -44t-93 -18q-73 0 -120 44.5t-47 128.5v332h168v-292q0 -39 21 -55.5t55 -16.5t55 18.5t21 43.5v302h168v-495h-164zM297 521q-107 0 -145.5 47.5t-38.5 119.5h129q0 -37 12.5 -53t42.5 -16q29 0 40.5 16t11.5 53h130q1 -72 -37.5 -119.5
t-144.5 -47.5z" />
    <glyph glyph-name="uni043A.BUL" horiz-adv-x="566" 
d="M55 0v680h168v-352h49l96 167h180l-136 -220l152 -275h-185l-107 202h-49v-202h-168z" />
    <glyph glyph-name="uni043B.BUL" horiz-adv-x="559" 
d="M393 495l158 -495h-175l-99 336l-97 -336h-172l161 495h224z" />
    <glyph glyph-name="uni043F.BUL" horiz-adv-x="597" 
d="M55 0v495h164v-61q24 29 61 50t94 21q72 0 121.5 -44t49.5 -128v-333h-168v293q0 40 -22 55.5t-55 15.5q-28 0 -52.5 -15t-24.5 -46v-303h-168z" />
    <glyph glyph-name="uni0442.BUL" horiz-adv-x="911" 
d="M55 0v495h163v-61q23 29 59.5 50t95.5 21q57 0 92 -24t51 -60q31 42 75 63t100 21q73 0 120.5 -45t47.5 -129v-331h-168v295q0 36 -20.5 53t-54.5 17q-28 0 -51.5 -17t-23.5 -45v-303h-168v294q0 36 -20 53t-54 17q-28 0 -52 -16.5t-24 -44.5v-303h-168z" />
    <glyph glyph-name="uni0446.BUL" horiz-adv-x="618" 
d="M376 0v52q-25 -26 -64 -44t-93 -18q-73 0 -120 44.5t-47 128.5v332h168v-292q0 -39 21 -55.5t55 -16.5t55 18.5t21 43.5v302h168v-351h70v-278h-164v134h-70z" />
    <glyph glyph-name="uni0447.BUL" horiz-adv-x="573" 
d="M518 495v-495h-168v197q-25 -30 -60.5 -45.5t-78.5 -15.5q-82 0 -128.5 47.5t-46.5 137.5v174h168v-159q0 -27 14 -44t54 -17q31 0 54.5 17.5t23.5 48.5v154h168z" />
    <glyph glyph-name="uni0448.BUL" horiz-adv-x="911" 
d="M856 495v-495h-163v61q-23 -29 -59.5 -50t-95.5 -21q-57 0 -92 24t-51 60q-31 -42 -74.5 -63t-100.5 -21q-73 0 -120.5 45t-47.5 129v331h168v-295q0 -36 20.5 -53t54.5 -17q28 0 51.5 17t23.5 45v303h168v-294q0 -36 20 -53t54 -17q28 0 52 16.5t24 44.5v303h168z" />
    <glyph glyph-name="uni0449.BUL" horiz-adv-x="934" 
d="M856 495v-351h70v-278h-164v134h-69v61q-23 -29 -59.5 -50t-95.5 -21q-57 0 -92 24t-51 60q-31 -42 -74.5 -63t-100.5 -21q-73 0 -120.5 45t-47.5 129v331h168v-295q0 -36 20.5 -53t54.5 -17q28 0 51.5 17t23.5 45v303h168v-294q0 -36 20 -53t54 -17q28 0 52 16.5
t24 44.5v303h168z" />
    <glyph glyph-name="uni044A.BUL" horiz-adv-x="632" 
d="M605 202q0 -95 -63 -154t-167 -59q-113 0 -171 59t-58 155v146h-131v146h291v-152q20 22 52 31.5t69 9.5q35 0 67.5 -11t57 -33.5t39 -57t14.5 -80.5zM306 180q0 -34 20.5 -53t49.5 -19q36 0 54.5 20.5t18.5 64.5q0 36 -18.5 56t-53.5 20q-30 0 -50.5 -18t-20.5 -49v-22z
" />
    <glyph glyph-name="uni044C.BUL" horiz-adv-x="536" 
d="M50 203v292h160v-152q20 22 52 31.5t69 9.5q35 0 67.5 -11t57 -33.5t39 -57t14.5 -80.5q0 -95 -63 -154t-167 -59q-113 0 -171 59t-58 155zM210 180q0 -34 20.5 -53t49.5 -19q36 0 54.5 20.5t18.5 64.5q0 36 -18.5 56t-53.5 20q-30 0 -50.5 -18t-20.5 -49v-22z" />
    <glyph glyph-name="uni0431.SRB" horiz-adv-x="561" 
d="M535 230q0 -111 -68 -175.5t-181 -64.5q-56 0 -103 16t-80.5 46.5t-52 75t-18.5 100.5q0 90 44.5 142t119.5 67l-29 20q-34 23 -50 51t-16 60q0 59 43 88t120 29h226v-133h-194q-12 0 -18 -3t-6 -10q0 -8 8.5 -14.5t26.5 -16.5l89 -49q63 -34 101 -89.5t38 -139.5z
M286 118q44 0 65 30t21 80q0 56 -22 86.5t-66 30.5t-66.5 -31t-22.5 -88q0 -49 24 -78.5t67 -29.5z" />
    <glyph glyph-name="period" unicode="." horiz-adv-x="238" 
d="M40 0v164h158v-164h-158z" />
    <glyph glyph-name="comma" unicode="," horiz-adv-x="242" 
d="M40 0v164h164v-157q0 -78 -41.5 -122.5t-125.5 -53.5l-12 86q45 8 65 27t20 50v6h-70z" />
    <glyph glyph-name="colon" unicode=":" horiz-adv-x="238" 
d="M40 0v164h158v-164h-158zM40 331v164h158v-164h-158z" />
    <glyph glyph-name="semicolon" unicode=";" horiz-adv-x="244" 
d="M43 331v164h158v-164h-158zM40 0v164h164v-157q0 -78 -41.5 -122.5t-125.5 -53.5l-12 86q45 8 65 27t20 50v6h-70z" />
    <glyph glyph-name="ellipsis" unicode="&#x2026;" horiz-adv-x="698" 
d="M40 0v164h158v-164h-158zM270 0v164h158v-164h-158zM500 0v164h158v-164h-158z" />
    <glyph glyph-name="exclam" unicode="!" horiz-adv-x="305" 
d="M87 227l-22 453h176l-22 -453h-132zM73 0v164h158v-164h-158z" />
    <glyph glyph-name="exclamdown" unicode="&#xa1;" horiz-adv-x="305" 
d="M73 500h158v-164h-158v164zM87 273h132l22 -453h-176z" />
    <glyph glyph-name="exclamdown.cap" horiz-adv-x="305" 
d="M73 680h158v-164h-158v164zM87 453h132l22 -453h-176z" />
    <glyph glyph-name="question" unicode="?" horiz-adv-x="536" 
d="M178 227v65q0 40 16.5 65t55.5 43l30 14q34 16 50.5 30.5t16.5 39.5q0 26 -18.5 40.5t-55.5 14.5q-40 0 -63 -16.5t-29 -51.5l-166 17q9 93 77 147t187 54q122 0 180 -55t57 -143q-1 -69 -30.5 -104.5t-71.5 -57.5l-30 -16q-25 -13 -36 -25.5t-11 -33.5v-27h-159zM184 0
v164h158v-164h-158z" />
    <glyph glyph-name="questiondown" unicode="&#xbf;" horiz-adv-x="531" 
d="M353 495v-164h-158v164h158zM359 268v-65q0 -40 -16.5 -65t-55.5 -43l-30 -14q-34 -16 -50.5 -30.5t-16.5 -39.5q0 -26 18.5 -40.5t55.5 -14.5q40 0 63 16.5t29 51.5l166 -17q-9 -93 -77 -147t-187 -54q-122 0 -180 55t-57 143q1 69 30.5 104.5t71.5 57.5l30 16
q25 13 36 25.5t11 33.5v27h159z" />
    <glyph glyph-name="questiondown.cap" horiz-adv-x="536" 
d="M353 680v-164h-158v164h158zM359 453v-65q0 -40 -16.5 -65t-55.5 -43l-30 -14q-34 -16 -50.5 -30.5t-16.5 -39.5q0 -26 18.5 -40.5t55.5 -14.5q40 0 63 16.5t29 51.5l166 -17q-9 -93 -77 -147t-187 -54q-122 0 -180 55t-57 143q1 69 30.5 104.5t71.5 57.5l30 16
q25 13 36 25.5t11 33.5v27h159z" />
    <glyph glyph-name="quoteleft" unicode="&#x2018;" horiz-adv-x="264" 
d="M209 521v-164h-164v157q0 78 41.5 122.5t125.5 53.5l12 -86q-45 -8 -65 -27t-20 -50v-6h70z" />
    <glyph glyph-name="quoteright" unicode="&#x2019;" horiz-adv-x="264" 
d="M55 516v164h164v-157q0 -78 -41.5 -122.5t-125.5 -53.5l-12 86q45 8 65 27t20 50v6h-70z" />
    <glyph glyph-name="quotedblleft" unicode="&#x201c;" horiz-adv-x="485" 
d="M430 521v-164h-164v157q0 78 41.5 122.5t125.5 53.5l12 -86q-45 -8 -65 -27t-20 -50v-6h70zM209 521v-164h-164v157q0 78 41.5 122.5t125.5 53.5l12 -86q-45 -8 -65 -27t-20 -50v-6h70z" />
    <glyph glyph-name="quotedblright" unicode="&#x201d;" horiz-adv-x="485" 
d="M55 516v164h164v-157q0 -78 -41.5 -122.5t-125.5 -53.5l-12 86q45 8 65 27t20 50v6h-70zM276 516v164h164v-157q0 -78 -41.5 -122.5t-125.5 -53.5l-12 86q45 8 65 27t20 50v6h-70z" />
    <glyph glyph-name="quotesinglbase" unicode="&#x201a;" horiz-adv-x="264" 
d="M55 0v164h164v-157q0 -78 -41.5 -122.5t-125.5 -53.5l-12 86q45 8 65 27t20 50v6h-70z" />
    <glyph glyph-name="quotedblbase" unicode="&#x201e;" horiz-adv-x="485" 
d="M55 0v164h164v-157q0 -78 -41.5 -122.5t-125.5 -53.5l-12 86q45 8 65 27t20 50v6h-70zM276 0v164h164v-157q0 -78 -41.5 -122.5t-125.5 -53.5l-12 86q45 8 65 27t20 50v6h-70z" />
    <glyph glyph-name="guilsinglleft" unicode="&#x2039;" horiz-adv-x="386" 
d="M177 477h169l-141 -229l141 -231h-168l-143 231z" />
    <glyph glyph-name="guilsinglright" unicode="&#x203a;" horiz-adv-x="386" 
d="M40 16l141 229l-141 231h168l143 -231l-142 -229h-169z" />
    <glyph glyph-name="quotesingle" unicode="'" horiz-adv-x="281" 
d="M70 357l-18 333h177l-18 -333h-141z" />
    <glyph glyph-name="quotedbl" unicode="&#x22;" horiz-adv-x="514" 
d="M70 357l-18 333h175l-18 -333h-139zM305 357l-18 333h175l-18 -333h-139z" />
    <glyph glyph-name="guillemotleft" unicode="&#xab;" horiz-adv-x="646" 
d="M177 476h169l-141 -229l141 -231h-168l-143 231zM437 476h169l-141 -229l141 -231h-168l-143 231z" />
    <glyph glyph-name="guillemotright" unicode="&#xbb;" horiz-adv-x="646" 
d="M40 16l141 231l-141 229h169l142 -229l-143 -231h-168zM300 16l141 231l-141 229h169l142 -229l-143 -231h-168z" />
    <glyph glyph-name="guilsinglleft.cap" horiz-adv-x="386" 
d="M177 570h169l-141 -229l141 -231h-168l-143 231z" />
    <glyph glyph-name="guilsinglright.cap" horiz-adv-x="386" 
d="M40 110l141 229l-141 231h168l143 -231l-142 -229h-169z" />
    <glyph glyph-name="guillemotleft.cap" horiz-adv-x="646" 
d="M177 570h169l-141 -229l141 -231h-168l-143 231zM437 570h169l-141 -229l141 -231h-168l-143 231z" />
    <glyph glyph-name="guillemotright.cap" horiz-adv-x="646" 
d="M40 110l141 231l-141 229h169l142 -229l-143 -231h-168zM300 110l141 231l-141 229h169l142 -229l-143 -231h-168z" />
    <glyph glyph-name="underscore" unicode="_" horiz-adv-x="461" 
d="M461 -194h-461v144h461v-144z" />
    <glyph glyph-name="hyphen" unicode="-" horiz-adv-x="380" 
d="M340 207h-300v143h300v-143z" />
    <glyph glyph-name="endash" unicode="&#x2013;" horiz-adv-x="544" 
d="M504 209h-464v139h464v-139z" />
    <glyph glyph-name="emdash" unicode="&#x2014;" horiz-adv-x="899" 
d="M859 209h-819v139h819v-139z" />
    <glyph glyph-name="hyphen.cap" horiz-adv-x="380" 
d="M340 282h-300v143h300v-143z" />
    <glyph glyph-name="endash.cap" horiz-adv-x="544" 
d="M504 284h-464v139h464v-139z" />
    <glyph glyph-name="emdash.cap" horiz-adv-x="899" 
d="M859 284h-819v139h819v-139z" />
    <glyph glyph-name="uni2012" unicode="&#x2012;" horiz-adv-x="650" 
d="M557 265h-464v144h464v-144z" />
    <glyph glyph-name="parenleft" unicode="(" horiz-adv-x="438" 
d="M65 271q0 156 65 279.5t168 204.5l90 -102q-72 -66 -117 -167.5t-45 -214.5q0 -50 10 -102.5t30 -102t51 -95t72 -81.5l-91 -103q-51 40 -94.5 93t-74 115t-47.5 132t-17 144z" />
    <glyph glyph-name="parenright" unicode=")" horiz-adv-x="438" 
d="M373 271q0 -74 -17 -144t-47.5 -132t-74 -115t-94.5 -93l-91 103q36 33 66 77.5t51 94t32.5 103.5t11.5 106q0 107 -39.5 208t-121.5 173l91 103q103 -81 168 -204.5t65 -279.5z" />
    <glyph glyph-name="bracketleft" unicode="[" horiz-adv-x="413" 
d="M60 -194v924h303v-144h-151v-636h151v-144h-303z" />
    <glyph glyph-name="bracketright" unicode="]" horiz-adv-x="413" 
d="M49 -50h151v636h-151v144h303v-924h-303v144z" />
    <glyph glyph-name="braceleft" unicode="{" horiz-adv-x="458" 
d="M30 193v148h22q40 0 63 21.5t23 83.5v103q0 99 49 140t123 41h98v-144h-55q-37 0 -52 -17.5t-15 -57.5v-103q0 -60 -20 -92.5t-59 -48.5q39 -16 59 -48.5t20 -92.5v-96q0 -48 15 -64t52 -16h55v-144h-98q-74 0 -123 39.5t-49 141.5v101q0 62 -23 83.5t-63 21.5h-22z" />
    <glyph glyph-name="braceright" unicode="}" horiz-adv-x="458" 
d="M428 193h-22q-40 0 -63 -21.5t-23 -83.5v-101q0 -102 -49 -141.5t-123 -39.5h-98v144h55q37 0 52 16t15 64v96q0 60 20 92.5t59 48.5q-39 16 -59 48.5t-20 92.5v103q0 40 -15 57.5t-52 17.5h-55v144h98q74 0 123 -41t49 -140v-103q0 -62 23 -83.5t63 -21.5h22v-148z" />
    <glyph glyph-name="dblparenleft" horiz-adv-x="696" 
d="M65 276q0 78 17 148t47.5 129.5t73.5 110.5t93 91l85 -97q-32 -29 -61.5 -69.5t-52 -89t-36 -105t-13.5 -118.5q0 -115 46 -215.5t118 -165.5l-86 -98q-50 40 -93 92.5t-73.5 113t-47.5 130t-17 143.5zM335 276q0 78 17 148t47.5 129.5t73.5 110.5t93 91l85 -97
q-32 -29 -61.5 -69.5t-52 -89t-36 -105t-13.5 -118.5q0 -115 46 -214.5t118 -166.5l-86 -98q-50 42 -93 94.5t-73.5 113t-47.5 129t-17 142.5z" />
    <glyph glyph-name="dblparenright" horiz-adv-x="696" 
d="M631 276q0 -74 -17 -143.5t-47.5 -130t-73.5 -113t-93 -92.5l-86 98q72 65 118 165.5t46 215.5q0 62 -13.5 118.5t-36 105t-52 89t-61.5 69.5l85 97q50 -40 93 -91t73.5 -110.5t47.5 -129.5t17 -148zM361 276q0 -74 -17 -142.5t-47.5 -129t-73.5 -113t-93 -94.5l-86 98
q72 67 118 166.5t46 214.5q0 62 -13.5 118.5t-36 105t-52 89t-61.5 69.5l85 97q50 -40 93 -91t73.5 -110.5t47.5 -129.5t17 -148z" />
    <glyph glyph-name="uni3008" unicode="&#x3008;" horiz-adv-x="422" 
d="M392 730l-192 -462l192 -462h-156l-191 462l191 462h156z" />
    <glyph glyph-name="uni3009" unicode="&#x3009;" horiz-adv-x="422" 
d="M30 -194l192 462l-192 462h156l191 -462l-191 -462h-156z" />
    <glyph glyph-name="uni301A" unicode="&#x301a;" horiz-adv-x="533" 
d="M60 -194v924h423v-124h-111v-676h111v-124h-423zM182 -70h68v676h-68v-676z" />
    <glyph glyph-name="uni301B" unicode="&#x301b;" horiz-adv-x="533" 
d="M473 730v-924h-423v124h111v676h-111v124h423zM351 606h-68v-676h68v676z" />
    <glyph glyph-name="parenleft.cap" horiz-adv-x="438" 
d="M65 333q0 156 65 264.5t168 189.5l90 -102q-72 -66 -117 -152.5t-45 -199.5q0 -100 40.5 -189.5t122.5 -161.5l-91 -103q-103 81 -168 193t-65 261z" />
    <glyph glyph-name="parenright.cap" horiz-adv-x="438" 
d="M373 333q0 -156 -65 -264.5t-168 -189.5l-90 102q72 66 117 152.5t45 199.5q0 100 -40.5 189.5t-122.5 161.5l91 103q103 -81 168 -193t65 -261z" />
    <glyph glyph-name="bracketleft.cap" horiz-adv-x="413" 
d="M60 -94v864h303v-144h-151v-576h151v-144h-303z" />
    <glyph glyph-name="bracketright.cap" horiz-adv-x="413" 
d="M50 50h151v576h-151v144h303v-864h-303v144z" />
    <glyph glyph-name="braceleft.cap" horiz-adv-x="458" 
d="M30 263v148h22q40 0 63 21.5t23 83.5v73q0 99 49 140t123 41h98v-144h-55q-37 0 -52 -17.5t-15 -57.5v-73q0 -60 -20 -92.5t-59 -48.5q39 -16 59 -48.5t20 -92.5v-66q0 -48 15 -64t52 -16h55v-144h-98q-74 0 -123 39.5t-49 141.5v71q0 62 -23 83.5t-63 21.5h-22z" />
    <glyph glyph-name="braceright.cap" horiz-adv-x="458" 
d="M428 263h-22q-40 0 -63 -21.5t-23 -83.5v-71q0 -102 -49 -141.5t-123 -39.5h-98v144h55q37 0 52 16t15 64v66q0 60 20 92.5t59 48.5q-39 16 -59 48.5t-20 92.5v73q0 40 -15 57.5t-52 17.5h-55v144h98q74 0 123 -41t49 -140v-73q0 -62 23 -83.5t63 -21.5h22v-148z" />
    <glyph glyph-name="dblparenleft.cap" horiz-adv-x="696" 
d="M65 341q0 78 17 144t47.5 121t73.5 102t93 87l85 -97q-32 -29 -61.5 -65.5t-52 -80.5t-36 -96.5t-13.5 -114.5q0 -115 46 -203t118 -153l-86 -98q-50 40 -93 88.5t-73.5 104.5t-47.5 121.5t-17 139.5zM335 341q0 78 17 144t47.5 121t73.5 102t93 87l85 -97
q-32 -29 -61.5 -65.5t-52 -80.5t-36 -96.5t-13.5 -114.5q0 -115 46 -202t118 -154l-86 -98q-50 42 -93 90.5t-73.5 104t-47.5 120.5t-17 139z" />
    <glyph glyph-name="dblparenright.cap" horiz-adv-x="696" 
d="M631 341q0 -74 -17 -139.5t-47.5 -121.5t-73.5 -104.5t-93 -88.5l-86 98q72 65 118 153t46 203q0 62 -13.5 114.5t-36 96.5t-52 80.5t-61.5 65.5l85 97q50 -40 93 -87t73.5 -102t47.5 -121t17 -144zM361 341q0 -74 -17 -139t-47.5 -120.5t-73.5 -104t-93 -90.5l-86 98
q72 67 118 154t46 202q0 62 -13.5 114.5t-36 96.5t-52 80.5t-61.5 65.5l85 97q50 -40 93 -87t73.5 -102t47.5 -121t17 -144z" />
    <glyph glyph-name="uni3008.cap" horiz-adv-x="422" 
d="M392 770l-192 -432l192 -432h-156l-191 432l191 432h156z" />
    <glyph glyph-name="uni3009.cap" horiz-adv-x="422" 
d="M30 -94l192 432l-192 432h156l191 -432l-191 -432h-156z" />
    <glyph glyph-name="uni301A.cap" horiz-adv-x="533" 
d="M60 -94v864h423v-124h-111v-616h111v-124h-423zM182 30h68v616h-68v-616z" />
    <glyph glyph-name="uni301B.cap" horiz-adv-x="533" 
d="M473 770v-864h-423v124h111v616h-111v124h423zM351 646h-68v-616h68v616z" />
    <glyph glyph-name="slash" unicode="/" horiz-adv-x="519" 
d="M40 -194l288 924h151l-287 -924h-152z" />
    <glyph glyph-name="backslash" unicode="\" horiz-adv-x="519" 
d="M479 -194h-152l-287 924h151z" />
    <glyph glyph-name="bar" unicode="|" horiz-adv-x="344" 
d="M100 -194v924h144v-924h-144z" />
    <glyph glyph-name="brokenbar" unicode="&#xa6;" horiz-adv-x="344" 
d="M100 335v395h144v-395h-144zM100 -194v395h144v-395h-144z" />
    <glyph glyph-name="slash.cap" horiz-adv-x="460" 
d="M20 -94l269 864h151l-268 -864h-152z" />
    <glyph glyph-name="backslash.cap" horiz-adv-x="460" 
d="M440 -94h-152l-268 864h151z" />
    <glyph glyph-name="bar.cap" horiz-adv-x="344" 
d="M100 -94v864h144v-864h-144z" />
    <glyph glyph-name="brokenbar.cap" horiz-adv-x="344" 
d="M100 405v365h144v-365h-144zM100 -94v365h144v-365h-144z" />
    <glyph glyph-name="fraction" unicode="&#x2044;" horiz-adv-x="190" 
d="M-47 0h-90l406 680h89z" />
    <glyph glyph-name="numbersign" unicode="#" horiz-adv-x="772" 
d="M136 -70l14 179h-80v140h91l11 140h-102v140h113l13 161h148l-13 -161h144l13 161h148l-13 -161h79v-140h-90l-11 -140h101v-140h-112l-14 -179h-148l14 179h-144l-14 -179h-148zM309 249h144l11 140h-144z" />
    <glyph glyph-name="uni2116" unicode="&#x2116;" horiz-adv-x="1157" 
d="M931 360q-72 0 -114.5 41.5t-42.5 121.5q0 78 42.5 120t114.5 42q73 0 114.5 -42t41.5 -120t-41.5 -120.5t-114.5 -42.5zM711 0h-194l-269 399v-399h-178v680h190l273 -407v407h178v-680zM931 460q22 0 32.5 17t10.5 46t-10.5 45.5t-32.5 16.5q-21 0 -32.5 -16t-11.5 -46
q0 -29 11.5 -46t32.5 -17zM1080 199h-300v118h300v-118z" />
    <glyph glyph-name="percent" unicode="%" horiz-adv-x="923" 
d="M215 291q-81 0 -135.5 47.5t-54.5 151.5q0 102 54.5 150.5t135.5 48.5q84 0 136 -48.5t52 -150.5q0 -94 -52 -146.5t-136 -52.5zM304 0h-90l406 680h89zM215 403q31 0 46 22t15 65q0 42 -15 64.5t-46 22.5t-47.5 -22t-16.5 -65t16.5 -65t47.5 -22zM710 -9
q-81 0 -135.5 47.5t-54.5 151.5q0 102 54.5 150.5t135.5 48.5q84 0 136 -48.5t52 -150.5q0 -94 -52 -146.5t-136 -52.5zM710 103q31 0 46 22t15 65q0 42 -15 64.5t-46 22.5t-47.5 -22t-16.5 -65t16.5 -65t47.5 -22z" />
    <glyph glyph-name="perthousand" unicode="&#x2030;" horiz-adv-x="1345" 
d="M215 291q-81 0 -135.5 47.5t-54.5 151.5q0 102 54.5 150.5t135.5 48.5q84 0 136 -48.5t52 -150.5q0 -94 -52 -146.5t-136 -52.5zM304 0h-90l406 680h89zM215 403q31 0 46 22t15 65q0 42 -15 64.5t-46 22.5t-47.5 -22t-16.5 -65t16.5 -65t47.5 -22zM1132 -9
q-81 0 -135.5 47.5t-54.5 151.5q0 102 54.5 150.5t135.5 48.5q84 0 136 -48.5t52 -150.5q0 -94 -52 -146.5t-136 -52.5zM710 -9q-81 0 -135.5 47.5t-54.5 151.5q0 102 54.5 150.5t135.5 48.5q84 0 136 -48.5t52 -150.5q0 -94 -52 -146.5t-136 -52.5zM1132 103q31 0 46 22
t15 65q0 42 -15 64.5t-46 22.5t-47.5 -22t-16.5 -65t16.5 -65t47.5 -22zM710 103q31 0 46 22t15 65q0 42 -15 64.5t-46 22.5t-47.5 -22t-16.5 -65t16.5 -65t47.5 -22z" />
    <glyph glyph-name="degree" unicode="&#xb0;" horiz-adv-x="418" 
d="M208 335q-77 0 -127.5 50t-50.5 128q0 77 50.5 127t127.5 50q78 0 129 -50t51 -127q0 -78 -51 -128t-129 -50zM208 448q28 0 46.5 19.5t18.5 45.5t-18.5 45t-46.5 19t-45.5 -19t-17.5 -45t17.5 -45.5t45.5 -19.5z" />
    <glyph glyph-name="at" unicode="@" horiz-adv-x="895" 
d="M669 -103q-32 -26 -93.5 -43t-127.5 -17q-91 0 -166 26.5t-127.5 77t-81 125t-28.5 170.5q0 95 31 171t87 128.5t134.5 80.5t171.5 28q90 0 162 -25.5t122.5 -71.5t77.5 -112.5t27 -148.5q0 -127 -48 -193t-135 -66q-57 0 -87 22.5t-41 50.5q-12 -31 -43 -52t-79 -21
q-77 0 -127.5 54t-50.5 154q0 50 14 88.5t38 64.5t56 39.5t67 13.5q32 0 58 -12.5t38 -28.5v36h134v-252q0 -24 8.5 -35t25.5 -11q24 0 39 36.5t15 107.5q0 125 -74.5 191t-196.5 66q-67 0 -123 -21.5t-95.5 -61t-61.5 -95.5t-22 -125q0 -71 21 -125.5t58.5 -90.5t91 -54
t117.5 -18q43 0 92 11.5t77 28.5zM520 220v33q0 34 -17.5 52.5t-44.5 18.5q-30 0 -50 -23t-20 -65q0 -44 19.5 -67.5t50.5 -23.5q26 0 44 18.5t18 56.5z" />
    <glyph glyph-name="at.cap" horiz-adv-x="895" 
d="M669 -2q-32 -26 -93.5 -43t-127.5 -17q-91 0 -166 26.5t-127.5 77t-81 125t-28.5 170.5q0 95 31 171t87 128.5t134.5 80.5t171.5 28q90 0 162 -25.5t122.5 -71.5t77.5 -112.5t27 -148.5q0 -127 -48 -193t-135 -66q-57 0 -87 22.5t-41 50.5q-12 -31 -43 -52t-79 -21
q-77 0 -127.5 54t-50.5 154q0 50 14 88.5t38 64.5t56 39.5t67 13.5q32 0 58 -12.5t38 -28.5v36h134v-252q0 -24 8.5 -35t25.5 -11q24 0 39 36.5t15 107.5q0 125 -74.5 191t-196.5 66q-67 0 -123 -21.5t-95.5 -61t-61.5 -95.5t-22 -125q0 -71 21 -125.5t58.5 -90.5t91 -54
t117.5 -18q43 0 92 11.5t77 28.5zM520 321v33q0 34 -17.5 52.5t-44.5 18.5q-30 0 -50 -23t-20 -65q0 -44 19.5 -67.5t50.5 -23.5q26 0 44 18.5t18 56.5z" />
    <glyph glyph-name="ampersand" unicode="&#x26;" horiz-adv-x="765" 
d="M549 0l-45 44q-37 -22 -84.5 -38t-107.5 -16q-127 0 -202 50.5t-75 153.5q0 37 12 67.5t31 53t44.5 38t51.5 24.5q-19 27 -30.5 56t-11.5 63q0 87 60 140.5t169 53.5q101 0 156 -51t55 -133q0 -73 -38.5 -116.5t-103.5 -66.5l89 -90q25 23 41 54t24 68l138 -25
q-9 -58 -39.5 -108.5t-66.5 -86.5l134 -135h-201zM283 504q0 -22 12.5 -40t35.5 -41l7 2q40 10 63 30.5t23 48.5q0 29 -18.5 46t-50.5 17q-31 0 -51.5 -17.5t-20.5 -45.5zM205 205q0 -37 31 -59.5t83 -22.5q23 0 44 5.5t39 15.5l-136 133q-29 -10 -45 -27t-16 -45z" />
    <glyph glyph-name="section" unicode="&#xa7;" horiz-adv-x="644" 
d="M557 0q0 -90 -65.5 -140t-177.5 -50q-116 0 -176 47t-72 126l166 16q4 -32 26.5 -51.5t58.5 -19.5q30 0 51 12t21 38q0 22 -18 36.5t-71 25.5l-66 14q-85 18 -133 59.5t-48 125.5q0 49 22.5 87t62.5 64q-22 22 -34 51.5t-12 66.5q0 90 65 136t173 46q119 0 177 -47
t70 -125l-166 -16q-3 28 -22 48.5t-57 20.5q-29 0 -48.5 -11.5t-19.5 -34.5q0 -25 23.5 -37.5t66.5 -23.5l71 -18q78 -19 123 -59.5t45 -118.5q0 -51 -21.5 -89t-60.5 -63q22 -21 34 -50t12 -66zM369 178q3 -1 6 -1.5t6 -0.5q20 12 30 28.5t10 34.5q0 32 -23 50t-70 26
l-55 10q-1 0 -3.5 0.5t-3.5 0.5q-25 -12 -36 -28.5t-11 -36.5q0 -29 19 -46t64 -25z" />
    <glyph glyph-name="paragraph" unicode="&#xb6;" horiz-adv-x="740" 
d="M252 -180v450q-49 0 -88 16t-66.5 44t-42.5 65.5t-15 79.5q0 43 15 80.5t42.5 65t66.5 43.5t88 16h448v-144h-90v-716h-134v716h-90v-716h-134z" />
    <glyph glyph-name="dagger" unicode="&#x2020;" horiz-adv-x="516" 
d="M180 -10v421h-150v144h150v135h164v-135h142v-144h-142v-421h-164z" />
    <glyph glyph-name="daggerdbl" unicode="&#x2021;" horiz-adv-x="516" 
d="M180 -10v145h-150v144h150v132h-150v144h150v135h164v-135h142v-144h-142v-132h142v-144h-142v-145h-164z" />
    <glyph glyph-name="asterisk" unicode="*" horiz-adv-x="412" 
d="M148 338l14 100l-79 -62l-58 100l93 38l-93 38l58 100l79 -62l-14 100h116l-14 -100l79 62l58 -100l-93 -38l93 -38l-58 -100l-79 62l14 -100h-116z" />
    <glyph glyph-name="periodcentered" unicode="&#xb7;" horiz-adv-x="239" 
d="M40 265v164h158v-164h-158z" />
    <glyph glyph-name="bullet" unicode="&#x2022;" horiz-adv-x="343" 
d="M171 248q-54 0 -92.5 39t-38.5 93t38.5 93t92.5 39t93 -39t39 -93t-39 -93t-93 -39z" />
    <glyph glyph-name="copyright" unicode="&#xa9;" horiz-adv-x="804" 
d="M402 -36q-74 0 -138.5 27t-111.5 73.5t-74.5 110.5t-27.5 138t27.5 138.5t74.5 111.5t111.5 74t138.5 27t138.5 -27t111.5 -74t74.5 -111.5t27.5 -138.5t-27.5 -138t-74.5 -110.5t-111.5 -73.5t-138.5 -27zM402 31q59 0 110 22t88.5 59.5t59 89.5t21.5 111
q0 60 -21.5 112t-59 90t-88.5 60t-110 22t-110.5 -22t-88.5 -60t-58.5 -90t-21.5 -112q0 -59 21.5 -111t58.5 -89.5t88.5 -59.5t110.5 -22zM409 100q-89 0 -146 56.5t-57 155.5q0 51 15.5 91.5t43 68t64.5 42t79 14.5q74 0 119.5 -40.5t56.5 -100.5l-113 -26q-6 19 -22 31.5
t-43 12.5q-37 0 -57 -25.5t-20 -67.5q0 -40 20.5 -64.5t57.5 -24.5q26 0 42 12t22 28l113 -24q-8 -59 -55 -99t-120 -40z" />
    <glyph glyph-name="copyright.pnum_lnum" horiz-adv-x="804" 
d="M402 -10q-74 0 -138.5 27t-111.5 73.5t-74.5 110.5t-27.5 138t27.5 138.5t74.5 111.5t111.5 74t138.5 27t138.5 -27t111.5 -74t74.5 -111.5t27.5 -138.5t-27.5 -138t-74.5 -110.5t-111.5 -73.5t-138.5 -27zM402 57q59 0 110 22t88.5 59.5t59 89.5t21.5 111
q0 60 -21.5 112t-59 90t-88.5 60t-110 22t-110.5 -22t-88.5 -60t-58.5 -90t-21.5 -112q0 -59 21.5 -111t58.5 -89.5t88.5 -59.5t110.5 -22zM409 126q-89 0 -146 56.5t-57 155.5q0 51 15.5 91.5t43 68t64.5 42t79 14.5q74 0 119.5 -40.5t56.5 -100.5l-113 -26q-6 19 -22 31.5
t-43 12.5q-37 0 -57 -25.5t-20 -67.5q0 -40 20.5 -64.5t57.5 -24.5q26 0 42 12t22 28l113 -24q-8 -59 -55 -99t-120 -40z" />
    <glyph glyph-name="registered" unicode="&#xae;" horiz-adv-x="546" 
d="M273 224q-49 0 -92 18t-74 49t-49 74t-18 92t18 92t49 74t74 49t92 18t92 -18t74 -49t49 -74t18 -92t-18 -92t-49 -74t-74 -49t-92 -18zM273 275q77 0 127 52.5t50 129.5t-50 129.5t-127 52.5t-127 -52.5t-50 -129.5t50 -129.5t127 -52.5zM164 343v230h125q51 0 77 -19.5
t26 -59.5q0 -29 -11.5 -47t-35.5 -26l54 -78h-92l-43 70h-16v-70h-84zM279 513h-31v-44h31q16 0 23 5.5t7 16.5t-7 16.5t-23 5.5z" />
    <glyph glyph-name="trademark" unicode="&#x2122;" horiz-adv-x="836" 
d="M26 578v102h314v-102h-100v-218h-114v218h-100zM370 360v320h147l63 -160l63 160h143v-320h-106v177l-61 -147h-82l-61 147v-177h-106z" />
    <glyph glyph-name="uni2113" unicode="&#x2113;" horiz-adv-x="524" 
d="M401 143v-143h-109q-92 0 -139 41.5t-49 147.5q-12 -4 -25 -9t-29 -11l-38 108q29 10 51 19t41 19v178q0 52 15.5 89.5t42.5 61t63 35t77 11.5q81 0 124 -43t43 -119q0 -100 -59 -172.5t-154 -117.5v-36q0 -34 15 -46.5t45 -12.5h85zM256 496v-116q43 31 59 69t16 77
q0 17 -7.5 29.5t-23.5 12.5q-21 0 -32.5 -17.5t-11.5 -54.5z" />
    <glyph glyph-name="estimated" unicode="&#x212e;" horiz-adv-x="772" 
d="M709 192q-34 -93 -116.5 -147.5t-192.5 -54.5q-73 0 -137 25t-111 71.5t-74.5 113.5t-27.5 150q0 78 26 141t71.5 107t109 68t137.5 24q69 0 129 -23t104 -64t69.5 -98.5t25.5 -125.5v-55h-562v-155q37 -58 99.5 -91t141.5 -33q87 0 151.5 39t94.5 108h62zM394 635
q-76 0 -136.5 -30.5t-97.5 -84.5v-141h458v150q-35 49 -93 77.5t-131 28.5z" />
    <glyph glyph-name="uni2610" unicode="&#x2610;" horiz-adv-x="891" 
d="M90 -30v731h711v-731h-711zM135 14h621v643h-621v-643z" />
    <glyph glyph-name="uni2611" unicode="&#x2611;" horiz-adv-x="891" 
d="M187 460l128 60l133 -230l265 509l129 -61l-345 -652h-91zM581 657h-446v-643h621v497h45v-541h-711v731h491v-44z" />
    <glyph glyph-name="uni2713" unicode="&#x2713;" horiz-adv-x="755" 
d="M50 364l128 60l133 -230l265 509l129 -61l-345 -652h-91z" />
    <glyph glyph-name="zero" unicode="0" horiz-adv-x="722" 
d="M361 -10q-151 0 -238 86.5t-87 263.5q0 173 87 261.5t238 88.5q152 0 238.5 -88.5t86.5 -261.5q0 -177 -86.5 -263.5t-238.5 -86.5zM361 150q63 0 101 41.5t38 148.5q0 108 -38 149t-101 41t-101 -41t-38 -149q0 -107 38 -148.5t101 -41.5z" />
    <glyph glyph-name="zero.zero" horiz-adv-x="722" 
d="M361 -11q-151 0 -238 86.5t-87 263.5q0 173 87 261.5t238 88.5q152 0 238.5 -88.5t86.5 -261.5q0 -177 -86.5 -263.5t-238.5 -86.5zM212 339q0 -28 3 -52t9 -43l178 287q-10 3 -20.5 4t-20.5 1q-63 0 -106 -44.5t-43 -152.5zM361 141q63 0 106 45.5t43 152.5
q0 30 -3.5 55t-10.5 44l-179 -291q10 -3 21.5 -4.5t22.5 -1.5z" />
    <glyph glyph-name="one" unicode="1" horiz-adv-x="571" 
d="M48 156h186v338l-127 -85l-91 133l193 138h200v-524h154v-156h-515v156z" />
    <glyph glyph-name="two" unicode="2" horiz-adv-x="640" 
d="M414 461q0 33 -25.5 53t-74.5 20q-44 0 -74 -23.5t-40 -76.5l-178 35q17 98 89 159.5t214 61.5q134 0 204.5 -60t70.5 -164q0 -81 -45.5 -129.5t-124.5 -99.5l-112 -72h282v-165h-567v154l266 173q66 43 90.5 69.5t24.5 64.5z" />
    <glyph glyph-name="three" unicode="3" horiz-adv-x="663" 
d="M322 -10q-140 0 -210 55.5t-87 142.5l177 35q8 -35 36.5 -56t90.5 -21q64 0 92.5 19.5t28.5 51.5q0 38 -27.5 57t-92.5 19q-24 0 -48 -3.5t-46 -9.5l-44 122l186 123h-319v155h543v-164l-177 -114q41 -1 78 -11t65 -31.5t45 -56.5t17 -85q0 -108 -81 -168t-227 -60z" />
    <glyph glyph-name="four" unicode="4" horiz-adv-x="677" 
d="M572 0h-166v132h-376v176l280 372h262v-398h77v-150h-77v-132zM199 282h207v272z" />
    <glyph glyph-name="five" unicode="5" horiz-adv-x="667" 
d="M575 520h-340l-9 -103q31 15 67.5 21.5t76.5 6.5q119 0 188 -51.5t69 -167.5q0 -112 -72 -174t-214 -62q-144 0 -214.5 51t-89.5 138l175 35q10 -33 38.5 -51t85.5 -18q66 0 88.5 22t22.5 59q0 36 -27 57t-90 21q-34 0 -60 -8.5t-52 -24.5l-160 46l31 363h486v-160z" />
    <glyph glyph-name="six" unicode="6" horiz-adv-x="686" 
d="M644 223q0 -110 -72.5 -171.5t-211.5 -61.5q-155 0 -234.5 79t-79.5 256q0 190 79 277.5t233 87.5q114 0 185 -44t99 -144l-170 -33q-11 36 -39 52t-74 16q-74 0 -107 -41t-37 -122q25 26 65 44t104 18q128 0 194 -51.5t66 -161.5zM352 294q-57 0 -83 -18t-26 -55
q0 -38 25 -57t87 -19q59 0 83.5 19t24.5 55t-24 55.5t-87 19.5z" />
    <glyph glyph-name="seven" unicode="7" horiz-adv-x="614" 
d="M93 0l304 520h-367v160h554v-188l-282 -492h-209z" />
    <glyph glyph-name="eight" unicode="8" horiz-adv-x="698" 
d="M650 204q0 -101 -71 -157.5t-226 -56.5q-162 0 -233.5 53.5t-71.5 152.5q0 59 28 96t78 54q-54 20 -74 57.5t-20 80.5q0 95 69.5 150.5t223.5 55.5t220.5 -52.5t66.5 -143.5q0 -54 -25.5 -90t-77.5 -54q54 -16 83.5 -54t29.5 -92zM354 414q63 0 88.5 18t25.5 47
q0 28 -26 44t-90 16q-65 0 -93 -15.5t-28 -45.5q0 -34 28.5 -49t94.5 -15zM351 278q-67 0 -95.5 -17t-28.5 -51q0 -36 28.5 -52.5t94.5 -16.5q69 1 95.5 18.5t26.5 50.5t-26.5 51t-94.5 17z" />
    <glyph glyph-name="nine" unicode="9" horiz-adv-x="686" 
d="M42 457q0 110 72.5 171.5t211.5 61.5q155 0 234.5 -79t79.5 -256q0 -190 -79 -277.5t-233 -87.5q-114 0 -185 44t-99 144l170 33q11 -36 39 -52t74 -16q74 0 107 41t37 122q-25 -26 -65 -44t-104 -18q-128 0 -194 51.5t-66 161.5zM334 386q57 0 83 18t26 55q0 38 -25 57
t-87 19q-59 0 -83.5 -19t-24.5 -55t24 -55.5t87 -19.5z" />
    <glyph glyph-name="zero.tnum_lnum" horiz-adv-x="650" 
d="M325 -10q-146 0 -227.5 86.5t-81.5 263.5q0 173 81.5 261.5t227.5 88.5q147 0 228 -88.5t81 -261.5q0 -177 -81 -263.5t-228 -86.5zM325 150q59 0 91 41.5t32 148.5q0 108 -32 149t-91 41q-58 0 -90.5 -41t-32.5 -149q0 -107 32.5 -148.5t90.5 -41.5z" />
    <glyph glyph-name="zero.tnum_lnum_zero" horiz-adv-x="650" 
d="M325 -10q-146 0 -227.5 86.5t-81.5 263.5q0 173 81.5 261.5t227.5 88.5q147 0 228 -88.5t81 -261.5q0 -177 -81 -263.5t-228 -86.5zM190 340q0 -28 3 -51.5t8 -42.5l174 282q-11 4 -24 6.5t-26 2.5q-58 0 -96.5 -44.5t-38.5 -152.5zM325 143q59 0 97 45t38 152
q0 22 -1.5 41.5t-5.5 35.5l-165 -269q8 -2 17.5 -3.5t19.5 -1.5z" />
    <glyph glyph-name="one.tnum_lnum" horiz-adv-x="650" 
d="M62 160h217v331l-166 -111l-91 130l237 170h195v-520h179v-160h-571v160z" />
    <glyph glyph-name="two.tnum_lnum" horiz-adv-x="650" 
d="M424 461q0 33 -25.5 53t-74.5 20q-44 0 -74 -23.5t-40 -76.5l-178 35q17 98 89 159.5t214 61.5q134 0 204.5 -60t70.5 -164q0 -81 -45.5 -129.5t-124.5 -99.5l-112 -72h282v-165h-567v154l266 173q66 43 90.5 69.5t24.5 64.5z" />
    <glyph glyph-name="three.tnum_lnum" horiz-adv-x="650" 
d="M318 -10q-140 0 -210 55.5t-87 142.5l177 35q8 -35 36.5 -56t90.5 -21q64 0 92.5 19.5t28.5 51.5q0 38 -27.5 57t-92.5 19q-24 0 -48 -3.5t-46 -9.5l-44 122l186 123h-319v155h543v-164l-177 -114q41 -1 78 -11t65 -31.5t45 -56.5t17 -85q0 -108 -81 -168t-227 -60z" />
    <glyph glyph-name="four.tnum_lnum" horiz-adv-x="650" 
d="M561 0h-166v132h-373v176l270 372h269v-398h70v-150h-70v-132zM189 282h206v278z" />
    <glyph glyph-name="five.tnum_lnum" horiz-adv-x="650" 
d="M568 520h-340l-9 -103q31 15 67.5 21.5t76.5 6.5q119 0 188 -51.5t69 -167.5q0 -112 -72 -174t-214 -62q-144 0 -214.5 51t-89.5 138l175 35q10 -33 38.5 -51t85.5 -18q66 0 88.5 22t22.5 59q0 36 -27 57t-90 21q-34 0 -60 -8.5t-52 -24.5l-160 46l31 363h486v-160z" />
    <glyph glyph-name="six.tnum_lnum" horiz-adv-x="650" 
d="M626 223q0 -110 -72.5 -171.5t-211.5 -61.5q-155 0 -234.5 79t-79.5 256q0 190 79 277.5t233 87.5q114 0 185 -44t99 -144l-170 -33q-11 36 -39 52t-74 16q-74 0 -107 -41t-37 -122q25 26 65 44t104 18q128 0 194 -51.5t66 -161.5zM334 294q-57 0 -83 -18t-26 -55
q0 -38 25 -57t87 -19q59 0 83.5 19t24.5 55t-24 55.5t-87 19.5z" />
    <glyph glyph-name="seven.tnum_lnum" horiz-adv-x="650" 
d="M102 0l323 520h-386v160h574v-188l-302 -492h-209z" />
    <glyph glyph-name="eight.tnum_lnum" horiz-adv-x="650" 
d="M627 204q0 -101 -71 -157.5t-226 -56.5q-162 0 -233.5 53.5t-71.5 152.5q0 59 28 96t78 54q-54 20 -74 57.5t-20 80.5q0 95 69.5 150.5t223.5 55.5t220.5 -52.5t66.5 -143.5q0 -54 -25.5 -90t-77.5 -54q54 -16 83.5 -54t29.5 -92zM331 414q63 0 88.5 18t25.5 47
q0 28 -26 44t-90 16q-65 0 -93 -15.5t-28 -45.5q0 -34 28.5 -49t94.5 -15zM328 278q-67 0 -95.5 -16.5t-28.5 -50.5q0 -36 28.5 -53t94.5 -17q69 0 95.5 18.5t26.5 51.5t-26.5 50t-94.5 17z" />
    <glyph glyph-name="nine.tnum_lnum" horiz-adv-x="650" 
d="M28 457q0 110 72.5 171.5t211.5 61.5q155 0 234.5 -79t79.5 -256q0 -190 -79 -277.5t-233 -87.5q-114 0 -185 44t-99 144l170 33q11 -36 39 -52t74 -16q74 0 107 41t37 122q-25 -26 -65 -44t-104 -18q-128 0 -194 51.5t-66 161.5zM320 386q57 0 83 18t26 55q0 38 -25 57
t-87 19q-59 0 -83.5 -19t-24.5 -55t24 -55.5t87 -19.5z" />
    <glyph glyph-name="plus" unicode="+" horiz-adv-x="650" 
d="M253 65v183h-181v140h181v183h144v-183h181v-140h-181v-183h-144z" />
    <glyph glyph-name="minus" unicode="&#x2212;" horiz-adv-x="650" 
d="M88 390h475v-144h-475v144z" />
    <glyph glyph-name="plusminus" unicode="&#xb1;" horiz-adv-x="650" 
d="M253 205v153h-181v140h181v153h144v-153h181v-140h-181v-153h-144zM88 144h475v-144h-475v144z" />
    <glyph glyph-name="divide" unicode="&#xf7;" horiz-adv-x="650" 
d="M246 452v160h158v-160h-158zM72 390h506v-144h-506v144zM246 26v158h158v-158h-158z" />
    <glyph glyph-name="multiply" unicode="&#xd7;" horiz-adv-x="650" 
d="M76 169l149 149l-149 149l100 100l149 -149l149 149l100 -100l-149 -149l149 -149l-100 -100l-149 149l-149 -149z" />
    <glyph glyph-name="equal" unicode="=" horiz-adv-x="650" 
d="M88 514h475v-144h-475v144zM88 267h475v-144h-475v144z" />
    <glyph glyph-name="less" unicode="&#x3c;" horiz-adv-x="650" 
d="M565 200v-158l-480 201v152l480 203v-158l-292 -121z" />
    <glyph glyph-name="greater" unicode="&#x3e;" horiz-adv-x="650" 
d="M85 440v158l480 -201v-152l-480 -203v158l292 121z" />
    <glyph glyph-name="lessequal" unicode="&#x2264;" horiz-adv-x="650" 
d="M565 328v-154l-480 151v172l480 153v-154l-286 -85zM85 144h480v-144h-480v144z" />
    <glyph glyph-name="greaterequal" unicode="&#x2265;" horiz-adv-x="650" 
d="M85 328v-154l480 151v172l-480 153v-154l286 -85zM565 144h-480v-144h480v144z" />
    <glyph glyph-name="approxequal" unicode="&#x2248;" horiz-adv-x="650" 
d="M224 549q26 0 52 -7.5t50 -17t46 -17t39 -7.5q24 0 33.5 15t10.5 34h142q0 -42 -10 -78.5t-30.5 -63.5t-52 -42.5t-72.5 -15.5q-26 0 -51 7.5t-49.5 17t-47.5 17t-44 7.5q-22 0 -33 -15t-13 -34h-142q0 41 10.5 78t31.5 64t53.5 42.5t76.5 15.5zM224 287q26 0 52 -7.5
t50 -17t46 -17t39 -7.5q24 0 33.5 15t10.5 34h142q0 -42 -9.5 -78.5t-29 -63.5t-51 -42.5t-75.5 -15.5q-24 0 -49 7.5t-49.5 17t-48.5 17t-45 7.5q-22 0 -33 -15t-13 -34h-142q0 41 10.5 78t31.5 64t53.5 42.5t76.5 15.5z" />
    <glyph glyph-name="notequal" unicode="&#x2260;" horiz-adv-x="650" 
d="M121 30l48 98h-81v140h149l51 107h-200v140h268l48 98h137l-48 -98h70v-140h-138l-51 -107h189v-140h-257l-48 -98h-137z" />
    <glyph glyph-name="infinity" unicode="&#x221e;" horiz-adv-x="796" 
d="M742 295q0 -28 -10.5 -59.5t-32 -58t-55.5 -44t-80 -17.5q-29 0 -54 9.5t-45.5 23.5t-37 31t-29.5 33q-12 -15 -29 -32.5t-37.5 -31.5t-46 -23.5t-54.5 -9.5q-47 0 -80.5 17.5t-55 44t-31.5 58t-10 59.5t9 61t30 60.5t55.5 46t84.5 18.5t92 -28t73 -65q36 40 75 66.5
t89 26.5q52 0 87 -18.5t55.5 -46t29 -60.5t8.5 -61zM181 300q0 -28 16.5 -41.5t42.5 -13.5q25 0 47 19.5t33 35.5q-19 24 -40 38t-40 14q-34 0 -46.5 -18t-12.5 -34zM559 352q-22 0 -42 -13t-41 -39q16 -21 37 -38t46 -17q23 0 39.5 13.5t16.5 41.5q0 16 -12.5 34t-43.5 18z
" />
    <glyph glyph-name="logicalnot" unicode="&#xac;" horiz-adv-x="650" 
d="M68 430h515v-287h-144v143h-371v144z" />
    <glyph glyph-name="asciicircum" unicode="^" horiz-adv-x="628" 
d="M409 680l186 -375h-168l-112 242l-110 -242h-168l184 375h188z" />
    <glyph glyph-name="asciitilde" unicode="~" horiz-adv-x="649" 
d="M612 436q0 -46 -11.5 -85.5t-33.5 -68.5t-54.5 -45.5t-73.5 -16.5q-24 0 -51.5 8.5t-54 18t-50.5 18t-42 8.5q-33 0 -46 -14.5t-17 -38.5h-141q0 46 11.5 85.5t33.5 68.5t54.5 45.5t73.5 16.5q24 0 51.5 -8.5t54 -18t50.5 -18t42 -8.5q33 0 46 14.5t17 38.5h141z" />
    <glyph glyph-name="currency" unicode="&#xa4;" horiz-adv-x="680" 
d="M130 33l-99 99l111 111q-10 21 -15 46t-5 53t5 53t15 46l-111 111l99 99l114 -114q22 8 46 12.5t50 4.5t50 -4.5t45 -13.5l115 115l99 -99l-114 -114q9 -20 13.5 -44.5t4.5 -51.5t-4.5 -51t-13.5 -45l114 -114l-99 -99l-115 115q-21 -9 -45 -13.5t-50 -4.5t-50 4.5
t-46 12.5zM249 342q0 -43 25 -65.5t66 -22.5q40 0 63 23t23 65t-23 65.5t-63 23.5q-41 0 -66 -23t-25 -66z" />
    <glyph glyph-name="dollar" unicode="$" horiz-adv-x="650" 
d="M20 195l175 20q7 -27 28 -45t54 -25v122q-128 16 -185 65t-57 144q0 96 66 150t176 62v92h100v-93q112 -10 168.5 -62t70.5 -137l-171 -16q-7 22 -23.5 38.5t-44.5 23.5v-119q129 -18 185.5 -69.5t56.5 -141.5q0 -97 -64 -149t-178 -62v-93h-100v91q-116 7 -180 57.5
t-77 146.5zM209 484q0 -20 14 -32.5t54 -21.5v108q-34 -4 -51 -18t-17 -36zM445 195q0 20 -12.5 33.5t-55.5 23.5v-109q35 4 51.5 17.5t16.5 34.5z" />
    <glyph glyph-name="cent" unicode="&#xa2;" horiz-adv-x="650" 
d="M282 0v93q-105 13 -166 78t-61 176q0 108 61.5 175t165.5 80v93h95v-92q102 -9 153 -59t65 -122l-149 -31q-7 26 -24 46t-45 29v-236q31 8 47.5 28t20.5 42l152 -20q-11 -77 -65.5 -128t-154.5 -60v-92h-95zM220 349q0 -43 16.5 -71.5t45.5 -41.5v224q-28 -13 -45 -41
t-17 -70z" />
    <glyph glyph-name="sterling" unicode="&#xa3;" horiz-adv-x="650" 
d="M482 243h-155q-3 -27 -14 -53t-30 -44h315v-146h-527v146q44 7 65 35t23 62h-114v106h84q-16 30 -30.5 63t-14.5 73q0 95 70 150t188 55q115 0 176 -48.5t74 -129.5l-172 -28q-2 22 -20.5 41t-58.5 19q-37 0 -58 -19t-21 -51q0 -37 16 -65.5t30 -59.5h174v-106z" />
    <glyph glyph-name="yen" unicode="&#xa5;" horiz-adv-x="650" 
d="M237 0v81h-142v106h142v40h-142v106h99l-185 347h206l113 -235l112 235h201l-185 -347h99v-106h-142v-40h142v-106h-142v-81h-176z" />
    <glyph glyph-name="franc" unicode="&#x20a3;" horiz-adv-x="650" 
d="M40 0v680h444v-155h-267v-102h262v-56q22 31 52 48.5t64 17.5h25v-152h-40q-45 0 -70.5 -24t-25.5 -61v-196h-158v262h-109v-262h-177z" />
    <glyph glyph-name="lira" unicode="&#x20a4;" horiz-adv-x="650" 
d="M492 194h-167q-6 -13 -14 -25.5t-18 -22.5h315v-146h-527v146q28 4 46 17t28 31h-100v106h107q-4 11 -9.5 23t-12.5 23h-85v106h42q-1 7 -2 15.5t-1 17.5q0 95 70 150t188 55q115 0 176 -48.5t74 -129.5l-172 -28q-2 22 -20.5 41t-58.5 19q-37 0 -58 -19t-21 -51
q0 -6 0.5 -11.5t1.5 -10.5h218v-106h-172q4 -10 8.5 -21.5t6.5 -24.5h157v-106z" />
    <glyph glyph-name="Euro" unicode="&#x20ac;" horiz-adv-x="650" 
d="M13 222v96h54v10.5v11.5v12v12h-54v96h66q24 114 96.5 172t182.5 58q113 0 176 -55t75 -159l-163 -20q-7 34 -27.5 53.5t-60.5 19.5q-34 0 -56 -17t-34 -52h145v-96h-159v-12v-12v-11.5v-10.5h160v-96h-148q10 -36 32.5 -53.5t59.5 -17.5q39 0 60 19t28 52l163 -18
q-15 -107 -78 -160.5t-170 -53.5q-119 0 -190.5 59.5t-93.5 172.5h-64z" />
    <glyph glyph-name="uni20BD" unicode="&#x20bd;" horiz-adv-x="650" 
d="M375 250h-95v-39h195v-112h-195v-99h-170v99h-74v112h74v39h-74v135h74v295h264q117 0 183 -50.5t66 -164.5q0 -111 -67 -163t-181 -52zM280 545v-160h85q52 0 72.5 22t20.5 57q0 38 -20.5 59.5t-71.5 21.5h-86z" />
    <glyph glyph-name="uni20B4" unicode="&#x20b4;" horiz-adv-x="650" 
d="M587 168q-12 -76 -71.5 -126.5t-181.5 -50.5q-54 0 -100.5 10t-80 32t-52.5 56.5t-19 83.5q0 13 1.5 25t5.5 23h-52v98h131q9 7 19.5 12.5t20.5 10.5q11 5 22 10.5l21 10.5h-214v98h360q3 7 4.5 14t1.5 15q0 28 -17.5 44.5t-54.5 16.5q-36 0 -57 -15.5t-30 -41.5l-171 19
q16 86 84 131.5t178 45.5t172.5 -48.5t63.5 -133.5q0 -13 -1.5 -24.5t-4.5 -22.5h47v-98h-125q-11 -7 -24 -15t-27 -15q-7 -4 -14 -7t-14 -7h204v-98h-349q-3 -7 -4.5 -14t-1.5 -15q0 -31 21.5 -46.5t57.5 -15.5q37 0 57.5 15t26.5 39z" />
    <glyph glyph-name="uni20B8" unicode="&#x20b8;" horiz-adv-x="650" 
d="M595 574h-540v106h540v-106zM55 376v154h540v-154h-182v-376h-176v376h-182z" />
    <glyph glyph-name="arrowleft" unicode="&#x2190;" horiz-adv-x="800" 
d="M85 387l278 278l100 -100l-161 -162h463v-159h-463l161 -160l-102 -102l-276 278v127z" />
    <glyph glyph-name="arrowup" unicode="&#x2191;" horiz-adv-x="800" 
d="M320 0v463l-162 -161l-100 100l278 278h127l278 -276l-102 -102l-160 161v-463h-159z" />
    <glyph glyph-name="arrowright" unicode="&#x2192;" horiz-adv-x="800" 
d="M35 403h463l-161 162l100 100l278 -278v-127l-276 -278l-102 102l161 160h-463v159z" />
    <glyph glyph-name="arrowdown" unicode="&#x2193;" horiz-adv-x="800" 
d="M336 0l-278 278l100 100l162 -161v463h159v-463l160 161l102 -102l-278 -276h-127z" />
    <glyph glyph-name="uni2196" unicode="&#x2196;" horiz-adv-x="800" 
d="M195 608h413v-139h-252l364 -360l-111 -111l-363 359v-250h-141v411z" />
    <glyph glyph-name="uni2197" unicode="&#x2197;" horiz-adv-x="800" 
d="M80 109l364 360h-252v139h413l90 -90v-411h-141v250l-363 -359z" />
    <glyph glyph-name="uni2198" unicode="&#x2198;" horiz-adv-x="800" 
d="M80 517l111 111l363 -359v250h141v-411l-90 -90h-413v139h252z" />
    <glyph glyph-name="uni2199" unicode="&#x2199;" horiz-adv-x="800" 
d="M195 18l-90 90v411h141v-250l363 359l111 -111l-364 -360h252v-139h-413z" />
    <glyph glyph-name="onequarter" unicode="&#xbc;" horiz-adv-x="950" 
d="M65 316v94h96v157l-81 -54l-57 77l132 90h124v-270h90v-94h-304zM340 0h-90l406 680h89zM884 0h-115v67h-213v96l157 201h171v-211h37v-86h-37v-67zM669 153h100v128z" />
    <glyph glyph-name="onehalf" unicode="&#xbd;" horiz-adv-x="950" 
d="M49 316v94h96v157l-81 -54l-57 77l132 90h124v-270h90v-94h-304zM318 0h-90l406 680h89zM773 244q0 13 -11.5 22t-33.5 9q-26 0 -42 -12.5t-21 -34.5l-110 21q14 61 59 90.5t120 29.5t115.5 -30.5t40.5 -87.5q0 -48 -25.5 -73t-70.5 -53l-50 -31h150v-95h-329v88l165 107
q24 16 33.5 26.5t9.5 23.5z" />
    <glyph glyph-name="threequarters" unicode="&#xbe;" horiz-adv-x="950" 
d="M224 402q28 0 42 8t14 25q0 16 -14.5 25t-43.5 9q-13 0 -25.5 -1.5t-25.5 -4.5l-26 69l104 60h-182v88h314v-96l-93 -54q44 0 75.5 -24t31.5 -71q0 -62 -46 -93t-127 -31q-75 0 -117 25.5t-56 78.5l110 22q4 -15 20 -25t45 -10zM337 0h-90l406 680h89zM884 0h-115v67
h-213v96l157 201h171v-211h37v-86h-37v-67zM669 153h100v128z" />
    <glyph glyph-name="uni2153" unicode="&#x2153;" horiz-adv-x="950" 
d="M85 316v94h96v157l-81 -54l-57 77l132 90h124v-270h90v-94h-304zM326 0h-90l406 680h89zM735 84q28 0 42 8t14 25q0 16 -14.5 25t-43.5 9q-13 0 -25.5 -1.5t-25.5 -4.5l-26 69l104 60h-182v88h314v-96l-93 -54q44 0 75.5 -24t31.5 -71q0 -62 -46 -93t-127 -31
q-75 0 -117 25.5t-56 78.5l110 22q4 -15 20 -25t45 -10z" />
    <glyph glyph-name="uni2154" unicode="&#x2154;" horiz-adv-x="950" 
d="M259 560q0 13 -11.5 22t-33.5 9q-26 0 -42 -12.5t-21 -34.5l-110 21q14 61 59 90.5t120 29.5t115.5 -30.5t40.5 -87.5q0 -48 -25.5 -73t-70.5 -53l-50 -31h150v-95h-329v88l165 107q24 16 33.5 26.5t9.5 23.5zM326 0h-90l406 680h89zM750 84q28 0 42 8t14 25
q0 16 -14.5 25t-43.5 9q-13 0 -25.5 -1.5t-25.5 -4.5l-26 69l104 60h-182v88h314v-96l-93 -54q44 0 75.5 -24t31.5 -71q0 -62 -46 -93t-127 -31q-75 0 -117 25.5t-56 78.5l110 22q4 -15 20 -25t45 -10z" />
    <glyph glyph-name="oneeighth" unicode="&#x215b;" horiz-adv-x="950" 
d="M80 316v94h96v157l-81 -54l-57 77l132 90h124v-270h90v-94h-304zM333 0h-90l406 680h89zM918 103q0 -50 -47.5 -80.5t-133.5 -30.5q-93 0 -137 29.5t-44 82.5q0 31 15 51t43 29q-31 12 -40.5 33.5t-9.5 43.5q0 49 40.5 78.5t132.5 29.5t132.5 -29.5t40.5 -78.5
q0 -30 -14 -48.5t-45 -28.5q31 -9 49 -30.5t18 -50.5zM737 224q34 0 47.5 7.5t13.5 23.5q0 13 -13.5 21t-47.5 8q-32 0 -46.5 -7.5t-14.5 -21.5q0 -16 14.5 -23.5t46.5 -7.5zM737 143q-31 0 -47.5 -8t-16.5 -24t16 -25t48 -9q31 0 47.5 8.5t16.5 25.5q0 16 -16.5 24t-47.5 8
z" />
    <glyph glyph-name="threeeighths" unicode="&#x215c;" horiz-adv-x="950" 
d="M220 402q28 0 42 8t14 25q0 16 -14.5 25t-43.5 9q-13 0 -25.5 -1.5t-25.5 -4.5l-26 69l104 60h-182v88h314v-96l-93 -54q44 0 75.5 -24t31.5 -71q0 -62 -46 -93t-127 -31q-75 0 -117 25.5t-56 78.5l110 22q4 -15 20 -25t45 -10zM313 0h-90l406 680h89zM918 103
q0 -50 -47.5 -80.5t-133.5 -30.5q-93 0 -137 29.5t-44 82.5q0 31 15 51t43 29q-31 12 -40.5 33.5t-9.5 43.5q0 49 40.5 78.5t132.5 29.5t132.5 -29.5t40.5 -78.5q0 -30 -14 -48.5t-45 -28.5q31 -9 49 -30.5t18 -50.5zM737 224q34 0 47.5 7.5t13.5 23.5q0 13 -13.5 21
t-47.5 8q-32 0 -46.5 -7.5t-14.5 -21.5q0 -16 14.5 -23.5t46.5 -7.5zM737 143q-31 0 -47.5 -8t-16.5 -24t16 -25t48 -9q31 0 47.5 8.5t16.5 25.5q0 16 -16.5 24t-47.5 8z" />
    <glyph glyph-name="fiveeighths" unicode="&#x215d;" horiz-adv-x="950" 
d="M224 311q-75 0 -117.5 25.5t-57.5 78.5l110 22q4 -15 20 -25t45 -10q28 0 42 9.5t14 26.5q0 19 -14.5 28.5t-41.5 9.5q-19 0 -31.5 -4t-20.5 -9l-109 26l12 191h294v-92h-196l-4 -45q17 7 37 10.5t44 3.5q60 0 102.5 -26t42.5 -87q0 -63 -42 -98t-129 -35zM318 0h-90
l406 680h89zM921 103q0 -50 -47.5 -80.5t-133.5 -30.5q-93 0 -137 29.5t-44 82.5q0 31 15 51t43 29q-31 12 -40.5 33.5t-9.5 43.5q0 49 40.5 78.5t132.5 29.5t132.5 -29.5t40.5 -78.5q0 -30 -14 -48.5t-45 -28.5q31 -9 49 -30.5t18 -50.5zM740 224q34 0 47.5 7.5t13.5 23.5
q0 13 -13.5 21t-47.5 8q-32 0 -46.5 -7.5t-14.5 -21.5q0 -16 14.5 -23.5t46.5 -7.5zM740 143q-31 0 -47.5 -8t-16.5 -24t16 -25t48 -9q31 0 47.5 8.5t16.5 25.5q0 16 -16.5 24t-47.5 8z" />
    <glyph glyph-name="seveneighths" unicode="&#x215e;" horiz-adv-x="950" 
d="M79 316l172 265h-199v99h327v-108l-159 -256h-141zM275 0h-90l406 680h89zM898 103q0 -50 -47.5 -80.5t-133.5 -30.5q-93 0 -137 29.5t-44 82.5q0 31 15 51t43 29q-31 12 -40.5 33.5t-9.5 43.5q0 49 40.5 78.5t132.5 29.5t132.5 -29.5t40.5 -78.5q0 -30 -14 -48.5
t-45 -28.5q31 -9 49 -30.5t18 -50.5zM717 224q34 0 47.5 7.5t13.5 23.5q0 13 -13.5 21t-47.5 8q-32 0 -46.5 -7.5t-14.5 -21.5q0 -16 14.5 -23.5t46.5 -7.5zM717 143q-31 0 -47.5 -8t-16.5 -24t16 -25t48 -9q31 0 47.5 8.5t16.5 25.5q0 16 -16.5 24t-47.5 8z" />
    <glyph glyph-name="uni2070" unicode="&#x2070;" 
d="M215 391q-83 0 -133.5 46t-50.5 140q0 93 50.5 140.5t133.5 47.5q84 0 134 -47.5t50 -140.5q0 -94 -50 -140t-134 -46zM215 488q28 0 45.5 17.5t17.5 71.5t-17.5 72.5t-45.5 18.5q-27 0 -45 -18.5t-18 -72.5t18 -71.5t45 -17.5z" />
    <glyph glyph-name="uni00B9" unicode="&#xb9;" 
d="M85 396v94h96v157l-81 -54l-57 77l132 90h124v-270h90v-94h-304z" />
    <glyph glyph-name="uni00B2" unicode="&#xb2;" 
d="M269 640q0 13 -11.5 22t-33.5 9q-26 0 -42 -12.5t-21 -34.5l-110 21q14 61 59 90.5t120 29.5t115.5 -30.5t40.5 -87.5q0 -48 -25.5 -73t-70.5 -53l-50 -31h150v-95h-329v88l165 107q24 16 33.5 26.5t9.5 23.5z" />
    <glyph glyph-name="uni00B3" unicode="&#xb3;" 
d="M220 482q28 0 42 8t14 25q0 16 -14.5 25t-43.5 9q-13 0 -25.5 -1.5t-25.5 -4.5l-26 69l104 60h-182v88h314v-96l-93 -54q44 0 75.5 -24t31.5 -71q0 -62 -46 -93t-127 -31q-75 0 -117 25.5t-56 78.5l110 22q4 -15 20 -25t45 -10z" />
    <glyph glyph-name="uni2074" unicode="&#x2074;" 
d="M364 396h-115v67h-213v96l157 201h171v-211h37v-86h-37v-67zM149 549h100v128z" />
    <glyph glyph-name="uni2075" unicode="&#x2075;" 
d="M228 391q-75 0 -117.5 25.5t-57.5 78.5l110 22q4 -15 20 -25t45 -10q28 0 42 9.5t14 26.5q0 19 -14.5 28.5t-41.5 9.5q-19 0 -31.5 -4t-20.5 -9l-109 26l12 191h294v-92h-196l-4 -45q17 7 37 10.5t44 3.5q60 0 102.5 -26t42.5 -87q0 -63 -42 -98t-129 -35z" />
    <glyph glyph-name="uni2076" unicode="&#x2076;" 
d="M225 391q-90 0 -137.5 42t-47.5 142q0 99 47.5 145t130.5 46q75 0 115.5 -23t56.5 -71l-111 -23q-7 14 -20.5 21.5t-37.5 7.5q-31 0 -50 -20.5t-19 -57.5q11 13 32.5 21.5t56.5 8.5q75 0 113 -27t38 -87q0 -59 -43.5 -92t-123.5 -33zM220 552q-24 0 -39.5 -8.5
t-15.5 -26.5t15.5 -26.5t39.5 -8.5q26 0 40.5 8.5t14.5 26.5t-14.5 26.5t-40.5 8.5z" />
    <glyph glyph-name="uni2077" unicode="&#x2077;" 
d="M74 396l172 265h-199v99h327v-108l-159 -256h-141z" />
    <glyph glyph-name="uni2078" unicode="&#x2078;" 
d="M398 500q0 -50 -47.5 -80.5t-133.5 -30.5q-93 0 -137 29.5t-44 82.5q0 31 15 51t43 29q-31 12 -40.5 33.5t-9.5 43.5q0 49 40.5 78.5t132.5 29.5t132.5 -29.5t40.5 -78.5q0 -30 -14 -48.5t-45 -28.5q31 -9 49 -30.5t18 -50.5zM217 621q34 0 47.5 7.5t13.5 23.5
q0 13 -13.5 21t-47.5 8q-32 0 -46.5 -7.5t-14.5 -21.5q0 -16 14.5 -23.5t46.5 -7.5zM217 540q-31 0 -47.5 -8t-16.5 -24t16 -25t48 -9q31 0 47.5 8.5t16.5 25.5q0 16 -16.5 24t-47.5 8z" />
    <glyph glyph-name="uni2079" unicode="&#x2079;" 
d="M211 391q-75 0 -115 23.5t-56 71.5l111 22q7 -13 22 -21t37 -8q31 0 49.5 20.5t18.5 57.5q-12 -13 -33.5 -21.5t-55.5 -8.5q-71 0 -111 27t-40 87q0 59 44 92t127 33q84 0 132.5 -41.5t48.5 -137.5q0 -102 -47.5 -149t-131.5 -47zM211 606q25 0 39.5 9t14.5 27t-14.5 26
t-39.5 8q-27 0 -41.5 -8t-14.5 -26t14.5 -27t41.5 -9z" />
    <glyph glyph-name="uni2080" unicode="&#x2080;" 
d="M215 -107q-83 0 -133.5 46t-50.5 140q0 93 50.5 140.5t133.5 47.5q84 0 134 -47.5t50 -140.5q0 -94 -50 -140t-134 -46zM215 -10q28 0 45.5 17.5t17.5 71.5t-17.5 72.5t-45.5 18.5q-27 0 -45 -18.5t-18 -72.5t18 -71.5t45 -17.5z" />
    <glyph glyph-name="uni2081" unicode="&#x2081;" 
d="M85 -100v94h96v157l-81 -54l-57 77l132 90h124v-270h90v-94h-304z" />
    <glyph glyph-name="uni2082" unicode="&#x2082;" 
d="M269 144q0 13 -11.5 22t-33.5 9q-26 0 -42 -12.5t-21 -34.5l-110 21q14 61 59 90.5t120 29.5t115.5 -30.5t40.5 -87.5q0 -48 -25.5 -73t-70.5 -53l-50 -31h150v-95h-329v88l165 107q24 16 33.5 26.5t9.5 23.5z" />
    <glyph glyph-name="uni2083" unicode="&#x2083;" 
d="M220 -16q28 0 42 8t14 25q0 16 -14.5 25t-43.5 9q-13 0 -25.5 -1.5t-25.5 -4.5l-26 69l104 60h-182v88h314v-96l-93 -54q44 0 75.5 -24t31.5 -71q0 -62 -46 -93t-127 -31q-75 0 -117 25.5t-56 78.5l110 22q4 -15 20 -25t45 -10z" />
    <glyph glyph-name="uni2084" unicode="&#x2084;" 
d="M364 -100h-115v67h-213v96l157 201h171v-211h37v-86h-37v-67zM149 53h100v128z" />
    <glyph glyph-name="uni2085" unicode="&#x2085;" 
d="M228 -107q-75 0 -117.5 25.5t-57.5 78.5l110 22q4 -15 20 -25t45 -10q28 0 42 9.5t14 26.5q0 19 -14.5 28.5t-41.5 9.5q-19 0 -31.5 -4t-20.5 -9l-109 26l12 191h294v-92h-196l-4 -45q17 7 37 10.5t44 3.5q60 0 102.5 -26t42.5 -87q0 -63 -42 -98t-129 -35z" />
    <glyph glyph-name="uni2086" unicode="&#x2086;" 
d="M225 -107q-90 0 -137.5 42t-47.5 142q0 99 47.5 145t130.5 46q75 0 115.5 -23t56.5 -71l-111 -23q-7 14 -20.5 21.5t-37.5 7.5q-31 0 -50 -20.5t-19 -57.5q11 13 32.5 21.5t56.5 8.5q75 0 113 -27t38 -87q0 -59 -43.5 -92t-123.5 -33zM220 54q-24 0 -39.5 -8.5
t-15.5 -26.5t15.5 -26.5t39.5 -8.5q26 0 40.5 8.5t14.5 26.5t-14.5 26.5t-40.5 8.5z" />
    <glyph glyph-name="uni2087" unicode="&#x2087;" 
d="M74 -100l172 265h-199v99h327v-108l-159 -256h-141z" />
    <glyph glyph-name="uni2088" unicode="&#x2088;" 
d="M398 3q0 -50 -47.5 -80.5t-133.5 -30.5q-93 0 -137 29.5t-44 82.5q0 31 15 51t43 29q-31 12 -40.5 33.5t-9.5 43.5q0 49 40.5 78.5t132.5 29.5t132.5 -29.5t40.5 -78.5q0 -30 -14 -48.5t-45 -28.5q31 -9 49 -30.5t18 -50.5zM217 124q34 0 47.5 7.5t13.5 23.5
q0 13 -13.5 21t-47.5 8q-32 0 -46.5 -7.5t-14.5 -21.5q0 -16 14.5 -23.5t46.5 -7.5zM217 43q-31 0 -47.5 -8t-16.5 -24t16 -25t48 -9q31 0 47.5 8.5t16.5 25.5q0 16 -16.5 24t-47.5 8z" />
    <glyph glyph-name="uni2089" unicode="&#x2089;" 
d="M211 -107q-75 0 -115 23.5t-56 71.5l111 22q7 -13 22 -21t37 -8q31 0 49.5 20.5t18.5 57.5q-12 -13 -33.5 -21.5t-55.5 -8.5q-71 0 -111 27t-40 87q0 59 44 92t127 33q84 0 132.5 -41.5t48.5 -137.5q0 -102 -47.5 -149t-131.5 -47zM211 108q25 0 39.5 9t14.5 27t-14.5 26
t-39.5 8q-27 0 -41.5 -8t-14.5 -26t14.5 -27t41.5 -9z" />
    <glyph glyph-name="zero.dnom" 
d="M215 -7q-83 0 -133.5 46t-50.5 140q0 93 50.5 140.5t133.5 47.5q84 0 134 -47.5t50 -140.5q0 -94 -50 -140t-134 -46zM215 90q28 0 45.5 17.5t17.5 71.5t-17.5 72.5t-45.5 18.5q-27 0 -45 -18.5t-18 -72.5t18 -71.5t45 -17.5z" />
    <glyph glyph-name="one.dnom" 
d="M85 0v94h96v157l-81 -54l-57 77l132 90h124v-270h90v-94h-304z" />
    <glyph glyph-name="two.dnom" 
d="M269 244q0 13 -11.5 22t-33.5 9q-26 0 -42 -12.5t-21 -34.5l-110 21q14 61 59 90.5t120 29.5t115.5 -30.5t40.5 -87.5q0 -48 -25.5 -73t-70.5 -53l-50 -31h150v-95h-329v88l165 107q24 16 33.5 26.5t9.5 23.5z" />
    <glyph glyph-name="three.dnom" 
d="M220 84q28 0 42 8t14 25q0 16 -14.5 25t-43.5 9q-13 0 -25.5 -1.5t-25.5 -4.5l-26 69l104 60h-182v88h314v-96l-93 -54q44 0 75.5 -24t31.5 -71q0 -62 -46 -93t-127 -31q-75 0 -117 25.5t-56 78.5l110 22q4 -15 20 -25t45 -10z" />
    <glyph glyph-name="four.dnom" 
d="M364 0h-115v67h-213v96l157 201h171v-211h37v-86h-37v-67zM149 153h100v128z" />
    <glyph glyph-name="five.dnom" 
d="M228 -7q-75 0 -117.5 25.5t-57.5 78.5l110 22q4 -15 20 -25t45 -10q28 0 42 9.5t14 26.5q0 19 -14.5 28.5t-41.5 9.5q-19 0 -31.5 -4t-20.5 -9l-109 26l12 191h294v-92h-196l-4 -45q17 7 37 10.5t44 3.5q60 0 102.5 -26t42.5 -87q0 -63 -42 -98t-129 -35z" />
    <glyph glyph-name="six.dnom" 
d="M225 -7q-90 0 -137.5 42t-47.5 142q0 99 47.5 145t130.5 46q75 0 115.5 -23t56.5 -71l-111 -23q-7 14 -20.5 21.5t-37.5 7.5q-31 0 -50 -20.5t-19 -57.5q11 13 32.5 21.5t56.5 8.5q75 0 113 -27t38 -87q0 -59 -43.5 -92t-123.5 -33zM220 154q-24 0 -39.5 -8.5
t-15.5 -26.5t15.5 -26.5t39.5 -8.5q26 0 40.5 8.5t14.5 26.5t-14.5 26.5t-40.5 8.5z" />
    <glyph glyph-name="seven.dnom" 
d="M74 0l172 265h-199v99h327v-108l-159 -256h-141z" />
    <glyph glyph-name="eight.dnom" 
d="M398 103q0 -50 -47.5 -80.5t-133.5 -30.5q-93 0 -137 29.5t-44 82.5q0 31 15 51t43 29q-31 12 -40.5 33.5t-9.5 43.5q0 49 40.5 78.5t132.5 29.5t132.5 -29.5t40.5 -78.5q0 -30 -14 -48.5t-45 -28.5q31 -9 49 -30.5t18 -50.5zM217 224q34 0 47.5 7.5t13.5 23.5
q0 13 -13.5 21t-47.5 8q-32 0 -46.5 -7.5t-14.5 -21.5q0 -16 14.5 -23.5t46.5 -7.5zM217 143q-31 0 -47.5 -8t-16.5 -24t16 -25t48 -9q31 0 47.5 8.5t16.5 25.5q0 16 -16.5 24t-47.5 8z" />
    <glyph glyph-name="nine.dnom" 
d="M211 -7q-75 0 -115 23.5t-56 71.5l111 22q7 -13 22 -21t37 -8q31 0 49.5 20.5t18.5 57.5q-12 -13 -33.5 -21.5t-55.5 -8.5q-71 0 -111 27t-40 87q0 59 44 92t127 33q84 0 132.5 -41.5t48.5 -137.5q0 -102 -47.5 -149t-131.5 -47zM211 208q25 0 39.5 9t14.5 27t-14.5 26
t-39.5 8q-27 0 -41.5 -8t-14.5 -26t14.5 -27t41.5 -9z" />
    <glyph glyph-name="zero.numr" 
d="M215 312q-83 0 -133.5 46t-50.5 140q0 93 50.5 140.5t133.5 47.5q84 0 134 -47.5t50 -140.5q0 -94 -50 -140t-134 -46zM215 409q28 0 45.5 17.5t17.5 71.5t-17.5 72.5t-45.5 18.5q-27 0 -45 -18.5t-18 -72.5t18 -71.5t45 -17.5z" />
    <glyph glyph-name="one.numr" 
d="M85 316v94h96v157l-81 -54l-57 77l132 90h124v-270h90v-94h-304z" />
    <glyph glyph-name="two.numr" 
d="M269 560q0 13 -11.5 22t-33.5 9q-26 0 -42 -12.5t-21 -34.5l-110 21q14 61 59 90.5t120 29.5t115.5 -30.5t40.5 -87.5q0 -48 -25.5 -73t-70.5 -53l-50 -31h150v-95h-329v88l165 107q24 16 33.5 26.5t9.5 23.5z" />
    <glyph glyph-name="three.numr" 
d="M220 402q28 0 42 8t14 25q0 16 -14.5 25t-43.5 9q-13 0 -25.5 -1.5t-25.5 -4.5l-26 69l104 60h-182v88h314v-96l-93 -54q44 0 75.5 -24t31.5 -71q0 -62 -46 -93t-127 -31q-75 0 -117 25.5t-56 78.5l110 22q4 -15 20 -25t45 -10z" />
    <glyph glyph-name="four.numr" 
d="M364 316h-115v67h-213v96l157 201h171v-211h37v-86h-37v-67zM149 469h100v128z" />
    <glyph glyph-name="five.numr" 
d="M228 311q-75 0 -117.5 25.5t-57.5 78.5l110 22q4 -15 20 -25t45 -10q28 0 42 9.5t14 26.5q0 19 -14.5 28.5t-41.5 9.5q-19 0 -31.5 -4t-20.5 -9l-109 26l12 191h294v-92h-196l-4 -45q17 7 37 10.5t44 3.5q60 0 102.5 -26t42.5 -87q0 -63 -42 -98t-129 -35z" />
    <glyph glyph-name="six.numr" 
d="M225 311q-90 0 -137.5 42t-47.5 142q0 99 47.5 145t130.5 46q75 0 115.5 -23t56.5 -71l-111 -23q-7 14 -20.5 21.5t-37.5 7.5q-31 0 -50 -20.5t-19 -57.5q11 13 32.5 21.5t56.5 8.5q75 0 113 -27t38 -87q0 -59 -43.5 -92t-123.5 -33zM220 472q-24 0 -39.5 -8.5
t-15.5 -26.5t15.5 -26.5t39.5 -8.5q26 0 40.5 8.5t14.5 26.5t-14.5 26.5t-40.5 8.5z" />
    <glyph glyph-name="seven.numr" 
d="M74 316l172 265h-199v99h327v-108l-159 -256h-141z" />
    <glyph glyph-name="eight.numr" 
d="M398 420q0 -50 -47.5 -80.5t-133.5 -30.5q-93 0 -137 29.5t-44 82.5q0 31 15 51t43 29q-31 12 -40.5 33.5t-9.5 43.5q0 49 40.5 78.5t132.5 29.5t132.5 -29.5t40.5 -78.5q0 -30 -14 -48.5t-45 -28.5q31 -9 49 -30.5t18 -50.5zM217 541q34 0 47.5 7.5t13.5 23.5
q0 13 -13.5 21t-47.5 8q-32 0 -46.5 -7.5t-14.5 -21.5q0 -16 14.5 -23.5t46.5 -7.5zM217 460q-31 0 -47.5 -8t-16.5 -24t16 -25t48 -9q31 0 47.5 8.5t16.5 25.5q0 16 -16.5 24t-47.5 8z" />
    <glyph glyph-name="nine.numr" 
d="M211 311q-75 0 -115 23.5t-56 71.5l111 22q7 -13 22 -21t37 -8q31 0 49.5 20.5t18.5 57.5q-12 -13 -33.5 -21.5t-55.5 -8.5q-71 0 -111 27t-40 87q0 59 44 92t127 33q84 0 132.5 -41.5t48.5 -137.5q0 -102 -47.5 -149t-131.5 -47zM211 526q25 0 39.5 9t14.5 27t-14.5 26
t-39.5 8q-27 0 -41.5 -8t-14.5 -26t14.5 -27t41.5 -9z" />
    <glyph glyph-name="uni2460" unicode="&#x2460;" horiz-adv-x="830" 
d="M415 720q83 0 153 -28.5t120 -78.5t78.5 -120t28.5 -153q0 -82 -28.5 -152t-78.5 -120.5t-120 -79t-153 -28.5t-153 28.5t-120 79t-78.5 120.5t-28.5 152q0 83 28.5 153t78.5 120t120 78.5t153 28.5zM415 639q-64 0 -118 -22.5t-92.5 -62.5t-60.5 -95t-22 -119
q0 -63 22 -118t60.5 -95t92.5 -63t118 -23t118 23t92.5 63t60.5 95t22 118q0 64 -22 119t-60.5 95t-92.5 62.5t-118 22.5zM268 136v94h107v229l-85 -54l-52 77l127 90h120v-342h95v-94h-312z" />
    <glyph glyph-name="uni2461" unicode="&#x2461;" horiz-adv-x="830" 
d="M415 720q83 0 153 -28.5t120 -78.5t78.5 -120t28.5 -153q0 -82 -28.5 -152t-78.5 -120.5t-120 -79t-153 -28.5t-153 28.5t-120 79t-78.5 120.5t-28.5 152q0 83 28.5 153t78.5 120t120 78.5t153 28.5zM415 639q-64 0 -118 -22.5t-92.5 -62.5t-60.5 -95t-22 -119
q0 -63 22 -118t60.5 -95t92.5 -63t118 -23t118 23t92.5 63t60.5 95t22 118q0 64 -22 119t-60.5 95t-92.5 62.5t-118 22.5zM464 437q0 19 -13.5 32t-37.5 13q-25 0 -44 -14.5t-26 -42.5l-104 20q10 62 55 98.5t122 36.5q75 0 117.5 -38t42.5 -95q0 -49 -21.5 -84.5
t-71.5 -74.5l-74 -58h173v-94h-331v90l143 115q37 30 53.5 50.5t16.5 45.5z" />
    <glyph glyph-name="uni2462" unicode="&#x2462;" horiz-adv-x="830" 
d="M415 720q83 0 153 -28.5t120 -78.5t78.5 -120t28.5 -153q0 -82 -28.5 -152t-78.5 -120.5t-120 -79t-153 -28.5t-153 28.5t-120 79t-78.5 120.5t-28.5 152q0 83 28.5 153t78.5 120t120 78.5t153 28.5zM415 639q-64 0 -118 -22.5t-92.5 -62.5t-60.5 -95t-22 -119
q0 -63 22 -118t60.5 -95t92.5 -63t118 -23t118 23t92.5 63t60.5 95t22 118q0 64 -22 119t-60.5 95t-92.5 62.5t-118 22.5zM596 260q0 -70 -48 -110.5t-135 -40.5q-83 0 -126.5 35.5t-54.5 91.5l106 25q6 -22 22.5 -35t56.5 -13q30 0 47 11t17 33q0 24 -17 36t-51 12
q-13 0 -29 -2.5t-29 -6.5l-28 80l117 81h-192v94h328v-102l-112 -77q69 0 98.5 -33t29.5 -79z" />
    <glyph glyph-name="uni2463" unicode="&#x2463;" horiz-adv-x="830" 
d="M415 720q83 0 153 -28.5t120 -78.5t78.5 -120t28.5 -153q0 -82 -28.5 -152t-78.5 -120.5t-120 -79t-153 -28.5t-153 28.5t-120 79t-78.5 120.5t-28.5 152q0 83 28.5 153t78.5 120t120 78.5t153 28.5zM415 639q-64 0 -118 -22.5t-92.5 -62.5t-60.5 -95t-22 -119
q0 -63 22 -118t60.5 -95t92.5 -63t118 -23t118 23t92.5 63t60.5 95t22 118q0 64 -22 119t-60.5 95t-92.5 62.5t-118 22.5zM553 128h-119v86h-233v101l166 249h186v-258h38v-92h-38v-86zM321 306h113v174z" />
    <glyph glyph-name="uni2464" unicode="&#x2464;" horiz-adv-x="830" 
d="M415 720q83 0 153 -28.5t120 -78.5t78.5 -120t28.5 -153q0 -82 -28.5 -152t-78.5 -120.5t-120 -79t-153 -28.5t-153 28.5t-120 79t-78.5 120.5t-28.5 152q0 83 28.5 153t78.5 120t120 78.5t153 28.5zM415 639q-64 0 -118 -22.5t-92.5 -62.5t-60.5 -95t-22 -119
q0 -63 22 -118t60.5 -95t92.5 -63t118 -23t118 23t92.5 63t60.5 95t22 118q0 64 -22 119t-60.5 95t-92.5 62.5t-118 22.5zM416 115q-90 0 -134 35.5t-54 84.5l108 25q7 -22 27 -35t54 -13q31 0 47.5 14t16.5 39q0 28 -18 40.5t-49 12.5q-18 0 -34 -4t-27 -11l-106 33l17 223
h305v-98h-209l-4 -66q18 7 38.5 10t45.5 3q31 0 59.5 -7t50.5 -23.5t35 -43t13 -65.5q0 -72 -46 -113t-136 -41z" />
    <glyph glyph-name="uni2465" unicode="&#x2465;" horiz-adv-x="830" 
d="M415 720q83 0 153 -28.5t120 -78.5t78.5 -120t28.5 -153q0 -82 -28.5 -152t-78.5 -120.5t-120 -79t-153 -28.5t-153 28.5t-120 79t-78.5 120.5t-28.5 152q0 83 28.5 153t78.5 120t120 78.5t153 28.5zM415 639q-64 0 -118 -22.5t-92.5 -62.5t-60.5 -95t-22 -119
q0 -63 22 -118t60.5 -95t92.5 -63t118 -23t118 23t92.5 63t60.5 95t22 118q0 64 -22 119t-60.5 95t-92.5 62.5t-118 22.5zM423 118q-95 0 -147.5 54.5t-52.5 162.5q0 115 50.5 175t144.5 60q90 0 131.5 -33t53.5 -83l-110 -23q-4 14 -20.5 27t-54.5 13q-37 0 -58 -25.5
t-21 -78.5q14 13 40 23.5t63 10.5q32 0 62 -7.5t53 -23.5t37 -40.5t14 -58.5q0 -65 -47.5 -109t-137.5 -44zM424 302q-31 0 -48.5 -10.5t-17.5 -29.5q0 -23 16.5 -34t50.5 -11q28 0 44.5 11t16.5 32q0 19 -15.5 30.5t-46.5 11.5z" />
    <glyph glyph-name="uni2466" unicode="&#x2466;" horiz-adv-x="830" 
d="M415 720q83 0 153 -28.5t120 -78.5t78.5 -120t28.5 -153q0 -82 -28.5 -152t-78.5 -120.5t-120 -79t-153 -28.5t-153 28.5t-120 79t-78.5 120.5t-28.5 152q0 83 28.5 153t78.5 120t120 78.5t153 28.5zM415 639q-64 0 -118 -22.5t-92.5 -62.5t-60.5 -95t-22 -119
q0 -63 22 -118t60.5 -95t92.5 -63t118 -23t118 23t92.5 63t60.5 95t22 118q0 64 -22 119t-60.5 95t-92.5 62.5t-118 22.5zM293 122l174 315h-218v109h337v-111l-167 -313h-126z" />
    <glyph glyph-name="uni2467" unicode="&#x2467;" horiz-adv-x="830" 
d="M415 720q83 0 153 -28.5t120 -78.5t78.5 -120t28.5 -153q0 -82 -28.5 -152t-78.5 -120.5t-120 -79t-153 -28.5t-153 28.5t-120 79t-78.5 120.5t-28.5 152q0 83 28.5 153t78.5 120t120 78.5t153 28.5zM415 639q-64 0 -118 -22.5t-92.5 -62.5t-60.5 -95t-22 -119
q0 -63 22 -118t60.5 -95t92.5 -63t118 -23t118 23t92.5 63t60.5 95t22 118q0 64 -22 119t-60.5 95t-92.5 62.5t-118 22.5zM414 568q93 0 141 -34.5t48 -95.5q0 -34 -15.5 -57t-47.5 -35q35 -9 52.5 -36.5t17.5 -60.5q0 -59 -51 -96t-145 -37t-145 37t-51 96q0 33 17.5 60.5
t52.5 36.5q-32 12 -47.5 35t-15.5 57q0 57 47.5 93.5t141.5 36.5zM414 477q-36 0 -55.5 -12t-19.5 -34q0 -24 20 -34.5t55 -10.5t55 10.5t20 34.5q0 22 -19.5 34t-55.5 12zM414 302q-37 0 -59 -11.5t-22 -34.5q0 -25 19.5 -36t61.5 -11t61.5 11t19.5 36q0 23 -22 34.5
t-59 11.5z" />
    <glyph glyph-name="uni2468" unicode="&#x2468;" horiz-adv-x="830" 
d="M415 720q83 0 153 -28.5t120 -78.5t78.5 -120t28.5 -153q0 -82 -28.5 -152t-78.5 -120.5t-120 -79t-153 -28.5t-153 28.5t-120 79t-78.5 120.5t-28.5 152q0 83 28.5 153t78.5 120t120 78.5t153 28.5zM415 639q-64 0 -118 -22.5t-92.5 -62.5t-60.5 -95t-22 -119
q0 -63 22 -118t60.5 -95t92.5 -63t118 -23t118 23t92.5 63t60.5 95t22 118q0 64 -22 119t-60.5 95t-92.5 62.5t-118 22.5zM408 568q95 0 147.5 -54.5t52.5 -162.5q0 -115 -50.5 -175t-144.5 -60q-90 0 -131.5 33t-53.5 83l110 23q4 -14 20.5 -27t54.5 -13q37 0 58 25.5
t21 78.5q-14 -13 -40 -23.5t-63 -10.5q-32 0 -62 7.5t-53 23.5t-37 40.5t-14 58.5q0 65 47.5 109t137.5 44zM407 384q31 0 48.5 10.5t17.5 29.5q0 23 -16.5 34t-50.5 11q-28 0 -44.5 -11t-16.5 -32q0 -19 15.5 -30.5t46.5 -11.5z" />
    <glyph glyph-name="uni2469" unicode="&#x2469;" horiz-adv-x="830" 
d="M415 720q83 0 153 -28.5t120 -78.5t78.5 -120t28.5 -153q0 -82 -28.5 -152t-78.5 -120.5t-120 -79t-153 -28.5t-153 28.5t-120 79t-78.5 120.5t-28.5 152q0 83 28.5 153t78.5 120t120 78.5t153 28.5zM415 639q-64 0 -118 -22.5t-92.5 -62.5t-60.5 -95t-22 -119
q0 -63 22 -118t60.5 -95t92.5 -63t118 -23t118 23t92.5 63t60.5 95t22 118q0 64 -22 119t-60.5 95t-92.5 62.5t-118 22.5zM510 566q63 0 97.5 -54t34.5 -173q0 -121 -34.5 -173t-97.5 -52t-97.5 52t-34.5 173q0 119 34.5 173t97.5 54zM344 122h-94v337l-27 -20l-40 61l71 58
h90v-436zM510 206q7 0 13 3.5t10.5 17t6.5 40t2 72.5t-2 73t-6.5 40.5t-10.5 17.5t-13 4t-13 -4t-10.5 -17.5t-6.5 -40.5t-2 -73t2 -72.5t6.5 -40t10.5 -17t13 -3.5z" />
    <glyph glyph-name="uni24EA" unicode="&#x24ea;" horiz-adv-x="830" 
d="M415 720q83 0 153 -28.5t120 -78.5t78.5 -120t28.5 -153q0 -82 -28.5 -152t-78.5 -120.5t-120 -79t-153 -28.5t-153 28.5t-120 79t-78.5 120.5t-28.5 152q0 83 28.5 153t78.5 120t120 78.5t153 28.5zM415 639q-64 0 -118 -22.5t-92.5 -62.5t-60.5 -95t-22 -119
q0 -63 22 -118t60.5 -95t92.5 -63t118 -23t118 23t92.5 63t60.5 95t22 118q0 64 -22 119t-60.5 95t-92.5 62.5t-118 22.5zM415 116q-83 0 -133.5 56t-50.5 169q0 112 50.5 169.5t133.5 57.5q84 0 134 -57.5t50 -169.5q0 -113 -50 -169t-134 -56zM415 210q28 0 47 27t19 104
t-19 105t-47 28q-27 0 -46.5 -28t-19.5 -105t19.5 -104t46.5 -27z" />
    <glyph glyph-name="uni24FF" unicode="&#x24ff;" horiz-adv-x="830" 
d="M415 720q83 0 153 -28.5t120 -78.5t78.5 -120t28.5 -153q0 -82 -28.5 -152t-78.5 -120.5t-120 -79t-153 -28.5t-153 28.5t-120 79t-78.5 120.5t-28.5 152q0 83 28.5 153t78.5 120t120 78.5t153 28.5zM415 116q84 0 134 56t50 169q0 112 -50 169.5t-134 57.5
q-83 0 -133.5 -57.5t-50.5 -169.5q0 -113 50.5 -169t133.5 -56zM415 210q-27 0 -46.5 27t-19.5 104t19.5 105t46.5 28q28 0 47 -28t19 -105t-19 -104t-47 -27z" />
    <glyph glyph-name="uni2776" unicode="&#x2776;" horiz-adv-x="830" 
d="M415 720q83 0 153 -28.5t120 -78.5t78.5 -120t28.5 -153q0 -82 -28.5 -152t-78.5 -120.5t-120 -79t-153 -28.5t-153 28.5t-120 79t-78.5 120.5t-28.5 152q0 83 28.5 153t78.5 120t120 78.5t153 28.5zM270 137h312v94h-95v342h-120l-127 -90l52 -77l85 54v-229h-107v-94z
" />
    <glyph glyph-name="uni2777" unicode="&#x2777;" horiz-adv-x="830" 
d="M415 720q83 0 153 -28.5t120 -78.5t78.5 -120t28.5 -153q0 -82 -28.5 -152t-78.5 -120.5t-120 -79t-153 -28.5t-153 28.5t-120 79t-78.5 120.5t-28.5 152q0 83 28.5 153t78.5 120t120 78.5t153 28.5zM464 437q0 -25 -16.5 -45.5t-53.5 -50.5l-143 -115v-90h331v94h-171
l74 58q50 39 70.5 74.5t20.5 84.5q0 57 -42.5 95t-117.5 38q-77 0 -122 -36.5t-55 -98.5l104 -20q7 28 26 42.5t44 14.5q24 0 37.5 -13t13.5 -32z" />
    <glyph glyph-name="uni2778" unicode="&#x2778;" horiz-adv-x="830" 
d="M415 720q83 0 153 -28.5t120 -78.5t78.5 -120t28.5 -153q0 -82 -28.5 -152t-78.5 -120.5t-120 -79t-153 -28.5t-153 28.5t-120 79t-78.5 120.5t-28.5 152q0 83 28.5 153t78.5 120t120 78.5t153 28.5zM601 261q0 46 -30.5 77.5t-99.5 31.5l112 80v102h-328v-94h202
l-126 -88l27 -76q13 4 29 6.5t29 2.5q34 0 52 -10.5t18 -34.5q0 -22 -18 -33t-48 -11q-40 0 -57.5 13t-23.5 35l-106 -25q11 -57 55.5 -93t126.5 -36q88 0 137 40.5t49 112.5z" />
    <glyph glyph-name="uni2779" unicode="&#x2779;" horiz-adv-x="830" 
d="M415 720q83 0 153 -28.5t120 -78.5t78.5 -120t28.5 -153q0 -82 -28.5 -152t-78.5 -120.5t-120 -79t-153 -28.5t-153 28.5t-120 79t-78.5 120.5t-28.5 152q0 83 28.5 153t78.5 120t120 78.5t153 28.5zM553 128v86h38v92h-38v258h-186l-166 -249v-101h236v-86h116zM324 306
l113 174v-174h-113z" />
    <glyph glyph-name="uni277A" unicode="&#x277a;" horiz-adv-x="830" 
d="M415 720q83 0 153 -28.5t120 -78.5t78.5 -120t28.5 -153q0 -82 -28.5 -152t-78.5 -120.5t-120 -79t-153 -28.5t-153 28.5t-120 79t-78.5 120.5t-28.5 152q0 83 28.5 153t78.5 120t120 78.5t153 28.5zM416 115q90 0 136 41t46 113q0 39 -13 65.5t-35 43t-50.5 23.5
t-59.5 7q-25 0 -45.5 -3t-38.5 -10l4 66h209v98h-305l-17 -223l106 -33q11 7 27 11t34 4q31 0 49 -12.5t18 -40.5q0 -25 -16.5 -39t-47.5 -14q-34 0 -54 13t-27 35l-108 -25q10 -49 54 -84.5t134 -35.5z" />
    <glyph glyph-name="uni277B" unicode="&#x277b;" horiz-adv-x="830" 
d="M415 720q83 0 153 -28.5t120 -78.5t78.5 -120t28.5 -153q0 -82 -28.5 -152t-78.5 -120.5t-120 -79t-153 -28.5t-153 28.5t-120 79t-78.5 120.5t-28.5 152q0 83 28.5 153t78.5 120t120 78.5t153 28.5zM423 118q90 0 137.5 44t47.5 109q0 34 -14 58.5t-37 40.5t-53 23.5
t-62 7.5q-37 0 -63 -10.5t-40 -23.5q0 53 21 78.5t58 25.5q38 0 54.5 -13t20.5 -27l110 23q-12 50 -53.5 83t-131.5 33q-94 0 -144.5 -60t-50.5 -175q0 -108 52.5 -162.5t147.5 -54.5zM424 304q31 0 47.5 -12.5t16.5 -31.5q0 -21 -17.5 -33t-45.5 -12q-34 0 -51.5 12
t-17.5 35q0 19 18.5 30.5t49.5 11.5z" />
    <glyph glyph-name="uni277C" unicode="&#x277c;" horiz-adv-x="830" 
d="M415 720q83 0 153 -28.5t120 -78.5t78.5 -120t28.5 -153q0 -82 -28.5 -152t-78.5 -120.5t-120 -79t-153 -28.5t-153 28.5t-120 79t-78.5 120.5t-28.5 152q0 83 28.5 153t78.5 120t120 78.5t153 28.5zM293 122h126l167 313v111h-337v-109h218z" />
    <glyph glyph-name="uni277D" unicode="&#x277d;" horiz-adv-x="830" 
d="M415 720q83 0 153 -28.5t120 -78.5t78.5 -120t28.5 -153q0 -82 -28.5 -152t-78.5 -120.5t-120 -79t-153 -28.5t-153 28.5t-120 79t-78.5 120.5t-28.5 152q0 83 28.5 153t78.5 120t120 78.5t153 28.5zM414 569q-96 0 -142.5 -36t-46.5 -95q0 -33 16 -57t47 -34
q-35 -9 -52 -36t-17 -60q0 -59 50.5 -96.5t144.5 -37.5t144.5 37.5t50.5 96.5q0 33 -17 60t-52 36q32 10 47.5 34.5t15.5 56.5q0 62 -46.5 96.5t-142.5 34.5zM414 484q36 0 56.5 -13t20.5 -35q0 -24 -21 -35.5t-56 -11.5t-56 11.5t-21 35.5q0 22 20.5 35t56.5 13zM414 202
q-42 0 -62 13t-20 38q0 23 22.5 35.5t59.5 12.5t59.5 -12.5t22.5 -35.5q0 -25 -20 -38t-62 -13z" />
    <glyph glyph-name="uni277E" unicode="&#x277e;" horiz-adv-x="830" 
d="M415 720q83 0 153 -28.5t120 -78.5t78.5 -120t28.5 -153q0 -82 -28.5 -152t-78.5 -120.5t-120 -79t-153 -28.5t-153 28.5t-120 79t-78.5 120.5t-28.5 152q0 83 28.5 153t78.5 120t120 78.5t153 28.5zM408 568q-90 0 -137.5 -44t-47.5 -109q0 -34 14 -58.5t37 -40.5
t53 -23.5t62 -7.5q37 0 63 10.5t40 23.5q0 -53 -21 -78.5t-58 -25.5q-38 0 -54.5 13t-20.5 27l-110 -23q12 -50 53.5 -83t131.5 -33q94 0 144.5 60t50.5 175q0 108 -52.5 162.5t-147.5 54.5zM407 382q-31 0 -47.5 12.5t-16.5 31.5q0 21 17.5 33t45.5 12q34 0 51.5 -12
t17.5 -35q0 -19 -18.5 -30.5t-49.5 -11.5z" />
    <glyph glyph-name="uni277F" unicode="&#x277f;" horiz-adv-x="830" 
d="M415 720q83 0 153 -28.5t120 -78.5t78.5 -120t28.5 -153q0 -82 -28.5 -152t-78.5 -120.5t-120 -79t-153 -28.5t-153 28.5t-120 79t-78.5 120.5t-28.5 152q0 83 28.5 153t78.5 120t120 78.5t153 28.5zM511 566q-65 0 -99.5 -54t-34.5 -173q0 -121 34.5 -173t99.5 -52
t99.5 52t34.5 173q0 119 -34.5 173t-99.5 54zM339 122v436h-91l-63 -48l28 -81l31 19v-326h95zM511 210q-9 0 -15.5 4.5t-11 18t-7 39t-2.5 67.5t2.5 68t7 40t11 18.5t15.5 4.5t15.5 -4.5t11 -18.5t7 -40t2.5 -68t-2.5 -67.5t-7 -39t-11 -18t-15.5 -4.5z" />
    <glyph glyph-name="uni2206" unicode="&#x2206;" horiz-adv-x="741" 
d="M484 680l227 -534v-146h-681v146l224 534h230zM210 150h308l-155 396z" />
    <glyph glyph-name="uni0394" unicode="&#x394;" horiz-adv-x="722" 
d="M483 680l227 -534v-146h-681v146l224 534h230zM209 150h308l-155 396z" />
    <glyph glyph-name="Sigma" unicode="&#x3a3;" horiz-adv-x="676" 
d="M458 294l-171 -144h349v-150h-582v140l237 202l-231 188v150h561v-150h-324l161 -133v-103z" />
    <glyph glyph-name="uniA7B6" unicode="&#xa7b6;" horiz-adv-x="852" 
d="M270 361q0 -68 36.5 -119t97.5 -70v-172h-309v133h122q-58 34 -93 95t-35 136q0 71 25.5 131t72 103t111.5 67.5t143 24.5t142 -23t109 -64t70 -99.5t25 -129.5q0 -84 -35.5 -141t-97.5 -100h132v-133h-309v172q62 21 98 72t36 118q0 77 -43 125.5t-126 48.5
q-75 0 -123.5 -48.5t-48.5 -126.5z" />
    <glyph glyph-name="uni03BC" unicode="&#x3bc;" horiz-adv-x="598" 
d="M55 -180v675h168v-295q0 -34 20 -51.5t56 -17.5q33 0 54.5 17.5t21.5 44.5v302h168v-495h-164v51q-23 -23 -57.5 -41.5t-76.5 -18.5q-13 0 -25 1.5t-25 5.5l16 -178h-156z" />
    <glyph glyph-name="pi" unicode="&#x3c0;" horiz-adv-x="648" 
d="M100 0v351h-70v144h588v-144h-76v-140q0 -37 13.5 -52t48.5 -15h14v-144h-87q-77 0 -115 37.5t-38 115.5v198h-110v-351h-168z" />
    <glyph glyph-name="uni04100301" horiz-adv-x="732" 
d="M483 680l244 -680h-186l-48 143h-259l-48 -143h-181l244 680h234zM287 299h153l-76 227zM379 876h183l-125 -144h-157z" />
    <glyph glyph-name="uni04150301" horiz-adv-x="621" 
d="M70 0v680h501v-150h-325v-116h310v-146h-310v-118h322v-150h-498zM309 876h183l-125 -144h-157z" />
    <glyph glyph-name="uni04180301" horiz-adv-x="782" 
d="M536 0v416l-290 -416h-176v680h176v-418l290 418h176v-680h-176zM404 876h183l-125 -144h-157z" />
    <glyph glyph-name="uni041E0301" horiz-adv-x="784" 
d="M392 -10q-75 0 -139 20.5t-110 63t-72.5 109.5t-26.5 158q0 90 26.5 156t72.5 109t110 63.5t139 20.5t139 -20.5t110.5 -63.5t72.5 -109t26 -156q0 -91 -26 -158t-72.5 -109.5t-110.5 -63t-139 -20.5zM392 146q80 0 124 51t44 144t-44 143t-124 50t-124 -50t-44 -143
t44 -144t124 -51zM394 876h183l-125 -144h-157z" />
    <glyph glyph-name="uni04230301" horiz-adv-x="687" 
d="M456 168q-21 -48 -43 -80.5t-50.5 -51.5t-66.5 -27.5t-91 -8.5h-84v162h58q28 0 48 3.5t33 10.5l-255 504h198l156 -339l145 339h181zM361 876h183l-125 -144h-157z" />
    <glyph glyph-name="uni042B0301" horiz-adv-x="966" 
d="M70 680h176v-222h137q116 0 188.5 -53t72.5 -180q0 -59 -18.5 -102t-52.5 -70t-81 -40t-104 -13h-318v680zM720 0v680h176v-680h-176zM364 152q54 0 77 17.5t23 60.5q0 41 -23 58.5t-77 17.5h-118v-154h118zM485 867h183l-125 -144h-157z" />
    <glyph glyph-name="uni042D0301" horiz-adv-x="733" 
d="M35 214l178 29q12 -44 49 -71t101 -27q55 0 92 30.5t50 90.5h-229v150h229q-12 62 -48 90.5t-92 28.5t-95.5 -25.5t-55.5 -71.5l-178 29q32 113 119.5 167.5t206.5 54.5q71 0 131.5 -20.5t103.5 -62.5t67 -107.5t24 -153.5q0 -179 -89.5 -267t-241.5 -88
q-131 0 -215.5 55t-106.5 169zM350 876h183l-125 -144h-157z" />
    <glyph glyph-name="uni042E0301" horiz-adv-x="1085" 
d="M693 -10q-66 0 -123.5 16t-102 48.5t-74.5 83.5t-42 120h-105v-258h-176v680h176v-257h105q12 69 42 119.5t74.5 83t102 48.5t123.5 16q75 0 139 -20.5t110.5 -63.5t72.5 -109t26 -156q0 -91 -26 -158t-72.5 -109.5t-110.5 -63t-139 -20.5zM693 146q80 0 124 51t44 144
t-44 143t-124 50t-124 -50t-44 -143t44 -144t124 -51zM553 876h183l-125 -144h-157z" />
    <glyph glyph-name="uni042F0301" horiz-adv-x="712" 
d="M642 0h-176v222h-105l-127 -222h-194l144 241q-62 22 -97.5 74.5t-35.5 139.5q0 59 18.5 102t52.5 70t81 40t104 13h335v-680zM331 528q-54 0 -77 -17.5t-23 -60.5q0 -41 23 -58.5t77 -17.5h135v154h-135zM353 876h183l-125 -144h-157z" />
    <glyph glyph-name="uni04300301" horiz-adv-x="546" 
d="M338 0v54q-23 -34 -60 -49t-79 -15q-34 0 -64 9.5t-52.5 28.5t-35.5 46.5t-13 63.5q0 78 49.5 113t135.5 42q31 2 60.5 2.5t52.5 -0.5v32q0 26 -16.5 38.5t-48.5 12.5q-24 0 -42 -12t-23 -45l-151 21q9 69 65 116t155 47q47 0 88 -8.5t71 -29t47 -56.5t17 -90v-321h-156z
M332 195q-14 1 -36 0.5t-41 -1.5q-22 -1 -39.5 -10.5t-17.5 -30.5q0 -22 16 -33t42 -11q36 0 56 16.5t20 43.5v26zM276 700h173l-119 -150h-143z" />
    <glyph glyph-name="uni04350301" horiz-adv-x="532" 
d="M507 210h-323q5 -47 28.5 -70t63.5 -23t57.5 18t23.5 34l146 -28q-7 -26 -23 -53t-43 -48.5t-67 -35.5t-95 -14q-119 0 -184.5 68t-65.5 190q0 64 19.5 112.5t53 80.5t78.5 48t96 16q59 0 103.5 -19t73.5 -53.5t43.5 -83t14.5 -106.5v-33zM272 378q-28 0 -51 -15.5
t-33 -55.5h162q-4 36 -25 53.5t-53 17.5zM268 700h173l-119 -150h-143z" />
    <glyph glyph-name="uni04380301" horiz-adv-x="603" 
d="M218 0h-163v495h163v-271l160 271h170v-495h-163v275zM308 700h173l-119 -150h-143z" />
    <glyph glyph-name="uni043E0301" horiz-adv-x="563" 
d="M281 -10q-120 0 -188 70t-68 189t68 187.5t188 68.5q121 0 189 -68.5t68 -187.5t-68 -189t-189 -70zM281 126q40 0 66 30.5t26 92.5t-26 91t-66 29t-65.5 -28.5t-25.5 -91.5q0 -62 25.5 -92.5t65.5 -30.5zM278 700h173l-119 -150h-143z" />
    <glyph glyph-name="uni04430301" horiz-adv-x="570" 
d="M398 2q-20 -58 -41 -96t-48 -60.5t-64.5 -31t-90.5 -8.5h-74v144h59q28 0 45.5 6t27.5 22l-204 517h187l106 -309l90 309h174zM289 700h173l-119 -150h-143z" />
    <glyph glyph-name="uni044B0301" horiz-adv-x="775" 
d="M552 0v495h168v-495h-168zM55 0v495h168v-128h98q86 0 136.5 -43.5t50.5 -136.5t-49 -140t-139 -47h-265zM270 237h-47v-107h47q43 0 60.5 10t17.5 46q0 32 -19.5 41.5t-58.5 9.5zM393 691h173l-119 -150h-143z" />
    <glyph glyph-name="uni044D0301" horiz-adv-x="535" 
d="M26 175l148 18q6 -34 30 -54.5t61 -20.5q34 0 56 19t30 56h-137v115h135q-9 34 -30 51.5t-53 17.5q-33 0 -57 -17.5t-34 -57.5l-146 27q16 81 78.5 128.5t161.5 47.5q111 0 176 -65t65 -188q0 -120 -62.5 -191t-181.5 -71q-106 0 -166 48t-74 137zM265 700h173l-119 -150
h-143z" />
    <glyph glyph-name="uni044E0301" horiz-adv-x="813" 
d="M55 0v495h168v-177h63q18 88 81.5 137.5t163.5 49.5q121 0 189 -68.5t68 -187.5t-68 -189t-189 -70q-99 0 -162.5 50t-81.5 138h-64v-178h-168zM531 126q40 0 66 30.5t26 92.5t-26 91t-66 29t-65.5 -28.5t-25.5 -91.5q0 -62 25.5 -92.5t65.5 -30.5zM418 701h173
l-119 -150h-143z" />
    <glyph glyph-name="uni044F0301" horiz-adv-x="569" 
d="M36 323q0 78 50.5 125t149.5 47h278v-495h-168v152h-49l-88 -152h-179l103 167q-46 18 -71.5 57t-25.5 99zM268 277h78v92h-78q-33 0 -48 -11.5t-15 -36.5q0 -22 16 -33t47 -11zM288 700h173l-119 -150h-143z" />
    <glyph glyph-name="acute" unicode="&#xb4;" horiz-adv-x="347" 
d="M118 700h173l-119 -150h-143z" />
    <glyph glyph-name="grave" unicode="`" horiz-adv-x="347" 
d="M229 700h-173l119 -150h143z" />
    <glyph glyph-name="hungarumlaut" unicode="&#x2dd;" horiz-adv-x="524" 
d="M146 700h146l-126 -150h-131zM341 700h148l-135 -150h-133z" />
    <glyph glyph-name="circumflex" unicode="&#x2c6;" horiz-adv-x="460" 
d="M150 700h160l106 -150h-140l-46 80l-46 -80h-140z" />
    <glyph glyph-name="caron" unicode="&#x2c7;" horiz-adv-x="460" 
d="M150 550l-109 150h143l46 -76l45 76h143l-108 -150h-160z" />
    <glyph glyph-name="caron.alt" horiz-adv-x="264" 
d="M77 690h147l-78 -215h-106z" />
    <glyph glyph-name="breve" unicode="&#x2d8;" horiz-adv-x="426" 
d="M213 544q-87 0 -127 41t-44 109h121q2 -25 15 -38.5t37 -13.5q23 0 34 13.5t13 38.5h122q-3 -68 -44 -109t-127 -41z" />
    <glyph glyph-name="tilde" unicode="&#x2dc;" horiz-adv-x="389" 
d="M27 556v21q0 51 27 87t75 36q19 0 34 -5.5t26.5 -11.5t22 -11.5t22.5 -5.5q13 0 21 7.5t8 21.5v5h99v-20q0 -49 -22 -86.5t-71 -37.5q-20 0 -37 5.5t-30.5 11.5t-25 11.5t-21.5 5.5q-13 0 -21 -8.5t-8 -22.5v-3h-99z" />
    <glyph glyph-name="macron" unicode="&#xaf;" horiz-adv-x="380" 
d="M337 570h-294v110h294v-110z" />
    <glyph glyph-name="dieresis" unicode="&#xa8;" horiz-adv-x="439" 
d="M40 553v137h149v-137h-149zM250 553v137h149v-137h-149z" />
    <glyph glyph-name="dotaccent" unicode="&#x2d9;" horiz-adv-x="249" 
d="M40 553v137h169v-137h-169z" />
    <glyph glyph-name="ring" unicode="&#x2da;" horiz-adv-x="307" 
d="M153 525q-51 0 -82 31.5t-31 79.5t31 80t82 32t82.5 -32t31.5 -80t-31.5 -79.5t-82.5 -31.5zM153 599q17 0 27.5 10.5t10.5 26.5t-10.5 27t-27.5 11t-27 -11t-10 -27t10 -26.5t27 -10.5z" />
    <glyph glyph-name="uniF6D4" unicode="&#xf6d4;" horiz-adv-x="446" 
d="M224 520q-107 0 -145.5 47.5t-38.5 119.5h129q0 -37 12.5 -53t42.5 -16q29 0 40.5 16t11.5 53h130q1 -72 -37.5 -119.5t-144.5 -47.5z" />
    <glyph glyph-name="acutecomb" unicode="&#x301;" horiz-adv-x="0" 
d="M-292 700h173l-119 -150h-143z" />
    <glyph glyph-name="uniF6C3" unicode="&#xf6c3;" horiz-adv-x="297" 
d="M73 -161v117h154v-66q0 -78 -33 -121t-117 -55l-11 68q35 5 57 19.5t28 37.5h-78z" />
    <glyph glyph-name="dotbelowcmb" unicode="&#x323;" horiz-adv-x="249" 
d="M40 -181v137h169v-137h-169z" />
    <glyph glyph-name="cedilla" unicode="&#xb8;" horiz-adv-x="358" 
d="M179 -223q-65 0 -97.5 20.5t-38.5 60.5l94 19q4 -16 14 -23.5t29 -7.5t29 7t10 22q0 16 -16 22.5t-50 4.5l-34 -2v53l43 47h86l-34 -37q51 -1 79 -21t28 -66q0 -47 -39.5 -73t-102.5 -26z" />
    <glyph glyph-name="ogonek" unicode="&#x2db;" horiz-adv-x="322" 
d="M182 -201q-55 0 -93.5 22.5t-38.5 68.5q0 32 17.5 60t57.5 50h142q-31 -11 -51.5 -28t-20.5 -35q0 -13 11 -19.5t28 -6.5q8 0 16.5 1t15.5 2l6 -103q-16 -5 -40 -8.5t-50 -3.5z" />
    <glyph glyph-name="acute.cap" horiz-adv-x="330" 
d="M123 876h183l-125 -144h-157z" />
    <glyph glyph-name="grave.cap" horiz-adv-x="384" 
d="M234 876l99 -144h-157l-125 144h183z" />
    <glyph glyph-name="hungarumlaut.cap" horiz-adv-x="554" 
d="M130 876h169l-131 -144h-141zM359 876h168l-148 -144h-149z" />
    <glyph glyph-name="circumflex.cap" horiz-adv-x="460" 
d="M147 876h166l122 -144h-160l-45 64l-45 -64h-160z" />
    <glyph glyph-name="caron.cap" horiz-adv-x="460" 
d="M147 732l-120 144h160l43 -62l43 62h160l-120 -144h-166z" />
    <glyph glyph-name="breve.cap" horiz-adv-x="406" 
d="M204 728q-85 0 -125.5 39t-47.5 109h118q4 -22 17 -35.5t38 -13.5t36.5 13t15.5 36h119q-7 -70 -46.5 -109t-124.5 -39z" />
    <glyph glyph-name="tilde.cap" horiz-adv-x="424" 
d="M43 732v17q0 57 26.5 92t71.5 35q20 0 36.5 -5.5t30 -12.5t25.5 -12.5t23 -5.5q13 0 18.5 8t5.5 20v8h101v-17q0 -56 -22 -91.5t-68 -35.5q-22 0 -40 6t-32.5 12.5t-26.5 12.5t-22 6q-13 0 -19.5 -9.5t-6.5 -21.5v-6h-101z" />
    <glyph glyph-name="macron.cap" horiz-adv-x="380" 
d="M350 750h-320v110h320v-110z" />
    <glyph glyph-name="dieresis.cap" horiz-adv-x="503" 
d="M74 744v132h146v-132h-146zM283 744v132h146v-132h-146z" />
    <glyph glyph-name="dotaccent.cap" horiz-adv-x="249" 
d="M40 736v137h169v-137h-169z" />
    <glyph glyph-name="ring.cap" horiz-adv-x="409" 
d="M204 673q-63 0 -108.5 41.5t-45.5 108.5q0 68 44 109.5t110 41.5t110.5 -41.5t44.5 -109.5q0 -67 -44.5 -108.5t-110.5 -41.5zM204 764q27 0 43.5 17t16.5 42q0 24 -16.5 42t-43.5 18t-43 -18t-16 -42q0 -25 16 -42t43 -17z" />
    <glyph glyph-name="Cyrbreve" horiz-adv-x="462" 
d="M20 884h144q4 -37 19 -53.5t49 -16.5t48 16.5t17 53.5h145q-2 -91 -53 -134.5t-157 -43.5q-107 0 -159 43.5t-53 134.5z" />
    </font>
</defs>
</svg>
