<svg width="19" height="16" viewBox="0 0 19 16" fill="none" xmlns="http://www.w3.org/2000/svg">
<path d="M18 1L18.5 1L18.5 0.5L18 0.5L18 1ZM18 15L18 15.5L18.5 15.5L18.5 15L18 15ZM4.60465 15L4.10465 15L4.10465 15.5L4.60465 15.5L4.60465 15ZM4.60465 0.999999L4.60465 0.499999L4.10465 0.499999L4.10465 0.999999L4.60465 0.999999ZM10.4651 8L10.8092 8.36277L11.1917 8L10.8092 7.63723L10.4651 8ZM17.5 1L17.5 15L18.5 15L18.5 1L17.5 1ZM18 14.5L4.60465 14.5L4.60465 15.5L18 15.5L18 14.5ZM4.60465 1.5L18 1.5L18 0.5L4.60465 0.499999L4.60465 1.5ZM4.10465 0.999999L4.10465 3.47059L5.10465 3.47059L5.10465 0.999999L4.10465 0.999999ZM5.10465 15L5.10465 12.5294L4.10465 12.5294L4.10465 15L5.10465 15ZM-3.27835e-07 8.5L10.4651 8.5L10.4651 7.5L-2.84124e-07 7.5L-3.27835e-07 8.5ZM10.8092 7.63723L6.90223 3.93135L6.21405 4.65688L10.121 8.36277L10.8092 7.63723ZM10.121 7.63723L6.21405 11.3431L6.90223 12.0686L10.8092 8.36277L10.121 7.63723Z" fill="#304351"/>
</svg>
