<svg width="204" height="60" viewBox="0 0 204 60" fill="none" xmlns="http://www.w3.org/2000/svg">
<rect width="204" height="60" fill="white"/>
<path d="M100.927 40.4846C99.5471 40.4846 98.2794 40.2795 97.1236 39.8694C95.9864 39.4406 95.0076 38.816 94.1873 37.9958C93.3671 37.1755 92.7239 36.1595 92.2578 34.9477C91.8104 33.7173 91.5867 32.3004 91.5867 30.6971C91.5867 29.1311 91.8104 27.7329 92.2578 26.5025C92.7239 25.2721 93.3671 24.2467 94.1873 23.4264C95.0076 22.6062 95.9864 21.9816 97.1236 21.5528C98.2794 21.1241 99.5471 20.9097 100.927 20.9097C102.325 20.9097 103.602 21.1241 104.758 21.5528C105.914 21.9816 106.892 22.6062 107.694 23.4264C108.514 24.2467 109.148 25.2721 109.596 26.5025C110.062 27.7329 110.295 29.1311 110.295 30.6971C110.295 32.3004 110.062 33.7173 109.596 34.9477C109.148 36.1595 108.514 37.1755 107.694 37.9958C106.892 38.816 105.914 39.4406 104.758 39.8694C103.602 40.2795 102.325 40.4846 100.927 40.4846ZM100.927 37.4365C102.81 37.4365 104.264 36.8306 105.289 35.6188C106.314 34.3884 106.827 32.7478 106.827 30.6971C106.827 28.6278 106.314 26.9872 105.289 25.7754C104.264 24.5637 102.81 23.9578 100.927 23.9578C99.0624 23.9578 97.6083 24.5637 96.5643 25.7754C95.5389 26.9872 95.0263 28.6278 95.0263 30.6971C95.0263 32.7478 95.5389 34.3884 96.5643 35.6188C97.6083 36.8306 99.0624 37.4365 100.927 37.4365Z" fill="#304351"/>
<path d="M113.553 45.63V26.6703H116.741V28.3761C117.17 27.7422 117.767 27.2575 118.531 26.922C119.295 26.5677 120.134 26.3906 121.048 26.3906C121.849 26.3906 122.604 26.5398 123.313 26.8381C124.04 27.1364 124.655 27.5745 125.159 28.1524C125.681 28.7303 126.091 29.4574 126.389 30.3336C126.706 31.1912 126.864 32.1792 126.864 33.2978C126.864 35.6095 126.277 37.3899 125.103 38.6389C123.928 39.8694 122.427 40.4846 120.6 40.4846C119.799 40.4846 119.072 40.3634 118.419 40.121C117.767 39.86 117.217 39.4965 116.769 39.0304V45.63H113.553ZM116.769 34.5282C116.769 35.4976 117.105 36.2806 117.776 36.8772C118.447 37.4551 119.277 37.7441 120.265 37.7441C121.29 37.7441 122.11 37.3619 122.726 36.5976C123.341 35.8146 123.648 34.7519 123.648 33.4096C123.648 32.1047 123.341 31.07 122.726 30.3056C122.129 29.5226 121.299 29.1311 120.237 29.1311C119.305 29.1311 118.494 29.4481 117.804 30.0819C117.114 30.7158 116.769 31.592 116.769 32.7105V34.5282Z" fill="#304351"/>
<path d="M141.602 34.1087H132.122C132.197 35.3392 132.542 36.2806 133.157 36.9331C133.772 37.567 134.574 37.8839 135.562 37.8839C136.494 37.8839 137.203 37.6695 137.687 37.2407C138.172 36.8119 138.489 36.3552 138.638 35.8705L141.518 36.4018C141.22 37.5204 140.577 38.4805 139.589 39.2821C138.619 40.0838 137.259 40.4846 135.506 40.4846C133.474 40.4846 131.871 39.86 130.696 38.611C129.54 37.3619 128.963 35.6375 128.963 33.4376C128.963 32.3004 129.13 31.2937 129.466 30.4175C129.82 29.5226 130.286 28.7862 130.864 28.2083C131.461 27.6117 132.15 27.1643 132.933 26.866C133.735 26.5491 134.593 26.3906 135.506 26.3906C137.445 26.3906 138.946 27.0059 140.008 28.2363C141.071 29.4481 141.602 31.0979 141.602 33.1859V34.1087ZM135.506 28.9913C134.686 28.9913 133.968 29.243 133.353 29.7463C132.756 30.2311 132.365 30.9488 132.178 31.8996H138.526C138.452 31.0047 138.163 30.2963 137.659 29.7743C137.175 29.2523 136.457 28.9913 135.506 28.9913Z" fill="#304351"/>
<path d="M144.494 40.2049V26.6703H147.598V28.46C148.064 27.7516 148.642 27.2762 149.332 27.0338C150.04 26.7915 150.712 26.6703 151.345 26.6703H152.436V29.5786H151.289C150.376 29.5786 149.556 29.765 148.829 30.1378C148.102 30.4921 147.738 31.0607 147.738 31.8437V40.2049H144.494Z" fill="#304351"/>
<path d="M162.486 40.2049H160.248C158.422 40.2049 157.135 39.8228 156.389 39.0584C155.644 38.2754 155.271 36.9891 155.271 35.1993V29.5226H153.09V26.6703H155.271V23.2307H158.487V26.6703H162.402V29.5226H158.487V35.1434C158.487 35.9637 158.655 36.5416 158.99 36.8772C159.344 37.1941 159.866 37.3526 160.556 37.3526H162.486V40.2049Z" fill="#304351"/>
<path d="M172.241 41.4074C171.645 43.0293 170.955 44.1386 170.172 44.7351C169.407 45.3317 168.326 45.63 166.928 45.63H165.334V42.7776H166.509C167.124 42.7776 167.636 42.6565 168.047 42.4141C168.475 42.1904 168.811 41.7709 169.053 41.1557L169.361 40.4286L163.684 26.6703H167.236L171.039 36.5416L174.394 26.6703H177.75L172.241 41.4074Z" fill="#304351"/>
<path d="M44.7186 5.25C31.2047 5.25 20.25 16.2044 20.25 29.718C20.25 43.2316 31.2047 54.1873 44.7186 54.1873H69.1873V29.718C69.1873 16.2044 58.2313 5.25 44.7186 5.25ZM44.7186 49.7194C33.6721 49.7194 24.7168 40.7618 24.7168 29.7174C24.7168 18.673 33.6721 9.71605 44.7186 9.71605C55.7652 9.71605 64.7205 18.6711 64.7205 29.7174C64.7205 40.7637 55.7652 49.7194 44.7186 49.7194Z" fill="#21AA63"/>
<path d="M44.9105 21.3481C43.9015 21.3481 42.939 21.538 42.0454 21.8688C39.274 22.8945 37.2087 25.3581 36.7508 28.3578C36.6875 28.768 36.6453 29.185 36.6453 29.6125C36.6453 31.7323 37.4495 33.6585 38.7607 35.1211C40.2737 36.809 42.4649 37.8769 44.9099 37.8769C49.4747 37.8769 53.1751 34.1766 53.1751 29.6119C53.1751 25.0472 49.4753 21.3481 44.9105 21.3481Z" fill="#21AA63"/>
</svg>
