<svg width="14" height="24" viewBox="0 0 14 24" fill="none" xmlns="http://www.w3.org/2000/svg">
<rect width="14" height="24" fill="white"/>
<path d="M5 12C5 10.8954 5.89543 10 7 10C8.10457 10 9 10.8954 9 12C9 13.1046 8.10457 14 7 14C5.89543 14 5 13.1046 5 12Z" fill="#DFE2E4"/>
<path d="M5 18C5 16.8954 5.89543 16 7 16C8.10457 16 9 16.8954 9 18C9 19.1046 8.10457 20 7 20C5.89543 20 5 19.1046 5 18Z" fill="#DFE2E4"/>
<path d="M5 6C5 4.89543 5.89543 4 7 4C8.10457 4 9 4.89543 9 6C9 7.10457 8.10457 8 7 8C5.89543 8 5 7.10457 5 6Z" fill="#DFE2E4"/>
</svg>
