<svg width="10" height="16" viewBox="0 0 10 16" fill="none" xmlns="http://www.w3.org/2000/svg">
<path d="M3.76682 11.6406V9.97101C3.76682 9.42995 3.87145 8.98937 4.08072 8.64928C4.30493 8.29372 4.70852 7.93044 5.29148 7.55942L6.52466 6.77101C7.01794 6.46184 7.3991 6.12947 7.66816 5.77391C7.93722 5.4029 8.07175 4.89275 8.07175 4.24348C8.07175 3.53237 7.83259 2.95266 7.35426 2.50435C6.87593 2.04058 6.17339 1.8087 5.24664 1.8087C4.24514 1.8087 3.46039 2.0715 2.89238 2.5971C2.33931 3.10725 1.98057 3.7256 1.81614 4.45217L0 4.08116C0.209268 2.92174 0.732436 1.95556 1.56951 1.18261C2.42152 0.394203 3.64723 0 5.24664 0C6.81614 0 7.99701 0.401933 8.78924 1.2058C9.59641 1.9942 10 3.00676 10 4.24348C10 5.29469 9.76084 6.12174 9.28251 6.72464C8.81913 7.32754 8.34081 7.78358 7.84753 8.09275L6.79372 8.76522C6.30045 9.0744 5.97907 9.35266 5.8296 9.6C5.69507 9.84734 5.6278 10.2029 5.6278 10.6667V11.6406H3.76682ZM3.52018 16V13.4493H5.91928V16H3.52018Z" fill="black"/>
</svg>
