<svg width="18" height="18" viewBox="0 0 18 18" fill="none" xmlns="http://www.w3.org/2000/svg">
<mask id="path-1-inside-1" fill="white">
<path fill-rule="evenodd" clip-rule="evenodd" d="M15.9999 7.55066C15.9999 10.643 13.5357 13.1013 10.5555 13.1013C7.5753 13.1013 5.11114 10.643 5.11114 7.55066C5.11114 4.45829 7.5753 2 10.5555 2C13.5357 2 15.9999 4.45829 15.9999 7.55066ZM17.9999 7.55066C17.9999 11.7208 14.6669 15.1013 10.5555 15.1013C8.77047 15.1013 7.13217 14.4641 5.84967 13.4017L1.31599 18.0001L0 16.6653L4.56541 12.0347C3.65148 10.7808 3.11114 9.22972 3.11114 7.55066C3.11114 3.38054 6.4441 0 10.5555 0C14.6669 0 17.9999 3.38054 17.9999 7.55066Z"/>
</mask>
<path fill-rule="evenodd" clip-rule="evenodd" d="M15.9999 7.55066C15.9999 10.643 13.5357 13.1013 10.5555 13.1013C7.5753 13.1013 5.11114 10.643 5.11114 7.55066C5.11114 4.45829 7.5753 2 10.5555 2C13.5357 2 15.9999 4.45829 15.9999 7.55066ZM17.9999 7.55066C17.9999 11.7208 14.6669 15.1013 10.5555 15.1013C8.77047 15.1013 7.13217 14.4641 5.84967 13.4017L1.31599 18.0001L0 16.6653L4.56541 12.0347C3.65148 10.7808 3.11114 9.22972 3.11114 7.55066C3.11114 3.38054 6.4441 0 10.5555 0C14.6669 0 17.9999 3.38054 17.9999 7.55066Z" fill="#6D7173"/>
<path d="M5.84967 13.4017L6.48761 12.6316L5.78141 12.0465L5.13757 12.6996L5.84967 13.4017ZM1.31599 18.0001L0.603886 18.7021L1.31599 19.4244L2.02809 18.7021L1.31599 18.0001ZM0 16.6653L-0.712101 15.9632L-1.40429 16.6653L-0.712102 17.3674L0 16.6653ZM4.56541 12.0347L5.27751 12.7368L5.87377 12.132L5.37354 11.4457L4.56541 12.0347ZM10.5555 14.1013C14.0998 14.1013 16.9999 11.1834 16.9999 7.55066H14.9999C14.9999 10.1027 12.9716 12.1013 10.5555 12.1013V14.1013ZM4.11114 7.55066C4.11114 11.1834 7.01116 14.1013 10.5555 14.1013V12.1013C8.13945 12.1013 6.11114 10.1027 6.11114 7.55066H4.11114ZM10.5555 1C7.01116 1 4.11114 3.91793 4.11114 7.55066H6.11114C6.11114 4.99864 8.13945 3 10.5555 3V1ZM16.9999 7.55066C16.9999 3.91793 14.0998 1 10.5555 1V3C12.9716 3 14.9999 4.99864 14.9999 7.55066H16.9999ZM10.5555 16.1013C15.2325 16.1013 18.9999 12.2596 18.9999 7.55066H16.9999C16.9999 11.1819 14.1013 14.1013 10.5555 14.1013V16.1013ZM5.21173 14.1717C6.66587 15.3763 8.52768 16.1013 10.5555 16.1013V14.1013C9.01326 14.1013 7.59847 13.5518 6.48761 12.6316L5.21173 14.1717ZM5.13757 12.6996L0.603886 17.298L2.02809 18.7021L6.56177 14.1037L5.13757 12.6996ZM2.02809 17.298L0.712102 15.9632L-0.712102 17.3674L0.603886 18.7021L2.02809 17.298ZM0.712101 17.3674L5.27751 12.7368L3.85331 11.3326L-0.712101 15.9632L0.712101 17.3674ZM2.11114 7.55066C2.11114 9.44738 2.72223 11.2036 3.75729 12.6237L5.37354 11.4457C4.58074 10.358 4.11114 9.01205 4.11114 7.55066H2.11114ZM10.5555 -1C5.87849 -1 2.11114 2.84167 2.11114 7.55066H4.11114C4.11114 3.91941 7.0097 1 10.5555 1V-1ZM18.9999 7.55066C18.9999 2.84167 15.2325 -1 10.5555 -1V1C14.1013 1 16.9999 3.91941 16.9999 7.55066H18.9999Z" fill="#304351" mask="url(#path-1-inside-1)"/>
</svg>
