<?xml version="1.0" standalone="no"?>
<!DOCTYPE svg PUBLIC "-//W3C//DTD SVG 1.1//EN" "http://www.w3.org/Graphics/SVG/1.1/DTD/svg11.dtd" >
<svg xmlns="http://www.w3.org/2000/svg" xmlns:xlink="http://www.w3.org/1999/xlink" version="1.1">
<metadata>
Created by FontForge 20170910 at Mon Aug 13 12:37:43 2018
 By Jimmy Wärting
(c) Copyright (c) 2018 LLC Contrast Foundry (LLC CoFo). All rights reserved.
</metadata>
<defs>
<font id="CoFoSans-Medium" horiz-adv-x="412" >
  <font-face 
    font-family="CoFo Sans Medium"
    font-weight="500"
    font-stretch="normal"
    units-per-em="1000"
    panose-1="2 11 6 3 3 2 2 6 2 3"
    ascent="800"
    descent="-200"
    x-height="484"
    cap-height="680"
    bbox="-344 -270 1295 951"
    underline-thickness="0"
    underline-position="0"
    unicode-range="U+0020-F8FF"
  />
<missing-glyph horiz-adv-x="808" 
d="M100 -194v874h608v-874h-608zM156 -136h496v763h-496v-763zM563 -71l-155 264l-155 -265l-50 29l171 293l-170 289l50 30l154 -262l152 260l50 -29l-169 -288l171 -290z" />
    <glyph glyph-name=".notdef" horiz-adv-x="808" 
d="M100 -194v874h608v-874h-608zM156 -136h496v763h-496v-763zM563 -71l-155 264l-155 -265l-50 29l171 293l-170 289l50 30l154 -262l152 260l50 -29l-169 -288l171 -290z" />
    <glyph glyph-name="uni0000" horiz-adv-x="0" 
 />
    <glyph glyph-name="uni0000" horiz-adv-x="0" 
 />
    <glyph glyph-name="CR" horiz-adv-x="209" 
 />
    <glyph glyph-name="space" unicode=" " horiz-adv-x="209" 
 />
    <glyph glyph-name="uni00A0" unicode="&#xa0;" horiz-adv-x="209" 
 />
    <glyph glyph-name="uniF8FF" unicode="&#xf8ff;" horiz-adv-x="868" 
d="M302 577l18 -3q-4 -24 -20.5 -36.5t-43.5 -12.5q-32 0 -50.5 20.5t-18.5 56.5q0 37 19 57.5t50 20.5q27 0 43.5 -12.5t20.5 -36.5l-18 -3q-3 15 -14 25t-32 10q-25 0 -38 -17t-13 -44q0 -28 13.5 -44t37.5 -16q21 0 32 9.5t14 25.5zM341 602q0 36 20 57t53 21t52.5 -21
t19.5 -57t-19.5 -56.5t-52.5 -20.5t-53 20.5t-20 56.5zM618 527l-82 126v-126h-19v151h24l84 -128v128h18v-151h-25zM467 602q0 28 -14 44.5t-39 16.5t-39.5 -16.5t-14.5 -44.5q0 -27 14.5 -43.5t39.5 -16.5t39 16.5t14 43.5zM573 394q3 -14 14.5 -21t27.5 -7q19 0 28.5 6.5
t9.5 18.5q0 10 -6 16t-19 8l-26 4q-22 4 -33 14t-11 29q0 21 17 31.5t41 10.5q25 0 39 -10.5t18 -29.5l-18 -3q-3 11 -12 18.5t-28 7.5q-17 0 -28 -6.5t-11 -18.5t7.5 -17.5t23.5 -8.5l26 -4q19 -3 29.5 -12.5t10.5 -27.5q0 -22 -16.5 -32.5t-41.5 -10.5q-24 0 -40 10
t-20 32zM118 502h130v-17h-56v-133h-18v133h-56v17zM270 502h58q25 0 38 -12.5t13 -34.5q0 -16 -7 -27.5t-23 -15.5l38 -60h-24l-35 57h-39v-57h-19v150zM687 502h131v-17h-55v-133h-20v133h-56v17zM539 352h-20l-17 42h-68l-14 -42h-22l59 150h24zM496 411l-28 74l-27 -74
h55zM328 427q18 0 25 7.5t7 20.5q0 16 -7 23t-25 7h-39v-58h39zM177 251q0 36 20 56.5t52 20.5q34 0 53 -20.5t19 -56.5q0 -37 -19 -57t-53 -20q-32 0 -52 20t-20 57zM50 326h105v-17h-86v-52h83v-18h-83v-63h-19v150zM456 326h19v-91q0 -31 -15.5 -46t-46.5 -15t-46 15
t-15 46v91h19v-91q0 -26 11.5 -35t30.5 -9q20 0 31.5 9t11.5 35v91zM611 176l-81 126v-126h-18v150h23l84 -128v128h18v-150h-26zM676 326h57q36 0 54 -19.5t18 -55.5t-18.5 -55.5t-55.5 -19.5h-55v150zM302 251q0 28 -14 44t-39 16t-39 -16t-14 -44q0 -27 14 -43.5
t39 -16.5t39 16.5t14 43.5zM732 193q27 0 40.5 15.5t13.5 42.5q0 28 -13.5 43t-40.5 15h-37v-116h37zM341 150h58q25 0 38 -12t13 -34q0 -16 -7 -28t-23 -16l38 -60h-24l-35 57h-39v-57h-19v150zM521 57l-60 93h22l48 -73l47 73h22l-60 -91v-59h-19v57zM399 75q18 0 25.5 8
t7.5 21q0 16 -7.5 22.5t-25.5 6.5h-39v-58h39z" />
    <glyph glyph-name="uni2004" unicode="&#x2004;" horiz-adv-x="320" 
 />
    <glyph glyph-name="uni2007" unicode="&#x2007;" horiz-adv-x="524" 
 />
    <glyph glyph-name="uni2009" unicode="&#x2009;" horiz-adv-x="160" 
 />
    <glyph glyph-name="uni200A" unicode="&#x200a;" horiz-adv-x="80" 
 />
    <glyph glyph-name="uni200B" unicode="&#x200b;" horiz-adv-x="0" 
 />
    <glyph glyph-name="A" unicode="A" horiz-adv-x="710" 
d="M433 680l257 -680h-130l-63 172h-288l-61 -172h-128l255 680h158zM249 282h208l-105 289z" />
    <glyph glyph-name="Agrave" unicode="&#xc0;" horiz-adv-x="710" 
d="M433 680l257 -680h-130l-63 172h-288l-61 -172h-128l255 680h158zM249 282h208l-105 289zM315 876l94 -136h-112l-115 136h133z" />
    <glyph glyph-name="Aacute" unicode="&#xc1;" horiz-adv-x="710" 
d="M433 680l257 -680h-130l-63 172h-288l-61 -172h-128l255 680h158zM249 282h208l-105 289zM387 876h133l-115 -136h-111z" />
    <glyph glyph-name="Acircumflex" unicode="&#xc2;" horiz-adv-x="710" 
d="M433 680l257 -680h-130l-63 172h-288l-61 -172h-128l255 680h158zM249 282h208l-105 289zM293 876h124l118 -136h-116l-64 75l-64 -75h-116z" />
    <glyph glyph-name="Atilde" unicode="&#xc3;" horiz-adv-x="710" 
d="M433 680l257 -680h-130l-63 172h-288l-61 -172h-128l255 680h158zM249 282h208l-105 289zM190 745v16q0 51 24.5 82t64.5 31q21 0 37.5 -7.5t29.5 -16t24.5 -16t23.5 -7.5q14 0 20 10t6 26v11h77v-16q0 -50 -21.5 -81.5t-63.5 -31.5q-21 0 -38 7.5t-31 16t-26 16t-22 7.5
q-15 0 -21.5 -11t-6.5 -26v-10h-77z" />
    <glyph glyph-name="Adieresis" unicode="&#xc4;" horiz-adv-x="710" 
d="M433 680l257 -680h-130l-63 172h-288l-61 -172h-128l255 680h158zM249 282h208l-105 289zM201 756v109h111v-109h-111zM395 756v109h111v-109h-111z" />
    <glyph glyph-name="Aring" unicode="&#xc5;" horiz-adv-x="710" 
d="M433 680l257 -680h-130l-63 172h-288l-61 -172h-128l255 680h158zM249 282h208l-105 289zM354 611q-56 0 -94.5 36t-38.5 93t38 92.5t95 35.5t94.5 -35.5t37.5 -92.5t-37.5 -93t-94.5 -36zM354 680q28 0 44 17.5t16 42.5t-16 42t-44 17q-27 0 -43.5 -17t-16.5 -42
t16.5 -42.5t43.5 -17.5z" />
    <glyph glyph-name="Amacron" unicode="&#x100;" horiz-adv-x="710" 
d="M433 680l257 -680h-130l-63 172h-288l-61 -172h-128l255 680h158zM249 282h208l-105 289zM500 769h-294v85h294v-85z" />
    <glyph glyph-name="Abreve" unicode="&#x102;" horiz-adv-x="710" 
d="M433 680l257 -680h-130l-63 172h-288l-61 -172h-128l255 680h158zM249 282h208l-105 289zM353 739q-77 0 -112.5 38t-39.5 98h87q4 -27 19 -44.5t46 -17.5t45 17t18 45h88q-4 -60 -39.5 -98t-111.5 -38z" />
    <glyph glyph-name="Aogonek" unicode="&#x104;" horiz-adv-x="710" 
d="M628 -203q-55 0 -96 24.5t-41 75.5q0 34 19.5 60t48.5 45l-62 170h-288l-61 -172h-128l255 680h158l257 -680q-37 -12 -62 -33t-25 -46q0 -21 16 -30.5t40 -9.5q12 0 21 1.5t16 2.5l5 -78q-12 -4 -31.5 -7t-41.5 -3zM249 282h208l-105 289z" />
    <glyph glyph-name="AE" unicode="&#xc6;" horiz-adv-x="981" 
d="M8 0l419 680h492v-111h-325l9 -173h302v-105h-296l10 -180h297v-111h-412l-8 174h-249l-105 -174h-134zM312 282h178l-13 275z" />
    <glyph glyph-name="AEacute" unicode="&#x1fc;" horiz-adv-x="981" 
d="M8 0l419 680h492v-111h-325l9 -173h302v-105h-296l10 -180h297v-111h-412l-8 174h-249l-105 -174h-134zM312 282h178l-13 275zM603 876h133l-115 -136h-111z" />
    <glyph glyph-name="uni01E2" unicode="&#x1e2;" horiz-adv-x="981" 
d="M8 0l419 680h492v-111h-325l9 -173h302v-105h-296l10 -180h297v-111h-412l-8 174h-249l-105 -174h-134zM312 282h178l-13 275zM785 763h-294v85h294v-85z" />
    <glyph glyph-name="B" unicode="B" horiz-adv-x="662" 
d="M80 0v680h291q104 0 165 -44.5t61 -141.5q0 -46 -22 -87t-79 -61q65 -16 92 -57t27 -101q0 -96 -64.5 -142t-177.5 -46h-293zM360 576h-159v-182h153q66 0 93.5 23t27.5 70q0 48 -26 68.5t-89 20.5zM363 293h-162v-189h166q66 0 95.5 22.5t29.5 71.5t-30 72t-99 23z" />
    <glyph glyph-name="C" unicode="C" horiz-adv-x="721" 
d="M376 99q81 0 124.5 37.5t56.5 99.5l120 -20q-21 -110 -96 -168t-205 -58q-74 0 -134 23t-102.5 67.5t-65.5 109.5t-23 149q0 86 24 152t67 110t103 66.5t132 22.5q129 0 204.5 -59t94.5 -166l-120 -20q-15 59 -57 97.5t-122 38.5q-96 0 -149.5 -64.5t-53.5 -177.5
q0 -111 54 -175.5t148 -64.5z" />
    <glyph glyph-name="Ccedilla" unicode="&#xc7;" horiz-adv-x="721" 
d="M376 99q81 0 124.5 37.5t56.5 99.5l120 -20q-19 -99 -82.5 -156.5t-171.5 -67.5l-32 -36q49 -1 74.5 -20t25.5 -61t-33 -67.5t-92 -25.5q-55 0 -86.5 18.5t-38.5 58.5l73 16q5 -16 17.5 -24.5t34.5 -8.5q21 0 32.5 7.5t11.5 23.5q0 18 -17 24.5t-54 4.5l-27 -1v48l36 42
q-135 8 -216 98.5t-81 249.5q0 86 24 152t67 110t103 66.5t132 22.5q129 0 204.5 -59t94.5 -166l-120 -20q-15 59 -57 97.5t-122 38.5q-96 0 -149.5 -64.5t-53.5 -177.5q0 -111 54 -175.5t148 -64.5z" />
    <glyph glyph-name="Cacute" unicode="&#x106;" horiz-adv-x="721" 
d="M376 99q81 0 124.5 37.5t56.5 99.5l120 -20q-21 -110 -96 -168t-205 -58q-74 0 -134 23t-102.5 67.5t-65.5 109.5t-23 149q0 86 24 152t67 110t103 66.5t132 22.5q129 0 204.5 -59t94.5 -166l-120 -20q-15 59 -57 97.5t-122 38.5q-96 0 -149.5 -64.5t-53.5 -177.5
q0 -111 54 -175.5t148 -64.5zM388 876h133l-115 -136h-111z" />
    <glyph glyph-name="Ccircumflex" unicode="&#x108;" horiz-adv-x="721" 
d="M376 99q81 0 124.5 37.5t56.5 99.5l120 -20q-21 -110 -96 -168t-205 -58q-74 0 -134 23t-102.5 67.5t-65.5 109.5t-23 149q0 86 24 152t67 110t103 66.5t132 22.5q129 0 204.5 -59t94.5 -166l-120 -20q-15 59 -57 97.5t-122 38.5q-96 0 -149.5 -64.5t-53.5 -177.5
q0 -111 54 -175.5t148 -64.5zM310 876h124l118 -136h-116l-64 75l-64 -75h-116z" />
    <glyph glyph-name="Cdotaccent" unicode="&#x10a;" horiz-adv-x="721" 
d="M376 99q81 0 124.5 37.5t56.5 99.5l120 -20q-21 -110 -96 -168t-205 -58q-74 0 -134 23t-102.5 67.5t-65.5 109.5t-23 149q0 86 24 152t67 110t103 66.5t132 22.5q129 0 204.5 -59t94.5 -166l-120 -20q-15 59 -57 97.5t-122 38.5q-96 0 -149.5 -64.5t-53.5 -177.5
q0 -111 54 -175.5t148 -64.5zM315 752v113h124v-113h-124z" />
    <glyph glyph-name="Ccaron" unicode="&#x10c;" horiz-adv-x="721" 
d="M376 99q81 0 124.5 37.5t56.5 99.5l120 -20q-21 -110 -96 -168t-205 -58q-74 0 -134 23t-102.5 67.5t-65.5 109.5t-23 149q0 86 24 152t67 110t103 66.5t132 22.5q129 0 204.5 -59t94.5 -166l-120 -20q-15 59 -57 97.5t-122 38.5q-96 0 -149.5 -64.5t-53.5 -177.5
q0 -111 54 -175.5t148 -64.5zM303 740l-117 136h115l64 -75l63 75h116l-117 -136h-124z" />
    <glyph glyph-name="D" unicode="D" horiz-adv-x="731" 
d="M80 0v680h260q165 0 253 -86.5t88 -253.5q0 -169 -89.5 -254.5t-261.5 -85.5h-250zM202 111h133q113 0 167 59.5t54 169.5q0 116 -54.5 172.5t-167.5 56.5h-132v-458z" />
    <glyph glyph-name="Dcaron" unicode="&#x10e;" horiz-adv-x="731" 
d="M80 0v680h260q165 0 253 -86.5t88 -253.5q0 -169 -89.5 -254.5t-261.5 -85.5h-250zM202 111h133q113 0 167 59.5t54 169.5q0 116 -54.5 172.5t-167.5 56.5h-132v-458zM265 740l-117 136h115l64 -75l63 75h116l-117 -136h-124z" />
    <glyph glyph-name="Dcroat" unicode="&#x110;" horiz-adv-x="731" 
d="M80 0v294h-68v98h68v288h260q165 0 253 -86.5t88 -253.5q0 -169 -89.5 -254.5t-261.5 -85.5h-250zM201 111h134q113 0 167 59.5t54 169.5q0 116 -54.5 172.5t-167.5 56.5h-133v-177h151v-98h-151v-183z" />
    <glyph glyph-name="Eth" unicode="&#xd0;" horiz-adv-x="731" 
d="M80 0v294h-68v98h68v288h260q165 0 253 -86.5t88 -253.5q0 -169 -89.5 -254.5t-261.5 -85.5h-250zM201 111h134q113 0 167 59.5t54 169.5q0 116 -54.5 172.5t-167.5 56.5h-133v-177h151v-98h-151v-183z" />
    <glyph glyph-name="E" unicode="E" horiz-adv-x="627" 
d="M80 0v680h485v-108h-363v-177h349v-105h-349v-182h360v-108h-482z" />
    <glyph glyph-name="Egrave" unicode="&#xc8;" horiz-adv-x="627" 
d="M80 0v680h485v-108h-363v-177h349v-105h-349v-182h360v-108h-482zM308 876l94 -136h-112l-115 136h133z" />
    <glyph glyph-name="Eacute" unicode="&#xc9;" horiz-adv-x="627" 
d="M80 0v680h485v-108h-363v-177h349v-105h-349v-182h360v-108h-482zM332 876h133l-115 -136h-111z" />
    <glyph glyph-name="Ecircumflex" unicode="&#xca;" horiz-adv-x="627" 
d="M80 0v680h485v-108h-363v-177h349v-105h-349v-182h360v-108h-482zM264 876h124l118 -136h-116l-64 75l-64 -75h-116z" />
    <glyph glyph-name="Edieresis" unicode="&#xcb;" horiz-adv-x="627" 
d="M80 0v680h485v-108h-363v-177h349v-105h-349v-182h360v-108h-482zM180 756v109h111v-109h-111zM374 756v109h111v-109h-111z" />
    <glyph glyph-name="Emacron" unicode="&#x112;" horiz-adv-x="627" 
d="M80 0v680h485v-108h-363v-177h349v-105h-349v-182h360v-108h-482zM473 763h-294v85h294v-85z" />
    <glyph glyph-name="Ebreve" unicode="&#x114;" horiz-adv-x="627" 
d="M80 0v680h485v-108h-363v-177h349v-105h-349v-182h360v-108h-482zM327 739q-77 0 -112.5 38t-39.5 98h87q4 -27 19 -44.5t46 -17.5t45 17t18 45h88q-4 -60 -39.5 -98t-111.5 -38z" />
    <glyph glyph-name="Edotaccent" unicode="&#x116;" horiz-adv-x="627" 
d="M80 0v680h485v-108h-363v-177h349v-105h-349v-182h360v-108h-482zM261 752v113h124v-113h-124z" />
    <glyph glyph-name="Eogonek" unicode="&#x118;" horiz-adv-x="627" 
d="M80 0v680h485v-108h-363v-177h349v-105h-349v-182h360v-108q-33 -12 -57 -33.5t-24 -44.5q0 -22 16.5 -31.5t41.5 -9.5q11 0 19.5 1.5t14.5 2.5l5 -78q-13 -4 -32 -7t-41 -3q-55 0 -96 23.5t-41 73.5q0 34 20.5 61.5t52.5 44.5h-361z" />
    <glyph glyph-name="Ecaron" unicode="&#x11a;" horiz-adv-x="627" 
d="M80 0v680h485v-108h-363v-177h349v-105h-349v-182h360v-108h-482zM267 740l-117 136h115l64 -75l63 75h116l-117 -136h-124z" />
    <glyph glyph-name="uni1EBC" unicode="&#x1ebc;" horiz-adv-x="627" 
d="M80 0v680h485v-108h-363v-177h349v-105h-349v-182h360v-108h-482zM180 745v16q0 51 24.5 82t64.5 31q21 0 37.5 -7.5t29.5 -16t24.5 -16t23.5 -7.5q14 0 20 10t6 26v11h77v-16q0 -50 -21.5 -81.5t-63.5 -31.5q-21 0 -38 7.5t-31 16t-26 16t-22 7.5q-15 0 -21.5 -11
t-6.5 -26v-10h-77z" />
    <glyph glyph-name="F" unicode="F" horiz-adv-x="610" 
d="M80 0v680h485v-109h-363v-188h347v-106h-347v-277h-122z" />
    <glyph glyph-name="G" unicode="G" horiz-adv-x="748" 
d="M682 337v-337h-103v67q-36 -35 -88 -56t-115 -21q-74 0 -134.5 23.5t-102.5 68t-65 110t-23 148.5q0 87 25 152.5t69 109.5t106 66t136 22q122 0 198 -54.5t97 -161.5l-121 -19q-14 54 -56.5 90t-117.5 36q-99 0 -155.5 -64t-56.5 -177q0 -112 56 -176t157 -64
q81 0 132.5 39t51.5 92v8h-166v98h276z" />
    <glyph glyph-name="Gcircumflex" unicode="&#x11c;" horiz-adv-x="748" 
d="M682 337v-337h-103v67q-36 -35 -88 -56t-115 -21q-74 0 -134.5 23.5t-102.5 68t-65 110t-23 148.5q0 87 25 152.5t69 109.5t106 66t136 22q122 0 198 -54.5t97 -161.5l-121 -19q-14 54 -56.5 90t-117.5 36q-99 0 -155.5 -64t-56.5 -177q0 -112 56 -176t157 -64
q81 0 132.5 39t51.5 92v8h-166v98h276zM308 876h124l118 -136h-116l-64 75l-64 -75h-116z" />
    <glyph glyph-name="Gbreve" unicode="&#x11e;" horiz-adv-x="748" 
d="M682 337v-337h-103v67q-36 -35 -88 -56t-115 -21q-74 0 -134.5 23.5t-102.5 68t-65 110t-23 148.5q0 87 25 152.5t69 109.5t106 66t136 22q122 0 198 -54.5t97 -161.5l-121 -19q-14 54 -56.5 90t-117.5 36q-99 0 -155.5 -64t-56.5 -177q0 -112 56 -176t157 -64
q81 0 132.5 39t51.5 92v8h-166v98h276zM374 739q-77 0 -112.5 38t-39.5 98h87q4 -27 19 -44.5t46 -17.5t45 17t18 45h88q-4 -60 -39.5 -98t-111.5 -38z" />
    <glyph glyph-name="Gdotaccent" unicode="&#x120;" horiz-adv-x="748" 
d="M682 337v-337h-103v67q-36 -35 -88 -56t-115 -21q-74 0 -134.5 23.5t-102.5 68t-65 110t-23 148.5q0 87 25 152.5t69 109.5t106 66t136 22q122 0 198 -54.5t97 -161.5l-121 -19q-14 54 -56.5 90t-117.5 36q-99 0 -155.5 -64t-56.5 -177q0 -112 56 -176t157 -64
q81 0 132.5 39t51.5 92v8h-166v98h276zM316 752v113h124v-113h-124z" />
    <glyph glyph-name="Gcommaaccent" unicode="&#x122;" horiz-adv-x="748" 
d="M682 337v-337h-103v67q-36 -35 -88 -56t-115 -21q-74 0 -134.5 23.5t-102.5 68t-65 110t-23 148.5q0 87 25 152.5t69 109.5t106 66t136 22q122 0 198 -54.5t97 -161.5l-121 -19q-14 54 -56.5 90t-117.5 36q-99 0 -155.5 -64t-56.5 -177q0 -112 56 -176t157 -64
q81 0 132.5 39t51.5 92v8h-166v98h276zM331 -157v97h119v-72q0 -60 -26 -94t-89 -44l-11 53q33 6 49 22t18 38h-60z" />
    <glyph glyph-name="H" unicode="H" horiz-adv-x="735" 
d="M80 0v680h122v-281h331v281h122v-680h-122v286h-331v-286h-122z" />
    <glyph glyph-name="Hcircumflex" unicode="&#x124;" horiz-adv-x="735" 
d="M80 0v680h122v-281h331v281h122v-680h-122v286h-331v-286h-122zM309 876h124l118 -136h-116l-64 75l-64 -75h-116z" />
    <glyph glyph-name="Hbar" unicode="&#x126;" horiz-adv-x="735" 
d="M80 0v497h-68v88h68v95h120v-95h335v95h120v-95h68v-88h-68v-497h-120v286h-335v-286h-120zM200 397h335v100h-335v-100z" />
    <glyph glyph-name="I" unicode="I" horiz-adv-x="282" 
d="M80 0v680h122v-680h-122z" />
    <glyph glyph-name="I.alt" horiz-adv-x="528" 
d="M42 110h162v460h-162v110h444v-110h-162v-460h162v-110h-444v110z" />
    <glyph glyph-name="Igrave" unicode="&#xcc;" horiz-adv-x="282" 
d="M80 0v680h122v-680h-122zM110 876l94 -136h-112l-115 136h133z" />
    <glyph glyph-name="Iacute" unicode="&#xcd;" horiz-adv-x="282" 
d="M80 0v680h122v-680h-122zM175 876h133l-115 -136h-111z" />
    <glyph glyph-name="Icircumflex" unicode="&#xce;" horiz-adv-x="282" 
d="M80 0v680h122v-680h-122zM83 876h124l118 -136h-116l-64 75l-64 -75h-116z" />
    <glyph glyph-name="Idieresis" unicode="&#xcf;" horiz-adv-x="282" 
d="M80 0v680h122v-680h-122zM-10 756v109h111v-109h-111zM184 756v109h111v-109h-111z" />
    <glyph glyph-name="Itilde" unicode="&#x128;" horiz-adv-x="282" 
d="M80 0v680h122v-680h-122zM-11 745v16q0 51 24.5 82t64.5 31q21 0 37.5 -7.5t29.5 -16t24.5 -16t23.5 -7.5q14 0 20 10t6 26v11h77v-16q0 -50 -21.5 -81.5t-63.5 -31.5q-21 0 -38 7.5t-31 16t-26 16t-22 7.5q-15 0 -21.5 -11t-6.5 -26v-10h-77z" />
    <glyph glyph-name="Imacron" unicode="&#x12a;" horiz-adv-x="282" 
d="M80 0v680h122v-680h-122zM288 763h-294v85h294v-85z" />
    <glyph glyph-name="Ibreve" unicode="&#x12c;" horiz-adv-x="282" 
d="M80 0v680h122v-680h-122zM142 739q-77 0 -112.5 38t-39.5 98h87q4 -27 19 -44.5t46 -17.5t45 17t18 45h88q-4 -60 -39.5 -98t-111.5 -38z" />
    <glyph glyph-name="Iogonek" unicode="&#x12e;" horiz-adv-x="282" 
d="M150 -203q-55 0 -95.5 24.5t-40.5 75.5q0 34 19 60t47 44v679h122v-680q-33 -13 -54.5 -34t-21.5 -45q0 -21 15.5 -30.5t39.5 -9.5q13 0 21.5 1.5t15.5 2.5l5 -78q-12 -4 -31.5 -7t-41.5 -3z" />
    <glyph glyph-name="Idotaccent" unicode="&#x130;" horiz-adv-x="282" 
d="M80 0v680h122v-680h-122zM79 752v113h124v-113h-124z" />
    <glyph glyph-name="J" unicode="J" horiz-adv-x="397" 
d="M325 680v-477q0 -106 -50.5 -154.5t-151.5 -48.5h-97v112h73q52 0 78 22.5t26 75.5v470h122z" />
    <glyph glyph-name="Jcircumflex" unicode="&#x134;" horiz-adv-x="397" 
d="M325 680v-477q0 -106 -50.5 -154.5t-151.5 -48.5h-97v112h73q52 0 78 22.5t26 75.5v470h122zM197 876h124l118 -136h-116l-64 75l-64 -75h-116z" />
    <glyph glyph-name="IJ" unicode="&#x132;" horiz-adv-x="653" 
d="M80 0v680h122v-680h-122zM581 680v-477q0 -106 -50.5 -154.5t-151.5 -48.5h-97v112h73q52 0 78 22.5t26 75.5v470h122z" />
    <glyph glyph-name="uni00CD00A40301" horiz-adv-x="653" 
d="M80 0v680h122v-680h-122zM581 680v-477q0 -106 -50.5 -154.5t-151.5 -48.5h-97v112h73q52 0 78 22.5t26 75.5v470h122zM177 876h133l-115 -136h-111zM549 876h133l-115 -136h-111z" />
    <glyph glyph-name="K" unicode="K" horiz-adv-x="664" 
d="M80 0v680h122v-280h102l192 280h145l-238 -333l247 -347h-150l-197 286h-101v-286h-122z" />
    <glyph glyph-name="Kcommaaccent" unicode="&#x136;" horiz-adv-x="664" 
d="M80 0v680h122v-280h102l192 280h145l-238 -333l247 -347h-150l-197 286h-101v-286h-122zM291 -151v97h119v-72q0 -60 -26 -94t-89 -44l-11 53q33 6 49 22t18 38h-60z" />
    <glyph glyph-name="L" unicode="L" horiz-adv-x="582" 
d="M556 114v-114h-476v680h122v-566h354z" />
    <glyph glyph-name="Lacute" unicode="&#x139;" horiz-adv-x="582" 
d="M556 114v-114h-476v680h122v-566h354zM174 876h133l-115 -136h-111z" />
    <glyph glyph-name="Lcommaaccent" unicode="&#x13b;" horiz-adv-x="582" 
d="M556 114v-114h-476v680h122v-566h354zM273 -151v97h119v-72q0 -60 -26 -94t-89 -44l-11 53q33 6 49 22t18 38h-60z" />
    <glyph glyph-name="Lcaron" unicode="&#x13d;" horiz-adv-x="582" 
d="M556 114v-114h-476v680h122v-566h354zM295 690h107l-63 -196h-77z" />
    <glyph glyph-name="Ldot" unicode="&#x13f;" horiz-adv-x="582" 
d="M556 114v-114h-476v680h122v-566h354zM373 291v121h119v-121h-119z" />
    <glyph glyph-name="Lslash" unicode="&#x141;" horiz-adv-x="595" 
d="M569 114v-114h-476v276l-67 -36v102l67 37v301h121v-243l151 82v-103l-151 -82v-220h355z" />
    <glyph glyph-name="M" unicode="M" horiz-adv-x="902" 
d="M395 62l-201 469v-531h-114v680h175l199 -471l196 471h172v-680h-119v532l-200 -470h-108z" />
    <glyph glyph-name="N" unicode="N" horiz-adv-x="757" 
d="M677 0h-141l-337 498v-498h-119v680h136l343 -507v507h118v-680z" />
    <glyph glyph-name="Ntilde" unicode="&#xd1;" horiz-adv-x="757" 
d="M677 0h-141l-337 498v-498h-119v680h136l343 -507v507h118v-680zM232 745v16q0 51 24.5 82t64.5 31q21 0 37.5 -7.5t29.5 -16t24.5 -16t23.5 -7.5q14 0 20 10t6 26v11h77v-16q0 -50 -21.5 -81.5t-63.5 -31.5q-21 0 -38 7.5t-31 16t-26 16t-22 7.5q-15 0 -21.5 -11
t-6.5 -26v-10h-77z" />
    <glyph glyph-name="Nacute" unicode="&#x143;" horiz-adv-x="757" 
d="M677 0h-141l-337 498v-498h-119v680h136l343 -507v507h118v-680zM395 876h133l-115 -136h-111z" />
    <glyph glyph-name="Ncommaaccent" unicode="&#x145;" horiz-adv-x="757" 
d="M677 0h-141l-337 498v-498h-119v680h136l343 -507v507h118v-680zM320 -151v97h119v-72q0 -60 -26 -94t-89 -44l-11 53q33 6 49 22t18 38h-60z" />
    <glyph glyph-name="Ncaron" unicode="&#x147;" horiz-adv-x="757" 
d="M677 0h-141l-337 498v-498h-119v680h136l343 -507v507h118v-680zM317 740l-117 136h115l64 -75l63 75h116l-117 -136h-124z" />
    <glyph glyph-name="uni1E46" unicode="&#x1e46;" horiz-adv-x="757" 
d="M677 0h-141l-337 498v-498h-119v680h136l343 -507v507h118v-680zM315 -173v112h122v-112h-122z" />
    <glyph glyph-name="Eng" unicode="&#x14a;" horiz-adv-x="759" 
d="M679 680v-675q0 -101 -48.5 -147t-142.5 -46h-66v109h51q44 0 63.5 22t19.5 69l-351 489v-501h-125v680h140l334 -466v466h125z" />
    <glyph glyph-name="O" unicode="O" horiz-adv-x="770" 
d="M385 -10q-74 0 -135.5 22.5t-105.5 66.5t-68.5 109.5t-24.5 151.5q0 84 24.5 150t68.5 110t105.5 67t135.5 23q75 0 137 -23t105.5 -67t68 -110t24.5 -150q0 -86 -24.5 -151.5t-68 -109.5t-105.5 -66.5t-137 -22.5zM385 99q101 0 156 65.5t55 175.5q0 111 -55 176
t-156 65q-100 0 -155.5 -65t-55.5 -176q0 -110 55.5 -175.5t155.5 -65.5z" />
    <glyph glyph-name="Ograve" unicode="&#xd2;" horiz-adv-x="770" 
d="M385 -10q-74 0 -135.5 22.5t-105.5 66.5t-68.5 109.5t-24.5 151.5q0 84 24.5 150t68.5 110t105.5 67t135.5 23q75 0 137 -23t105.5 -67t68 -110t24.5 -150q0 -86 -24.5 -151.5t-68 -109.5t-105.5 -66.5t-137 -22.5zM385 99q101 0 156 65.5t55 175.5q0 111 -55 176
t-156 65q-100 0 -155.5 -65t-55.5 -176q0 -110 55.5 -175.5t155.5 -65.5zM360 876l94 -136h-112l-115 136h133z" />
    <glyph glyph-name="Oacute" unicode="&#xd3;" horiz-adv-x="770" 
d="M385 -10q-74 0 -135.5 22.5t-105.5 66.5t-68.5 109.5t-24.5 151.5q0 84 24.5 150t68.5 110t105.5 67t135.5 23q75 0 137 -23t105.5 -67t68 -110t24.5 -150q0 -86 -24.5 -151.5t-68 -109.5t-105.5 -66.5t-137 -22.5zM385 99q101 0 156 65.5t55 175.5q0 111 -55 176
t-156 65q-100 0 -155.5 -65t-55.5 -176q0 -110 55.5 -175.5t155.5 -65.5zM406 876h133l-115 -136h-111z" />
    <glyph glyph-name="Ocircumflex" unicode="&#xd4;" horiz-adv-x="770" 
d="M385 -10q-74 0 -135.5 22.5t-105.5 66.5t-68.5 109.5t-24.5 151.5q0 84 24.5 150t68.5 110t105.5 67t135.5 23q75 0 137 -23t105.5 -67t68 -110t24.5 -150q0 -86 -24.5 -151.5t-68 -109.5t-105.5 -66.5t-137 -22.5zM385 99q101 0 156 65.5t55 175.5q0 111 -55 176
t-156 65q-100 0 -155.5 -65t-55.5 -176q0 -110 55.5 -175.5t155.5 -65.5zM330 876h124l118 -136h-116l-64 75l-64 -75h-116z" />
    <glyph glyph-name="Otilde" unicode="&#xd5;" horiz-adv-x="770" 
d="M385 -10q-74 0 -135.5 22.5t-105.5 66.5t-68.5 109.5t-24.5 151.5q0 84 24.5 150t68.5 110t105.5 67t135.5 23q75 0 137 -23t105.5 -67t68 -110t24.5 -150q0 -86 -24.5 -151.5t-68 -109.5t-105.5 -66.5t-137 -22.5zM385 99q101 0 156 65.5t55 175.5q0 111 -55 176
t-156 65q-100 0 -155.5 -65t-55.5 -176q0 -110 55.5 -175.5t155.5 -65.5zM233 745v16q0 51 24.5 82t64.5 31q21 0 37.5 -7.5t29.5 -16t24.5 -16t23.5 -7.5q14 0 20 10t6 26v11h77v-16q0 -50 -21.5 -81.5t-63.5 -31.5q-21 0 -38 7.5t-31 16t-26 16t-22 7.5q-15 0 -21.5 -11
t-6.5 -26v-10h-77z" />
    <glyph glyph-name="Odieresis" unicode="&#xd6;" horiz-adv-x="770" 
d="M385 -10q-74 0 -135.5 22.5t-105.5 66.5t-68.5 109.5t-24.5 151.5q0 84 24.5 150t68.5 110t105.5 67t135.5 23q75 0 137 -23t105.5 -67t68 -110t24.5 -150q0 -86 -24.5 -151.5t-68 -109.5t-105.5 -66.5t-137 -22.5zM385 99q101 0 156 65.5t55 175.5q0 111 -55 176
t-156 65q-100 0 -155.5 -65t-55.5 -176q0 -110 55.5 -175.5t155.5 -65.5zM234 756v109h111v-109h-111zM428 756v109h111v-109h-111z" />
    <glyph glyph-name="Omacron" unicode="&#x14c;" horiz-adv-x="770" 
d="M385 -10q-74 0 -135.5 22.5t-105.5 66.5t-68.5 109.5t-24.5 151.5q0 84 24.5 150t68.5 110t105.5 67t135.5 23q75 0 137 -23t105.5 -67t68 -110t24.5 -150q0 -86 -24.5 -151.5t-68 -109.5t-105.5 -66.5t-137 -22.5zM385 99q101 0 156 65.5t55 175.5q0 111 -55 176
t-156 65q-100 0 -155.5 -65t-55.5 -176q0 -110 55.5 -175.5t155.5 -65.5zM537 763h-294v85h294v-85z" />
    <glyph glyph-name="Obreve" unicode="&#x14e;" horiz-adv-x="770" 
d="M385 -10q-74 0 -135.5 22.5t-105.5 66.5t-68.5 109.5t-24.5 151.5q0 84 24.5 150t68.5 110t105.5 67t135.5 23q75 0 137 -23t105.5 -67t68 -110t24.5 -150q0 -86 -24.5 -151.5t-68 -109.5t-105.5 -66.5t-137 -22.5zM385 99q101 0 156 65.5t55 175.5q0 111 -55 176
t-156 65q-100 0 -155.5 -65t-55.5 -176q0 -110 55.5 -175.5t155.5 -65.5zM386 739q-77 0 -112.5 38t-39.5 98h87q4 -27 19 -44.5t46 -17.5t45 17t18 45h88q-4 -60 -39.5 -98t-111.5 -38z" />
    <glyph glyph-name="Ohungarumlaut" unicode="&#x150;" horiz-adv-x="770" 
d="M385 -10q-74 0 -135.5 22.5t-105.5 66.5t-68.5 109.5t-24.5 151.5q0 84 24.5 150t68.5 110t105.5 67t135.5 23q75 0 137 -23t105.5 -67t68 -110t24.5 -150q0 -86 -24.5 -151.5t-68 -109.5t-105.5 -66.5t-137 -22.5zM385 99q101 0 156 65.5t55 175.5q0 111 -55 176
t-156 65q-100 0 -155.5 -65t-55.5 -176q0 -110 55.5 -175.5t155.5 -65.5zM314 876h127l-117 -136h-105zM507 876h130l-135 -136h-112z" />
    <glyph glyph-name="Oslash" unicode="&#xd8;" horiz-adv-x="770" 
d="M385 -10q-74 0 -135.5 22.5t-105.5 66.5t-68.5 109.5t-24.5 151.5q0 84 24.5 150t68.5 110t105.5 67t135.5 23q75 0 137 -23t105.5 -67t68 -110t24.5 -150q0 -86 -24.5 -151.5t-68 -109.5t-105.5 -66.5t-137 -22.5zM172 340q0 -46 10 -85t29 -69l297 363q-25 17 -55.5 26
t-67.5 9q-100 0 -156.5 -66.5t-56.5 -177.5zM385 96q101 0 157 67t56 177q0 42 -8 78t-24 65l-292 -359q23 -13 51 -20.5t60 -7.5z" />
    <glyph glyph-name="Oslashacute" unicode="&#x1fe;" horiz-adv-x="770" 
d="M385 -10q-74 0 -135.5 22.5t-105.5 66.5t-68.5 109.5t-24.5 151.5q0 84 24.5 150t68.5 110t105.5 67t135.5 23q75 0 137 -23t105.5 -67t68 -110t24.5 -150q0 -86 -24.5 -151.5t-68 -109.5t-105.5 -66.5t-137 -22.5zM172 340q0 -46 10 -85t29 -69l297 363q-25 17 -55.5 26
t-67.5 9q-100 0 -156.5 -66.5t-56.5 -177.5zM385 96q101 0 157 67t56 177q0 42 -8 78t-24 65l-292 -359q23 -13 51 -20.5t60 -7.5zM392 876h133l-115 -136h-111z" />
    <glyph glyph-name="OE" unicode="&#x152;" horiz-adv-x="1027" 
d="M962 0h-424q-24 -4 -53.5 -7t-66.5 -3q-75 0 -137.5 22t-107 65.5t-69.5 109.5t-25 153q0 86 25 151.5t69.5 109.5t107 66.5t137.5 22.5q36 0 67 -3t56 -7h424v-111h-328v-173h314v-105h-314v-180h325v-111zM205 340q0 -110 56 -176t157 -66q27 0 51.5 1.5t46.5 4.5v469
q-22 4 -46 6t-52 2q-101 0 -157 -65t-56 -176z" />
    <glyph glyph-name="P" unicode="P" horiz-adv-x="645" 
d="M80 0v680h290q112 0 175.5 -54.5t63.5 -163.5q0 -108 -64 -164t-183 -56h-160v-242h-122zM202 349h157q66 0 96 29t30 83q0 59 -29.5 85.5t-96.5 26.5h-157v-224z" />
    <glyph glyph-name="Q" unicode="Q" horiz-adv-x="770" 
d="M385 -10q-74 0 -135.5 22.5t-105.5 66.5t-68.5 109.5t-24.5 151.5q0 84 24.5 150t68.5 110t105.5 67t135.5 23q75 0 137 -23t105.5 -67t68 -110t24.5 -150q0 -98 -33.5 -168t-90.5 -113l65 -85l-85 -63l-72 98q-26 -9 -57 -14t-62 -5zM385 97q14 0 27.5 1t25.5 4
l-112 145h126l76 -102q34 32 51 82t17 113q0 111 -55 176t-156 65q-100 0 -155.5 -65t-55.5 -176q0 -112 55.5 -177.5t155.5 -65.5z" />
    <glyph glyph-name="R" unicode="R" horiz-adv-x="672" 
d="M80 0v680h287q112 0 176 -54.5t64 -163.5q0 -78 -34.5 -128.5t-97.5 -72.5l161 -261h-139l-145 244h-150v-244h-122zM202 350h156q67 0 96.5 28.5t29.5 82.5q0 59 -29.5 85.5t-96.5 26.5h-156v-223z" />
    <glyph glyph-name="Racute" unicode="&#x154;" horiz-adv-x="672" 
d="M80 0v680h287q112 0 176 -54.5t64 -163.5q0 -78 -34.5 -128.5t-97.5 -72.5l161 -261h-139l-145 244h-150v-244h-122zM202 350h156q67 0 96.5 28.5t29.5 82.5q0 59 -29.5 85.5t-96.5 26.5h-156v-223zM334 876h133l-115 -136h-111z" />
    <glyph glyph-name="Rcommaaccent" unicode="&#x156;" horiz-adv-x="672" 
d="M80 0v680h287q112 0 176 -54.5t64 -163.5q0 -78 -34.5 -128.5t-97.5 -72.5l161 -261h-139l-145 244h-150v-244h-122zM202 350h156q67 0 96.5 28.5t29.5 82.5q0 59 -29.5 85.5t-96.5 26.5h-156v-223zM286 -151v97h119v-72q0 -60 -26 -94t-89 -44l-11 53q33 6 49 22t18 38
h-60z" />
    <glyph glyph-name="Rcaron" unicode="&#x158;" horiz-adv-x="672" 
d="M80 0v680h287q112 0 176 -54.5t64 -163.5q0 -78 -34.5 -128.5t-97.5 -72.5l161 -261h-139l-145 244h-150v-244h-122zM202 350h156q67 0 96.5 28.5t29.5 82.5q0 59 -29.5 85.5t-96.5 26.5h-156v-223zM256 740l-117 136h115l64 -75l63 75h116l-117 -136h-124z" />
    <glyph glyph-name="S" unicode="S" horiz-adv-x="657" 
d="M49 184l121 20q13 -54 57 -81t112 -27q69 0 108.5 23.5t39.5 64.5q0 37 -23 58t-77 31l-119 22q-93 17 -145.5 61t-52.5 135q0 93 72.5 146t192.5 53q124 0 190 -51.5t82 -138.5l-121 -19q-9 42 -44.5 72.5t-108.5 30.5q-68 0 -104.5 -25.5t-36.5 -65.5q0 -37 26.5 -57.5
t87.5 -31.5l127 -25q86 -16 131.5 -61t45.5 -128q0 -97 -74 -148.5t-201 -51.5q-119 0 -193 47t-93 147z" />
    <glyph glyph-name="Sacute" unicode="&#x15a;" horiz-adv-x="657" 
d="M49 184l121 20q13 -54 57 -81t112 -27q69 0 108.5 23.5t39.5 64.5q0 37 -23 58t-77 31l-119 22q-93 17 -145.5 61t-52.5 135q0 93 72.5 146t192.5 53q124 0 190 -51.5t82 -138.5l-121 -19q-9 42 -44.5 72.5t-108.5 30.5q-68 0 -104.5 -25.5t-36.5 -65.5q0 -37 26.5 -57.5
t87.5 -31.5l127 -25q86 -16 131.5 -61t45.5 -128q0 -97 -74 -148.5t-201 -51.5q-119 0 -193 47t-93 147zM354 876h133l-115 -136h-111z" />
    <glyph glyph-name="Scircumflex" unicode="&#x15c;" horiz-adv-x="657" 
d="M49 184l121 20q13 -54 57 -81t112 -27q69 0 108.5 23.5t39.5 64.5q0 37 -23 58t-77 31l-119 22q-93 17 -145.5 61t-52.5 135q0 93 72.5 146t192.5 53q124 0 190 -51.5t82 -138.5l-121 -19q-9 42 -44.5 72.5t-108.5 30.5q-68 0 -104.5 -25.5t-36.5 -65.5q0 -37 26.5 -57.5
t87.5 -31.5l127 -25q86 -16 131.5 -61t45.5 -128q0 -97 -74 -148.5t-201 -51.5q-119 0 -193 47t-93 147zM277 876h124l118 -136h-116l-64 75l-64 -75h-116z" />
    <glyph glyph-name="Scedilla" unicode="&#x15e;" horiz-adv-x="657" 
d="M49 184l121 20q13 -54 57 -81t112 -27q69 0 108.5 23.5t39.5 64.5q0 37 -23 58t-77 31l-119 22q-93 17 -145.5 61t-52.5 135q0 93 72.5 146t192.5 53q124 0 190 -51.5t82 -138.5l-121 -19q-9 42 -44.5 72.5t-108.5 30.5q-68 0 -104.5 -25.5t-36.5 -65.5q0 -37 26.5 -57.5
t87.5 -31.5l127 -25q86 -16 131.5 -61t45.5 -128q0 -87 -59 -137.5t-163 -60.5l-32 -36q49 -1 74.5 -20t25.5 -61t-33 -67.5t-92 -25.5q-55 0 -86.5 18.5t-38.5 58.5l73 16q5 -16 17.5 -24.5t34.5 -8.5q21 0 32.5 7.5t11.5 23.5q0 18 -17 24.5t-54 4.5l-27 -1v48l36 41
q-110 4 -178 51t-86 143z" />
    <glyph glyph-name="Scaron" unicode="&#x160;" horiz-adv-x="657" 
d="M49 184l121 20q13 -54 57 -81t112 -27q69 0 108.5 23.5t39.5 64.5q0 37 -23 58t-77 31l-119 22q-93 17 -145.5 61t-52.5 135q0 93 72.5 146t192.5 53q124 0 190 -51.5t82 -138.5l-121 -19q-9 42 -44.5 72.5t-108.5 30.5q-68 0 -104.5 -25.5t-36.5 -65.5q0 -37 26.5 -57.5
t87.5 -31.5l127 -25q86 -16 131.5 -61t45.5 -128q0 -97 -74 -148.5t-201 -51.5q-119 0 -193 47t-93 147zM278 740l-117 136h115l64 -75l63 75h116l-117 -136h-124z" />
    <glyph glyph-name="Scommaaccent" unicode="&#x218;" horiz-adv-x="657" 
d="M49 184l121 20q13 -54 57 -81t112 -27q69 0 108.5 23.5t39.5 64.5q0 37 -23 58t-77 31l-119 22q-93 17 -145.5 61t-52.5 135q0 93 72.5 146t192.5 53q124 0 190 -51.5t82 -138.5l-121 -19q-9 42 -44.5 72.5t-108.5 30.5q-68 0 -104.5 -25.5t-36.5 -65.5q0 -37 26.5 -57.5
t87.5 -31.5l127 -25q86 -16 131.5 -61t45.5 -128q0 -97 -74 -148.5t-201 -51.5q-119 0 -193 47t-93 147zM283 -157v97h119v-72q0 -60 -26 -94t-89 -44l-11 53q33 6 49 22t18 38h-60z" />
    <glyph glyph-name="uni1E62" unicode="&#x1e62;" horiz-adv-x="657" 
d="M49 184l121 20q13 -54 57 -81t112 -27q69 0 108.5 23.5t39.5 64.5q0 37 -23 58t-77 31l-119 22q-93 17 -145.5 61t-52.5 135q0 93 72.5 146t192.5 53q124 0 190 -51.5t82 -138.5l-121 -19q-9 42 -44.5 72.5t-108.5 30.5q-68 0 -104.5 -25.5t-36.5 -65.5q0 -37 26.5 -57.5
t87.5 -31.5l127 -25q86 -16 131.5 -61t45.5 -128q0 -97 -74 -148.5t-201 -51.5q-119 0 -193 47t-93 147zM279 -173v112h122v-112h-122z" />
    <glyph glyph-name="T" unicode="T" horiz-adv-x="643" 
d="M20 566v114h603v-114h-240v-566h-122v566h-241z" />
    <glyph glyph-name="uni0162" unicode="&#x162;" horiz-adv-x="643" 
d="M20 566v114h603v-114h-240v-566h-122v566h-241zM261 -151v97h119v-72q0 -60 -26 -94t-89 -44l-11 53q33 6 49 22t18 38h-60z" />
    <glyph glyph-name="Tcaron" unicode="&#x164;" horiz-adv-x="643" 
d="M20 566v114h603v-114h-240v-566h-122v566h-241zM260 740l-117 136h115l64 -75l63 75h116l-117 -136h-124z" />
    <glyph glyph-name="uni021A" unicode="&#x21a;" horiz-adv-x="643" 
d="M20 566v114h603v-114h-240v-566h-122v566h-241zM261 -151v97h119v-72q0 -60 -26 -94t-89 -44l-11 53q33 6 49 22t18 38h-60z" />
    <glyph glyph-name="Tbar" unicode="&#x166;" horiz-adv-x="643" 
d="M20 566v114h603v-114h-241v-203h133v-97h-133v-267l-120 1v266h-133v97h133v203h-242z" />
    <glyph glyph-name="U" unicode="U" horiz-adv-x="723" 
d="M528 270v410h122v-409q0 -140 -70 -210.5t-215 -70.5t-218 70.5t-73 210.5v409h122v-410q0 -92 42.5 -131t126.5 -39q82 0 122.5 39t40.5 131z" />
    <glyph glyph-name="Ugrave" unicode="&#xd9;" horiz-adv-x="723" 
d="M528 270v410h122v-409q0 -140 -70 -210.5t-215 -70.5t-218 70.5t-73 210.5v409h122v-410q0 -92 42.5 -131t126.5 -39q82 0 122.5 39t40.5 131zM352 876l94 -136h-112l-115 136h133z" />
    <glyph glyph-name="Uacute" unicode="&#xda;" horiz-adv-x="723" 
d="M528 270v410h122v-409q0 -140 -70 -210.5t-215 -70.5t-218 70.5t-73 210.5v409h122v-410q0 -92 42.5 -131t126.5 -39q82 0 122.5 39t40.5 131zM378 876h133l-115 -136h-111z" />
    <glyph glyph-name="Ucircumflex" unicode="&#xdb;" horiz-adv-x="723" 
d="M528 270v410h122v-409q0 -140 -70 -210.5t-215 -70.5t-218 70.5t-73 210.5v409h122v-410q0 -92 42.5 -131t126.5 -39q82 0 122.5 39t40.5 131zM301 876h124l118 -136h-116l-64 75l-64 -75h-116z" />
    <glyph glyph-name="Udieresis" unicode="&#xdc;" horiz-adv-x="723" 
d="M528 270v410h122v-409q0 -140 -70 -210.5t-215 -70.5t-218 70.5t-73 210.5v409h122v-410q0 -92 42.5 -131t126.5 -39q82 0 122.5 39t40.5 131zM210 756v109h111v-109h-111zM404 756v109h111v-109h-111z" />
    <glyph glyph-name="Utilde" unicode="&#x168;" horiz-adv-x="723" 
d="M528 270v410h122v-409q0 -140 -70 -210.5t-215 -70.5t-218 70.5t-73 210.5v409h122v-410q0 -92 42.5 -131t126.5 -39q82 0 122.5 39t40.5 131zM215 745v16q0 51 24.5 82t64.5 31q21 0 37.5 -7.5t29.5 -16t24.5 -16t23.5 -7.5q14 0 20 10t6 26v11h77v-16
q0 -50 -21.5 -81.5t-63.5 -31.5q-21 0 -38 7.5t-31 16t-26 16t-22 7.5q-15 0 -21.5 -11t-6.5 -26v-10h-77z" />
    <glyph glyph-name="Umacron" unicode="&#x16a;" horiz-adv-x="723" 
d="M528 270v410h122v-409q0 -140 -70 -210.5t-215 -70.5t-218 70.5t-73 210.5v409h122v-410q0 -92 42.5 -131t126.5 -39q82 0 122.5 39t40.5 131zM509 763h-294v85h294v-85z" />
    <glyph glyph-name="Ubreve" unicode="&#x16c;" horiz-adv-x="723" 
d="M528 270v410h122v-409q0 -140 -70 -210.5t-215 -70.5t-218 70.5t-73 210.5v409h122v-410q0 -92 42.5 -131t126.5 -39q82 0 122.5 39t40.5 131zM363 739q-77 0 -112.5 38t-39.5 98h87q4 -27 19 -44.5t46 -17.5t45 17t18 45h88q-4 -60 -39.5 -98t-111.5 -38z" />
    <glyph glyph-name="Uring" unicode="&#x16e;" horiz-adv-x="723" 
d="M528 270v410h122v-409q0 -140 -70 -210.5t-215 -70.5t-218 70.5t-73 210.5v409h122v-410q0 -92 42.5 -131t126.5 -39q82 0 122.5 39t40.5 131zM363 694q-56 0 -94.5 36t-38.5 93t38 92.5t95 35.5t94.5 -35.5t37.5 -92.5t-37.5 -93t-94.5 -36zM363 763q28 0 44 17.5
t16 42.5t-16 42t-44 17q-27 0 -43.5 -17t-16.5 -42t16.5 -42.5t43.5 -17.5z" />
    <glyph glyph-name="Uhungarumlaut" unicode="&#x170;" horiz-adv-x="723" 
d="M528 270v410h122v-409q0 -140 -70 -210.5t-215 -70.5t-218 70.5t-73 210.5v409h122v-410q0 -92 42.5 -131t126.5 -39q82 0 122.5 39t40.5 131zM299 876h127l-117 -136h-105zM492 876h130l-135 -136h-112z" />
    <glyph glyph-name="Uogonek" unicode="&#x172;" horiz-adv-x="723" 
d="M409 -206q-55 0 -96 24t-41 75q0 31 17.5 56.5t44.5 41.5q-129 7 -194.5 77.5t-65.5 202.5v409h122v-410q0 -92 42.5 -131t126.5 -39q82 0 122.5 39t40.5 131v410h122v-409q0 -114 -46.5 -182.5t-142.5 -89.5q-31 -13 -53.5 -34.5t-22.5 -46.5q0 -20 16 -30t39 -10
q11 0 20.5 1.5t16.5 2.5l4 -78q-11 -4 -30.5 -7t-41.5 -3z" />
    <glyph glyph-name="uni01D3" unicode="&#x1d3;" horiz-adv-x="723" 
d="M528 270v410h122v-409q0 -140 -70 -210.5t-215 -70.5t-218 70.5t-73 210.5v409h122v-410q0 -92 42.5 -131t126.5 -39q82 0 122.5 39t40.5 131zM300 740l-117 136h115l64 -75l63 75h116l-117 -136h-124z" />
    <glyph glyph-name="V" unicode="V" horiz-adv-x="676" 
d="M273 0l-262 680h131l203 -542l198 542h128l-259 -680h-139z" />
    <glyph glyph-name="W" unicode="W" horiz-adv-x="1055" 
d="M606 680l165 -527l153 527h121l-209 -680h-135l-169 538l-170 -538h-135l-212 680h125l160 -528l161 528h145z" />
    <glyph glyph-name="Wcircumflex" unicode="&#x174;" horiz-adv-x="1055" 
d="M606 680l165 -527l153 527h121l-209 -680h-135l-169 538l-170 -538h-135l-212 680h125l160 -528l161 528h145zM471 876h124l118 -136h-116l-64 75l-64 -75h-116z" />
    <glyph glyph-name="Wgrave" unicode="&#x1e80;" horiz-adv-x="1055" 
d="M606 680l165 -527l153 527h121l-209 -680h-135l-169 538l-170 -538h-135l-212 680h125l160 -528l161 528h145zM493 876l94 -136h-112l-115 136h133z" />
    <glyph glyph-name="Wacute" unicode="&#x1e82;" horiz-adv-x="1055" 
d="M606 680l165 -527l153 527h121l-209 -680h-135l-169 538l-170 -538h-135l-212 680h125l160 -528l161 528h145zM569 876h133l-115 -136h-111z" />
    <glyph glyph-name="Wdieresis" unicode="&#x1e84;" horiz-adv-x="1055" 
d="M606 680l165 -527l153 527h121l-209 -680h-135l-169 538l-170 -538h-135l-212 680h125l160 -528l161 528h145zM378 756v109h111v-109h-111zM572 756v109h111v-109h-111z" />
    <glyph glyph-name="X" unicode="X" horiz-adv-x="672" 
d="M13 0l240 347l-233 333h147l167 -243l160 243h147l-230 -333l248 -347h-151l-178 260l-171 -260h-146z" />
    <glyph glyph-name="Y" unicode="Y" horiz-adv-x="678" 
d="M282 0v245l-271 435h143l190 -314l189 314h139l-268 -432v-248h-122z" />
    <glyph glyph-name="Yacute" unicode="&#xdd;" horiz-adv-x="678" 
d="M282 0v245l-271 435h143l190 -314l189 314h139l-268 -432v-248h-122zM366 876h133l-115 -136h-111z" />
    <glyph glyph-name="Ycircumflex" unicode="&#x176;" horiz-adv-x="678" 
d="M282 0v245l-271 435h143l190 -314l189 314h139l-268 -432v-248h-122zM284 876h124l118 -136h-116l-64 75l-64 -75h-116z" />
    <glyph glyph-name="Ydieresis" unicode="&#x178;" horiz-adv-x="678" 
d="M282 0v245l-271 435h143l190 -314l189 314h139l-268 -432v-248h-122zM190 756v109h111v-109h-111zM384 756v109h111v-109h-111z" />
    <glyph glyph-name="uni0232" unicode="&#x232;" horiz-adv-x="678" 
d="M282 0v245l-271 435h143l190 -314l189 314h139l-268 -432v-248h-122zM494 763h-294v85h294v-85z" />
    <glyph glyph-name="Ygrave" unicode="&#x1ef2;" horiz-adv-x="678" 
d="M282 0v245l-271 435h143l190 -314l189 314h139l-268 -432v-248h-122zM327 876l94 -136h-112l-115 136h133z" />
    <glyph glyph-name="Z" unicode="Z" horiz-adv-x="664" 
d="M54 0v114l404 454h-402v112h555v-113l-408 -455h410v-112h-559z" />
    <glyph glyph-name="Zacute" unicode="&#x179;" horiz-adv-x="664" 
d="M54 0v114l404 454h-402v112h555v-113l-408 -455h410v-112h-559zM353 876h133l-115 -136h-111z" />
    <glyph glyph-name="Zdotaccent" unicode="&#x17b;" horiz-adv-x="664" 
d="M54 0v114l404 454h-402v112h555v-113l-408 -455h410v-112h-559zM275 752v113h124v-113h-124z" />
    <glyph glyph-name="Zcaron" unicode="&#x17d;" horiz-adv-x="664" 
d="M54 0v114l404 454h-402v112h555v-113l-408 -455h410v-112h-559zM282 740l-117 136h115l64 -75l63 75h116l-117 -136h-124z" />
    <glyph glyph-name="Thorn" unicode="&#xde;" horiz-adv-x="655" 
d="M80 0v680h127v-114h165q112 0 176 -54t64 -161q0 -110 -64 -165.5t-183 -55.5h-158v-130h-127zM360 458h-153v-220h153q67 0 96 28t29 82q0 59 -28.5 84.5t-96.5 25.5z" />
    <glyph glyph-name="uni018F" unicode="&#x18f;" horiz-adv-x="732" 
d="M51 320q0 15 1 32.5t3 30.5h502q-9 93 -59 145.5t-137 52.5q-74 0 -120.5 -37t-62.5 -95l-120 13q10 54 37 96.5t66.5 71.5t90.5 44.5t109 15.5q151 0 236 -92.5t85 -256.5q0 -85 -24 -151t-66.5 -110t-101.5 -67t-130 -23q-68 0 -125.5 22.5t-98 64.5t-63 103.5
t-22.5 139.5zM360 98q84 0 134 49t61 137h-382q9 -93 61.5 -139.5t125.5 -46.5z" />
    <glyph glyph-name="uni01C4" unicode="&#x1c4;" horiz-adv-x="1346" 
d="M80 0v680h260q165 0 253 -86.5t88 -253.5q0 -169 -89.5 -254.5t-261.5 -85.5h-250zM202 111h133q113 0 167 59.5t54 169.5q0 116 -54.5 172.5t-167.5 56.5h-132v-458zM736 0v114l404 454h-402v112h555v-113l-408 -455h410v-112h-559zM964 740l-117 136h115l64 -75l63 75
h116l-117 -136h-124z" />
    <glyph glyph-name="uni01C7" unicode="&#x1c7;" horiz-adv-x="981" 
d="M556 114v-114h-476v680h122v-566h354zM909 680v-477q0 -106 -50.5 -154.5t-151.5 -48.5h-97v112h73q52 0 78 22.5t26 75.5v470h122z" />
    <glyph glyph-name="uni01CA" unicode="&#x1ca;" horiz-adv-x="1128" 
d="M677 0h-141l-337 498v-498h-119v680h136l343 -507v507h118v-680zM1056 680v-477q0 -106 -50.5 -154.5t-151.5 -48.5h-97v112h73q52 0 78 22.5t26 75.5v470h122z" />
    <glyph glyph-name="uni01F1" unicode="&#x1f1;" horiz-adv-x="1346" 
d="M80 0v680h260q165 0 253 -86.5t88 -253.5q0 -169 -89.5 -254.5t-261.5 -85.5h-250zM202 111h133q113 0 167 59.5t54 169.5q0 116 -54.5 172.5t-167.5 56.5h-132v-458zM736 0v114l404 454h-402v112h555v-113l-408 -455h410v-112h-559z" />
    <glyph glyph-name="uni0402" unicode="&#x402;" horiz-adv-x="787" 
d="M464 0v105h33q61 0 94 23t33 78q0 57 -35.5 81t-110.5 24q-40 0 -77.5 -4t-65.5 -10v-297h-122v566h-193v114h569v-114h-254v-163q31 6 71.5 10.5t79.5 4.5q122 0 189.5 -45.5t67.5 -163.5t-65.5 -163.5t-172.5 -45.5h-41z" />
    <glyph glyph-name="uni0404" unicode="&#x404;" horiz-adv-x="720" 
d="M675 469l-120 -20q-14 54 -56.5 93t-123.5 39t-134 -47.5t-66 -139.5h279v-105h-279q12 -94 65 -142t136 -48q80 0 122 39.5t57 91.5l119 -19q-19 -99 -93.5 -160t-203.5 -61q-72 0 -132 21t-103 64t-67 109.5t-24 156.5q0 87 23.5 152.5t66.5 109t103 65.5t133 22
q129 0 203 -58.5t95 -162.5z" />
    <glyph glyph-name="uni0405" unicode="&#x405;" horiz-adv-x="657" 
d="M49 184l121 20q13 -54 57 -81t112 -27q69 0 108.5 23.5t39.5 64.5q0 37 -23 58t-77 31l-119 22q-93 17 -145.5 61t-52.5 135q0 93 72.5 146t192.5 53q124 0 190 -51.5t82 -138.5l-121 -19q-9 42 -44.5 72.5t-108.5 30.5q-68 0 -104.5 -25.5t-36.5 -65.5q0 -37 26.5 -57.5
t87.5 -31.5l127 -25q86 -16 131.5 -61t45.5 -128q0 -97 -74 -148.5t-201 -51.5q-119 0 -193 47t-93 147z" />
    <glyph glyph-name="uni0406" unicode="&#x406;" horiz-adv-x="282" 
d="M80 0v680h122v-680h-122z" />
    <glyph glyph-name="uni0407" unicode="&#x407;" horiz-adv-x="282" 
d="M80 0v680h122v-680h-122zM-10 761v109h111v-109h-111zM184 761v109h111v-109h-111z" />
    <glyph glyph-name="uni0407.alt" horiz-adv-x="282" 
d="M27 754v124h94v-124h-94zM164 754v124h93v-124h-93zM80 0v680h122v-680h-122z" />
    <glyph glyph-name="uni0408" unicode="&#x408;" horiz-adv-x="397" 
d="M325 680v-477q0 -106 -50.5 -154.5t-151.5 -48.5h-97v112h73q52 0 78 22.5t26 75.5v470h122z" />
    <glyph glyph-name="uni0409" unicode="&#x409;" horiz-adv-x="1059" 
d="M145 233q1 40 2 93.5t1.5 112.5t0.5 121.5v119.5h471v-244h148q119 0 183 -53t64 -168q0 -107 -64 -161t-176 -54h-277v566h-229q0 -41 -0.5 -87.5l-1 -93t-1.5 -90t-2 -78.5q-4 -118 -52 -167.5t-149 -49.5h-52v116h34q44 0 71 23t29 94zM766 328h-146v-220h146
q68 0 96.5 25.5t28.5 84.5q0 55 -29 82.5t-96 27.5z" />
    <glyph glyph-name="uni040A" unicode="&#x40a;" horiz-adv-x="1074" 
d="M80 0v680h122v-281h311v281h122v-244h148q119 0 183 -53t64 -168q0 -107 -64 -161t-176 -54h-277v286h-311v-286h-122zM780 328h-145v-220h145q69 0 97.5 25.5t28.5 84.5q0 55 -29.5 82.5t-96.5 27.5z" />
    <glyph glyph-name="uni040B" unicode="&#x40b;" horiz-adv-x="799" 
d="M20 566v114h569v-114h-254v-166q32 7 75 12t89 5q125 1 183.5 -51.5t58.5 -170.5v-195h-121v172q0 72 -32.5 104t-106.5 32q-40 0 -77.5 -4t-68.5 -10v-294h-122v566h-193z" />
    <glyph glyph-name="uni040F" unicode="&#x40f;" horiz-adv-x="733" 
d="M653 680v-680h-228v-143h-117v143h-228v680h122v-566h329v566h122z" />
    <glyph glyph-name="uni0410" unicode="&#x410;" horiz-adv-x="710" 
d="M433 680l257 -680h-130l-63 172h-288l-61 -172h-128l255 680h158zM249 282h208l-105 289z" />
    <glyph glyph-name="uni0411" unicode="&#x411;" horiz-adv-x="656" 
d="M80 0v680h486v-110h-364v-161h171q117 0 176.5 -47.5t59.5 -154.5t-61.5 -157t-173.5 -50h-294zM366 303h-164v-196h164q65 0 94 23.5t29 74.5q0 52 -29.5 75t-93.5 23z" />
    <glyph glyph-name="uni0412" unicode="&#x412;" horiz-adv-x="662" 
d="M80 0v680h291q104 0 165 -44.5t61 -141.5q0 -46 -22 -87t-79 -61q65 -16 92 -57t27 -101q0 -96 -64.5 -142t-177.5 -46h-293zM360 576h-159v-182h153q66 0 93.5 23t27.5 70q0 48 -26 68.5t-89 20.5zM363 293h-162v-189h166q66 0 95.5 22.5t29.5 71.5t-30 72t-99 23z" />
    <glyph glyph-name="uni0413" unicode="&#x413;" horiz-adv-x="552" 
d="M80 0v680h452v-114h-330v-566h-122z" />
    <glyph glyph-name="uni0403" unicode="&#x403;" horiz-adv-x="552" 
d="M80 0v680h452v-114h-330v-566h-122zM323 878h133l-115 -136h-111z" />
    <glyph glyph-name="uni0414" unicode="&#x414;" horiz-adv-x="752" 
d="M9 -143v257h68q32 28 53.5 85t23.5 126q1 24 2 69t2 96.5t1 102.5v87h481v-566h94v-257h-118v143h-489v-143h-118zM271 317q-3 -60 -16.5 -111t-42.5 -92h306v452h-241q0 -19 -0.5 -53t-1.5 -70.5t-2 -70.5t-2 -55z" />
    <glyph glyph-name="uni0415" unicode="&#x415;" horiz-adv-x="627" 
d="M80 0v680h485v-108h-363v-177h349v-105h-349v-182h360v-108h-482z" />
    <glyph glyph-name="uni0400" unicode="&#x400;" horiz-adv-x="627" 
d="M80 0v680h485v-108h-363v-177h349v-105h-349v-182h360v-108h-482zM303 876l94 -136h-112l-115 136h133z" />
    <glyph glyph-name="uni0401" unicode="&#x401;" horiz-adv-x="627" 
d="M80 0v680h485v-108h-363v-177h349v-105h-349v-182h360v-108h-482zM174 756v109h111v-109h-111zM368 756v109h111v-109h-111z" />
    <glyph glyph-name="uni0416" unicode="&#x416;" horiz-adv-x="984" 
d="M431 0v288h-76l-190 -288h-151l238 347l-231 333h145l185 -280h80v280h122v-280h81l185 280h145l-232 -333l238 -347h-151l-189 288h-77v-288h-122z" />
    <glyph glyph-name="uni0417" unicode="&#x417;" horiz-adv-x="661" 
d="M343 581q-72 0 -112.5 -33.5t-54.5 -90.5l-121 21q20 99 93.5 155.5t195.5 56.5q119 0 188 -49t69 -146q0 -55 -28 -93t-84 -55q59 -13 92.5 -49.5t33.5 -103.5q0 -95 -72 -149.5t-205 -54.5q-126 0 -201 55t-88 160l120 19q10 -59 53 -92t118 -33q74 0 113 26.5t39 77.5
q0 45 -31.5 67.5t-98.5 22.5h-102v103h103q62 0 89 23.5t27 66.5q0 45 -34.5 70t-101.5 25z" />
    <glyph glyph-name="uni0418" unicode="&#x418;" horiz-adv-x="752" 
d="M551 0v516l-342 -516h-129v680h121v-512l337 512h134v-680h-121z" />
    <glyph glyph-name="uni040D" unicode="&#x40d;" horiz-adv-x="752" 
d="M551 0v516l-342 -516h-129v680h121v-512l337 512h134v-680h-121zM352 876l94 -136h-112l-115 136h133z" />
    <glyph glyph-name="uni0419" unicode="&#x419;" horiz-adv-x="752" 
d="M551 0v516l-342 -516h-129v680h121v-512l337 512h134v-680h-121zM195 873h100q3 -34 20.5 -53.5t59.5 -19.5q43 0 60 19.5t19 53.5h101q-2 -75 -45 -114t-135 -39q-91 0 -135 39t-45 114z" />
    <glyph glyph-name="uni041A" unicode="&#x41a;" horiz-adv-x="664" 
d="M80 0v680h122v-280h102l192 280h145l-238 -333l247 -347h-150l-197 286h-101v-286h-122z" />
    <glyph glyph-name="uni040C" unicode="&#x40c;" horiz-adv-x="664" 
d="M80 0v680h122v-280h102l192 280h145l-238 -333l247 -347h-150l-197 286h-101v-286h-122zM359 876h133l-115 -136h-111z" />
    <glyph glyph-name="uni041B" unicode="&#x41b;" horiz-adv-x="720" 
d="M145 233q1 40 2 93.5t1.5 112.5t1 121.5t0.5 119.5h490v-680h-122v566h-249q0 -41 -0.5 -87.5l-1 -93t-1.5 -90t-2 -78.5q-4 -118 -52 -167.5t-149 -49.5h-52v116h34q44 0 71 23t29 94z" />
    <glyph glyph-name="uni041C" unicode="&#x41c;" horiz-adv-x="902" 
d="M395 62l-201 469v-531h-114v680h175l199 -471l196 471h172v-680h-119v532l-200 -470h-108z" />
    <glyph glyph-name="uni041D" unicode="&#x41d;" horiz-adv-x="735" 
d="M80 0v680h122v-281h331v281h122v-680h-122v286h-331v-286h-122z" />
    <glyph glyph-name="uni041E" unicode="&#x41e;" horiz-adv-x="770" 
d="M385 -10q-74 0 -135.5 22.5t-105.5 66.5t-68.5 109.5t-24.5 151.5q0 84 24.5 150t68.5 110t105.5 67t135.5 23q75 0 137 -23t105.5 -67t68 -110t24.5 -150q0 -86 -24.5 -151.5t-68 -109.5t-105.5 -66.5t-137 -22.5zM385 99q101 0 156 65.5t55 175.5q0 111 -55 176
t-156 65q-100 0 -155.5 -65t-55.5 -176q0 -110 55.5 -175.5t155.5 -65.5z" />
    <glyph glyph-name="uni041F" unicode="&#x41f;" horiz-adv-x="732" 
d="M80 0v680h572v-680h-122v566h-328v-566h-122z" />
    <glyph glyph-name="uni0420" unicode="&#x420;" horiz-adv-x="645" 
d="M80 0v680h290q112 0 175.5 -54.5t63.5 -163.5q0 -108 -64 -164t-183 -56h-160v-242h-122zM202 349h157q66 0 96 29t30 83q0 59 -29.5 85.5t-96.5 26.5h-157v-224z" />
    <glyph glyph-name="uni0421" unicode="&#x421;" horiz-adv-x="721" 
d="M376 99q81 0 124.5 37.5t56.5 99.5l120 -20q-21 -110 -96 -168t-205 -58q-74 0 -134 23t-102.5 67.5t-65.5 109.5t-23 149q0 86 24 152t67 110t103 66.5t132 22.5q129 0 204.5 -59t94.5 -166l-120 -20q-15 59 -57 97.5t-122 38.5q-96 0 -149.5 -64.5t-53.5 -177.5
q0 -111 54 -175.5t148 -64.5z" />
    <glyph glyph-name="uni0422" unicode="&#x422;" horiz-adv-x="643" 
d="M20 566v114h603v-114h-240v-566h-122v566h-241z" />
    <glyph glyph-name="uni0423" unicode="&#x423;" horiz-adv-x="642" 
d="M398 154q-37 -81 -82 -117.5t-134 -36.5h-74v112h60q40 0 64.5 11t41.5 36l-263 521h137l189 -394l173 394h126z" />
    <glyph glyph-name="uni040E" unicode="&#x40e;" horiz-adv-x="642" 
d="M398 154q-37 -81 -82 -117.5t-134 -36.5h-74v112h60q40 0 64.5 11t41.5 36l-263 521h137l189 -394l173 394h126zM152 873h100q3 -34 20.5 -53.5t59.5 -19.5q43 0 60 19.5t19 53.5h101q-2 -75 -45 -114t-135 -39q-91 0 -135 39t-45 114z" />
    <glyph glyph-name="uni0424" unicode="&#x424;" horiz-adv-x="872" 
d="M377 -22v81q-69 0 -129.5 17t-105 52t-70.5 89t-26 129q0 74 26 128t71 88.5t105.5 51t128.5 16.5v77h120v-77q69 0 129.5 -17t104.5 -51.5t69.5 -88.5t25.5 -127q0 -74 -25.5 -128.5t-69.5 -89.5t-104.5 -52t-129.5 -17v-81h-120zM494 525v-361q43 0 81.5 10.5t67 32
t45 56t16.5 83.5q0 50 -16.5 84t-45 55t-67 30.5t-81.5 9.5zM168 346q0 -49 17 -84t46 -56.5t67.5 -31.5t80.5 -10v361q-43 0 -81.5 -9.5t-67 -30.5t-45.5 -55.5t-17 -83.5z" />
    <glyph glyph-name="uni0425" unicode="&#x425;" horiz-adv-x="672" 
d="M13 0l240 347l-233 333h147l167 -243l160 243h147l-230 -333l248 -347h-151l-178 260l-171 -260h-146z" />
    <glyph glyph-name="uni0426" unicode="&#x426;" horiz-adv-x="765" 
d="M653 680v-566h94v-257h-118v143h-549v680h122v-566h329v566h122z" />
    <glyph glyph-name="uni0427" unicode="&#x427;" horiz-adv-x="671" 
d="M176 496q0 -72 33.5 -105t113.5 -33q40 0 76 4t70 11v306h122v-680h-122v265q-32 -7 -74 -12t-90 -5q-134 0 -192.5 54t-58.5 176v203h122v-184z" />
    <glyph glyph-name="uni0428" unicode="&#x428;" horiz-adv-x="1022" 
d="M80 0v680h122v-566h248v566h122v-566h247v566h122v-680h-861z" />
    <glyph glyph-name="uni0429" unicode="&#x429;" horiz-adv-x="1054" 
d="M80 0v680h122v-566h248v566h122v-566h247v566h122v-566h94v-257h-117v143h-838z" />
    <glyph glyph-name="uni042A" unicode="&#x42a;" horiz-adv-x="781" 
d="M20 566v114h313v-244h156q119 0 183.5 -53t64.5 -168q0 -107 -64.5 -161t-175.5 -54h-286v566h-191zM487 108q68 0 97 25.5t29 84.5q0 55 -29.5 82.5t-96.5 27.5h-154v-220h154z" />
    <glyph glyph-name="uni042B" unicode="&#x42b;" horiz-adv-x="896" 
d="M80 680h122v-244h153q119 0 183.5 -53t64.5 -168q0 -107 -64.5 -161t-175.5 -54h-283v680zM694 0v680h122v-680h-122zM353 108q68 0 97 25.5t29 84.5q0 55 -29.5 82.5t-96.5 27.5h-151v-220h151z" />
    <glyph glyph-name="uni042C" unicode="&#x42c;" horiz-adv-x="654" 
d="M80 680h122v-244h160q119 0 183 -53t64 -168q0 -107 -64 -161t-175 -54h-290v680zM360 108q68 0 97 25.5t29 84.5q0 55 -29.5 82.5t-96.5 27.5h-158v-220h158z" />
    <glyph glyph-name="uni042D" unicode="&#x42d;" horiz-adv-x="723" 
d="M47 211l120 20q13 -57 59.5 -94.5t126.5 -37.5q84 0 134 48.5t60 141.5h-278v106h278q-10 94 -58 140t-131 46q-74 0 -122 -35.5t-67 -95.5l-119 20q28 107 111 163.5t196 56.5q71 0 129 -21t99.5 -64t64 -108t22.5 -153q0 -176 -86 -265t-235 -89q-123 0 -203.5 56
t-100.5 165z" />
    <glyph glyph-name="uni042E" unicode="&#x42e;" horiz-adv-x="1029" 
d="M647 -10q-135 0 -223.5 74.5t-103.5 218.5h-118v-283h-122v680h122v-283h118q16 142 104 217.5t223 75.5q74 0 135.5 -23t105 -67t67.5 -110t24 -150q0 -86 -24 -151.5t-67.5 -109.5t-105 -66.5t-135.5 -22.5zM647 100q99 0 154 65t55 175q0 111 -55 175.5t-154 64.5
q-100 0 -153.5 -64.5t-53.5 -175.5q0 -110 53.5 -175t153.5 -65z" />
    <glyph glyph-name="uni042F" unicode="&#x42f;" horiz-adv-x="684" 
d="M604 0h-122v244h-150l-153 -244h-139l166 258q-68 21 -104 72.5t-36 134.5q0 107 64 161t176 54h298v-680zM315 572q-66 0 -95.5 -26.5t-29.5 -83.5q0 -55 29 -82.5t96 -27.5h167v220h-167z" />
    <glyph glyph-name="uni0462" unicode="&#x462;" horiz-adv-x="776" 
d="M201 0v528h-191v105h191v88h120v-88h296v-105h-296v-121h171q117 0 176.5 -47t59.5 -157q0 -104 -60 -153.5t-174 -49.5h-293zM490 301h-169v-194h169q63 0 91 22.5t28 73.5t-28.5 74.5t-90.5 23.5z" />
    <glyph glyph-name="uni0472" unicode="&#x472;" horiz-adv-x="770" 
d="M385 -10q-74 0 -135.5 22.5t-105.5 66.5t-68.5 109.5t-24.5 151.5q0 84 24.5 150t68.5 110t105.5 67t135.5 23q75 0 137 -23t105.5 -67t68 -110t24.5 -150q0 -86 -24.5 -151.5t-68 -109.5t-105.5 -66.5t-137 -22.5zM385 583q-88 0 -142.5 -50.5t-67.5 -140.5h420
q-13 90 -67 140.5t-143 50.5zM385 97q90 0 145 53t65 144h-420q11 -91 65.5 -144t144.5 -53z" />
    <glyph glyph-name="uni0474" unicode="&#x474;" horiz-adv-x="701" 
d="M496 559q22 66 54 93.5t102 27.5h49v-114h-28q-31 0 -46.5 -13.5t-27.5 -45.5l-185 -507h-137l-266 680h131l207 -542z" />
    <glyph glyph-name="uni0490" unicode="&#x490;" horiz-adv-x="556" 
d="M80 0v680h340v133h116v-247h-334v-566h-122z" />
    <glyph glyph-name="uni0492" unicode="&#x492;" horiz-adv-x="552" 
d="M80 0v265h-68v98h68v317h452v-114h-331v-203h175v-98h-175v-265h-121z" />
    <glyph glyph-name="uni049A" unicode="&#x49a;" horiz-adv-x="671" 
d="M80 0v680h122v-280h102l192 280h145l-238 -333l166 -233h96v-257h-118v143h-47l-197 286h-101v-286h-122z" />
    <glyph glyph-name="uni04A2" unicode="&#x4a2;" horiz-adv-x="767" 
d="M80 0v680h122v-281h331v281h122v-566h94v-257h-118v143h-98v286h-331v-286h-122z" />
    <glyph glyph-name="uni04AE" unicode="&#x4ae;" horiz-adv-x="678" 
d="M282 0v245l-271 435h143l190 -314l189 314h139l-268 -432v-248h-122z" />
    <glyph glyph-name="uni04B0" unicode="&#x4b0;" horiz-adv-x="678" 
d="M283 0v211h-164v97h128l-236 372h143l191 -313l189 313h138l-235 -372h126v-97h-160v-211h-120z" />
    <glyph glyph-name="uni04BA" unicode="&#x4ba;" horiz-adv-x="675" 
d="M494 184q0 72 -33 104.5t-113 32.5q-41 0 -76.5 -4t-69.5 -11v-306h-122v680h122v-265q33 7 74.5 12.5t89.5 5.5q134 0 192 -54t58 -176v-204h-122v185z" />
    <glyph glyph-name="uni04D8" unicode="&#x4d8;" horiz-adv-x="732" 
d="M51 320q0 15 1 32.5t3 30.5h502q-9 93 -59 145.5t-137 52.5q-74 0 -120.5 -37t-62.5 -95l-120 13q10 54 37 96.5t66.5 71.5t90.5 44.5t109 15.5q151 0 236 -92.5t85 -256.5q0 -85 -24 -151t-66.5 -110t-101.5 -67t-130 -23q-68 0 -125.5 22.5t-98 64.5t-63 103.5
t-22.5 139.5zM360 98q84 0 134 49t61 137h-382q9 -93 61.5 -139.5t125.5 -46.5z" />
    <glyph glyph-name="uni04E8" unicode="&#x4e8;" horiz-adv-x="770" 
d="M385 -10q-74 0 -135.5 22.5t-105.5 66.5t-68.5 109.5t-24.5 151.5q0 84 24.5 150t68.5 110t105.5 67t135.5 23q75 0 137 -23t105.5 -67t68 -110t24.5 -150q0 -86 -24.5 -151.5t-68 -109.5t-105.5 -66.5t-137 -22.5zM385 583q-88 0 -142.5 -50.5t-67.5 -140.5h420
q-13 90 -67 140.5t-143 50.5zM385 97q90 0 145 53t65 144h-420q11 -91 65.5 -144t144.5 -53z" />
    <glyph glyph-name="a" unicode="a" horiz-adv-x="529" 
d="M359 0v55q-23 -31 -60.5 -48t-85.5 -17q-73 0 -120 38t-47 106q0 75 49.5 109.5t133.5 38.5q34 2 65 1.5t60 -1.5v38q0 42 -25 61t-65 19t-63 -20t-33 -54l-106 18q13 65 65 107.5t139 42.5q86 0 143 -39.5t57 -135.5v-319h-107zM354 205q-24 1 -53 0.5t-57 -1.5
q-39 -1 -61.5 -17t-22.5 -46t21 -46.5t56 -16.5q51 0 84 24.5t33 64.5v38z" />
    <glyph glyph-name="agrave" unicode="&#xe0;" horiz-adv-x="529" 
d="M359 0v55q-23 -31 -60.5 -48t-85.5 -17q-73 0 -120 38t-47 106q0 75 49.5 109.5t133.5 38.5q34 2 65 1.5t60 -1.5v38q0 42 -25 61t-65 19t-63 -20t-33 -54l-106 18q13 65 65 107.5t139 42.5q86 0 143 -39.5t57 -135.5v-319h-107zM354 205q-24 1 -53 0.5t-57 -1.5
q-39 -1 -61.5 -17t-22.5 -46t21 -46.5t56 -16.5q51 0 84 24.5t33 64.5v38zM251 682h-127l112 -138h104z" />
    <glyph glyph-name="aacute" unicode="&#xe1;" horiz-adv-x="529" 
d="M359 0v55q-23 -31 -60.5 -48t-85.5 -17q-73 0 -120 38t-47 106q0 75 49.5 109.5t133.5 38.5q34 2 65 1.5t60 -1.5v38q0 42 -25 61t-65 19t-63 -20t-33 -54l-106 18q13 65 65 107.5t139 42.5q86 0 143 -39.5t57 -135.5v-319h-107zM354 205q-24 1 -53 0.5t-57 -1.5
q-39 -1 -61.5 -17t-22.5 -46t21 -46.5t56 -16.5q51 0 84 24.5t33 64.5v38zM285 682h127l-112 -138h-104z" />
    <glyph glyph-name="acircumflex" unicode="&#xe2;" horiz-adv-x="529" 
d="M359 0v55q-23 -31 -60.5 -48t-85.5 -17q-73 0 -120 38t-47 106q0 75 49.5 109.5t133.5 38.5q34 2 65 1.5t60 -1.5v38q0 42 -25 61t-65 19t-63 -20t-33 -54l-106 18q13 65 65 107.5t139 42.5q86 0 143 -39.5t57 -135.5v-319h-107zM354 205q-24 1 -53 0.5t-57 -1.5
q-39 -1 -61.5 -17t-22.5 -46t21 -46.5t56 -16.5q51 0 84 24.5t33 64.5v38zM204 682h121l108 -138h-102l-66 83l-67 -83h-101z" />
    <glyph glyph-name="atilde" unicode="&#xe3;" horiz-adv-x="529" 
d="M359 0v55q-23 -31 -60.5 -48t-85.5 -17q-73 0 -120 38t-47 106q0 75 49.5 109.5t133.5 38.5q34 2 65 1.5t60 -1.5v38q0 42 -25 61t-65 19t-63 -20t-33 -54l-106 18q13 65 65 107.5t139 42.5q86 0 143 -39.5t57 -135.5v-319h-107zM354 205q-24 1 -53 0.5t-57 -1.5
q-39 -1 -61.5 -17t-22.5 -46t21 -46.5t56 -16.5q51 0 84 24.5t33 64.5v38zM114 550v14q0 49 23 81t66 32q19 0 35 -7t29 -15.5t24.5 -15.5t22.5 -7q13 0 19.5 9.5t6.5 25.5v11h76v-17q0 -47 -20.5 -78.5t-62.5 -31.5q-20 0 -37 7t-31 15t-26 15t-22 7q-13 0 -20 -10.5
t-7 -26.5v-8h-76z" />
    <glyph glyph-name="adieresis" unicode="&#xe4;" horiz-adv-x="529" 
d="M359 0v55q-23 -31 -60.5 -48t-85.5 -17q-73 0 -120 38t-47 106q0 75 49.5 109.5t133.5 38.5q34 2 65 1.5t60 -1.5v38q0 42 -25 61t-65 19t-63 -20t-33 -54l-106 18q13 65 65 107.5t139 42.5q86 0 143 -39.5t57 -135.5v-319h-107zM354 205q-24 1 -53 0.5t-57 -1.5
q-39 -1 -61.5 -17t-22.5 -46t21 -46.5t56 -16.5q51 0 84 24.5t33 64.5v38zM107 562v111h112v-111h-112zM301 562v111h113v-111h-113z" />
    <glyph glyph-name="aring" unicode="&#xe5;" horiz-adv-x="529" 
d="M359 0v55q-23 -31 -60.5 -48t-85.5 -17q-73 0 -120 38t-47 106q0 75 49.5 109.5t133.5 38.5q34 2 65 1.5t60 -1.5v38q0 42 -25 61t-65 19t-63 -20t-33 -54l-106 18q13 65 65 107.5t139 42.5q86 0 143 -39.5t57 -135.5v-319h-107zM354 205q-24 1 -53 0.5t-57 -1.5
q-39 -1 -61.5 -17t-22.5 -46t21 -46.5t56 -16.5q51 0 84 24.5t33 64.5v38zM275 524q-44 0 -73.5 28t-29.5 74q0 45 29.5 73.5t73.5 28.5q45 0 74.5 -28.5t29.5 -73.5q0 -46 -29.5 -74t-74.5 -28zM275 584q19 0 30.5 12t11.5 30q0 17 -11.5 29.5t-30.5 12.5t-30.5 -12.5
t-11.5 -29.5q0 -18 11.5 -30t30.5 -12z" />
    <glyph glyph-name="amacron" unicode="&#x101;" horiz-adv-x="529" 
d="M359 0v55q-23 -31 -60.5 -48t-85.5 -17q-73 0 -120 38t-47 106q0 75 49.5 109.5t133.5 38.5q34 2 65 1.5t60 -1.5v38q0 42 -25 61t-65 19t-63 -20t-33 -54l-106 18q13 65 65 107.5t139 42.5q86 0 143 -39.5t57 -135.5v-319h-107zM354 205q-24 1 -53 0.5t-57 -1.5
q-39 -1 -61.5 -17t-22.5 -46t21 -46.5t56 -16.5q51 0 84 24.5t33 64.5v38zM396 577h-268v85h268v-85z" />
    <glyph glyph-name="abreve" unicode="&#x103;" horiz-adv-x="529" 
d="M359 0v55q-23 -31 -60.5 -48t-85.5 -17q-73 0 -120 38t-47 106q0 75 49.5 109.5t133.5 38.5q34 2 65 1.5t60 -1.5v38q0 42 -25 61t-65 19t-63 -20t-33 -54l-106 18q13 65 65 107.5t139 42.5q86 0 143 -39.5t57 -135.5v-319h-107zM354 205q-24 1 -53 0.5t-57 -1.5
q-39 -1 -61.5 -17t-22.5 -46t21 -46.5t56 -16.5q51 0 84 24.5t33 64.5v38zM261 536q-75 0 -110.5 38t-39.5 97h88q3 -27 17 -44t45 -17q30 0 43 17t16 44h89q-4 -59 -39 -97t-109 -38z" />
    <glyph glyph-name="aogonek" unicode="&#x105;" horiz-adv-x="529" 
d="M412 -203q-51 0 -87.5 25t-36.5 76q0 34 19.5 60.5t51.5 46.5v50q-23 -31 -60.5 -48t-85.5 -17q-73 0 -120 38t-47 106q0 75 49.5 109.5t133.5 38.5q34 2 65 1.5t60 -1.5v38q0 42 -25 61t-65 19t-63 -20t-33 -54l-106 18q13 65 65 107.5t139 42.5q86 0 143 -39.5
t57 -135.5v-319q-28 -12 -50 -32.5t-22 -46.5q0 -20 13 -29.5t33 -9.5q12 0 21 1.5t16 2.5l5 -79q-11 -4 -29.5 -7t-40.5 -3zM354 205q-24 1 -53 0.5t-57 -1.5q-39 -1 -61.5 -17t-22.5 -46t21 -46.5t56 -16.5q51 0 84 24.5t33 64.5v38z" />
    <glyph glyph-name="ae" unicode="&#xe6;" horiz-adv-x="841" 
d="M802 142q-16 -69 -68.5 -110.5t-144.5 -41.5q-65 0 -115 27t-72 71q-19 -46 -70.5 -72t-115.5 -26q-75 0 -122.5 37t-47.5 106q0 77 49.5 111t133.5 39q34 2 65.5 2.5t59.5 -0.5v34q0 42 -24 61.5t-64 19.5q-41 0 -65 -20t-33 -54l-106 17q13 65 65 108t139 43
q61 0 102.5 -22t58.5 -50q26 35 70.5 53.5t92.5 18.5q102 0 158.5 -63t56.5 -173v-41h-338q4 -64 37.5 -99.5t87.5 -35.5q48 0 73.5 23t34.5 53zM589 402q-45 0 -77.5 -28.5t-41.5 -79.5h227q-2 47 -29.5 77.5t-78.5 30.5zM354 208q-23 0 -53 -1t-57 -2q-40 -3 -62 -19
t-22 -45q0 -30 22 -46.5t57 -16.5q49 0 82 23t33 68v39z" />
    <glyph glyph-name="aeacute" unicode="&#x1fd;" horiz-adv-x="841" 
d="M802 142q-16 -69 -68.5 -110.5t-144.5 -41.5q-65 0 -115 27t-72 71q-19 -46 -70.5 -72t-115.5 -26q-75 0 -122.5 37t-47.5 106q0 77 49.5 111t133.5 39q34 2 65.5 2.5t59.5 -0.5v34q0 42 -24 61.5t-64 19.5q-41 0 -65 -20t-33 -54l-106 17q13 65 65 108t139 43
q61 0 102.5 -22t58.5 -50q26 35 70.5 53.5t92.5 18.5q102 0 158.5 -63t56.5 -173v-41h-338q4 -64 37.5 -99.5t87.5 -35.5q48 0 73.5 23t34.5 53zM589 402q-45 0 -77.5 -28.5t-41.5 -79.5h227q-2 47 -29.5 77.5t-78.5 30.5zM354 208q-23 0 -53 -1t-57 -2q-40 -3 -62 -19
t-22 -45q0 -30 22 -46.5t57 -16.5q49 0 82 23t33 68v39zM458 682h127l-112 -138h-104z" />
    <glyph glyph-name="uni01E3" unicode="&#x1e3;" horiz-adv-x="841" 
d="M802 142q-16 -69 -68.5 -110.5t-144.5 -41.5q-65 0 -115 27t-72 71q-19 -46 -70.5 -72t-115.5 -26q-75 0 -122.5 37t-47.5 106q0 77 49.5 111t133.5 39q34 2 65.5 2.5t59.5 -0.5v34q0 42 -24 61.5t-64 19.5q-41 0 -65 -20t-33 -54l-106 17q13 65 65 108t139 43
q61 0 102.5 -22t58.5 -50q26 35 70.5 53.5t92.5 18.5q102 0 158.5 -63t56.5 -173v-41h-338q4 -64 37.5 -99.5t87.5 -35.5q48 0 73.5 23t34.5 53zM589 402q-45 0 -77.5 -28.5t-41.5 -79.5h227q-2 47 -29.5 77.5t-78.5 30.5zM354 208q-23 0 -53 -1t-57 -2q-40 -3 -62 -19
t-22 -45q0 -30 22 -46.5t57 -16.5q49 0 82 23t33 68v39zM569 577h-268v85h268v-85z" />
    <glyph glyph-name="b" unicode="b" horiz-adv-x="582" 
d="M67 0v680h115v-250q31 37 71.5 50.5t80.5 13.5q43 0 81 -16t66.5 -47t45 -77.5t16.5 -107.5q0 -123 -62.5 -189.5t-159.5 -66.5q-45 0 -80.5 15.5t-62.5 43.5v-49h-111zM182 203q0 -52 36 -83t89 -31q55 0 87.5 41t32.5 113q0 70 -32 111t-89 41q-50 0 -87 -32.5
t-37 -92.5v-67z" />
    <glyph glyph-name="c" unicode="c" horiz-adv-x="517" 
d="M381 171l106 -14q-15 -74 -69 -120.5t-147 -46.5q-104 0 -168.5 64t-64.5 188q0 62 18 109.5t49 79t74 47.5t93 16t87.5 -13t63 -35t41 -52t21.5 -62l-103 -20q-8 33 -33 59t-76 26q-57 0 -89 -40.5t-32 -114.5q0 -72 31 -113.5t89 -41.5q51 0 76 25t33 59z" />
    <glyph glyph-name="ccedilla" unicode="&#xe7;" horiz-adv-x="517" 
d="M264 -215q-55 0 -86.5 18.5t-38.5 58.5l73 16q5 -16 17.5 -24.5t34.5 -8.5q21 0 32.5 7.5t11.5 23.5q0 18 -17 24.5t-54 4.5l-27 -1v48l34 39q-93 8 -149.5 71.5t-56.5 179.5q0 62 18 109.5t49 79t74 47.5t93 16t87.5 -13t63 -35t41 -52t21.5 -62l-103 -20q-8 33 -33 59
t-76 26q-57 0 -89 -40.5t-32 -114.5q0 -72 31 -113.5t89 -41.5q51 0 76 25t33 59l106 -14q-13 -63 -54.5 -107.5t-112.5 -55.5l-31 -35q49 -1 74.5 -20t25.5 -61t-33 -67.5t-92 -25.5z" />
    <glyph glyph-name="cacute" unicode="&#x107;" horiz-adv-x="517" 
d="M381 171l106 -14q-15 -74 -69 -120.5t-147 -46.5q-104 0 -168.5 64t-64.5 188q0 62 18 109.5t49 79t74 47.5t93 16t87.5 -13t63 -35t41 -52t21.5 -62l-103 -20q-8 33 -33 59t-76 26q-57 0 -89 -40.5t-32 -114.5q0 -72 31 -113.5t89 -41.5q51 0 76 25t33 59zM291 682h127
l-112 -138h-104z" />
    <glyph glyph-name="ccircumflex" unicode="&#x109;" horiz-adv-x="517" 
d="M381 171l106 -14q-15 -74 -69 -120.5t-147 -46.5q-104 0 -168.5 64t-64.5 188q0 62 18 109.5t49 79t74 47.5t93 16t87.5 -13t63 -35t41 -52t21.5 -62l-103 -20q-8 33 -33 59t-76 26q-57 0 -89 -40.5t-32 -114.5q0 -72 31 -113.5t89 -41.5q51 0 76 25t33 59zM206 682h121
l108 -138h-102l-66 83l-67 -83h-101z" />
    <glyph glyph-name="cdotaccent" unicode="&#x10b;" horiz-adv-x="517" 
d="M381 171l106 -14q-15 -74 -69 -120.5t-147 -46.5q-104 0 -168.5 64t-64.5 188q0 62 18 109.5t49 79t74 47.5t93 16t87.5 -13t63 -35t41 -52t21.5 -62l-103 -20q-8 33 -33 59t-76 26q-57 0 -89 -40.5t-32 -114.5q0 -72 31 -113.5t89 -41.5q51 0 76 25t33 59zM210 562v112
h122v-112h-122z" />
    <glyph glyph-name="ccaron" unicode="&#x10d;" horiz-adv-x="517" 
d="M381 171l106 -14q-15 -74 -69 -120.5t-147 -46.5q-104 0 -168.5 64t-64.5 188q0 62 18 109.5t49 79t74 47.5t93 16t87.5 -13t63 -35t41 -52t21.5 -62l-103 -20q-8 33 -33 59t-76 26q-57 0 -89 -40.5t-32 -114.5q0 -72 31 -113.5t89 -41.5q51 0 76 25t33 59zM206 544
l-107 138h102l65 -80l65 80h103l-107 -138h-121z" />
    <glyph glyph-name="d" unicode="d" horiz-adv-x="581" 
d="M403 0v58q-22 -33 -59.5 -50.5t-88.5 -17.5q-46 0 -86 16.5t-69 48t-45.5 79t-16.5 107.5q0 61 17 108.5t47 79.5t71.5 48.5t90.5 16.5q42 0 77 -14.5t58 -39.5v240h115v-680h-111zM399 216v56q0 59 -33.5 91t-85.5 32q-58 0 -92 -40.5t-34 -112.5q0 -69 32.5 -111
t90.5 -42q60 0 91 36.5t31 90.5z" />
    <glyph glyph-name="dcaron" unicode="&#x10f;" horiz-adv-x="581" 
d="M403 0v58q-22 -33 -59.5 -50.5t-88.5 -17.5q-46 0 -86 16.5t-69 48t-45.5 79t-16.5 107.5q0 61 17 108.5t47 79.5t71.5 48.5t90.5 16.5q42 0 77 -14.5t58 -39.5v240h115v-680h-111zM399 216v56q0 59 -33.5 91t-85.5 32q-58 0 -92 -40.5t-34 -112.5q0 -69 32.5 -111
t90.5 -42q60 0 91 36.5t31 90.5zM579 690h107l-63 -196h-77z" />
    <glyph glyph-name="dcroat" unicode="&#x111;" horiz-adv-x="581" 
d="M403 0v58q-22 -33 -59.5 -50.5t-88.5 -17.5q-46 0 -86 16.5t-69 48t-45.5 79t-16.5 107.5q0 61 17 108t47 79t71.5 48.5t90.5 16.5q43 0 78.5 -15t58.5 -41v114h-131v76h131v53h113v-53h55v-76h-55v-551h-111zM399 215v56q0 59 -34 91t-87 32q-57 0 -90.5 -40t-33.5 -112
q0 -69 32.5 -111.5t90.5 -42.5q60 0 91 36.5t31 90.5z" />
    <glyph glyph-name="e" unicode="e" horiz-adv-x="524" 
d="M488 218h-339q4 -66 37 -100.5t86 -34.5q50 0 76 23t34 49l103 -19q-16 -60 -68.5 -103t-146.5 -43q-109 0 -171.5 67t-62.5 185q0 61 18.5 108.5t50 79t74 48t91.5 16.5q104 0 161 -65.5t57 -177.5v-33zM270 401q-44 0 -76.5 -26.5t-42.5 -77.5h227q-4 48 -30.5 76
t-77.5 28z" />
    <glyph glyph-name="egrave" unicode="&#xe8;" horiz-adv-x="524" 
d="M488 218h-339q4 -66 37 -100.5t86 -34.5q50 0 76 23t34 49l103 -19q-16 -60 -68.5 -103t-146.5 -43q-109 0 -171.5 67t-62.5 185q0 61 18.5 108.5t50 79t74 48t91.5 16.5q104 0 161 -65.5t57 -177.5v-33zM270 401q-44 0 -76.5 -26.5t-42.5 -77.5h227q-4 48 -30.5 76
t-77.5 28zM241 682h-127l112 -138h104z" />
    <glyph glyph-name="eacute" unicode="&#xe9;" horiz-adv-x="524" 
d="M488 218h-339q4 -66 37 -100.5t86 -34.5q50 0 76 23t34 49l103 -19q-16 -60 -68.5 -103t-146.5 -43q-109 0 -171.5 67t-62.5 185q0 61 18.5 108.5t50 79t74 48t91.5 16.5q104 0 161 -65.5t57 -177.5v-33zM270 401q-44 0 -76.5 -26.5t-42.5 -77.5h227q-4 48 -30.5 76
t-77.5 28zM284 682h127l-112 -138h-104z" />
    <glyph glyph-name="ecircumflex" unicode="&#xea;" horiz-adv-x="524" 
d="M488 218h-339q4 -66 37 -100.5t86 -34.5q50 0 76 23t34 49l103 -19q-16 -60 -68.5 -103t-146.5 -43q-109 0 -171.5 67t-62.5 185q0 61 18.5 108.5t50 79t74 48t91.5 16.5q104 0 161 -65.5t57 -177.5v-33zM270 401q-44 0 -76.5 -26.5t-42.5 -77.5h227q-4 48 -30.5 76
t-77.5 28zM203 682h121l108 -138h-102l-66 83l-67 -83h-101z" />
    <glyph glyph-name="edieresis" unicode="&#xeb;" horiz-adv-x="524" 
d="M488 218h-339q4 -66 37 -100.5t86 -34.5q50 0 76 23t34 49l103 -19q-16 -60 -68.5 -103t-146.5 -43q-109 0 -171.5 67t-62.5 185q0 61 18.5 108.5t50 79t74 48t91.5 16.5q104 0 161 -65.5t57 -177.5v-33zM270 401q-44 0 -76.5 -26.5t-42.5 -77.5h227q-4 48 -30.5 76
t-77.5 28zM111 562v111h112v-111h-112zM305 562v111h113v-111h-113z" />
    <glyph glyph-name="emacron" unicode="&#x113;" horiz-adv-x="524" 
d="M488 218h-339q4 -66 37 -100.5t86 -34.5q50 0 76 23t34 49l103 -19q-16 -60 -68.5 -103t-146.5 -43q-109 0 -171.5 67t-62.5 185q0 61 18.5 108.5t50 79t74 48t91.5 16.5q104 0 161 -65.5t57 -177.5v-33zM270 401q-44 0 -76.5 -26.5t-42.5 -77.5h227q-4 48 -30.5 76
t-77.5 28zM399 577h-268v85h268v-85z" />
    <glyph glyph-name="ebreve" unicode="&#x115;" horiz-adv-x="524" 
d="M488 218h-339q4 -66 37 -100.5t86 -34.5q50 0 76 23t34 49l103 -19q-16 -60 -68.5 -103t-146.5 -43q-109 0 -171.5 67t-62.5 185q0 61 18.5 108.5t50 79t74 48t91.5 16.5q104 0 161 -65.5t57 -177.5v-33zM270 401q-44 0 -76.5 -26.5t-42.5 -77.5h227q-4 48 -30.5 76
t-77.5 28zM265 536q-75 0 -110.5 38t-39.5 97h88q3 -27 17 -44t45 -17q30 0 43 17t16 44h89q-4 -59 -39 -97t-109 -38z" />
    <glyph glyph-name="edotaccent" unicode="&#x117;" horiz-adv-x="524" 
d="M488 218h-339q4 -66 37 -100.5t86 -34.5q50 0 76 23t34 49l103 -19q-16 -60 -68.5 -103t-146.5 -43q-109 0 -171.5 67t-62.5 185q0 61 18.5 108.5t50 79t74 48t91.5 16.5q104 0 161 -65.5t57 -177.5v-33zM270 401q-44 0 -76.5 -26.5t-42.5 -77.5h227q-4 48 -30.5 76
t-77.5 28zM205 562v112h122v-112h-122z" />
    <glyph glyph-name="eogonek" unicode="&#x119;" horiz-adv-x="524" 
d="M462 -193q-11 -4 -29.5 -7t-40.5 -3q-51 0 -87.5 25t-36.5 76q0 28 13.5 52.5t32.5 43.5q-10 -2 -21 -3t-23 -1q-109 0 -171.5 67t-62.5 185q0 61 18.5 108.5t50 79t74 48t91.5 16.5q104 0 161 -65.5t57 -175.5v-35h-339q4 -66 37 -100.5t86 -34.5q51 0 77 22.5t34 49.5
l99 -19q-4 -25 -19 -51t-39 -55q-25 -31 -38 -55t-14 -48q0 -22 14 -33.5t34 -11.5q12 0 21 1t16 3zM270 401q-44 0 -76.5 -26.5t-42.5 -77.5h227q-4 48 -31 76t-77 28z" />
    <glyph glyph-name="ecaron" unicode="&#x11b;" horiz-adv-x="524" 
d="M488 218h-339q4 -66 37 -100.5t86 -34.5q50 0 76 23t34 49l103 -19q-16 -60 -68.5 -103t-146.5 -43q-109 0 -171.5 67t-62.5 185q0 61 18.5 108.5t50 79t74 48t91.5 16.5q104 0 161 -65.5t57 -177.5v-33zM270 401q-44 0 -76.5 -26.5t-42.5 -77.5h227q-4 48 -30.5 76
t-77.5 28zM202 544l-107 138h102l65 -80l65 80h103l-107 -138h-121z" />
    <glyph glyph-name="uni1EBD" unicode="&#x1ebd;" horiz-adv-x="524" 
d="M488 218h-339q4 -66 37 -100.5t86 -34.5q50 0 76 23t34 49l103 -19q-16 -60 -68.5 -103t-146.5 -43q-109 0 -171.5 67t-62.5 185q0 61 18.5 108.5t50 79t74 48t91.5 16.5q104 0 161 -65.5t57 -177.5v-33zM270 401q-44 0 -76.5 -26.5t-42.5 -77.5h227q-4 48 -30.5 76
t-77.5 28zM109 550v14q0 49 23 81t66 32q19 0 35 -7t29 -15.5t24.5 -15.5t22.5 -7q13 0 19.5 9.5t6.5 25.5v11h76v-17q0 -47 -20.5 -78.5t-62.5 -31.5q-20 0 -37 7t-31 15t-26 15t-22 7q-13 0 -20 -10.5t-7 -26.5v-8h-76z" />
    <glyph glyph-name="f" unicode="f" horiz-adv-x="366" 
d="M102 0v382h-86v102h86v36q0 93 47.5 126.5t134.5 33.5h75v-97h-60q-43 0 -62 -16t-19 -59v-24h131v-102h-131v-382h-116z" />
    <glyph glyph-name="g" unicode="g" horiz-adv-x="580" 
d="M406 484h108v-472q0 -58 -17.5 -99.5t-49 -67t-75.5 -37.5t-96 -12q-86 0 -146 39t-75 117l110 15q10 -40 42 -58t69 -18q57 0 92.5 27t35.5 94v58q-21 -32 -58.5 -48.5t-88.5 -16.5q-46 0 -86 15t-69 45t-45.5 74.5t-16.5 103.5q0 121 62.5 186t161.5 65q47 0 84 -18
t58 -50v58zM402 227v50q0 60 -35.5 89.5t-86.5 29.5q-57 0 -90.5 -40t-33.5 -110q0 -67 32 -106t91 -39q57 0 90 34.5t33 91.5z" />
    <glyph glyph-name="gcircumflex" unicode="&#x11d;" horiz-adv-x="580" 
d="M406 484h108v-472q0 -58 -17.5 -99.5t-49 -67t-75.5 -37.5t-96 -12q-86 0 -146 39t-75 117l110 15q10 -40 42 -58t69 -18q57 0 92.5 27t35.5 94v58q-21 -32 -58.5 -48.5t-88.5 -16.5q-46 0 -86 15t-69 45t-45.5 74.5t-16.5 103.5q0 121 62.5 186t161.5 65q47 0 84 -18
t58 -50v58zM402 227v50q0 60 -35.5 89.5t-86.5 29.5q-57 0 -90.5 -40t-33.5 -110q0 -67 32 -106t91 -39q57 0 90 34.5t33 91.5zM220 682h121l108 -138h-102l-66 83l-67 -83h-101z" />
    <glyph glyph-name="gbreve" unicode="&#x11f;" horiz-adv-x="580" 
d="M406 484h108v-472q0 -58 -17.5 -99.5t-49 -67t-75.5 -37.5t-96 -12q-86 0 -146 39t-75 117l110 15q10 -40 42 -58t69 -18q57 0 92.5 27t35.5 94v58q-21 -32 -58.5 -48.5t-88.5 -16.5q-46 0 -86 15t-69 45t-45.5 74.5t-16.5 103.5q0 121 62.5 186t161.5 65q47 0 84 -18
t58 -50v58zM402 227v50q0 60 -35.5 89.5t-86.5 29.5q-57 0 -90.5 -40t-33.5 -110q0 -67 32 -106t91 -39q57 0 90 34.5t33 91.5zM283 536q-75 0 -110.5 38t-39.5 97h88q3 -27 17 -44t45 -17q30 0 43 17t16 44h89q-4 -59 -39 -97t-109 -38z" />
    <glyph glyph-name="gdotaccent" unicode="&#x121;" horiz-adv-x="580" 
d="M406 484h108v-472q0 -58 -17.5 -99.5t-49 -67t-75.5 -37.5t-96 -12q-86 0 -146 39t-75 117l110 15q10 -40 42 -58t69 -18q57 0 92.5 27t35.5 94v58q-21 -32 -58.5 -48.5t-88.5 -16.5q-46 0 -86 15t-69 45t-45.5 74.5t-16.5 103.5q0 121 62.5 186t161.5 65q47 0 84 -18
t58 -50v58zM402 227v50q0 60 -35.5 89.5t-86.5 29.5q-57 0 -90.5 -40t-33.5 -110q0 -67 32 -106t91 -39q57 0 90 34.5t33 91.5zM220 562v112h122v-112h-122z" />
    <glyph glyph-name="gcommaaccent" unicode="&#x123;" horiz-adv-x="580" 
d="M341 638v-98h-119v72q0 61 26 95t89 44l11 -53q-33 -7 -49 -22.5t-18 -37.5h60zM406 484h108v-472q0 -58 -17.5 -99.5t-49 -67t-75.5 -37.5t-96 -12q-86 0 -146 39t-75 117l110 15q10 -40 42 -58t69 -18q57 0 92.5 27t35.5 94v58q-21 -32 -58.5 -48.5t-88.5 -16.5
q-46 0 -86 15t-69 45t-45.5 74.5t-16.5 103.5q0 121 62.5 186t161.5 65q47 0 84 -18t58 -50v58zM402 227v50q0 60 -35.5 89.5t-86.5 29.5q-57 0 -90.5 -40t-33.5 -110q0 -67 32 -106t91 -39q57 0 90 34.5t33 91.5z" />
    <glyph glyph-name="h" unicode="h" horiz-adv-x="573" 
d="M67 0v680h115v-256q24 32 64 51t89 19q79 0 127.5 -44t48.5 -128v-322h-115v299q0 46 -25 70.5t-76 24.5q-46 0 -79.5 -27t-33.5 -75v-292h-115z" />
    <glyph glyph-name="hcircumflex" unicode="&#x125;" horiz-adv-x="573" 
d="M67 0v680h115v-256q24 32 64 51t89 19q79 0 127.5 -44t48.5 -128v-322h-115v299q0 46 -25 70.5t-76 24.5q-46 0 -79.5 -27t-33.5 -75v-292h-115zM66 848h121l108 -138h-102l-66 83l-67 -83h-101z" />
    <glyph glyph-name="hbar" unicode="&#x127;" horiz-adv-x="572" 
d="M67 0v551h-56v76h56v53h113v-53h130v-76h-130v-130q24 34 64.5 53.5t90.5 19.5q79 0 127.5 -44t48.5 -128v-322h-115v299q0 46 -25 70.5t-76 24.5q-46 0 -79.5 -27t-33.5 -75v-292h-115z" />
    <glyph glyph-name="i" unicode="i" horiz-adv-x="249" 
d="M64 562v112h122v-112h-122zM67 0v484h115v-484h-115z" />
    <glyph glyph-name="igrave" unicode="&#xec;" horiz-adv-x="249" 
d="M67 0v484h115v-484h-115zM89 682h-127l112 -138h104z" />
    <glyph glyph-name="iacute" unicode="&#xed;" horiz-adv-x="249" 
d="M67 0v484h115v-484h-115zM163 682h127l-112 -138h-104z" />
    <glyph glyph-name="icircumflex" unicode="&#xee;" horiz-adv-x="249" 
d="M67 0v484h115v-484h-115zM65 682h121l108 -138h-102l-66 83l-67 -83h-101z" />
    <glyph glyph-name="idieresis" unicode="&#xef;" horiz-adv-x="249" 
d="M67 0v484h115v-484h-115zM-30 562v111h112v-111h-112zM164 562v111h113v-111h-113z" />
    <glyph glyph-name="itilde" unicode="&#x129;" horiz-adv-x="249" 
d="M67 0v484h115v-484h-115zM-27 550v14q0 49 23 81t66 32q19 0 35 -7t29 -15.5t24.5 -15.5t22.5 -7q13 0 19.5 9.5t6.5 25.5v11h76v-17q0 -47 -20.5 -78.5t-62.5 -31.5q-20 0 -37 7t-31 15t-26 15t-22 7q-13 0 -20 -10.5t-7 -26.5v-8h-76z" />
    <glyph glyph-name="imacron" unicode="&#x12b;" horiz-adv-x="249" 
d="M67 0v484h115v-484h-115zM262 577h-268v85h268v-85z" />
    <glyph glyph-name="ibreve" unicode="&#x12d;" horiz-adv-x="249" 
d="M67 0v484h115v-484h-115zM126 536q-75 0 -110.5 38t-39.5 97h88q3 -27 17 -44t45 -17q30 0 43 17t16 44h89q-4 -59 -39 -97t-109 -38z" />
    <glyph glyph-name="iogonek" unicode="&#x12f;" horiz-adv-x="249" 
d="M64 562v112h122v-112h-122zM67 0v484h115v-484q-29 -12 -50.5 -32t-21.5 -47q0 -20 12.5 -29.5t33.5 -9.5q11 0 20.5 1.5t15.5 2.5l5 -79q-12 -4 -30 -7t-40 -3q-50 0 -87 25t-37 76q0 34 18.5 59t45.5 43z" />
    <glyph glyph-name="i.TRK" horiz-adv-x="249" 
d="M64 562v112h122v-112h-122zM67 0v484h115v-484h-115z" />
    <glyph glyph-name="j" unicode="j" horiz-adv-x="260" 
d="M73 562v112h122v-112h-122zM192 484v-502q0 -92 -41 -134t-133 -42h-60v100h38q43 0 62 19t19 61v498h115z" />
    <glyph glyph-name="jcircumflex" unicode="&#x135;" horiz-adv-x="260" 
d="M192 484v-502q0 -92 -41 -134t-133 -42h-60v100h38q43 0 62 19t19 61v498h115zM67 682h121l108 -138h-102l-66 83l-67 -83h-101z" />
    <glyph glyph-name="ij" unicode="&#x133;" horiz-adv-x="505" 
d="M64 562v112h122v-112h-122zM67 0v484h115v-484h-115zM317 562v112h122v-112h-122zM436 484v-502q0 -92 -41 -134t-133 -42h-60v100h38q43 0 62 19t19 61v498h115z" />
    <glyph glyph-name="uni00ED006A0301" horiz-adv-x="505" 
d="M164 682h127l-112 -138h-104zM413 682h127l-112 -138h-104zM67 0v484h115v-484h-115zM436 484v-496q0 -96 -42 -139t-129 -43h-72v101h44q42 0 63 22t21 66v489h115z" />
    <glyph glyph-name="k" unicode="k" horiz-adv-x="525" 
d="M67 0v680h115v-377h61l129 181h130l-163 -223l172 -261h-132l-135 211h-62v-211h-115z" />
    <glyph glyph-name="kcommaaccent" unicode="&#x137;" horiz-adv-x="525" 
d="M67 0v680h115v-377h61l129 181h130l-163 -223l172 -261h-132l-135 211h-62v-211h-115zM220 -145v97h119v-72q0 -60 -26 -94t-89 -44l-11 53q33 6 49 22t18 38h-60z" />
    <glyph glyph-name="l" unicode="l" horiz-adv-x="249" 
d="M67 0v680h115v-680h-115z" />
    <glyph glyph-name="lacute" unicode="&#x13a;" horiz-adv-x="249" 
d="M67 0v680h115v-680h-115zM159 858h127l-112 -138h-104z" />
    <glyph glyph-name="lcommaaccent" unicode="&#x13c;" horiz-adv-x="249" 
d="M67 0v680h115v-680h-115zM65 -145v97h119v-72q0 -60 -26 -94t-89 -44l-11 53q33 6 49 22t18 38h-60z" />
    <glyph glyph-name="lcaron" unicode="&#x13e;" horiz-adv-x="249" 
d="M67 0v680h115v-680h-115zM247 690h107l-63 -196h-77z" />
    <glyph glyph-name="ldot" unicode="&#x140;" horiz-adv-x="401" 
d="M67 0v680h115v-680h-115zM267 228v112h114v-112h-114z" />
    <glyph glyph-name="lslash" unicode="&#x142;" horiz-adv-x="287" 
d="M86 0v211l-77 -49v98l77 49v371h114v-307l78 49v-98l-78 -49v-275h-114z" />
    <glyph glyph-name="m" unicode="m" horiz-adv-x="884" 
d="M67 0v484h111v-63q23 34 62.5 53.5t88.5 19.5q58 0 96.5 -24.5t55.5 -61.5q26 43 71.5 64.5t96.5 21.5q77 0 125 -44.5t48 -128.5v-321h-115v300q0 43 -24 68.5t-73 25.5q-44 0 -76 -28t-32 -74v-292h-115v299q0 44 -24 69.5t-73 25.5q-44 0 -76 -28t-32 -74v-292h-115z
" />
    <glyph glyph-name="n" unicode="n" horiz-adv-x="573" 
d="M67 0v484h112v-64q24 34 64.5 54t90.5 20q79 0 128 -44t49 -128v-322h-115v299q0 46 -25 70.5t-76 24.5q-45 0 -79 -27t-34 -75v-292h-115z" />
    <glyph glyph-name="ntilde" unicode="&#xf1;" horiz-adv-x="573" 
d="M67 0v484h112v-64q24 34 64.5 54t90.5 20q79 0 128 -44t49 -128v-322h-115v299q0 46 -25 70.5t-76 24.5q-45 0 -79 -27t-34 -75v-292h-115zM140 550v14q0 49 23 81t66 32q19 0 35 -7t29 -15.5t24.5 -15.5t22.5 -7q13 0 19.5 9.5t6.5 25.5v11h76v-17q0 -47 -20.5 -78.5
t-62.5 -31.5q-20 0 -37 7t-31 15t-26 15t-22 7q-13 0 -20 -10.5t-7 -26.5v-8h-76z" />
    <glyph glyph-name="nacute" unicode="&#x144;" horiz-adv-x="573" 
d="M67 0v484h112v-64q24 34 64.5 54t90.5 20q79 0 128 -44t49 -128v-322h-115v299q0 46 -25 70.5t-76 24.5q-45 0 -79 -27t-34 -75v-292h-115zM312 682h127l-112 -138h-104z" />
    <glyph glyph-name="ncommaaccent" unicode="&#x146;" horiz-adv-x="573" 
d="M67 0v484h112v-64q24 34 64.5 54t90.5 20q79 0 128 -44t49 -128v-322h-115v299q0 46 -25 70.5t-76 24.5q-45 0 -79 -27t-34 -75v-292h-115zM236 -145v97h119v-72q0 -60 -26 -94t-89 -44l-11 53q33 6 49 22t18 38h-60z" />
    <glyph glyph-name="ncaron" unicode="&#x148;" horiz-adv-x="573" 
d="M67 0v484h112v-64q24 34 64.5 54t90.5 20q79 0 128 -44t49 -128v-322h-115v299q0 46 -25 70.5t-76 24.5q-45 0 -79 -27t-34 -75v-292h-115zM234 544l-107 138h102l65 -80l65 80h103l-107 -138h-121z" />
    <glyph glyph-name="uni1E47" unicode="&#x1e47;" horiz-adv-x="573" 
d="M67 0v484h112v-64q24 34 64.5 54t90.5 20q79 0 128 -44t49 -128v-322h-115v299q0 46 -25 70.5t-76 24.5q-45 0 -79 -27t-34 -75v-292h-115zM231 -160v112h122v-112h-122z" />
    <glyph glyph-name="napostrophe" unicode="&#x149;" horiz-adv-x="573" 
d="M67 0v484h112v-64q24 34 64.5 54t90.5 20q79 0 128 -44t49 -128v-322h-115v299q0 46 -25 70.5t-76 24.5q-45 0 -79 -27t-34 -75v-292h-115zM107 708h107l-63 -196h-77z" />
    <glyph glyph-name="eng" unicode="&#x14b;" horiz-adv-x="573" 
d="M396 -9v308q0 46 -25 70.5t-76 24.5q-46 0 -79.5 -27t-33.5 -75v-292h-115v484h112v-64q24 34 64.5 54t90.5 20q79 0 128 -44t49 -128v-339q0 -92 -41.5 -134.5t-127.5 -42.5h-56v100h32q40 0 59 19.5t19 65.5z" />
    <glyph glyph-name="o" unicode="o" horiz-adv-x="552" 
d="M277 -10q-107 0 -173 67t-66 186t65.5 185t173.5 66q109 0 173.5 -66t64.5 -185q0 -118 -64.5 -185.5t-173.5 -67.5zM277 87q60 0 92 40.5t32 115.5t-32 114.5t-92 39.5q-58 0 -91.5 -39.5t-33.5 -114.5t34 -115.5t91 -40.5z" />
    <glyph glyph-name="ograve" unicode="&#xf2;" horiz-adv-x="552" 
d="M277 -10q-107 0 -173 67t-66 186t65.5 185t173.5 66q109 0 173.5 -66t64.5 -185q0 -118 -64.5 -185.5t-173.5 -67.5zM277 87q60 0 92 40.5t32 115.5t-32 114.5t-92 39.5q-58 0 -91.5 -39.5t-33.5 -114.5t34 -115.5t91 -40.5zM253 682h-127l112 -138h104z" />
    <glyph glyph-name="oacute" unicode="&#xf3;" horiz-adv-x="552" 
d="M277 -10q-107 0 -173 67t-66 186t65.5 185t173.5 66q109 0 173.5 -66t64.5 -185q0 -118 -64.5 -185.5t-173.5 -67.5zM277 87q60 0 92 40.5t32 115.5t-32 114.5t-92 39.5q-58 0 -91.5 -39.5t-33.5 -114.5t34 -115.5t91 -40.5zM295 682h127l-112 -138h-104z" />
    <glyph glyph-name="ocircumflex" unicode="&#xf4;" horiz-adv-x="552" 
d="M277 -10q-107 0 -173 67t-66 186t65.5 185t173.5 66q109 0 173.5 -66t64.5 -185q0 -118 -64.5 -185.5t-173.5 -67.5zM277 87q60 0 92 40.5t32 115.5t-32 114.5t-92 39.5q-58 0 -91.5 -39.5t-33.5 -114.5t34 -115.5t91 -40.5zM215 682h121l108 -138h-102l-66 83l-67 -83
h-101z" />
    <glyph glyph-name="otilde" unicode="&#xf5;" horiz-adv-x="552" 
d="M277 -10q-107 0 -173 67t-66 186t65.5 185t173.5 66q109 0 173.5 -66t64.5 -185q0 -118 -64.5 -185.5t-173.5 -67.5zM277 87q60 0 92 40.5t32 115.5t-32 114.5t-92 39.5q-58 0 -91.5 -39.5t-33.5 -114.5t34 -115.5t91 -40.5zM123 550v14q0 49 23 81t66 32q19 0 35 -7
t29 -15.5t24.5 -15.5t22.5 -7q13 0 19.5 9.5t6.5 25.5v11h76v-17q0 -47 -20.5 -78.5t-62.5 -31.5q-20 0 -37 7t-31 15t-26 15t-22 7q-13 0 -20 -10.5t-7 -26.5v-8h-76z" />
    <glyph glyph-name="odieresis" unicode="&#xf6;" horiz-adv-x="552" 
d="M277 -10q-107 0 -173 67t-66 186t65.5 185t173.5 66q109 0 173.5 -66t64.5 -185q0 -118 -64.5 -185.5t-173.5 -67.5zM277 87q60 0 92 40.5t32 115.5t-32 114.5t-92 39.5q-58 0 -91.5 -39.5t-33.5 -114.5t34 -115.5t91 -40.5zM123 562v111h112v-111h-112zM317 562v111h113
v-111h-113z" />
    <glyph glyph-name="omacron" unicode="&#x14d;" horiz-adv-x="552" 
d="M277 -10q-107 0 -173 67t-66 186t65.5 185t173.5 66q109 0 173.5 -66t64.5 -185q0 -118 -64.5 -185.5t-173.5 -67.5zM277 87q60 0 92 40.5t32 115.5t-32 114.5t-92 39.5q-58 0 -91.5 -39.5t-33.5 -114.5t34 -115.5t91 -40.5zM410 577h-268v85h268v-85z" />
    <glyph glyph-name="obreve" unicode="&#x14f;" horiz-adv-x="552" 
d="M277 -10q-107 0 -173 67t-66 186t65.5 185t173.5 66q109 0 173.5 -66t64.5 -185q0 -118 -64.5 -185.5t-173.5 -67.5zM277 87q60 0 92 40.5t32 115.5t-32 114.5t-92 39.5q-58 0 -91.5 -39.5t-33.5 -114.5t34 -115.5t91 -40.5zM275 536q-75 0 -110.5 38t-39.5 97h88
q3 -27 17 -44t45 -17q30 0 43 17t16 44h89q-4 -59 -39 -97t-109 -38z" />
    <glyph glyph-name="ohungarumlaut" unicode="&#x151;" horiz-adv-x="552" 
d="M277 -10q-107 0 -173 67t-66 186t65.5 185t173.5 66q109 0 173.5 -66t64.5 -185q0 -118 -64.5 -185.5t-173.5 -67.5zM277 87q60 0 92 40.5t32 115.5t-32 114.5t-92 39.5q-58 0 -91.5 -39.5t-33.5 -114.5t34 -115.5t91 -40.5zM232 682h114l-115 -138h-97zM404 682h117
l-131 -138h-99z" />
    <glyph glyph-name="oslash" unicode="&#xf8;" horiz-adv-x="557" 
d="M280 -10q-107 0 -174.5 67t-67.5 186t66.5 185t175.5 66q108 0 173.5 -66t65.5 -185q0 -118 -65.5 -185.5t-173.5 -67.5zM148 243q0 -25 4.5 -46.5t12.5 -39.5l183 225q-14 9 -31.5 13.5t-36.5 4.5q-60 0 -96 -40t-36 -117zM280 84q60 0 94.5 42t34.5 117q0 25 -4 47
t-12 39l-183 -226q15 -9 33 -14t37 -5z" />
    <glyph glyph-name="oslashacute" unicode="&#x1ff;" horiz-adv-x="557" 
d="M280 -10q-107 0 -174.5 67t-67.5 186t66.5 185t175.5 66q108 0 173.5 -66t65.5 -185q0 -118 -65.5 -185.5t-173.5 -67.5zM148 243q0 -25 4.5 -46.5t12.5 -39.5l183 225q-14 9 -31.5 13.5t-36.5 4.5q-60 0 -96 -40t-36 -117zM280 84q60 0 94.5 42t34.5 117q0 25 -4 47
t-12 39l-183 -226q15 -9 33 -14t37 -5zM300 682h127l-112 -138h-104z" />
    <glyph glyph-name="oe" unicode="&#x153;" horiz-adv-x="884" 
d="M845 136q-16 -60 -68.5 -103t-146.5 -43q-60 0 -104 21t-71 60q-28 -39 -73 -60t-105 -21q-107 0 -173 67t-66 186t65.5 185t173.5 66q60 0 105.5 -22t73.5 -62q30 41 75.5 62.5t99.5 21.5q104 0 160.5 -65t56.5 -176v-35h-339q4 -66 37 -100.5t86 -34.5q50 0 76 23
t34 49zM630 402q-44 0 -76 -27t-42 -78h225q-3 48 -29.5 76.5t-77.5 28.5zM277 87q60 0 92 40.5t32 115.5t-32 114.5t-92 39.5q-58 0 -91.5 -39.5t-33.5 -114.5t34 -115.5t91 -40.5z" />
    <glyph glyph-name="p" unicode="p" horiz-adv-x="582" 
d="M67 -194v678h114v-61q23 34 64 52.5t90 18.5q43 0 81.5 -16t66 -47t44 -77.5t16.5 -106.5q0 -124 -63 -190.5t-161 -66.5q-43 0 -78 13.5t-59 38.5v-236h-115zM182 203q0 -52 36 -83.5t89 -31.5q55 0 88 41.5t33 113.5q0 70 -32.5 111.5t-89.5 41.5q-50 0 -87 -34
t-37 -94v-65z" />
    <glyph glyph-name="q" unicode="q" horiz-adv-x="582" 
d="M399 -194v246q-21 -30 -56.5 -46t-86.5 -16q-46 0 -86 16.5t-69.5 48t-46 78t-16.5 106.5q0 62 17 109.5t46.5 80t71 49t90.5 16.5q48 0 84 -18t58 -48v56h110v-678h-116zM399 216v56q0 60 -34 91.5t-85 31.5q-59 0 -92.5 -40t-33.5 -112q0 -69 32 -111.5t91 -42.5
q60 0 91 36.5t31 90.5z" />
    <glyph glyph-name="r" unicode="r" horiz-adv-x="359" 
d="M67 0v484h111v-64q25 38 62.5 51t71.5 13h39v-104h-41q-49 0 -88 -19.5t-39 -61.5v-299h-116z" />
    <glyph glyph-name="racute" unicode="&#x155;" horiz-adv-x="359" 
d="M67 0v484h111v-64q25 38 62.5 51t71.5 13h39v-104h-41q-49 0 -88 -19.5t-39 -61.5v-299h-116zM232 682h127l-112 -138h-104z" />
    <glyph glyph-name="rcommaaccent" unicode="&#x157;" horiz-adv-x="359" 
d="M67 0v484h111v-64q25 38 62.5 51t71.5 13h39v-104h-41q-49 0 -88 -19.5t-39 -61.5v-299h-116zM65 -145v97h119v-72q0 -60 -26 -94t-89 -44l-11 53q33 6 49 22t18 38h-60z" />
    <glyph glyph-name="rcaron" unicode="&#x159;" horiz-adv-x="359" 
d="M67 0v484h111v-64q25 38 62.5 51t71.5 13h39v-104h-41q-49 0 -88 -19.5t-39 -61.5v-299h-116zM152 544l-107 138h102l65 -80l65 80h103l-107 -138h-121z" />
    <glyph glyph-name="s" unicode="s" horiz-adv-x="497" 
d="M41 140l105 14q9 -37 36 -55t73 -18q47 0 70 14t23 39t-17.5 38t-63.5 21l-65 12q-69 12 -107.5 44t-38.5 95q0 70 55.5 110t142.5 40q86 0 139 -39.5t63 -100.5l-102 -22q-7 31 -31 51t-71 20q-42 0 -65 -14.5t-23 -38.5q0 -26 19 -36.5t57 -17.5l62 -12
q76 -14 115.5 -47.5t39.5 -95.5q0 -67 -52 -109t-153 -42q-88 0 -143.5 37.5t-67.5 112.5z" />
    <glyph glyph-name="sacute" unicode="&#x15b;" horiz-adv-x="497" 
d="M41 140l105 14q9 -37 36 -55t73 -18q47 0 70 14t23 39t-17.5 38t-63.5 21l-65 12q-69 12 -107.5 44t-38.5 95q0 70 55.5 110t142.5 40q86 0 139 -39.5t63 -100.5l-102 -22q-7 31 -31 51t-71 20q-42 0 -65 -14.5t-23 -38.5q0 -26 19 -36.5t57 -17.5l62 -12
q76 -14 115.5 -47.5t39.5 -95.5q0 -67 -52 -109t-153 -42q-88 0 -143.5 37.5t-67.5 112.5zM266 682h127l-112 -138h-104z" />
    <glyph glyph-name="scircumflex" unicode="&#x15d;" horiz-adv-x="497" 
d="M41 140l105 14q9 -37 36 -55t73 -18q47 0 70 14t23 39t-17.5 38t-63.5 21l-65 12q-69 12 -107.5 44t-38.5 95q0 70 55.5 110t142.5 40q86 0 139 -39.5t63 -100.5l-102 -22q-7 31 -31 51t-71 20q-42 0 -65 -14.5t-23 -38.5q0 -26 19 -36.5t57 -17.5l62 -12
q76 -14 115.5 -47.5t39.5 -95.5q0 -67 -52 -109t-153 -42q-88 0 -143.5 37.5t-67.5 112.5zM195 682h121l108 -138h-102l-66 83l-67 -83h-101z" />
    <glyph glyph-name="scedilla" unicode="&#x15f;" horiz-adv-x="497" 
d="M41 140l105 14q9 -37 36 -55t73 -18q47 0 70 14t23 39t-17.5 38t-63.5 21l-65 12q-69 12 -107.5 44t-38.5 95q0 70 55.5 110t142.5 40q86 0 139 -39.5t63 -100.5l-102 -22q-7 31 -31 51t-71 20q-42 0 -65 -14.5t-23 -38.5q0 -26 19 -36.5t57 -17.5l62 -12
q76 -14 115.5 -47.5t39.5 -95.5q0 -59 -41 -99t-119 -50l-28 -31q49 -1 74.5 -20t25.5 -61t-33 -67.5t-92 -25.5q-55 0 -86.5 18.5t-38.5 58.5l73 16q5 -16 17.5 -24.5t34.5 -8.5q21 0 32.5 7.5t11.5 23.5q0 18 -17 24.5t-54 4.5l-27 -1v48l32 37q-75 6 -122.5 43t-58.5 106
z" />
    <glyph glyph-name="scaron" unicode="&#x161;" horiz-adv-x="497" 
d="M41 140l105 14q9 -37 36 -55t73 -18q47 0 70 14t23 39t-17.5 38t-63.5 21l-65 12q-69 12 -107.5 44t-38.5 95q0 70 55.5 110t142.5 40q86 0 139 -39.5t63 -100.5l-102 -22q-7 31 -31 51t-71 20q-42 0 -65 -14.5t-23 -38.5q0 -26 19 -36.5t57 -17.5l62 -12
q76 -14 115.5 -47.5t39.5 -95.5q0 -67 -52 -109t-153 -42q-88 0 -143.5 37.5t-67.5 112.5zM192 544l-107 138h102l65 -80l65 80h103l-107 -138h-121z" />
    <glyph glyph-name="scommaaccent" unicode="&#x219;" horiz-adv-x="497" 
d="M41 140l105 14q9 -37 36 -55t73 -18q47 0 70 14t23 39t-17.5 38t-63.5 21l-65 12q-69 12 -107.5 44t-38.5 95q0 70 55.5 110t142.5 40q86 0 139 -39.5t63 -100.5l-102 -22q-7 31 -31 51t-71 20q-42 0 -65 -14.5t-23 -38.5q0 -26 19 -36.5t57 -17.5l62 -12
q76 -14 115.5 -47.5t39.5 -95.5q0 -67 -52 -109t-153 -42q-88 0 -143.5 37.5t-67.5 112.5zM197 -145v97h119v-72q0 -60 -26 -94t-89 -44l-11 53q33 6 49 22t18 38h-60z" />
    <glyph glyph-name="uni1E63" unicode="&#x1e63;" horiz-adv-x="497" 
d="M41 140l105 14q9 -37 36 -55t73 -18q47 0 70 14t23 39t-17.5 38t-63.5 21l-65 12q-69 12 -107.5 44t-38.5 95q0 70 55.5 110t142.5 40q86 0 139 -39.5t63 -100.5l-102 -22q-7 31 -31 51t-71 20q-42 0 -65 -14.5t-23 -38.5q0 -26 19 -36.5t57 -17.5l62 -12
q76 -14 115.5 -47.5t39.5 -95.5q0 -67 -52 -109t-153 -42q-88 0 -143.5 37.5t-67.5 112.5zM191 -160v112h122v-112h-122z" />
    <glyph glyph-name="t" unicode="t" horiz-adv-x="381" 
d="M351 0h-80q-98 0 -138 41.5t-40 137.5v203h-78v102h78v123h115v-123h140v-102h-140v-201q0 -44 18.5 -61.5t55.5 -17.5h69v-102z" />
    <glyph glyph-name="uni0163" unicode="&#x163;" horiz-adv-x="381" 
d="M351 0h-80q-98 0 -138 41.5t-40 137.5v203h-78v102h78v123h115v-123h140v-102h-140v-201q0 -44 18.5 -61.5t55.5 -17.5h69v-102zM165 -145v97h119v-72q0 -60 -26 -94t-89 -44l-11 53q33 6 49 22t18 38h-60z" />
    <glyph glyph-name="tcaron" unicode="&#x165;" horiz-adv-x="381" 
d="M279 702h105l-58 -172h-76zM351 0h-80q-98 0 -138 41.5t-40 137.5v203h-78v102h78v123h115v-123h140v-102h-140v-201q0 -44 18.5 -61.5t55.5 -17.5h69v-102z" />
    <glyph glyph-name="uni021B" unicode="&#x21b;" horiz-adv-x="381" 
d="M351 0h-80q-98 0 -138 41.5t-40 137.5v203h-78v102h78v123h115v-123h140v-102h-140v-201q0 -44 18.5 -61.5t55.5 -17.5h69v-102zM165 -145v97h119v-72q0 -60 -26 -94t-89 -44l-11 53q33 6 49 22t18 38h-60z" />
    <glyph glyph-name="tbar" unicode="&#x167;" horiz-adv-x="377" 
d="M351 0h-80q-98 0 -138 41.5t-40 137.5v39h-77v75h77v90h-78v101h78v123h115v-123h140v-101h-141v-90h116v-75h-116v-37q0 -46 18.5 -63t58.5 -17h67v-101z" />
    <glyph glyph-name="u" unicode="u" horiz-adv-x="571" 
d="M393 0v62q-25 -33 -66.5 -52.5t-91.5 -19.5q-79 0 -126 44t-47 128v322h115v-299q0 -45 24.5 -70t74.5 -25q48 0 80 28t32 74v292h115v-484h-110z" />
    <glyph glyph-name="ugrave" unicode="&#xf9;" horiz-adv-x="571" 
d="M393 0v62q-25 -33 -66.5 -52.5t-91.5 -19.5q-79 0 -126 44t-47 128v322h115v-299q0 -45 24.5 -70t74.5 -25q48 0 80 28t32 74v292h115v-484h-110zM262 682h-127l112 -138h104z" />
    <glyph glyph-name="uacute" unicode="&#xfa;" horiz-adv-x="571" 
d="M393 0v62q-25 -33 -66.5 -52.5t-91.5 -19.5q-79 0 -126 44t-47 128v322h115v-299q0 -45 24.5 -70t74.5 -25q48 0 80 28t32 74v292h115v-484h-110zM304 682h127l-112 -138h-104z" />
    <glyph glyph-name="ucircumflex" unicode="&#xfb;" horiz-adv-x="571" 
d="M393 0v62q-25 -33 -66.5 -52.5t-91.5 -19.5q-79 0 -126 44t-47 128v322h115v-299q0 -45 24.5 -70t74.5 -25q48 0 80 28t32 74v292h115v-484h-110zM223 682h121l108 -138h-102l-66 83l-67 -83h-101z" />
    <glyph glyph-name="udieresis" unicode="&#xfc;" horiz-adv-x="571" 
d="M393 0v62q-25 -33 -66.5 -52.5t-91.5 -19.5q-79 0 -126 44t-47 128v322h115v-299q0 -45 24.5 -70t74.5 -25q48 0 80 28t32 74v292h115v-484h-110zM130 562v111h112v-111h-112zM324 562v111h113v-111h-113z" />
    <glyph glyph-name="utilde" unicode="&#x169;" horiz-adv-x="571" 
d="M393 0v62q-25 -33 -66.5 -52.5t-91.5 -19.5q-79 0 -126 44t-47 128v322h115v-299q0 -45 24.5 -70t74.5 -25q48 0 80 28t32 74v292h115v-484h-110zM133 550v14q0 49 23 81t66 32q19 0 35 -7t29 -15.5t24.5 -15.5t22.5 -7q13 0 19.5 9.5t6.5 25.5v11h76v-17
q0 -47 -20.5 -78.5t-62.5 -31.5q-20 0 -37 7t-31 15t-26 15t-22 7q-13 0 -20 -10.5t-7 -26.5v-8h-76z" />
    <glyph glyph-name="umacron" unicode="&#x16b;" horiz-adv-x="571" 
d="M393 0v62q-25 -33 -66.5 -52.5t-91.5 -19.5q-79 0 -126 44t-47 128v322h115v-299q0 -45 24.5 -70t74.5 -25q48 0 80 28t32 74v292h115v-484h-110zM416 577h-268v85h268v-85z" />
    <glyph glyph-name="ubreve" unicode="&#x16d;" horiz-adv-x="571" 
d="M393 0v62q-25 -33 -66.5 -52.5t-91.5 -19.5q-79 0 -126 44t-47 128v322h115v-299q0 -45 24.5 -70t74.5 -25q48 0 80 28t32 74v292h115v-484h-110zM285 536q-75 0 -110.5 38t-39.5 97h88q3 -27 17 -44t45 -17q30 0 43 17t16 44h89q-4 -59 -39 -97t-109 -38z" />
    <glyph glyph-name="uring" unicode="&#x16f;" horiz-adv-x="571" 
d="M393 0v62q-25 -33 -66.5 -52.5t-91.5 -19.5q-79 0 -126 44t-47 128v322h115v-299q0 -45 24.5 -70t74.5 -25q48 0 80 28t32 74v292h115v-484h-110zM283 524q-44 0 -73.5 28t-29.5 74q0 45 29.5 73.5t73.5 28.5q45 0 74.5 -28.5t29.5 -73.5q0 -46 -29.5 -74t-74.5 -28z
M283 584q19 0 30.5 12t11.5 30q0 17 -11.5 29.5t-30.5 12.5t-30.5 -12.5t-11.5 -29.5q0 -18 11.5 -30t30.5 -12z" />
    <glyph glyph-name="uhungarumlaut" unicode="&#x171;" horiz-adv-x="571" 
d="M393 0v62q-25 -33 -66.5 -52.5t-91.5 -19.5q-79 0 -126 44t-47 128v322h115v-299q0 -45 24.5 -70t74.5 -25q48 0 80 28t32 74v292h115v-484h-110zM240 682h114l-115 -138h-97zM412 682h117l-131 -138h-99z" />
    <glyph glyph-name="uogonek" unicode="&#x173;" horiz-adv-x="571" 
d="M449 -203q-51 0 -87.5 25t-36.5 76q0 34 19 60.5t49 45.5v58q-25 -33 -66.5 -52.5t-91.5 -19.5q-79 0 -126 44t-47 128v322h115v-299q0 -45 24.5 -70t74.5 -25q48 0 80 28t32 74v292h115v-484q-28 -12 -50 -32.5t-22 -46.5q0 -20 13 -29.5t33 -9.5q12 0 21 1t16 3l5 -79
q-12 -4 -30 -7t-40 -3z" />
    <glyph glyph-name="uni01D4" unicode="&#x1d4;" horiz-adv-x="571" 
d="M393 0v62q-25 -33 -66.5 -52.5t-91.5 -19.5q-79 0 -126 44t-47 128v322h115v-299q0 -45 24.5 -70t74.5 -25q48 0 80 28t32 74v292h115v-484h-110zM222 544l-107 138h102l65 -80l65 80h103l-107 -138h-121z" />
    <glyph glyph-name="v" unicode="v" horiz-adv-x="520" 
d="M190 0l-178 484h121l131 -375l130 375h118l-180 -484h-142z" />
    <glyph glyph-name="w" unicode="w" horiz-adv-x="788" 
d="M12 484h118l99 -354l102 354h135l103 -358l101 358h110l-150 -484h-129l-106 367l-107 -367h-128z" />
    <glyph glyph-name="wcircumflex" unicode="&#x175;" horiz-adv-x="788" 
d="M12 484h118l99 -354l102 354h135l103 -358l101 358h110l-150 -484h-129l-106 367l-107 -367h-128zM336 682h121l108 -138h-102l-66 83l-67 -83h-101z" />
    <glyph glyph-name="wgrave" unicode="&#x1e81;" horiz-adv-x="788" 
d="M12 484h118l99 -354l102 354h135l103 -358l101 358h110l-150 -484h-129l-106 367l-107 -367h-128zM364 682h-127l112 -138h104z" />
    <glyph glyph-name="wacute" unicode="&#x1e83;" horiz-adv-x="788" 
d="M12 484h118l99 -354l102 354h135l103 -358l101 358h110l-150 -484h-129l-106 367l-107 -367h-128zM431 682h127l-112 -138h-104z" />
    <glyph glyph-name="wdieresis" unicode="&#x1e85;" horiz-adv-x="788" 
d="M12 484h118l99 -354l102 354h135l103 -358l101 358h110l-150 -484h-129l-106 367l-107 -367h-128zM241 562v111h112v-111h-112zM435 562v111h113v-111h-113z" />
    <glyph glyph-name="x" unicode="x" horiz-adv-x="515" 
d="M371 0l-115 174l-109 -174h-134l171 251l-161 233h130l105 -158l102 158h133l-163 -234l175 -250h-134z" />
    <glyph glyph-name="y" unicode="y" horiz-adv-x="524" 
d="M319 -43q-32 -87 -73.5 -119t-116.5 -32h-57v102h42q33 0 55.5 12.5t35.5 45.5l11 26l-203 492h127l136 -353l120 353h120z" />
    <glyph glyph-name="yacute" unicode="&#xfd;" horiz-adv-x="524" 
d="M319 -43q-32 -87 -73.5 -119t-116.5 -32h-57v102h42q33 0 55.5 12.5t35.5 45.5l11 26l-203 492h127l136 -353l120 353h120zM286 682h127l-112 -138h-104z" />
    <glyph glyph-name="ydieresis" unicode="&#xff;" horiz-adv-x="524" 
d="M319 -43q-32 -87 -73.5 -119t-116.5 -32h-57v102h42q33 0 55.5 12.5t35.5 45.5l11 26l-203 492h127l136 -353l120 353h120zM111 562v111h112v-111h-112zM305 562v111h113v-111h-113z" />
    <glyph glyph-name="ycircumflex" unicode="&#x177;" horiz-adv-x="524" 
d="M319 -43q-32 -87 -73.5 -119t-116.5 -32h-57v102h42q33 0 55.5 12.5t35.5 45.5l11 26l-203 492h127l136 -353l120 353h120zM205 682h121l108 -138h-102l-66 83l-67 -83h-101z" />
    <glyph glyph-name="uni0233" unicode="&#x233;" horiz-adv-x="524" 
d="M319 -43q-32 -87 -73.5 -119t-116.5 -32h-57v102h42q33 0 55.5 12.5t35.5 45.5l11 26l-203 492h127l136 -353l120 353h120zM400 577h-268v85h268v-85z" />
    <glyph glyph-name="ygrave" unicode="&#x1ef3;" horiz-adv-x="524" 
d="M319 -43q-32 -87 -73.5 -119t-116.5 -32h-57v102h42q33 0 55.5 12.5t35.5 45.5l11 26l-203 492h127l136 -353l120 353h120zM245 682h-127l112 -138h104z" />
    <glyph glyph-name="z" unicode="z" horiz-adv-x="513" 
d="M48 0v105l279 277h-272v102h412v-103l-281 -279h285v-102h-423z" />
    <glyph glyph-name="zacute" unicode="&#x17a;" horiz-adv-x="513" 
d="M48 0v105l279 277h-272v102h412v-103l-281 -279h285v-102h-423zM281 682h127l-112 -138h-104z" />
    <glyph glyph-name="zdotaccent" unicode="&#x17c;" horiz-adv-x="513" 
d="M48 0v105l279 277h-272v102h412v-103l-281 -279h285v-102h-423zM202 562v112h122v-112h-122z" />
    <glyph glyph-name="zcaron" unicode="&#x17e;" horiz-adv-x="513" 
d="M48 0v105l279 277h-272v102h412v-103l-281 -279h285v-102h-423zM205 544l-107 138h102l65 -80l65 80h103l-107 -138h-121z" />
    <glyph glyph-name="germandbls" unicode="&#xdf;" horiz-adv-x="588" 
d="M325 0h-62v102h60q55 0 87.5 26.5t32.5 76.5q0 57 -34 80t-91 23h-55v99h47q43 0 68.5 26.5t25.5 66.5q0 45 -28 68.5t-77 23.5q-55 0 -85.5 -32t-30.5 -86v-474h-116v475q0 104 61.5 159.5t170.5 55.5q100 0 156 -49t56 -134q0 -47 -21.5 -84t-64.5 -57
q59 -15 92.5 -54.5t33.5 -111.5q0 -99 -61.5 -149.5t-164.5 -50.5z" />
    <glyph glyph-name="eth" unicode="&#xf0;" horiz-adv-x="557" 
d="M176 492l-26 57l75 37q-15 8 -32 16.5t-34 15.5l38 78q34 -13 64.5 -29.5t58.5 -35.5l98 48l27 -57l-71 -34q67 -62 102.5 -145t35.5 -184q0 -59 -15 -108.5t-44.5 -85t-74.5 -55.5t-104 -20q-51 0 -95 16t-76 46.5t-50.5 75.5t-18.5 101q0 54 17 98t47 74.5t72 47
t91 16.5q39 0 69 -11t52 -29q-16 36 -40.5 65.5t-55.5 54.5zM275 84q61 0 93 41t32 106q0 66 -32 104.5t-95 38.5q-58 0 -93 -39.5t-35 -105.5q0 -64 35 -104.5t95 -40.5z" />
    <glyph glyph-name="thorn" unicode="&#xfe;" horiz-adv-x="581" 
d="M67 -188v868h115v-257q23 34 63.5 52.5t89.5 18.5q44 0 82 -16t65.5 -47.5t43.5 -78.5t16 -108q0 -122 -63 -188t-162 -66q-41 0 -75.5 12t-59.5 36v-226h-115zM182 198q0 -50 36.5 -79.5t85.5 -29.5q55 0 89.5 40.5t34.5 112.5t-33.5 113t-91.5 41q-46 0 -83.5 -31
t-37.5 -90v-77z" />
    <glyph glyph-name="uni01C6" unicode="&#x1c6;" horiz-adv-x="1084" 
d="M403 0v58q-22 -33 -59.5 -50.5t-88.5 -17.5q-46 0 -86 16.5t-69 48t-45.5 79t-16.5 107.5q0 61 17 108.5t47 79.5t71.5 48.5t90.5 16.5q42 0 77 -14.5t58 -39.5v240h115v-680h-111zM399 216v56q0 59 -33.5 91t-85.5 32q-58 0 -92 -40.5t-34 -112.5q0 -69 32.5 -111
t90.5 -42q60 0 91 36.5t31 90.5zM619 0v105l279 277h-272v102h412v-103l-281 -279h285v-102h-423zM776 544l-107 138h102l65 -80l65 80h103l-107 -138h-121z" />
    <glyph glyph-name="uni01C9" unicode="&#x1c9;" horiz-adv-x="492" 
d="M67 0v680h115v-680h-115zM315 562v112h122v-112h-122zM434 484v-502q0 -92 -41 -134t-133 -42h-60v100h38q43 0 62 19t19 61v498h115z" />
    <glyph glyph-name="uni01CC" unicode="&#x1cc;" horiz-adv-x="821" 
d="M67 0v484h112v-64q24 34 64.5 54t90.5 20q79 0 128 -44t49 -128v-322h-115v299q0 46 -25 70.5t-76 24.5q-45 0 -79 -27t-34 -75v-292h-115zM644 562v112h122v-112h-122zM763 484v-502q0 -92 -41 -134t-133 -42h-60v100h38q43 0 62 19t19 61v498h115z" />
    <glyph glyph-name="uni01F3" unicode="&#x1f3;" horiz-adv-x="1084" 
d="M403 0v58q-22 -33 -59.5 -50.5t-88.5 -17.5q-46 0 -86 16.5t-69 48t-45.5 79t-16.5 107.5q0 61 17 108.5t47 79.5t71.5 48.5t90.5 16.5q42 0 77 -14.5t58 -39.5v240h115v-680h-111zM399 216v56q0 59 -33.5 91t-85.5 32q-58 0 -92 -40.5t-34 -112.5q0 -69 32.5 -111
t90.5 -42q60 0 91 36.5t31 90.5zM619 0v105l279 277h-272v102h412v-103l-281 -279h285v-102h-423z" />
    <glyph glyph-name="uni0259" unicode="&#x259;" horiz-adv-x="529" 
d="M268 494q107 -1 165.5 -67t58.5 -185q0 -62 -17.5 -109t-48 -78.5t-72.5 -48t-91 -16.5q-107 0 -165 64.5t-58 173.5q0 10 1 19.5t2 17.5h338q-4 69 -36 102.5t-82 33.5q-46 0 -74 -22t-39 -51l-102 19q16 63 73 105t147 42zM263 82q45 0 75 27t39 78h-226q4 -49 33 -77
t79 -28z" />
    <glyph glyph-name="dotlessi" unicode="&#x131;" horiz-adv-x="249" 
d="M67 0v484h115v-484h-115z" />
    <glyph glyph-name="uni0237" unicode="&#x237;" horiz-adv-x="260" 
d="M192 484v-502q0 -92 -41 -134t-133 -42h-60v100h38q43 0 62 19t19 61v498h115z" />
    <glyph glyph-name="ordfeminine" unicode="&#xaa;" horiz-adv-x="356" 
d="M244 397v37q-13 -18 -37 -30.5t-59 -12.5q-51 0 -81.5 25t-30.5 68q0 46 34 69t93 24h40.5t37.5 -1v13q0 26 -14.5 39.5t-42.5 13.5q-27 0 -41.5 -11.5t-20.5 -29.5l-77 17q9 40 44.5 66.5t95.5 26.5q61 0 97.5 -30t36.5 -90v-194h-75zM241 521q-15 1 -32.5 1.5
t-33.5 -0.5q-28 0 -40.5 -8.5t-12.5 -25.5q0 -15 12.5 -24t34.5 -9q35 0 53.5 18t18.5 40v8z" />
    <glyph glyph-name="ordmasculine" unicode="&#xba;" horiz-adv-x="381" 
d="M193 391q-71 0 -114.5 42t-43.5 120q0 76 43.5 117t114.5 41q70 0 113.5 -41t43.5 -117q0 -77 -43 -119.5t-114 -42.5zM192 465q37 0 55 23.5t18 64.5t-18 63t-55 22q-34 0 -53.5 -22t-19.5 -63t19.5 -64.5t53.5 -23.5z" />
    <glyph glyph-name="uni0430" unicode="&#x430;" horiz-adv-x="529" 
d="M359 0v55q-23 -31 -60.5 -48t-85.5 -17q-73 0 -120 38t-47 106q0 75 49.5 109.5t133.5 38.5q34 2 65 1.5t60 -1.5v38q0 42 -25 61t-65 19t-63 -20t-33 -54l-106 18q13 65 65 107.5t139 42.5q86 0 143 -39.5t57 -135.5v-319h-107zM354 205q-24 1 -53 0.5t-57 -1.5
q-39 -1 -61.5 -17t-22.5 -46t21 -46.5t56 -16.5q51 0 84 24.5t33 64.5v38z" />
    <glyph glyph-name="uni0431" unicode="&#x431;" horiz-adv-x="565" 
d="M526 234q0 -112 -62 -178t-168 -66q-122 0 -184 70.5t-62 212.5v79q0 87 19.5 146.5t55.5 97t88 56t116 25.5q48 5 89 10t75 9l11 -107q-36 -4 -80.5 -9t-87.5 -10q-86 -9 -132 -49.5t-46 -132.5q25 37 70.5 57t94.5 20q92 0 147.5 -58.5t55.5 -172.5zM293 83
q60 0 90.5 40.5t30.5 108.5q0 69 -31 105t-88 36q-54 0 -92 -31t-38 -80v-20q0 -81 34.5 -120t93.5 -39z" />
    <glyph glyph-name="uni0432" unicode="&#x432;" horiz-adv-x="513" 
d="M67 0v484h221q83 0 128.5 -32.5t45.5 -96.5q0 -28 -13.5 -58t-54.5 -46q43 -13 62 -41.5t19 -71.5q0 -64 -41 -101t-131 -37h-236zM281 397h-103v-111h107q37 0 54 13t17 42t-16.5 42.5t-58.5 13.5zM295 203h-117v-116h118q40 0 56 14.5t16 42.5q0 31 -17 45t-56 14z" />
    <glyph glyph-name="uni0433" unicode="&#x433;" horiz-adv-x="419" 
d="M67 0v484h331v-102h-216v-382h-115z" />
    <glyph glyph-name="uni0453" unicode="&#x453;" horiz-adv-x="419" 
d="M67 0v484h331v-102h-216v-382h-115zM253 682h127l-112 -138h-104z" />
    <glyph glyph-name="uni0434" unicode="&#x434;" horiz-adv-x="576" 
d="M5 102h52q23 19 38 52.5t17 74.5q2 37 3 96.5t2 158.5h373v-382h74v-236h-112v134h-334v-134h-113v236zM219 221q-3 -39 -14 -68t-26 -51h196v280h-153q0 -49 -0.5 -92.5t-2.5 -68.5z" />
    <glyph glyph-name="uni0435" unicode="&#x435;" horiz-adv-x="524" 
d="M488 218h-339q4 -66 37 -100.5t86 -34.5q50 0 76 23t34 49l103 -19q-16 -60 -68.5 -103t-146.5 -43q-109 0 -171.5 67t-62.5 185q0 61 18.5 108.5t50 79t74 48t91.5 16.5q104 0 161 -65.5t57 -177.5v-33zM270 401q-44 0 -76.5 -26.5t-42.5 -77.5h227q-4 48 -30.5 76
t-77.5 28z" />
    <glyph glyph-name="uni0450" unicode="&#x450;" horiz-adv-x="524" 
d="M488 218h-339q4 -66 37 -100.5t86 -34.5q50 0 76 23t34 49l103 -19q-16 -60 -68.5 -103t-146.5 -43q-109 0 -171.5 67t-62.5 185q0 61 18.5 108.5t50 79t74 48t91.5 16.5q104 0 161 -65.5t57 -177.5v-33zM270 401q-44 0 -76.5 -26.5t-42.5 -77.5h227q-4 48 -30.5 76
t-77.5 28zM241 682h-127l112 -138h104z" />
    <glyph glyph-name="uni0451" unicode="&#x451;" horiz-adv-x="524" 
d="M488 218h-339q4 -66 37 -100.5t86 -34.5q50 0 76 23t34 49l103 -19q-16 -60 -68.5 -103t-146.5 -43q-109 0 -171.5 67t-62.5 185q0 61 18.5 108.5t50 79t74 48t91.5 16.5q104 0 161 -65.5t57 -177.5v-33zM270 401q-44 0 -76.5 -26.5t-42.5 -77.5h227q-4 48 -30.5 76
t-77.5 28zM111 562v111h112v-111h-112zM305 562v111h113v-111h-113z" />
    <glyph glyph-name="uni0436" unicode="&#x436;" horiz-adv-x="755" 
d="M321 0v204h-53l-122 -204h-132l160 255l-150 229h127l114 -189h56v189h112v-189h56l115 189h126l-150 -231l161 -253h-131l-124 204h-53v-204h-112z" />
    <glyph glyph-name="uni0437" unicode="&#x437;" horiz-adv-x="509" 
d="M256 82q51 0 77 17.5t26 45.5q0 29 -19.5 44t-67.5 15h-78v82h79q42 0 59.5 15t17.5 40q0 27 -21.5 44t-67.5 17q-51 0 -79.5 -22t-38.5 -62l-104 19q16 76 74 116.5t148 40.5q96 0 147.5 -38.5t51.5 -102.5q0 -35 -19.5 -62.5t-56.5 -40.5q39 -10 63 -36.5t24 -72.5
q0 -72 -57.5 -111.5t-157.5 -39.5q-99 0 -155 42.5t-66 120.5l105 14q6 -37 34 -61t82 -24z" />
    <glyph glyph-name="uni0438" unicode="&#x438;" horiz-adv-x="574" 
d="M184 0h-117v484h111v-333l208 333h121v-484h-112v335z" />
    <glyph glyph-name="uni0439" unicode="&#x439;" horiz-adv-x="574" 
d="M184 0h-117v484h111v-333l208 333h121v-484h-112v335zM288 524q-87 0 -123 40.5t-37 103.5h91q2 -34 18.5 -52t50.5 -18t49 18t17 52h92q-1 -63 -36.5 -103.5t-121.5 -40.5z" />
    <glyph glyph-name="uni045D" unicode="&#x45d;" horiz-adv-x="574" 
d="M184 0h-117v484h111v-333l208 333h121v-484h-112v335zM272 682h-127l112 -138h104z" />
    <glyph glyph-name="uni043A" unicode="&#x43a;" horiz-adv-x="526" 
d="M67 0v484h115v-188h68l126 188h128l-158 -229l166 -255h-131l-132 204h-67v-204h-115z" />
    <glyph glyph-name="uni045C" unicode="&#x45c;" horiz-adv-x="526" 
d="M67 0v484h115v-188h68l126 188h128l-158 -229l166 -255h-131l-132 204h-67v-204h-115zM301 682h127l-112 -138h-104z" />
    <glyph glyph-name="uni043B" unicode="&#x43b;" horiz-adv-x="556" 
d="M110 193q1 28 2 66.5t1.5 79t1 79t0.5 66.5h374v-484h-115v382h-154q0 -25 -0.5 -54t-1.5 -57t-1.5 -54t-0.5 -45q-3 -95 -36 -133.5t-114 -38.5h-52v102h29q36 0 51 20t16 71z" />
    <glyph glyph-name="uni043C" unicode="&#x43c;" horiz-adv-x="741" 
d="M67 0v484h170l137 -363l136 363h164v-484h-109v370l-142 -370h-112l-142 368v-368h-102z" />
    <glyph glyph-name="uni043D" unicode="&#x43d;" horiz-adv-x="574" 
d="M67 0v484h115v-185h210v185h115v-484h-115v197h-210v-197h-115z" />
    <glyph glyph-name="uni043E" unicode="&#x43e;" horiz-adv-x="552" 
d="M277 -10q-107 0 -173 67t-66 186t65.5 185t173.5 66q109 0 173.5 -66t64.5 -185q0 -118 -64.5 -185.5t-173.5 -67.5zM277 87q60 0 92 40.5t32 115.5t-32 114.5t-92 39.5q-58 0 -91.5 -39.5t-33.5 -114.5t34 -115.5t91 -40.5z" />
    <glyph glyph-name="uni043F" unicode="&#x43f;" horiz-adv-x="568" 
d="M67 0v484h434v-484h-115v382h-204v-382h-115z" />
    <glyph glyph-name="uni0440" unicode="&#x440;" horiz-adv-x="582" 
d="M67 -194v678h114v-61q23 34 64 52.5t90 18.5q43 0 81.5 -16t66 -47t44 -77.5t16.5 -106.5q0 -124 -63 -190.5t-161 -66.5q-43 0 -78 13.5t-59 38.5v-236h-115zM182 203q0 -52 36 -83.5t89 -31.5q55 0 88 41.5t33 113.5q0 70 -32.5 111.5t-89.5 41.5q-50 0 -87 -34
t-37 -94v-65z" />
    <glyph glyph-name="uni0441" unicode="&#x441;" horiz-adv-x="517" 
d="M381 171l106 -14q-15 -74 -69 -120.5t-147 -46.5q-104 0 -168.5 64t-64.5 188q0 62 18 109.5t49 79t74 47.5t93 16t87.5 -13t63 -35t41 -52t21.5 -62l-103 -20q-8 33 -33 59t-76 26q-57 0 -89 -40.5t-32 -114.5q0 -72 31 -113.5t89 -41.5q51 0 76 25t33 59z" />
    <glyph glyph-name="uni0442" unicode="&#x442;" horiz-adv-x="483" 
d="M21 382v102h441v-102h-163v-382h-115v382h-163z" />
    <glyph glyph-name="uni0443" unicode="&#x443;" horiz-adv-x="524" 
d="M319 -43q-32 -87 -73.5 -119t-116.5 -32h-57v102h42q33 0 55.5 12.5t35.5 45.5l11 26l-203 492h127l136 -353l120 353h120z" />
    <glyph glyph-name="uni045E" unicode="&#x45e;" horiz-adv-x="524" 
d="M319 -43q-32 -87 -73.5 -119t-116.5 -32h-57v102h42q33 0 55.5 12.5t35.5 45.5l11 26l-203 492h127l136 -353l120 353h120zM270 524q-87 0 -123 40.5t-37 103.5h91q2 -34 18.5 -52t50.5 -18t49 18t17 52h92q-1 -63 -36.5 -103.5t-121.5 -40.5z" />
    <glyph glyph-name="uni0444" unicode="&#x444;" horiz-adv-x="722" 
d="M416 680v-191h7.5h7.5q54 -3 101 -18t80.5 -44.5t53 -74.5t19.5 -107t-19.5 -108.5t-53.5 -77.5t-81.5 -47t-102.5 -18h-6h-6v-188h-113v188h-4.5h-4.5q-55 2 -102.5 17.5t-81 46t-53 77t-19.5 108.5q0 63 19.5 108.5t54 75t82 45t103.5 17.5h3h3v191h113zM433 394
q-4 0 -9.5 0.5t-9.5 0.5v-306q5 0 10 0.5t9 0.5q63 4 100.5 41t37.5 112t-38.5 111.5t-99.5 39.5zM288 90h8t8 -1v306q-4 -1 -7.5 -1h-7.5q-60 -3 -98.5 -39.5t-38.5 -111.5t36.5 -112.5t99.5 -40.5z" />
    <glyph glyph-name="uni0445" unicode="&#x445;" horiz-adv-x="515" 
d="M371 0l-115 174l-109 -174h-134l171 251l-161 233h130l105 -158l102 158h133l-163 -234l175 -250h-134z" />
    <glyph glyph-name="uni0446" unicode="&#x446;" horiz-adv-x="581" 
d="M494 484v-382h74v-236h-112v134h-389v484h115v-382h197v382h115z" />
    <glyph glyph-name="uni0447" unicode="&#x447;" horiz-adv-x="525" 
d="M343 0v181q-19 -7 -48.5 -12t-64.5 -5q-90 0 -138 39.5t-48 123.5v157h116v-142q0 -46 25 -64t72 -18q27 0 48 4t38 11v209h115v-484h-115z" />
    <glyph glyph-name="uni0448" unicode="&#x448;" horiz-adv-x="806" 
d="M739 484v-484h-672v484h115v-382h163v382h116v-382h163v382h115z" />
    <glyph glyph-name="uni0449" unicode="&#x449;" horiz-adv-x="825" 
d="M739 484v-382h74v-236h-112v134h-634v484h115v-382h163v382h116v-382h163v382h115z" />
    <glyph glyph-name="uni044A" unicode="&#x44a;" horiz-adv-x="612" 
d="M21 484h262v-150h117q84 0 130 -41t46 -122q0 -82 -44.5 -126.5t-133.5 -44.5h-230v381h-147v103zM376 239h-93v-144h92q50 0 68.5 19t18.5 56t-19 53t-67 16z" />
    <glyph glyph-name="uni044B" unicode="&#x44b;" horiz-adv-x="714" 
d="M532 0v484h115v-484h-115zM67 0v484h115v-150h114q84 0 129.5 -41t45.5 -122q0 -82 -44.5 -126.5t-132.5 -44.5h-227zM275 239h-93v-144h93q49 0 68 19t19 56t-19.5 53t-67.5 16z" />
    <glyph glyph-name="uni044C" unicode="&#x44c;" horiz-adv-x="512" 
d="M67 0v484h115v-150h117q85 0 131 -41t46 -122q0 -82 -44.5 -126.5t-134.5 -44.5h-230zM275 239h-93v-144h93q49 0 68 19t19 56t-19.5 53t-67.5 16z" />
    <glyph glyph-name="uni044D" unicode="&#x44d;" horiz-adv-x="526" 
d="M36 156l104 14q9 -38 38 -62.5t80 -24.5t81 29.5t37 86.5h-176v87h176q-7 54 -36.5 84t-79.5 30q-49 0 -77 -23.5t-40 -63.5l-102 21q17 73 74 116.5t146 43.5q104 0 165.5 -63t61.5 -187q0 -121 -61 -187.5t-168 -66.5q-97 0 -153 43.5t-70 122.5z" />
    <glyph glyph-name="uni044E" unicode="&#x44e;" horiz-adv-x="776" 
d="M67 0v484h115v-190h85q14 96 76 148t158 52q108 0 172.5 -66t64.5 -185q0 -118 -64.5 -185.5t-172.5 -67.5q-96 0 -158.5 54.5t-75.5 152.5h-85v-197h-115zM501 87q59 0 91 40.5t32 115.5t-32 114.5t-91 39.5q-58 0 -92 -39.5t-34 -114.5t34.5 -115.5t91.5 -40.5z" />
    <glyph glyph-name="uni044F" unicode="&#x44f;" horiz-adv-x="535" 
d="M46 324q0 77 49 118.5t136 41.5h237v-484h-115v168h-84l-104 -168h-128l117 177q-52 14 -80 51.5t-28 95.5zM245 259h108v132h-108q-41 0 -62.5 -17t-21.5 -49t21.5 -49t62.5 -17z" />
    <glyph glyph-name="uni0452" unicode="&#x452;" horiz-adv-x="556" 
d="M334 494q42 0 75 -14t55.5 -47t34 -88t11.5 -137q0 -95 -12 -161t-37 -106t-63.5 -57.5t-91.5 -17.5h-40v97h22q58 0 83 51t25 186q0 113 -23.5 155t-78.5 42q-46 0 -79 -28t-33 -76v-293h-115v551h-76v77h76v52h113v-52h168v-77h-168v-128q25 33 66 52t88 19z" />
    <glyph glyph-name="uni0454" unicode="&#x454;" horiz-adv-x="522" 
d="M487 330l-103 -16q-8 34 -35 60t-79 26q-51 0 -82.5 -30.5t-40.5 -84.5h176v-87h-176q10 -54 41.5 -84.5t80.5 -30.5q51 0 77.5 25t36.5 62l104 -18q-15 -71 -70 -116.5t-148 -45.5q-104 0 -169 64t-65 186q0 123 65.5 188.5t169.5 65.5q98 0 151 -46t66 -118z" />
    <glyph glyph-name="uni0455" unicode="&#x455;" horiz-adv-x="497" 
d="M41 140l105 14q9 -37 36 -55t73 -18q47 0 70 14t23 39t-17.5 38t-63.5 21l-65 12q-69 12 -107.5 44t-38.5 95q0 70 55.5 110t142.5 40q86 0 139 -39.5t63 -100.5l-102 -22q-7 31 -31 51t-71 20q-42 0 -65 -14.5t-23 -38.5q0 -26 19 -36.5t57 -17.5l62 -12
q76 -14 115.5 -47.5t39.5 -95.5q0 -67 -52 -109t-153 -42q-88 0 -143.5 37.5t-67.5 112.5z" />
    <glyph glyph-name="uni0456" unicode="&#x456;" horiz-adv-x="249" 
d="M64 562v112h122v-112h-122zM67 0v484h115v-484h-115z" />
    <glyph glyph-name="uni0457" unicode="&#x457;" horiz-adv-x="249" 
d="M-24 562v111h113v-111h-113zM168 562v111h112v-111h-112zM67 0v484h115v-484h-115z" />
    <glyph glyph-name="uni0457.alt" horiz-adv-x="249" 
d="M17 554v127h86v-127h-86zM148 554v127h85v-127h-85zM67 0v484h115v-484h-115z" />
    <glyph glyph-name="uni0458" unicode="&#x458;" horiz-adv-x="260" 
d="M73 562v112h122v-112h-122zM192 484v-502q0 -92 -41 -134t-133 -42h-60v100h38q43 0 62 19t19 61v498h115z" />
    <glyph glyph-name="uni0459" unicode="&#x459;" horiz-adv-x="808" 
d="M110 193q1 28 1.5 66.5t1.5 79t1.5 79t0.5 66.5h368v-150h112q85 0 131 -41t46 -122q0 -82 -44.5 -126.5t-134.5 -44.5h-225v382h-148q-1 -25 -1.5 -54t-1 -57t-1 -54t-0.5 -45q-4 -95 -36.5 -133.5t-113.5 -38.5h-52v102h29q36 0 50.5 20t16.5 71zM571 239h-88v-144h88
q49 0 68 19t19 56t-19.5 53t-67.5 16z" />
    <glyph glyph-name="uni045A" unicode="&#x45a;" horiz-adv-x="827" 
d="M67 0v484h115v-185h204v185h115v-150h113q85 0 131 -41t46 -122q0 -82 -44.5 -126.5t-134.5 -44.5h-226v197h-204v-197h-115zM590 239h-89v-144h89q49 0 68 19t19 56t-19.5 53t-67.5 16z" />
    <glyph glyph-name="uni045B" unicode="&#x45b;" horiz-adv-x="573" 
d="M67 0v551h-76v77h76v52h113v-52h168v-77h-168v-130q24 34 64.5 53.5t90.5 19.5q79 0 127.5 -44t48.5 -128v-322h-115v299q0 46 -25 70.5t-76 24.5q-46 0 -79.5 -27t-33.5 -75v-292h-115z" />
    <glyph glyph-name="uni045F" unicode="&#x45f;" horiz-adv-x="564" 
d="M497 484v-484h-159v-134h-112v134h-159v484h115v-382h200v382h115z" />
    <glyph glyph-name="uni0463" unicode="&#x463;" horiz-adv-x="610" 
d="M15 484h147v196h113v-196h204v-97h-205v-85h116q85 0 132.5 -34t47.5 -116q0 -81 -46.5 -116.5t-135.5 -35.5h-226v387h-147v97zM381 211h-107v-120h107q43 0 62 14t19 46t-19.5 46t-61.5 14z" />
    <glyph glyph-name="uni0473" unicode="&#x473;" horiz-adv-x="552" 
d="M277 -10q-107 0 -173 67t-66 186t65.5 185t173.5 66q109 0 173.5 -66t64.5 -185q0 -118 -64.5 -185.5t-173.5 -67.5zM277 399q-51 0 -84.5 -29.5t-41.5 -88.5h251q-8 58 -40.5 88t-84.5 30zM277 85q53 0 85.5 31t39.5 90h-252q9 -59 43 -90t84 -31z" />
    <glyph glyph-name="uni0475" unicode="&#x475;" horiz-adv-x="536" 
d="M456 339l-126 -339h-140l-178 484h121l132 -376l94 272q19 54 44 79t85 25h43v-102h-22q-20 0 -32.5 -10t-20.5 -33z" />
    <glyph glyph-name="uni0491" unicode="&#x491;" horiz-adv-x="434" 
d="M68 0v484h233v110h112v-212h-230v-382h-115z" />
    <glyph glyph-name="uni0493" unicode="&#x493;" horiz-adv-x="419" 
d="M67 0v174h-57v87h57v223h331v-102h-218v-121h130v-87h-130v-174h-113z" />
    <glyph glyph-name="uni049B" unicode="&#x49b;" horiz-adv-x="534" 
d="M67 0v484h115v-188h68l126 188h128l-158 -229l100 -153h79v-236h-112v134h-32l-132 204h-67v-204h-115z" />
    <glyph glyph-name="uni04A3" unicode="&#x4a3;" horiz-adv-x="594" 
d="M67 0v484h115v-185h210v185h115v-382h75v-236h-113v134h-77v197h-210v-197h-115z" />
    <glyph glyph-name="uni04AF" unicode="&#x4af;" horiz-adv-x="528" 
d="M520 484l-194 -484v-194h-115v194l-199 484h125l134 -344l128 344h121z" />
    <glyph glyph-name="uni04B1" unicode="&#x4b1;" horiz-adv-x="528" 
d="M451 0h-125v-194h-113v194h-129v88h93l-165 396h125l134 -353l128 353h121l-159 -396h90v-88z" />
    <glyph glyph-name="uni04BB" unicode="&#x4bb;" horiz-adv-x="573" 
d="M67 0v680h115v-256q24 32 64 51t89 19q79 0 127.5 -44t48.5 -128v-322h-115v299q0 46 -25 70.5t-76 24.5q-46 0 -79.5 -27t-33.5 -75v-292h-115z" />
    <glyph glyph-name="uni04D9" unicode="&#x4d9;" horiz-adv-x="529" 
d="M268 494q107 -1 165.5 -67t58.5 -185q0 -62 -17.5 -109t-48 -78.5t-72.5 -48t-91 -16.5q-107 0 -165 64.5t-58 173.5q0 10 1 19.5t2 17.5h338q-4 69 -36 102.5t-82 33.5q-46 0 -74 -22t-39 -51l-102 19q16 63 73 105t147 42zM263 82q45 0 75 27t39 78h-226q4 -49 33 -77
t79 -28z" />
    <glyph glyph-name="uni04E9" unicode="&#x4e9;" horiz-adv-x="552" 
d="M277 -10q-107 0 -173 67t-66 186t65.5 185t173.5 66q109 0 173.5 -66t64.5 -185q0 -118 -64.5 -185.5t-173.5 -67.5zM277 399q-51 0 -84.5 -29.5t-41.5 -88.5h251q-8 58 -40.5 88t-84.5 30zM277 85q53 0 85.5 31t39.5 90h-252q9 -59 43 -90t84 -31z" />
    <glyph glyph-name="uni01C5" unicode="&#x1c5;" horiz-adv-x="1232" 
d="M80 0v680h260q165 0 253 -86.5t88 -253.5q0 -169 -89.5 -254.5t-261.5 -85.5h-250zM202 111h133q113 0 167 59.5t54 169.5q0 116 -54.5 172.5t-167.5 56.5h-132v-458zM767 0v105l279 277h-272v102h412v-103l-281 -279h285v-102h-423zM924 544l-107 138h102l65 -80l65 80
h103l-107 -138h-121z" />
    <glyph glyph-name="uni01C8" unicode="&#x1c8;" horiz-adv-x="861" 
d="M556 114v-114h-476v680h122v-566h354zM674 562v112h122v-112h-122zM793 484v-502q0 -92 -41 -134t-133 -42h-60v100h38q43 0 62 19t19 61v498h115z" />
    <glyph glyph-name="uni01CB" unicode="&#x1cb;" horiz-adv-x="1006" 
d="M677 0h-141l-337 498v-498h-119v680h136l343 -507v507h118v-680zM818 562v112h122v-112h-122zM937 484v-502q0 -92 -41 -134t-133 -42h-60v100h38q43 0 62 19t19 61v498h115z" />
    <glyph glyph-name="uni01F2" unicode="&#x1f2;" horiz-adv-x="1232" 
d="M80 0v680h260q165 0 253 -86.5t88 -253.5q0 -169 -89.5 -254.5t-261.5 -85.5h-250zM202 111h133q113 0 167 59.5t54 169.5q0 116 -54.5 172.5t-167.5 56.5h-132v-458zM767 0v105l279 277h-272v102h412v-103l-281 -279h285v-102h-423z" />
    <glyph glyph-name="uni041B.BUL" horiz-adv-x="710" 
d="M433 680l257 -680h-130l-208 571l-204 -571h-128l255 680h158z" />
    <glyph glyph-name="uni0432.BUL" horiz-adv-x="564" 
d="M59 210v260q0 54 17.5 95t49 69t75.5 42t96 14q98 0 155.5 -51t57.5 -133q0 -51 -28 -89.5t-82 -57.5q57 -16 90 -54.5t33 -107.5q0 -97 -63 -152t-167 -55q-114 0 -174 56.5t-60 163.5zM171 468v-67h106q58 0 92 25.5t34 69.5q0 43 -29 70.5t-78 27.5q-52 0 -88.5 -32.5
t-36.5 -93.5zM171 209q0 -64 35.5 -93.5t87.5 -29.5q53 0 86.5 29t33.5 82q0 57 -37 84.5t-100 27.5h-106v-100z" />
    <glyph glyph-name="uni0433.BUL" horiz-adv-x="500" 
d="M469 141q-13 -76 -73 -114t-151 -37q-90 1 -144.5 38t-54.5 108q0 59 37 93t115 50l64 12q46 10 65 23t19 34q0 24 -21 39t-58 15q-44 0 -72 -19t-38 -51l-103 22q18 68 73 104t141 36q89 0 137.5 -40.5t48.5 -102.5t-41.5 -94.5t-114.5 -48.5l-63 -13q-44 -10 -61 -23
t-17 -35q0 -26 26 -40.5t65 -14.5q48 0 78 19.5t40 56.5z" />
    <glyph glyph-name="uni0434.BUL" horiz-adv-x="580" 
d="M406 484h108v-472q0 -58 -17.5 -99.5t-49 -67t-75.5 -37.5t-96 -12q-86 0 -146 39t-75 117l110 15q10 -40 42 -58t69 -18q57 0 92.5 27t35.5 94v58q-21 -32 -58.5 -48.5t-88.5 -16.5q-46 0 -86 15t-69 45t-45.5 74.5t-16.5 103.5q0 121 62.5 186t161.5 65q47 0 84 -18
t58 -50v58zM402 227v50q0 60 -35.5 89.5t-86.5 29.5q-57 0 -90.5 -40t-33.5 -110q0 -67 32 -106t91 -39q57 0 90 34.5t33 91.5z" />
    <glyph glyph-name="uni0436.BUL" horiz-adv-x="755" 
d="M321 0v204h-53l-122 -204h-132l160 255l-150 229h127l114 -189h56v385h112v-385h56l115 189h126l-150 -231l161 -253h-131l-124 204h-53v-204h-112z" />
    <glyph glyph-name="uni0437.BUL" horiz-adv-x="519" 
d="M22 -37l108 15q12 -44 43.5 -65.5t77.5 -21.5q54 0 86.5 28.5t32.5 79.5q0 48 -31.5 77t-85.5 29h-92v95h90q51 0 81 27t30 72q0 46 -27.5 73t-73.5 27q-45 0 -77.5 -23t-46.5 -66l-103 23q19 79 81 120t151 41q94 0 149.5 -50.5t55.5 -136.5q0 -53 -26.5 -93t-80.5 -59
q55 -16 85.5 -55t30.5 -102q0 -95 -63.5 -148.5t-167.5 -53.5q-94 0 -153 43t-74 124z" />
    <glyph glyph-name="uni0438.BUL" horiz-adv-x="570" 
d="M393 0v62q-25 -33 -66.5 -52.5t-91.5 -19.5q-79 0 -126 44t-47 128v322h115v-299q0 -45 24.5 -70t74.5 -25q48 0 80 28t32 74v292h115v-484h-110z" />
    <glyph glyph-name="uni0439.BUL" horiz-adv-x="570" 
d="M393 0v62q-25 -33 -66.5 -52.5t-91.5 -19.5q-79 0 -126 44t-47 128v322h115v-299q0 -45 24.5 -70t74.5 -25q48 0 80 28t32 74v292h115v-484h-110zM285 527q-87 0 -123 40.5t-37 103.5h91q2 -34 18.5 -52t50.5 -18t49 18t17 52h92q-1 -63 -36.5 -103.5t-121.5 -40.5z" />
    <glyph glyph-name="uni043A.BUL" horiz-adv-x="525" 
d="M67 0v680h115v-377h61l129 181h130l-163 -223l172 -261h-132l-135 211h-62v-211h-115z" />
    <glyph glyph-name="uni043B.BUL" horiz-adv-x="522" 
d="M335 484l176 -484h-121l-130 377l-130 -377h-118l180 484h143z" />
    <glyph glyph-name="uni043F.BUL" horiz-adv-x="573" 
d="M67 0v484h112v-64q24 34 64.5 54t90.5 20q79 0 128 -44t49 -128v-322h-115v299q0 46 -25 70.5t-76 24.5q-45 0 -79 -27t-34 -75v-292h-115z" />
    <glyph glyph-name="uni0442.BUL" horiz-adv-x="883" 
d="M67 0v484h111v-63q23 34 62.5 53.5t88.5 19.5q58 0 96.5 -24.5t55.5 -61.5q26 43 71.5 64.5t96.5 21.5q77 0 125 -44.5t48 -128.5v-321h-115v300q0 43 -24 68.5t-73 25.5q-44 0 -76 -28t-32 -74v-292h-115v299q0 44 -24 69.5t-73 25.5q-44 0 -76 -28t-32 -74v-292h-115z
" />
    <glyph glyph-name="uni0446.BUL" horiz-adv-x="590" 
d="M392 0v61q-25 -33 -66.5 -52t-90.5 -19q-79 0 -126 44t-47 128v322h115v-299q0 -45 24.5 -70t73.5 -25q48 0 80.5 28t32.5 74v292h115v-382h75v-236h-112v134h-74z" />
    <glyph glyph-name="uni0447.BUL" horiz-adv-x="536" 
d="M469 484v-484h-115v205q-23 -28 -59.5 -43t-78.5 -15q-79 0 -125.5 45t-46.5 132v160h116v-150q0 -40 21 -65t67 -25t76 24t30 66v150h115z" />
    <glyph glyph-name="uni0448.BUL" horiz-adv-x="883" 
d="M816 484v-484h-111v62q-23 -33 -62 -52.5t-88 -19.5q-59 0 -97 24.5t-56 61.5q-25 -43 -70.5 -64.5t-97.5 -21.5q-77 0 -124.5 44t-47.5 128v322h115v-300q0 -43 23.5 -69t72.5 -26q44 0 76 28t32 74v293h116v-300q0 -43 23.5 -68.5t72.5 -25.5q44 0 76 27.5t32 73.5v293
h115z" />
    <glyph glyph-name="uni0449.BUL" horiz-adv-x="903" 
d="M816 484v-382h75v-236h-113v134h-73v62q-23 -33 -62 -52.5t-88 -19.5q-59 0 -97 24.5t-56 61.5q-25 -43 -70.5 -64.5t-97.5 -21.5q-77 0 -124.5 44t-47.5 128v322h115v-300q0 -43 23.5 -69t72.5 -26q44 0 76 28t32 74v293h116v-300q0 -43 23.5 -68.5t72.5 -25.5
q44 0 76 27.5t32 73.5v293h115z" />
    <glyph glyph-name="uni044A.BUL" horiz-adv-x="621" 
d="M585 192q0 -90 -56.5 -146t-152.5 -56q-99 0 -153.5 54.5t-54.5 141.5v195h-147v103h259v-162q20 24 54 36.5t73 12.5q35 0 67.5 -11t57 -33.5t39 -56t14.5 -78.5zM280 175q0 -46 28.5 -71t67.5 -25q47 0 73 29t26 80q0 44 -26.5 69.5t-72.5 25.5q-38 0 -67 -21.5
t-29 -64.5v-22z" />
    <glyph glyph-name="uni044C.BUL" horiz-adv-x="515" 
d="M61 186v298h112v-163q20 24 54 37t73 13q35 0 68 -11t57.5 -33.5t39 -56t14.5 -78.5q0 -90 -57 -146t-153 -56q-99 0 -153.5 54.5t-54.5 141.5zM173 175q0 -46 29 -71t68 -25q47 0 73 29t26 80q0 44 -26.5 69.5t-72.5 25.5q-38 0 -67.5 -21.5t-29.5 -64.5v-22z" />
    <glyph glyph-name="uni0431.SRB" horiz-adv-x="544" 
d="M508 228q0 -110 -63 -174t-169 -64q-104 0 -170 62t-66 175q0 93 51 147t123 67l-32 21q-34 23 -53.5 49.5t-19.5 59.5q0 54 37.5 82.5t103.5 28.5h216v-98h-201q-21 0 -31.5 -5t-10.5 -20t16 -27.5t40 -26.5l102 -59q52 -30 89.5 -80t37.5 -138zM276 83q60 0 89.5 38.5
t29.5 104.5q0 68 -31 105.5t-88 37.5q-59 0 -91 -38t-32 -106q0 -66 33 -104t90 -38z" />
    <glyph glyph-name="period" unicode="." horiz-adv-x="240" 
d="M56 0v132h128v-132h-128z" />
    <glyph glyph-name="comma" unicode="," horiz-adv-x="244" 
d="M57 0v132h131v-140q0 -67 -36.5 -102t-100.5 -43l-12 66q39 7 58.5 24.5t19.5 49.5v13h-60z" />
    <glyph glyph-name="colon" unicode=":" horiz-adv-x="231" 
d="M52 0v132h128v-132h-128zM52 352v132h128v-132h-128z" />
    <glyph glyph-name="semicolon" unicode=";" horiz-adv-x="234" 
d="M53 352v132h128v-132h-128zM52 0v132h131v-140q0 -67 -36.5 -102t-100.5 -43l-12 66q39 7 58.5 24.5t19.5 49.5v13h-60z" />
    <glyph glyph-name="ellipsis" unicode="&#x2026;" horiz-adv-x="688" 
d="M56 0v132h128v-132h-128zM280 0v132h128v-132h-128zM504 0v132h128v-132h-128z" />
    <glyph glyph-name="exclam" unicode="!" horiz-adv-x="305" 
d="M104 203l-15 477h127l-15 -477h-97zM89 0v132h128v-132h-128z" />
    <glyph glyph-name="exclamdown" unicode="&#xa1;" horiz-adv-x="305" 
d="M89 486h128v-132h-128v132zM104 283h97l15 -477h-127z" />
    <glyph glyph-name="exclamdown.cap" horiz-adv-x="305" 
d="M89 680h128v-132h-128v132zM104 477h97l15 -477h-127z" />
    <glyph glyph-name="question" unicode="?" horiz-adv-x="515" 
d="M187 204v69q0 37 15.5 60.5t54.5 44.5l45 26q33 19 50.5 39t17.5 55q0 38 -27 61.5t-78 23.5q-57 0 -88.5 -26.5t-40.5 -69.5l-115 17q12 82 73.5 134t172.5 52q112 0 167 -53t55 -136q0 -69 -31 -106.5t-67 -58.5l-41 -24q-29 -17 -39.5 -31.5t-10.5 -40.5v-36h-113z
M183 0v132h127v-132h-127z" />
    <glyph glyph-name="questiondown" unicode="&#xbf;" horiz-adv-x="500" 
d="M329 484v-132h-128v132h128zM324 281v-70q0 -37 -15 -60t-54 -45l-45 -26q-34 -19 -51 -38t-17 -54q0 -38 26.5 -60.5t78.5 -22.5q56 0 87.5 26.5t40.5 69.5l115 -17q-12 -82 -73 -134t-173 -52q-111 0 -166.5 52t-55.5 135q1 69 31.5 105.5t67.5 57.5l40 24
q30 17 40 31.5t10 41.5v36h113z" />
    <glyph glyph-name="questiondown.cap" horiz-adv-x="509" 
d="M332 680v-132h-127v132h127zM328 476v-69q0 -37 -15.5 -60.5t-54.5 -44.5l-45 -26q-33 -19 -50.5 -39t-17.5 -55q0 -38 27 -61.5t78 -23.5q57 0 88.5 26.5t40.5 69.5l115 -17q-12 -82 -73.5 -134t-172.5 -52q-112 0 -167 53t-55 136q0 69 31 106.5t67 58.5l41 24
q29 17 39.5 31.5t10.5 40.5v36h113z" />
    <glyph glyph-name="quoteleft" unicode="&#x2018;" horiz-adv-x="269" 
d="M197 537v-132h-131v140q0 66 36 101.5t101 43.5l11 -66q-38 -7 -57.5 -25t-19.5 -49v-13h60z" />
    <glyph glyph-name="quoteright" unicode="&#x2019;" horiz-adv-x="263" 
d="M72 548v132h131v-140q0 -66 -36 -101.5t-101 -43.5l-11 66q39 7 58 25t19 49v13h-60z" />
    <glyph glyph-name="quotedblleft" unicode="&#x201c;" horiz-adv-x="460" 
d="M387 537v-132h-131v140q0 66 36.5 101.5t100.5 43.5l12 -66q-39 -7 -58 -25t-19 -49v-13h59zM196 537v-132h-130v140q0 66 36 101.5t101 43.5l11 -66q-38 -7 -57.5 -25t-19.5 -49v-13h59z" />
    <glyph glyph-name="quotedblright" unicode="&#x201d;" horiz-adv-x="454" 
d="M72 548v132h131v-140q0 -66 -36 -101.5t-101 -43.5l-11 66q39 7 58 25t19 49v13h-60zM263 548v132h131v-140q0 -66 -36.5 -101.5t-100.5 -43.5l-12 66q39 7 58.5 25t19.5 49v13h-60z" />
    <glyph glyph-name="quotesinglbase" unicode="&#x201a;" horiz-adv-x="269" 
d="M72 0v132h131v-140q0 -67 -36 -102t-101 -43l-11 66q39 7 58 24.5t19 49.5v13h-60z" />
    <glyph glyph-name="quotedblbase" unicode="&#x201e;" horiz-adv-x="460" 
d="M72 0v132h131v-140q0 -67 -36 -102t-101 -43l-11 66q39 7 58 24.5t19 49.5v13h-60zM263 0v132h131v-140q0 -67 -36.5 -102t-100.5 -43l-12 66q39 7 58.5 24.5t19.5 49.5v13h-60z" />
    <glyph glyph-name="guilsinglleft" unicode="&#x2039;" horiz-adv-x="333" 
d="M174 473h122l-141 -229l141 -231h-121l-143 231z" />
    <glyph glyph-name="guilsinglright" unicode="&#x203a;" horiz-adv-x="333" 
d="M37 12l141 231l-141 229h122l142 -229l-142 -231h-122z" />
    <glyph glyph-name="quotesingle" unicode="'" horiz-adv-x="258" 
d="M80 393l-11 297h120l-11 -297h-98z" />
    <glyph glyph-name="quotedbl" unicode="&#x22;" horiz-adv-x="444" 
d="M80 393l-11 297h118l-11 -297h-96zM268 393l-10 297h118l-11 -297h-97z" />
    <glyph glyph-name="guillemotleft" unicode="&#xab;" horiz-adv-x="561" 
d="M174 472h122l-141 -229l141 -231h-121l-143 231zM399 472h124l-143 -229l144 -231h-124l-143 231z" />
    <glyph glyph-name="guillemotright" unicode="&#xbb;" horiz-adv-x="561" 
d="M38 12l142 230l-143 230h124l143 -230l-143 -230h-123zM265 12l141 230l-141 230h121l143 -230l-143 -230h-121z" />
    <glyph glyph-name="guilsinglleft.cap" horiz-adv-x="333" 
d="M174 570h122l-141 -229l141 -231h-121l-143 231z" />
    <glyph glyph-name="guilsinglright.cap" horiz-adv-x="333" 
d="M37 110l141 231l-141 229h122l142 -229l-142 -231h-122z" />
    <glyph glyph-name="guillemotleft.cap" horiz-adv-x="561" 
d="M174 570h122l-141 -229l141 -231h-121l-143 231zM399 570h124l-143 -229l144 -231h-124l-143 231z" />
    <glyph glyph-name="guillemotright.cap" horiz-adv-x="561" 
d="M38 110l142 230l-143 230h124l143 -230l-143 -230h-123zM265 110l141 230l-141 230h121l143 -230l-143 -230h-121z" />
    <glyph glyph-name="underscore" unicode="_" horiz-adv-x="461" 
d="M461 -194h-461v104h461v-104z" />
    <glyph glyph-name="hyphen" unicode="-" horiz-adv-x="391" 
d="M345 220h-299v104h299v-104z" />
    <glyph glyph-name="endash" unicode="&#x2013;" horiz-adv-x="554" 
d="M508 221h-462v102h462v-102z" />
    <glyph glyph-name="emdash" unicode="&#x2014;" horiz-adv-x="919" 
d="M873 221h-827v102h827v-102z" />
    <glyph glyph-name="hyphen.cap" horiz-adv-x="391" 
d="M345 295h-299v104h299v-104z" />
    <glyph glyph-name="endash.cap" horiz-adv-x="554" 
d="M508 296h-462v102h462v-102z" />
    <glyph glyph-name="emdash.cap" horiz-adv-x="919" 
d="M873 296h-827v102h827v-102z" />
    <glyph glyph-name="uni2012" unicode="&#x2012;" horiz-adv-x="650" 
d="M556 288h-462v105h462v-105z" />
    <glyph glyph-name="parenleft" unicode="(" horiz-adv-x="432" 
d="M63 273q0 79 18 149t50 129t76 108.5t95 87.5l62 -75q-39 -32 -73.5 -74t-59.5 -92t-40 -109t-15 -124q0 -125 50 -230.5t135 -176.5l-62 -75q-51 38 -95 89t-75 112t-48.5 132t-17.5 149z" />
    <glyph glyph-name="parenright" unicode=")" horiz-adv-x="432" 
d="M369 265q0 -77 -18.5 -147t-50 -129.5t-75.5 -109.5t-95 -88l-62 75q38 32 72.5 75t59.5 93t40 108.5t15 122.5q0 128 -49 231.5t-135 175.5l62 75q51 -38 95 -88.5t75 -111.5t48.5 -132t17.5 -150z" />
    <glyph glyph-name="bracketleft" unicode="[" horiz-adv-x="387" 
d="M72 -194v918h259v-101h-151v-716h151v-101h-259z" />
    <glyph glyph-name="bracketright" unicode="]" horiz-adv-x="387" 
d="M56 -93h151v716h-151v101h259v-918h-259v101z" />
    <glyph glyph-name="braceleft" unicode="{" horiz-adv-x="438" 
d="M30 212v104h18q43 0 71 23.5t28 85.5v120q0 99 44 139t127 40h70v-101h-53q-43 0 -62.5 -18.5t-19.5 -69.5v-125q0 -60 -21 -95t-63 -51q42 -16 63 -51t21 -95v-121q0 -54 19.5 -72t62.5 -18h53v-101h-70q-83 0 -127 39.5t-44 139.5v118q0 62 -28 85.5t-71 23.5h-18z" />
    <glyph glyph-name="braceright" unicode="}" horiz-adv-x="438" 
d="M408 212h-18q-43 0 -71 -23.5t-28 -85.5v-118q0 -100 -44 -139.5t-127 -39.5h-70v101h53q43 0 62.5 18t19.5 72v121q0 60 21 95t64 51q-43 16 -64 51t-21 95v125q0 51 -19.5 69.5t-62.5 18.5h-53v101h70q83 0 127 -40t44 -139v-120q0 -62 28 -85.5t71 -23.5h18v-104z" />
    <glyph glyph-name="dblparenleft" horiz-adv-x="655" 
d="M62 275q0 79 18.5 149t50 129t75.5 108.5t94 87.5l58 -71q-37 -31 -70.5 -72.5t-59 -92t-41 -110.5t-15.5 -128q0 -131 51.5 -235t131.5 -173l-58 -71q-51 38 -94.5 89t-74.5 111.5t-48.5 131t-17.5 147.5zM293 275q0 79 18.5 149t50 129t75.5 108.5t94 87.5l58 -71
q-37 -31 -70.5 -72.5t-59 -92t-41 -110.5t-15.5 -128q0 -131 51.5 -235t131.5 -173l-58 -71q-51 39 -94.5 90t-74.5 111.5t-48.5 130.5t-17.5 147z" />
    <glyph glyph-name="dblparenright" horiz-adv-x="655" 
d="M593 270q0 -77 -18.5 -147t-50 -129.5t-75.5 -109.5t-94 -88l-58 71q38 32 72 74.5t59 93t40 110t15 125.5q0 135 -53 238.5t-130 169.5l57 71q51 -38 95 -88.5t75 -110.5t48.5 -130.5t17.5 -149.5zM362 270q0 -77 -18.5 -146.5t-50 -129t-75.5 -109.5t-94 -89l-58 71
q38 32 72 74.5t59 93.5t40 110t15 125q0 135 -53 238.5t-130 169.5l57 71q51 -38 95 -88.5t75 -110.5t48.5 -130.5t17.5 -149.5z" />
    <glyph glyph-name="uni3008" unicode="&#x3008;" horiz-adv-x="390" 
d="M347 724l-197 -460l198 -458h-112l-197 458l197 460h111z" />
    <glyph glyph-name="uni3009" unicode="&#x3009;" horiz-adv-x="390" 
d="M43 -194l196 460l-197 458h112l197 -458l-197 -460h-111z" />
    <glyph glyph-name="uni301A" unicode="&#x301a;" horiz-adv-x="487" 
d="M72 -194v918h359v-87h-112v-744h112v-87h-359zM160 -107h71v744h-71v-744z" />
    <glyph glyph-name="uni301B" unicode="&#x301b;" horiz-adv-x="487" 
d="M415 724v-918h-359v87h112v744h-112v87h359zM326 637h-70v-744h70v744z" />
    <glyph glyph-name="parenleft.cap" horiz-adv-x="432" 
d="M62 338q0 79 18.5 145t50.5 121t76 100.5t95 83.5l62 -75q-39 -32 -73.5 -70.5t-59.5 -84t-40 -100.5t-15 -120q0 -125 50 -218.5t135 -164.5l-62 -75q-51 38 -95 85.5t-75.5 104t-49 123.5t-17.5 145z" />
    <glyph glyph-name="parenright.cap" horiz-adv-x="432" 
d="M370 330q0 -79 -18.5 -145t-50.5 -121t-76 -100.5t-95 -83.5l-62 75q39 32 73.5 70.5t59.5 84t40 100.5t15 120q0 125 -50 218t-135 165l62 75q51 -38 95 -85.5t75.5 -104t49 -124t17.5 -144.5z" />
    <glyph glyph-name="bracketleft.cap" horiz-adv-x="387" 
d="M72 -99v870h259v-101h-151v-668h151v-101h-259z" />
    <glyph glyph-name="bracketright.cap" horiz-adv-x="387" 
d="M56 2h152v668h-152v101h259v-870h-259v101z" />
    <glyph glyph-name="braceleft.cap" horiz-adv-x="438" 
d="M30 283v104h18q43 0 71 23.5t28 85.5v97q0 99 44 138.5t127 39.5h70v-101h-53q-43 0 -62.5 -18.5t-19.5 -69.5v-101q0 -60 -21 -95t-63 -51q42 -16 63 -51t21 -95v-97q0 -54 19.5 -72t62.5 -18h53v-101h-70q-83 0 -127 39.5t-44 139.5v94q0 62 -28 85.5t-71 23.5h-18z
" />
    <glyph glyph-name="braceright.cap" horiz-adv-x="438" 
d="M408 283h-18q-43 0 -71 -23.5t-28 -85.5v-94q0 -100 -44 -139.5t-127 -39.5h-70v101h53q43 0 62.5 18t19.5 72v97q0 60 21 95t64 51q-43 16 -64 51t-21 95v101q0 51 -19.5 69.5t-62.5 18.5h-53v101h70q83 0 127 -39.5t44 -138.5v-97q0 -62 28 -85.5t71 -23.5h18v-104z
" />
    <glyph glyph-name="dblparenleft.cap" horiz-adv-x="655" 
d="M62 340q0 79 18.5 145t50 121t75.5 101t94 84l58 -70q-37 -31 -70.5 -69t-59 -84.5t-41 -103t-15.5 -124.5q0 -131 51.5 -224t131.5 -162l-58 -71q-51 38 -94.5 85t-74.5 103.5t-48.5 123.5t-17.5 145zM293 340q0 79 18.5 145t50 121t75.5 101t94 84l58 -70
q-37 -31 -70.5 -69t-59 -84.5t-41 -103t-15.5 -124.5q0 -131 51.5 -224t131.5 -162l-58 -71q-51 39 -94.5 86t-74.5 103.5t-48.5 123t-17.5 144.5z" />
    <glyph glyph-name="dblparenright.cap" horiz-adv-x="655" 
d="M593 334q0 -77 -18.5 -143.5t-50 -121.5t-75.5 -101.5t-94 -84.5l-58 71q38 32 72 71t59 85.5t40 102t15 121.5q0 135 -53 228t-130 159l57 70q51 -38 95 -84.5t75 -102.5t48.5 -123.5t17.5 -146.5zM362 334q0 -77 -18.5 -143t-50 -121t-75.5 -101.5t-94 -85.5l-58 71
q38 32 72 71t59 85.5t40 102t15 121.5q0 135 -53 228t-130 159l57 70q51 -38 95 -84.5t75 -102.5t48.5 -123.5t17.5 -146.5z" />
    <glyph glyph-name="uni3008.cap" horiz-adv-x="390" 
d="M347 771l-197 -436l198 -434h-112l-197 435l197 435h111z" />
    <glyph glyph-name="uni3009.cap" horiz-adv-x="390" 
d="M43 -99l196 436l-197 434h112l197 -434l-197 -436h-111z" />
    <glyph glyph-name="uni301A.cap" horiz-adv-x="487" 
d="M72 -99v870h359v-87h-112v-696h112v-87h-359zM160 -12h71v696h-71v-696z" />
    <glyph glyph-name="uni301B.cap" horiz-adv-x="487" 
d="M415 771v-870h-359v87h112v696h-112v87h359zM326 684h-70v-696h70v696z" />
    <glyph glyph-name="slash" unicode="/" horiz-adv-x="527" 
d="M66 -194l290 918h107l-290 -918h-107z" />
    <glyph glyph-name="backslash" unicode="\" horiz-adv-x="527" 
d="M463 -194h-108l-289 918h107z" />
    <glyph glyph-name="bar" unicode="|" horiz-adv-x="327" 
d="M112 -194v918h103v-918h-103z" />
    <glyph glyph-name="brokenbar" unicode="&#xa6;" horiz-adv-x="327" 
d="M112 326v398h103v-398h-103zM112 -194v398h103v-398h-103z" />
    <glyph glyph-name="slash.cap" horiz-adv-x="458" 
d="M38 -99l274 870h108l-274 -870h-108z" />
    <glyph glyph-name="backslash.cap" horiz-adv-x="458" 
d="M420 -99h-108l-274 870h107z" />
    <glyph glyph-name="bar.cap" horiz-adv-x="327" 
d="M112 -99v870h103v-870h-103z" />
    <glyph glyph-name="brokenbar.cap" horiz-adv-x="327" 
d="M112 397v374h103v-374h-103zM112 -99v374h103v-374h-103z" />
    <glyph glyph-name="fraction" unicode="&#x2044;" horiz-adv-x="186" 
d="M-62 0h-73l397 680h73z" />
    <glyph glyph-name="numbersign" unicode="#" horiz-adv-x="778" 
d="M160 -70l16 199h-106v98h113l15 184h-128v98h136l14 181h102l-14 -181h188l14 181h102l-14 -181h104v-98h-112l-15 -184h127v-98h-134l-16 -199h-102l16 199h-188l-16 -199h-102zM285 227h188l15 184h-188z" />
    <glyph glyph-name="uni2116" unicode="&#x2116;" horiz-adv-x="1097" 
d="M871 367q-63 0 -106 39.5t-43 120.5q0 78 43 118t107 40q65 0 107 -40t42 -118q0 -79 -42 -119.5t-108 -40.5zM652 0h-140l-311 488v-488h-121v680h134l317 -500v500h121v-680zM872 443q29 0 45 21.5t16 62.5q0 40 -16 61t-45 21q-28 0 -45 -20.5t-17 -61.5t17 -62.5
t45 -21.5zM1014 227h-286v89h286v-89z" />
    <glyph glyph-name="percent" unicode="%" horiz-adv-x="872" 
d="M209 313q-75 0 -125 47t-50 143q0 93 50 140t125 47q78 0 125 -47t47 -140q0 -91 -47 -140.5t-125 -49.5zM278 0h-81l397 680h81zM209 398q37 0 57.5 26t20.5 79q0 50 -20.5 76t-57.5 26t-59 -25.5t-22 -76.5q0 -53 22 -79t59 -26zM666 -10q-76 0 -125.5 47t-49.5 143
q0 93 49.5 140t125.5 47q77 0 124.5 -47t47.5 -140q0 -91 -47.5 -140.5t-124.5 -49.5zM666 75q37 0 57.5 26t20.5 79q0 50 -20.5 76t-57.5 26t-59.5 -25.5t-22.5 -76.5q0 -53 22.5 -79t59.5 -26z" />
    <glyph glyph-name="perthousand" unicode="&#x2030;" horiz-adv-x="1272" 
d="M209 313q-75 0 -125 47t-50 143q0 93 50 140t125 47q78 0 125 -47t47 -140q0 -91 -47 -140.5t-125 -49.5zM278 0h-81l397 680h81zM209 398q37 0 57.5 26t20.5 79q0 50 -20.5 76t-57.5 26t-59 -25.5t-22 -76.5q0 -53 22 -79t59 -26zM1065 -10q-75 0 -125 47t-50 143
q0 93 50 140t125 47q78 0 125.5 -47t47.5 -140q0 -91 -47.5 -140.5t-125.5 -49.5zM666 -10q-76 0 -125.5 47t-49.5 143q0 93 49.5 140t125.5 47q77 0 124.5 -47t47.5 -140q0 -91 -47.5 -140.5t-124.5 -49.5zM1065 75q37 0 58 26t21 79q0 50 -21 76t-58 26t-59 -25.5
t-22 -76.5q0 -53 22.5 -79t58.5 -26zM666 75q37 0 57.5 26t20.5 79q0 50 -20.5 76t-57.5 26t-59.5 -25.5t-22.5 -76.5q0 -53 22.5 -79t59.5 -26z" />
    <glyph glyph-name="degree" unicode="&#xb0;" horiz-adv-x="423" 
d="M210 354q-70 0 -119 47t-49 122q0 73 49 120t119 47q72 0 121.5 -47t49.5 -120q0 -75 -49.5 -122t-121.5 -47zM210 441q34 0 58 23.5t24 58.5t-24 57.5t-58 22.5q-33 0 -56 -22.5t-23 -57.5t23 -58.5t56 -23.5z" />
    <glyph glyph-name="at" unicode="@" horiz-adv-x="885" 
d="M653 -99q-31 -25 -89 -40.5t-120 -15.5q-86 0 -158 25.5t-123.5 75t-80 123t-28.5 167.5q0 91 30 165.5t84 126t129.5 80t166.5 28.5q82 0 151 -24.5t118.5 -70t77.5 -110.5t28 -145q0 -121 -48.5 -185t-124.5 -64q-46 0 -76.5 20t-41.5 52q-13 -32 -47 -52t-78 -20
q-77 0 -124.5 54t-47.5 146q0 49 14 86.5t37.5 62.5t55.5 38t67 13q33 0 60 -13t43 -31v38h96v-255q0 -28 13.5 -42t35.5 -14q33 0 55 43t22 121q0 63 -22 113.5t-60 85t-91.5 53t-115.5 18.5q-70 0 -128.5 -23.5t-99.5 -65.5t-64 -101t-23 -128q0 -75 22.5 -132.5t62.5 -96
t96 -58t122 -19.5q46 0 93 12.5t75 29.5zM528 228v23q0 51 -25 75t-60 24q-40 0 -65 -30t-25 -82q0 -55 25 -85t65 -30q36 0 60.5 26.5t24.5 78.5z" />
    <glyph glyph-name="at.cap" horiz-adv-x="885" 
d="M653 1q-31 -25 -89 -40.5t-120 -15.5q-86 0 -158 25.5t-123.5 75t-80 123t-28.5 167.5q0 91 30 165.5t84 126t129.5 80t166.5 28.5q82 0 151 -24.5t118.5 -70t77.5 -110.5t28 -145q0 -121 -48.5 -185t-124.5 -64q-46 0 -76.5 20t-41.5 52q-13 -32 -47 -52t-78 -20
q-77 0 -124.5 54t-47.5 146q0 49 14 86.5t37.5 62.5t55.5 38t67 13q33 0 60 -13t43 -31v38h96v-255q0 -28 13.5 -42t35.5 -14q33 0 55 43t22 121q0 63 -22 113.5t-60 85t-91.5 53t-115.5 18.5q-70 0 -128.5 -23.5t-99.5 -65.5t-64 -101t-23 -128q0 -75 22.5 -132.5t62.5 -96
t96 -58t122 -19.5q46 0 93 12.5t75 29.5zM528 328v23q0 51 -25 75t-60 24q-40 0 -65 -30t-25 -82q0 -55 25 -85t65 -30q36 0 60.5 26.5t24.5 78.5z" />
    <glyph glyph-name="ampersand" unicode="&#x26;" horiz-adv-x="722" 
d="M550 0l-47 49q-38 -26 -86.5 -42.5t-113.5 -16.5q-119 0 -190.5 52.5t-71.5 151.5q0 76 44 122t106 61q-22 28 -37 61t-15 71q0 78 55 129.5t151 51.5q92 0 144 -48t52 -126q0 -76 -45.5 -121.5t-117.5 -63.5l136 -141q24 30 40.5 74.5t24.5 85.5l100 -17
q-10 -66 -37 -120.5t-60 -92.5l116 -120h-148zM249 513q0 -31 16 -56t43 -53l21 4q49 10 77.5 36.5t28.5 69.5q0 39 -25 61.5t-67 22.5q-43 0 -68.5 -24t-25.5 -61zM157 201q0 -51 41 -82t110 -31q37 0 69 9t57 24l-178 184q-43 -9 -71 -35t-28 -69z" />
    <glyph glyph-name="section" unicode="&#xa7;" horiz-adv-x="595" 
d="M508 -24q0 -80 -59.5 -127.5t-160.5 -47.5q-100 0 -157 43.5t-67 122.5l115 12q7 -43 36.5 -65.5t73.5 -22.5q47 0 75.5 20t28.5 54q0 37 -26 54t-77 30l-76 19q-75 18 -117.5 56t-42.5 114q0 54 28 93t72 63q-28 21 -44.5 52.5t-16.5 75.5q0 76 58.5 122t155.5 46
q96 0 152 -44t66 -122l-114 -11q-7 40 -32 63t-71 23t-72 -19.5t-26 -50.5q0 -34 25.5 -51t66.5 -28l87 -24q75 -21 115.5 -59.5t40.5 -111.5q0 -54 -27 -92t-70 -61q28 -20 44 -50t16 -76zM334 146q4 -1 7.5 -2t7.5 -2q36 13 57.5 38.5t21.5 57.5q0 39 -24.5 61.5
t-74.5 34.5l-75 18h-2q-38 -13 -61 -39t-23 -61q0 -36 22.5 -57t65.5 -31z" />
    <glyph glyph-name="paragraph" unicode="&#xb6;" horiz-adv-x="670" 
d="M252 -180v450q-49 0 -88.5 16t-67 44t-42 65.5t-14.5 79.5q0 43 14.5 80.5t42 65t67 43.5t88.5 16h384v-106h-84v-754h-105v754h-90v-754h-105z" />
    <glyph glyph-name="dagger" unicode="&#x2020;" horiz-adv-x="516" 
d="M204 -10v435h-156v100h156v165h111v-165h153v-100h-153v-435h-111z" />
    <glyph glyph-name="daggerdbl" unicode="&#x2021;" horiz-adv-x="516" 
d="M204 -10v170h-156v99h156v166h-156v100h156v165h111v-165h153v-100h-153v-166h153v-99h-153v-170h-111z" />
    <glyph glyph-name="asterisk" unicode="*" horiz-adv-x="389" 
d="M154 361l9 108l-90 -61l-41 70l98 47l-98 47l41 71l90 -61l-9 108h81l-9 -109l90 62l41 -71l-97 -47l97 -47l-41 -70l-90 62l9 -109h-81z" />
    <glyph glyph-name="periodcentered" unicode="&#xb7;" horiz-adv-x="274" 
d="M73 276v132h128v-132h-128z" />
    <glyph glyph-name="bullet" unicode="&#x2022;" horiz-adv-x="348" 
d="M173 248q-48 0 -82.5 35t-34.5 84t34.5 84t82.5 35q49 0 84 -35t35 -84t-35 -84t-84 -35z" />
    <glyph glyph-name="copyright" unicode="&#xa9;" horiz-adv-x="827" 
d="M413 -45q-74 0 -138.5 27t-111.5 73.5t-74 110.5t-27 138t27 138.5t74 111.5t111.5 74t138.5 27t139 -27t112 -74t74 -111.5t27 -138.5t-27 -138t-74 -110.5t-112 -73.5t-139 -27zM413 15q60 0 112.5 22.5t90.5 61.5t60 92t22 113q0 61 -22 114.5t-60 92.5t-90.5 61.5
t-112.5 22.5t-112.5 -22.5t-90.5 -61.5t-59.5 -92.5t-21.5 -114.5q0 -60 21.5 -113t59.5 -92t90 -61.5t113 -22.5zM421 102q-83 0 -137 53.5t-54 148.5q0 49 15.5 87.5t41 64.5t60.5 39.5t74 13.5q67 0 111 -36.5t56 -93.5l-89 -21q-7 22 -26 40t-53 18q-42 0 -68.5 -30.5
t-26.5 -81.5q0 -50 27 -79.5t68 -29.5q34 0 53 16.5t26 37.5l89 -18q-10 -57 -55.5 -93t-111.5 -36z" />
    <glyph glyph-name="copyright.pnum_lnum" horiz-adv-x="827" 
d="M413 -11q-74 0 -138.5 27t-111.5 73.5t-74 110.5t-27 138t27 138.5t74 111.5t111.5 74t138.5 27t139 -27t112 -74t74 -111.5t27 -138.5t-27 -138t-74 -110.5t-112 -73.5t-139 -27zM413 49q60 0 112.5 22.5t90.5 61.5t60 92t22 113q0 61 -22 114.5t-60 92.5t-90.5 61.5
t-112.5 22.5t-112.5 -22.5t-90.5 -61.5t-59.5 -92.5t-21.5 -114.5q0 -60 21.5 -113t59.5 -92t90 -61.5t113 -22.5zM421 136q-83 0 -137 53.5t-54 148.5q0 49 15.5 87.5t41 64.5t60.5 39.5t74 13.5q67 0 111 -36.5t56 -93.5l-89 -21q-7 22 -26 40t-53 18q-42 0 -68.5 -30.5
t-26.5 -81.5q0 -50 27 -79.5t68 -29.5q34 0 53 16.5t26 37.5l89 -18q-10 -57 -55.5 -93t-111.5 -36z" />
    <glyph glyph-name="registered" unicode="&#xae;" horiz-adv-x="570" 
d="M285 224q-49 0 -91.5 18t-74 49t-49.5 74t-18 92t18 92t49.5 74t74 49t91.5 18t91.5 -18t74 -49t49.5 -74t18 -92t-18 -92t-49.5 -74t-74 -49t-91.5 -18zM285 273q78 0 129.5 53t51.5 131t-51 131t-129 53t-129.5 -53t-51.5 -131t51.5 -131t128.5 -53zM182 343v230h117
q49 0 73 -19.5t24 -57.5q0 -28 -11.5 -45.5t-33.5 -25.5l55 -82h-80l-46 74h-25v-74h-73zM292 519h-37v-49h37q17 0 24.5 6t7.5 19q0 11 -7.5 17.5t-24.5 6.5z" />
    <glyph glyph-name="trademark" unicode="&#x2122;" horiz-adv-x="807" 
d="M34 603v77h298v-77h-106v-243h-86v243h-106zM375 360v320h114l82 -192l78 192h112v-320h-81v214l-78 -184h-66l-81 186v-216h-80z" />
    <glyph glyph-name="uni2113" unicode="&#x2113;" horiz-adv-x="493" 
d="M370 102v-102h-77q-88 0 -129 39t-41 140v36q-18 -10 -36 -19.5t-41 -19.5l-32 78q32 15 58.5 29.5t50.5 30.5v211q0 81 44.5 123t111.5 42t102.5 -38t35.5 -106q0 -83 -53.5 -158t-133.5 -124v-85q0 -43 19.5 -60t58.5 -17h62zM230 528v-153q43 37 64 83.5t21 84.5
q0 23 -9 38.5t-29 15.5q-25 0 -36 -19t-11 -50z" />
    <glyph glyph-name="estimated" unicode="&#x212e;" horiz-adv-x="772" 
d="M709 192q-34 -93 -116.5 -147.5t-192.5 -54.5q-73 0 -137 25t-111 71.5t-74.5 113.5t-27.5 150q0 78 26 141t71.5 107t109 68t137.5 24q69 0 129 -23t104 -64t69.5 -98.5t25.5 -125.5v-55h-562v-155q37 -58 99.5 -91t141.5 -33q87 0 151.5 39t94.5 108h62zM394 635
q-76 0 -136.5 -30.5t-97.5 -84.5v-141h458v150q-35 49 -93 77.5t-131 28.5z" />
    <glyph glyph-name="uni2610" unicode="&#x2610;" horiz-adv-x="903" 
d="M96 -30v731h711v-731h-711zM141 14h621v643h-621v-643z" />
    <glyph glyph-name="uni2611" unicode="&#x2611;" horiz-adv-x="903" 
d="M199 477l94 47l154 -273l277 539l95 -42l-340 -656h-62zM592 657h-451v-643h621v544h45v-588h-711v731h496v-44z" />
    <glyph glyph-name="uni2713" unicode="&#x2713;" horiz-adv-x="724" 
d="M52 375l94 47l154 -273l277 539l95 -42l-340 -656h-62z" />
    <glyph glyph-name="zero" unicode="0" horiz-adv-x="691" 
d="M345 -10q-147 0 -221 89t-74 261q0 169 74 259.5t221 90.5q148 0 221.5 -90.5t73.5 -259.5q0 -172 -73.5 -261t-221.5 -89zM345 100q86 0 127.5 59.5t41.5 180.5q0 122 -41.5 181t-127.5 59q-85 0 -127 -59t-42 -181q0 -121 42 -180.5t127 -59.5z" />
    <glyph glyph-name="zero.zero" horiz-adv-x="691" 
d="M345 -10q-147 0 -221 89t-74 261q0 169 74 259.5t221 90.5q148 0 221.5 -90.5t73.5 -259.5q0 -172 -73.5 -261t-221.5 -89zM171 340q0 -46 6.5 -84t19.5 -67l232 376q-18 10 -39 14.5t-45 4.5q-85 0 -129.5 -61t-44.5 -183zM345 95q86 0 130.5 62t44.5 183q0 49 -7.5 88
t-20.5 68l-234 -379q18 -11 40 -16.5t47 -5.5z" />
    <glyph glyph-name="one" unicode="1" horiz-adv-x="534" 
d="M68 110h177v447l-163 -98l-59 94l200 127h142v-570h157v-110h-454v110z" />
    <glyph glyph-name="two" unicode="2" horiz-adv-x="624" 
d="M444 474q0 46 -33 77t-96 31t-104 -35t-54 -100l-118 23q16 96 86.5 158t194.5 62q119 0 184.5 -59.5t65.5 -154.5q0 -45 -14 -80t-39 -64.5t-60 -56.5t-77 -56l-153 -105h351v-114h-528v118l247 171q71 49 109 88t38 97z" />
    <glyph glyph-name="three" unicode="3" horiz-adv-x="653" 
d="M321 -10q-117 0 -188.5 47t-92.5 146l120 24q13 -56 54.5 -82.5t109.5 -26.5q76 0 116 31t40 82q0 57 -43.5 79.5t-111.5 22.5q-23 0 -46 -3.5t-42 -7.5l-34 90l238 178h-367v110h505v-129l-212 -153h7h6q98 0 161 -45.5t63 -141.5q0 -104 -77 -162.5t-206 -58.5z" />
    <glyph glyph-name="four" unicode="4" horiz-adv-x="657" 
d="M529 0h-115v150h-379v133l320 397h174v-424h92v-106h-92v-150zM144 256h270v329z" />
    <glyph glyph-name="five" unicode="5" horiz-adv-x="641" 
d="M555 568h-351l-16 -168q32 19 72.5 28.5t81.5 9.5q119 0 186.5 -55t67.5 -163q0 -104 -70.5 -167t-198.5 -63q-124 0 -192.5 48.5t-87.5 135.5l119 23q12 -49 52.5 -74t106.5 -25q77 0 112.5 32t35.5 89q0 55 -38.5 86t-110.5 31q-40 0 -74.5 -10.5t-64.5 -32.5l-113 33
l34 354h449v-112z" />
    <glyph glyph-name="six" unicode="6" horiz-adv-x="659" 
d="M606 216q0 -104 -71.5 -165t-196.5 -61q-81 0 -136 24t-88 67.5t-47 105.5t-14 138q0 196 76 280.5t212 84.5q105 0 172.5 -44t91.5 -133l-117 -24q-10 38 -46 66t-101 28q-76 0 -123 -50t-49 -171q27 34 74.5 53t110.5 19q54 0 100.5 -12t80 -38.5t52.5 -68t19 -99.5z
M334 333q-69 0 -108 -30t-39 -87t39.5 -88t108.5 -31q71 0 109 30.5t38 87.5t-38 87.5t-110 30.5z" />
    <glyph glyph-name="seven" unicode="7" horiz-adv-x="582" 
d="M103 0l326 568h-396v112h516v-141l-302 -539h-144z" />
    <glyph glyph-name="eight" unicode="8" horiz-adv-x="684" 
d="M621 198q0 -97 -71.5 -152.5t-204.5 -55.5q-137 0 -210 52.5t-73 147.5q0 62 30.5 99.5t82.5 56.5q-50 19 -75.5 57.5t-25.5 88.5q0 93 70.5 145.5t201.5 52.5q134 0 200 -50.5t66 -137.5q0 -59 -27 -96.5t-80 -56.5q54 -17 85 -55t31 -96zM346 395q73 0 110 25.5
t37 72.5q0 43 -36.5 67.5t-111.5 24.5t-113.5 -25t-38.5 -69q0 -47 37 -71.5t116 -24.5zM344 298q-75 0 -117 -25t-42 -74q0 -50 41 -77t118 -27q75 0 115.5 27.5t40.5 74.5q0 50 -39 76t-117 25z" />
    <glyph glyph-name="nine" unicode="9" horiz-adv-x="658" 
d="M53 464q0 104 71 165t197 61q81 0 136 -24t88 -67.5t47 -105.5t14 -138q0 -196 -76 -280.5t-212 -84.5q-105 0 -172.5 44t-91.5 133l117 24q10 -38 46 -66t101 -28q76 0 123 50t49 171q-27 -34 -74.5 -53t-110.5 -19q-54 0 -100.5 12t-80 38.5t-52.5 68t-19 99.5z
M325 347q69 0 108 30t39 87t-39.5 88t-108.5 31q-71 0 -109 -30.5t-38 -87.5t38 -87.5t110 -30.5z" />
    <glyph glyph-name="zero.tnum_lnum" horiz-adv-x="650" 
d="M325 -10q-145 0 -217 89t-72 261q0 169 72 259.5t217 90.5q146 0 217.5 -90.5t71.5 -259.5q0 -172 -71.5 -261t-217.5 -89zM325 100q84 0 123.5 59.5t39.5 180.5q0 122 -39.5 181t-123.5 59t-123.5 -59t-39.5 -181q0 -121 39.5 -180.5t123.5 -59.5z" />
    <glyph glyph-name="zero.tnum_lnum_zero" horiz-adv-x="650" 
d="M325 -10q-145 0 -217 89t-72 261q0 169 72 259.5t217 90.5q146 0 217.5 -90.5t71.5 -259.5q0 -172 -71.5 -261t-217.5 -89zM156 340q0 -49 7.5 -89t21.5 -70l232 378q-18 13 -41 19.5t-51 6.5q-84 0 -126.5 -61.5t-42.5 -183.5zM325 95q84 0 126.5 62t42.5 183
q0 43 -5.5 78.5t-15.5 63.5l-227 -369q16 -9 36.5 -13.5t42.5 -4.5z" />
    <glyph glyph-name="one.tnum_lnum" horiz-adv-x="650" 
d="M86 112h221v443l-198 -120l-59 93l237 152h140v-568h194v-112h-535v112z" />
    <glyph glyph-name="two.tnum_lnum" horiz-adv-x="650" 
d="M458 474q0 46 -33 77t-96 31t-104 -35t-54 -100l-118 23q16 96 86.5 158t194.5 62q119 0 184.5 -59.5t65.5 -154.5q0 -45 -14 -80t-39 -64.5t-60 -56.5t-77 -56l-153 -105h351v-114h-528v118l247 171q71 49 109 88t38 97z" />
    <glyph glyph-name="three.tnum_lnum" horiz-adv-x="650" 
d="M319 -10q-117 0 -188.5 47t-92.5 146l120 24q13 -56 54.5 -82.5t109.5 -26.5q76 0 116 31t40 82q0 57 -43.5 79.5t-111.5 22.5q-23 0 -46 -3.5t-42 -7.5l-34 90l238 178h-367v110h505v-129l-212 -153h7h6q98 0 161 -45.5t63 -141.5q0 -104 -77 -162.5t-206 -58.5z" />
    <glyph glyph-name="four.tnum_lnum" horiz-adv-x="650" 
d="M534 0h-116v150h-377v133l316 397h177v-424h89v-106h-89v-150zM150 256h268v331z" />
    <glyph glyph-name="five.tnum_lnum" horiz-adv-x="650" 
d="M557 568h-351l-16 -168q32 19 72.5 28.5t81.5 9.5q119 0 186.5 -55t67.5 -163q0 -104 -70.5 -167t-198.5 -63q-124 0 -192.5 48.5t-87.5 135.5l119 23q12 -49 52.5 -74t106.5 -25q77 0 112.5 32t35.5 89q0 55 -38.5 86t-110.5 31q-40 0 -74.5 -10.5t-64.5 -32.5l-113 33
l34 354h449v-112z" />
    <glyph glyph-name="six.tnum_lnum" horiz-adv-x="650" 
d="M599 216q0 -104 -71.5 -165t-196.5 -61q-81 0 -136 24t-88 67.5t-47 105.5t-14 138q0 196 76 280.5t212 84.5q105 0 172.5 -44t91.5 -133l-117 -24q-10 38 -46 66t-101 28q-76 0 -123 -50t-49 -171q27 34 74.5 53t110.5 19q54 0 100.5 -12t80 -38.5t52.5 -68t19 -99.5z
M327 333q-69 0 -108 -30t-39 -87t39.5 -88t108.5 -31q71 0 109 30.5t38 87.5t-38 87.5t-110 30.5z" />
    <glyph glyph-name="seven.tnum_lnum" horiz-adv-x="650" 
d="M122 0l344 568h-414v112h535v-141l-322 -539h-143z" />
    <glyph glyph-name="eight.tnum_lnum" horiz-adv-x="650" 
d="M600 197q0 -97 -69.5 -152t-201.5 -55q-137 0 -206.5 52t-69.5 147q0 62 30.5 100t82.5 57q-50 19 -75.5 57.5t-25.5 88.5q0 93 66.5 145.5t197.5 52.5q135 0 198.5 -50.5t63.5 -137.5q0 -59 -27 -96.5t-81 -56.5q54 -17 85.5 -55.5t31.5 -96.5zM330 395q73 0 107 25.5
t34 72.5q0 42 -33.5 67t-109.5 25q-74 0 -109 -25t-35 -69q0 -47 33 -71.5t113 -24.5zM328 298q-75 0 -113.5 -25.5t-38.5 -74.5q0 -50 37.5 -76.5t114.5 -26.5q75 0 112.5 27t37.5 75q0 49 -36 75t-114 26z" />
    <glyph glyph-name="nine.tnum_lnum" horiz-adv-x="650" 
d="M47 464q0 104 71 165t197 61q81 0 136 -24t88 -67.5t47 -105.5t14 -138q0 -196 -76 -280.5t-212 -84.5q-105 0 -172.5 44t-91.5 133l117 24q10 -38 46 -66t101 -28q76 0 123 50t49 171q-27 -34 -74.5 -53t-110.5 -19q-54 0 -100.5 12t-80 38.5t-52.5 68t-19 99.5z
M319 347q69 0 108 30t39 87t-39.5 88t-108.5 31q-71 0 -109 -30.5t-38 -87.5t38 -87.5t110 -30.5z" />
    <glyph glyph-name="plus" unicode="+" horiz-adv-x="650" 
d="M275 65v204h-203v98h203v204h100v-204h203v-98h-203v-204h-100z" />
    <glyph glyph-name="minus" unicode="&#x2212;" horiz-adv-x="650" 
d="M87 370h476v-104h-476v104z" />
    <glyph glyph-name="plusminus" unicode="&#xb1;" horiz-adv-x="650" 
d="M275 181v174h-203v98h203v174h100v-174h203v-98h-203v-174h-100zM78 121h494v-102h-494v102z" />
    <glyph glyph-name="divide" unicode="&#xf7;" horiz-adv-x="650" 
d="M262 460v128h126v-128h-126zM72 370h506v-104h-506v104zM262 46v127h126v-127h-126z" />
    <glyph glyph-name="multiply" unicode="&#xd7;" horiz-adv-x="650" 
d="M89 152l166 166l-166 166l70 70l166 -166l166 166l69 -70l-165 -165l166 -167l-70 -70l-166 167l-166 -166z" />
    <glyph glyph-name="equal" unicode="=" horiz-adv-x="650" 
d="M86 477h478v-103h-478v103zM86 247h478v-104h-478v104z" />
    <glyph glyph-name="less" unicode="&#x3c;" horiz-adv-x="650" 
d="M565 168v-115l-480 201v128l480 203v-115l-368 -152z" />
    <glyph glyph-name="greater" unicode="&#x3e;" horiz-adv-x="650" 
d="M85 470v115l480 -201v-128l-480 -203v115l368 152z" />
    <glyph glyph-name="lessequal" unicode="&#x2264;" horiz-adv-x="650" 
d="M565 255v-113l-480 169v136l480 171v-114l-371 -125zM85 109h480v-103h-480v103z" />
    <glyph glyph-name="greaterequal" unicode="&#x2265;" horiz-adv-x="650" 
d="M85 255v-113l480 169v136l-480 171v-114l371 -125zM565 109h-480v-103h480v103z" />
    <glyph glyph-name="approxequal" unicode="&#x2248;" horiz-adv-x="650" 
d="M226 515q28 0 54 -9t50 -20.5t46.5 -20.5t43.5 -9q29 0 41.5 15.5t15.5 40.5h103q-4 -72 -42 -116.5t-109 -44.5q-28 0 -54 9t-50.5 20t-47.5 20t-45 9q-26 0 -41 -15.5t-19 -41.5h-102q3 72 42 117.5t114 45.5zM226 286q28 0 54 -9t50 -20.5t46.5 -20.5t43.5 -9
q29 0 41.5 16t15.5 41h101q-2 -75 -41.5 -118.5t-107.5 -43.5q-30 0 -56 9t-50 20t-46.5 20t-44.5 9q-26 0 -41 -15.5t-19 -40.5h-102q3 72 42 117t114 45z" />
    <glyph glyph-name="notequal" unicode="&#x2260;" horiz-adv-x="650" 
d="M126 30l60 112h-100v99h152l71 133h-223v99h276l63 118h103l-63 -118h99v-99h-151l-71 -133h222v-99h-275l-59 -112h-104z" />
    <glyph glyph-name="infinity" unicode="&#x221e;" horiz-adv-x="794" 
d="M736 295q0 -30 -10.5 -60.5t-31.5 -54.5t-53 -39t-73 -15q-60 0 -100 32.5t-69 72.5q-12 -17 -29.5 -35.5t-39 -34t-47.5 -25.5t-57 -10q-41 0 -72.5 15t-52.5 39t-32 54.5t-11 60.5q0 34 10.5 66t31.5 56t53 39t75 15q53 0 94.5 -30t74.5 -74q35 43 75.5 73.5t95.5 30.5
q43 0 75 -15t52.5 -40t30.5 -56.5t10 -64.5zM155 300q0 -38 23.5 -58t55.5 -20q34 0 62 26t43 48q-22 31 -49 55t-58 24q-34 0 -55.5 -21t-21.5 -54zM564 375q-29 0 -54.5 -19.5t-53.5 -56.5q22 -30 49 -53.5t60 -23.5q32 0 53 21.5t21 56.5q0 31 -20.5 53t-54.5 22z" />
    <glyph glyph-name="logicalnot" unicode="&#xac;" horiz-adv-x="650" 
d="M79 410h492v-260h-103v156h-389v104z" />
    <glyph glyph-name="asciicircum" unicode="^" horiz-adv-x="578" 
d="M353 680l181 -358h-119l-126 260l-124 -260h-120l180 358h128z" />
    <glyph glyph-name="asciitilde" unicode="~" horiz-adv-x="669" 
d="M586 417q-4 -79 -43 -130t-114 -51q-26 0 -53 11.5t-53 24.5t-49.5 24.5t-41.5 11.5q-32 0 -47 -21t-19 -48h-102q4 78 42.5 129.5t113.5 51.5q28 0 55.5 -11.5t52.5 -24.5t48 -24.5t42 -11.5q32 0 47 21t19 48h102z" />
    <glyph glyph-name="currency" unicode="&#xa4;" horiz-adv-x="662" 
d="M108 45l-73 74l114 113q-13 22 -19.5 50t-6.5 59q0 32 7 60t20 50l-111 111l73 73l113 -113q22 12 49.5 18t57.5 6t57 -6t49 -18l116 115l73 -73l-115 -115q12 -22 18.5 -49.5t6.5 -58.5t-6.5 -58t-17.5 -49l112 -112l-73 -73l-113 112q-23 -12 -50 -18t-57 -6t-57.5 6
t-50.5 18zM221 341q0 -52 30 -81t81 -29t78.5 29t27.5 81q0 53 -27.5 82.5t-78.5 29.5t-81 -29t-30 -83z" />
    <glyph glyph-name="dollar" unicode="$" horiz-adv-x="650" 
d="M46 186l120 14q10 -44 40.5 -69.5t79.5 -32.5v189q-112 18 -168.5 63.5t-56.5 137.5q0 46 17 81.5t46.5 60.5t71 39.5t90.5 18.5v86h80v-86q103 -8 158 -57.5t68 -130.5l-117 -11q-10 36 -35 61t-74 32v-192q113 -18 170.5 -62.5t57.5 -136.5q0 -93 -61.5 -142.5
t-166.5 -56.5v-86h-80v85q-101 7 -163.5 55t-76.5 140zM181 493q0 -38 25 -57.5t80 -31.5v179q-49 -7 -77 -30.5t-28 -59.5zM474 184q0 40 -24.5 60.5t-83.5 31.5v-179q54 5 81 27.5t27 59.5z" />
    <glyph glyph-name="cent" unicode="&#xa2;" horiz-adv-x="650" 
d="M290 0v93q-95 11 -152.5 74.5t-57.5 174.5q0 107 59 171.5t151 77.5v93h77v-91q86 -7 136.5 -52t66.5 -116l-103 -23q-10 35 -34 60t-66 32v-305q43 7 66 31t32 55l104 -17q-13 -69 -63 -114.5t-139 -52.5v-91h-77zM194 344q0 -59 25 -98.5t71 -52.5v298
q-43 -13 -69.5 -51.5t-26.5 -95.5z" />
    <glyph glyph-name="sterling" unicode="&#xa3;" horiz-adv-x="650" 
d="M456 254h-156q1 -4 1 -9v-9q0 -42 -17 -75.5t-44 -54.5h341v-106h-498v106q49 9 75 45t26 81q0 6 -0.5 11.5t-1.5 10.5h-115v82h86q-16 33 -31.5 69t-15.5 81q0 95 65.5 149.5t172.5 54.5q105 0 161.5 -49.5t67.5 -130.5l-118 -18q-7 40 -32.5 67.5t-79.5 27.5
q-53 0 -83 -28.5t-30 -74.5q0 -41 16 -76t32 -72h178v-82z" />
    <glyph glyph-name="yen" unicode="&#xa5;" horiz-adv-x="650" 
d="M265 0v107h-151v82h151v59h-151v82h108l-206 350h143l168 -297l167 297h139l-205 -350h110v-82h-151v-59h151v-82h-151v-107h-122z" />
    <glyph glyph-name="franc" unicode="&#x20a3;" horiz-adv-x="650" 
d="M57 0v680h432v-110h-310v-157h266v-65q21 34 56 51.5t74 17.5h35v-107h-37q-47 0 -85 -21.5t-38 -63.5v-225h-112v300h-159v-300h-122z" />
    <glyph glyph-name="lira" unicode="&#x20a4;" horiz-adv-x="650" 
d="M460 211h-157q-4 -34 -20.5 -60.5t-38.5 -44.5h341v-106h-498v106q43 8 68.5 37.5t31.5 67.5h-116v82h105q-6 14 -13 28.5t-14 29.5h-78v82h45q-3 12 -4.5 25.5t-1.5 27.5q0 95 65.5 149.5t172.5 54.5q105 0 161.5 -49.5t67.5 -130.5l-118 -18q-7 40 -32.5 67.5
t-79.5 27.5q-53 0 -83 -28.5t-30 -74.5q0 -13 2 -26t6 -25h218v-82h-184q6 -13 11.5 -27.5t9.5 -30.5h163v-82z" />
    <glyph glyph-name="Euro" unicode="&#x20ac;" horiz-adv-x="650" 
d="M26 231v78h67q-1 7 -1 15v15v18t1 17h-67v78h75q21 118 88.5 178t173.5 60q101 0 161.5 -49.5t76.5 -145.5l-111 -16q-12 45 -41.5 73.5t-85.5 28.5q-54 0 -88 -32.5t-47 -96.5h210v-78h-219q-1 -8 -1 -17v-18v-15t1 -15h220v-78h-212q13 -64 46 -98t90 -34
q58 0 88.5 28.5t40.5 73.5l109 -14q-13 -96 -74.5 -146.5t-162.5 -50.5q-110 0 -177 61t-87 180h-74z" />
    <glyph glyph-name="uni20BD" unicode="&#x20bd;" horiz-adv-x="650" 
d="M368 263h-132v-62h239v-88h-239v-113h-116v113h-84v88h84v62h-84v99h84v318h253q110 0 172 -51t62 -156q0 -104 -62.5 -157t-176.5 -53zM236 582v-220h133q65 0 94.5 29t29.5 81q0 53 -30 81.5t-93 28.5h-134z" />
    <glyph glyph-name="uni20B4" unicode="&#x20b4;" horiz-adv-x="650" 
d="M571 168q-12 -76 -72 -125.5t-164 -49.5q-103 0 -166.5 42.5t-63.5 131.5q0 18 3.5 34t10.5 29h-58v79h133q9 6 18 11.5t18 9.5q21 11 40.5 22t38.5 21h-248v79h364q7 11 11 23.5t4 28.5q0 38 -26 61.5t-76 23.5q-51 0 -83 -22t-44 -62l-115 15q16 79 78.5 124t164.5 46
q99 1 157.5 -45.5t58.5 -126.5q0 -19 -3 -35.5t-9 -30.5h56v-79h-130q-8 -5 -16.5 -10t-17.5 -10q-18 -10 -37.5 -21.5t-38.5 -22.5h240v-79h-358q-8 -11 -13 -24t-5 -28q0 -43 31 -64t81 -21q53 0 84.5 24t41.5 64z" />
    <glyph glyph-name="uni20B8" unicode="&#x20b8;" horiz-adv-x="650" 
d="M592 598h-534v82h534v-82zM58 440v106h534v-106h-206v-440h-122v440h-206z" />
    <glyph glyph-name="arrowleft" unicode="&#x2190;" horiz-adv-x="800" 
d="M88 363l279 280l70 -70l-199 -200h530v-108h-530l199 -198l-71 -72l-278 280v88z" />
    <glyph glyph-name="arrowup" unicode="&#x2191;" horiz-adv-x="800" 
d="M346 0v531l-201 -200l-70 70l281 279h88l280 -278l-72 -71l-198 198v-529h-108z" />
    <glyph glyph-name="arrowright" unicode="&#x2192;" horiz-adv-x="800" 
d="M32 373h530l-199 200l70 70l279 -280v-88l-278 -280l-71 72l199 198h-530v108z" />
    <glyph glyph-name="arrowdown" unicode="&#x2193;" horiz-adv-x="800" 
d="M356 0l-281 279l70 70l201 -200v531h108v-529l198 198l72 -71l-280 -278h-88z" />
    <glyph glyph-name="uni2196" unicode="&#x2196;" horiz-adv-x="800" 
d="M184 597h414v-99h-304l415 -412l-77 -76l-412 411v-303h-100v414z" />
    <glyph glyph-name="uni2197" unicode="&#x2197;" horiz-adv-x="800" 
d="M85 86l415 412h-304v99h414l64 -65v-414h-100v303l-412 -411z" />
    <glyph glyph-name="uni2198" unicode="&#x2198;" horiz-adv-x="800" 
d="M91 540l77 77l413 -413v304h99v-414l-64 -64h-414v99h303z" />
    <glyph glyph-name="uni2199" unicode="&#x2199;" horiz-adv-x="800" 
d="M184 30l-64 64v414h99v-304l413 413l77 -77l-414 -411h303v-99h-414z" />
    <glyph glyph-name="onequarter" unicode="&#xbc;" horiz-adv-x="950" 
d="M82 316v75h104v201l-96 -59l-42 62l132 85h94v-289h95v-75h-287zM864 0h-85v75h-211v81l170 208h126v-220h43v-69h-43v-75zM651 144h128v157zM338 0h-73l397 680h73z" />
    <glyph glyph-name="onehalf" unicode="&#xbd;" horiz-adv-x="950" 
d="M76 316v75h104v201l-96 -59l-42 62l132 85h94v-289h95v-75h-287zM788 249q0 19 -15.5 32.5t-43.5 13.5q-31 0 -50.5 -15t-26.5 -42l-82 15q11 55 52.5 85.5t110.5 30.5q67 0 105 -31t38 -85q0 -45 -23.5 -71.5t-69.5 -56.5l-77 -50h176v-75h-305v73l159 107
q28 19 40 34.5t12 34.5zM317 0h-73l397 680h73z" />
    <glyph glyph-name="threequarters" unicode="&#xbe;" horiz-adv-x="950" 
d="M225 383q35 0 54 12t19 36q0 23 -19.5 34.5t-54.5 11.5q-11 0 -25.5 -1.5t-25.5 -4.5l-20 57l123 81h-195v71h292v-79l-109 -70q53 0 86.5 -24t33.5 -73q0 -60 -43.5 -91.5t-117.5 -31.5q-66 0 -107 25t-55 78l84 17q7 -22 26.5 -35t53.5 -13zM864 0h-85v75h-211v81
l170 208h126v-220h43v-69h-43v-75zM651 144h128v157zM330 0h-73l397 680h73z" />
    <glyph glyph-name="uni2153" unicode="&#x2153;" horiz-adv-x="950" 
d="M89 316v75h104v201l-96 -59l-42 62l132 85h94v-289h95v-75h-287zM730 66q35 0 54 12t19 36q0 23 -19.5 34.5t-54.5 11.5q-11 0 -25.5 -1.5t-25.5 -4.5l-20 57l123 81h-195v71h292v-79l-109 -70q53 0 86.5 -24t33.5 -73q0 -60 -43.5 -91.5t-117.5 -31.5q-66 0 -107 25
t-55 78l84 17q7 -22 26.5 -35t53.5 -13zM311 0h-73l397 680h73z" />
    <glyph glyph-name="uni2154" unicode="&#x2154;" horiz-adv-x="950" 
d="M285 565q0 19 -15.5 32.5t-43.5 13.5q-31 0 -50.5 -15t-26.5 -42l-82 15q11 55 52.5 85.5t110.5 30.5q67 0 105 -31t38 -85q0 -45 -23.5 -71.5t-69.5 -56.5l-77 -50h176v-75h-305v73l159 107q28 19 40 34.5t12 34.5zM317 0h-73l397 680h73zM735 66q35 0 54 12t19 36
q0 23 -19.5 34.5t-54.5 11.5q-11 0 -25.5 -1.5t-25.5 -4.5l-20 57l123 81h-195v71h292v-79l-109 -70q53 0 86.5 -24t33.5 -73q0 -60 -43.5 -91.5t-117.5 -31.5q-66 0 -107 25t-55 78l84 17q7 -22 26.5 -35t53.5 -13z" />
    <glyph glyph-name="oneeighth" unicode="&#x215b;" horiz-adv-x="950" 
d="M82 316v75h104v201l-96 -59l-42 62l132 85h94v-289h95v-75h-287zM903 105q0 -53 -44 -82t-120 -29q-80 0 -122 28t-42 82q0 31 16.5 51.5t43.5 29.5q-27 10 -39.5 30.5t-12.5 47.5q0 49 39.5 77.5t117.5 28.5t117 -28t39 -78q0 -30 -15.5 -49t-43.5 -29q31 -8 48.5 -28.5
t17.5 -51.5zM740 216q38 0 54.5 11.5t16.5 32.5q0 20 -16.5 31t-54.5 11q-36 0 -54 -11.5t-18 -30.5q0 -22 18 -33t54 -11zM740 153q-37 0 -57 -12t-20 -34t19.5 -34t57.5 -12q37 0 56.5 12.5t19.5 34.5t-19.5 33.5t-56.5 11.5zM320 0h-73l397 680h73z" />
    <glyph glyph-name="threeeighths" unicode="&#x215c;" horiz-adv-x="950" 
d="M225 383q35 0 54 12t19 36q0 23 -19.5 34.5t-54.5 11.5q-11 0 -25.5 -1.5t-25.5 -4.5l-20 57l123 81h-195v71h292v-79l-109 -70q53 0 86.5 -24t33.5 -73q0 -60 -43.5 -91.5t-117.5 -31.5q-66 0 -107 25t-55 78l84 17q7 -22 26.5 -35t53.5 -13zM899 105q0 -53 -44 -82
t-120 -29q-80 0 -122 28t-42 82q0 31 16.5 51.5t43.5 29.5q-27 10 -39.5 30.5t-12.5 47.5q0 49 39.5 77.5t117.5 28.5t117 -28t39 -78q0 -30 -15.5 -49t-43.5 -29q31 -8 48.5 -28.5t17.5 -51.5zM736 216q38 0 54.5 11.5t16.5 32.5q0 20 -16.5 31t-54.5 11q-36 0 -54 -11.5
t-18 -30.5q0 -22 18 -33t54 -11zM736 153q-37 0 -57 -12t-20 -34t19.5 -34t57.5 -12q37 0 56.5 12.5t19.5 34.5t-19.5 33.5t-56.5 11.5zM312 0h-73l397 680h73z" />
    <glyph glyph-name="fiveeighths" unicode="&#x215d;" horiz-adv-x="950" 
d="M224 311q-66 0 -107 25t-55 78l84 17q6 -22 25.5 -35t53.5 -13t51.5 14t17.5 39t-19 38t-50 13q-22 0 -38.5 -5.5t-27.5 -14.5l-83 22l16 191h263v-73h-191l-7 -74q16 9 38.5 14.5t46.5 5.5q60 0 98.5 -27.5t38.5 -86.5t-39.5 -93.5t-115.5 -34.5zM901 105q0 -53 -44 -82
t-120 -29q-80 0 -122 28t-42 82q0 31 16.5 51.5t43.5 29.5q-27 10 -39.5 30.5t-12.5 47.5q0 49 39.5 77.5t117.5 28.5t117 -28t39 -78q0 -30 -15.5 -49t-43.5 -29q31 -8 48.5 -28.5t17.5 -51.5zM738 216q38 0 54.5 11.5t16.5 32.5q0 20 -16.5 31t-54.5 11q-36 0 -54 -11.5
t-18 -30.5q0 -22 18 -33t54 -11zM738 153q-37 0 -57 -12t-20 -34t19.5 -34t57.5 -12q37 0 56.5 12.5t19.5 34.5t-19.5 33.5t-56.5 11.5zM314 0h-73l397 680h73z" />
    <glyph glyph-name="seveneighths" unicode="&#x215e;" horiz-adv-x="950" 
d="M118 316l179 285h-216v79h305v-89l-167 -275h-101zM877 105q0 -53 -44 -82t-120 -29q-80 0 -122 28t-42 82q0 31 16.5 51.5t43.5 29.5q-27 10 -39.5 30.5t-12.5 47.5q0 49 39.5 77.5t117.5 28.5t117 -28t39 -78q0 -30 -15.5 -49t-43.5 -29q31 -8 48.5 -28.5t17.5 -51.5z
M714 216q38 0 54.5 11.5t16.5 32.5q0 20 -16.5 31t-54.5 11q-36 0 -54 -11.5t-18 -30.5q0 -22 18 -33t54 -11zM714 153q-37 0 -57 -12t-20 -34t19.5 -34t57.5 -12q37 0 56.5 12.5t19.5 34.5t-19.5 33.5t-56.5 11.5zM273 0h-73l397 680h73z" />
    <glyph glyph-name="uni2070" unicode="&#x2070;" 
d="M206 391q-80 0 -125 47t-45 140q0 91 45 139t125 48q81 0 125.5 -48t44.5 -139q0 -93 -44.5 -140t-125.5 -47zM206 466q38 0 58.5 26t20.5 86t-20.5 86t-58.5 26q-37 0 -58 -26t-21 -86t21 -86t58 -26z" />
    <glyph glyph-name="uni00B9" unicode="&#xb9;" 
d="M81 396v75h104v201l-96 -59l-42 62l132 85h94v-289h95v-75h-287z" />
    <glyph glyph-name="uni00B2" unicode="&#xb2;" 
d="M270 645q0 19 -15.5 32.5t-43.5 13.5q-31 0 -50.5 -15t-26.5 -42l-82 15q11 55 52.5 85.5t110.5 30.5q67 0 105 -31t38 -85q0 -45 -23.5 -71.5t-69.5 -56.5l-77 -50h176v-75h-305v73l159 107q28 19 40 34.5t12 34.5z" />
    <glyph glyph-name="uni00B3" unicode="&#xb3;" 
d="M208 463q35 0 54 12t19 36q0 23 -19.5 34.5t-54.5 11.5q-11 0 -25.5 -1.5t-25.5 -4.5l-20 57l123 81h-195v71h292v-79l-109 -70q53 0 86.5 -24t33.5 -73q0 -60 -43.5 -91.5t-117.5 -31.5q-66 0 -107 25t-55 78l84 17q7 -22 26.5 -35t53.5 -13z" />
    <glyph glyph-name="uni2074" unicode="&#x2074;" 
d="M336 396h-85v75h-211v81l170 208h126v-220h43v-69h-43v-75zM123 540h128v157z" />
    <glyph glyph-name="uni2075" unicode="&#x2075;" 
d="M214 391q-66 0 -107 25t-55 78l84 17q6 -22 25.5 -35t53.5 -13t51.5 14t17.5 39t-19 38t-50 13q-22 0 -38.5 -5.5t-27.5 -14.5l-83 22l16 191h263v-73h-191l-7 -74q16 9 38.5 14.5t46.5 5.5q60 0 98.5 -27.5t38.5 -86.5t-39.5 -93.5t-115.5 -34.5z" />
    <glyph glyph-name="uni2076" unicode="&#x2076;" 
d="M215 391q-82 0 -125.5 43.5t-43.5 139.5q0 99 44.5 145t122.5 46q63 0 101 -22.5t53 -71.5l-83 -17q-8 20 -25 30.5t-45 10.5q-39 0 -62 -26.5t-23 -77.5q13 16 38 26.5t60 10.5q66 0 104 -28t38 -86q0 -57 -41 -90t-113 -33zM213 563q-30 0 -50.5 -12.5t-20.5 -36.5
q0 -26 19.5 -38.5t50.5 -12.5q33 0 51.5 12.5t18.5 38.5q0 25 -18.5 37t-50.5 12z" />
    <glyph glyph-name="uni2077" unicode="&#x2077;" 
d="M87 396l179 285h-216v79h305v-89l-167 -275h-101z" />
    <glyph glyph-name="uni2078" unicode="&#x2078;" 
d="M372 501q0 -53 -44 -82t-120 -29q-80 0 -122 28t-42 82q0 31 16.5 51.5t43.5 29.5q-27 10 -39.5 30.5t-12.5 47.5q0 49 39.5 77.5t117.5 28.5t117 -28t39 -78q0 -30 -15.5 -49t-43.5 -29q31 -8 48.5 -28.5t17.5 -51.5zM209 612q38 0 54.5 11.5t16.5 32.5q0 20 -16.5 31
t-54.5 11q-36 0 -54 -11.5t-18 -30.5q0 -22 18 -33t54 -11zM209 549q-37 0 -57 -12t-20 -34t19.5 -34t57.5 -12q37 0 56.5 12.5t19.5 34.5t-19.5 33.5t-56.5 11.5z" />
    <glyph glyph-name="uni2079" unicode="&#x2079;" 
d="M199 391q-60 0 -100 23t-54 72l82 17q8 -20 27 -30.5t46 -10.5q42 0 62 26t21 77q-14 -16 -37.5 -26.5t-58.5 -10.5q-64 0 -104 28.5t-40 85.5q0 56 41.5 89.5t114.5 33.5q80 0 123.5 -43.5t43.5 -136.5q0 -100 -43 -147t-124 -47zM200 593q33 0 51.5 13.5t18.5 37.5
q0 25 -18.5 37.5t-51.5 12.5q-32 0 -51 -12.5t-19 -37.5q0 -24 18.5 -37.5t51.5 -13.5z" />
    <glyph glyph-name="uni2080" unicode="&#x2080;" 
d="M206 -107q-80 0 -125 47t-45 140q0 91 45 139t125 48q81 0 125.5 -48t44.5 -139q0 -93 -44.5 -140t-125.5 -47zM206 -32q38 0 58.5 26t20.5 86t-20.5 86t-58.5 26q-37 0 -58 -26t-21 -86t21 -86t58 -26z" />
    <glyph glyph-name="uni2081" unicode="&#x2081;" 
d="M81 -100v75h104v201l-96 -59l-42 62l132 85h94v-289h95v-75h-287z" />
    <glyph glyph-name="uni2082" unicode="&#x2082;" 
d="M270 149q0 19 -15.5 32.5t-43.5 13.5q-31 0 -50.5 -15t-26.5 -42l-82 15q11 55 52.5 85.5t110.5 30.5q67 0 105 -31t38 -85q0 -45 -23.5 -71.5t-69.5 -56.5l-77 -50h176v-75h-305v73l159 107q28 19 40 34.5t12 34.5z" />
    <glyph glyph-name="uni2083" unicode="&#x2083;" 
d="M208 -34q35 0 54 12t19 36q0 23 -19.5 34.5t-54.5 11.5q-11 0 -25.5 -1.5t-25.5 -4.5l-20 57l123 81h-195v71h292v-79l-109 -70q53 0 86.5 -24t33.5 -73q0 -60 -43.5 -91.5t-117.5 -31.5q-66 0 -107 25t-55 78l84 17q7 -22 26.5 -35t53.5 -13z" />
    <glyph glyph-name="uni2084" unicode="&#x2084;" 
d="M336 -100h-85v75h-211v81l170 208h126v-220h43v-69h-43v-75zM123 44h128v157z" />
    <glyph glyph-name="uni2085" unicode="&#x2085;" 
d="M214 -106q-66 0 -107 25t-55 78l84 17q6 -22 25.5 -35t53.5 -13t51.5 14t17.5 39t-19 38t-50 13q-22 0 -38.5 -5.5t-27.5 -14.5l-83 22l16 191h263v-73h-191l-7 -74q16 9 38.5 14.5t46.5 5.5q60 0 98.5 -27.5t38.5 -86.5t-39.5 -93.5t-115.5 -34.5z" />
    <glyph glyph-name="uni2086" unicode="&#x2086;" 
d="M215 -106q-82 0 -125.5 43.5t-43.5 139.5q0 99 44.5 145t122.5 46q63 0 101 -22.5t53 -71.5l-83 -17q-8 20 -25 30.5t-45 10.5q-39 0 -62 -26.5t-23 -77.5q13 16 38 26.5t60 10.5q66 0 104 -28t38 -86q0 -57 -41 -90t-113 -33zM213 66q-30 0 -50.5 -12.5t-20.5 -36.5
q0 -26 19.5 -38.5t50.5 -12.5q33 0 51.5 12.5t18.5 38.5q0 25 -18.5 37t-50.5 12z" />
    <glyph glyph-name="uni2087" unicode="&#x2087;" 
d="M87 -100l179 285h-216v79h305v-89l-167 -275h-101z" />
    <glyph glyph-name="uni2088" unicode="&#x2088;" 
d="M372 5q0 -53 -44 -82t-120 -29q-80 0 -122 28t-42 82q0 31 16.5 51.5t43.5 29.5q-27 10 -39.5 30.5t-12.5 47.5q0 49 39.5 77.5t117.5 28.5t117 -28t39 -78q0 -30 -15.5 -49t-43.5 -29q31 -8 48.5 -28.5t17.5 -51.5zM209 116q38 0 54.5 11.5t16.5 32.5q0 20 -16.5 31
t-54.5 11q-36 0 -54 -11.5t-18 -30.5q0 -22 18 -33t54 -11zM209 53q-37 0 -57 -12t-20 -34t19.5 -34t57.5 -12q37 0 56.5 12.5t19.5 34.5t-19.5 33.5t-56.5 11.5z" />
    <glyph glyph-name="uni2089" unicode="&#x2089;" 
d="M199 -106q-60 0 -100 23t-54 72l82 17q8 -20 27 -30.5t46 -10.5q42 0 62 26t21 77q-14 -16 -37.5 -26.5t-58.5 -10.5q-64 0 -104 28.5t-40 85.5q0 56 41.5 89.5t114.5 33.5q80 0 123.5 -43.5t43.5 -136.5q0 -100 -43 -147t-124 -47zM200 96q33 0 51.5 13.5t18.5 37.5
q0 25 -18.5 37.5t-51.5 12.5q-32 0 -51 -12.5t-19 -37.5q0 -24 18.5 -37.5t51.5 -13.5z" />
    <glyph glyph-name="zero.dnom" 
d="M206 -7q-80 0 -125 47t-45 140q0 91 45 139t125 48q81 0 125.5 -48t44.5 -139q0 -93 -44.5 -140t-125.5 -47zM206 68q38 0 58.5 26t20.5 86t-20.5 86t-58.5 26q-37 0 -58 -26t-21 -86t21 -86t58 -26z" />
    <glyph glyph-name="one.dnom" 
d="M81 0v75h104v201l-96 -59l-42 62l132 85h94v-289h95v-75h-287z" />
    <glyph glyph-name="two.dnom" 
d="M270 249q0 19 -15.5 32.5t-43.5 13.5q-31 0 -50.5 -15t-26.5 -42l-82 15q11 55 52.5 85.5t110.5 30.5q67 0 105 -31t38 -85q0 -45 -23.5 -71.5t-69.5 -56.5l-77 -50h176v-75h-305v73l159 107q28 19 40 34.5t12 34.5z" />
    <glyph glyph-name="three.dnom" 
d="M208 66q35 0 54 12t19 36q0 23 -19.5 34.5t-54.5 11.5q-11 0 -25.5 -1.5t-25.5 -4.5l-20 57l123 81h-195v71h292v-79l-109 -70q53 0 86.5 -24t33.5 -73q0 -60 -43.5 -91.5t-117.5 -31.5q-66 0 -107 25t-55 78l84 17q7 -22 26.5 -35t53.5 -13z" />
    <glyph glyph-name="four.dnom" 
d="M336 0h-85v75h-211v81l170 208h126v-220h43v-69h-43v-75zM123 144h128v157z" />
    <glyph glyph-name="five.dnom" 
d="M214 -6q-66 0 -107 25t-55 78l84 17q6 -22 25.5 -35t53.5 -13t51.5 14t17.5 39t-19 38t-50 13q-22 0 -38.5 -5.5t-27.5 -14.5l-83 22l16 191h263v-73h-191l-7 -74q16 9 38.5 14.5t46.5 5.5q60 0 98.5 -27.5t38.5 -86.5t-39.5 -93.5t-115.5 -34.5z" />
    <glyph glyph-name="six.dnom" 
d="M215 -6q-82 0 -125.5 43.5t-43.5 139.5q0 99 44.5 145t122.5 46q63 0 101 -22.5t53 -71.5l-83 -17q-8 20 -25 30.5t-45 10.5q-39 0 -62 -26.5t-23 -77.5q13 16 38 26.5t60 10.5q66 0 104 -28t38 -86q0 -57 -41 -90t-113 -33zM213 166q-30 0 -50.5 -12.5t-20.5 -36.5
q0 -26 19.5 -38.5t50.5 -12.5q33 0 51.5 12.5t18.5 38.5q0 25 -18.5 37t-50.5 12z" />
    <glyph glyph-name="seven.dnom" 
d="M87 0l179 285h-216v79h305v-89l-167 -275h-101z" />
    <glyph glyph-name="eight.dnom" 
d="M372 105q0 -53 -44 -82t-120 -29q-80 0 -122 28t-42 82q0 31 16.5 51.5t43.5 29.5q-27 10 -39.5 30.5t-12.5 47.5q0 49 39.5 77.5t117.5 28.5t117 -28t39 -78q0 -30 -15.5 -49t-43.5 -29q31 -8 48.5 -28.5t17.5 -51.5zM209 216q38 0 54.5 11.5t16.5 32.5q0 20 -16.5 31
t-54.5 11q-36 0 -54 -11.5t-18 -30.5q0 -22 18 -33t54 -11zM209 153q-37 0 -57 -12t-20 -34t19.5 -34t57.5 -12q37 0 56.5 12.5t19.5 34.5t-19.5 33.5t-56.5 11.5z" />
    <glyph glyph-name="nine.dnom" 
d="M199 -6q-60 0 -100 23t-54 72l82 17q8 -20 27 -30.5t46 -10.5q42 0 62 26t21 77q-14 -16 -37.5 -26.5t-58.5 -10.5q-64 0 -104 28.5t-40 85.5q0 56 41.5 89.5t114.5 33.5q80 0 123.5 -43.5t43.5 -136.5q0 -100 -43 -147t-124 -47zM200 196q33 0 51.5 13.5t18.5 37.5
q0 25 -18.5 37.5t-51.5 12.5q-32 0 -51 -12.5t-19 -37.5q0 -24 18.5 -37.5t51.5 -13.5z" />
    <glyph glyph-name="zero.numr" 
d="M206 313q-80 0 -125 47t-45 140q0 91 45 139t125 48q81 0 125.5 -48t44.5 -139q0 -93 -44.5 -140t-125.5 -47zM206 388q38 0 58.5 26t20.5 86t-20.5 86t-58.5 26q-37 0 -58 -26t-21 -86t21 -86t58 -26z" />
    <glyph glyph-name="one.numr" 
d="M81 316v75h104v201l-96 -59l-42 62l132 85h94v-289h95v-75h-287z" />
    <glyph glyph-name="two.numr" 
d="M270 565q0 19 -15.5 32.5t-43.5 13.5q-31 0 -50.5 -15t-26.5 -42l-82 15q11 55 52.5 85.5t110.5 30.5q67 0 105 -31t38 -85q0 -45 -23.5 -71.5t-69.5 -56.5l-77 -50h176v-75h-305v73l159 107q28 19 40 34.5t12 34.5z" />
    <glyph glyph-name="three.numr" 
d="M208 383q35 0 54 12t19 36q0 23 -19.5 34.5t-54.5 11.5q-11 0 -25.5 -1.5t-25.5 -4.5l-20 57l123 81h-195v71h292v-79l-109 -70q53 0 86.5 -24t33.5 -73q0 -60 -43.5 -91.5t-117.5 -31.5q-66 0 -107 25t-55 78l84 17q7 -22 26.5 -35t53.5 -13z" />
    <glyph glyph-name="four.numr" 
d="M336 316h-85v75h-211v81l170 208h126v-220h43v-69h-43v-75zM123 460h128v157z" />
    <glyph glyph-name="five.numr" 
d="M214 311q-66 0 -107 25t-55 78l84 17q6 -22 25.5 -35t53.5 -13t51.5 14t17.5 39t-19 38t-50 13q-22 0 -38.5 -5.5t-27.5 -14.5l-83 22l16 191h263v-73h-191l-7 -74q16 9 38.5 14.5t46.5 5.5q60 0 98.5 -27.5t38.5 -86.5t-39.5 -93.5t-115.5 -34.5z" />
    <glyph glyph-name="six.numr" 
d="M215 311q-82 0 -125.5 43.5t-43.5 139.5q0 99 44.5 145t122.5 46q63 0 101 -22.5t53 -71.5l-83 -17q-8 20 -25 30.5t-45 10.5q-39 0 -62 -26.5t-23 -77.5q13 16 38 26.5t60 10.5q66 0 104 -28t38 -86q0 -57 -41 -90t-113 -33zM213 483q-30 0 -50.5 -12.5t-20.5 -36.5
q0 -26 19.5 -38.5t50.5 -12.5q33 0 51.5 12.5t18.5 38.5q0 25 -18.5 37t-50.5 12z" />
    <glyph glyph-name="seven.numr" 
d="M87 316l179 285h-216v79h305v-89l-167 -275h-101z" />
    <glyph glyph-name="eight.numr" 
d="M372 421q0 -53 -44 -82t-120 -29q-80 0 -122 28t-42 82q0 31 16.5 51.5t43.5 29.5q-27 10 -39.5 30.5t-12.5 47.5q0 49 39.5 77.5t117.5 28.5t117 -28t39 -78q0 -30 -15.5 -49t-43.5 -29q31 -8 48.5 -28.5t17.5 -51.5zM209 532q38 0 54.5 11.5t16.5 32.5q0 20 -16.5 31
t-54.5 11q-36 0 -54 -11.5t-18 -30.5q0 -22 18 -33t54 -11zM209 469q-37 0 -57 -12t-20 -34t19.5 -34t57.5 -12q37 0 56.5 12.5t19.5 34.5t-19.5 33.5t-56.5 11.5z" />
    <glyph glyph-name="nine.numr" 
d="M199 311q-60 0 -100 23t-54 72l82 17q8 -20 27 -30.5t46 -10.5q42 0 62 26t21 77q-14 -16 -37.5 -26.5t-58.5 -10.5q-64 0 -104 28.5t-40 85.5q0 56 41.5 89.5t114.5 33.5q80 0 123.5 -43.5t43.5 -136.5q0 -100 -43 -147t-124 -47zM200 513q33 0 51.5 13.5t18.5 37.5
q0 25 -18.5 37.5t-51.5 12.5q-32 0 -51 -12.5t-19 -37.5q0 -24 18.5 -37.5t51.5 -13.5z" />
    <glyph glyph-name="uni2460" unicode="&#x2460;" horiz-adv-x="830" 
d="M415 718q82 0 152 -28t120 -78t78 -120t28 -152t-28 -151.5t-78 -119.5t-120 -78.5t-152 -28.5t-152 28.5t-120 78.5t-78 119.5t-28 151.5t28 152t78 120t120 78t152 28zM415 652q-67 0 -123.5 -23.5t-97 -65t-63 -99t-22.5 -124.5q0 -66 22.5 -123.5t63 -99t97 -65.5
t123.5 -24t123.5 24t97 65.5t63 99t22.5 123.5q0 67 -22.5 124.5t-63 99t-97 65t-123.5 23.5zM268 137v79h118v262l-103 -61l-42 66l138 90h97v-357h103v-79h-311z" />
    <glyph glyph-name="uni2461" unicode="&#x2461;" horiz-adv-x="830" 
d="M415 718q82 0 152 -28t120 -78t78 -120t28 -152t-28 -151.5t-78 -119.5t-120 -78.5t-152 -28.5t-152 28.5t-120 78.5t-78 119.5t-28 151.5t28 152t78 120t120 78t152 28zM415 652q-67 0 -123.5 -23.5t-97 -65t-63 -99t-22.5 -124.5q0 -66 22.5 -123.5t63 -99t97 -65.5
t123.5 -24t123.5 24t97 65.5t63 99t22.5 123.5q0 67 -22.5 124.5t-63 99t-97 65t-123.5 23.5zM489 438q0 27 -18.5 43.5t-50.5 16.5q-35 0 -58 -19.5t-30 -52.5l-87 17q10 59 54 97.5t122 38.5q75 0 117.5 -37.5t42.5 -97.5q0 -51 -25 -85t-79 -73l-102 -71h210v-80h-336v82
l167 122q37 28 55 49.5t18 49.5z" />
    <glyph glyph-name="uni2462" unicode="&#x2462;" horiz-adv-x="830" 
d="M415 718q82 0 152 -28t120 -78t78 -120t28 -152t-28 -151.5t-78 -119.5t-120 -78.5t-152 -28.5t-152 28.5t-120 78.5t-78 119.5t-28 151.5t28 152t78 120t120 78t152 28zM415 652q-67 0 -123.5 -23.5t-97 -65t-63 -99t-22.5 -124.5q0 -66 22.5 -123.5t63 -99t97 -65.5
t123.5 -24t123.5 24t97 65.5t63 99t22.5 123.5q0 67 -22.5 124.5t-63 99t-97 65t-123.5 23.5zM597 255q0 -69 -47 -108t-133 -39q-76 0 -123 33t-60 93l88 19q8 -30 31.5 -46t68.5 -16q40 0 62 17t22 44q0 29 -22 43.5t-65 14.5q-16 0 -33 -1.5t-31 -5.5l-25 68l142 103
h-217v78h324v-88l-129 -93q72 1 109.5 -30t37.5 -86z" />
    <glyph glyph-name="uni2463" unicode="&#x2463;" horiz-adv-x="830" 
d="M415 718q82 0 152 -28t120 -78t78 -120t28 -152t-28 -151.5t-78 -119.5t-120 -78.5t-152 -28.5t-152 28.5t-120 78.5t-78 119.5t-28 151.5t28 152t78 120t120 78t152 28zM415 652q-67 0 -123.5 -23.5t-97 -65t-63 -99t-22.5 -124.5q0 -66 22.5 -123.5t63 -99t97 -65.5
t123.5 -24t123.5 24t97 65.5t63 99t22.5 123.5q0 67 -22.5 124.5t-63 99t-97 65t-123.5 23.5zM538 128h-93v91h-245v86l201 259h137v-267h55v-78h-55v-91zM296 297h149v193z" />
    <glyph glyph-name="uni2464" unicode="&#x2464;" horiz-adv-x="830" 
d="M415 718q82 0 152 -28t120 -78t78 -120t28 -152t-28 -151.5t-78 -119.5t-120 -78.5t-152 -28.5t-152 28.5t-120 78.5t-78 119.5t-28 151.5t28 152t78 120t120 78t152 28zM415 652q-67 0 -123.5 -23.5t-97 -65t-63 -99t-22.5 -124.5q0 -66 22.5 -123.5t63 -99t97 -65.5
t123.5 -24t123.5 24t97 65.5t63 99t22.5 123.5q0 67 -22.5 124.5t-63 99t-97 65t-123.5 23.5zM418 116q-77 0 -125 31.5t-59 90.5l90 18q9 -28 33 -44t61 -16q40 0 61.5 18t21.5 49q0 34 -21.5 51t-61.5 17q-24 0 -44.5 -7t-33.5 -17l-89 27l21 226h295v-82h-218l-9 -92
q19 9 44 15t55 6q63 0 109 -32.5t46 -107.5q0 -70 -46 -110.5t-130 -40.5z" />
    <glyph glyph-name="uni2465" unicode="&#x2465;" horiz-adv-x="830" 
d="M415 718q82 0 152 -28t120 -78t78 -120t28 -152t-28 -151.5t-78 -119.5t-120 -78.5t-152 -28.5t-152 28.5t-120 78.5t-78 119.5t-28 151.5t28 152t78 120t120 78t152 28zM415 652q-67 0 -123.5 -23.5t-97 -65t-63 -99t-22.5 -124.5q0 -66 22.5 -123.5t63 -99t97 -65.5
t123.5 -24t123.5 24t97 65.5t63 99t22.5 123.5q0 67 -22.5 124.5t-63 99t-97 65t-123.5 23.5zM418 118q-93 0 -143 54t-50 164q0 116 52 175t142 59q75 0 117.5 -29t57.5 -83l-90 -19q-7 23 -27 36t-58 13q-46 0 -74 -31t-28 -97q18 17 47 29.5t71 12.5q66 0 114 -33.5
t48 -101.5q0 -67 -47.5 -108t-131.5 -41zM417 321q-38 0 -62 -15.5t-24 -43.5q0 -31 22.5 -46.5t63.5 -15.5q38 0 61 15.5t23 46.5q0 28 -21 43.5t-63 15.5z" />
    <glyph glyph-name="uni2466" unicode="&#x2466;" horiz-adv-x="830" 
d="M415 718q82 0 152 -28t120 -78t78 -120t28 -152t-28 -151.5t-78 -119.5t-120 -78.5t-152 -28.5t-152 28.5t-120 78.5t-78 119.5t-28 151.5t28 152t78 120t120 78t152 28zM415 652q-67 0 -123.5 -23.5t-97 -65t-63 -99t-22.5 -124.5q0 -66 22.5 -123.5t63 -99t97 -65.5
t123.5 -24t123.5 24t97 65.5t63 99t22.5 123.5q0 67 -22.5 124.5t-63 99t-97 65t-123.5 23.5zM295 115l201 344h-248v87h343v-93l-191 -338h-105z" />
    <glyph glyph-name="uni2467" unicode="&#x2467;" horiz-adv-x="830" 
d="M415 718q82 0 152 -28t120 -78t78 -120t28 -152t-28 -151.5t-78 -119.5t-120 -78.5t-152 -28.5t-152 28.5t-120 78.5t-78 119.5t-28 151.5t28 152t78 120t120 78t152 28zM415 652q-67 0 -123.5 -23.5t-97 -65t-63 -99t-22.5 -124.5q0 -66 22.5 -123.5t63 -99t97 -65.5
t123.5 -24t123.5 24t97 65.5t63 99t22.5 123.5q0 67 -22.5 124.5t-63 99t-97 65t-123.5 23.5zM415 569q91 0 135.5 -34t44.5 -92q0 -37 -17.5 -59.5t-48.5 -35.5q34 -10 53.5 -35t19.5 -62q0 -59 -48 -96.5t-138 -37.5q-91 0 -140 37t-49 96q0 37 18.5 62.5t53.5 35.5
q-31 12 -47.5 36.5t-16.5 57.5q0 57 46.5 92t133.5 35zM416 490q-43 0 -66 -13.5t-23 -38.5q0 -27 23.5 -40.5t65.5 -13.5q41 0 63.5 13.5t22.5 40.5q0 25 -22 38.5t-64 13.5zM416 309q-46 0 -71 -13.5t-25 -41.5q0 -30 24.5 -44t71.5 -14q44 0 68.5 14t24.5 44
q0 28 -25.5 41.5t-67.5 13.5z" />
    <glyph glyph-name="uni2468" unicode="&#x2468;" horiz-adv-x="830" 
d="M415 718q82 0 152 -28t120 -78t78 -120t28 -152t-28 -151.5t-78 -119.5t-120 -78.5t-152 -28.5t-152 28.5t-120 78.5t-78 119.5t-28 151.5t28 152t78 120t120 78t152 28zM415 652q-67 0 -123.5 -23.5t-97 -65t-63 -99t-22.5 -124.5q0 -66 22.5 -123.5t63 -99t97 -65.5
t123.5 -24t123.5 24t97 65.5t63 99t22.5 123.5q0 67 -22.5 124.5t-63 99t-97 65t-123.5 23.5zM414 568q93 0 142.5 -54t49.5 -164q0 -116 -52 -175t-142 -59q-75 0 -117.5 29t-56.5 83l89 19q7 -23 27 -36t58 -13q47 0 75 31t28 97q-18 -17 -47.5 -29.5t-70.5 -12.5
q-66 0 -114 33.5t-48 101.5q0 67 47.5 108t131.5 41zM414 365q38 0 62.5 15t24.5 44q0 31 -23.5 46.5t-63.5 15.5q-38 0 -60.5 -15.5t-22.5 -46.5q0 -28 20.5 -43.5t62.5 -15.5z" />
    <glyph glyph-name="uni2469" unicode="&#x2469;" horiz-adv-x="830" 
d="M415 718q82 0 152 -28t120 -78t78 -120t28 -152t-28 -151.5t-78 -119.5t-120 -78.5t-152 -28.5t-152 28.5t-120 78.5t-78 119.5t-28 151.5t28 152t78 120t120 78t152 28zM414 652q-67 0 -123 -23.5t-96.5 -65t-63 -99t-22.5 -124.5q0 -66 22.5 -123.5t63 -99t97 -65.5
t123.5 -24t123.5 24t97 65.5t63 99t22.5 123.5q0 67 -23 124.5t-63.5 99t-97 65t-123.5 23.5zM509 565q61 0 98 -49t37 -176q0 -128 -37 -176.5t-98 -48.5q-60 0 -97 48.5t-37 176.5q0 127 37 176t97 49zM331 122h-79v349l-47 -30l-36 54l87 63h75v-436zM509 192
q12 0 21.5 6t16.5 22t10.5 45t3.5 75t-3.5 75t-10.5 45t-16.5 22t-21.5 6t-21.5 -6t-16 -22t-10 -45t-3.5 -75t3.5 -75t10 -45t16 -22t21.5 -6z" />
    <glyph glyph-name="uni24EA" unicode="&#x24ea;" horiz-adv-x="830" 
d="M415 718q82 0 152 -28t120 -78t78 -120t28 -152t-28 -151.5t-78 -119.5t-120 -78.5t-152 -28.5t-152 28.5t-120 78.5t-78 119.5t-28 151.5t28 152t78 120t120 78t152 28zM415 652q-67 0 -123.5 -23.5t-97 -65t-63 -99t-22.5 -124.5q0 -66 22.5 -123.5t63 -99t97 -65.5
t123.5 -24t123.5 24t97 65.5t63 99t22.5 123.5q0 67 -22.5 124.5t-63 99t-97 65t-123.5 23.5zM415 116q-89 0 -139.5 57t-50.5 169q0 110 50.5 168t139.5 58q90 0 140 -58t50 -168q0 -112 -50 -169t-140 -57zM415 197q45 0 70.5 33t25.5 112t-25.5 112t-70.5 33
q-43 0 -69.5 -33t-26.5 -112t26.5 -112t69.5 -33z" />
    <glyph glyph-name="uni24FF" unicode="&#x24ff;" horiz-adv-x="830" 
d="M415 718q82 0 152 -28t120 -78t78 -120t28 -152t-28 -151.5t-78 -119.5t-120 -78.5t-152 -28.5t-152 28.5t-120 78.5t-78 119.5t-28 151.5t28 152t78 120t120 78t152 28zM415 116q90 0 140 57t50 169q0 110 -50 168t-140 58q-89 0 -139.5 -58t-50.5 -168
q0 -112 50.5 -169t139.5 -57zM415 197q-43 0 -69.5 33t-26.5 112t26.5 112t69.5 33q45 0 70.5 -33t25.5 -112t-25.5 -112t-70.5 -33z" />
    <glyph glyph-name="uni2776" unicode="&#x2776;" horiz-adv-x="830" 
d="M415 718q82 0 152 -28t120 -78t78 -120t28 -152t-28 -151.5t-78 -119.5t-120 -78.5t-152 -28.5t-152 28.5t-120 78.5t-78 119.5t-28 151.5t28 152t78 120t120 78t152 28zM269 137h311v80h-103v356h-97l-138 -90l42 -66l103 62v-262h-118v-80z" />
    <glyph glyph-name="uni2777" unicode="&#x2777;" horiz-adv-x="830" 
d="M415 718q82 0 152 -28t120 -78t78 -120t28 -152t-28 -151.5t-78 -119.5t-120 -78.5t-152 -28.5t-152 28.5t-120 78.5t-78 119.5t-28 151.5t28 152t78 120t120 78t152 28zM489 438q0 -28 -18 -49.5t-55 -49.5l-167 -122v-82h336v80h-209l102 71q54 39 78.5 73t24.5 85
q0 60 -42.5 97.5t-117.5 37.5q-78 0 -122 -38.5t-54 -97.5l87 -17q7 33 30 52.5t58 19.5q32 0 50.5 -16.5t18.5 -43.5z" />
    <glyph glyph-name="uni2778" unicode="&#x2778;" horiz-adv-x="830" 
d="M415 718q82 0 152 -28t120 -78t78 -120t28 -152t-28 -151.5t-78 -119.5t-120 -78.5t-152 -28.5t-152 28.5t-120 78.5t-78 119.5t-28 151.5t28 152t78 120t120 78t152 28zM599 256q0 55 -38 85t-110 29l129 94v88h-324v-77h221l-145 -107l24 -66q15 4 31.5 6t32.5 2
q43 0 65.5 -14t22.5 -44q0 -27 -22.5 -43.5t-62.5 -16.5q-45 0 -68.5 16t-32.5 45l-88 -19q13 -60 60.5 -93t123.5 -33q86 0 133.5 39.5t47.5 108.5z" />
    <glyph glyph-name="uni2779" unicode="&#x2779;" horiz-adv-x="830" 
d="M415 718q82 0 152 -28t120 -78t78 -120t28 -152t-28 -151.5t-78 -119.5t-120 -78.5t-152 -28.5t-152 28.5t-120 78.5t-78 119.5t-28 151.5t28 152t78 120t120 78t152 28zM538 128v91h55v78h-55v267h-137l-201 -259v-86h246v-91h92zM298 297l148 193v-193h-148z" />
    <glyph glyph-name="uni277A" unicode="&#x277a;" horiz-adv-x="830" 
d="M415 718q82 0 152 -28t120 -78t78 -120t28 -152t-28 -151.5t-78 -119.5t-120 -78.5t-152 -28.5t-152 28.5t-120 78.5t-78 119.5t-28 151.5t28 152t78 120t120 78t152 28zM418 116q84 0 130 40.5t46 110.5q0 75 -46 107.5t-109 32.5q-30 0 -55 -6t-44 -15l9 92h218v82
h-295l-21 -226l89 -27q13 10 33.5 17t44.5 7q40 0 61.5 -17t21.5 -51q0 -31 -21.5 -49t-61.5 -18q-37 0 -61 16t-33 44l-90 -18q11 -59 59 -90.5t125 -31.5z" />
    <glyph glyph-name="uni277B" unicode="&#x277b;" horiz-adv-x="830" 
d="M415 718q82 0 152 -28t120 -78t78 -120t28 -152t-28 -151.5t-78 -119.5t-120 -78.5t-152 -28.5t-152 28.5t-120 78.5t-78 119.5t-28 151.5t28 152t78 120t120 78t152 28zM418 118q84 0 131.5 41t47.5 108q0 68 -48 101.5t-114 33.5q-42 0 -71 -12.5t-47 -29.5q0 66 28 97
t74 31q38 0 58 -13t27 -36l90 19q-15 54 -57.5 83t-117.5 29q-90 0 -142 -59t-52 -175q0 -110 50 -164t143 -54zM417 321q42 0 63.5 -15.5t21.5 -43.5q0 -30 -23.5 -46.5t-61.5 -16.5q-41 0 -64 16t-23 47q0 28 24.5 43.5t62.5 15.5z" />
    <glyph glyph-name="uni277C" unicode="&#x277c;" horiz-adv-x="830" 
d="M415 718q82 0 152 -28t120 -78t78 -120t28 -152t-28 -151.5t-78 -119.5t-120 -78.5t-152 -28.5t-152 28.5t-120 78.5t-78 119.5t-28 151.5t28 152t78 120t120 78t152 28zM295 115h105l191 338v93h-343v-87h248z" />
    <glyph glyph-name="uni277D" unicode="&#x277d;" horiz-adv-x="830" 
d="M415 718q82 0 152 -28t120 -78t78 -120t28 -152t-28 -151.5t-78 -119.5t-120 -78.5t-152 -28.5t-152 28.5t-120 78.5t-78 119.5t-28 151.5t28 152t78 120t120 78t152 28zM415 569q-87 0 -133.5 -35t-46.5 -92q0 -32 16.5 -57.5t47.5 -36.5q-35 -10 -53.5 -35t-18.5 -62
q0 -60 49 -97t140 -37q90 0 137.5 38t47.5 97q0 37 -19 61.5t-53 34.5q31 13 48.5 36.5t17.5 58.5q0 58 -44 92t-136 34zM416 493q42 0 64.5 -14t22.5 -39q0 -27 -23 -41t-64 -14q-42 0 -66 14t-24 41q0 25 23.5 39t66.5 14zM416 193q-47 0 -72 15t-25 45q0 28 25.5 41.5
t71.5 13.5q42 0 67.5 -13.5t25.5 -41.5q0 -30 -24.5 -45t-68.5 -15z" />
    <glyph glyph-name="uni277E" unicode="&#x277e;" horiz-adv-x="830" 
d="M415 718q82 0 152 -28t120 -78t78 -120t28 -152t-28 -151.5t-78 -119.5t-120 -78.5t-152 -28.5t-152 28.5t-120 78.5t-78 119.5t-28 151.5t28 152t78 120t120 78t152 28zM414 568q-84 0 -131.5 -41t-47.5 -108q0 -68 48 -101.5t114 -33.5q41 0 70.5 12.5t47.5 29.5
q0 -66 -28 -97t-75 -31q-38 0 -58 13t-27 36l-89 -19q14 -54 56.5 -83t117.5 -29q90 0 142 59t52 175q0 110 -49.5 164t-142.5 54zM414 365q-42 0 -63 15.5t-21 43.5q0 31 23 47t61 16q40 0 63.5 -16t23.5 -47q0 -29 -24.5 -44t-62.5 -15z" />
    <glyph glyph-name="uni277F" unicode="&#x277f;" horiz-adv-x="830" 
d="M415 718q82 0 152 -28t120 -78t78 -120t28 -152t-28 -151.5t-78 -119.5t-120 -78.5t-152 -28.5t-152 28.5t-120 78.5t-78 119.5t-28 151.5t28 152t78 120t120 78t152 28zM510 565q-61 0 -98 -49t-37 -176q0 -128 37 -176.5t98 -48.5q62 0 98.5 48.5t36.5 176.5
q0 127 -36.5 176t-98.5 49zM328 122v436h-76l-84 -59l32 -62l49 30v-345h79zM510 194q-25 0 -39.5 28.5t-14.5 117.5t14.5 117.5t39.5 28.5t39 -28.5t14 -117.5t-14 -117.5t-39 -28.5z" />
    <glyph glyph-name="uni2206" unicode="&#x2206;" horiz-adv-x="710" 
d="M432 680l242 -578v-102h-638v102l239 578h157zM163 108h375l-188 473z" />
    <glyph glyph-name="uni0394" unicode="&#x394;" horiz-adv-x="702" 
d="M432 680l242 -578v-102h-638v102l239 578h157zM163 108h375l-188 473z" />
    <glyph glyph-name="Sigma" unicode="&#x3a3;" horiz-adv-x="672" 
d="M444 303l-225 -197h404v-106h-560v105l271 240l-263 226v109h537v-106h-379l215 -185v-86z" />
    <glyph glyph-name="uniA7B6" unicode="&#xa7b6;" horiz-adv-x="852" 
d="M229 356q0 -39 11 -77t32 -70.5t52 -56.5t71 -36v-116h-294v96h140q-60 37 -98 103.5t-38 159.5q0 74 24.5 135.5t69 104.5t107 67t137.5 24q76 0 138 -23t104.5 -65.5t66 -103t23.5 -134.5q0 -94 -40 -160t-104 -108h150v-96h-294v115q40 12 71 37t51.5 57.5t31.5 71
t11 76.5q0 104 -55.5 164.5t-152.5 60.5q-95 0 -155 -60.5t-60 -165.5z" />
    <glyph glyph-name="uni03BC" unicode="&#x3bc;" horiz-adv-x="576" 
d="M67 -188v672h115v-300q0 -43 24 -68.5t74 -25.5q48 0 80.5 28t32.5 74v292h115v-484h-110v62q-24 -32 -64 -52t-85 -20q-22 0 -43 4.5t-39 11.5l10 -194h-110z" />
    <glyph glyph-name="pi" unicode="&#x3c0;" horiz-adv-x="608" 
d="M100 0v381h-70v103h543v-103h-76v-204q0 -45 13.5 -59.5t48.5 -14.5h14v-103h-57q-68 0 -101 34t-33 112v235h-165v-381h-117z" />
    <glyph glyph-name="uni04100301" horiz-adv-x="710" 
d="M433 680l257 -680h-130l-63 172h-288l-61 -172h-128l255 680h158zM249 282h208l-105 289zM387 876h133l-115 -136h-111z" />
    <glyph glyph-name="uni04150301" horiz-adv-x="627" 
d="M80 0v680h485v-108h-363v-177h349v-105h-349v-182h360v-108h-482zM332 876h133l-115 -136h-111z" />
    <glyph glyph-name="uni04180301" horiz-adv-x="752" 
d="M551 0v516l-342 -516h-129v680h121v-512l337 512h134v-680h-121zM401 876h133l-115 -136h-111z" />
    <glyph glyph-name="uni041E0301" horiz-adv-x="770" 
d="M385 -10q-74 0 -135.5 22.5t-105.5 66.5t-68.5 109.5t-24.5 151.5q0 84 24.5 150t68.5 110t105.5 67t135.5 23q75 0 137 -23t105.5 -67t68 -110t24.5 -150q0 -86 -24.5 -151.5t-68 -109.5t-105.5 -66.5t-137 -22.5zM385 99q101 0 156 65.5t55 175.5q0 111 -55 176
t-156 65q-100 0 -155.5 -65t-55.5 -176q0 -110 55.5 -175.5t155.5 -65.5zM406 876h133l-115 -136h-111z" />
    <glyph glyph-name="uni04230301" horiz-adv-x="642" 
d="M398 154q-37 -81 -82 -117.5t-134 -36.5h-74v112h60q40 0 64.5 11t41.5 36l-263 521h137l189 -394l173 394h126zM352 876h133l-115 -136h-111z" />
    <glyph glyph-name="uni042B0301" horiz-adv-x="896" 
d="M80 680h122v-244h153q119 0 183.5 -53t64.5 -168q0 -107 -64.5 -161t-175.5 -54h-283v680zM694 0v680h122v-680h-122zM353 108q68 0 97 25.5t29 84.5q0 55 -29.5 82.5t-96.5 27.5h-151v-220h151zM464 866h133l-115 -136h-111z" />
    <glyph glyph-name="uni042D0301" horiz-adv-x="723" 
d="M47 211l120 20q13 -57 59.5 -94.5t126.5 -37.5q84 0 134 48.5t60 141.5h-278v106h278q-10 94 -58 140t-131 46q-74 0 -122 -35.5t-67 -95.5l-119 20q28 107 111 163.5t196 56.5q71 0 129 -21t99.5 -64t64 -108t22.5 -153q0 -176 -86 -265t-235 -89q-123 0 -203.5 56
t-100.5 165zM375 876h133l-115 -136h-111z" />
    <glyph glyph-name="uni042E0301" horiz-adv-x="1029" 
d="M647 -10q-135 0 -223.5 74.5t-103.5 218.5h-118v-283h-122v680h122v-283h118q16 142 104 217.5t223 75.5q74 0 135.5 -23t105 -67t67.5 -110t24 -150q0 -86 -24 -151.5t-67.5 -109.5t-105 -66.5t-135.5 -22.5zM647 100q99 0 154 65t55 175q0 111 -55 175.5t-154 64.5
q-100 0 -153.5 -64.5t-53.5 -175.5q0 -110 53.5 -175t153.5 -65zM534 876h133l-115 -136h-111z" />
    <glyph glyph-name="uni042F0301" horiz-adv-x="684" 
d="M604 0h-122v244h-150l-153 -244h-139l166 258q-68 21 -104 72.5t-36 134.5q0 107 64 161t176 54h298v-680zM315 572q-66 0 -95.5 -26.5t-29.5 -83.5q0 -55 29 -82.5t96 -27.5h167v220h-167zM369 876h133l-115 -136h-111z" />
    <glyph glyph-name="uni04300301" horiz-adv-x="529" 
d="M359 0v55q-23 -31 -60.5 -48t-85.5 -17q-73 0 -120 38t-47 106q0 75 49.5 109.5t133.5 38.5q34 2 65 1.5t60 -1.5v38q0 42 -25 61t-65 19t-63 -20t-33 -54l-106 18q13 65 65 107.5t139 42.5q86 0 143 -39.5t57 -135.5v-319h-107zM354 205q-24 1 -53 0.5t-57 -1.5
q-39 -1 -61.5 -17t-22.5 -46t21 -46.5t56 -16.5q51 0 84 24.5t33 64.5v38zM285 682h127l-112 -138h-104z" />
    <glyph glyph-name="uni04350301" horiz-adv-x="524" 
d="M488 218h-339q4 -66 37 -100.5t86 -34.5q50 0 76 23t34 49l103 -19q-16 -60 -68.5 -103t-146.5 -43q-109 0 -171.5 67t-62.5 185q0 61 18.5 108.5t50 79t74 48t91.5 16.5q104 0 161 -65.5t57 -177.5v-33zM270 401q-44 0 -76.5 -26.5t-42.5 -77.5h227q-4 48 -30.5 76
t-77.5 28zM284 682h127l-112 -138h-104z" />
    <glyph glyph-name="uni04380301" horiz-adv-x="574" 
d="M184 0h-117v484h111v-333l208 333h121v-484h-112v335zM313 682h127l-112 -138h-104z" />
    <glyph glyph-name="uni043E0301" horiz-adv-x="552" 
d="M277 -10q-107 0 -173 67t-66 186t65.5 185t173.5 66q109 0 173.5 -66t64.5 -185q0 -118 -64.5 -185.5t-173.5 -67.5zM277 87q60 0 92 40.5t32 115.5t-32 114.5t-92 39.5q-58 0 -91.5 -39.5t-33.5 -114.5t34 -115.5t91 -40.5zM295 682h127l-112 -138h-104z" />
    <glyph glyph-name="uni04430301" horiz-adv-x="524" 
d="M319 -43q-32 -87 -73.5 -119t-116.5 -32h-57v102h42q33 0 55.5 12.5t35.5 45.5l11 26l-203 492h127l136 -353l120 353h120zM286 682h127l-112 -138h-104z" />
    <glyph glyph-name="uni044B0301" horiz-adv-x="714" 
d="M532 0v484h115v-484h-115zM67 0v484h115v-150h114q84 0 129.5 -41t45.5 -122q0 -82 -44.5 -126.5t-132.5 -44.5h-227zM275 239h-93v-144h93q49 0 68 19t19 56t-19.5 53t-67.5 16zM379 672h127l-112 -138h-104z" />
    <glyph glyph-name="uni044D0301" horiz-adv-x="526" 
d="M36 156l104 14q9 -38 38 -62.5t80 -24.5t81 29.5t37 86.5h-176v87h176q-7 54 -36.5 84t-79.5 30q-49 0 -77 -23.5t-40 -63.5l-102 21q17 73 74 116.5t146 43.5q104 0 165.5 -63t61.5 -187q0 -121 -61 -187.5t-168 -66.5q-97 0 -153 43.5t-70 122.5zM274 682h127
l-112 -138h-104z" />
    <glyph glyph-name="uni044E0301" horiz-adv-x="776" 
d="M67 0v484h115v-190h85q14 96 76 148t158 52q108 0 172.5 -66t64.5 -185q0 -118 -64.5 -185.5t-172.5 -67.5q-96 0 -158.5 54.5t-75.5 152.5h-85v-197h-115zM501 87q59 0 91 40.5t32 115.5t-32 114.5t-91 39.5q-58 0 -92 -39.5t-34 -114.5t34.5 -115.5t91.5 -40.5z
M407 682h127l-112 -138h-104z" />
    <glyph glyph-name="uni044F0301" horiz-adv-x="535" 
d="M46 324q0 77 49 118.5t136 41.5h237v-484h-115v168h-84l-104 -168h-128l117 177q-52 14 -80 51.5t-28 95.5zM245 259h108v132h-108q-41 0 -62.5 -17t-21.5 -49t21.5 -49t62.5 -17zM285 682h127l-112 -138h-104z" />
    <glyph glyph-name="acute" unicode="&#xb4;" horiz-adv-x="298" 
d="M125 682h127l-112 -138h-104z" />
    <glyph glyph-name="grave" unicode="`" horiz-adv-x="298" 
d="M173 682h-127l112 -138h104z" />
    <glyph glyph-name="hungarumlaut" unicode="&#x2dd;" horiz-adv-x="463" 
d="M136 682h114l-115 -138h-97zM308 682h117l-131 -138h-99z" />
    <glyph glyph-name="circumflex" unicode="&#x2c6;" horiz-adv-x="419" 
d="M149 682h121l108 -138h-102l-66 83l-67 -83h-101z" />
    <glyph glyph-name="caron" unicode="&#x2c7;" horiz-adv-x="419" 
d="M149 544l-107 138h102l65 -80l65 80h103l-107 -138h-121z" />
    <glyph glyph-name="caron.alt" horiz-adv-x="211" 
d="M69 690h107l-63 -196h-77z" />
    <glyph glyph-name="breve" unicode="&#x2d8;" horiz-adv-x="390" 
d="M196 536q-75 0 -110.5 38t-39.5 97h88q3 -27 17 -44t45 -17q30 0 43 17t16 44h89q-4 -59 -39 -97t-109 -38z" />
    <glyph glyph-name="tilde" unicode="&#x2dc;" horiz-adv-x="372" 
d="M35 550v14q0 49 23 81t66 32q19 0 35 -7t29 -15.5t24.5 -15.5t22.5 -7q13 0 19.5 9.5t6.5 25.5v11h76v-17q0 -47 -20.5 -78.5t-62.5 -31.5q-20 0 -37 7t-31 15t-26 15t-22 7q-13 0 -20 -10.5t-7 -26.5v-8h-76z" />
    <glyph glyph-name="macron" unicode="&#xaf;" horiz-adv-x="368" 
d="M318 577h-268v85h268v-85z" />
    <glyph glyph-name="dieresis" unicode="&#xa8;" horiz-adv-x="393" 
d="M43 562v111h112v-111h-112zM237 562v111h113v-111h-113z" />
    <glyph glyph-name="dotaccent" unicode="&#x2d9;" horiz-adv-x="202" 
d="M40 562v112h122v-112h-122z" />
    <glyph glyph-name="ring" unicode="&#x2da;" horiz-adv-x="279" 
d="M139 524q-44 0 -73.5 28t-29.5 74q0 45 29.5 73.5t73.5 28.5q45 0 74.5 -28.5t29.5 -73.5q0 -46 -29.5 -74t-74.5 -28zM139 584q19 0 30.5 12t11.5 30q0 17 -11.5 29.5t-30.5 12.5t-30.5 -12.5t-11.5 -29.5q0 -18 11.5 -30t30.5 -12z" />
    <glyph glyph-name="uniF6D4" unicode="&#xf6d4;" horiz-adv-x="398" 
d="M200 526q-87 0 -123 40.5t-37 103.5h91q2 -34 18.5 -52t50.5 -18t49 18t17 52h92q-1 -63 -36.5 -103.5t-121.5 -40.5z" />
    <glyph glyph-name="acutecomb" unicode="&#x301;" horiz-adv-x="0" 
d="M-255 682h127l-112 -138h-104z" />
    <glyph glyph-name="uniF6C3" unicode="&#xf6c3;" horiz-adv-x="245" 
d="M66 -145v97h119v-72q0 -60 -26 -94t-89 -44l-11 53q33 6 49 22t18 38h-60z" />
    <glyph glyph-name="dotbelowcmb" unicode="&#x323;" horiz-adv-x="202" 
d="M40 -160v112h122v-112h-122z" />
    <glyph glyph-name="cedilla" unicode="&#xb8;" horiz-adv-x="323" 
d="M164 -213q-55 0 -86.5 18.5t-38.5 58.5l73 16q5 -16 17.5 -24.5t34.5 -8.5q21 0 32.5 7.5t11.5 23.5q0 18 -17 24.5t-54 4.5l-27 -1v48l42 49h74l-37 -42q49 -1 74.5 -20t25.5 -61t-33 -67.5t-92 -25.5z" />
    <glyph glyph-name="ogonek" unicode="&#x2db;" horiz-adv-x="291" 
d="M173 -201q-49 0 -84.5 23t-35.5 70q0 34 22 61.5t57 46.5h99q-30 -13 -52 -35.5t-22 -44.5q0 -19 12.5 -28t32.5 -9q11 0 20 1t15 2l5 -77q-11 -4 -29.5 -7t-39.5 -3z" />
    <glyph glyph-name="acute.cap" horiz-adv-x="281" 
d="M121 876h133l-115 -136h-111z" />
    <glyph glyph-name="grave.cap" horiz-adv-x="333" 
d="M186 876l94 -136h-112l-115 136h133z" />
    <glyph glyph-name="hungarumlaut.cap" horiz-adv-x="480" 
d="M126 876h127l-117 -136h-105zM319 876h130l-135 -136h-112z" />
    <glyph glyph-name="circumflex.cap" horiz-adv-x="440" 
d="M158 876h124l118 -136h-116l-64 75l-64 -75h-116z" />
    <glyph glyph-name="caron.cap" horiz-adv-x="407" 
d="M142 740l-117 136h115l64 -75l63 75h116l-117 -136h-124z" />
    <glyph glyph-name="breve.cap" horiz-adv-x="370" 
d="M186 739q-77 0 -112.5 38t-39.5 98h87q4 -27 19 -44.5t46 -17.5t45 17t18 45h88q-4 -60 -39.5 -98t-111.5 -38z" />
    <glyph glyph-name="tilde.cap" horiz-adv-x="391" 
d="M42 745v16q0 51 24.5 82t64.5 31q21 0 37.5 -7.5t29.5 -16t24.5 -16t23.5 -7.5q14 0 20 10t6 26v11h77v-16q0 -50 -21.5 -81.5t-63.5 -31.5q-21 0 -38 7.5t-31 16t-26 16t-22 7.5q-15 0 -21.5 -11t-6.5 -26v-10h-77z" />
    <glyph glyph-name="macron.cap" horiz-adv-x="378" 
d="M336 763h-294v85h294v-85z" />
    <glyph glyph-name="dieresis.cap" horiz-adv-x="406" 
d="M51 756v109h111v-109h-111zM245 756v109h111v-109h-111z" />
    <glyph glyph-name="dotaccent.cap" horiz-adv-x="190" 
d="M33 752v113h124v-113h-124z" />
    <glyph glyph-name="ring.cap" horiz-adv-x="350" 
d="M175 694q-56 0 -94.5 36t-38.5 93t38 92.5t95 35.5t94.5 -35.5t37.5 -92.5t-37.5 -93t-94.5 -36zM175 763q28 0 44 17.5t16 42.5t-16 42t-44 17q-27 0 -43.5 -17t-16.5 -42t16.5 -42.5t43.5 -17.5z" />
    <glyph glyph-name="Cyrbreve" horiz-adv-x="420" 
d="M30 873h100q3 -34 20.5 -53.5t59.5 -19.5q43 0 60 19.5t19 53.5h101q-2 -75 -45 -114t-135 -39q-91 0 -135 39t-45 114z" />
    </font>
</defs>
</svg>
