<?xml version="1.0" standalone="no"?>
<!DOCTYPE svg PUBLIC "-//W3C//DTD SVG 1.1//EN" "http://www.w3.org/Graphics/SVG/1.1/DTD/svg11.dtd" >
<svg xmlns="http://www.w3.org/2000/svg" xmlns:xlink="http://www.w3.org/1999/xlink" version="1.1">
<metadata>
Created by FontForge 20170910 at Mon Aug 13 12:37:44 2018
 By Jimmy Wärting
(c) Copyright (c) 2018 LLC Contrast Foundry (LLC CoFo). All rights reserved.
</metadata>
<defs>
<font id="CoFoSans-Regular" horiz-adv-x="650" >
  <font-face 
    font-family="CoFo Sans"
    font-weight="400"
    font-stretch="normal"
    units-per-em="1000"
    panose-1="2 11 5 3 3 2 2 6 2 3"
    ascent="800"
    descent="-200"
    x-height="476"
    cap-height="680"
    bbox="-320 -259 1263 936"
    underline-thickness="0"
    underline-position="0"
    unicode-range="U+0020-F8FF"
  />
<missing-glyph horiz-adv-x="808" 
d="M100 -194v874h608v-874h-608zM156 -136h496v763h-496v-763zM563 -71l-155 264l-155 -265l-50 29l171 293l-170 289l50 30l154 -262l152 260l50 -29l-169 -288l171 -290z" />
    <glyph glyph-name=".notdef" horiz-adv-x="808" 
d="M100 -194v874h608v-874h-608zM156 -136h496v763h-496v-763zM563 -71l-155 264l-155 -265l-50 29l171 293l-170 289l50 30l154 -262l152 260l50 -29l-169 -288l171 -290z" />
    <glyph glyph-name="uni0000" horiz-adv-x="0" 
 />
    <glyph glyph-name="uni0000" horiz-adv-x="0" 
 />
    <glyph glyph-name="CR" horiz-adv-x="215" 
 />
    <glyph glyph-name="space" unicode=" " horiz-adv-x="215" 
 />
    <glyph glyph-name="uni00A0" unicode="&#xa0;" horiz-adv-x="215" 
 />
    <glyph glyph-name="uniF8FF" unicode="&#xf8ff;" horiz-adv-x="868" 
d="M302 577l18 -3q-4 -24 -20.5 -36.5t-43.5 -12.5q-32 0 -50.5 20.5t-18.5 56.5q0 37 19 57.5t50 20.5q27 0 43.5 -12.5t20.5 -36.5l-18 -3q-3 15 -14 25t-32 10q-25 0 -38 -17t-13 -44q0 -28 13.5 -44t37.5 -16q21 0 32 9.5t14 25.5zM341 602q0 36 20 57t53 21t52.5 -21
t19.5 -57t-19.5 -56.5t-52.5 -20.5t-53 20.5t-20 56.5zM618 527l-82 126v-126h-19v151h24l84 -128v128h18v-151h-25zM467 602q0 28 -14 44.5t-39 16.5t-39.5 -16.5t-14.5 -44.5q0 -27 14.5 -43.5t39.5 -16.5t39 16.5t14 43.5zM573 394q3 -14 14.5 -21t27.5 -7q19 0 28.5 6.5
t9.5 18.5q0 10 -6 16t-19 8l-26 4q-22 4 -33 14t-11 29q0 21 17 31.5t41 10.5q25 0 39 -10.5t18 -29.5l-18 -3q-3 11 -12 18.5t-28 7.5q-17 0 -28 -6.5t-11 -18.5t7.5 -17.5t23.5 -8.5l26 -4q19 -3 29.5 -12.5t10.5 -27.5q0 -22 -16.5 -32.5t-41.5 -10.5q-24 0 -40 10
t-20 32zM118 502h130v-17h-56v-133h-18v133h-56v17zM270 502h58q25 0 38 -12.5t13 -34.5q0 -16 -7 -27.5t-23 -15.5l38 -60h-24l-35 57h-39v-57h-19v150zM687 502h131v-17h-55v-133h-20v133h-56v17zM539 352h-20l-17 42h-68l-14 -42h-22l59 150h24zM496 411l-28 74l-27 -74
h55zM328 427q18 0 25 7.5t7 20.5q0 16 -7 23t-25 7h-39v-58h39zM177 251q0 36 20 56.5t52 20.5q34 0 53 -20.5t19 -56.5q0 -37 -19 -57t-53 -20q-32 0 -52 20t-20 57zM50 326h105v-17h-86v-52h83v-18h-83v-63h-19v150zM456 326h19v-91q0 -31 -15.5 -46t-46.5 -15t-46 15
t-15 46v91h19v-91q0 -26 11.5 -35t30.5 -9q20 0 31.5 9t11.5 35v91zM611 176l-81 126v-126h-18v150h23l84 -128v128h18v-150h-26zM676 326h57q36 0 54 -19.5t18 -55.5t-18.5 -55.5t-55.5 -19.5h-55v150zM302 251q0 28 -14 44t-39 16t-39 -16t-14 -44q0 -27 14 -43.5
t39 -16.5t39 16.5t14 43.5zM732 193q27 0 40.5 15.5t13.5 42.5q0 28 -13.5 43t-40.5 15h-37v-116h37zM341 150h58q25 0 38 -12t13 -34q0 -16 -7 -28t-23 -16l38 -60h-24l-35 57h-39v-57h-19v150zM521 57l-60 93h22l48 -73l47 73h22l-60 -91v-59h-19v57zM399 75q18 0 25.5 8
t7.5 21q0 16 -7.5 22.5t-25.5 6.5h-39v-58h39z" />
    <glyph glyph-name="uni2004" unicode="&#x2004;" horiz-adv-x="320" 
 />
    <glyph glyph-name="uni2007" unicode="&#x2007;" horiz-adv-x="524" 
 />
    <glyph glyph-name="uni2009" unicode="&#x2009;" horiz-adv-x="160" 
 />
    <glyph glyph-name="uni200A" unicode="&#x200a;" horiz-adv-x="80" 
 />
    <glyph glyph-name="uni200B" unicode="&#x200b;" horiz-adv-x="0" 
 />
    <glyph glyph-name="A" unicode="A" horiz-adv-x="695" 
d="M400 680l265 -680h-93l-73 192h-306l-71 -192h-92l262 680h108zM222 270h248l-125 331z" />
    <glyph glyph-name="Agrave" unicode="&#xc0;" horiz-adv-x="695" 
d="M400 680l265 -680h-93l-73 192h-306l-71 -192h-92l262 680h108zM222 270h248l-125 331zM299 876l90 -130h-81l-108 130h99z" />
    <glyph glyph-name="Aacute" unicode="&#xc1;" horiz-adv-x="695" 
d="M400 680l265 -680h-93l-73 192h-306l-71 -192h-92l262 680h108zM222 270h248l-125 331zM392 876h99l-108 -130h-81z" />
    <glyph glyph-name="Acircumflex" unicode="&#xc2;" horiz-adv-x="695" 
d="M400 680l265 -680h-93l-73 192h-306l-71 -192h-92l262 680h108zM222 270h248l-125 331zM395 876l115 -130h-86l-77 80l-77 -80h-86l115 130h96z" />
    <glyph glyph-name="Atilde" unicode="&#xc3;" horiz-adv-x="695" 
d="M400 680l265 -680h-93l-73 192h-306l-71 -192h-92l262 680h108zM222 270h248l-125 331zM193 754v15q0 47 22.5 75t59.5 28q22 0 38.5 -8.5t29.5 -18t24 -18t23 -8.5q15 0 21.5 10.5t6.5 30.5v13h60v-15q0 -46 -21 -75t-60 -29q-21 0 -37.5 8.5t-30.5 18.5t-25.5 18.5
t-21.5 8.5q-16 0 -22.5 -12.5t-6.5 -28.5v-13h-60z" />
    <glyph glyph-name="Adieresis" unicode="&#xc4;" horiz-adv-x="695" 
d="M400 680l265 -680h-93l-73 192h-306l-71 -192h-92l262 680h108zM222 270h248l-125 331zM207 764v94h88v-94h-88zM391 764v94h88v-94h-88z" />
    <glyph glyph-name="Aring" unicode="&#xc5;" horiz-adv-x="695" 
d="M400 680l265 -680h-93l-73 192h-306l-71 -192h-92l262 680h108zM222 270h248l-125 331zM346 626q-50 0 -84 32t-34 83t34 82t84 31q51 0 84.5 -31t33.5 -82t-33.5 -83t-84.5 -32zM346 680q28 0 44 18t16 43t-16 42t-44 17q-27 0 -43.5 -17t-16.5 -42t16.5 -43t43.5 -18z
" />
    <glyph glyph-name="Amacron" unicode="&#x100;" horiz-adv-x="695" 
d="M400 680l265 -680h-93l-73 192h-306l-71 -192h-92l262 680h108zM222 270h248l-125 331zM483 782h-277v68h277v-68z" />
    <glyph glyph-name="Abreve" unicode="&#x102;" horiz-adv-x="695" 
d="M400 680l265 -680h-93l-73 192h-306l-71 -192h-92l262 680h108zM222 270h248l-125 331zM344 746q-71 0 -104 37.5t-34 90.5h66q4 -31 20.5 -50.5t51.5 -19.5q34 0 50 19.5t20 50.5h67q-2 -53 -34.5 -90.5t-102.5 -37.5z" />
    <glyph glyph-name="Aogonek" unicode="&#x104;" horiz-adv-x="695" 
d="M622 -201q-22 0 -44 5.5t-39 17t-27.5 29.5t-10.5 43q0 36 21 62.5t50 43.5l-73 192h-306l-71 -192h-92l262 680h108l265 -680q-33 -14 -59.5 -38.5t-26.5 -52.5q0 -23 16.5 -34t41.5 -11q10 0 20 1.5t16 2.5l4 -61q-8 -4 -23 -6t-32 -2zM222 270h248l-125 331z" />
    <glyph glyph-name="AE" unicode="&#xc6;" horiz-adv-x="977" 
d="M10 0l440 680h457v-80h-347l11 -217h323v-78h-319l11 -225h318v-80h-401l-9 194h-263l-123 -194h-98zM280 270h211l-14 311z" />
    <glyph glyph-name="AEacute" unicode="&#x1fc;" horiz-adv-x="977" 
d="M10 0l440 680h457v-80h-347l11 -217h323v-78h-319l11 -225h318v-80h-401l-9 194h-263l-123 -194h-98zM280 270h211l-14 311zM637 876h99l-108 -130h-81z" />
    <glyph glyph-name="uni01E2" unicode="&#x1e2;" horiz-adv-x="977" 
d="M10 0l440 680h457v-80h-347l11 -217h323v-78h-319l11 -225h318v-80h-401l-9 194h-263l-123 -194h-98zM280 270h211l-14 311zM800 772h-277v68h277v-68z" />
    <glyph glyph-name="B" unicode="B" horiz-adv-x="642" 
d="M87 0v680h260q100 0 161 -43.5t61 -142.5q0 -46 -20.5 -86t-74.5 -62q60 -15 86.5 -55t26.5 -101q0 -99 -66.5 -144.5t-173.5 -45.5h-260zM347 603h-176v-221h167q80 0 113.5 26.5t33.5 85.5q0 60 -32 84.5t-106 24.5zM348 307h-177v-230h185q75 0 110.5 27.5t35.5 85.5
q0 61 -36.5 89t-117.5 28z" />
    <glyph glyph-name="C" unicode="C" horiz-adv-x="711" 
d="M373 68q93 0 142.5 42.5t64.5 113.5l81 -13q-19 -107 -94 -164t-194 -57q-146 0 -232 93.5t-86 255.5q0 83 23 148.5t64.5 110.5t100.5 68.5t130 23.5q120 0 194.5 -57t91.5 -164l-81 -13q-15 67 -63.5 111.5t-141.5 44.5q-57 0 -101 -20t-73 -55.5t-44 -86t-15 -111.5
q0 -122 60.5 -196.5t172.5 -74.5z" />
    <glyph glyph-name="Ccedilla" unicode="&#xc7;" horiz-adv-x="711" 
d="M373 68q93 0 142.5 42.5t64.5 113.5l81 -13q-18 -98 -81.5 -154t-164.5 -65l-34 -40q46 -2 70.5 -20t24.5 -58q0 -38 -28.5 -63t-85.5 -25q-49 0 -79 17t-39 57l60 14q5 -17 19.5 -26t37.5 -9t35.5 8t12.5 25q0 19 -17.5 25.5t-57.5 5.5l-22 -1v45l36 44
q-135 8 -214 100.5t-79 247.5q0 83 23 148.5t64.5 110.5t100.5 68.5t130 23.5q120 0 194.5 -57t91.5 -164l-81 -13q-15 67 -63.5 111.5t-141.5 44.5q-57 0 -101 -20t-73 -55.5t-44 -86t-15 -111.5q0 -122 60.5 -196.5t172.5 -74.5z" />
    <glyph glyph-name="Cacute" unicode="&#x106;" horiz-adv-x="711" 
d="M373 68q93 0 142.5 42.5t64.5 113.5l81 -13q-19 -107 -94 -164t-194 -57q-146 0 -232 93.5t-86 255.5q0 83 23 148.5t64.5 110.5t100.5 68.5t130 23.5q120 0 194.5 -57t91.5 -164l-81 -13q-15 67 -63.5 111.5t-141.5 44.5q-57 0 -101 -20t-73 -55.5t-44 -86t-15 -111.5
q0 -122 60.5 -196.5t172.5 -74.5zM400 876h99l-108 -130h-81z" />
    <glyph glyph-name="Ccircumflex" unicode="&#x108;" horiz-adv-x="711" 
d="M373 68q93 0 142.5 42.5t64.5 113.5l81 -13q-19 -107 -94 -164t-194 -57q-146 0 -232 93.5t-86 255.5q0 83 23 148.5t64.5 110.5t100.5 68.5t130 23.5q120 0 194.5 -57t91.5 -164l-81 -13q-15 67 -63.5 111.5t-141.5 44.5q-57 0 -101 -20t-73 -55.5t-44 -86t-15 -111.5
q0 -122 60.5 -196.5t172.5 -74.5zM419 876l115 -130h-86l-77 80l-77 -80h-86l115 130h96z" />
    <glyph glyph-name="Cdotaccent" unicode="&#x10a;" horiz-adv-x="711" 
d="M373 68q93 0 142.5 42.5t64.5 113.5l81 -13q-19 -107 -94 -164t-194 -57q-146 0 -232 93.5t-86 255.5q0 83 23 148.5t64.5 110.5t100.5 68.5t130 23.5q120 0 194.5 -57t91.5 -164l-81 -13q-15 67 -63.5 111.5t-141.5 44.5q-57 0 -101 -20t-73 -55.5t-44 -86t-15 -111.5
q0 -122 60.5 -196.5t172.5 -74.5zM321 762v98h93v-98h-93z" />
    <glyph glyph-name="Ccaron" unicode="&#x10c;" horiz-adv-x="711" 
d="M373 68q93 0 142.5 42.5t64.5 113.5l81 -13q-19 -107 -94 -164t-194 -57q-146 0 -232 93.5t-86 255.5q0 83 23 148.5t64.5 110.5t100.5 68.5t130 23.5q120 0 194.5 -57t91.5 -164l-81 -13q-15 67 -63.5 111.5t-141.5 44.5q-57 0 -101 -20t-73 -55.5t-44 -86t-15 -111.5
q0 -122 60.5 -196.5t172.5 -74.5zM406 746h-96l-115 130h86l77 -80l77 80h86z" />
    <glyph glyph-name="D" unicode="D" horiz-adv-x="727" 
d="M87 0v680h257q160 0 244 -90t84 -250q0 -161 -85.5 -250.5t-252.5 -89.5h-247zM173 79h168q121 0 182 71t61 190q0 129 -61.5 195t-182.5 66h-167v-522z" />
    <glyph glyph-name="Dcaron" unicode="&#x10e;" horiz-adv-x="727" 
d="M87 0v680h257q160 0 244 -90t84 -250q0 -161 -85.5 -250.5t-252.5 -89.5h-247zM173 79h168q121 0 182 71t61 190q0 129 -61.5 195t-182.5 66h-167v-522zM373 746h-96l-115 130h86l77 -80l77 80h86z" />
    <glyph glyph-name="Dcroat" unicode="&#x110;" horiz-adv-x="727" 
d="M87 0v309h-70v72h70v299h257q160 0 244 -90t84 -250q0 -161 -85.5 -250.5t-252.5 -89.5h-247zM172 79h169q121 0 182 71t61 190q0 129 -61.5 195t-182.5 66h-168v-220h163v-72h-163v-230z" />
    <glyph glyph-name="Eth" unicode="&#xd0;" horiz-adv-x="727" 
d="M87 0v309h-70v72h70v299h257q160 0 244 -90t84 -250q0 -161 -85.5 -250.5t-252.5 -89.5h-247zM172 79h169q121 0 182 71t61 190q0 129 -61.5 195t-182.5 66h-168v-220h163v-72h-163v-230z" />
    <glyph glyph-name="E" unicode="E" horiz-adv-x="631" 
d="M87 0v680h474v-80h-388v-217h375v-78h-375v-225h385v-80h-471z" />
    <glyph glyph-name="Egrave" unicode="&#xc8;" horiz-adv-x="631" 
d="M87 0v680h474v-80h-388v-217h375v-78h-375v-225h385v-80h-471zM300 876l90 -130h-81l-108 130h99z" />
    <glyph glyph-name="Eacute" unicode="&#xc9;" horiz-adv-x="631" 
d="M87 0v680h474v-80h-388v-217h375v-78h-375v-225h385v-80h-471zM348 876h99l-108 -130h-81z" />
    <glyph glyph-name="Ecircumflex" unicode="&#xca;" horiz-adv-x="631" 
d="M87 0v680h474v-80h-388v-217h375v-78h-375v-225h385v-80h-471zM378 876l115 -130h-86l-77 80l-77 -80h-86l115 130h96z" />
    <glyph glyph-name="Edieresis" unicode="&#xcb;" horiz-adv-x="631" 
d="M87 0v680h474v-80h-388v-217h375v-78h-375v-225h385v-80h-471zM202 764v94h88v-94h-88zM386 764v94h88v-94h-88z" />
    <glyph glyph-name="Emacron" unicode="&#x112;" horiz-adv-x="631" 
d="M87 0v680h474v-80h-388v-217h375v-78h-375v-225h385v-80h-471zM468 772h-277v68h277v-68z" />
    <glyph glyph-name="Ebreve" unicode="&#x114;" horiz-adv-x="631" 
d="M87 0v680h474v-80h-388v-217h375v-78h-375v-225h385v-80h-471zM331 746q-71 0 -104 37.5t-34 90.5h66q4 -31 20.5 -50.5t51.5 -19.5q34 0 50 19.5t20 50.5h67q-2 -53 -34.5 -90.5t-102.5 -37.5z" />
    <glyph glyph-name="Edotaccent" unicode="&#x116;" horiz-adv-x="631" 
d="M87 0v680h474v-80h-388v-217h375v-78h-375v-225h385v-80h-471zM277 762v98h93v-98h-93z" />
    <glyph glyph-name="Eogonek" unicode="&#x118;" horiz-adv-x="631" 
d="M87 0v680h474v-80h-388v-217h375v-78h-375v-225h385v-80q-33 -14 -59 -39t-26 -51q0 -25 17.5 -35.5t42.5 -10.5q10 0 18.5 1.5t14.5 2.5l4 -61q-10 -4 -24 -6t-31 -2q-46 0 -83.5 22t-37.5 71q0 36 21.5 62.5t54.5 45.5h-383z" />
    <glyph glyph-name="Ecaron" unicode="&#x11a;" horiz-adv-x="631" 
d="M87 0v680h474v-80h-388v-217h375v-78h-375v-225h385v-80h-471zM382 746h-96l-115 130h86l77 -80l77 80h86z" />
    <glyph glyph-name="uni1EBC" unicode="&#x1ebc;" horiz-adv-x="631" 
d="M87 0v680h474v-80h-388v-217h375v-78h-375v-225h385v-80h-471zM195 754v15q0 47 22.5 75t59.5 28q22 0 38.5 -8.5t29.5 -18t24 -18t23 -8.5q15 0 21.5 10.5t6.5 30.5v13h60v-15q0 -46 -21 -75t-60 -29q-21 0 -37.5 8.5t-30.5 18.5t-25.5 18.5t-21.5 8.5
q-16 0 -22.5 -12.5t-6.5 -28.5v-13h-60z" />
    <glyph glyph-name="F" unicode="F" horiz-adv-x="616" 
d="M87 0v680h474v-80h-388v-231h375v-78h-375v-291h-86z" />
    <glyph glyph-name="G" unicode="G" horiz-adv-x="733" 
d="M664 321v-321h-77v64q-34 -34 -87.5 -54t-113.5 -20q-78 0 -140 24.5t-104 70t-64.5 110.5t-22.5 145q0 82 24 147.5t67 110.5t103.5 68.5t132.5 23.5q117 0 191 -55t92 -162l-80 -13q-16 67 -65 109.5t-138 42.5q-113 0 -177 -73.5t-64 -198.5q0 -122 63 -197t182 -75
q88 0 145 44t57 108v27h-178v74h254z" />
    <glyph glyph-name="Gcircumflex" unicode="&#x11c;" horiz-adv-x="733" 
d="M664 321v-321h-77v64q-34 -34 -87.5 -54t-113.5 -20q-78 0 -140 24.5t-104 70t-64.5 110.5t-22.5 145q0 82 24 147.5t67 110.5t103.5 68.5t132.5 23.5q117 0 191 -55t92 -162l-80 -13q-16 67 -65 109.5t-138 42.5q-113 0 -177 -73.5t-64 -198.5q0 -122 63 -197t182 -75
q88 0 145 44t57 108v27h-178v74h254zM414 876l115 -130h-86l-77 80l-77 -80h-86l115 130h96z" />
    <glyph glyph-name="Gbreve" unicode="&#x11e;" horiz-adv-x="733" 
d="M664 321v-321h-77v64q-34 -34 -87.5 -54t-113.5 -20q-78 0 -140 24.5t-104 70t-64.5 110.5t-22.5 145q0 82 24 147.5t67 110.5t103.5 68.5t132.5 23.5q117 0 191 -55t92 -162l-80 -13q-16 67 -65 109.5t-138 42.5q-113 0 -177 -73.5t-64 -198.5q0 -122 63 -197t182 -75
q88 0 145 44t57 108v27h-178v74h254zM371 746q-71 0 -104 37.5t-34 90.5h66q4 -31 20.5 -50.5t51.5 -19.5q34 0 50 19.5t20 50.5h67q-2 -53 -34.5 -90.5t-102.5 -37.5z" />
    <glyph glyph-name="Gdotaccent" unicode="&#x120;" horiz-adv-x="733" 
d="M664 321v-321h-77v64q-34 -34 -87.5 -54t-113.5 -20q-78 0 -140 24.5t-104 70t-64.5 110.5t-22.5 145q0 82 24 147.5t67 110.5t103.5 68.5t132.5 23.5q117 0 191 -55t92 -162l-80 -13q-16 67 -65 109.5t-138 42.5q-113 0 -177 -73.5t-64 -198.5q0 -122 63 -197t182 -75
q88 0 145 44t57 108v27h-178v74h254zM332 762v98h93v-98h-93z" />
    <glyph glyph-name="Gcommaaccent" unicode="&#x122;" horiz-adv-x="733" 
d="M664 321v-321h-77v64q-34 -34 -87.5 -54t-113.5 -20q-78 0 -140 24.5t-104 70t-64.5 110.5t-22.5 145q0 82 24 147.5t67 110.5t103.5 68.5t132.5 23.5q117 0 191 -55t92 -162l-80 -13q-16 67 -65 109.5t-138 42.5q-113 0 -177 -73.5t-64 -198.5q0 -122 63 -197t182 -75
q88 0 145 44t57 108v27h-178v74h254zM332 -155v85h95v-76q0 -50 -21.5 -77.5t-70.5 -35.5l-11 43q31 7 43 23t12 38h-47z" />
    <glyph glyph-name="H" unicode="H" horiz-adv-x="722" 
d="M87 0v680h86v-297h376v297h86v-680h-86v303h-376v-303h-86z" />
    <glyph glyph-name="Hcircumflex" unicode="&#x124;" horiz-adv-x="722" 
d="M87 0v680h86v-297h376v297h86v-680h-86v303h-376v-303h-86zM415 876l115 -130h-86l-77 80l-77 -80h-86l115 130h96z" />
    <glyph glyph-name="Hbar" unicode="&#x126;" horiz-adv-x="722" 
d="M87 0v503h-70v68h70v109h84v-109h380v109h84v-109h70v-68h-70v-503h-84v303h-380v-303h-84zM171 381h380v122h-380v-122z" />
    <glyph glyph-name="I" unicode="I" horiz-adv-x="260" 
d="M87 0v680h86v-680h-86z" />
    <glyph glyph-name="I.alt" horiz-adv-x="490" 
d="M40 80h163v520h-163v80h410v-80h-163v-520h163v-80h-410v80z" />
    <glyph glyph-name="Igrave" unicode="&#xcc;" horiz-adv-x="260" 
d="M87 0v680h86v-680h-86zM85 876l90 -130h-81l-108 130h99z" />
    <glyph glyph-name="Iacute" unicode="&#xcd;" horiz-adv-x="260" 
d="M87 0v680h86v-680h-86zM180 876h99l-108 -130h-81z" />
    <glyph glyph-name="Icircumflex" unicode="&#xce;" horiz-adv-x="260" 
d="M87 0v680h86v-680h-86zM184 876l115 -130h-86l-77 80l-77 -80h-86l115 130h96z" />
    <glyph glyph-name="Idieresis" unicode="&#xcf;" horiz-adv-x="260" 
d="M87 0v680h86v-680h-86zM-6 764v94h88v-94h-88zM178 764v94h88v-94h-88z" />
    <glyph glyph-name="Itilde" unicode="&#x128;" horiz-adv-x="260" 
d="M87 0v680h86v-680h-86zM-10 754v15q0 47 22.5 75t59.5 28q22 0 38.5 -8.5t29.5 -18t24 -18t23 -8.5q15 0 21.5 10.5t6.5 30.5v13h60v-15q0 -46 -21 -75t-60 -29q-21 0 -37.5 8.5t-30.5 18.5t-25.5 18.5t-21.5 8.5q-16 0 -22.5 -12.5t-6.5 -28.5v-13h-60z" />
    <glyph glyph-name="Imacron" unicode="&#x12a;" horiz-adv-x="260" 
d="M87 0v680h86v-680h-86zM268 772h-277v68h277v-68z" />
    <glyph glyph-name="Ibreve" unicode="&#x12c;" horiz-adv-x="260" 
d="M87 0v680h86v-680h-86zM131 746q-71 0 -104 37.5t-34 90.5h66q4 -31 20.5 -50.5t51.5 -19.5q34 0 50 19.5t20 50.5h67q-2 -53 -34.5 -90.5t-102.5 -37.5z" />
    <glyph glyph-name="Iogonek" unicode="&#x12e;" horiz-adv-x="260" 
d="M136 -201q-45 0 -82.5 22.5t-37.5 72.5q0 36 21 63t50 45v678h86v-680q-33 -16 -56 -40t-23 -51q0 -23 16 -34t41 -11q12 0 21 1.5l15 2.5l4 -61q-8 -4 -23 -6t-32 -2z" />
    <glyph glyph-name="Idotaccent" unicode="&#x130;" horiz-adv-x="260" 
d="M87 0v680h86v-680h-86zM83 762v98h93v-98h-93z" />
    <glyph glyph-name="J" unicode="J" horiz-adv-x="381" 
d="M301 680v-496q0 -99 -47.5 -141.5t-138.5 -42.5h-85v79h76q53 0 81 24t28 81v496h86z" />
    <glyph glyph-name="Jcircumflex" unicode="&#x134;" horiz-adv-x="381" 
d="M301 680v-496q0 -99 -47.5 -141.5t-138.5 -42.5h-85v79h76q53 0 81 24t28 81v496h86zM302 876l115 -130h-86l-77 80l-77 -80h-86l115 130h96z" />
    <glyph glyph-name="IJ" unicode="&#x132;" horiz-adv-x="604" 
d="M87 0v680h86v-680h-86zM524 680v-496q0 -99 -47.5 -141.5t-138.5 -42.5h-85v79h76q53 0 81 24t28 81v496h86z" />
    <glyph glyph-name="uni00CD00A40301" horiz-adv-x="604" 
d="M87 0v680h86v-680h-86zM524 680v-496q0 -99 -47.5 -141.5t-138.5 -42.5h-85v79h76q53 0 81 24t28 81v496h86zM180 876h99l-108 -130h-81zM525 876h99l-108 -130h-81z" />
    <glyph glyph-name="K" unicode="K" horiz-adv-x="634" 
d="M87 0v680h86v-296h127l196 296h105l-232 -335l243 -345h-108l-206 304h-125v-304h-86z" />
    <glyph glyph-name="Kcommaaccent" unicode="&#x136;" horiz-adv-x="634" 
d="M87 0v680h86v-296h127l196 296h105l-232 -335l243 -345h-108l-206 304h-125v-304h-86zM285 -145v85h95v-76q0 -50 -21.5 -77.5t-70.5 -35.5l-11 43q31 7 43 23t12 38h-47z" />
    <glyph glyph-name="L" unicode="L" horiz-adv-x="591" 
d="M561 80v-80h-474v680h86v-600h388z" />
    <glyph glyph-name="Lacute" unicode="&#x139;" horiz-adv-x="591" 
d="M561 80v-80h-474v680h86v-600h388zM178 876h99l-108 -130h-81z" />
    <glyph glyph-name="Lcommaaccent" unicode="&#x13b;" horiz-adv-x="591" 
d="M561 80v-80h-474v680h86v-600h388zM291 -145v85h95v-76q0 -50 -21.5 -77.5t-70.5 -35.5l-11 43q31 7 43 23t12 38h-47z" />
    <glyph glyph-name="Lcaron" unicode="&#x13d;" horiz-adv-x="591" 
d="M561 80v-80h-474v680h86v-600h388zM273 690h80l-53 -184h-57z" />
    <glyph glyph-name="Ldot" unicode="&#x13f;" horiz-adv-x="591" 
d="M561 80v-80h-474v680h86v-600h388zM382 291v98h93v-98h-93z" />
    <glyph glyph-name="Lslash" unicode="&#x141;" horiz-adv-x="591" 
d="M561 80v-80h-474v289l-70 -38v79l70 38v312h85v-270l163 89v-79l-163 -89v-251h389z" />
    <glyph glyph-name="M" unicode="M" horiz-adv-x="880" 
d="M398 62l-230 537v-599h-81v680h135l220 -516l216 516h135v-680h-85v599l-230 -537h-80z" />
    <glyph glyph-name="N" unicode="N" horiz-adv-x="741" 
d="M654 0h-115l-369 568v-568h-83v680h106l378 -581v581h83v-680z" />
    <glyph glyph-name="Ntilde" unicode="&#xd1;" horiz-adv-x="741" 
d="M654 0h-115l-369 568v-568h-83v680h106l378 -581v581h83v-680zM239 754v15q0 47 22.5 75t59.5 28q22 0 38.5 -8.5t29.5 -18t24 -18t23 -8.5q15 0 21.5 10.5t6.5 30.5v13h60v-15q0 -46 -21 -75t-60 -29q-21 0 -37.5 8.5t-30.5 18.5t-25.5 18.5t-21.5 8.5
q-16 0 -22.5 -12.5t-6.5 -28.5v-13h-60z" />
    <glyph glyph-name="Nacute" unicode="&#x143;" horiz-adv-x="741" 
d="M654 0h-115l-369 568v-568h-83v680h106l378 -581v581h83v-680zM400 876h99l-108 -130h-81z" />
    <glyph glyph-name="Ncommaaccent" unicode="&#x145;" horiz-adv-x="741" 
d="M654 0h-115l-369 568v-568h-83v680h106l378 -581v581h83v-680zM321 -145v85h95v-76q0 -50 -21.5 -77.5t-70.5 -35.5l-11 43q31 7 43 23t12 38h-47z" />
    <glyph glyph-name="Ncaron" unicode="&#x147;" horiz-adv-x="741" 
d="M654 0h-115l-369 568v-568h-83v680h106l378 -581v581h83v-680zM418 746h-96l-115 130h86l77 -80l77 80h86z" />
    <glyph glyph-name="uni1E46" unicode="&#x1e46;" horiz-adv-x="741" 
d="M654 0h-115l-369 568v-568h-83v680h106l378 -581v581h83v-680zM316 -167v96h91v-96h-91z" />
    <glyph glyph-name="Eng" unicode="&#x14a;" horiz-adv-x="740" 
d="M653 680v-697q0 -94 -42 -135.5t-122 -41.5h-60v77h55q45 0 65.5 24.5t20.5 72.5v20l-400 573v-573h-83v680h106l377 -541v541h83z" />
    <glyph glyph-name="O" unicode="O" horiz-adv-x="761" 
d="M381 -10q-74 0 -134.5 24t-103 68.5t-65.5 110t-23 147.5q0 80 23 145t65.5 110.5t103 70t134.5 24.5t134.5 -24.5t102.5 -70t65 -110.5t23 -145q0 -82 -23 -147.5t-65 -110t-102.5 -68.5t-134.5 -24zM381 68q114 0 176.5 75t62.5 197q0 123 -62.5 197.5t-176.5 74.5
t-177 -74.5t-63 -197.5q0 -122 63 -197t177 -75z" />
    <glyph glyph-name="Ograve" unicode="&#xd2;" horiz-adv-x="761" 
d="M381 -10q-74 0 -134.5 24t-103 68.5t-65.5 110t-23 147.5q0 80 23 145t65.5 110.5t103 70t134.5 24.5t134.5 -24.5t102.5 -70t65 -110.5t23 -145q0 -82 -23 -147.5t-65 -110t-102.5 -68.5t-134.5 -24zM381 68q114 0 176.5 75t62.5 197q0 123 -62.5 197.5t-176.5 74.5
t-177 -74.5t-63 -197.5q0 -122 63 -197t177 -75zM346 876l90 -130h-81l-108 130h99z" />
    <glyph glyph-name="Oacute" unicode="&#xd3;" horiz-adv-x="761" 
d="M381 -10q-74 0 -134.5 24t-103 68.5t-65.5 110t-23 147.5q0 80 23 145t65.5 110.5t103 70t134.5 24.5t134.5 -24.5t102.5 -70t65 -110.5t23 -145q0 -82 -23 -147.5t-65 -110t-102.5 -68.5t-134.5 -24zM381 68q114 0 176.5 75t62.5 197q0 123 -62.5 197.5t-176.5 74.5
t-177 -74.5t-63 -197.5q0 -122 63 -197t177 -75zM415 876h99l-108 -130h-81z" />
    <glyph glyph-name="Ocircumflex" unicode="&#xd4;" horiz-adv-x="761" 
d="M381 -10q-74 0 -134.5 24t-103 68.5t-65.5 110t-23 147.5q0 80 23 145t65.5 110.5t103 70t134.5 24.5t134.5 -24.5t102.5 -70t65 -110.5t23 -145q0 -82 -23 -147.5t-65 -110t-102.5 -68.5t-134.5 -24zM381 68q114 0 176.5 75t62.5 197q0 123 -62.5 197.5t-176.5 74.5
t-177 -74.5t-63 -197.5q0 -122 63 -197t177 -75zM439 876l115 -130h-86l-77 80l-77 -80h-86l115 130h96z" />
    <glyph glyph-name="Otilde" unicode="&#xd5;" horiz-adv-x="761" 
d="M381 -10q-74 0 -134.5 24t-103 68.5t-65.5 110t-23 147.5q0 80 23 145t65.5 110.5t103 70t134.5 24.5t134.5 -24.5t102.5 -70t65 -110.5t23 -145q0 -82 -23 -147.5t-65 -110t-102.5 -68.5t-134.5 -24zM381 68q114 0 176.5 75t62.5 197q0 123 -62.5 197.5t-176.5 74.5
t-177 -74.5t-63 -197.5q0 -122 63 -197t177 -75zM240 754v15q0 47 22.5 75t59.5 28q22 0 38.5 -8.5t29.5 -18t24 -18t23 -8.5q15 0 21.5 10.5t6.5 30.5v13h60v-15q0 -46 -21 -75t-60 -29q-21 0 -37.5 8.5t-30.5 18.5t-25.5 18.5t-21.5 8.5q-16 0 -22.5 -12.5t-6.5 -28.5v-13
h-60z" />
    <glyph glyph-name="Odieresis" unicode="&#xd6;" horiz-adv-x="761" 
d="M381 -10q-74 0 -134.5 24t-103 68.5t-65.5 110t-23 147.5q0 80 23 145t65.5 110.5t103 70t134.5 24.5t134.5 -24.5t102.5 -70t65 -110.5t23 -145q0 -82 -23 -147.5t-65 -110t-102.5 -68.5t-134.5 -24zM381 68q114 0 176.5 75t62.5 197q0 123 -62.5 197.5t-176.5 74.5
t-177 -74.5t-63 -197.5q0 -122 63 -197t177 -75zM245 764v94h88v-94h-88zM429 764v94h88v-94h-88z" />
    <glyph glyph-name="Omacron" unicode="&#x14c;" horiz-adv-x="761" 
d="M381 -10q-74 0 -134.5 24t-103 68.5t-65.5 110t-23 147.5q0 80 23 145t65.5 110.5t103 70t134.5 24.5t134.5 -24.5t102.5 -70t65 -110.5t23 -145q0 -82 -23 -147.5t-65 -110t-102.5 -68.5t-134.5 -24zM381 68q114 0 176.5 75t62.5 197q0 123 -62.5 197.5t-176.5 74.5
t-177 -74.5t-63 -197.5q0 -122 63 -197t177 -75zM527 772h-277v68h277v-68z" />
    <glyph glyph-name="Obreve" unicode="&#x14e;" horiz-adv-x="761" 
d="M381 -10q-74 0 -134.5 24t-103 68.5t-65.5 110t-23 147.5q0 80 23 145t65.5 110.5t103 70t134.5 24.5t134.5 -24.5t102.5 -70t65 -110.5t23 -145q0 -82 -23 -147.5t-65 -110t-102.5 -68.5t-134.5 -24zM381 68q114 0 176.5 75t62.5 197q0 123 -62.5 197.5t-176.5 74.5
t-177 -74.5t-63 -197.5q0 -122 63 -197t177 -75zM382 746q-71 0 -104 37.5t-34 90.5h66q4 -31 20.5 -50.5t51.5 -19.5q34 0 50 19.5t20 50.5h67q-2 -53 -34.5 -90.5t-102.5 -37.5z" />
    <glyph glyph-name="Ohungarumlaut" unicode="&#x150;" horiz-adv-x="761" 
d="M381 -10q-74 0 -134.5 24t-103 68.5t-65.5 110t-23 147.5q0 80 23 145t65.5 110.5t103 70t134.5 24.5t134.5 -24.5t102.5 -70t65 -110.5t23 -145q0 -82 -23 -147.5t-65 -110t-102.5 -68.5t-134.5 -24zM381 68q114 0 176.5 75t62.5 197q0 123 -62.5 197.5t-176.5 74.5
t-177 -74.5t-63 -197.5q0 -122 63 -197t177 -75zM335 876h98l-107 -130h-82zM504 876h104l-126 -130h-87z" />
    <glyph glyph-name="Oslash" unicode="&#xd8;" horiz-adv-x="761" 
d="M381 -10q-74 0 -134.5 24t-103 68.5t-65.5 110t-23 147.5q0 80 23 145t65.5 110.5t103 70t134.5 24.5t134.5 -24.5t102.5 -70t65 -110.5t23 -145q0 -82 -23 -147.5t-65 -110t-102.5 -68.5t-134.5 -24zM139 340q0 -57 14 -105t41 -83l337 414q-29 23 -66.5 35.5
t-83.5 12.5q-114 0 -178 -75.5t-64 -198.5zM381 66q57 0 102 20t76 55.5t47 86.5t16 112q0 51 -11 95.5t-33 78.5l-333 -410q28 -18 62 -28t74 -10z" />
    <glyph glyph-name="Oslashacute" unicode="&#x1fe;" horiz-adv-x="761" 
d="M381 -10q-74 0 -134.5 24t-103 68.5t-65.5 110t-23 147.5q0 80 23 145t65.5 110.5t103 70t134.5 24.5t134.5 -24.5t102.5 -70t65 -110.5t23 -145q0 -82 -23 -147.5t-65 -110t-102.5 -68.5t-134.5 -24zM139 340q0 -57 14 -105t41 -83l337 414q-29 23 -66.5 35.5
t-83.5 12.5q-114 0 -178 -75.5t-64 -198.5zM381 66q57 0 102 20t76 55.5t47 86.5t16 112q0 51 -11 95.5t-33 78.5l-333 -410q28 -18 62 -28t74 -10zM390 876h99l-108 -130h-81z" />
    <glyph glyph-name="OE" unicode="&#x152;" horiz-adv-x="1054" 
d="M981 0h-439q-21 -4 -48 -7t-64 -3q-74 0 -134.5 23t-103.5 67t-66.5 109.5t-23.5 150.5q0 83 23.5 148.5t66.5 110t103.5 68t134.5 23.5q37 0 67 -3t55 -7h432v-80h-358v-217h345v-78h-345v-225h355v-80zM187 340q0 -61 16 -112t47 -87.5t76.5 -56.5t103.5 -20
q31 0 59.5 2t50.5 6v534q-26 5 -53 7.5t-57 2.5q-58 0 -103.5 -20t-76.5 -56t-47 -87t-16 -113z" />
    <glyph glyph-name="P" unicode="P" horiz-adv-x="625" 
d="M87 0v680h269q111 0 170 -55t59 -154t-58.5 -156t-179.5 -57h-174v-258h-86zM173 337h181q75 0 109.5 34.5t34.5 98.5q0 69 -33.5 100t-110.5 31h-181v-264z" />
    <glyph glyph-name="Q" unicode="Q" horiz-adv-x="761" 
d="M381 -10q-74 0 -134.5 24t-103 68.5t-65.5 110t-23 147.5q0 80 23 145t65.5 110.5t103 70t134.5 24.5t134.5 -24.5t102.5 -70t65 -110.5t23 -145q0 -100 -35 -173t-96 -116l67 -87l-61 -45l-70 96q-28 -12 -60.5 -18.5t-69.5 -6.5zM381 68q22 0 42.5 3t38.5 8l-123 161
h95l95 -129q45 34 68 94.5t23 134.5q0 123 -62.5 197.5t-176.5 74.5t-177 -74.5t-63 -197.5q0 -122 63 -197t177 -75z" />
    <glyph glyph-name="R" unicode="R" horiz-adv-x="652" 
d="M87 0v680h265q110 0 169.5 -55t59.5 -154q0 -77 -35 -128.5t-105 -71.5l171 -271h-102l-158 259h-4.5h-4.5h-170v-259h-86zM173 338h179q76 0 110 34.5t34 97.5q0 69 -34 100t-110 31h-179v-263z" />
    <glyph glyph-name="Racute" unicode="&#x154;" horiz-adv-x="652" 
d="M87 0v680h265q110 0 169.5 -55t59.5 -154q0 -77 -35 -128.5t-105 -71.5l171 -271h-102l-158 259h-4.5h-4.5h-170v-259h-86zM173 338h179q76 0 110 34.5t34 97.5q0 69 -34 100t-110 31h-179v-263zM338 876h99l-108 -130h-81z" />
    <glyph glyph-name="Rcommaaccent" unicode="&#x156;" horiz-adv-x="652" 
d="M87 0v680h265q110 0 169.5 -55t59.5 -154q0 -77 -35 -128.5t-105 -71.5l171 -271h-102l-158 259h-4.5h-4.5h-170v-259h-86zM173 338h179q76 0 110 34.5t34 97.5q0 69 -34 100t-110 31h-179v-263zM287 -145v85h95v-76q0 -50 -21.5 -77.5t-70.5 -35.5l-11 43q31 7 43 23
t12 38h-47z" />
    <glyph glyph-name="Rcaron" unicode="&#x158;" horiz-adv-x="652" 
d="M87 0v680h265q110 0 169.5 -55t59.5 -154q0 -77 -35 -128.5t-105 -71.5l171 -271h-102l-158 259h-4.5h-4.5h-170v-259h-86zM173 338h179q76 0 110 34.5t34 97.5q0 69 -34 100t-110 31h-179v-263zM354 746h-96l-115 130h86l77 -80l77 80h86z" />
    <glyph glyph-name="S" unicode="S" horiz-adv-x="641" 
d="M55 180l81 14q16 -67 66.5 -97.5t126.5 -30.5q79 0 126 30.5t47 81.5q0 48 -28.5 74.5t-86.5 36.5l-119 20q-96 16 -143 60t-47 126q0 46 18.5 82t51.5 61t79.5 38.5t101.5 13.5q111 0 173.5 -50t77.5 -134l-80 -13q-12 51 -52.5 86t-120.5 35q-78 0 -122 -34t-44 -83
q0 -47 30 -72.5t101 -38.5l115 -20q87 -15 133 -58.5t46 -125.5q0 -48 -19.5 -84t-54 -60t-82.5 -36t-104 -12q-109 0 -180.5 46t-90.5 144z" />
    <glyph glyph-name="Sacute" unicode="&#x15a;" horiz-adv-x="641" 
d="M55 180l81 14q16 -67 66.5 -97.5t126.5 -30.5q79 0 126 30.5t47 81.5q0 48 -28.5 74.5t-86.5 36.5l-119 20q-96 16 -143 60t-47 126q0 46 18.5 82t51.5 61t79.5 38.5t101.5 13.5q111 0 173.5 -50t77.5 -134l-80 -13q-12 51 -52.5 86t-120.5 35q-78 0 -122 -34t-44 -83
q0 -47 30 -72.5t101 -38.5l115 -20q87 -15 133 -58.5t46 -125.5q0 -48 -19.5 -84t-54 -60t-82.5 -36t-104 -12q-109 0 -180.5 46t-90.5 144zM358 876h99l-108 -130h-81z" />
    <glyph glyph-name="Scircumflex" unicode="&#x15c;" horiz-adv-x="641" 
d="M55 180l81 14q16 -67 66.5 -97.5t126.5 -30.5q79 0 126 30.5t47 81.5q0 48 -28.5 74.5t-86.5 36.5l-119 20q-96 16 -143 60t-47 126q0 46 18.5 82t51.5 61t79.5 38.5t101.5 13.5q111 0 173.5 -50t77.5 -134l-80 -13q-12 51 -52.5 86t-120.5 35q-78 0 -122 -34t-44 -83
q0 -47 30 -72.5t101 -38.5l115 -20q87 -15 133 -58.5t46 -125.5q0 -48 -19.5 -84t-54 -60t-82.5 -36t-104 -12q-109 0 -180.5 46t-90.5 144zM379 876l115 -130h-86l-77 80l-77 -80h-86l115 130h96z" />
    <glyph glyph-name="Scedilla" unicode="&#x15e;" horiz-adv-x="641" 
d="M55 180l81 14q16 -67 66.5 -97.5t126.5 -30.5q79 0 126 30.5t47 81.5q0 48 -28.5 74.5t-86.5 36.5l-119 20q-96 16 -143 60t-47 126q0 46 18.5 82t51.5 61t79.5 38.5t101.5 13.5q111 0 173.5 -50t77.5 -134l-80 -13q-12 51 -52.5 86t-120.5 35q-78 0 -122 -34t-44 -83
q0 -47 30 -72.5t101 -38.5l115 -20q87 -15 133 -58.5t46 -125.5q0 -84 -58.5 -131.5t-151.5 -57.5l-34 -41q46 -2 70.5 -20t24.5 -58q0 -38 -28.5 -63t-85.5 -25q-49 0 -79 17t-39 57l60 14q5 -17 19.5 -26t37.5 -9t35.5 8t12.5 25q0 19 -17.5 25.5t-57.5 5.5l-22 -1v45
l36 43q-102 4 -169 50t-85 140z" />
    <glyph glyph-name="Scaron" unicode="&#x160;" horiz-adv-x="641" 
d="M55 180l81 14q16 -67 66.5 -97.5t126.5 -30.5q79 0 126 30.5t47 81.5q0 48 -28.5 74.5t-86.5 36.5l-119 20q-96 16 -143 60t-47 126q0 46 18.5 82t51.5 61t79.5 38.5t101.5 13.5q111 0 173.5 -50t77.5 -134l-80 -13q-12 51 -52.5 86t-120.5 35q-78 0 -122 -34t-44 -83
q0 -47 30 -72.5t101 -38.5l115 -20q87 -15 133 -58.5t46 -125.5q0 -48 -19.5 -84t-54 -60t-82.5 -36t-104 -12q-109 0 -180.5 46t-90.5 144zM379 746h-96l-115 130h86l77 -80l77 80h86z" />
    <glyph glyph-name="Scommaaccent" unicode="&#x218;" horiz-adv-x="641" 
d="M55 180l81 14q16 -67 66.5 -97.5t126.5 -30.5q79 0 126 30.5t47 81.5q0 48 -28.5 74.5t-86.5 36.5l-119 20q-96 16 -143 60t-47 126q0 46 18.5 82t51.5 61t79.5 38.5t101.5 13.5q111 0 173.5 -50t77.5 -134l-80 -13q-12 51 -52.5 86t-120.5 35q-78 0 -122 -34t-44 -83
q0 -47 30 -72.5t101 -38.5l115 -20q87 -15 133 -58.5t46 -125.5q0 -48 -19.5 -84t-54 -60t-82.5 -36t-104 -12q-109 0 -180.5 46t-90.5 144zM289 -155v85h95v-76q0 -50 -21.5 -77.5t-70.5 -35.5l-11 43q31 7 43 23t12 38h-47z" />
    <glyph glyph-name="uni1E62" unicode="&#x1e62;" horiz-adv-x="641" 
d="M55 180l81 14q16 -67 66.5 -97.5t126.5 -30.5q79 0 126 30.5t47 81.5q0 48 -28.5 74.5t-86.5 36.5l-119 20q-96 16 -143 60t-47 126q0 46 18.5 82t51.5 61t79.5 38.5t101.5 13.5q111 0 173.5 -50t77.5 -134l-80 -13q-12 51 -52.5 86t-120.5 35q-78 0 -122 -34t-44 -83
q0 -47 30 -72.5t101 -38.5l115 -20q87 -15 133 -58.5t46 -125.5q0 -48 -19.5 -84t-54 -60t-82.5 -36t-104 -12q-109 0 -180.5 46t-90.5 144zM290 -167v96h91v-96h-91z" />
    <glyph glyph-name="T" unicode="T" horiz-adv-x="631" 
d="M20 600v80h591v-80h-252v-600h-86v600h-253z" />
    <glyph glyph-name="uni0162" unicode="&#x162;" horiz-adv-x="631" 
d="M20 600v80h591v-80h-252v-600h-86v600h-253zM267 -145v85h95v-76q0 -50 -21.5 -77.5t-70.5 -35.5l-11 43q31 7 43 23t12 38h-47z" />
    <glyph glyph-name="Tcaron" unicode="&#x164;" horiz-adv-x="631" 
d="M20 600v80h591v-80h-252v-600h-86v600h-253zM364 746h-96l-115 130h86l77 -80l77 80h86z" />
    <glyph glyph-name="uni021A" unicode="&#x21a;" horiz-adv-x="631" 
d="M20 600v80h591v-80h-252v-600h-86v600h-253zM267 -145v85h95v-76q0 -50 -21.5 -77.5t-70.5 -35.5l-11 43q31 7 43 23t12 38h-47z" />
    <glyph glyph-name="Tbar" unicode="&#x166;" horiz-adv-x="631" 
d="M497 289h-138v-290l-85 1v289h-139v72h139v239h-254v80h591v-80l-252 -1v-238h138v-72z" />
    <glyph glyph-name="U" unicode="U" horiz-adv-x="715" 
d="M549 267v413h86v-413q0 -137 -69.5 -207t-206.5 -70t-208 70t-71 207v413h86v-413q0 -115 53 -156.5t141 -41.5t138.5 41.5t50.5 156.5z" />
    <glyph glyph-name="Ugrave" unicode="&#xd9;" horiz-adv-x="715" 
d="M549 267v413h86v-413q0 -137 -69.5 -207t-206.5 -70t-208 70t-71 207v413h86v-413q0 -115 53 -156.5t141 -41.5t138.5 41.5t50.5 156.5zM338 876l90 -130h-81l-108 130h99z" />
    <glyph glyph-name="Uacute" unicode="&#xda;" horiz-adv-x="715" 
d="M549 267v413h86v-413q0 -137 -69.5 -207t-206.5 -70t-208 70t-71 207v413h86v-413q0 -115 53 -156.5t141 -41.5t138.5 41.5t50.5 156.5zM387 876h99l-108 -130h-81z" />
    <glyph glyph-name="Ucircumflex" unicode="&#xdb;" horiz-adv-x="715" 
d="M549 267v413h86v-413q0 -137 -69.5 -207t-206.5 -70t-208 70t-71 207v413h86v-413q0 -115 53 -156.5t141 -41.5t138.5 41.5t50.5 156.5zM407 876l115 -130h-86l-77 80l-77 -80h-86l115 130h96z" />
    <glyph glyph-name="Udieresis" unicode="&#xdc;" horiz-adv-x="715" 
d="M549 267v413h86v-413q0 -137 -69.5 -207t-206.5 -70t-208 70t-71 207v413h86v-413q0 -115 53 -156.5t141 -41.5t138.5 41.5t50.5 156.5zM222 764v94h88v-94h-88zM406 764v94h88v-94h-88z" />
    <glyph glyph-name="Utilde" unicode="&#x168;" horiz-adv-x="715" 
d="M549 267v413h86v-413q0 -137 -69.5 -207t-206.5 -70t-208 70t-71 207v413h86v-413q0 -115 53 -156.5t141 -41.5t138.5 41.5t50.5 156.5zM226 754v15q0 47 22.5 75t59.5 28q22 0 38.5 -8.5t29.5 -18t24 -18t23 -8.5q15 0 21.5 10.5t6.5 30.5v13h60v-15q0 -46 -21 -75
t-60 -29q-21 0 -37.5 8.5t-30.5 18.5t-25.5 18.5t-21.5 8.5q-16 0 -22.5 -12.5t-6.5 -28.5v-13h-60z" />
    <glyph glyph-name="Umacron" unicode="&#x16a;" horiz-adv-x="715" 
d="M549 267v413h86v-413q0 -137 -69.5 -207t-206.5 -70t-208 70t-71 207v413h86v-413q0 -115 53 -156.5t141 -41.5t138.5 41.5t50.5 156.5zM497 772h-277v68h277v-68z" />
    <glyph glyph-name="Ubreve" unicode="&#x16c;" horiz-adv-x="715" 
d="M549 267v413h86v-413q0 -137 -69.5 -207t-206.5 -70t-208 70t-71 207v413h86v-413q0 -115 53 -156.5t141 -41.5t138.5 41.5t50.5 156.5zM359 746q-71 0 -104 37.5t-34 90.5h66q4 -31 20.5 -50.5t51.5 -19.5q34 0 50 19.5t20 50.5h67q-2 -53 -34.5 -90.5t-102.5 -37.5z
" />
    <glyph glyph-name="Uring" unicode="&#x16e;" horiz-adv-x="715" 
d="M549 267v413h86v-413q0 -137 -69.5 -207t-206.5 -70t-208 70t-71 207v413h86v-413q0 -115 53 -156.5t141 -41.5t138.5 41.5t50.5 156.5zM358 708q-50 0 -84 32t-34 83t34 82t84 31q51 0 84.5 -31t33.5 -82t-33.5 -83t-84.5 -32zM358 762q28 0 44 18t16 43t-16 42t-44 17
q-27 0 -43.5 -17t-16.5 -42t16.5 -43t43.5 -18z" />
    <glyph glyph-name="Uhungarumlaut" unicode="&#x170;" horiz-adv-x="715" 
d="M549 267v413h86v-413q0 -137 -69.5 -207t-206.5 -70t-208 70t-71 207v413h86v-413q0 -115 53 -156.5t141 -41.5t138.5 41.5t50.5 156.5zM316 876h98l-107 -130h-82zM485 876h104l-126 -130h-87z" />
    <glyph glyph-name="Uogonek" unicode="&#x172;" horiz-adv-x="715" 
d="M408 -204q-22 0 -44 5.5t-39 16.5t-27.5 29t-10.5 42q0 33 19 59t47 42q-134 1 -203.5 71.5t-69.5 205.5v413h86v-413q0 -115 53 -156.5t141 -41.5t138.5 41.5t50.5 156.5v413h86v-413q0 -112 -46.5 -180t-139.5 -88q-33 -14 -58 -39.5t-25 -53.5q0 -22 16.5 -33.5
t40.5 -11.5q10 0 20 1.5t16 2.5l4 -61q-8 -4 -23 -6t-32 -2z" />
    <glyph glyph-name="uni01D3" unicode="&#x1d3;" horiz-adv-x="715" 
d="M549 267v413h86v-413q0 -137 -69.5 -207t-206.5 -70t-208 70t-71 207v413h86v-413q0 -115 53 -156.5t141 -41.5t138.5 41.5t50.5 156.5zM406 746h-96l-115 130h86l77 -80l77 80h86z" />
    <glyph glyph-name="V" unicode="V" horiz-adv-x="657" 
d="M290 0l-275 680h91l231 -577l222 577h90l-269 -680h-90z" />
    <glyph glyph-name="W" unicode="W" horiz-adv-x="1054" 
d="M591 680l187 -570l174 570h89l-220 -680h-92l-196 597l-195 -597h-92l-226 680h90l184 -570l182 570h115z" />
    <glyph glyph-name="Wcircumflex" unicode="&#x174;" horiz-adv-x="1054" 
d="M591 680l187 -570l174 570h89l-220 -680h-92l-196 597l-195 -597h-92l-226 680h90l184 -570l182 570h115zM585 876l115 -130h-86l-77 80l-77 -80h-86l115 130h96z" />
    <glyph glyph-name="Wgrave" unicode="&#x1e80;" horiz-adv-x="1054" 
d="M591 680l187 -570l174 570h89l-220 -680h-92l-196 597l-195 -597h-92l-226 680h90l184 -570l182 570h115zM478 876l90 -130h-81l-108 130h99z" />
    <glyph glyph-name="Wacute" unicode="&#x1e82;" horiz-adv-x="1054" 
d="M591 680l187 -570l174 570h89l-220 -680h-92l-196 597l-195 -597h-92l-226 680h90l184 -570l182 570h115zM583 876h99l-108 -130h-81z" />
    <glyph glyph-name="Wdieresis" unicode="&#x1e84;" horiz-adv-x="1054" 
d="M591 680l187 -570l174 570h89l-220 -680h-92l-196 597l-195 -597h-92l-226 680h90l184 -570l182 570h115zM395 764v94h88v-94h-88zM579 764v94h88v-94h-88z" />
    <glyph glyph-name="X" unicode="X" horiz-adv-x="636" 
d="M15 0l242 344l-235 336h103l190 -277l186 277h102l-233 -331l251 -349h-108l-200 287l-196 -287h-102z" />
    <glyph glyph-name="Y" unicode="Y" 
d="M288 0v260l-273 420h101l216 -331l213 331h97l-268 -414v-266h-86z" />
    <glyph glyph-name="Yacute" unicode="&#xdd;" 
d="M288 0v260l-273 420h101l216 -331l213 331h97l-268 -414v-266h-86zM362 876h99l-108 -130h-81z" />
    <glyph glyph-name="Ycircumflex" unicode="&#x176;" 
d="M288 0v260l-273 420h101l216 -331l213 331h97l-268 -414v-266h-86zM383 876l115 -130h-86l-77 80l-77 -80h-86l115 130h96z" />
    <glyph glyph-name="Ydieresis" unicode="&#x178;" 
d="M288 0v260l-273 420h101l216 -331l213 331h97l-268 -414v-266h-86zM193 764v94h88v-94h-88zM377 764v94h88v-94h-88z" />
    <glyph glyph-name="uni0232" unicode="&#x232;" 
d="M288 0v260l-273 420h101l216 -331l213 331h97l-268 -414v-266h-86zM475 772h-277v68h277v-68z" />
    <glyph glyph-name="Ygrave" unicode="&#x1ef2;" 
d="M288 0v260l-273 420h101l216 -331l213 331h97l-268 -414v-266h-86zM306 876l90 -130h-81l-108 130h99z" />
    <glyph glyph-name="Z" unicode="Z" horiz-adv-x="645" 
d="M54 0v82l443 520h-443v78h541v-81l-445 -521h441v-78h-537z" />
    <glyph glyph-name="Zacute" unicode="&#x179;" horiz-adv-x="645" 
d="M54 0v82l443 520h-443v78h541v-81l-445 -521h441v-78h-537zM363 876h99l-108 -130h-81z" />
    <glyph glyph-name="Zdotaccent" unicode="&#x17b;" horiz-adv-x="645" 
d="M54 0v82l443 520h-443v78h541v-81l-445 -521h441v-78h-537zM282 762v98h93v-98h-93z" />
    <glyph glyph-name="Zcaron" unicode="&#x17d;" horiz-adv-x="645" 
d="M54 0v82l443 520h-443v78h541v-81l-445 -521h441v-78h-537zM381 746h-96l-115 130h86l77 -80l77 80h86z" />
    <glyph glyph-name="Thorn" unicode="&#xde;" horiz-adv-x="621" 
d="M87 0v680h86v-120h173q110 0 169.5 -55t59.5 -154t-59 -156t-179 -57h-164v-138h-86zM346 481h-173v-264h173q76 0 109.5 34.5t33.5 98.5q0 69 -32.5 100t-110.5 31z" />
    <glyph glyph-name="uni018F" unicode="&#x18f;" horiz-adv-x="717" 
d="M55 308q0 15 1 32t2 31h518q-7 110 -63 176t-162 66q-85 0 -138 -43.5t-72 -112.5l-79 7q8 53 34 95t64.5 71t87.5 44.5t103 15.5q149 0 230 -93.5t81 -255.5q0 -83 -22.5 -148.5t-63.5 -110.5t-99.5 -68.5t-129.5 -23.5q-60 0 -113.5 21t-93 61.5t-62.5 100t-23 135.5z
M347 67q104 0 161 63t67 167h-437q2 -56 19.5 -99t45.5 -72t65.5 -44t78.5 -15z" />
    <glyph glyph-name="uni01C4" unicode="&#x1c4;" horiz-adv-x="1313" 
d="M87 0v680h257q160 0 244 -90t84 -250q0 -161 -85.5 -250.5t-252.5 -89.5h-247zM173 79h168q121 0 182 71t61 190q0 129 -61.5 195t-182.5 66h-167v-522zM722 0v82l443 520h-443v78h541v-81l-445 -521h441v-78h-537zM1049 746h-96l-115 130h86l77 -80l77 80h86z" />
    <glyph glyph-name="uni01C7" unicode="&#x1c7;" horiz-adv-x="962" 
d="M561 80v-80h-474v680h86v-600h388zM882 680v-496q0 -99 -47.5 -141.5t-138.5 -42.5h-85v79h76q53 0 81 24t28 81v496h86z" />
    <glyph glyph-name="uni01CA" unicode="&#x1ca;" horiz-adv-x="1085" 
d="M654 0h-115l-369 568v-568h-83v680h106l378 -581v581h83v-680zM1005 680v-496q0 -99 -47.5 -141.5t-138.5 -42.5h-85v79h76q53 0 81 24t28 81v496h86z" />
    <glyph glyph-name="uni01F1" unicode="&#x1f1;" horiz-adv-x="1313" 
d="M87 0v680h257q160 0 244 -90t84 -250q0 -161 -85.5 -250.5t-252.5 -89.5h-247zM173 79h168q121 0 182 71t61 190q0 129 -61.5 195t-182.5 66h-167v-522zM722 0v82l443 520h-443v78h541v-81l-445 -521h441v-78h-537z" />
    <glyph glyph-name="uni0402" unicode="&#x402;" horiz-adv-x="767" 
d="M441 0v78h38q75 0 114 30t39 102t-43.5 101.5t-127.5 29.5q-43 0 -86 -5.5t-75 -12.5v-323h-86v600h-194v80h542v-80h-262v-200q31 7 74.5 12.5t86.5 5.5q122 0 189 -45t67 -163q0 -59 -18 -99.5t-49.5 -65t-75.5 -35t-95 -10.5h-38z" />
    <glyph glyph-name="uni0404" unicode="&#x404;" horiz-adv-x="711" 
d="M659 471l-81 -14q-15 63 -63.5 109t-141.5 46q-99 0 -160.5 -59t-70.5 -172h310v-76h-311q8 -116 69 -176.5t163 -60.5q46 0 81 12.5t60 33.5t41 49t23 59l80 -13q-17 -97 -91 -158t-194 -61q-71 0 -130 21.5t-100.5 65t-64.5 109.5t-23 155q0 86 23 151.5t65 109t101 66
t130 22.5q119 0 192.5 -58t92.5 -161z" />
    <glyph glyph-name="uni0405" unicode="&#x405;" horiz-adv-x="641" 
d="M55 180l81 14q16 -67 66.5 -97.5t126.5 -30.5q79 0 126 30.5t47 81.5q0 48 -28.5 74.5t-86.5 36.5l-119 20q-96 16 -143 60t-47 126q0 46 18.5 82t51.5 61t79.5 38.5t101.5 13.5q111 0 173.5 -50t77.5 -134l-80 -13q-12 51 -52.5 86t-120.5 35q-78 0 -122 -34t-44 -83
q0 -47 30 -72.5t101 -38.5l115 -20q87 -15 133 -58.5t46 -125.5q0 -48 -19.5 -84t-54 -60t-82.5 -36t-104 -12q-109 0 -180.5 46t-90.5 144z" />
    <glyph glyph-name="uni0406" unicode="&#x406;" horiz-adv-x="260" 
d="M87 0v680h86v-680h-86z" />
    <glyph glyph-name="uni0407" unicode="&#x407;" horiz-adv-x="260" 
d="M87 0v680h86v-680h-86zM-6 764v94h88v-94h-88zM178 764v94h88v-94h-88z" />
    <glyph glyph-name="uni0407.alt" horiz-adv-x="260" 
d="M29 757v109h78v-109h-78zM153 757v109h78v-109h-78zM87 0v680h86v-680h-86z" />
    <glyph glyph-name="uni0408" unicode="&#x408;" horiz-adv-x="381" 
d="M301 680v-496q0 -99 -47.5 -141.5t-138.5 -42.5h-85v79h76q53 0 81 24t28 81v496h86z" />
    <glyph glyph-name="uni0409" unicode="&#x409;" horiz-adv-x="1049" 
d="M148 220q1 39 2 94t1.5 116.5t0.5 126v123.5h445v-258h164q120 0 179 -53t59 -160q0 -99 -59.5 -154t-169.5 -55h-259v600h-274q0 -46 -0.5 -101t-1 -108t-1.5 -101.5t-2 -81.5q-3 -106 -44.5 -157t-134.5 -51h-45v80h35q44 0 73.5 26.5t31.5 113.5zM770 343h-173v-264
h173q78 0 110.5 31t32.5 100q0 64 -33.5 98.5t-109.5 34.5z" />
    <glyph glyph-name="uni040A" unicode="&#x40a;" horiz-adv-x="1067" 
d="M87 0v680h86v-297h356v297h86v-258h164q120 0 179 -53t59 -160q0 -99 -59.5 -154t-169.5 -55h-259v303h-356v-303h-86zM788 343h-173v-264h173q78 0 110.5 31t32.5 100q0 64 -33.5 98.5t-109.5 34.5z" />
    <glyph glyph-name="uni040B" unicode="&#x40b;" horiz-adv-x="779" 
d="M476 341q-51 0 -93.5 -5t-82.5 -15v-321h-86v600h-194v80h542v-80h-262v-200q35 8 80.5 14.5t99.5 6.5q119 0 176.5 -50.5t57.5 -160.5v-210h-86v192q0 76 -34 112.5t-118 36.5z" />
    <glyph glyph-name="uni040F" unicode="&#x40f;" horiz-adv-x="720" 
d="M633 680v-680h-231v-143h-84v143h-231v680h86v-600h374v600h86z" />
    <glyph glyph-name="uni0410" unicode="&#x410;" horiz-adv-x="695" 
d="M400 680l265 -680h-93l-73 192h-306l-71 -192h-92l262 680h108zM222 270h248l-125 331z" />
    <glyph glyph-name="uni0411" unicode="&#x411;" horiz-adv-x="640" 
d="M87 0v680h460v-80h-374v-199h184q117 0 172.5 -51.5t55.5 -150.5t-59.5 -149t-169.5 -50h-269zM356 323h-183v-244h183q78 0 111.5 29.5t33.5 91.5q0 64 -34.5 93.5t-110.5 29.5z" />
    <glyph glyph-name="uni0412" unicode="&#x412;" horiz-adv-x="642" 
d="M87 0v680h260q100 0 161 -43.5t61 -142.5q0 -46 -20.5 -86t-74.5 -62q60 -15 86.5 -55t26.5 -101q0 -99 -66.5 -144.5t-173.5 -45.5h-260zM347 603h-176v-221h167q80 0 113.5 26.5t33.5 85.5q0 60 -32 84.5t-106 24.5zM348 307h-177v-230h185q75 0 110.5 27.5t35.5 85.5
q0 61 -36.5 89t-117.5 28z" />
    <glyph glyph-name="uni0413" unicode="&#x413;" horiz-adv-x="546" 
d="M87 0v680h439v-80h-353v-600h-86z" />
    <glyph glyph-name="uni0403" unicode="&#x403;" horiz-adv-x="546" 
d="M87 0v680h439v-80h-353v-600h-86zM334 880h99l-108 -130h-81z" />
    <glyph glyph-name="uni0414" unicode="&#x414;" horiz-adv-x="724" 
d="M10 -143v223h65q32 28 55.5 85.5t27.5 131.5q4 78 5.5 171t1.5 212h445v-600h90v-223h-84v143h-522v-143h-84zM240 297q-4 -63 -18.5 -118t-46.5 -99h349v520h-276q0 -33 -0.5 -71.5t-1.5 -78.5t-2.5 -79.5t-3.5 -73.5z" />
    <glyph glyph-name="uni0415" unicode="&#x415;" horiz-adv-x="631" 
d="M87 0v680h474v-80h-388v-217h375v-78h-375v-225h385v-80h-471z" />
    <glyph glyph-name="uni0400" unicode="&#x400;" horiz-adv-x="631" 
d="M87 0v680h474v-80h-388v-217h375v-78h-375v-225h385v-80h-471zM298 876l90 -130h-81l-108 130h99z" />
    <glyph glyph-name="uni0401" unicode="&#x401;" horiz-adv-x="631" 
d="M87 0v680h474v-80h-388v-217h375v-78h-375v-225h385v-80h-471zM193 764v94h88v-94h-88zM377 764v94h88v-94h-88z" />
    <glyph glyph-name="uni0416" unicode="&#x416;" horiz-adv-x="946" 
d="M430 0v304h-93l-206 -304h-109l243 345l-232 335h105l196 -296h96v296h86v-296h96l196 296h105l-232 -335l243 -345h-109l-206 304h-93v-304h-86z" />
    <glyph glyph-name="uni0417" unicode="&#x417;" horiz-adv-x="643" 
d="M339 612q-79 0 -127.5 -40t-65.5 -106l-81 15q20 100 92 154.5t183 54.5q106 0 173 -48t67 -145q0 -57 -28 -95.5t-80 -54.5q55 -13 87 -49.5t32 -105.5q0 -97 -72.5 -149.5t-188.5 -52.5q-115 0 -187 54t-85 159l81 13q13 -72 62 -110t133 -38q83 0 127 34t44 96
q0 53 -36 82t-111 29h-99v75h99q73 0 105 30t32 81q0 54 -40 85.5t-116 31.5z" />
    <glyph glyph-name="uni0418" unicode="&#x418;" horiz-adv-x="732" 
d="M561 0v583l-376 -583h-98v680h84v-575l369 575h105v-680h-84z" />
    <glyph glyph-name="uni040D" unicode="&#x40d;" horiz-adv-x="732" 
d="M561 0v583l-376 -583h-98v680h84v-575l369 575h105v-680h-84zM324 876l90 -130h-81l-108 130h99z" />
    <glyph glyph-name="uni0419" unicode="&#x419;" horiz-adv-x="732" 
d="M561 0v583l-376 -583h-98v680h84v-575l369 575h105v-680h-84zM202 866h71q2 -32 21.5 -53.5t66.5 -21.5t67 21.5t21 53.5h71q-1 -63 -39.5 -99.5t-119.5 -36.5t-119.5 36.5t-39.5 99.5z" />
    <glyph glyph-name="uni041A" unicode="&#x41a;" horiz-adv-x="634" 
d="M87 0v680h86v-296h127l196 296h105l-232 -335l243 -345h-108l-206 304h-125v-304h-86z" />
    <glyph glyph-name="uni040C" unicode="&#x40c;" horiz-adv-x="634" 
d="M87 0v680h86v-296h127l196 296h105l-232 -335l243 -345h-108l-206 304h-125v-304h-86zM356 876h99l-108 -130h-81z" />
    <glyph glyph-name="uni041B" unicode="&#x41b;" horiz-adv-x="704" 
d="M148 220q1 39 2 94t1.5 116.5t1 126t0.5 123.5h464v-680h-86v600h-294q0 -46 -0.5 -101t-1 -108t-1.5 -101.5t-2 -81.5q-3 -106 -44.5 -157t-134.5 -51h-45v80h35q44 0 73.5 26.5t31.5 113.5z" />
    <glyph glyph-name="uni041C" unicode="&#x41c;" horiz-adv-x="880" 
d="M398 62l-230 537v-599h-81v680h135l220 -516l216 516h135v-680h-85v599l-230 -537h-80z" />
    <glyph glyph-name="uni041D" unicode="&#x41d;" horiz-adv-x="722" 
d="M87 0v680h86v-297h376v297h86v-680h-86v303h-376v-303h-86z" />
    <glyph glyph-name="uni041E" unicode="&#x41e;" horiz-adv-x="761" 
d="M381 -10q-74 0 -134.5 24t-103 68.5t-65.5 110t-23 147.5q0 80 23 145t65.5 110.5t103 70t134.5 24.5t134.5 -24.5t102.5 -70t65 -110.5t23 -145q0 -82 -23 -147.5t-65 -110t-102.5 -68.5t-134.5 -24zM381 68q114 0 176.5 75t62.5 197q0 123 -62.5 197.5t-176.5 74.5
t-177 -74.5t-63 -197.5q0 -122 63 -197t177 -75z" />
    <glyph glyph-name="uni041F" unicode="&#x41f;" horiz-adv-x="714" 
d="M87 0v680h540v-680h-86v600h-368v-600h-86z" />
    <glyph glyph-name="uni0420" unicode="&#x420;" horiz-adv-x="625" 
d="M87 0v680h269q111 0 170 -55t59 -154t-58.5 -156t-179.5 -57h-174v-258h-86zM173 337h181q75 0 109.5 34.5t34.5 98.5q0 69 -33.5 100t-110.5 31h-181v-264z" />
    <glyph glyph-name="uni0421" unicode="&#x421;" horiz-adv-x="711" 
d="M373 68q93 0 142.5 42.5t64.5 113.5l81 -13q-19 -107 -94 -164t-194 -57q-146 0 -232 93.5t-86 255.5q0 83 23 148.5t64.5 110.5t100.5 68.5t130 23.5q120 0 194.5 -57t91.5 -164l-81 -13q-15 67 -63.5 111.5t-141.5 44.5q-57 0 -101 -20t-73 -55.5t-44 -86t-15 -111.5
q0 -122 60.5 -196.5t172.5 -74.5z" />
    <glyph glyph-name="uni0422" unicode="&#x422;" horiz-adv-x="631" 
d="M20 600v80h591v-80h-252v-600h-86v600h-253z" />
    <glyph glyph-name="uni0423" unicode="&#x423;" horiz-adv-x="612" 
d="M360 144q-33 -72 -74.5 -108t-118.5 -36h-68v79h62q44 0 71 18t47 58l-264 525h97l211 -431l191 431h90z" />
    <glyph glyph-name="uni040E" unicode="&#x40e;" horiz-adv-x="612" 
d="M360 144q-33 -72 -74.5 -108t-118.5 -36h-68v79h62q44 0 71 18t47 58l-264 525h97l211 -431l191 431h90zM159 866h71q2 -32 21.5 -53.5t66.5 -21.5t67 21.5t21 53.5h71q-1 -63 -39.5 -99.5t-119.5 -36.5t-119.5 36.5t-39.5 99.5z" />
    <glyph glyph-name="uni0424" unicode="&#x424;" horiz-adv-x="828" 
d="M373 -15v81q-64 0 -122.5 15.5t-103 48.5t-71 86.5t-26.5 128.5q0 74 26.5 127t70.5 86.5t102.5 49.5t123.5 17v76h83v-76q65 0 123.5 -16t102.5 -50t70 -87t26 -127q0 -75 -26 -128.5t-70.5 -86.5t-103 -48.5t-122.5 -15.5v-81h-83zM694 345q0 57 -19.5 96.5t-52 63
t-76.5 34t-92 10.5v-407q49 0 93 11t76.5 34.5t51.5 62.5t19 95zM134 345q0 -57 20 -96t53 -62.5t77 -34t91 -10.5v407q-49 -1 -93 -11.5t-76.5 -34t-52 -62.5t-19.5 -96z" />
    <glyph glyph-name="uni0425" unicode="&#x425;" horiz-adv-x="636" 
d="M15 0l242 344l-235 336h103l190 -277l186 277h102l-233 -331l251 -349h-108l-200 287l-196 -287h-102z" />
    <glyph glyph-name="uni0426" unicode="&#x426;" horiz-adv-x="747" 
d="M633 680v-600h90v-223h-84v143h-552v680h86v-600h374v600h86z" />
    <glyph glyph-name="uni0427" unicode="&#x427;" horiz-adv-x="646" 
d="M146 491q0 -76 34 -112.5t118 -36.5q49 0 92 4.5t83 14.5v318h86v-680h-86v284q-35 -8 -80 -14.5t-99 -6.5q-119 0 -176.5 50.5t-57.5 160.5v207h86v-189z" />
    <glyph glyph-name="uni0428" unicode="&#x428;" horiz-adv-x="1000" 
d="M87 0v680h86v-600h284v600h86v-600h284v600h86v-680h-826z" />
    <glyph glyph-name="uni0429" unicode="&#x429;" horiz-adv-x="1027" 
d="M87 0v680h86v-600h284v600h86v-600h284v600h86v-600h90v-223h-84v143h-832z" />
    <glyph glyph-name="uni042A" unicode="&#x42a;" horiz-adv-x="765" 
d="M20 600v80h287v-258h170q120 0 179 -53t59 -160q0 -99 -59.5 -154t-169.5 -55h-265v600h-201zM486 79q78 0 110.5 31t32.5 100q0 64 -33.5 98.5t-109.5 34.5h-179v-264h179z" />
    <glyph glyph-name="uni042B" unicode="&#x42b;" horiz-adv-x="850" 
d="M87 680h86v-258h164q120 0 179 -53t59 -160q0 -99 -59.5 -154t-169.5 -55h-259v680zM677 0v680h86v-680h-86zM346 79q78 0 110.5 31t32.5 100q0 64 -33.5 98.5t-109.5 34.5h-173v-264h173z" />
    <glyph glyph-name="uni042C" unicode="&#x42c;" horiz-adv-x="635" 
d="M87 680h86v-258h174q120 0 179 -53t59 -160q0 -99 -59.5 -154t-169.5 -55h-269v680zM356 79q78 0 110.5 31t32.5 100q0 64 -33.5 98.5t-109.5 34.5h-183v-264h183z" />
    <glyph glyph-name="uni042D" unicode="&#x42d;" horiz-adv-x="716" 
d="M55 209l81 14q15 -66 67.5 -110.5t143.5 -44.5q104 0 162 60.5t66 176.5h-311v76h311q-8 115 -64 173t-157 58q-87 0 -140 -42.5t-75 -111.5l-80 14q25 104 105.5 161t189.5 57q140 0 223.5 -86t83.5 -261q0 -174 -84 -263.5t-230 -89.5q-118 0 -195.5 56.5t-96.5 162.5z
" />
    <glyph glyph-name="uni042E" unicode="&#x42e;" horiz-adv-x="992" 
d="M616 -10q-137 0 -221.5 82t-95.5 228h-126v-300h-86v680h86v-300h126q11 143 95.5 226.5t221.5 83.5q73 0 132.5 -24.5t101.5 -70t64.5 -110.5t22.5 -145q0 -82 -22.5 -147.5t-64.5 -110t-101.5 -68.5t-132.5 -24zM616 69q113 0 174.5 74.5t61.5 196.5q0 123 -61.5 197
t-174.5 74t-173 -74t-60 -197q0 -122 60 -196.5t173 -74.5z" />
    <glyph glyph-name="uni042F" unicode="&#x42f;" horiz-adv-x="665" 
d="M578 0h-86v258h-178h-1l-170 -258h-103l183 269q-74 19 -110.5 71.5t-36.5 130.5q0 99 59.5 154t169.5 55h273v-680zM305 601q-75 0 -109 -32.5t-34 -98.5q0 -64 33.5 -98.5t109.5 -34.5h187v264h-187z" />
    <glyph glyph-name="uni0462" unicode="&#x462;" horiz-adv-x="764" 
d="M211 0v544h-201v76h201v97h85v-97h305v-76h-305v-143h185q117 0 172.5 -47.5t55.5 -154.5q0 -99 -57 -149t-172 -50h-269zM480 323h-184v-244h184q78 0 111.5 29.5t33.5 91.5q0 64 -34.5 93.5t-110.5 29.5z" />
    <glyph glyph-name="uni0472" unicode="&#x472;" horiz-adv-x="761" 
d="M381 -10q-74 0 -134.5 24t-103 68.5t-65.5 110t-23 147.5q0 80 23 145t65.5 110.5t103 70t134.5 24.5t134.5 -24.5t102.5 -70t65 -110.5t23 -145q0 -82 -23 -147.5t-65 -110t-102.5 -68.5t-134.5 -24zM381 614q-104 0 -167 -63.5t-73 -168.5h479q-10 105 -72.5 168.5
t-166.5 63.5zM381 66q107 0 169.5 66.5t70.5 175.5h-481q8 -109 71 -175.5t170 -66.5z" />
    <glyph glyph-name="uni0474" unicode="&#x474;" horiz-adv-x="682" 
d="M510 575q19 54 46 79.5t86 25.5h40v-80h-30q-27 0 -42 -12t-25 -41l-202 -547h-90l-278 680h91l234 -578z" />
    <glyph glyph-name="uni0490" unicode="&#x490;" horiz-adv-x="542" 
d="M87 0v680h355v130h80v-210h-349v-600h-86z" />
    <glyph glyph-name="uni0492" unicode="&#x492;" horiz-adv-x="546" 
d="M87 0v287h-70v72h70v321h439v-80h-354v-241h191v-72h-191v-287h-85z" />
    <glyph glyph-name="uni049A" unicode="&#x49a;" horiz-adv-x="641" 
d="M87 0v680h86v-296h127l196 296h105l-232 -335l187 -265h80v-223h-84v143h-48l-206 304h-125v-304h-86z" />
    <glyph glyph-name="uni04A2" unicode="&#x4a2;" horiz-adv-x="749" 
d="M87 0v680h86v-297h376v297h86v-600h90v-223h-84v143h-92v303h-376v-303h-86z" />
    <glyph glyph-name="uni04AE" unicode="&#x4ae;" 
d="M288 0v260l-273 420h101l216 -331l213 331h97l-268 -414v-266h-86z" />
    <glyph glyph-name="uni04B0" unicode="&#x4b0;" 
d="M289 0v225h-164v72h142l-252 383h101l216 -331l213 331h97l-251 -383h142v-72h-160v-225h-84z" />
    <glyph glyph-name="uni04BA" unicode="&#x4ba;" horiz-adv-x="651" 
d="M500 188q0 76 -34 112.5t-118 36.5q-51 0 -93 -5t-82 -15v-317h-86v680h86v-284q35 8 80 14.5t99 6.5q119 0 176.5 -50.5t57.5 -160.5v-207h-86v189z" />
    <glyph glyph-name="uni04D8" unicode="&#x4d8;" horiz-adv-x="717" 
d="M55 308q0 15 1 32t2 31h518q-7 110 -63 176t-162 66q-85 0 -138 -43.5t-72 -112.5l-79 7q8 53 34 95t64.5 71t87.5 44.5t103 15.5q149 0 230 -93.5t81 -255.5q0 -83 -22.5 -148.5t-63.5 -110.5t-99.5 -68.5t-129.5 -23.5q-60 0 -113.5 21t-93 61.5t-62.5 100t-23 135.5z
M347 67q104 0 161 63t67 167h-437q2 -56 19.5 -99t45.5 -72t65.5 -44t78.5 -15z" />
    <glyph glyph-name="uni04E8" unicode="&#x4e8;" horiz-adv-x="761" 
d="M381 -10q-74 0 -134.5 24t-103 68.5t-65.5 110t-23 147.5q0 80 23 145t65.5 110.5t103 70t134.5 24.5t134.5 -24.5t102.5 -70t65 -110.5t23 -145q0 -82 -23 -147.5t-65 -110t-102.5 -68.5t-134.5 -24zM381 614q-104 0 -167 -63.5t-73 -168.5h479q-10 105 -72.5 168.5
t-166.5 63.5zM381 66q107 0 169.5 66.5t70.5 175.5h-481q8 -109 71 -175.5t170 -66.5z" />
    <glyph glyph-name="a" unicode="a" horiz-adv-x="518" 
d="M373 0v56q-22 -29 -60.5 -47.5t-89.5 -18.5q-78 0 -123.5 38t-45.5 104q0 74 49.5 107t131.5 36q37 1 69 0.5t64 -1.5v41q0 52 -30 76t-76 24q-51 0 -77.5 -25t-38.5 -61l-76 16q15 63 64 102t128 39q81 0 133.5 -40.5t52.5 -127.5v-318h-75zM368 211q-30 1 -63.5 1
t-67.5 -1q-51 -2 -77 -22t-26 -56q0 -34 24.5 -54.5t66.5 -20.5q60 0 101.5 29.5t41.5 77.5v46z" />
    <glyph glyph-name="agrave" unicode="&#xe0;" horiz-adv-x="518" 
d="M373 0v56q-22 -29 -60.5 -47.5t-89.5 -18.5q-78 0 -123.5 38t-45.5 104q0 74 49.5 107t131.5 36q37 1 69 0.5t64 -1.5v41q0 52 -30 76t-76 24q-51 0 -77.5 -25t-38.5 -61l-76 16q15 63 64 102t128 39q81 0 133.5 -40.5t52.5 -127.5v-318h-75zM368 211q-30 1 -63.5 1
t-67.5 -1q-51 -2 -77 -22t-26 -56q0 -34 24.5 -54.5t66.5 -20.5q60 0 101.5 29.5t41.5 77.5v46zM231 670h-96l108 -130h78z" />
    <glyph glyph-name="aacute" unicode="&#xe1;" horiz-adv-x="518" 
d="M373 0v56q-22 -29 -60.5 -47.5t-89.5 -18.5q-78 0 -123.5 38t-45.5 104q0 74 49.5 107t131.5 36q37 1 69 0.5t64 -1.5v41q0 52 -30 76t-76 24q-51 0 -77.5 -25t-38.5 -61l-76 16q15 63 64 102t128 39q81 0 133.5 -40.5t52.5 -127.5v-318h-75zM368 211q-30 1 -63.5 1
t-67.5 -1q-51 -2 -77 -22t-26 -56q0 -34 24.5 -54.5t66.5 -20.5q60 0 101.5 29.5t41.5 77.5v46zM292 670h96l-108 -130h-78z" />
    <glyph glyph-name="acircumflex" unicode="&#xe2;" horiz-adv-x="518" 
d="M373 0v56q-22 -29 -60.5 -47.5t-89.5 -18.5q-78 0 -123.5 38t-45.5 104q0 74 49.5 107t131.5 36q37 1 69 0.5t64 -1.5v41q0 52 -30 76t-76 24q-51 0 -77.5 -25t-38.5 -61l-76 16q15 63 64 102t128 39q81 0 133.5 -40.5t52.5 -127.5v-318h-75zM368 211q-30 1 -63.5 1
t-67.5 -1q-51 -2 -77 -22t-26 -56q0 -34 24.5 -54.5t66.5 -20.5q60 0 101.5 29.5t41.5 77.5v46zM305 670l108 -130h-76l-80 81l-80 -81h-76l108 130h96z" />
    <glyph glyph-name="atilde" unicode="&#xe3;" horiz-adv-x="518" 
d="M373 0v56q-22 -29 -60.5 -47.5t-89.5 -18.5q-78 0 -123.5 38t-45.5 104q0 74 49.5 107t131.5 36q37 1 69 0.5t64 -1.5v41q0 52 -30 76t-76 24q-51 0 -77.5 -25t-38.5 -61l-76 16q15 63 64 102t128 39q81 0 133.5 -40.5t52.5 -127.5v-318h-75zM368 211q-30 1 -63.5 1
t-67.5 -1q-51 -2 -77 -22t-26 -56q0 -34 24.5 -54.5t66.5 -20.5q60 0 101.5 29.5t41.5 77.5v46zM117 546v10q0 46 20 75.5t61 29.5q19 0 35.5 -8t30.5 -17.5t26 -17.5t22 -8q13 0 19 10t6 29v14h61v-15q0 -46 -20 -73.5t-57 -27.5q-19 0 -36 8t-32 18t-27.5 18t-22.5 8
q-13 0 -19 -11.5t-6 -30.5v-11h-61z" />
    <glyph glyph-name="adieresis" unicode="&#xe4;" horiz-adv-x="518" 
d="M373 0v56q-22 -29 -60.5 -47.5t-89.5 -18.5q-78 0 -123.5 38t-45.5 104q0 74 49.5 107t131.5 36q37 1 69 0.5t64 -1.5v41q0 52 -30 76t-76 24q-51 0 -77.5 -25t-38.5 -61l-76 16q15 63 64 102t128 39q81 0 133.5 -40.5t52.5 -127.5v-318h-75zM368 211q-30 1 -63.5 1
t-67.5 -1q-51 -2 -77 -22t-26 -56q0 -34 24.5 -54.5t66.5 -20.5q60 0 101.5 29.5t41.5 77.5v46zM115 568v94h88v-94h-88zM299 568v94h88v-94h-88z" />
    <glyph glyph-name="aring" unicode="&#xe5;" horiz-adv-x="518" 
d="M373 0v56q-22 -29 -60.5 -47.5t-89.5 -18.5q-78 0 -123.5 38t-45.5 104q0 74 49.5 107t131.5 36q37 1 69 0.5t64 -1.5v41q0 52 -30 76t-76 24q-51 0 -77.5 -25t-38.5 -61l-76 16q15 63 64 102t128 39q81 0 133.5 -40.5t52.5 -127.5v-318h-75zM368 211q-30 1 -63.5 1
t-67.5 -1q-51 -2 -77 -22t-26 -56q0 -34 24.5 -54.5t66.5 -20.5q60 0 101.5 29.5t41.5 77.5v46zM271 524q-40 0 -68.5 26t-28.5 69t28.5 69t68.5 26t68.5 -26t28.5 -69t-28.5 -69t-68.5 -26zM271 574q20 0 32.5 13t12.5 32t-12.5 32t-32.5 13t-32.5 -13t-12.5 -32t12.5 -32
t32.5 -13z" />
    <glyph glyph-name="amacron" unicode="&#x101;" horiz-adv-x="518" 
d="M373 0v56q-22 -29 -60.5 -47.5t-89.5 -18.5q-78 0 -123.5 38t-45.5 104q0 74 49.5 107t131.5 36q37 1 69 0.5t64 -1.5v41q0 52 -30 76t-76 24q-51 0 -77.5 -25t-38.5 -61l-76 16q15 63 64 102t128 39q81 0 133.5 -40.5t52.5 -127.5v-318h-75zM368 211q-30 1 -63.5 1
t-67.5 -1q-51 -2 -77 -22t-26 -56q0 -34 24.5 -54.5t66.5 -20.5q60 0 101.5 29.5t41.5 77.5v46zM380 582h-250v68h250v-68z" />
    <glyph glyph-name="abreve" unicode="&#x103;" horiz-adv-x="518" 
d="M373 0v56q-22 -29 -60.5 -47.5t-89.5 -18.5q-78 0 -123.5 38t-45.5 104q0 74 49.5 107t131.5 36q37 1 69 0.5t64 -1.5v41q0 52 -30 76t-76 24q-51 0 -77.5 -25t-38.5 -61l-76 16q15 63 64 102t128 39q81 0 133.5 -40.5t52.5 -127.5v-318h-75zM368 211q-30 1 -63.5 1
t-67.5 -1q-51 -2 -77 -22t-26 -56q0 -34 24.5 -54.5t66.5 -20.5q60 0 101.5 29.5t41.5 77.5v46zM253 531q-67 0 -99.5 35.5t-35.5 88.5h66q4 -28 19 -47t50 -19q34 0 48 19t18 47h67q-4 -53 -35.5 -88.5t-97.5 -35.5z" />
    <glyph glyph-name="aogonek" unicode="&#x105;" horiz-adv-x="518" 
d="M410 -201q-45 0 -78.5 23t-33.5 72q0 35 20.5 62.5t54.5 49.5v50q-22 -29 -60.5 -47.5t-89.5 -18.5q-78 0 -123.5 38t-45.5 104q0 74 49.5 107t131.5 36q37 1 69 0.5t64 -1.5v41q0 52 -30 76t-76 24q-51 0 -77.5 -25t-38.5 -61l-76 16q15 63 64 102t128 39
q81 0 133.5 -40.5t52.5 -127.5v-318q-29 -14 -51.5 -38t-22.5 -53q0 -23 14 -34t36 -11q13 0 22 1.5l15 2.5l4 -61q-10 -4 -24 -6t-31 -2zM368 211q-30 1 -63.5 1t-67.5 -1q-51 -2 -77 -22t-26 -56q0 -34 24.5 -54.5t66.5 -20.5q60 0 101.5 29.5t41.5 77.5v46z" />
    <glyph glyph-name="ae" unicode="&#xe6;" horiz-adv-x="841" 
d="M796 134q-17 -67 -70 -105.5t-136 -38.5q-62 0 -113 29.5t-72 75.5q-19 -49 -71 -77t-114 -28q-75 0 -120.5 36t-45.5 103q0 76 49 108.5t132 36.5q37 2 69 2.5t64 0.5v38q0 52 -30 76t-76 24q-51 0 -78.5 -25t-38.5 -61l-75 15q15 63 64.5 102.5t127.5 39.5
q64 0 104.5 -25t56.5 -56q28 42 75.5 61.5t93.5 19.5q95 0 151 -61t56 -170v-33h-352q4 -78 44 -120t102 -42q56 0 87 26t41 60zM591 417q-56 0 -94 -35.5t-47 -95.5h271q-1 57 -34 94t-96 37zM368 214q-30 0 -64.5 -1t-67.5 -3q-51 -4 -76.5 -23.5t-25.5 -53.5
q0 -35 25 -55t68 -20q57 0 99 27t42 84v45z" />
    <glyph glyph-name="aeacute" unicode="&#x1fd;" horiz-adv-x="841" 
d="M796 134q-17 -67 -70 -105.5t-136 -38.5q-62 0 -113 29.5t-72 75.5q-19 -49 -71 -77t-114 -28q-75 0 -120.5 36t-45.5 103q0 76 49 108.5t132 36.5q37 2 69 2.5t64 0.5v38q0 52 -30 76t-76 24q-51 0 -78.5 -25t-38.5 -61l-75 15q15 63 64.5 102.5t127.5 39.5
q64 0 104.5 -25t56.5 -56q28 42 75.5 61.5t93.5 19.5q95 0 151 -61t56 -170v-33h-352q4 -78 44 -120t102 -42q56 0 87 26t41 60zM591 417q-56 0 -94 -35.5t-47 -95.5h271q-1 57 -34 94t-96 37zM368 214q-30 0 -64.5 -1t-67.5 -3q-51 -4 -76.5 -23.5t-25.5 -53.5
q0 -35 25 -55t68 -20q57 0 99 27t42 84v45zM466 670h96l-108 -130h-78z" />
    <glyph glyph-name="uni01E3" unicode="&#x1e3;" horiz-adv-x="841" 
d="M796 134q-17 -67 -70 -105.5t-136 -38.5q-62 0 -113 29.5t-72 75.5q-19 -49 -71 -77t-114 -28q-75 0 -120.5 36t-45.5 103q0 76 49 108.5t132 36.5q37 2 69 2.5t64 0.5v38q0 52 -30 76t-76 24q-51 0 -78.5 -25t-38.5 -61l-75 15q15 63 64.5 102.5t127.5 39.5
q64 0 104.5 -25t56.5 -56q28 42 75.5 61.5t93.5 19.5q95 0 151 -61t56 -170v-33h-352q4 -78 44 -120t102 -42q56 0 87 26t41 60zM591 417q-56 0 -94 -35.5t-47 -95.5h271q-1 57 -34 94t-96 37zM368 214q-30 0 -64.5 -1t-67.5 -3q-51 -4 -76.5 -23.5t-25.5 -53.5
q0 -35 25 -55t68 -20q57 0 99 27t42 84v45zM553 582h-250v68h250v-68z" />
    <glyph glyph-name="b" unicode="b" horiz-adv-x="576" 
d="M75 0v680h80v-268q31 43 77 58.5t86 15.5q44 0 82.5 -15.5t67.5 -46t45.5 -76.5t16.5 -106q0 -117 -62 -184.5t-163 -67.5q-51 0 -88.5 17.5t-64.5 47.5v-55h-77zM155 199q0 -65 45.5 -101t105.5 -36q66 0 104.5 48.5t38.5 129.5q0 78 -38.5 126t-106.5 48
q-28 0 -54.5 -10t-47.5 -29t-34 -48.5t-13 -68.5v-59z" />
    <glyph glyph-name="c" unicode="c" horiz-adv-x="510" 
d="M399 155l75 -12q-14 -64 -64.5 -108.5t-140.5 -44.5q-99 0 -161 63t-62 185q0 63 17.5 109.5t47.5 77.5t71 46t88 15q93 0 141.5 -45t60.5 -105l-73 -14q-9 34 -38 63.5t-91 29.5q-69 0 -106.5 -47.5t-37.5 -129.5q0 -79 37 -128t106 -49q63 0 91.5 29.5t38.5 64.5z" />
    <glyph glyph-name="ccedilla" unicode="&#xe7;" horiz-adv-x="510" 
d="M264 -210q-49 0 -79 17t-39 57l60 14q5 -17 19.5 -26t37.5 -9t35.5 8t12.5 25q0 19 -17.5 25.5t-57.5 5.5l-22 -1v45l33 40q-90 7 -145.5 69t-55.5 178q0 63 17.5 109.5t47.5 77.5t71 46t88 15q93 0 141.5 -45t60.5 -105l-73 -14q-9 34 -38 63.5t-91 29.5
q-69 0 -106.5 -47.5t-37.5 -129.5q0 -79 37 -128t106 -49q63 0 91.5 29.5t38.5 64.5l75 -12q-12 -55 -51 -97t-108 -52l-32 -38q46 -2 70.5 -20t24.5 -58q0 -38 -28.5 -63t-85.5 -25z" />
    <glyph glyph-name="cacute" unicode="&#x107;" horiz-adv-x="510" 
d="M399 155l75 -12q-14 -64 -64.5 -108.5t-140.5 -44.5q-99 0 -161 63t-62 185q0 63 17.5 109.5t47.5 77.5t71 46t88 15q93 0 141.5 -45t60.5 -105l-73 -14q-9 34 -38 63.5t-91 29.5q-69 0 -106.5 -47.5t-37.5 -129.5q0 -79 37 -128t106 -49q63 0 91.5 29.5t38.5 64.5z
M300 670h96l-108 -130h-78z" />
    <glyph glyph-name="ccircumflex" unicode="&#x109;" horiz-adv-x="510" 
d="M399 155l75 -12q-14 -64 -64.5 -108.5t-140.5 -44.5q-99 0 -161 63t-62 185q0 63 17.5 109.5t47.5 77.5t71 46t88 15q93 0 141.5 -45t60.5 -105l-73 -14q-9 34 -38 63.5t-91 29.5q-69 0 -106.5 -47.5t-37.5 -129.5q0 -79 37 -128t106 -49q63 0 91.5 29.5t38.5 64.5z
M316 670l108 -130h-76l-80 81l-80 -81h-76l108 130h96z" />
    <glyph glyph-name="cdotaccent" unicode="&#x10b;" horiz-adv-x="510" 
d="M399 155l75 -12q-14 -64 -64.5 -108.5t-140.5 -44.5q-99 0 -161 63t-62 185q0 63 17.5 109.5t47.5 77.5t71 46t88 15q93 0 141.5 -45t60.5 -105l-73 -14q-9 34 -38 63.5t-91 29.5q-69 0 -106.5 -47.5t-37.5 -129.5q0 -79 37 -128t106 -49q63 0 91.5 29.5t38.5 64.5z
M226 568v96h91v-96h-91z" />
    <glyph glyph-name="ccaron" unicode="&#x10d;" horiz-adv-x="510" 
d="M399 155l75 -12q-14 -64 -64.5 -108.5t-140.5 -44.5q-99 0 -161 63t-62 185q0 63 17.5 109.5t47.5 77.5t71 46t88 15q93 0 141.5 -45t60.5 -105l-73 -14q-9 34 -38 63.5t-91 29.5q-69 0 -106.5 -47.5t-37.5 -129.5q0 -79 37 -128t106 -49q63 0 91.5 29.5t38.5 64.5z
M311 540h-96l-106 130h76l78 -80l78 80h76z" />
    <glyph glyph-name="d" unicode="d" horiz-adv-x="575" 
d="M423 0v61q-22 -35 -61.5 -53t-92.5 -18q-98 0 -160.5 65.5t-62.5 183.5q0 116 65 181.5t166 65.5q43 0 80.5 -16t62.5 -45v255h80v-680h-77zM420 220v42q0 76 -42.5 114t-102.5 38q-68 0 -108.5 -47t-40.5 -128q0 -76 38.5 -126.5t109.5 -50.5q72 0 109 46t37 112z" />
    <glyph glyph-name="dcaron" unicode="&#x10f;" horiz-adv-x="575" 
d="M423 0v61q-22 -35 -61.5 -53t-92.5 -18q-98 0 -160.5 65.5t-62.5 183.5q0 116 65 181.5t166 65.5q43 0 80.5 -16t62.5 -45v255h80v-680h-77zM420 220v42q0 76 -42.5 114t-102.5 38q-68 0 -108.5 -47t-40.5 -128q0 -76 38.5 -126.5t109.5 -50.5q72 0 109 46t37 112z
M568 690h80l-53 -184h-57z" />
    <glyph glyph-name="dcroat" unicode="&#x111;" horiz-adv-x="575" 
d="M423 0v61q-22 -35 -61.5 -53t-92.5 -18q-98 0 -160.5 65.5t-62.5 183.5q0 116 65 181.5t166 65.5q45 0 83 -16.5t62 -46.5v137h-152v62h152v58h78v-58h60v-62h-60v-560h-77zM420 220v42q0 76 -42.5 114t-102.5 38q-68 0 -108.5 -47t-40.5 -128q0 -76 38.5 -126.5
t109.5 -50.5q72 0 109 46t37 112z" />
    <glyph glyph-name="e" unicode="e" horiz-adv-x="518" 
d="M476 224h-352q4 -80 44 -122t102 -42q56 0 87 26t41 60l75 -13q-17 -67 -70 -105t-136 -38q-102 0 -162.5 66.5t-60.5 181.5q0 59 17.5 105.5t47.5 78t71.5 48t88.5 16.5q95 0 151 -60t56 -169v-33zM268 417q-56 0 -93.5 -35t-47.5 -92h269q-3 55 -34 91t-94 36z" />
    <glyph glyph-name="egrave" unicode="&#xe8;" horiz-adv-x="518" 
d="M476 224h-352q4 -80 44 -122t102 -42q56 0 87 26t41 60l75 -13q-17 -67 -70 -105t-136 -38q-102 0 -162.5 66.5t-60.5 181.5q0 59 17.5 105.5t47.5 78t71.5 48t88.5 16.5q95 0 151 -60t56 -169v-33zM268 417q-56 0 -93.5 -35t-47.5 -92h269q-3 55 -34 91t-94 36zM226 670
h-96l108 -130h78z" />
    <glyph glyph-name="eacute" unicode="&#xe9;" horiz-adv-x="518" 
d="M476 224h-352q4 -80 44 -122t102 -42q56 0 87 26t41 60l75 -13q-17 -67 -70 -105t-136 -38q-102 0 -162.5 66.5t-60.5 181.5q0 59 17.5 105.5t47.5 78t71.5 48t88.5 16.5q95 0 151 -60t56 -169v-33zM268 417q-56 0 -93.5 -35t-47.5 -92h269q-3 55 -34 91t-94 36zM295 670
h96l-108 -130h-78z" />
    <glyph glyph-name="ecircumflex" unicode="&#xea;" horiz-adv-x="518" 
d="M476 224h-352q4 -80 44 -122t102 -42q56 0 87 26t41 60l75 -13q-17 -67 -70 -105t-136 -38q-102 0 -162.5 66.5t-60.5 181.5q0 59 17.5 105.5t47.5 78t71.5 48t88.5 16.5q95 0 151 -60t56 -169v-33zM268 417q-56 0 -93.5 -35t-47.5 -92h269q-3 55 -34 91t-94 36zM308 670
l108 -130h-76l-80 81l-80 -81h-76l108 130h96z" />
    <glyph glyph-name="edieresis" unicode="&#xeb;" horiz-adv-x="518" 
d="M476 224h-352q4 -80 44 -122t102 -42q56 0 87 26t41 60l75 -13q-17 -67 -70 -105t-136 -38q-102 0 -162.5 66.5t-60.5 181.5q0 59 17.5 105.5t47.5 78t71.5 48t88.5 16.5q95 0 151 -60t56 -169v-33zM268 417q-56 0 -93.5 -35t-47.5 -92h269q-3 55 -34 91t-94 36zM126 568
v94h88v-94h-88zM310 568v94h88v-94h-88z" />
    <glyph glyph-name="emacron" unicode="&#x113;" horiz-adv-x="518" 
d="M476 224h-352q4 -80 44 -122t102 -42q56 0 87 26t41 60l75 -13q-17 -67 -70 -105t-136 -38q-102 0 -162.5 66.5t-60.5 181.5q0 59 17.5 105.5t47.5 78t71.5 48t88.5 16.5q95 0 151 -60t56 -169v-33zM268 417q-56 0 -93.5 -35t-47.5 -92h269q-3 55 -34 91t-94 36zM388 582
h-250v68h250v-68z" />
    <glyph glyph-name="ebreve" unicode="&#x115;" horiz-adv-x="518" 
d="M476 224h-352q4 -80 44 -122t102 -42q56 0 87 26t41 60l75 -13q-17 -67 -70 -105t-136 -38q-102 0 -162.5 66.5t-60.5 181.5q0 59 17.5 105.5t47.5 78t71.5 48t88.5 16.5q95 0 151 -60t56 -169v-33zM268 417q-56 0 -93.5 -35t-47.5 -92h269q-3 55 -34 91t-94 36zM264 531
q-67 0 -99.5 35.5t-35.5 88.5h66q4 -28 19 -47t50 -19q34 0 48 19t18 47h67q-4 -53 -35.5 -88.5t-97.5 -35.5z" />
    <glyph glyph-name="edotaccent" unicode="&#x117;" horiz-adv-x="518" 
d="M476 224h-352q4 -80 44 -122t102 -42q56 0 87 26t41 60l75 -13q-17 -67 -70 -105t-136 -38q-102 0 -162.5 66.5t-60.5 181.5q0 59 17.5 105.5t47.5 78t71.5 48t88.5 16.5q95 0 151 -60t56 -169v-33zM268 417q-56 0 -93.5 -35t-47.5 -92h269q-3 55 -34 91t-94 36zM221 568
v96h91v-96h-91z" />
    <glyph glyph-name="eogonek" unicode="&#x119;" horiz-adv-x="518" 
d="M449 -193q-8 -4 -23 -6.5t-32 -2.5q-45 0 -78.5 23.5t-33.5 72.5q0 29 14.5 57.5t33.5 48.5q-13 -5 -29.5 -7.5t-33.5 -2.5q-102 0 -162.5 66.5t-60.5 181.5q0 59 17.5 105.5t47.5 78t71.5 48t88.5 16.5q95 0 151 -60t56 -169v-33h-352q4 -80 44 -122t102 -42
q57 0 88 25.5t41 59.5l70 -12q-4 -26 -19 -52t-41 -58q-26 -33 -39 -59t-13 -51q0 -23 14.5 -36t36.5 -13q13 0 22 1.5l15 2.5zM268 417q-56 0 -93.5 -35t-47.5 -92h269q-4 55 -34.5 91t-93.5 36z" />
    <glyph glyph-name="ecaron" unicode="&#x11b;" horiz-adv-x="518" 
d="M476 224h-352q4 -80 44 -122t102 -42q56 0 87 26t41 60l75 -13q-17 -67 -70 -105t-136 -38q-102 0 -162.5 66.5t-60.5 181.5q0 59 17.5 105.5t47.5 78t71.5 48t88.5 16.5q95 0 151 -60t56 -169v-33zM268 417q-56 0 -93.5 -35t-47.5 -92h269q-3 55 -34 91t-94 36zM308 540
h-96l-106 130h76l78 -80l78 80h76z" />
    <glyph glyph-name="uni1EBD" unicode="&#x1ebd;" horiz-adv-x="518" 
d="M476 224h-352q4 -80 44 -122t102 -42q56 0 87 26t41 60l75 -13q-17 -67 -70 -105t-136 -38q-102 0 -162.5 66.5t-60.5 181.5q0 59 17.5 105.5t47.5 78t71.5 48t88.5 16.5q95 0 151 -60t56 -169v-33zM268 417q-56 0 -93.5 -35t-47.5 -92h269q-3 55 -34 91t-94 36zM120 546
v10q0 46 20 75.5t61 29.5q19 0 35.5 -8t30.5 -17.5t26 -17.5t22 -8q13 0 19 10t6 29v14h61v-15q0 -46 -20 -73.5t-57 -27.5q-19 0 -36 8t-32 18t-27.5 18t-22.5 8q-13 0 -19 -11.5t-6 -30.5v-11h-61z" />
    <glyph glyph-name="f" unicode="f" horiz-adv-x="354" 
d="M112 0v402h-92v74h92v42q0 93 46.5 127.5t131.5 34.5h59v-72h-56q-54 0 -77.5 -22.5t-23.5 -75.5v-34h146v-74h-146v-402h-80z" />
    <glyph glyph-name="g" unicode="g" horiz-adv-x="576" 
d="M426 476h75v-471q0 -114 -64 -161.5t-163 -47.5q-76 0 -135.5 37t-75.5 114l78 12q15 -51 54 -71.5t79 -20.5q66 0 107.5 32t41.5 107v62q-22 -34 -61.5 -51t-90.5 -17q-98 0 -160.5 60t-62.5 177q0 116 62 182.5t166 66.5q49 0 88.5 -19t61.5 -54v63zM422 225v42
q0 78 -43.5 112.5t-102.5 34.5q-69 0 -108.5 -47t-39.5 -128q0 -76 37 -121.5t109 -45.5t110 43.5t38 109.5z" />
    <glyph glyph-name="gcircumflex" unicode="&#x11d;" horiz-adv-x="576" 
d="M426 476h75v-471q0 -114 -64 -161.5t-163 -47.5q-76 0 -135.5 37t-75.5 114l78 12q15 -51 54 -71.5t79 -20.5q66 0 107.5 32t41.5 107v62q-22 -34 -61.5 -51t-90.5 -17q-98 0 -160.5 60t-62.5 177q0 116 62 182.5t166 66.5q49 0 88.5 -19t61.5 -54v63zM422 225v42
q0 78 -43.5 112.5t-102.5 34.5q-69 0 -108.5 -47t-39.5 -128q0 -76 37 -121.5t109 -45.5t110 43.5t38 109.5zM324 670l108 -130h-76l-80 81l-80 -81h-76l108 130h96z" />
    <glyph glyph-name="gbreve" unicode="&#x11f;" horiz-adv-x="576" 
d="M426 476h75v-471q0 -114 -64 -161.5t-163 -47.5q-76 0 -135.5 37t-75.5 114l78 12q15 -51 54 -71.5t79 -20.5q66 0 107.5 32t41.5 107v62q-22 -34 -61.5 -51t-90.5 -17q-98 0 -160.5 60t-62.5 177q0 116 62 182.5t166 66.5q49 0 88.5 -19t61.5 -54v63zM422 225v42
q0 78 -43.5 112.5t-102.5 34.5q-69 0 -108.5 -47t-39.5 -128q0 -76 37 -121.5t109 -45.5t110 43.5t38 109.5zM279 531q-67 0 -99.5 35.5t-35.5 88.5h66q4 -28 19 -47t50 -19q34 0 48 19t18 47h67q-4 -53 -35.5 -88.5t-97.5 -35.5z" />
    <glyph glyph-name="gdotaccent" unicode="&#x121;" horiz-adv-x="576" 
d="M426 476h75v-471q0 -114 -64 -161.5t-163 -47.5q-76 0 -135.5 37t-75.5 114l78 12q15 -51 54 -71.5t79 -20.5q66 0 107.5 32t41.5 107v62q-22 -34 -61.5 -51t-90.5 -17q-98 0 -160.5 60t-62.5 177q0 116 62 182.5t166 66.5q49 0 88.5 -19t61.5 -54v63zM422 225v42
q0 78 -43.5 112.5t-102.5 34.5q-69 0 -108.5 -47t-39.5 -128q0 -76 37 -121.5t109 -45.5t110 43.5t38 109.5zM238 568v96h91v-96h-91z" />
    <glyph glyph-name="gcommaaccent" unicode="&#x123;" horiz-adv-x="576" 
d="M329 621v-85h-95v76q0 50 21.5 77.5t70.5 35.5l11 -43q-31 -7 -43 -23t-12 -38h47zM426 476h75v-471q0 -114 -64 -161.5t-163 -47.5q-76 0 -135.5 37t-75.5 114l78 12q15 -51 54 -71.5t79 -20.5q66 0 107.5 32t41.5 107v62q-22 -34 -61.5 -51t-90.5 -17q-98 0 -160.5 60
t-62.5 177q0 116 62 182.5t166 66.5q49 0 88.5 -19t61.5 -54v63zM422 225v42q0 78 -43.5 112.5t-102.5 34.5q-69 0 -108.5 -47t-39.5 -128q0 -76 37 -121.5t109 -45.5t110 43.5t38 109.5z" />
    <glyph glyph-name="h" unicode="h" horiz-adv-x="557" 
d="M75 0v680h80v-266q24 35 66.5 53.5t86.5 18.5q83 0 132 -43.5t49 -127.5v-315h-80v303q0 49 -27.5 80t-89.5 31q-57 0 -97 -35t-40 -94v-285h-80z" />
    <glyph glyph-name="hcircumflex" unicode="&#x125;" horiz-adv-x="557" 
d="M75 0v680h80v-266q24 35 66.5 53.5t86.5 18.5q83 0 132 -43.5t49 -127.5v-315h-80v303q0 49 -27.5 80t-89.5 31q-57 0 -97 -35t-40 -94v-285h-80zM163 840l108 -130h-76l-80 81l-80 -81h-76l108 130h96z" />
    <glyph glyph-name="hbar" unicode="&#x127;" horiz-adv-x="555" 
d="M75 0v560h-60v62h60v58h78v-58h152v-62h-152v-149q24 37 67 56t88 19q83 0 132 -43.5t49 -127.5v-315h-80v303q0 49 -27.5 80t-89.5 31q-57 0 -97 -35t-40 -94v-285h-80z" />
    <glyph glyph-name="i" unicode="i" horiz-adv-x="230" 
d="M70 568v96h91v-96h-91zM75 0v476h80v-476h-80z" />
    <glyph glyph-name="igrave" unicode="&#xec;" horiz-adv-x="230" 
d="M75 0v476h80v-476h-80zM66 670h-96l108 -130h78z" />
    <glyph glyph-name="iacute" unicode="&#xed;" horiz-adv-x="230" 
d="M75 0v476h80v-476h-80zM168 670h96l-108 -130h-78z" />
    <glyph glyph-name="icircumflex" unicode="&#xee;" horiz-adv-x="230" 
d="M75 0v476h80v-476h-80zM163 670l108 -130h-76l-80 81l-80 -81h-76l108 130h96z" />
    <glyph glyph-name="idieresis" unicode="&#xef;" horiz-adv-x="230" 
d="M75 0v476h80v-476h-80zM-24 568v94h88v-94h-88zM160 568v94h88v-94h-88z" />
    <glyph glyph-name="itilde" unicode="&#x129;" horiz-adv-x="230" 
d="M75 0v476h80v-476h-80zM-25 546v10q0 46 20 75.5t61 29.5q19 0 35.5 -8t30.5 -17.5t26 -17.5t22 -8q13 0 19 10t6 29v14h61v-15q0 -46 -20 -73.5t-57 -27.5q-19 0 -36 8t-32 18t-27.5 18t-22.5 8q-13 0 -19 -11.5t-6 -30.5v-11h-61z" />
    <glyph glyph-name="imacron" unicode="&#x12b;" horiz-adv-x="230" 
d="M75 0v476h80v-476h-80zM245 582h-250v68h250v-68z" />
    <glyph glyph-name="ibreve" unicode="&#x12d;" horiz-adv-x="230" 
d="M75 0v476h80v-476h-80zM116 531q-67 0 -99.5 35.5t-35.5 88.5h66q4 -28 19 -47t50 -19q34 0 48 19t18 47h67q-4 -53 -35.5 -88.5t-97.5 -35.5z" />
    <glyph glyph-name="iogonek" unicode="&#x12f;" horiz-adv-x="230" 
d="M70 568v96h91v-96h-91zM75 0v476h80v-476h-1q-29 -14 -51.5 -37.5t-22.5 -53.5q0 -23 14 -34t36 -11q13 0 22 1.5l15 2.5l4 -61q-10 -4 -24 -6t-31 -2q-45 0 -78.5 23t-33.5 72q0 35 20.5 61.5t50.5 44.5z" />
    <glyph glyph-name="i.TRK" horiz-adv-x="230" 
d="M70 568v96h91v-96h-91zM75 0v476h80v-476h-80z" />
    <glyph glyph-name="j" unicode="j" horiz-adv-x="241" 
d="M78 568v96h91v-96h-91zM164 476v-503q0 -87 -38 -127t-123 -40h-47v74h40q49 0 68.5 22t19.5 70v504h80z" />
    <glyph glyph-name="jcircumflex" unicode="&#x135;" horiz-adv-x="241" 
d="M164 476v-503q0 -87 -38 -127t-123 -40h-47v74h40q49 0 68.5 22t19.5 70v504h80zM167 670l108 -130h-76l-80 81l-80 -81h-76l108 130h96z" />
    <glyph glyph-name="ij" unicode="&#x133;" horiz-adv-x="469" 
d="M70 568v96h91v-96h-91zM75 0v476h80v-476h-80zM306 568v96h91v-96h-91zM392 476v-503q0 -87 -38 -127t-123 -40h-47v74h40q49 0 68.5 22t19.5 70v504h80z" />
    <glyph glyph-name="uni00ED006A0301" horiz-adv-x="469" 
d="M167 670h96l-108 -130h-78zM402 670h96l-108 -130h-78zM75 0v476h80v-476h-80zM392 476v-493q0 -94 -42 -135.5t-122 -41.5h-60v75h53q45 0 68 25.5t23 73.5v496h80z" />
    <glyph glyph-name="k" unicode="k" horiz-adv-x="498" 
d="M75 0v680h80v-393h69l151 189h96l-182 -222l187 -254h-97l-154 217h-70v-217h-80z" />
    <glyph glyph-name="kcommaaccent" unicode="&#x137;" horiz-adv-x="498" 
d="M75 0v680h80v-393h69l151 189h96l-182 -222l187 -254h-97l-154 217h-70v-217h-80zM218 -135v85h95v-76q0 -50 -21.5 -77.5t-70.5 -35.5l-11 43q31 7 43 23t12 38h-47z" />
    <glyph glyph-name="l" unicode="l" horiz-adv-x="230" 
d="M75 0v680h80v-680h-80z" />
    <glyph glyph-name="lacute" unicode="&#x13a;" horiz-adv-x="230" 
d="M75 0v680h80v-680h-80zM167 844h96l-108 -130h-78z" />
    <glyph glyph-name="lcommaaccent" unicode="&#x13c;" horiz-adv-x="230" 
d="M75 0v680h80v-680h-80zM68 -135v85h95v-76q0 -50 -21.5 -77.5t-70.5 -35.5l-11 43q31 7 43 23t12 38h-47z" />
    <glyph glyph-name="lcaron" unicode="&#x13e;" horiz-adv-x="230" 
d="M75 0v680h80v-680h-80zM224 690h80l-53 -184h-57z" />
    <glyph glyph-name="ldot" unicode="&#x140;" horiz-adv-x="377" 
d="M75 0v680h80v-680h-80zM256 242v96h91v-96h-91z" />
    <glyph glyph-name="lslash" unicode="&#x142;" horiz-adv-x="260" 
d="M90 0v231l-82 -59v82l82 59v367h79v-316l83 58v-82l-83 -58v-282h-79z" />
    <glyph glyph-name="m" unicode="m" horiz-adv-x="866" 
d="M75 0v476h77v-62q23 35 64 53.5t83 18.5q60 0 100.5 -24t58.5 -63q22 43 68 65t95 22q80 0 128 -43.5t48 -127.5v-315h-80v303q0 49 -26 80t-85 31q-54 0 -92 -35t-38 -94v-285h-80v303q0 49 -26.5 80t-85.5 31q-54 0 -91.5 -35t-37.5 -94v-285h-80z" />
    <glyph glyph-name="n" unicode="n" horiz-adv-x="557" 
d="M75 0v476h77v-66q23 37 66.5 56.5t89.5 19.5q83 0 132 -43.5t49 -127.5v-315h-80v303q0 49 -27.5 80t-89.5 31q-57 0 -97 -35t-40 -94v-285h-80z" />
    <glyph glyph-name="ntilde" unicode="&#xf1;" horiz-adv-x="557" 
d="M75 0v476h77v-66q23 37 66.5 56.5t89.5 19.5q83 0 132 -43.5t49 -127.5v-315h-80v303q0 49 -27.5 80t-89.5 31q-57 0 -97 -35t-40 -94v-285h-80zM145 546v10q0 46 20 75.5t61 29.5q19 0 35.5 -8t30.5 -17.5t26 -17.5t22 -8q13 0 19 10t6 29v14h61v-15q0 -46 -20 -73.5
t-57 -27.5q-19 0 -36 8t-32 18t-27.5 18t-22.5 8q-13 0 -19 -11.5t-6 -30.5v-11h-61z" />
    <glyph glyph-name="nacute" unicode="&#x144;" horiz-adv-x="557" 
d="M75 0v476h77v-66q23 37 66.5 56.5t89.5 19.5q83 0 132 -43.5t49 -127.5v-315h-80v303q0 49 -27.5 80t-89.5 31q-57 0 -97 -35t-40 -94v-285h-80zM315 670h96l-108 -130h-78z" />
    <glyph glyph-name="ncommaaccent" unicode="&#x146;" horiz-adv-x="557" 
d="M75 0v476h77v-66q23 37 66.5 56.5t89.5 19.5q83 0 132 -43.5t49 -127.5v-315h-80v303q0 49 -27.5 80t-89.5 31q-57 0 -97 -35t-40 -94v-285h-80zM242 -135v85h95v-76q0 -50 -21.5 -77.5t-70.5 -35.5l-11 43q31 7 43 23t12 38h-47z" />
    <glyph glyph-name="ncaron" unicode="&#x148;" horiz-adv-x="557" 
d="M75 0v476h77v-66q23 37 66.5 56.5t89.5 19.5q83 0 132 -43.5t49 -127.5v-315h-80v303q0 49 -27.5 80t-89.5 31q-57 0 -97 -35t-40 -94v-285h-80zM335 540h-96l-106 130h76l78 -80l78 80h76z" />
    <glyph glyph-name="uni1E47" unicode="&#x1e47;" horiz-adv-x="557" 
d="M75 0v476h77v-66q23 37 66.5 56.5t89.5 19.5q83 0 132 -43.5t49 -127.5v-315h-80v303q0 49 -27.5 80t-89.5 31q-57 0 -97 -35t-40 -94v-285h-80zM242 -146v96h91v-96h-91z" />
    <glyph glyph-name="napostrophe" unicode="&#x149;" horiz-adv-x="557" 
d="M75 0v476h77v-66q23 37 66.5 56.5t89.5 19.5q83 0 132 -43.5t49 -127.5v-315h-80v303q0 49 -27.5 80t-89.5 31q-57 0 -97 -35t-40 -94v-285h-80zM115 700h80l-53 -184h-57z" />
    <glyph glyph-name="eng" unicode="&#x14b;" horiz-adv-x="557" 
d="M409 -28v331q0 49 -27.5 80t-89.5 31q-57 0 -97 -35t-40 -94v-285h-80v476h77v-66q23 37 66.5 56.5t89.5 19.5q83 0 132 -43.5t49 -127.5v-342q0 -87 -38 -127t-123 -40h-53v72h46q49 0 68.5 22.5t19.5 71.5z" />
    <glyph glyph-name="o" unicode="o" horiz-adv-x="545" 
d="M275 -10q-49 0 -91.5 16.5t-72.5 48t-47.5 78.5t-17.5 106q0 118 64 182.5t165 64.5q100 0 162 -64.5t62 -182.5q0 -116 -62 -182.5t-162 -66.5zM275 61q72 0 108 47.5t36 130.5q0 84 -36 130t-108 46q-71 0 -110 -46t-39 -130q0 -83 40 -130.5t109 -47.5z" />
    <glyph glyph-name="ograve" unicode="&#xf2;" horiz-adv-x="545" 
d="M275 -10q-49 0 -91.5 16.5t-72.5 48t-47.5 78.5t-17.5 106q0 118 64 182.5t165 64.5q100 0 162 -64.5t62 -182.5q0 -116 -62 -182.5t-162 -66.5zM275 61q72 0 108 47.5t36 130.5q0 84 -36 130t-108 46q-71 0 -110 -46t-39 -130q0 -83 40 -130.5t109 -47.5zM237 670h-96
l108 -130h78z" />
    <glyph glyph-name="oacute" unicode="&#xf3;" horiz-adv-x="545" 
d="M275 -10q-49 0 -91.5 16.5t-72.5 48t-47.5 78.5t-17.5 106q0 118 64 182.5t165 64.5q100 0 162 -64.5t62 -182.5q0 -116 -62 -182.5t-162 -66.5zM275 61q72 0 108 47.5t36 130.5q0 84 -36 130t-108 46q-71 0 -110 -46t-39 -130q0 -83 40 -130.5t109 -47.5zM306 670h96
l-108 -130h-78z" />
    <glyph glyph-name="ocircumflex" unicode="&#xf4;" horiz-adv-x="545" 
d="M275 -10q-49 0 -91.5 16.5t-72.5 48t-47.5 78.5t-17.5 106q0 118 64 182.5t165 64.5q100 0 162 -64.5t62 -182.5q0 -116 -62 -182.5t-162 -66.5zM275 61q72 0 108 47.5t36 130.5q0 84 -36 130t-108 46q-71 0 -110 -46t-39 -130q0 -83 40 -130.5t109 -47.5zM320 670
l108 -130h-76l-80 81l-80 -81h-76l108 130h96z" />
    <glyph glyph-name="otilde" unicode="&#xf5;" horiz-adv-x="545" 
d="M275 -10q-49 0 -91.5 16.5t-72.5 48t-47.5 78.5t-17.5 106q0 118 64 182.5t165 64.5q100 0 162 -64.5t62 -182.5q0 -116 -62 -182.5t-162 -66.5zM275 61q72 0 108 47.5t36 130.5q0 84 -36 130t-108 46q-71 0 -110 -46t-39 -130q0 -83 40 -130.5t109 -47.5zM132 546v10
q0 46 20 75.5t61 29.5q19 0 35.5 -8t30.5 -17.5t26 -17.5t22 -8q13 0 19 10t6 29v14h61v-15q0 -46 -20 -73.5t-57 -27.5q-19 0 -36 8t-32 18t-27.5 18t-22.5 8q-13 0 -19 -11.5t-6 -30.5v-11h-61z" />
    <glyph glyph-name="odieresis" unicode="&#xf6;" horiz-adv-x="545" 
d="M275 -10q-49 0 -91.5 16.5t-72.5 48t-47.5 78.5t-17.5 106q0 118 64 182.5t165 64.5q100 0 162 -64.5t62 -182.5q0 -116 -62 -182.5t-162 -66.5zM275 61q72 0 108 47.5t36 130.5q0 84 -36 130t-108 46q-71 0 -110 -46t-39 -130q0 -83 40 -130.5t109 -47.5zM137 568v94h88
v-94h-88zM321 568v94h88v-94h-88z" />
    <glyph glyph-name="omacron" unicode="&#x14d;" horiz-adv-x="545" 
d="M275 -10q-49 0 -91.5 16.5t-72.5 48t-47.5 78.5t-17.5 106q0 118 64 182.5t165 64.5q100 0 162 -64.5t62 -182.5q0 -116 -62 -182.5t-162 -66.5zM275 61q72 0 108 47.5t36 130.5q0 84 -36 130t-108 46q-71 0 -110 -46t-39 -130q0 -83 40 -130.5t109 -47.5zM397 582h-250
v68h250v-68z" />
    <glyph glyph-name="obreve" unicode="&#x14f;" horiz-adv-x="545" 
d="M275 -10q-49 0 -91.5 16.5t-72.5 48t-47.5 78.5t-17.5 106q0 118 64 182.5t165 64.5q100 0 162 -64.5t62 -182.5q0 -116 -62 -182.5t-162 -66.5zM275 61q72 0 108 47.5t36 130.5q0 84 -36 130t-108 46q-71 0 -110 -46t-39 -130q0 -83 40 -130.5t109 -47.5zM274 531
q-67 0 -99.5 35.5t-35.5 88.5h66q4 -28 19 -47t50 -19q34 0 48 19t18 47h67q-4 -53 -35.5 -88.5t-97.5 -35.5z" />
    <glyph glyph-name="ohungarumlaut" unicode="&#x151;" horiz-adv-x="545" 
d="M275 -10q-49 0 -91.5 16.5t-72.5 48t-47.5 78.5t-17.5 106q0 118 64 182.5t165 64.5q100 0 162 -64.5t62 -182.5q0 -116 -62 -182.5t-162 -66.5zM275 61q72 0 108 47.5t36 130.5q0 84 -36 130t-108 46q-71 0 -110 -46t-39 -130q0 -83 40 -130.5t109 -47.5zM241 670h92
l-108 -130h-74zM397 670h96l-128 -130h-76z" />
    <glyph glyph-name="oslash" unicode="&#xf8;" horiz-adv-x="553" 
d="M279 -10q-49 0 -92 16.5t-74 48t-49 78.5t-18 106t17.5 105t48.5 77.5t74 48t93 16.5q100 0 164 -64.5t64 -182.5q0 -116 -64 -182.5t-164 -66.5zM124 239q0 -32 7 -59.5t20 -48.5l212 262q-16 11 -37.5 17t-46.5 6q-71 0 -113 -46.5t-42 -130.5zM279 60q72 0 111 48
t39 131q0 33 -6 60.5t-18 48.5l-213 -262q18 -13 40 -19.5t47 -6.5z" />
    <glyph glyph-name="oslashacute" unicode="&#x1ff;" horiz-adv-x="553" 
d="M279 -10q-49 0 -92 16.5t-74 48t-49 78.5t-18 106t17.5 105t48.5 77.5t74 48t93 16.5q100 0 164 -64.5t64 -182.5q0 -116 -64 -182.5t-164 -66.5zM124 239q0 -32 7 -59.5t20 -48.5l212 262q-16 11 -37.5 17t-46.5 6q-71 0 -113 -46.5t-42 -130.5zM279 60q72 0 111 48
t39 131q0 33 -6 60.5t-18 48.5l-213 -262q18 -13 40 -19.5t47 -6.5zM310 670h96l-108 -130h-78z" />
    <glyph glyph-name="oe" unicode="&#x153;" horiz-adv-x="888" 
d="M843 133q-17 -67 -70 -105t-136 -38q-63 0 -108.5 25.5t-72.5 71.5q-28 -46 -74 -71.5t-107 -25.5q-49 0 -91.5 16.5t-72.5 48t-47.5 78.5t-17.5 106q0 118 64 182.5t165 64.5q62 0 108.5 -25t74.5 -73q29 48 76 73t105 25q95 0 151 -60t56 -169v-33h-352q4 -80 44 -122
t102 -42q56 0 87 26t41 60zM638 418q-56 0 -93.5 -35.5t-47.5 -92.5h269q-3 55 -34 91.5t-94 36.5zM275 61q72 0 108 47.5t36 130.5q0 84 -36 130t-108 46q-71 0 -110 -46t-39 -130q0 -83 40 -130.5t109 -47.5z" />
    <glyph glyph-name="p" unicode="p" horiz-adv-x="576" 
d="M75 -194v670h80v-64q26 37 70 55.5t93 18.5q44 0 82.5 -15.5t67.5 -46t45.5 -76.5t16.5 -105q0 -118 -62 -185.5t-163 -67.5q-47 0 -85.5 16t-64.5 46v-246h-80zM155 199q0 -65 45.5 -101.5t105.5 -36.5q66 0 105 49t39 130q0 78 -39 126.5t-107 48.5q-28 0 -54.5 -10.5
t-47.5 -30t-34 -49.5t-13 -69v-57z" />
    <glyph glyph-name="q" unicode="q" horiz-adv-x="576" 
d="M420 -194v250q-22 -33 -60.5 -49.5t-89.5 -16.5q-98 0 -161 65t-63 182q0 116 64 182.5t165 66.5q47 0 86 -18.5t62 -50.5v59h78v-670h-81zM420 220v42q0 78 -43 115t-102 37q-69 0 -109 -47t-40 -128q0 -76 38 -126.5t109 -50.5q72 0 109.5 46t37.5 112z" />
    <glyph glyph-name="r" unicode="r" horiz-adv-x="342" 
d="M75 0v476h76v-69q24 41 64 55t75 14h43v-77h-36q-24 0 -49 -5t-45.5 -15t-33.5 -26t-13 -38v-315h-81z" />
    <glyph glyph-name="racute" unicode="&#x155;" horiz-adv-x="342" 
d="M75 0v476h76v-69q24 41 64 55t75 14h43v-77h-36q-24 0 -49 -5t-45.5 -15t-33.5 -26t-13 -38v-315h-81zM247 670h96l-108 -130h-78z" />
    <glyph glyph-name="rcommaaccent" unicode="&#x157;" horiz-adv-x="342" 
d="M75 0v476h76v-69q24 41 64 55t75 14h43v-77h-36q-24 0 -49 -5t-45.5 -15t-33.5 -26t-13 -38v-315h-81zM68 -135v85h95v-76q0 -50 -21.5 -77.5t-70.5 -35.5l-11 43q31 7 43 23t12 38h-47z" />
    <glyph glyph-name="rcaron" unicode="&#x159;" horiz-adv-x="342" 
d="M75 0v476h76v-69q24 41 64 55t75 14h43v-77h-36q-24 0 -49 -5t-45.5 -15t-33.5 -26t-13 -38v-315h-81zM257 540h-96l-106 130h76l78 -80l78 80h76z" />
    <glyph glyph-name="s" unicode="s" horiz-adv-x="493" 
d="M50 134l75 13q12 -45 44 -66.5t86 -21.5t82 18.5t28 49.5t-21.5 47.5t-72.5 25.5l-62 11q-66 12 -104 42.5t-38 92.5t50.5 101t133.5 39q87 0 134 -41t57 -95l-73 -16q-10 35 -37.5 59t-82.5 24q-48 0 -76 -19t-28 -50q0 -34 24 -47.5t66 -20.5l61 -11
q78 -14 112.5 -48.5t34.5 -91.5q0 -61 -48 -100t-142 -39q-83 0 -136.5 35t-66.5 109z" />
    <glyph glyph-name="sacute" unicode="&#x15b;" horiz-adv-x="493" 
d="M50 134l75 13q12 -45 44 -66.5t86 -21.5t82 18.5t28 49.5t-21.5 47.5t-72.5 25.5l-62 11q-66 12 -104 42.5t-38 92.5t50.5 101t133.5 39q87 0 134 -41t57 -95l-73 -16q-10 35 -37.5 59t-82.5 24q-48 0 -76 -19t-28 -50q0 -34 24 -47.5t66 -20.5l61 -11
q78 -14 112.5 -48.5t34.5 -91.5q0 -61 -48 -100t-142 -39q-83 0 -136.5 35t-66.5 109zM282 670h96l-108 -130h-78z" />
    <glyph glyph-name="scircumflex" unicode="&#x15d;" horiz-adv-x="493" 
d="M50 134l75 13q12 -45 44 -66.5t86 -21.5t82 18.5t28 49.5t-21.5 47.5t-72.5 25.5l-62 11q-66 12 -104 42.5t-38 92.5t50.5 101t133.5 39q87 0 134 -41t57 -95l-73 -16q-10 35 -37.5 59t-82.5 24q-48 0 -76 -19t-28 -50q0 -34 24 -47.5t66 -20.5l61 -11
q78 -14 112.5 -48.5t34.5 -91.5q0 -61 -48 -100t-142 -39q-83 0 -136.5 35t-66.5 109zM301 670l108 -130h-76l-80 81l-80 -81h-76l108 130h96z" />
    <glyph glyph-name="scedilla" unicode="&#x15f;" horiz-adv-x="493" 
d="M50 134l75 13q12 -45 44 -66.5t86 -21.5t82 18.5t28 49.5t-21.5 47.5t-72.5 25.5l-62 11q-66 12 -104 42.5t-38 92.5t50.5 101t133.5 39q87 0 134 -41t57 -95l-73 -16q-10 35 -37.5 59t-82.5 24q-48 0 -76 -19t-28 -50q0 -34 24 -47.5t66 -20.5l61 -11
q78 -14 112.5 -48.5t34.5 -91.5q0 -54 -38 -91.5t-113 -45.5l-27 -32q46 -2 70.5 -20t24.5 -58q0 -38 -28.5 -63t-85.5 -25q-49 0 -79 17t-39 57l60 14q5 -17 19.5 -26t37.5 -9t35.5 8t12.5 25q0 19 -17.5 25.5t-57.5 5.5l-22 -1v45l30 36q-72 5 -118 40t-58 103z" />
    <glyph glyph-name="scaron" unicode="&#x161;" horiz-adv-x="493" 
d="M50 134l75 13q12 -45 44 -66.5t86 -21.5t82 18.5t28 49.5t-21.5 47.5t-72.5 25.5l-62 11q-66 12 -104 42.5t-38 92.5t50.5 101t133.5 39q87 0 134 -41t57 -95l-73 -16q-10 35 -37.5 59t-82.5 24q-48 0 -76 -19t-28 -50q0 -34 24 -47.5t66 -20.5l61 -11
q78 -14 112.5 -48.5t34.5 -91.5q0 -61 -48 -100t-142 -39q-83 0 -136.5 35t-66.5 109zM300 540h-96l-106 130h76l78 -80l78 80h76z" />
    <glyph glyph-name="scommaaccent" unicode="&#x219;" horiz-adv-x="493" 
d="M50 134l75 13q12 -45 44 -66.5t86 -21.5t82 18.5t28 49.5t-21.5 47.5t-72.5 25.5l-62 11q-66 12 -104 42.5t-38 92.5t50.5 101t133.5 39q87 0 134 -41t57 -95l-73 -16q-10 35 -37.5 59t-82.5 24q-48 0 -76 -19t-28 -50q0 -34 24 -47.5t66 -20.5l61 -11
q78 -14 112.5 -48.5t34.5 -91.5q0 -61 -48 -100t-142 -39q-83 0 -136.5 35t-66.5 109zM209 -135v85h95v-76q0 -50 -21.5 -77.5t-70.5 -35.5l-11 43q31 7 43 23t12 38h-47z" />
    <glyph glyph-name="uni1E63" unicode="&#x1e63;" horiz-adv-x="493" 
d="M50 134l75 13q12 -45 44 -66.5t86 -21.5t82 18.5t28 49.5t-21.5 47.5t-72.5 25.5l-62 11q-66 12 -104 42.5t-38 92.5t50.5 101t133.5 39q87 0 134 -41t57 -95l-73 -16q-10 35 -37.5 59t-82.5 24q-48 0 -76 -19t-28 -50q0 -34 24 -47.5t66 -20.5l61 -11
q78 -14 112.5 -48.5t34.5 -91.5q0 -61 -48 -100t-142 -39q-83 0 -136.5 35t-66.5 109zM206 -146v96h91v-96h-91z" />
    <glyph glyph-name="t" unicode="t" horiz-adv-x="366" 
d="M336 0h-74q-94 0 -127.5 40t-33.5 125v237h-83v74h83v127h81v-127h149v-74h-149v-236q0 -51 20.5 -71.5t62.5 -20.5h71v-74z" />
    <glyph glyph-name="uni0163" unicode="&#x163;" horiz-adv-x="366" 
d="M336 0h-74q-94 0 -127.5 40t-33.5 125v237h-83v74h83v127h81v-127h149v-74h-149v-236q0 -51 20.5 -71.5t62.5 -20.5h71v-74zM172 -135v85h95v-76q0 -50 -21.5 -77.5t-70.5 -35.5l-11 43q31 7 43 23t12 38h-47z" />
    <glyph glyph-name="tcaron" unicode="&#x165;" horiz-adv-x="366" 
d="M263 690h80l-53 -164h-57zM336 0h-74q-94 0 -127.5 40t-33.5 125v237h-83v74h83v127h81v-127h149v-74h-149v-236q0 -51 20.5 -71.5t62.5 -20.5h71v-74z" />
    <glyph glyph-name="uni021B" unicode="&#x21b;" horiz-adv-x="366" 
d="M336 0h-74q-94 0 -127.5 40t-33.5 125v237h-83v74h83v127h81v-127h149v-74h-149v-236q0 -51 20.5 -71.5t62.5 -20.5h71v-74zM172 -135v85h95v-76q0 -50 -21.5 -77.5t-70.5 -35.5l-11 43q31 7 43 23t12 38h-47z" />
    <glyph glyph-name="tbar" unicode="&#x167;" horiz-adv-x="366" 
d="M336 0h-74q-94 0 -127.5 40t-33.5 125v60h-83v64h83v114h-83v73h83v127h81v-127h149v-73h-150v-114h130v-64h-130v-59q0 -53 21 -72.5t67 -19.5h67v-74z" />
    <glyph glyph-name="u" unicode="u" horiz-adv-x="555" 
d="M404 0v70q-23 -39 -67.5 -59.5t-90.5 -20.5q-83 0 -130 43.5t-47 127.5v315h80v-303q0 -49 26.5 -80t86.5 -31q57 0 97 35t40 94v285h80v-476h-75z" />
    <glyph glyph-name="ugrave" unicode="&#xf9;" horiz-adv-x="555" 
d="M404 0v70q-23 -39 -67.5 -59.5t-90.5 -20.5q-83 0 -130 43.5t-47 127.5v315h80v-303q0 -49 26.5 -80t86.5 -31q57 0 97 35t40 94v285h80v-476h-75zM242 670h-96l108 -130h78z" />
    <glyph glyph-name="uacute" unicode="&#xfa;" horiz-adv-x="555" 
d="M404 0v70q-23 -39 -67.5 -59.5t-90.5 -20.5q-83 0 -130 43.5t-47 127.5v315h80v-303q0 -49 26.5 -80t86.5 -31q57 0 97 35t40 94v285h80v-476h-75zM307 670h96l-108 -130h-78z" />
    <glyph glyph-name="ucircumflex" unicode="&#xfb;" horiz-adv-x="555" 
d="M404 0v70q-23 -39 -67.5 -59.5t-90.5 -20.5q-83 0 -130 43.5t-47 127.5v315h80v-303q0 -49 26.5 -80t86.5 -31q57 0 97 35t40 94v285h80v-476h-75zM322 670l108 -130h-76l-80 81l-80 -81h-76l108 130h96z" />
    <glyph glyph-name="udieresis" unicode="&#xfc;" horiz-adv-x="555" 
d="M404 0v70q-23 -39 -67.5 -59.5t-90.5 -20.5q-83 0 -130 43.5t-47 127.5v315h80v-303q0 -49 26.5 -80t86.5 -31q57 0 97 35t40 94v285h80v-476h-75zM139 568v94h88v-94h-88zM323 568v94h88v-94h-88z" />
    <glyph glyph-name="utilde" unicode="&#x169;" horiz-adv-x="555" 
d="M404 0v70q-23 -39 -67.5 -59.5t-90.5 -20.5q-83 0 -130 43.5t-47 127.5v315h80v-303q0 -49 26.5 -80t86.5 -31q57 0 97 35t40 94v285h80v-476h-75zM134 546v10q0 46 20 75.5t61 29.5q19 0 35.5 -8t30.5 -17.5t26 -17.5t22 -8q13 0 19 10t6 29v14h61v-15q0 -46 -20 -73.5
t-57 -27.5q-19 0 -36 8t-32 18t-27.5 18t-22.5 8q-13 0 -19 -11.5t-6 -30.5v-11h-61z" />
    <glyph glyph-name="umacron" unicode="&#x16b;" horiz-adv-x="555" 
d="M404 0v70q-23 -39 -67.5 -59.5t-90.5 -20.5q-83 0 -130 43.5t-47 127.5v315h80v-303q0 -49 26.5 -80t86.5 -31q57 0 97 35t40 94v285h80v-476h-75zM399 582h-250v68h250v-68z" />
    <glyph glyph-name="ubreve" unicode="&#x16d;" horiz-adv-x="555" 
d="M404 0v70q-23 -39 -67.5 -59.5t-90.5 -20.5q-83 0 -130 43.5t-47 127.5v315h80v-303q0 -49 26.5 -80t86.5 -31q57 0 97 35t40 94v285h80v-476h-75zM276 531q-67 0 -99.5 35.5t-35.5 88.5h66q4 -28 19 -47t50 -19q34 0 48 19t18 47h67q-4 -53 -35.5 -88.5t-97.5 -35.5z
" />
    <glyph glyph-name="uring" unicode="&#x16f;" horiz-adv-x="555" 
d="M404 0v70q-23 -39 -67.5 -59.5t-90.5 -20.5q-83 0 -130 43.5t-47 127.5v315h80v-303q0 -49 26.5 -80t86.5 -31q57 0 97 35t40 94v285h80v-476h-75zM274 524q-40 0 -68.5 26t-28.5 69t28.5 69t68.5 26t68.5 -26t28.5 -69t-28.5 -69t-68.5 -26zM274 574q20 0 32.5 13
t12.5 32t-12.5 32t-32.5 13t-32.5 -13t-12.5 -32t12.5 -32t32.5 -13z" />
    <glyph glyph-name="uhungarumlaut" unicode="&#x171;" horiz-adv-x="555" 
d="M404 0v70q-23 -39 -67.5 -59.5t-90.5 -20.5q-83 0 -130 43.5t-47 127.5v315h80v-303q0 -49 26.5 -80t86.5 -31q57 0 97 35t40 94v285h80v-476h-75zM243 670h92l-108 -130h-74zM399 670h96l-128 -130h-76z" />
    <glyph glyph-name="uogonek" unicode="&#x173;" horiz-adv-x="555" 
d="M441 -201q-45 0 -78.5 23t-33.5 72q0 35 20.5 62.5t54.5 48.5v65q-23 -39 -67.5 -59.5t-90.5 -20.5q-83 0 -130 43.5t-47 127.5v315h80v-303q0 -49 26.5 -80t86.5 -31q57 0 97 35t40 94v285h80v-476q-29 -14 -51.5 -38t-22.5 -53q0 -23 14 -34t36 -11q13 0 22 1.5l15 2.5
l4 -61q-10 -4 -24 -6t-31 -2z" />
    <glyph glyph-name="uni01D4" unicode="&#x1d4;" horiz-adv-x="555" 
d="M404 0v70q-23 -39 -67.5 -59.5t-90.5 -20.5q-83 0 -130 43.5t-47 127.5v315h80v-303q0 -49 26.5 -80t86.5 -31q57 0 97 35t40 94v285h80v-476h-75zM322 540h-96l-106 130h76l78 -80l78 80h76z" />
    <glyph glyph-name="v" unicode="v" horiz-adv-x="494" 
d="M203 0l-189 476h85l151 -392l152 392h82l-194 -476h-87z" />
    <glyph glyph-name="w" unicode="w" horiz-adv-x="769" 
d="M14 476h83l121 -377l120 377h100l121 -382l123 382h78l-162 -476h-85l-127 403l-128 -403h-84z" />
    <glyph glyph-name="wcircumflex" unicode="&#x175;" horiz-adv-x="769" 
d="M14 476h83l121 -377l120 377h100l121 -382l123 382h78l-162 -476h-85l-127 403l-128 -403h-84zM434 670l108 -130h-76l-80 81l-80 -81h-76l108 130h96z" />
    <glyph glyph-name="wgrave" unicode="&#x1e81;" horiz-adv-x="769" 
d="M14 476h83l121 -377l120 377h100l121 -382l123 382h78l-162 -476h-85l-127 403l-128 -403h-84zM336 670h-96l108 -130h78z" />
    <glyph glyph-name="wacute" unicode="&#x1e83;" horiz-adv-x="769" 
d="M14 476h83l121 -377l120 377h100l121 -382l123 382h78l-162 -476h-85l-127 403l-128 -403h-84zM439 670h96l-108 -130h-78z" />
    <glyph glyph-name="wdieresis" unicode="&#x1e85;" horiz-adv-x="769" 
d="M14 476h83l121 -377l120 377h100l121 -382l123 382h78l-162 -476h-85l-127 403l-128 -403h-84zM251 568v94h88v-94h-88zM435 568v94h88v-94h-88z" />
    <glyph glyph-name="x" unicode="x" horiz-adv-x="485" 
d="M375 0l-135 190l-131 -190h-94l178 244l-166 232h93l121 -175l123 175h92l-169 -227l184 -249h-96z" />
    <glyph glyph-name="y" unicode="y" horiz-adv-x="493" 
d="M266 -73q-27 -68 -63 -94.5t-90 -26.5h-46v74h30q34 0 59 15t41 55l21 52l-202 474h88l156 -377l140 377h83z" />
    <glyph glyph-name="yacute" unicode="&#xfd;" horiz-adv-x="493" 
d="M266 -73q-27 -68 -63 -94.5t-90 -26.5h-46v74h30q34 0 59 15t41 55l21 52l-202 474h88l156 -377l140 377h83zM284 670h96l-108 -130h-78z" />
    <glyph glyph-name="ydieresis" unicode="&#xff;" horiz-adv-x="493" 
d="M266 -73q-27 -68 -63 -94.5t-90 -26.5h-46v74h30q34 0 59 15t41 55l21 52l-202 474h88l156 -377l140 377h83zM114 568v94h88v-94h-88zM298 568v94h88v-94h-88z" />
    <glyph glyph-name="ycircumflex" unicode="&#x177;" horiz-adv-x="493" 
d="M266 -73q-27 -68 -63 -94.5t-90 -26.5h-46v74h30q34 0 59 15t41 55l21 52l-202 474h88l156 -377l140 377h83zM296 670l108 -130h-76l-80 81l-80 -81h-76l108 130h96z" />
    <glyph glyph-name="uni0233" unicode="&#x233;" horiz-adv-x="493" 
d="M266 -73q-27 -68 -63 -94.5t-90 -26.5h-46v74h30q34 0 59 15t41 55l21 52l-202 474h88l156 -377l140 377h83zM377 582h-250v68h250v-68z" />
    <glyph glyph-name="ygrave" unicode="&#x1ef3;" horiz-adv-x="493" 
d="M266 -73q-27 -68 -63 -94.5t-90 -26.5h-46v74h30q34 0 59 15t41 55l21 52l-202 474h88l156 -377l140 377h83zM217 670h-96l108 -130h78z" />
    <glyph glyph-name="z" unicode="z" horiz-adv-x="497" 
d="M50 0v81l306 321h-297v74h388v-78l-309 -324h315v-74h-403z" />
    <glyph glyph-name="zacute" unicode="&#x17a;" horiz-adv-x="497" 
d="M50 0v81l306 321h-297v74h388v-78l-309 -324h315v-74h-403zM288 670h96l-108 -130h-78z" />
    <glyph glyph-name="zdotaccent" unicode="&#x17c;" horiz-adv-x="497" 
d="M50 0v81l306 321h-297v74h388v-78l-309 -324h315v-74h-403zM212 568v96h91v-96h-91z" />
    <glyph glyph-name="zcaron" unicode="&#x17e;" horiz-adv-x="497" 
d="M50 0v81l306 321h-297v74h388v-78l-309 -324h315v-74h-403zM307 540h-96l-106 130h76l78 -80l78 80h76z" />
    <glyph glyph-name="germandbls" unicode="&#xdf;" horiz-adv-x="583" 
d="M311 0h-58v75h58q68 0 108 31.5t40 92.5q0 69 -42 96.5t-111 27.5h-54v72h55q49 0 80.5 32t31.5 81q0 54 -34.5 82t-91.5 28q-66 0 -101.5 -37.5t-35.5 -100.5v-480h-81v482q0 100 59.5 154t159.5 54q95 0 149 -47.5t54 -130.5q0 -49 -23 -88.5t-69 -59.5
q62 -13 97.5 -52t35.5 -115q0 -101 -63.5 -149t-163.5 -48z" />
    <glyph glyph-name="eth" unicode="&#xf0;" horiz-adv-x="555" 
d="M177 502l-23 49l92 44q-17 10 -35 19.5t-37 17.5l27 57q30 -13 58.5 -28t53.5 -33l101 49l24 -49l-78 -38q67 -60 105.5 -144t38.5 -190q0 -59 -15 -108t-43.5 -84t-71.5 -54.5t-99 -19.5q-49 0 -92 16.5t-74 47.5t-49 75.5t-18 99.5q0 54 17 98t46.5 74.5t71 47
t90.5 16.5q52 0 88.5 -18t58.5 -45q-18 48 -47.5 87t-69.5 71zM275 60q72 0 110.5 48t38.5 123q0 78 -40 122t-113 44q-66 0 -108 -45.5t-42 -122.5q0 -75 42.5 -122t111.5 -47z" />
    <glyph glyph-name="thorn" unicode="&#xfe;" horiz-adv-x="576" 
d="M75 -194v874h80v-268q26 37 70 55.5t93 18.5q44 0 82.5 -15.5t67.5 -46t45.5 -76.5t16.5 -105q0 -118 -62 -185.5t-163 -67.5q-47 0 -85.5 16t-64.5 46v-246h-80zM155 199q0 -65 45.5 -101t105.5 -36q66 0 105.5 48.5t39.5 129.5q0 78 -39.5 126t-107.5 48
q-28 0 -54.5 -10t-47.5 -30t-34 -49.5t-13 -68.5v-57z" />
    <glyph glyph-name="uni01C6" unicode="&#x1c6;" horiz-adv-x="1069" 
d="M423 0v61q-22 -35 -61.5 -53t-92.5 -18q-98 0 -160.5 65.5t-62.5 183.5q0 116 65 181.5t166 65.5q43 0 80.5 -16t62.5 -45v255h80v-680h-77zM420 220v42q0 76 -42.5 114t-102.5 38q-68 0 -108.5 -47t-40.5 -128q0 -76 38.5 -126.5t109.5 -50.5q72 0 109 46t37 112zM622 0
v81l306 321h-297v74h388v-78l-309 -324h315v-74h-403zM879 540h-96l-106 130h76l78 -80l78 80h76z" />
    <glyph glyph-name="uni01C9" unicode="&#x1c9;" horiz-adv-x="457" 
d="M75 0v680h80v-680h-80zM294 568v96h91v-96h-91zM380 476v-503q0 -87 -38 -127t-123 -40h-47v74h40q49 0 68.5 22t19.5 70v504h80z" />
    <glyph glyph-name="uni01CC" unicode="&#x1cc;" horiz-adv-x="790" 
d="M75 0v476h77v-66q23 37 66.5 56.5t89.5 19.5q83 0 132 -43.5t49 -127.5v-315h-80v303q0 49 -27.5 80t-89.5 31q-57 0 -97 -35t-40 -94v-285h-80zM627 568v96h91v-96h-91zM713 476v-503q0 -87 -38 -127t-123 -40h-47v74h40q49 0 68.5 22t19.5 70v504h80z" />
    <glyph glyph-name="uni01F3" unicode="&#x1f3;" horiz-adv-x="1069" 
d="M423 0v61q-22 -35 -61.5 -53t-92.5 -18q-98 0 -160.5 65.5t-62.5 183.5q0 116 65 181.5t166 65.5q43 0 80.5 -16t62.5 -45v255h80v-680h-77zM420 220v42q0 76 -42.5 114t-102.5 38q-68 0 -108.5 -47t-40.5 -128q0 -76 38.5 -126.5t109.5 -50.5q72 0 109 46t37 112zM622 0
v81l306 321h-297v74h388v-78l-309 -324h315v-74h-403z" />
    <glyph glyph-name="uni0259" unicode="&#x259;" horiz-adv-x="522" 
d="M262 486q96 0 156 -64t60 -184q0 -119 -62.5 -183.5t-158.5 -64.5q-98 0 -154.5 59.5t-56.5 165.5q0 10 0.5 19.5t1.5 17.5h350q-4 83 -42.5 124t-96.5 41q-54 0 -87.5 -26.5t-45.5 -60.5l-73 12q17 69 75.5 106.5t133.5 37.5zM257 59q57 0 93 35t46 92h-272
q3 -54 36.5 -90.5t96.5 -36.5z" />
    <glyph glyph-name="dotlessi" unicode="&#x131;" horiz-adv-x="230" 
d="M75 0v476h80v-476h-80z" />
    <glyph glyph-name="uni0237" unicode="&#x237;" horiz-adv-x="241" 
d="M164 476v-503q0 -87 -38 -127t-123 -40h-47v74h40q49 0 68.5 22t19.5 70v504h80z" />
    <glyph glyph-name="ordfeminine" unicode="&#xaa;" horiz-adv-x="338" 
d="M241 397v38q-14 -19 -38.5 -31.5t-59.5 -12.5q-49 0 -79 25t-30 68q0 46 33.5 69.5t93.5 23.5q19 0 40 -0.5t37 -1.5v17q0 28 -15 43.5t-46 15.5q-30 0 -46 -13.5t-23 -34.5l-65 15q9 40 43 66.5t91 26.5q58 0 92 -29.5t34 -86.5v-198h-62zM238 525q-13 1 -33 1.5
t-38 0.5q-32 0 -47 -10.5t-15 -29.5q0 -17 13.5 -27.5t38.5 -10.5q40 0 60.5 20.5t20.5 45.5v10z" />
    <glyph glyph-name="ordmasculine" unicode="&#xba;" horiz-adv-x="377" 
d="M189 391q-70 0 -112 41.5t-42 120.5q0 77 42 117.5t112 40.5q69 0 111 -40.5t42 -117.5q0 -78 -41 -120t-112 -42zM189 453q40 0 61 26t21 74q0 47 -21 72t-62 25q-38 0 -60 -25t-22 -72q0 -48 22.5 -74t60.5 -26z" />
    <glyph glyph-name="uni0430" unicode="&#x430;" horiz-adv-x="518" 
d="M373 0v56q-22 -29 -60.5 -47.5t-89.5 -18.5q-78 0 -123.5 38t-45.5 104q0 74 49.5 107t131.5 36q37 1 69 0.5t64 -1.5v41q0 52 -30 76t-76 24q-51 0 -77.5 -25t-38.5 -61l-76 16q15 63 64 102t128 39q81 0 133.5 -40.5t52.5 -127.5v-318h-75zM368 211q-30 1 -63.5 1
t-67.5 -1q-51 -2 -77 -22t-26 -56q0 -34 24.5 -54.5t66.5 -20.5q60 0 101.5 29.5t41.5 77.5v46z" />
    <glyph glyph-name="uni0431" unicode="&#x431;" horiz-adv-x="556" 
d="M510 232q0 -110 -61 -176t-161 -66q-104 0 -168 65t-64 202v100q0 87 19.5 144.5t54.5 93t84 52.5t106 24q46 5 85 10t72 9l10 -77q-35 -4 -80 -9.5t-83 -9.5q-89 -10 -141.5 -57.5t-52.5 -161.5v-1q27 43 74.5 65t98.5 22q98 0 152.5 -61t54.5 -168zM288 58
q75 0 109.5 49.5t34.5 124.5q0 78 -37 118.5t-103 40.5q-65 0 -111.5 -36.5t-46.5 -95.5v-15q0 -92 41 -139t113 -47z" />
    <glyph glyph-name="uni0432" unicode="&#x432;" horiz-adv-x="502" 
d="M75 0v476h206q78 0 120.5 -33t42.5 -96q0 -27 -13.5 -56t-53.5 -45q43 -13 61.5 -41.5t18.5 -70.5q0 -61 -38.5 -97.5t-123.5 -36.5h-220zM282 408h-129v-134h136q40 0 60 16.5t20 50.5t-19 50.5t-68 16.5zM296 209h-143v-141h143q46 0 65.5 18t19.5 51q0 37 -20.5 54.5
t-64.5 17.5z" />
    <glyph glyph-name="uni0433" unicode="&#x433;" horiz-adv-x="416" 
d="M75 0v476h316v-74h-236v-402h-80z" />
    <glyph glyph-name="uni0453" unicode="&#x453;" horiz-adv-x="416" 
d="M75 0v476h316v-74h-236v-402h-80zM270 670h96l-108 -130h-78z" />
    <glyph glyph-name="uni0434" unicode="&#x434;" horiz-adv-x="552" 
d="M5 74h50q25 20 42 57.5t20 80.5q1 16 2 37t1.5 51.5t1 73.5t0.5 102h338v-402h77v-208h-78v134h-376v-134h-78v208zM192 201q-4 -42 -17 -73.5t-29 -53.5h234v328h-183q0 -69 -1 -120.5t-4 -80.5z" />
    <glyph glyph-name="uni0435" unicode="&#x435;" horiz-adv-x="518" 
d="M476 224h-352q4 -80 44 -122t102 -42q56 0 87 26t41 60l75 -13q-17 -67 -70 -105t-136 -38q-102 0 -162.5 66.5t-60.5 181.5q0 59 17.5 105.5t47.5 78t71.5 48t88.5 16.5q95 0 151 -60t56 -169v-33zM268 417q-56 0 -93.5 -35t-47.5 -92h269q-3 55 -34 91t-94 36z" />
    <glyph glyph-name="uni0450" unicode="&#x450;" horiz-adv-x="518" 
d="M476 224h-352q4 -80 44 -122t102 -42q56 0 87 26t41 60l75 -13q-17 -67 -70 -105t-136 -38q-102 0 -162.5 66.5t-60.5 181.5q0 59 17.5 105.5t47.5 78t71.5 48t88.5 16.5q95 0 151 -60t56 -169v-33zM268 417q-56 0 -93.5 -35t-47.5 -92h269q-3 55 -34 91t-94 36zM226 670
h-96l108 -130h78z" />
    <glyph glyph-name="uni0451" unicode="&#x451;" horiz-adv-x="518" 
d="M476 224h-352q4 -80 44 -122t102 -42q56 0 87 26t41 60l75 -13q-17 -67 -70 -105t-136 -38q-102 0 -162.5 66.5t-60.5 181.5q0 59 17.5 105.5t47.5 78t71.5 48t88.5 16.5q95 0 151 -60t56 -169v-33zM268 417q-56 0 -93.5 -35t-47.5 -92h269q-3 55 -34 91t-94 36zM126 568
v94h88v-94h-88zM310 568v94h88v-94h-88z" />
    <glyph glyph-name="uni0436" unicode="&#x436;" horiz-adv-x="723" 
d="M323 0v212h-65l-138 -212h-98l170 248l-159 228h94l124 -196h72v196h76v-196h72l125 196h93l-159 -231l171 -245h-97l-140 212h-65v-212h-76z" />
    <glyph glyph-name="uni0437" unicode="&#x437;" horiz-adv-x="488" 
d="M246 59q57 0 87 22t30 56q0 35 -23 54.5t-80 19.5h-77v65h84q46 0 66.5 19.5t20.5 47.5q0 32 -24.5 53t-76.5 21q-55 0 -86.5 -24t-44.5 -67l-75 15q16 72 71 108.5t135 36.5q85 0 131.5 -37.5t46.5 -96.5q0 -35 -18.5 -63.5t-55.5 -41.5q37 -11 61.5 -38t24.5 -72
q0 -69 -53.5 -108t-143.5 -39q-89 0 -141.5 38.5t-62.5 110.5l76 12q7 -39 38 -65.5t90 -26.5z" />
    <glyph glyph-name="uni0438" unicode="&#x438;" horiz-adv-x="554" 
d="M161 0h-86v476h77v-373l239 373h88v-476h-77v375z" />
    <glyph glyph-name="uni0439" unicode="&#x439;" horiz-adv-x="554" 
d="M161 0h-86v476h77v-373l239 373h88v-476h-77v375zM279 527q-73 0 -108 35.5t-36 92.5h66q4 -33 22.5 -51.5t55.5 -18.5t54 18.5t21 51.5h67q-2 -57 -36 -92.5t-106 -35.5z" />
    <glyph glyph-name="uni045D" unicode="&#x45d;" horiz-adv-x="554" 
d="M161 0h-86v476h77v-373l239 373h88v-476h-77v375zM247 670h-96l108 -130h78z" />
    <glyph glyph-name="uni043A" unicode="&#x43a;" horiz-adv-x="501" 
d="M75 0v476h80v-194h81l142 194h93l-170 -227l178 -249h-96l-149 212h-79v-212h-80z" />
    <glyph glyph-name="uni045C" unicode="&#x45c;" horiz-adv-x="501" 
d="M75 0v476h80v-194h81l142 194h93l-170 -227l178 -249h-96l-149 212h-79v-212h-80zM303 670h96l-108 -130h-78z" />
    <glyph glyph-name="uni043B" unicode="&#x43b;" horiz-adv-x="532" 
d="M114 172q1 28 2 68.5t1.5 83t1.5 83t1 69.5h337v-476h-80v402h-183q0 -29 -0.5 -62t-1.5 -64.5t-1.5 -60.5t-1.5 -50q-4 -95 -36 -130t-101 -35h-37v74h29q36 0 52 23t18 75z" />
    <glyph glyph-name="uni043C" unicode="&#x43c;" horiz-adv-x="705" 
d="M75 0v476h118l161 -398l162 398h114v-476h-78v389l-161 -389h-83l-161 390v-390h-72z" />
    <glyph glyph-name="uni043D" unicode="&#x43d;" horiz-adv-x="564" 
d="M75 0v476h80v-195h254v195h80v-476h-80v207h-254v-207h-80z" />
    <glyph glyph-name="uni043E" unicode="&#x43e;" horiz-adv-x="545" 
d="M275 -10q-49 0 -91.5 16.5t-72.5 48t-47.5 78.5t-17.5 106q0 118 64 182.5t165 64.5q100 0 162 -64.5t62 -182.5q0 -116 -62 -182.5t-162 -66.5zM275 61q72 0 108 47.5t36 130.5q0 84 -36 130t-108 46q-71 0 -110 -46t-39 -130q0 -83 40 -130.5t109 -47.5z" />
    <glyph glyph-name="uni043F" unicode="&#x43f;" horiz-adv-x="556" 
d="M75 0v476h406v-476h-80v402h-246v-402h-80z" />
    <glyph glyph-name="uni0440" unicode="&#x440;" horiz-adv-x="576" 
d="M75 -194v670h80v-64q26 37 70 55.5t93 18.5q44 0 82.5 -15.5t67.5 -46t45.5 -76.5t16.5 -105q0 -118 -62 -185.5t-163 -67.5q-47 0 -85.5 16t-64.5 46v-246h-80zM155 199q0 -65 45.5 -101.5t105.5 -36.5q66 0 105 49t39 130q0 78 -39 126.5t-107 48.5q-28 0 -54.5 -10.5
t-47.5 -30t-34 -49.5t-13 -69v-57z" />
    <glyph glyph-name="uni0441" unicode="&#x441;" horiz-adv-x="510" 
d="M399 155l75 -12q-14 -64 -64.5 -108.5t-140.5 -44.5q-99 0 -161 63t-62 185q0 63 17.5 109.5t47.5 77.5t71 46t88 15q93 0 141.5 -45t60.5 -105l-73 -14q-9 34 -38 63.5t-91 29.5q-69 0 -106.5 -47.5t-37.5 -129.5q0 -79 37 -128t106 -49q63 0 91.5 29.5t38.5 64.5z" />
    <glyph glyph-name="uni0442" unicode="&#x442;" horiz-adv-x="480" 
d="M25 402v74h430v-74h-175v-402h-80v402h-175z" />
    <glyph glyph-name="uni0443" unicode="&#x443;" horiz-adv-x="493" 
d="M266 -73q-27 -68 -63 -94.5t-90 -26.5h-46v74h30q34 0 59 15t41 55l21 52l-202 474h88l156 -377l140 377h83z" />
    <glyph glyph-name="uni045E" unicode="&#x45e;" horiz-adv-x="493" 
d="M266 -73q-27 -68 -63 -94.5t-90 -26.5h-46v74h30q34 0 59 15t41 55l21 52l-202 474h88l156 -377l140 377h83zM254 530q-73 0 -108 35.5t-36 92.5h66q4 -33 22.5 -51.5t55.5 -18.5t54 18.5t21 51.5h67q-2 -57 -36 -92.5t-106 -35.5z" />
    <glyph glyph-name="uni0444" unicode="&#x444;" horiz-adv-x="693" 
d="M386 680v-200q6 0 11.5 -0.5t11.5 -0.5q49 -3 92.5 -17.5t76 -42.5t51 -72t18.5 -104q0 -61 -19 -107t-51.5 -76.5t-77 -46.5t-95.5 -17q-4 0 -9 -0.5t-9 -0.5v-189h-79v189q-4 0 -9 0.5t-9 0.5q-51 1 -95.5 16.5t-77 45.5t-51.5 75.5t-19 106.5q0 62 19.5 106t52.5 73
t78.5 43.5t96.5 16.5h7.5t6.5 1v200h79zM409 409q-6 0 -12 0.5t-12 0.5v-343q6 0 12.5 0.5t11.5 0.5q72 4 115 46t43 126t-44.5 124.5t-113.5 44.5zM283 68q6 0 12.5 -0.5t12.5 -0.5v343q-6 0 -12.5 -0.5t-11.5 -0.5q-66 -4 -112 -44.5t-46 -124.5t43 -126.5t114 -45.5z" />
    <glyph glyph-name="uni0445" unicode="&#x445;" horiz-adv-x="485" 
d="M375 0l-135 190l-131 -190h-94l178 244l-166 232h93l121 -175l123 175h92l-169 -227l184 -249h-96z" />
    <glyph glyph-name="uni0446" unicode="&#x446;" horiz-adv-x="567" 
d="M475 476v-402h77v-208h-78v134h-399v476h80v-402h240v402h80z" />
    <glyph glyph-name="uni0447" unicode="&#x447;" horiz-adv-x="499" 
d="M344 0v191q-18 -7 -47.5 -12.5t-62.5 -5.5q-89 0 -136.5 36.5t-47.5 114.5v152h80v-143q0 -49 30.5 -70t82.5 -21q31 0 55.5 4.5t45.5 12.5v217h80v-476h-80z" />
    <glyph glyph-name="uni0448" unicode="&#x448;" horiz-adv-x="782" 
d="M707 476v-476h-632v476h80v-402h196v402h80v-402h196v402h80z" />
    <glyph glyph-name="uni0449" unicode="&#x449;" horiz-adv-x="799" 
d="M707 476v-402h77v-208h-78v134h-631v476h80v-402h196v402h80v-402h196v402h80z" />
    <glyph glyph-name="uni044A" unicode="&#x44a;" horiz-adv-x="598" 
d="M25 476h237v-164h124q84 0 127 -39.5t43 -111.5q0 -75 -41.5 -118t-130.5 -43h-202v402h-157v74zM386 240h-124v-168h123q54 0 73.5 24.5t19.5 63.5q0 40 -19 60t-73 20z" />
    <glyph glyph-name="uni044B" unicode="&#x44b;" horiz-adv-x="673" 
d="M518 0v476h80v-476h-80zM75 0v476h80v-164h124q83 0 125.5 -39.5t42.5 -111.5q0 -75 -41.5 -118t-128.5 -43h-202zM279 240h-124v-168h123q54 0 73.5 24.5t19.5 63.5q0 40 -19 60t-73 20z" />
    <glyph glyph-name="uni044C" unicode="&#x44c;" horiz-adv-x="491" 
d="M75 0v476h80v-164h124q84 0 127 -39.5t43 -111.5q0 -75 -41.5 -118t-130.5 -43h-202zM279 240h-124v-168h123q54 0 73.5 24.5t19.5 63.5q0 40 -19 60t-73 20z" />
    <glyph glyph-name="uni044D" unicode="&#x44d;" horiz-adv-x="520" 
d="M42 143l75 12q11 -41 43.5 -68t93.5 -27q63 0 97.5 37t40.5 106h-201v68h202q-7 68 -41 106.5t-96 38.5q-60 0 -91 -28.5t-44 -66.5l-72 16q17 68 71 108.5t136 40.5q99 0 158.5 -61.5t59.5 -186.5q0 -121 -60 -184.5t-160 -63.5q-90 0 -143.5 40.5t-68.5 112.5z" />
    <glyph glyph-name="uni044E" unicode="&#x44e;" horiz-adv-x="751" 
d="M75 0v476h80v-198h100q10 100 72 154t154 54q100 0 162 -64.5t62 -182.5q0 -116 -62 -182.5t-162 -66.5q-92 0 -155 57.5t-72 161.5h-99v-209h-80zM481 61q72 0 108 47.5t36 130.5q0 84 -36 130t-108 46q-71 0 -110 -46t-39 -130q0 -83 40 -130.5t109 -47.5z" />
    <glyph glyph-name="uni044F" unicode="&#x44f;" horiz-adv-x="513" 
d="M53 324q0 76 48.5 114t126.5 38h210v-476h-80v179h-107l-116 -179h-93l127 184q-56 12 -86 47.5t-30 92.5zM230 247h128v159h-128q-47 0 -72.5 -20.5t-25.5 -58.5t25 -59t73 -21z" />
    <glyph glyph-name="uni0452" unicode="&#x452;" horiz-adv-x="542" 
d="M312 486q84 0 131 -62.5t47 -219.5q0 -96 -13.5 -161t-39 -104t-62.5 -56t-84 -17h-36v72h23q34 0 59.5 12.5t41.5 42.5t24 80.5t8 126.5q0 123 -29 169t-90 46q-57 0 -97 -35.5t-40 -94.5v-285h-80v560h-80v64h80v56h78v-56h182v-64h-182v-149q24 37 68.5 56t90.5 19z
" />
    <glyph glyph-name="uni0454" unicode="&#x454;" horiz-adv-x="516" 
d="M472 336l-73 -14q-9 34 -38 64t-91 30q-61 0 -100 -38.5t-47 -104.5h202v-68h-202q7 -66 45.5 -105.5t100.5 -39.5q63 0 91.5 30t38.5 65l75 -12q-14 -64 -64.5 -108.5t-140.5 -44.5q-49 0 -91 16t-72 46.5t-47 77.5t-17 108q0 63 18 109.5t49 77.5t72.5 46t88.5 15
q93 0 141.5 -45t60.5 -105z" />
    <glyph glyph-name="uni0455" unicode="&#x455;" horiz-adv-x="493" 
d="M50 134l75 13q12 -45 44 -66.5t86 -21.5t82 18.5t28 49.5t-21.5 47.5t-72.5 25.5l-62 11q-66 12 -104 42.5t-38 92.5t50.5 101t133.5 39q87 0 134 -41t57 -95l-73 -16q-10 35 -37.5 59t-82.5 24q-48 0 -76 -19t-28 -50q0 -34 24 -47.5t66 -20.5l61 -11
q78 -14 112.5 -48.5t34.5 -91.5q0 -61 -48 -100t-142 -39q-83 0 -136.5 35t-66.5 109z" />
    <glyph glyph-name="uni0456" unicode="&#x456;" horiz-adv-x="230" 
d="M70 568v96h91v-96h-91zM75 0v476h80v-476h-80z" />
    <glyph glyph-name="uni0457" unicode="&#x457;" horiz-adv-x="230" 
d="M-16 568v94h88v-94h-88zM168 568v94h88v-94h-88zM75 0v476h80v-476h-80z" />
    <glyph glyph-name="uni0457.alt" horiz-adv-x="230" 
d="M15 562v106h74v-106h-74zM141 562v106h74v-106h-74zM75 0v476h80v-476h-80z" />
    <glyph glyph-name="uni0458" unicode="&#x458;" horiz-adv-x="241" 
d="M78 568v96h91v-96h-91zM164 476v-503q0 -87 -38 -127t-123 -40h-47v74h40q49 0 68.5 22t19.5 70v504h80z" />
    <glyph glyph-name="uni0459" unicode="&#x459;" horiz-adv-x="775" 
d="M114 172q1 28 1.5 68.5t1.5 83t1.5 83t0.5 69.5h328v-164h116q84 0 127 -39.5t43 -111.5q0 -75 -41.5 -118t-130.5 -43h-194v402h-173q-1 -29 -1.5 -62t-1.5 -64.5t-1.5 -60.5t-0.5 -50q-4 -95 -36.5 -130t-100.5 -35h-37v74h29q35 0 51 23t19 75zM563 240h-116v-168h115
q54 0 73.5 24.5t19.5 63.5q0 40 -19 60t-73 20z" />
    <glyph glyph-name="uni045A" unicode="&#x45a;" horiz-adv-x="808" 
d="M75 0v476h80v-195h244v195h80v-164h117q84 0 127 -39.5t43 -111.5q0 -75 -41.5 -118t-130.5 -43h-195v207h-244v-207h-80zM596 240h-117v-168h116q54 0 73.5 24.5t19.5 63.5q0 40 -19 60t-73 20z" />
    <glyph glyph-name="uni045B" unicode="&#x45b;" horiz-adv-x="557" 
d="M75 0v560h-80v64h80v56h78v-56h182v-64h-182v-149q24 37 67 56t88 19q83 0 132 -43.5t49 -127.5v-315h-80v303q0 49 -27.5 80t-89.5 31q-57 0 -97 -35t-40 -94v-285h-80z" />
    <glyph glyph-name="uni045F" unicode="&#x45f;" horiz-adv-x="550" 
d="M475 476v-476h-161v-134h-78v134h-161v476h80v-402h240v402h80z" />
    <glyph glyph-name="uni0463" unicode="&#x463;" horiz-adv-x="592" 
d="M15 476h157v204h79v-204h211v-74h-211v-108h125q79 0 124.5 -34t45.5 -112q0 -77 -44.5 -112.5t-127.5 -35.5h-202v402h-157v74zM376 223h-125v-152h124q50 0 73 18.5t23 57.5q0 40 -23 58t-72 18z" />
    <glyph glyph-name="uni0473" unicode="&#x473;" horiz-adv-x="545" 
d="M275 -10q-49 0 -91.5 16.5t-72.5 48t-47.5 78.5t-17.5 106q0 118 64 182.5t165 64.5q100 0 162 -64.5t62 -182.5q0 -116 -62 -182.5t-162 -66.5zM275 417q-64 0 -103.5 -37.5t-46.5 -108.5h296q-7 71 -44 108.5t-102 37.5zM275 59q65 0 102 39t44 111h-297
q7 -72 47.5 -111t103.5 -39z" />
    <glyph glyph-name="uni0475" unicode="&#x475;" horiz-adv-x="514" 
d="M432 360l-144 -360h-85l-189 476h85l151 -393l117 306q18 47 39.5 67t66.5 20h36v-74h-22q-22 0 -34.5 -10.5t-20.5 -31.5z" />
    <glyph glyph-name="uni0491" unicode="&#x491;" horiz-adv-x="424" 
d="M75 0v476h250v94h74v-168h-244v-402h-80z" />
    <glyph glyph-name="uni0493" unicode="&#x493;" horiz-adv-x="416" 
d="M75 0v195h-65v64h65v217h316v-74h-238v-143h155v-64h-155v-195h-78z" />
    <glyph glyph-name="uni049B" unicode="&#x49b;" horiz-adv-x="507" 
d="M75 0v476h80v-194h81l142 194h93l-170 -227l125 -175h71v-208h-78v134h-36l-149 212h-79v-212h-80z" />
    <glyph glyph-name="uni04A3" unicode="&#x4a3;" horiz-adv-x="581" 
d="M75 0v476h80v-195h254v195h80v-402h77v-208h-78v134h-79v207h-254v-207h-80z" />
    <glyph glyph-name="uni04AF" unicode="&#x4af;" horiz-adv-x="498" 
d="M209 0l-195 476h85l153 -384l154 384h82l-199 -474v-196h-80v194z" />
    <glyph glyph-name="uni04B1" unicode="&#x4b1;" horiz-adv-x="498" 
d="M418 0h-129v-194h-78v194h-131v63h107l-173 413h85l153 -392l154 392h82l-174 -413h104v-63z" />
    <glyph glyph-name="uni04BB" unicode="&#x4bb;" horiz-adv-x="557" 
d="M75 0v680h80v-266q24 35 66.5 53.5t86.5 18.5q83 0 132 -43.5t49 -127.5v-315h-80v303q0 49 -27.5 80t-89.5 31q-57 0 -97 -35t-40 -94v-285h-80z" />
    <glyph glyph-name="uni04D9" unicode="&#x4d9;" horiz-adv-x="522" 
d="M262 486q96 0 156 -64t60 -184q0 -119 -62.5 -183.5t-158.5 -64.5q-98 0 -154.5 59.5t-56.5 165.5q0 10 0.5 19.5t1.5 17.5h350q-4 83 -42.5 124t-96.5 41q-54 0 -87.5 -26.5t-45.5 -60.5l-73 12q17 69 75.5 106.5t133.5 37.5zM257 59q57 0 93 35t46 92h-272
q3 -54 36.5 -90.5t96.5 -36.5z" />
    <glyph glyph-name="uni04E9" unicode="&#x4e9;" horiz-adv-x="545" 
d="M275 -10q-49 0 -91.5 16.5t-72.5 48t-47.5 78.5t-17.5 106q0 118 64 182.5t165 64.5q100 0 162 -64.5t62 -182.5q0 -116 -62 -182.5t-162 -66.5zM275 417q-64 0 -103.5 -37.5t-46.5 -108.5h296q-7 71 -44 108.5t-102 37.5zM275 59q65 0 102 39t44 111h-297
q7 -72 47.5 -111t103.5 -39z" />
    <glyph glyph-name="uni01C5" unicode="&#x1c5;" horiz-adv-x="1210" 
d="M87 0v680h257q160 0 244 -90t84 -250q0 -161 -85.5 -250.5t-252.5 -89.5h-247zM173 79h168q121 0 182 71t61 190q0 129 -61.5 195t-182.5 66h-167v-522zM763 0v81l306 321h-297v74h388v-78l-309 -324h315v-74h-403zM1020 540h-96l-106 130h76l78 -80l78 80h76z" />
    <glyph glyph-name="uni01C8" unicode="&#x1c8;" horiz-adv-x="852" 
d="M561 80v-80h-474v680h86v-600h388zM689 568v96h91v-96h-91zM775 476v-503q0 -87 -38 -127t-123 -40h-47v74h40q49 0 68.5 22t19.5 70v504h80z" />
    <glyph glyph-name="uni01CB" unicode="&#x1cb;" horiz-adv-x="970" 
d="M654 0h-115l-369 568v-568h-83v680h106l378 -581v581h83v-680zM807 568v96h91v-96h-91zM893 476v-503q0 -87 -38 -127t-123 -40h-47v74h40q49 0 68.5 22t19.5 70v504h80z" />
    <glyph glyph-name="uni01F2" unicode="&#x1f2;" horiz-adv-x="1210" 
d="M87 0v680h257q160 0 244 -90t84 -250q0 -161 -85.5 -250.5t-252.5 -89.5h-247zM173 79h168q121 0 182 71t61 190q0 129 -61.5 195t-182.5 66h-167v-522zM763 0v81l306 321h-297v74h388v-78l-309 -324h315v-74h-403z" />
    <glyph glyph-name="uni041B.BUL" horiz-adv-x="695" 
d="M400 680l265 -680h-93l-227 601l-223 -601h-92l262 680h108z" />
    <glyph glyph-name="uni0432.BUL" horiz-adv-x="557" 
d="M65 210v266q0 52 17 92.5t47.5 67t72.5 40.5t91 14q92 0 147.5 -50.5t55.5 -131.5q0 -53 -29 -91.5t-84 -57.5q59 -16 92.5 -56.5t33.5 -109.5q0 -93 -59.5 -148t-160.5 -55q-108 0 -166 56t-58 164zM145 476v-83h126q67 0 107 29.5t40 82.5q0 49 -34 81.5t-92 32.5
q-62 0 -104.5 -38t-42.5 -105zM145 207q0 -77 41.5 -111.5t102.5 -34.5q63 0 102 34t39 96q0 66 -43 98t-117 32h-125v-114z" />
    <glyph glyph-name="uni0433.BUL" horiz-adv-x="487" 
d="M449 135q-13 -72 -68.5 -109t-140.5 -36q-84 1 -135.5 36.5t-51.5 101.5q0 55 35.5 86t104.5 47l61 14q54 13 77.5 30t23.5 43q0 31 -25.5 50t-67.5 19q-50 0 -81.5 -23t-43.5 -60l-75 18q18 66 70 100t130 34q81 0 126.5 -38.5t45.5 -95.5q0 -59 -39.5 -89.5
t-106.5 -46.5l-60 -14q-53 -12 -73.5 -28.5t-20.5 -44.5q0 -34 31.5 -52t76.5 -18q51 0 87.5 23t46.5 67z" />
    <glyph glyph-name="uni0434.BUL" horiz-adv-x="576" 
d="M426 476h75v-471q0 -114 -64 -161.5t-163 -47.5q-76 0 -135.5 37t-75.5 114l78 12q15 -51 54 -71.5t79 -20.5q66 0 107.5 32t41.5 107v62q-22 -34 -61.5 -51t-90.5 -17q-98 0 -160.5 60t-62.5 177q0 116 62 182.5t166 66.5q49 0 88.5 -19t61.5 -54v63zM422 225v42
q0 78 -43.5 112.5t-102.5 34.5q-69 0 -108.5 -47t-39.5 -128q0 -76 37 -121.5t109 -45.5t110 43.5t38 109.5z" />
    <glyph glyph-name="uni0436.BUL" horiz-adv-x="723" 
d="M323 0v212h-65l-138 -212h-98l170 248l-159 228h94l124 -196h72v400h76v-400h72l125 196h93l-159 -231l171 -245h-97l-140 212h-65v-212h-76z" />
    <glyph glyph-name="uni0437.BUL" horiz-adv-x="504" 
d="M27 -49l79 13q13 -46 49 -71.5t88 -25.5q63 0 100.5 33.5t37.5 92.5q0 55 -37 88.5t-99 33.5h-93v71h94q56 0 90.5 31t34.5 82q0 53 -31.5 84.5t-83.5 31.5q-49 0 -87 -24t-54 -71l-75 18q21 72 79 110t139 38q86 0 139 -48.5t53 -132.5q0 -52 -26.5 -92.5t-80.5 -59.5
q56 -16 86.5 -56t30.5 -104q0 -93 -61 -145t-156 -52q-88 0 -144 40t-72 115z" />
    <glyph glyph-name="uni0438.BUL" horiz-adv-x="554" 
d="M404 0v70q-23 -39 -67.5 -59.5t-90.5 -20.5q-83 0 -130 43.5t-47 127.5v315h80v-303q0 -49 26.5 -80t86.5 -31q57 0 97 35t40 94v285h80v-476h-75z" />
    <glyph glyph-name="uni0439.BUL" horiz-adv-x="554" 
d="M404 0v70q-23 -39 -67.5 -59.5t-90.5 -20.5q-83 0 -130 43.5t-47 127.5v315h80v-303q0 -49 26.5 -80t86.5 -31q57 0 97 35t40 94v285h80v-476h-75zM277 531q-73 0 -108 35.5t-36 92.5h66q4 -33 22.5 -51.5t55.5 -18.5t54 18.5t21 51.5h67q-2 -57 -36 -92.5t-106 -35.5z
" />
    <glyph glyph-name="uni043A.BUL" horiz-adv-x="498" 
d="M75 0v680h80v-393h69l151 189h96l-182 -222l187 -254h-97l-154 217h-70v-217h-80z" />
    <glyph glyph-name="uni043B.BUL" horiz-adv-x="498" 
d="M296 476l188 -476h-84l-151 396l-153 -396h-82l193 476h89z" />
    <glyph glyph-name="uni043F.BUL" horiz-adv-x="557" 
d="M75 0v476h77v-66q23 37 66.5 56.5t89.5 19.5q83 0 132 -43.5t49 -127.5v-315h-80v303q0 49 -27.5 80t-89.5 31q-57 0 -97 -35t-40 -94v-285h-80z" />
    <glyph glyph-name="uni0442.BUL" horiz-adv-x="865" 
d="M75 0v476h77v-62q23 35 64 53.5t83 18.5q60 0 100.5 -24t58.5 -63q22 43 68 65t95 22q80 0 128 -43.5t48 -127.5v-315h-80v303q0 49 -26 80t-85 31q-54 0 -92 -35t-38 -94v-285h-80v303q0 49 -26.5 80t-85.5 31q-54 0 -91.5 -35t-37.5 -94v-285h-80z" />
    <glyph glyph-name="uni0446.BUL" horiz-adv-x="572" 
d="M403 0v70q-23 -39 -67.5 -59.5t-90.5 -20.5q-83 0 -130 43.5t-47 127.5v315h80v-303q0 -49 26.5 -80t86.5 -31q57 0 97 35t40 94v285h80v-402h79v-208h-78v134h-76z" />
    <glyph glyph-name="uni0447.BUL" horiz-adv-x="511" 
d="M436 476v-476h-80v210q-22 -28 -58.5 -41.5t-77.5 -13.5q-78 0 -124 43.5t-46 127.5v150h80v-144q0 -48 25.5 -78t76.5 -30q54 0 89 28.5t35 77.5v146h80z" />
    <glyph glyph-name="uni0448.BUL" horiz-adv-x="865" 
d="M790 476v-476h-77v62q-23 -35 -64 -53.5t-83 -18.5q-60 0 -100.5 24t-58.5 63q-22 -43 -68 -65t-95 -22q-80 0 -128 43.5t-48 127.5v315h80v-303q0 -49 26 -80t85 -31q54 0 92 35t38 94v285h80v-303q0 -49 26.5 -80t85.5 -31q54 0 91.5 35t37.5 94v285h80z" />
    <glyph glyph-name="uni0449.BUL" horiz-adv-x="882" 
d="M790 476v-402h77v-208h-78v134h-76v62q-23 -35 -64 -53.5t-83 -18.5q-60 0 -100.5 24t-58.5 63q-22 -43 -68 -65t-95 -22q-80 0 -128 43.5t-48 127.5v315h80v-303q0 -49 26 -80t85 -31q54 0 92 35t38 94v285h80v-303q0 -49 26.5 -80t85.5 -31q54 0 91.5 35t37.5 94v285
h80z" />
    <glyph glyph-name="uni044A.BUL" horiz-adv-x="614" 
d="M572 185q0 -86 -53 -140.5t-143 -54.5t-142 51.5t-52 132.5v228h-157v74h237v-170q19 26 55 41.5t76 15.5q35 0 68 -11.5t57.5 -33.5t39 -55.5t14.5 -77.5zM262 171q0 -54 34.5 -82.5t79.5 -28.5q54 0 85.5 34t31.5 91q0 49 -32 78t-85 29q-44 0 -79 -24.5t-35 -74.5v-22
z" />
    <glyph glyph-name="uni044C.BUL" horiz-adv-x="501" 
d="M69 174v302h80v-170q19 26 55 41.5t76 15.5q35 0 68 -11.5t57.5 -33.5t39 -55.5t14.5 -77.5q0 -86 -53 -140.5t-143 -54.5t-142 51.5t-52 132.5zM149 171q0 -54 34.5 -82.5t79.5 -28.5q54 0 85.5 34t31.5 91q0 49 -32 78t-85 29q-44 0 -79 -24.5t-35 -74.5v-22z" />
    <glyph glyph-name="uni0431.SRB" horiz-adv-x="533" 
d="M490 226q0 -110 -60 -173t-160 -63q-99 0 -161.5 62t-62.5 174q0 49 15 87t40 65.5t58 43.5t68 21l-35 23q-35 22 -56 48t-21 59q0 50 33 78.5t93 28.5h209v-74h-205q-27 0 -40.5 -7t-13.5 -27q0 -19 21 -35.5t49 -33.5l110 -65q45 -27 82 -74t37 -138zM270 59
q70 0 105.5 44.5t35.5 120.5t-37 118.5t-103 42.5q-69 0 -107.5 -42.5t-38.5 -118.5t38.5 -120.5t106.5 -44.5z" />
    <glyph glyph-name="period" unicode="." horiz-adv-x="241" 
d="M67 0v110h107v-110h-107z" />
    <glyph glyph-name="comma" unicode="," horiz-adv-x="246" 
d="M68 0v110h109v-128q0 -60 -33 -88.5t-84 -36.5l-11 53q34 6 53 23t19 49v18h-53z" />
    <glyph glyph-name="colon" unicode=":" horiz-adv-x="227" 
d="M60 0v110h107v-110h-107zM60 366v110h107v-110h-107z" />
    <glyph glyph-name="semicolon" unicode=";" horiz-adv-x="227" 
d="M60 366v110h107v-110h-107zM59 0v110h109v-128q0 -60 -33 -88.5t-84 -36.5l-11 53q34 6 53 23t19 49v18h-53z" />
    <glyph glyph-name="ellipsis" unicode="&#x2026;" horiz-adv-x="681" 
d="M67 0v110h107v-110h-107zM287 0v110h107v-110h-107zM507 0v110h107v-110h-107z" />
    <glyph glyph-name="exclam" unicode="!" horiz-adv-x="305" 
d="M116 187l-11 493h95l-11 -493h-73zM100 0v110h107v-110h-107z" />
    <glyph glyph-name="exclamdown" unicode="&#xa1;" horiz-adv-x="305" 
d="M100 476h107v-110h-107v110zM116 289h73l11 -493h-95z" />
    <glyph glyph-name="exclamdown.cap" horiz-adv-x="305" 
d="M100 680h107v-110h-107v110zM116 493h73l11 -493h-95z" />
    <glyph glyph-name="question" unicode="?" horiz-adv-x="501" 
d="M193 188v72q0 35 14.5 57.5t53.5 46.5l55 34q33 20 51 43.5t18 65.5q0 46 -32 75.5t-94 29.5q-67 0 -104.5 -33.5t-48.5 -80.5l-81 16q14 75 70.5 125.5t163.5 50.5q105 0 158.5 -51.5t53.5 -131.5q0 -68 -31.5 -107t-64.5 -59l-47 -29q-33 -20 -42.5 -36t-9.5 -46v-42
h-83zM182 0v110h107v-110h-107z" />
    <glyph glyph-name="questiondown" unicode="&#xbf;" horiz-adv-x="480" 
d="M313 476v-110h-107v110h107zM302 289v-72q0 -35 -14.5 -57.5t-53.5 -46.5l-55 -34q-33 -20 -51 -42t-18 -64q0 -46 32 -74t94 -28q67 0 104.5 33.5t48.5 80.5l81 -16q-14 -75 -70.5 -125.5t-163.5 -50.5q-105 0 -158.5 50t-53.5 130q0 68 31.5 105.5t64.5 57.5l47 29
q33 20 42.5 36t9.5 46v42h83z" />
    <glyph glyph-name="questiondown.cap" horiz-adv-x="491" 
d="M319 680v-110h-107v110h107zM308 492v-72q0 -35 -14.5 -57.5t-53.5 -46.5l-55 -34q-33 -20 -51 -43.5t-18 -65.5q0 -46 32 -75.5t94 -29.5q67 0 104.5 33.5t48.5 80.5l81 -16q-14 -75 -70.5 -125.5t-163.5 -50.5q-105 0 -158.5 51.5t-53.5 131.5q0 68 31.5 107t64.5 59
l47 29q33 20 42.5 36t9.5 46v42h83z" />
    <glyph glyph-name="quoteleft" unicode="&#x2018;" horiz-adv-x="273" 
d="M189 547v-110h-109v128q0 60 33 88.5t84 36.5l11 -53q-34 -6 -53 -23t-19 -49v-18h53z" />
    <glyph glyph-name="quoteright" unicode="&#x2019;" horiz-adv-x="263" 
d="M84 570v110h109v-128q0 -60 -33 -88.5t-84 -36.5l-11 53q34 6 53 23t19 49v18h-53z" />
    <glyph glyph-name="quotedblleft" unicode="&#x201c;" horiz-adv-x="443" 
d="M359 547v-110h-109v128q0 60 33 88.5t84 36.5l11 -53q-34 -6 -53 -23t-19 -49v-18h53zM188 547v-110h-108v128q0 60 33 88.5t84 36.5l11 -53q-34 -6 -53 -23t-19 -49v-18h52z" />
    <glyph glyph-name="quotedblright" unicode="&#x201d;" horiz-adv-x="433" 
d="M84 570v110h109v-128q0 -60 -33 -88.5t-84 -36.5l-11 53q34 6 53 23t19 49v18h-53zM255 570v110h108v-128q0 -60 -33 -88.5t-84 -36.5l-11 53q34 6 53 23t19 49v18h-52z" />
    <glyph glyph-name="quotesinglbase" unicode="&#x201a;" horiz-adv-x="273" 
d="M84 0v110h109v-128q0 -60 -33 -88.5t-84 -36.5l-11 53q34 6 53 23t19 49v18h-53z" />
    <glyph glyph-name="quotedblbase" unicode="&#x201e;" horiz-adv-x="443" 
d="M84 0v110h109v-128q0 -60 -33 -88.5t-84 -36.5l-11 53q34 6 53 23t19 49v18h-53zM255 0v110h108v-128q0 -60 -33 -88.5t-84 -36.5l-11 53q34 6 53 23t19 49v18h-52z" />
    <glyph glyph-name="guilsinglleft" unicode="&#x2039;" horiz-adv-x="298" 
d="M172 470h91l-141 -229l141 -231h-90l-143 231z" />
    <glyph glyph-name="guilsinglright" unicode="&#x203a;" horiz-adv-x="298" 
d="M35 10l141 231l-141 229h91l142 -229l-143 -231h-90z" />
    <glyph glyph-name="quotesingle" unicode="'" horiz-adv-x="242" 
d="M86 417l-6 273h82l-6 -273h-70z" />
    <glyph glyph-name="quotedbl" unicode="&#x22;" horiz-adv-x="398" 
d="M86 417l-6 273h80l-6 -273h-68zM244 417l-6 273h80l-6 -273h-68z" />
    <glyph glyph-name="guillemotleft" unicode="&#xab;" horiz-adv-x="504" 
d="M172 470h91l-141 -229l141 -231h-90l-143 231zM374 470h93l-143 -228l145 -232h-94l-143 231z" />
    <glyph glyph-name="guillemotright" unicode="&#xbb;" horiz-adv-x="504" 
d="M37 10l143 228l-145 232h94l143 -231l-142 -229h-93zM241 10l141 229l-141 231h90l143 -231l-142 -229h-91z" />
    <glyph glyph-name="guilsinglleft.cap" horiz-adv-x="298" 
d="M172 570h91l-141 -229l141 -231h-90l-143 231z" />
    <glyph glyph-name="guilsinglright.cap" horiz-adv-x="298" 
d="M35 110l141 231l-141 229h91l142 -229l-143 -231h-90z" />
    <glyph glyph-name="guillemotleft.cap" horiz-adv-x="504" 
d="M172 570h91l-141 -229l141 -231h-90l-143 231zM374 570h93l-143 -228l145 -232h-94l-143 231z" />
    <glyph glyph-name="guillemotright.cap" horiz-adv-x="504" 
d="M37 110l143 228l-145 232h94l143 -231l-142 -229h-93zM241 110l141 229l-141 231h90l143 -231l-142 -229h-91z" />
    <glyph glyph-name="underscore" unicode="_" horiz-adv-x="461" 
d="M461 -194h-461v78h461v-78z" />
    <glyph glyph-name="hyphen" unicode="-" horiz-adv-x="398" 
d="M348 229h-298v78h298v-78z" />
    <glyph glyph-name="endash" unicode="&#x2013;" horiz-adv-x="561" 
d="M511 229h-461v78h461v-78z" />
    <glyph glyph-name="emdash" unicode="&#x2014;" horiz-adv-x="933" 
d="M883 229h-833v78h833v-78z" />
    <glyph glyph-name="hyphen.cap" horiz-adv-x="398" 
d="M348 304h-298v78h298v-78z" />
    <glyph glyph-name="endash.cap" horiz-adv-x="561" 
d="M511 304h-461v78h461v-78z" />
    <glyph glyph-name="emdash.cap" horiz-adv-x="933" 
d="M883 304h-833v78h833v-78z" />
    <glyph glyph-name="uni2012" unicode="&#x2012;" 
d="M556 304h-461v78h461v-78z" />
    <glyph glyph-name="parenleft" unicode="(" horiz-adv-x="428" 
d="M62 274q0 79 19 149t51.5 128t77 106t94.5 85l44 -57q-41 -32 -78 -73.5t-65 -92.5t-45 -112.5t-17 -132.5q0 -143 56.5 -248t143.5 -176l-43 -57q-52 37 -96 87t-75.5 110.5t-49 132.5t-17.5 151z" />
    <glyph glyph-name="parenright" unicode=")" horiz-adv-x="428" 
d="M366 261q0 -79 -19 -149t-51.5 -128t-77 -106t-94.5 -85l-44 57q40 32 77 73.5t65.5 92.5t45.5 112.5t17 132.5q0 143 -55.5 248t-144.5 176l43 57q52 -37 96 -87t75.5 -110.5t49 -132.5t17.5 -151z" />
    <glyph glyph-name="bracketleft" unicode="[" horiz-adv-x="370" 
d="M80 -194v914h230v-72h-152v-770h152v-72h-230z" />
    <glyph glyph-name="bracketright" unicode="]" horiz-adv-x="370" 
d="M60 -122h152v770h-152v72h230v-914h-230v72z" />
    <glyph glyph-name="braceleft" unicode="{" horiz-adv-x="425" 
d="M30 225v74h16q44 0 75.5 25t31.5 87v132q0 99 40.5 138t129.5 39h52v-72h-52q-46 0 -69 -19.5t-23 -77.5v-140q0 -60 -22 -96.5t-66 -52.5q44 -16 66 -52.5t22 -96.5v-138q0 -58 23 -77.5t69 -19.5h52v-72h-52q-89 0 -129.5 39t-40.5 138v130q0 62 -31.5 87t-75.5 25h-16
z" />
    <glyph glyph-name="braceright" unicode="}" horiz-adv-x="425" 
d="M395 225h-16q-44 0 -75.5 -25t-31.5 -87v-130q0 -99 -40.5 -138t-129.5 -39h-52v72h52q46 0 69 19.5t23 77.5v138q0 60 22 96.5t66 52.5q-44 16 -66 52.5t-22 96.5v140q0 58 -23 77.5t-69 19.5h-52v72h52q89 0 129.5 -39t40.5 -138v-132q0 -62 31.5 -87t75.5 -25h16v-74z
" />
    <glyph glyph-name="dblparenleft" horiz-adv-x="627" 
d="M60 275q0 79 19 149t51.5 129t77 107t94.5 85l40 -53q-40 -32 -76.5 -74.5t-64 -94.5t-44 -114.5t-16.5 -133.5q0 -143 55.5 -249t140.5 -177l-39 -53q-52 37 -96 86.5t-75.5 110t-49 132t-17.5 150.5zM265 275q0 79 19 149t51.5 129t77 107t94.5 85l40 -53
q-40 -32 -76.5 -74.5t-64 -94.5t-44 -114.5t-16.5 -133.5q0 -143 55.5 -249t140.5 -177l-39 -53q-52 37 -96 86.5t-75.5 110t-49 132t-17.5 150.5z" />
    <glyph glyph-name="dblparenright" horiz-adv-x="627" 
d="M567 266q0 -79 -19 -149t-51.5 -129t-77 -107t-94.5 -85l-40 53q40 32 76.5 74.5t64 94.5t44 114.5t16.5 133.5q0 143 -55.5 249t-140.5 177l39 53q52 -37 96 -86.5t75.5 -110t49 -132t17.5 -150.5zM362 266q0 -79 -19 -149t-51.5 -129t-77 -107t-94.5 -85l-40 53
q40 32 76.5 74.5t64 94.5t44 114.5t16.5 133.5q0 143 -55.5 249t-140.5 177l39 53q52 -37 96 -86.5t75.5 -110t49 -132t17.5 -150.5z" />
    <glyph glyph-name="uni3008" unicode="&#x3008;" horiz-adv-x="368" 
d="M317 720l-200 -459l201 -455h-82l-201 456l201 458h81z" />
    <glyph glyph-name="uni3009" unicode="&#x3009;" horiz-adv-x="368" 
d="M51 -194l200 459l-201 455h82l201 -456l-201 -458h-81z" />
    <glyph glyph-name="uni301A" unicode="&#x301a;" horiz-adv-x="456" 
d="M80 -194v914h316v-62h-112v-790h112v-62h-316zM146 -132h72v790h-72v-790z" />
    <glyph glyph-name="uni301B" unicode="&#x301b;" horiz-adv-x="456" 
d="M376 720v-914h-316v62h112v790h-112v62h316zM310 658h-72v-790h72v790z" />
    <glyph glyph-name="parenleft.cap" horiz-adv-x="428" 
d="M60 341q0 79 19 146t52 121.5t78 99t95 81.5l44 -57q-41 -32 -78 -70.5t-65 -85.5t-45 -105.5t-17 -129.5q0 -143 56.5 -238t143.5 -166l-43 -57q-52 37 -96 84t-76 104t-50 125.5t-18 147.5z" />
    <glyph glyph-name="parenright.cap" horiz-adv-x="428" 
d="M368 328q0 -79 -19 -146t-52 -121.5t-78 -99t-95 -81.5l-44 57q41 32 78 70.5t65 85.5t45 105.5t17 129.5q0 143 -56.5 238t-143.5 166l43 57q52 -37 96 -84t76 -104t50 -125.5t18 -147.5z" />
    <glyph glyph-name="bracketleft.cap" horiz-adv-x="370" 
d="M80 -102v874h230v-72h-152v-730h152v-72h-230z" />
    <glyph glyph-name="bracketright.cap" horiz-adv-x="370" 
d="M60 -30h152v730h-152v72h230v-874h-230v72z" />
    <glyph glyph-name="braceleft.cap" horiz-adv-x="425" 
d="M30 297v74h16q44 0 75.5 25t31.5 87v112q0 99 40.5 138t129.5 39h52v-72h-52q-46 0 -69 -19.5t-23 -77.5v-120q0 -60 -22 -96.5t-66 -52.5q44 -16 66 -52.5t22 -96.5v-118q0 -58 23 -77.5t69 -19.5h52v-72h-52q-89 0 -129.5 39t-40.5 138v110q0 62 -31.5 87t-75.5 25h-16
z" />
    <glyph glyph-name="braceright.cap" horiz-adv-x="425" 
d="M395 297h-16q-44 0 -75.5 -25t-31.5 -87v-110q0 -99 -40.5 -138t-129.5 -39h-52v72h52q46 0 69 19.5t23 77.5v118q0 60 22 96.5t66 52.5q-44 16 -66 52.5t-22 96.5v120q0 58 -23 77.5t-69 19.5h-52v72h52q89 0 129.5 -39t40.5 -138v-112q0 -62 31.5 -87t75.5 -25h16v-74z
" />
    <glyph glyph-name="dblparenleft.cap" horiz-adv-x="627" 
d="M60 339q0 79 19 146t51.5 122t77 100t94.5 82l40 -53q-40 -32 -76.5 -71t-64 -87.5t-44 -108t-16.5 -130.5q0 -143 55.5 -239t140.5 -167l-39 -53q-52 37 -96 83.5t-75.5 103t-49 125t-17.5 147.5zM265 339q0 79 19 146t51.5 122t77 100t94.5 82l40 -53
q-40 -32 -76.5 -71t-64 -87.5t-44 -108t-16.5 -130.5q0 -143 55.5 -239t140.5 -167l-39 -53q-52 37 -96 83.5t-75.5 103t-49 125t-17.5 147.5z" />
    <glyph glyph-name="dblparenright.cap" horiz-adv-x="627" 
d="M567 330q0 -79 -19 -146t-51.5 -122t-77 -100t-94.5 -82l-40 53q40 32 76.5 71t64 87.5t44 108t16.5 130.5q0 143 -55.5 239t-140.5 167l39 53q52 -37 96 -83.5t75.5 -103t49 -125t17.5 -147.5zM362 330q0 -79 -19 -146t-51.5 -122t-77 -100t-94.5 -82l-40 53
q40 32 76.5 71t64 87.5t44 108t16.5 130.5q0 143 -55.5 239t-140.5 167l39 53q52 -37 96 -83.5t75.5 -103t49 -125t17.5 -147.5z" />
    <glyph glyph-name="uni3008.cap" horiz-adv-x="368" 
d="M317 772l-200 -439l201 -435h-82l-201 436l201 438h81z" />
    <glyph glyph-name="uni3009.cap" horiz-adv-x="368" 
d="M51 -102l200 439l-201 435h82l201 -436l-201 -438h-81z" />
    <glyph glyph-name="uni301A.cap" horiz-adv-x="456" 
d="M80 -102v874h316v-62h-112v-750h112v-62h-316zM146 -40h72v750h-72v-750z" />
    <glyph glyph-name="uni301B.cap" horiz-adv-x="456" 
d="M376 772v-874h-316v62h112v750h-112v62h316zM310 710h-72v-750h72v750z" />
    <glyph glyph-name="slash" unicode="/" horiz-adv-x="533" 
d="M83 -194l291 914h79l-292 -914h-78z" />
    <glyph glyph-name="backslash" unicode="\" horiz-adv-x="533" 
d="M453 -194h-79l-291 914h78z" />
    <glyph glyph-name="bar" unicode="|" horiz-adv-x="315" 
d="M120 -194v914h75v-914h-75z" />
    <glyph glyph-name="brokenbar" unicode="&#xa6;" horiz-adv-x="315" 
d="M120 320v400h75v-400h-75zM120 -194v400h75v-400h-75z" />
    <glyph glyph-name="slash.cap" horiz-adv-x="457" 
d="M50 -102l278 874h79l-279 -874h-78z" />
    <glyph glyph-name="backslash.cap" horiz-adv-x="457" 
d="M407 -102h-79l-278 874h78z" />
    <glyph glyph-name="bar.cap" horiz-adv-x="315" 
d="M120 -102v874h75v-874h-75z" />
    <glyph glyph-name="brokenbar.cap" horiz-adv-x="315" 
d="M120 392v380h75v-380h-75zM120 -102v380h75v-380h-75z" />
    <glyph glyph-name="fraction" unicode="&#x2044;" horiz-adv-x="183" 
d="M-72 0h-62l391 680h62z" />
    <glyph glyph-name="numbersign" unicode="#" horiz-adv-x="782" 
d="M176 -70l17 213h-123v70h128l17 212h-145v70h151l15 195h72l-15 -195h216l15 195h72l-15 -195h121v-70h-127l-17 -212h144v-70h-149l-17 -213h-72l17 213h-216l-17 -213h-72zM270 213h216l17 212h-216z" />
    <glyph glyph-name="uni2116" unicode="&#x2116;" horiz-adv-x="1057" 
d="M831 372q-58 0 -101 38t-43 119q0 79 43.5 117.5t102.5 38.5q60 0 102 -38.5t42 -117.5t-42.5 -118t-103.5 -39zM613 0h-105l-338 547v-547h-83v680h96l347 -562v562h83v-680zM832 432q34 0 54 24t20 73q0 48 -20 72t-54 24q-33 0 -53.5 -23.5t-20.5 -72.5t21 -73t53 -24
zM970 246h-277v69h277v-69z" />
    <glyph glyph-name="percent" unicode="%" horiz-adv-x="838" 
d="M205 328q-72 0 -118.5 47t-46.5 137q0 87 46.5 132.5t118.5 45.5q73 0 117.5 -45.5t44.5 -132.5q0 -90 -44.5 -137t-117.5 -47zM261 0h-75l391 680h75zM205 394q41 0 65.5 29t24.5 88q0 56 -24.5 84.5t-65.5 28.5q-40 0 -66.5 -28t-26.5 -85q0 -59 26.5 -88t66.5 -29z
M636 -10q-72 0 -118.5 47t-46.5 137q0 87 46.5 132.5t118.5 45.5q73 0 117.5 -45.5t44.5 -132.5q0 -90 -44.5 -137t-117.5 -47zM636 56q41 0 65.5 29t24.5 88q0 56 -24.5 84.5t-65.5 28.5q-40 0 -66.5 -28t-26.5 -85q0 -59 26.5 -88t66.5 -29z" />
    <glyph glyph-name="perthousand" unicode="&#x2030;" horiz-adv-x="1223" 
d="M205 328q-72 0 -118.5 47t-46.5 137q0 87 46.5 132.5t118.5 45.5q73 0 117.5 -45.5t44.5 -132.5q0 -90 -44.5 -137t-117.5 -47zM261 0h-75l391 680h75zM205 394q41 0 65.5 29t24.5 88q0 56 -24.5 84.5t-65.5 28.5q-40 0 -66.5 -28t-26.5 -85q0 -59 26.5 -88t66.5 -29z
M1021 -10q-72 0 -118.5 47t-46.5 137q0 87 46.5 132.5t118.5 45.5q73 0 117.5 -45.5t44.5 -132.5q0 -90 -44.5 -137t-117.5 -47zM636 -10q-72 0 -118.5 47t-46.5 137q0 87 46.5 132.5t118.5 45.5q73 0 117.5 -45.5t44.5 -132.5q0 -90 -44.5 -137t-117.5 -47zM1021 56
q41 0 65.5 29t24.5 88q0 56 -24.5 84.5t-65.5 28.5q-40 0 -66.5 -28t-26.5 -85q0 -59 26.5 -88t66.5 -29zM636 56q41 0 65.5 29t24.5 88q0 56 -24.5 84.5t-65.5 28.5q-40 0 -66.5 -28t-26.5 -85q0 -59 26.5 -88t66.5 -29z" />
    <glyph glyph-name="degree" unicode="&#xb0;" horiz-adv-x="426" 
d="M212 367q-66 0 -114 44.5t-48 117.5q0 72 48 116.5t114 44.5q68 0 116 -44.5t48 -116.5q0 -73 -48 -117.5t-116 -44.5zM212 437q37 0 64.5 25.5t27.5 66.5t-27.5 66t-64.5 25t-63.5 -25t-26.5 -66t26.5 -66.5t63.5 -25.5z" />
    <glyph glyph-name="at" unicode="@" horiz-adv-x="878" 
d="M643 -96q-31 -24 -86.5 -39t-115.5 -15q-82 0 -152.5 25t-121 73.5t-79 121t-28.5 166.5q0 88 29 161t81.5 124.5t126.5 80t163 28.5q76 0 143.5 -24.5t116.5 -69t77.5 -108.5t28.5 -142q0 -116 -48.5 -179t-117.5 -63q-39 0 -69.5 18t-41.5 52q-14 -32 -50 -51t-78 -19
q-76 0 -122 53.5t-46 140.5q0 47 14 84t37.5 61.5t55.5 37.5t67 13q34 0 61 -13t46 -32v38h71v-256q0 -32 17 -47.5t42 -15.5q40 0 66 48t26 129q0 64 -23.5 116t-63.5 88t-95 55.5t-118 19.5q-72 0 -132 -25t-102.5 -69t-66 -104t-23.5 -130q0 -77 23.5 -137t65.5 -100
t99.5 -60.5t124.5 -20.5q48 0 94 13.5t74 29.5zM534 234v15q0 63 -30 91t-71 28q-46 0 -75 -34.5t-29 -94.5q0 -62 28.5 -96t75.5 -34q43 0 72 31t29 94z" />
    <glyph glyph-name="at.cap" horiz-adv-x="878" 
d="M643 4q-31 -24 -86.5 -39t-115.5 -15q-82 0 -152.5 25t-121 73.5t-79 121t-28.5 166.5q0 88 29 161t81.5 124.5t126.5 80t163 28.5q76 0 143.5 -24.5t116.5 -69t77.5 -108.5t28.5 -142q0 -116 -48.5 -179t-117.5 -63q-39 0 -69.5 18t-41.5 52q-14 -32 -50 -51t-78 -19
q-76 0 -122 53.5t-46 140.5q0 47 14 84t37.5 61.5t55.5 37.5t67 13q34 0 61 -13t46 -32v38h71v-256q0 -32 17 -47.5t42 -15.5q40 0 66 48t26 129q0 64 -23.5 116t-63.5 88t-95 55.5t-118 19.5q-72 0 -132 -25t-102.5 -69t-66 -104t-23.5 -130q0 -77 23.5 -137t65.5 -100
t99.5 -60.5t124.5 -20.5q48 0 94 13.5t74 29.5zM534 334v15q0 63 -30 91t-71 28q-46 0 -75 -34.5t-29 -94.5q0 -62 28.5 -96t75.5 -34q43 0 72 31t29 94z" />
    <glyph glyph-name="ampersand" unicode="&#x26;" horiz-adv-x="694" 
d="M551 0l-49 52q-37 -28 -87 -45t-118 -17q-115 0 -183.5 54t-68.5 150q0 78 44.5 124t113.5 59q-23 29 -41 64.5t-18 76.5q0 72 52 122t139 50q85 0 135 -46.5t50 -121.5q0 -78 -50.5 -124.5t-128.5 -58.5l169 -177q24 34 41 87.5t24 97.5l75 -12q-11 -72 -35 -129.5
t-54 -96.5l103 -109h-113zM226 519q0 -38 19 -67.5t48 -60.5l30 5q55 10 87.5 40.5t32.5 83.5q0 46 -30 72t-78 26q-51 0 -80 -28t-29 -71zM125 198q0 -60 48 -97t127 -37q47 0 85.5 11t67.5 30l-203 219q-51 -8 -88 -39.5t-37 -86.5z" />
    <glyph glyph-name="section" unicode="&#xa7;" horiz-adv-x="563" 
d="M475 -40q0 -73 -56 -119t-149 -46q-90 0 -144 41t-64 121l81 8q10 -49 44 -73.5t84 -24.5q57 0 90.5 25t33.5 65q0 46 -31 65.5t-81 32.5l-83 22q-67 18 -106.5 53.5t-39.5 107.5q0 58 33.5 98t81.5 62q-34 20 -54.5 52t-20.5 81q0 68 54 113.5t144 45.5q81 0 136 -42
t63 -120l-80 -8q-9 48 -38.5 73t-80.5 25q-56 0 -87 -25.5t-31 -61.5q0 -39 27 -59t67 -32l97 -28q74 -22 111 -59t37 -107q0 -57 -32 -95.5t-80 -58.5q35 -19 54.5 -49.5t19.5 -82.5zM310 124q3 -1 6 -1.5t7 -1.5q46 13 77.5 43t31.5 74q0 43 -25.5 68.5t-76.5 39.5l-87 23
q-44 -13 -76.5 -44.5t-32.5 -78.5q0 -40 24.5 -64.5t67.5 -35.5z" />
    <glyph glyph-name="paragraph" unicode="&#xb6;" horiz-adv-x="624" 
d="M252 -180v450q-50 0 -89.5 16t-66.5 44t-41.5 65.5t-14.5 79.5q0 43 14.5 80.5t41.5 65t66.5 43.5t89.5 16h342v-80h-80v-780h-86v780h-90v-780h-86z" />
    <glyph glyph-name="dagger" unicode="&#x2020;" horiz-adv-x="516" 
d="M220 -10v445h-160v70h160v185h76v-185h160v-70h-160v-445h-76z" />
    <glyph glyph-name="daggerdbl" unicode="&#x2021;" horiz-adv-x="516" 
d="M220 -10v186h-160v70h160v189h-160v70h160v185h76v-185h160v-70h-160v-189h160v-70h-160v-186h-76z" />
    <glyph glyph-name="asterisk" unicode="*" horiz-adv-x="374" 
d="M158 376l4 113l-96 -60l-29 51l99 53l-99 53l29 51l96 -60l-4 113h58l-4 -113l96 60l29 -51l-99 -53l99 -53l-29 -51l-96 60l4 -113h-58z" />
    <glyph glyph-name="periodcentered" unicode="&#xb7;" horiz-adv-x="297" 
d="M95 283v110h107v-110h-107z" />
    <glyph glyph-name="bullet" unicode="&#x2022;" horiz-adv-x="351" 
d="M175 248q-45 0 -77 32t-32 78t32 78t77 32q46 0 78 -32t32 -78t-32 -78t-78 -32z" />
    <glyph glyph-name="copyright" unicode="&#xa9;" horiz-adv-x="842" 
d="M421 -51q-75 0 -139.5 27t-111 73.5t-73.5 110.5t-27 138t27 138.5t73.5 111.5t111 74t139.5 27q74 0 138.5 -27t111.5 -74t74 -111.5t27 -138.5t-27 -138t-74 -110.5t-111.5 -73.5t-138.5 -27zM421 5q61 0 114 23t91.5 62t60.5 93t22 115q0 62 -22 116t-60.5 93.5
t-91.5 62.5t-114 23q-62 0 -115 -23t-91 -62.5t-60 -93.5t-22 -116q0 -61 21.5 -115t60 -93t91.5 -62t115 -23zM429 104q-79 0 -131 51t-52 143q0 48 15 85t40 62t58 38t70 13q63 0 106 -33t55 -90l-72 -17q-8 25 -28.5 46.5t-60.5 21.5q-45 0 -75.5 -34t-30.5 -92
q0 -56 30.5 -89t75.5 -33q40 0 61 19.5t28 44.5l72 -15q-11 -55 -55.5 -88t-105.5 -33z" />
    <glyph glyph-name="copyright.pnum_lnum" horiz-adv-x="842" 
d="M421 -11q-75 0 -139.5 27t-111 73.5t-73.5 110.5t-27 138t27 138.5t73.5 111.5t111 74t139.5 27q74 0 138.5 -27t111.5 -74t74 -111.5t27 -138.5t-27 -138t-74 -110.5t-111.5 -73.5t-138.5 -27zM421 45q61 0 114 23t91.5 62t60.5 93t22 115q0 62 -22 116t-60.5 93.5
t-91.5 62.5t-114 23q-62 0 -115 -23t-91 -62.5t-60 -93.5t-22 -116q0 -61 21.5 -115t60 -93t91.5 -62t115 -23zM429 144q-79 0 -131 51t-52 143q0 48 15 85t40 62t58 38t70 13q63 0 106 -33t55 -90l-72 -17q-8 25 -28.5 46.5t-60.5 21.5q-45 0 -75.5 -34t-30.5 -92
q0 -56 30.5 -89t75.5 -33q40 0 61 19.5t28 44.5l72 -15q-11 -55 -55.5 -88t-105.5 -33z" />
    <glyph glyph-name="registered" unicode="&#xae;" horiz-adv-x="586" 
d="M293 224q-48 0 -90.5 18t-74 49t-50 74t-18.5 92t18 92t49.5 74t74 49t91.5 18t91.5 -18t74 -49t49.5 -74t18 -92t-18 -92t-49.5 -74t-74 -49t-91.5 -18zM293 271q79 0 131.5 53t52.5 133t-51.5 133t-130.5 53t-131.5 -53t-52.5 -133t52.5 -133t129.5 -53zM194 343v230
h112q46 0 69 -19.5t23 -56.5q0 -27 -11 -44t-33 -25l57 -85h-73l-48 77h-30v-77h-66zM300 523h-40v-53h40q19 0 26.5 7t7.5 20q0 12 -7.5 19t-26.5 7z" />
    <glyph glyph-name="trademark" unicode="&#x2122;" horiz-adv-x="787" 
d="M40 620v60h286v-60h-110v-260h-66v260h-110zM378 360v320h92l95 -212l88 212h91v-320h-64v239l-90 -209h-55l-94 211v-241h-63z" />
    <glyph glyph-name="uni2113" unicode="&#x2113;" horiz-adv-x="473" 
d="M350 75v-75h-57q-84 0 -121 36t-37 129v71q-22 -15 -43.5 -28t-47.5 -28l-29 58q34 19 63.5 38.5t56.5 39.5v231q0 66 35.5 104.5t92.5 38.5q59 0 89.5 -35t30.5 -97q0 -36 -13.5 -74.5t-36.5 -75t-54.5 -70t-66.5 -59.5v-116q0 -49 22.5 -68.5t67.5 -19.5h48zM212 549
v-180q43 40 68 94t25 92q0 27 -10.5 44.5t-32.5 17.5q-27 0 -38.5 -20t-11.5 -48z" />
    <glyph glyph-name="estimated" unicode="&#x212e;" horiz-adv-x="772" 
d="M709 192q-34 -93 -116.5 -147.5t-192.5 -54.5q-73 0 -137 25t-111 71.5t-74.5 113.5t-27.5 150q0 78 26 141t71.5 107t109 68t137.5 24q69 0 129 -23t104 -64t69.5 -98.5t25.5 -125.5v-55h-562v-155q37 -58 99.5 -91t141.5 -33q87 0 151.5 39t94.5 108h62zM394 635
q-76 0 -136.5 -30.5t-97.5 -84.5v-141h458v150q-35 49 -93 77.5t-131 28.5z" />
    <glyph glyph-name="uni2610" unicode="&#x2610;" horiz-adv-x="911" 
d="M100 -30v731h711v-731h-711zM145 14h621v643h-621v-643z" />
    <glyph glyph-name="uni2611" unicode="&#x2611;" horiz-adv-x="911" 
d="M208 489l71 37l168 -301l285 559l72 -30l-337 -658h-43zM599 657h-454v-643h621v575h45v-619h-711v731h499v-44z" />
    <glyph glyph-name="uni2713" unicode="&#x2713;" horiz-adv-x="704" 
d="M54 383l71 37l168 -301l285 559l72 -30l-337 -658h-43z" />
    <glyph glyph-name="zero" unicode="0" horiz-adv-x="670" 
d="M335 -10q-144 0 -209.5 90.5t-65.5 259.5q0 166 65.5 258t209.5 92q145 0 210 -92t65 -258q0 -169 -65 -259.5t-210 -90.5zM335 66q101 0 145 72t44 202q0 131 -44 202.5t-145 71.5q-100 0 -144.5 -71.5t-44.5 -202.5q0 -130 44.5 -202t144.5 -72z" />
    <glyph glyph-name="zero.zero" horiz-adv-x="670" 
d="M335 -10q-144 0 -209.5 90.5t-65.5 259.5q0 166 65.5 258t209.5 92q145 0 210 -92t65 -258q0 -169 -65 -259.5t-210 -90.5zM143 340q0 -57 8.5 -105t27.5 -82l265 431q-21 16 -48 24t-61 8q-100 0 -146 -72.5t-46 -203.5zM335 64q101 0 146.5 73t45.5 203q0 61 -9.5 110
t-29.5 84l-267 -433q22 -18 50.5 -27.5t63.5 -9.5z" />
    <glyph glyph-name="one" unicode="1" horiz-adv-x="510" 
d="M82 80h170v517l-186 -104l-39 67l205 120h104v-600h159v-80h-413v80z" />
    <glyph glyph-name="two" unicode="2" horiz-adv-x="614" 
d="M464 482q0 54 -38 93t-111 39q-75 0 -122.5 -43t-63.5 -115l-79 15q15 96 85 157.5t181 61.5q55 0 99 -16t73.5 -43.5t45.5 -66t16 -82.5q0 -48 -15.5 -85.5t-43 -69t-65 -60.5t-80.5 -60l-178 -127h396v-80h-503v94l235 169q74 53 121 100t47 119z" />
    <glyph glyph-name="three" unicode="3" horiz-adv-x="646" 
d="M321 -10q-102 0 -175 41.5t-96 148.5l82 16q16 -70 66.5 -100t122.5 -30q84 0 131.5 38t47.5 103q0 34 -15 57t-39.5 37t-57 19.5t-67.5 5.5q-22 0 -44.5 -3t-38.5 -6l-27 69l269 214h-396v80h479v-106l-233 -180q7 1 14.5 1h12.5q106 0 167.5 -48.5t61.5 -139.5
q0 -51 -19.5 -91.5t-54 -68t-83.5 -42.5t-108 -15z" />
    <glyph glyph-name="four" unicode="4" horiz-adv-x="643" 
d="M501 0h-82v162h-381v105l347 413h116v-442h102v-76h-102v-162zM107 238h312v365z" />
    <glyph glyph-name="five" unicode="5" horiz-adv-x="624" 
d="M541 600h-357l-22 -212q33 22 76 33.5t85 11.5q119 0 186 -57.5t67 -159.5q0 -100 -69.5 -163t-189.5 -63q-110 0 -177 46.5t-86 133.5l81 16q13 -60 62 -90t120 -30q85 0 129 39.5t44 109.5q0 68 -46 105.5t-124 37.5q-45 0 -84.5 -12.5t-72.5 -37.5l-82 24l37 348h423
v-80z" />
    <glyph glyph-name="six" unicode="6" horiz-adv-x="641" 
d="M581 212q0 -100 -70.5 -161t-186.5 -61q-84 0 -136.5 27t-81 73t-38.5 107t-10 128q0 199 74 282t197 83q100 0 165 -44.5t86 -125.5l-81 -17q-5 19 -17.5 39t-33.5 36t-50.5 26t-68.5 10t-73.5 -13t-60.5 -43t-41 -80t-15 -124q28 38 80.5 58.5t114.5 20.5
q48 0 92.5 -12t79 -38.5t55 -68.5t20.5 -102zM322 359q-78 0 -125.5 -37.5t-47.5 -109.5q0 -69 49.5 -108t123.5 -39q78 0 125.5 37.5t47.5 109.5t-47.5 109.5t-125.5 37.5z" />
    <glyph glyph-name="seven" unicode="7" horiz-adv-x="560" 
d="M110 0l340 600h-415v80h490v-109l-315 -571h-100z" />
    <glyph glyph-name="eight" unicode="8" horiz-adv-x="674" 
d="M602 194q0 -95 -72.5 -149.5t-189.5 -54.5q-121 0 -194.5 51.5t-73.5 144.5q0 64 32 101.5t86 58.5q-48 19 -77 57.5t-29 93.5q0 91 70.5 142t186.5 51q122 0 187 -49.5t65 -133.5q0 -62 -28 -100t-79 -58q51 -18 83.5 -56t32.5 -99zM341 382q80 0 124 30.5t44 89.5
q0 51 -42.5 82.5t-126.5 31.5q-81 0 -126.5 -31.5t-45.5 -84.5q0 -56 42.5 -87t130.5 -31zM340 312q-81 0 -132 -31t-51 -89q0 -60 49.5 -94t133.5 -34q80 0 129 34t49 91q0 60 -46.5 91.5t-131.5 31.5z" />
    <glyph glyph-name="nine" unicode="9" horiz-adv-x="640" 
d="M60 468q0 100 70.5 161t186.5 61q84 0 136.5 -27t81 -73t38.5 -107t10 -128q0 -199 -74 -282t-197 -83q-100 0 -165 44.5t-86 125.5l81 17q5 -19 17.5 -39t33.5 -36t50.5 -26t68.5 -10t73.5 13t60.5 43t41 80t15 124q-28 -38 -80.5 -58.5t-114.5 -20.5q-48 0 -92.5 12
t-79 38.5t-55 68.5t-20.5 102zM319 321q78 0 125.5 37.5t47.5 109.5q0 69 -49.5 108t-123.5 39q-78 0 -125.5 -37.5t-47.5 -109.5t47.5 -109.5t125.5 -37.5z" />
    <glyph glyph-name="zero.tnum_lnum" 
d="M325 -10q-144 0 -209.5 90.5t-65.5 259.5q0 166 65.5 258t209.5 92q145 0 210 -92t65 -258q0 -169 -65 -259.5t-210 -90.5zM325 66q101 0 145 72t44 202q0 131 -44 202.5t-145 71.5q-100 0 -144.5 -71.5t-44.5 -202.5q0 -130 44.5 -202t144.5 -72z" />
    <glyph glyph-name="zero.tnum_lnum_zero" 
d="M325 -10q-144 0 -209.5 90.5t-65.5 259.5q0 166 65.5 258t209.5 92q145 0 210 -92t65 -258q0 -169 -65 -259.5t-210 -90.5zM133 340q0 -63 10.5 -113.5t32.5 -85.5l268 436q-22 19 -52 29.5t-67 10.5q-100 0 -146 -73t-46 -204zM325 63q101 0 146.5 73.5t45.5 203.5
q0 56 -8 102t-25 80l-264 -429q21 -15 47 -22.5t58 -7.5z" />
    <glyph glyph-name="one.tnum_lnum" 
d="M102 80h223v515l-218 -123l-39 68l237 140h104v-600h204v-80h-511v80z" />
    <glyph glyph-name="two.tnum_lnum" 
d="M481 482q0 54 -38 93t-111 39q-75 0 -122.5 -43t-63.5 -115l-79 15q15 96 85 157.5t181 61.5q55 0 99 -16t73.5 -43.5t45.5 -66t16 -82.5q0 -48 -15.5 -85.5t-43 -69t-65 -60.5t-80.5 -60l-178 -127h396v-80h-503v94l235 169q74 53 121 100t47 119z" />
    <glyph glyph-name="three.tnum_lnum" 
d="M321 -10q-102 0 -175 41.5t-96 148.5l82 16q16 -70 66.5 -100t122.5 -30q84 0 131.5 38t47.5 103q0 34 -15 57t-39.5 37t-57 19.5t-67.5 5.5q-22 0 -44.5 -3t-38.5 -6l-27 69l269 214h-396v80h479v-106l-233 -180q7 1 14.5 1h12.5q106 0 167.5 -48.5t61.5 -139.5
q0 -51 -19.5 -91.5t-54 -68t-83.5 -42.5t-108 -15z" />
    <glyph glyph-name="four.tnum_lnum" 
d="M516 0h-82v162h-381v105l347 413h116v-442h102v-76h-102v-162zM122 238h312v365z" />
    <glyph glyph-name="five.tnum_lnum" 
d="M549 600h-357l-22 -212q33 22 76 33.5t85 11.5q119 0 186 -57.5t67 -159.5q0 -100 -69.5 -163t-189.5 -63q-110 0 -177 46.5t-86 133.5l81 16q13 -60 62 -90t120 -30q85 0 129 39.5t44 109.5q0 68 -46 105.5t-124 37.5q-45 0 -84.5 -12.5t-72.5 -37.5l-82 24l37 348h423
v-80z" />
    <glyph glyph-name="six.tnum_lnum" 
d="M581 212q0 -100 -70.5 -161t-186.5 -61q-84 0 -136.5 27t-81 73t-38.5 107t-10 128q0 199 74 282t197 83q100 0 165 -44.5t86 -125.5l-81 -17q-5 19 -17.5 39t-33.5 36t-50.5 26t-68.5 10t-73.5 -13t-60.5 -43t-41 -80t-15 -124q28 38 80.5 58.5t114.5 20.5
q48 0 92.5 -12t79 -38.5t55 -68.5t20.5 -102zM322 359q-78 0 -125.5 -37.5t-47.5 -109.5q0 -69 49.5 -108t123.5 -39q78 0 125.5 37.5t47.5 109.5t-47.5 109.5t-125.5 37.5z" />
    <glyph glyph-name="seven.tnum_lnum" 
d="M135 0l359 600h-434v80h510v-109l-335 -571h-100z" />
    <glyph glyph-name="eight.tnum_lnum" 
d="M582 192q0 -95 -68.5 -148.5t-185.5 -53.5q-121 0 -188.5 50.5t-67.5 143.5q0 64 32 102.5t86 58.5q-48 20 -77 58.5t-29 93.5q0 91 64.5 142t180.5 51q122 0 183 -49.5t61 -133.5q0 -62 -28 -100t-80 -58q51 -19 84 -57.5t33 -99.5zM329 382q80 0 120 30.5t40 89.5
q0 51 -38.5 82.5t-122.5 31.5q-81 0 -120.5 -31.5t-39.5 -84.5q0 -56 36.5 -87t124.5 -31zM328 312q-81 0 -126 -32t-45 -90q0 -60 43.5 -93t127.5 -33q80 0 125 33t45 90q0 60 -42.5 92.5t-127.5 32.5z" />
    <glyph glyph-name="nine.tnum_lnum" 
d="M60 468q0 100 70.5 161t186.5 61q84 0 136.5 -27t81 -73t38.5 -107t10 -128q0 -199 -74 -282t-197 -83q-100 0 -165 44.5t-86 125.5l81 17q5 -19 17.5 -39t33.5 -36t50.5 -26t68.5 -10t73.5 13t60.5 43t41 80t15 124q-28 -38 -80.5 -58.5t-114.5 -20.5q-48 0 -92.5 12
t-79 38.5t-55 68.5t-20.5 102zM319 321q78 0 125.5 37.5t47.5 109.5q0 69 -49.5 108t-123.5 39q-78 0 -125.5 -37.5t-47.5 -109.5t47.5 -109.5t125.5 -37.5z" />
    <glyph glyph-name="plus" unicode="+" 
d="M289 65v218h-217v70h217v218h72v-218h217v-70h-217v-218h-72z" />
    <glyph glyph-name="minus" unicode="&#x2212;" 
d="M87 356h476v-76h-476v76z" />
    <glyph glyph-name="plusminus" unicode="&#xb1;" 
d="M289 165v188h-217v70h217v188h72v-188h217v-70h-217v-188h-72zM72 105h506v-74h-506v74z" />
    <glyph glyph-name="divide" unicode="&#xf7;" 
d="M272 466v106h106v-106h-106zM72 356h506v-76h-506v76zM272 59v106h106v-106h-106z" />
    <glyph glyph-name="multiply" unicode="&#xd7;" 
d="M98 141l177 177l-177 177l50 50l177 -177l177 177l49 -49l-177 -177l179 -178l-50 -50l-179 178l-177 -177z" />
    <glyph glyph-name="equal" unicode="=" 
d="M85 453h480v-76h-480v76zM85 233h480v-76h-480v76z" />
    <glyph glyph-name="less" unicode="&#x3c;" 
d="M565 146v-86l-480 201v112l480 203v-86l-419 -173z" />
    <glyph glyph-name="greater" unicode="&#x3e;" 
d="M85 490v86l480 -201v-112l-480 -203v86l419 173z" />
    <glyph glyph-name="lessequal" unicode="&#x2264;" 
d="M565 206v-86l-480 181v112l480 183v-86l-418 -153zM85 86h480v-76h-480v76z" />
    <glyph glyph-name="greaterequal" unicode="&#x2265;" 
d="M85 206v-86l480 181v112l-480 183v-86l418 -153zM565 86h-480v-76h480v76z" />
    <glyph glyph-name="approxequal" unicode="&#x2248;" 
d="M227 492q29 0 55 -10.5t50.5 -22.5t47.5 -22.5t46 -10.5q32 0 47 16t19 46h76q-6 -66 -42 -101t-99 -35q-30 0 -56.5 10t-50.5 22t-47 22t-46 10q-29 0 -47 -15.5t-22 -46.5h-76q5 66 42 102t103 36zM227 286q29 0 55 -10.5t50.5 -22.5t47.5 -22.5t46 -10.5q32 0 47 16
t19 46h74q-4 -69 -44 -102.5t-95 -33.5q-34 0 -61 10t-50 22t-44.5 22t-44.5 10q-29 0 -47 -16.5t-22 -45.5h-76q5 66 42 102t103 36z" />
    <glyph glyph-name="notequal" unicode="&#x2260;" 
d="M130 30l68 121h-113v72h154l85 150h-239v72h280l74 131h81l-74 -131h119v-72h-160l-85 -150h245v-72h-286l-68 -121h-81z" />
    <glyph glyph-name="infinity" unicode="&#x221e;" horiz-adv-x="792" 
d="M732 295q0 -32 -11 -61.5t-31.5 -51.5t-51 -35.5t-68.5 -13.5q-60 0 -99.5 32t-71.5 78q-12 -18 -29.5 -37.5t-39.5 -35.5t-49 -26.5t-59 -10.5q-37 0 -67.5 13.5t-51 35.5t-32 51.5t-11.5 61.5q0 75 44.5 122t120.5 47q55 0 96 -31t75 -80q35 46 76.5 78.5t99.5 32.5
q75 0 117.5 -48.5t42.5 -120.5zM137 300q0 -45 28 -69t65 -24q20 0 38.5 8.5t34 21.5t28 28.5t20.5 28.5q-24 34 -54.5 65t-70.5 31q-33 0 -61 -22.5t-28 -67.5zM567 390q-33 0 -62.5 -24.5t-62.5 -67.5q25 -36 57 -63.5t70 -27.5t62 26.5t24 66.5t-25.5 65t-62.5 25z" />
    <glyph glyph-name="logicalnot" unicode="&#xac;" 
d="M87 396h476v-241h-76v165h-400v76z" />
    <glyph glyph-name="asciicircum" unicode="^" horiz-adv-x="544" 
d="M315 680l179 -346h-87l-135 268l-134 -268h-88l178 346h87z" />
    <glyph glyph-name="asciitilde" unicode="~" horiz-adv-x="682" 
d="M568 405q-7 -71 -41 -114.5t-104 -43.5q-27 0 -54.5 13t-52.5 29t-48 29t-42 13q-32 0 -48 -25t-20 -55h-76q7 70 41 114t104 44q31 0 58 -13t51 -29t46 -29t42 -13q32 0 48 25t20 55h76z" />
    <glyph glyph-name="currency" unicode="&#xa4;" 
d="M94 53l-57 57l117 116q-15 23 -23 52t-8 63q0 35 8.5 64.5t23.5 51.5l-111 112l56 56l113 -113q24 13 53 20.5t61 7.5t60.5 -7.5t51.5 -20.5l117 116l56 -56l-115 -116q13 -23 21 -52t8 -63t-7.5 -62.5t-21.5 -50.5l112 -112l-56 -56l-112 111q-23 -14 -52 -21.5
t-62 -7.5t-62 7.5t-54 21.5zM202 341q0 -60 33.5 -92.5t91.5 -32.5t88.5 32.5t30.5 92.5t-30.5 93t-88.5 33t-91.5 -33t-33.5 -93z" />
    <glyph glyph-name="dollar" unicode="$" 
d="M64 180l83 10q13 -56 50 -86.5t95 -36.5v235q-103 18 -158.5 61t-55.5 133q0 45 16.5 79.5t45 58t68 37t84.5 17.5v82h66v-81q96 -7 150 -55t68 -126l-81 -8q-11 44 -42.5 75.5t-94.5 37.5v-239q104 -19 162 -59t58 -133q0 -91 -60.5 -138t-159.5 -53v-81h-66v81
q-91 7 -151.5 53t-76.5 136zM162 499q0 -51 33.5 -75.5t96.5 -37.5v227q-59 -7 -94.5 -37.5t-35.5 -76.5zM494 177q0 54 -34.5 78.5t-101.5 36.5v-226q66 5 101 33.5t35 77.5z" />
    <glyph glyph-name="cent" unicode="&#xa2;" 
d="M295 0v92q-87 11 -142.5 73.5t-55.5 172.5q0 107 57 170.5t141 74.5v93h66v-91q75 -6 124.5 -46.5t67.5 -111.5l-72 -17q-13 40 -41.5 68t-78.5 34v-349q51 6 78 33t40 62l71 -15q-16 -63 -62 -104.5t-127 -47.5v-91h-66zM176 341q0 -69 31 -115.5t88 -59.5v344
q-53 -13 -86 -58t-33 -111z" />
    <glyph glyph-name="sterling" unicode="&#xa3;" 
d="M438 261h-159q1 -10 2.5 -21.5t1.5 -23.5q0 -47 -19.5 -81t-48.5 -55h355v-80h-479v80q49 9 79 48t30 88q0 12 -1.5 23.5t-4.5 21.5h-113v66h88q-16 35 -32 73t-16 87q0 95 62.5 149t162.5 54q98 0 151.5 -50.5t63.5 -131.5l-82 -10q-10 50 -41 83.5t-93 33.5
q-64 0 -100.5 -35t-36.5 -90q0 -45 17 -84t33 -79h180v-66z" />
    <glyph glyph-name="yen" unicode="&#xa5;" 
d="M283 0v124h-157v66h157v70l-1 2h-156v66h114l-220 352h101l206 -330l203 330h97l-219 -352h118v-66h-157v-72h157v-66h-157v-124h-86z" />
    <glyph glyph-name="franc" unicode="&#x20a3;" 
d="M68 0v680h424v-80h-338v-194h268v-69q19 37 59 53t80 16h43v-77h-36q-24 0 -49 -5t-45.5 -15t-33.5 -26t-13 -38v-245h-81v326h-192v-326h-86zM422 318v0v2v-2z" />
    <glyph glyph-name="lira" unicode="&#x20a4;" 
d="M438 223h-155v-3.5v-3.5q0 -47 -19.5 -81t-48.5 -55h355v-80h-479v80q49 9 79 48t30 88v4v3h-119v66h104q-6 16 -14 33t-16 33h-74v66h49q-4 15 -6.5 31.5t-2.5 34.5q0 95 62.5 149t162.5 54q98 0 151.5 -50.5t63.5 -131.5l-82 -10q-10 50 -41 83.5t-93 33.5
q-64 0 -100.5 -35t-36.5 -90q0 -18 3.5 -35.5t8.5 -33.5h218v-66h-192q7 -16 14 -32.5t12 -33.5h166v-66z" />
    <glyph glyph-name="Euro" unicode="&#x20ac;" 
d="M35 237v66h74q-1 9 -1 18v18v20.5t1 20.5h-74v66h81q19 121 83 182.5t168 61.5q93 0 151 -46t77 -137l-76 -13q-15 52 -50.5 86.5t-102.5 34.5q-68 0 -109 -43t-55 -126h253v-66h-260q-1 -10 -1 -20.5v-20.5v-18t1 -18h260v-66h-253q14 -82 55 -127t110 -45q70 0 107 35
t49 87l72 -12q-12 -87 -71.5 -136t-157.5 -49q-104 0 -168 62.5t-83 184.5h-80z" />
    <glyph glyph-name="uni20BD" unicode="&#x20bd;" 
d="M363 272h-157v-78h269v-72h-269v-122h-80v122h-90v72h90v78h-90v74h90v334h246q105 0 164.5 -51.5t59.5 -150.5t-59 -152.5t-174 -53.5zM206 606v-260h166q73 0 109 34t36 97t-36.5 96t-108.5 33h-166z" />
    <glyph glyph-name="uni20B4" unicode="&#x20b4;" 
d="M561 168q-13 -76 -73 -125t-153 -49q-99 0 -157 43t-58 126q0 22 5.5 40t15.5 33h-64v67h136q8 5 16.5 10t15.5 9q26 16 51 30.5t49 27.5h-268v66h364q11 13 17 30t6 38q0 44 -31 72.5t-91 28.5q-61 0 -100.5 -26.5t-52.5 -75.5l-77 12q15 75 73.5 119.5t155.5 45.5
q91 1 147.5 -44t56.5 -122q0 -23 -4.5 -42.5t-14.5 -35.5h65v-66h-133q-5 -4 -11 -7t-12 -7q-25 -15 -52 -31l-54 -32h262v-67h-362q-13 -13 -20.5 -30t-7.5 -38q0 -51 37 -75t97 -24q63 0 101.5 29.5t51.5 80.5z" />
    <glyph glyph-name="uni20B8" unicode="&#x20b8;" 
d="M590 614h-530v66h530v-66zM60 482v74h530v-74h-222v-482h-86v482h-222z" />
    <glyph glyph-name="arrowleft" unicode="&#x2190;" horiz-adv-x="800" 
d="M90 347l280 282l50 -50l-226 -226h576v-74h-574l224 -224l-51 -51l-279 281v62z" />
    <glyph glyph-name="arrowup" unicode="&#x2191;" horiz-adv-x="800" 
d="M363 0v576l-226 -226l-50 50l282 280h62l281 -279l-51 -51l-224 224v-574h-74z" />
    <glyph glyph-name="arrowright" unicode="&#x2192;" horiz-adv-x="800" 
d="M30 353h576l-226 226l50 50l280 -282v-62l-279 -281l-51 51l224 224h-574v74z" />
    <glyph glyph-name="arrowdown" unicode="&#x2193;" horiz-adv-x="800" 
d="M369 0l-282 280l50 50l226 -226v576h74v-574l224 224l51 -51l-281 -279h-62z" />
    <glyph glyph-name="uni2196" unicode="&#x2196;" horiz-adv-x="800" 
d="M177 589h415v-72h-338l447 -446l-53 -53l-446 447v-339h-72v416z" />
    <glyph glyph-name="uni2197" unicode="&#x2197;" horiz-adv-x="800" 
d="M89 71l447 446h-338v72h415l47 -47v-416h-72v339l-446 -447z" />
    <glyph glyph-name="uni2198" unicode="&#x2198;" horiz-adv-x="800" 
d="M99 556l53 53l447 -448v340h71v-416l-47 -47h-415v72h338z" />
    <glyph glyph-name="uni2199" unicode="&#x2199;" horiz-adv-x="800" 
d="M177 38l-47 47v416h71v-340l447 448l53 -53l-447 -446h338v-72h-415z" />
    <glyph glyph-name="onequarter" unicode="&#xbc;" horiz-adv-x="950" 
d="M94 316v62h108v230l-106 -61l-31 52l132 81h73v-302h99v-62h-275zM851 0h-64v80h-210v71l179 213h95v-226h47v-58h-47v-80zM639 138h148v176zM337 0h-62l391 680h62z" />
    <glyph glyph-name="onehalf" unicode="&#xbd;" horiz-adv-x="950" 
d="M94 316v62h108v230l-106 -61l-31 52l132 81h73v-302h99v-62h-275zM798 252q0 23 -17.5 40t-50.5 17q-35 0 -56.5 -17.5t-29.5 -47.5l-63 12q9 51 48 82t104 31q61 0 97.5 -30.5t36.5 -83.5q0 -43 -22 -71t-69 -59l-94 -63h193v-62h-289v63l154 108q31 22 44.5 40t13.5 41
zM317 0h-62l391 680h62z" />
    <glyph glyph-name="threequarters" unicode="&#xbe;" horiz-adv-x="950" 
d="M225 371q40 0 62 14.5t22 42.5t-22.5 41t-61.5 13q-10 0 -25.5 -1.5t-26.5 -3.5l-15 48l135 95h-204v60h278v-67l-119 -82q59 0 93.5 -24.5t34.5 -73.5q0 -59 -42 -90.5t-111 -31.5q-60 0 -100.5 25t-53.5 78l66 13q8 -27 30.5 -41.5t59.5 -14.5zM851 0h-64v80h-210v71
l179 213h95v-226h47v-58h-47v-80zM639 138h148v176zM325 0h-62l391 680h62z" />
    <glyph glyph-name="uni2153" unicode="&#x2153;" horiz-adv-x="950" 
d="M92 316v62h108v230l-106 -61l-31 52l132 81h73v-302h99v-62h-275zM726 55q40 0 62 14.5t22 42.5t-22.5 41t-61.5 13q-10 0 -25.5 -1.5t-26.5 -3.5l-15 48l135 95h-204v60h278v-67l-119 -82q59 0 93.5 -24.5t34.5 -73.5q0 -59 -42 -90.5t-111 -31.5q-60 0 -100.5 25
t-53.5 78l66 13q8 -27 30.5 -41.5t59.5 -14.5zM301 0h-62l391 680h62z" />
    <glyph glyph-name="uni2154" unicode="&#x2154;" horiz-adv-x="950" 
d="M301 568q0 23 -17.5 40t-50.5 17q-35 0 -56.5 -17.5t-29.5 -47.5l-63 12q9 51 48 82t104 31q61 0 97.5 -30.5t36.5 -83.5q0 -43 -22 -71t-69 -59l-94 -63h193v-62h-289v63l154 108q31 22 44.5 40t13.5 41zM311 0h-62l391 680h62zM725 55q40 0 62 14.5t22 42.5t-22.5 41
t-61.5 13q-10 0 -25.5 -1.5t-26.5 -3.5l-15 48l135 95h-204v60h278v-67l-119 -82q59 0 93.5 -24.5t34.5 -73.5q0 -59 -42 -90.5t-111 -31.5q-60 0 -100.5 25t-53.5 78l66 13q8 -27 30.5 -41.5t59.5 -14.5z" />
    <glyph glyph-name="oneeighth" unicode="&#x215b;" horiz-adv-x="950" 
d="M84 316v62h108v230l-106 -61l-31 52l132 81h73v-302h99v-62h-275zM894 106q0 -55 -41.5 -83t-111.5 -28q-71 0 -111.5 27t-40.5 81q0 31 17.5 52t43.5 30q-24 9 -39 28.5t-15 50.5q0 49 39.5 77t106.5 28q70 0 107.5 -27t37.5 -78q0 -31 -15.5 -50t-42.5 -29
q30 -7 47.5 -27.5t17.5 -51.5zM742 210q41 0 60 14t19 39q0 24 -19 37.5t-60 13.5q-38 0 -58.5 -14t-20.5 -38q0 -25 20.5 -38.5t58.5 -13.5zM742 159q-40 0 -62.5 -14.5t-22.5 -40.5q0 -25 22 -39.5t63 -14.5q42 0 63 14.5t21 41.5q0 25 -21.5 39t-62.5 14zM312 0h-62
l391 680h62z" />
    <glyph glyph-name="threeeighths" unicode="&#x215c;" horiz-adv-x="950" 
d="M228 371q40 0 62 14.5t22 42.5t-22.5 41t-61.5 13q-10 0 -25.5 -1.5t-26.5 -3.5l-15 48l135 95h-204v60h278v-67l-119 -82q59 0 93.5 -24.5t34.5 -73.5q0 -59 -42 -90.5t-111 -31.5q-60 0 -100.5 25t-53.5 78l66 13q8 -27 30.5 -41.5t59.5 -14.5zM886 106
q0 -55 -41.5 -83t-111.5 -28q-71 0 -111.5 27t-40.5 81q0 31 17.5 52t43.5 30q-24 9 -39 28.5t-15 50.5q0 49 39.5 77t106.5 28q70 0 107.5 -27t37.5 -78q0 -31 -15.5 -50t-42.5 -29q30 -7 47.5 -27.5t17.5 -51.5zM734 210q41 0 60 14t19 39q0 24 -19 37.5t-60 13.5
q-38 0 -58.5 -14t-20.5 -38q0 -25 20.5 -38.5t58.5 -13.5zM734 159q-40 0 -62.5 -14.5t-22.5 -40.5q0 -25 22 -39.5t63 -14.5q42 0 63 14.5t21 41.5q0 25 -21.5 39t-62.5 14zM311 0h-62l391 680h62z" />
    <glyph glyph-name="fiveeighths" unicode="&#x215d;" horiz-adv-x="950" 
d="M225 311q-60 0 -100 25t-53 78l66 13q7 -28 29.5 -42t58.5 -14q37 0 57.5 17t20.5 47q0 29 -22 44.5t-56 15.5q-24 0 -43 -7t-32 -18l-66 19l19 191h243v-61h-188l-10 -92q16 10 40 17t48 7q60 0 96 -29t36 -86q0 -56 -37.5 -90.5t-106.5 -34.5zM888 106q0 -55 -41.5 -83
t-111.5 -28q-71 0 -111.5 27t-40.5 81q0 31 17.5 52t43.5 30q-24 9 -39 28.5t-15 50.5q0 49 39.5 77t106.5 28q70 0 107.5 -27t37.5 -78q0 -31 -15.5 -50t-42.5 -29q30 -7 47.5 -27.5t17.5 -51.5zM736 210q41 0 60 14t19 39q0 24 -19 37.5t-60 13.5q-38 0 -58.5 -14
t-20.5 -38q0 -25 20.5 -38.5t58.5 -13.5zM736 159q-40 0 -62.5 -14.5t-22.5 -40.5q0 -25 22 -39.5t63 -14.5q42 0 63 14.5t21 41.5q0 25 -21.5 39t-62.5 14zM311 0h-62l391 680h62z" />
    <glyph glyph-name="seveneighths" unicode="&#x215e;" horiz-adv-x="950" 
d="M143 316l184 299h-227v65h290v-76l-172 -288h-75zM863 106q0 -55 -41.5 -83t-111.5 -28q-71 0 -111.5 27t-40.5 81q0 31 17.5 52t43.5 30q-24 9 -39 28.5t-15 50.5q0 49 39.5 77t106.5 28q70 0 107.5 -27t37.5 -78q0 -31 -15.5 -50t-42.5 -29q30 -7 47.5 -27.5
t17.5 -51.5zM711 210q41 0 60 14t19 39q0 24 -19 37.5t-60 13.5q-38 0 -58.5 -14t-20.5 -38q0 -25 20.5 -38.5t58.5 -13.5zM711 159q-40 0 -62.5 -14.5t-22.5 -40.5q0 -25 22 -39.5t63 -14.5q42 0 63 14.5t21 41.5q0 25 -21.5 39t-62.5 14zM271 0h-62l391 680h62z" />
    <glyph glyph-name="uni2070" unicode="&#x2070;" horiz-adv-x="400" 
d="M200 391q-78 0 -119 47t-41 140q0 91 41 139t119 48q80 0 120 -48t40 -139q0 -93 -40 -140t-120 -47zM200 452q45 0 67.5 31t22.5 95q0 65 -22.5 95.5t-67.5 30.5q-44 0 -67 -30.5t-23 -95.5q0 -64 23 -95t67 -31z" />
    <glyph glyph-name="uni00B9" unicode="&#xb9;" horiz-adv-x="400" 
d="M79 396v62h108v230l-106 -61l-31 52l132 81h73v-302h99v-62h-275z" />
    <glyph glyph-name="uni00B2" unicode="&#xb2;" horiz-adv-x="400" 
d="M270 648q0 23 -17.5 40t-50.5 17q-35 0 -56.5 -17.5t-29.5 -47.5l-63 12q9 51 48 82t104 31q61 0 97.5 -30.5t36.5 -83.5q0 -43 -22 -71t-69 -59l-94 -63h193v-62h-289v63l154 108q31 22 44.5 40t13.5 41z" />
    <glyph glyph-name="uni00B3" unicode="&#xb3;" horiz-adv-x="400" 
d="M200 451q40 0 62 14.5t22 42.5t-22.5 41t-61.5 13q-10 0 -25.5 -1.5t-26.5 -3.5l-15 48l135 95h-204v60h278v-67l-119 -82q59 0 93.5 -24.5t34.5 -73.5q0 -59 -42 -90.5t-111 -31.5q-60 0 -100.5 25t-53.5 78l66 13q8 -27 30.5 -41.5t59.5 -14.5z" />
    <glyph glyph-name="uni2074" unicode="&#x2074;" horiz-adv-x="400" 
d="M317 396h-64v80h-210v71l179 213h95v-226h47v-58h-47v-80zM105 534h148v176z" />
    <glyph glyph-name="uni2075" unicode="&#x2075;" horiz-adv-x="400" 
d="M205 391q-60 0 -100 25t-53 78l66 13q7 -28 29.5 -42t58.5 -14q37 0 57.5 17t20.5 47q0 29 -22 44.5t-56 15.5q-24 0 -43 -7t-32 -18l-66 19l19 191h243v-61h-188l-10 -92q16 10 40 17t48 7q60 0 96 -29t36 -86q0 -56 -37.5 -90.5t-106.5 -34.5z" />
    <glyph glyph-name="uni2076" unicode="&#x2076;" horiz-adv-x="400" 
d="M208 391q-77 0 -117.5 45t-40.5 137q0 99 42.5 145.5t117.5 46.5q54 0 91 -22t50 -73l-64 -13q-9 25 -27.5 37t-49.5 12q-44 0 -70 -30.5t-27 -90.5q16 18 42.5 30t61.5 12q61 0 99 -28.5t38 -85.5t-39.5 -89.5t-106.5 -32.5zM209 571q-34 0 -58 -15.5t-24 -43.5
q0 -31 22 -46.5t58 -15.5q37 0 58.5 15.5t21.5 46.5q0 29 -21 44t-57 15z" />
    <glyph glyph-name="uni2077" unicode="&#x2077;" horiz-adv-x="400" 
d="M95 396l184 299h-227v65h290v-76l-172 -288h-75z" />
    <glyph glyph-name="uni2078" unicode="&#x2078;" horiz-adv-x="400" 
d="M355 502q0 -55 -41.5 -83t-111.5 -28q-71 0 -111.5 27t-40.5 81q0 31 17.5 52t43.5 30q-24 9 -39 28.5t-15 50.5q0 49 39.5 77t106.5 28q70 0 107.5 -27t37.5 -78q0 -31 -15.5 -50t-42.5 -29q30 -7 47.5 -27.5t17.5 -51.5zM203 606q41 0 60 14t19 39q0 24 -19 37.5
t-60 13.5q-38 0 -58.5 -14t-20.5 -38q0 -25 20.5 -38.5t58.5 -13.5zM203 555q-40 0 -62.5 -14.5t-22.5 -40.5q0 -25 22 -39.5t63 -14.5q42 0 63 14.5t21 41.5q0 25 -21.5 39t-62.5 14z" />
    <glyph glyph-name="uni2079" unicode="&#x2079;" horiz-adv-x="400" 
d="M191 391q-51 0 -90 23t-52 72l62 13q9 -25 31 -37t51 -12q49 0 71 30.5t23 90.5q-16 -19 -40.5 -30.5t-61.5 -11.5q-60 0 -99.5 30t-39.5 84t40 88t106 34q77 0 117.5 -45t40.5 -137q0 -99 -39.5 -145.5t-119.5 -46.5zM193 585q37 0 58.5 16.5t21.5 44.5q0 29 -21.5 44.5
t-58.5 15.5q-36 0 -58 -15.5t-22 -44.5q0 -28 21.5 -44.5t58.5 -16.5z" />
    <glyph glyph-name="uni2080" unicode="&#x2080;" horiz-adv-x="400" 
d="M200 -107q-78 0 -119 47t-41 140q0 91 41 139t119 48q80 0 120 -48t40 -139q0 -93 -40 -140t-120 -47zM200 -46q45 0 67.5 31t22.5 95q0 65 -22.5 95.5t-67.5 30.5q-44 0 -67 -30.5t-23 -95.5q0 -64 23 -95t67 -31z" />
    <glyph glyph-name="uni2081" unicode="&#x2081;" horiz-adv-x="400" 
d="M79 -100v62h108v230l-106 -61l-31 52l132 81h73v-302h99v-62h-275z" />
    <glyph glyph-name="uni2082" unicode="&#x2082;" horiz-adv-x="400" 
d="M270 152q0 23 -17.5 40t-50.5 17q-35 0 -56.5 -17.5t-29.5 -47.5l-63 12q9 51 48 82t104 31q61 0 97.5 -30.5t36.5 -83.5q0 -43 -22 -71t-69 -59l-94 -63h193v-62h-289v63l154 108q31 22 44.5 40t13.5 41z" />
    <glyph glyph-name="uni2083" unicode="&#x2083;" horiz-adv-x="400" 
d="M200 -45q40 0 62 14.5t22 42.5t-22.5 41t-61.5 13q-10 0 -25.5 -1.5t-26.5 -3.5l-15 48l135 95h-204v60h278v-67l-119 -82q59 0 93.5 -24.5t34.5 -73.5q0 -59 -42 -90.5t-111 -31.5q-60 0 -100.5 25t-53.5 78l66 13q8 -27 30.5 -41.5t59.5 -14.5z" />
    <glyph glyph-name="uni2084" unicode="&#x2084;" horiz-adv-x="400" 
d="M317 -100h-64v80h-210v71l179 213h95v-226h47v-58h-47v-80zM105 38h148v176z" />
    <glyph glyph-name="uni2085" unicode="&#x2085;" horiz-adv-x="400" 
d="M205 -105q-60 0 -100 25t-53 78l66 13q7 -28 29.5 -42t58.5 -14q37 0 57.5 17t20.5 47q0 29 -22 44.5t-56 15.5q-24 0 -43 -7t-32 -18l-66 19l19 191h243v-61h-188l-10 -92q16 10 40 17t48 7q60 0 96 -29t36 -86q0 -56 -37.5 -90.5t-106.5 -34.5z" />
    <glyph glyph-name="uni2086" unicode="&#x2086;" horiz-adv-x="400" 
d="M208 -105q-77 0 -117.5 45t-40.5 137q0 99 42.5 145.5t117.5 46.5q54 0 91 -22t50 -73l-64 -13q-9 25 -27.5 37t-49.5 12q-44 0 -70 -30.5t-27 -90.5q16 18 42.5 30t61.5 12q61 0 99 -28.5t38 -85.5t-39.5 -89.5t-106.5 -32.5zM209 75q-34 0 -58 -15.5t-24 -43.5
q0 -31 22 -46.5t58 -15.5q37 0 58.5 15.5t21.5 46.5q0 29 -21 44t-57 15z" />
    <glyph glyph-name="uni2087" unicode="&#x2087;" horiz-adv-x="400" 
d="M95 -100l184 299h-227v65h290v-76l-172 -288h-75z" />
    <glyph glyph-name="uni2088" unicode="&#x2088;" horiz-adv-x="400" 
d="M355 6q0 -55 -41.5 -83t-111.5 -28q-71 0 -111.5 27t-40.5 81q0 31 17.5 52t43.5 30q-24 9 -39 28.5t-15 50.5q0 49 39.5 77t106.5 28q70 0 107.5 -27t37.5 -78q0 -31 -15.5 -50t-42.5 -29q30 -7 47.5 -27.5t17.5 -51.5zM203 110q41 0 60 14t19 39q0 24 -19 37.5
t-60 13.5q-38 0 -58.5 -14t-20.5 -38q0 -25 20.5 -38.5t58.5 -13.5zM203 59q-40 0 -62.5 -14.5t-22.5 -40.5q0 -25 22 -39.5t63 -14.5q42 0 63 14.5t21 41.5q0 25 -21.5 39t-62.5 14z" />
    <glyph glyph-name="uni2089" unicode="&#x2089;" horiz-adv-x="400" 
d="M191 -105q-51 0 -90 23t-52 72l62 13q9 -25 31 -37t51 -12q49 0 71 30.5t23 90.5q-16 -19 -40.5 -30.5t-61.5 -11.5q-60 0 -99.5 30t-39.5 84t40 88t106 34q77 0 117.5 -45t40.5 -137q0 -99 -39.5 -145.5t-119.5 -46.5zM193 89q37 0 58.5 16.5t21.5 44.5q0 29 -21.5 44.5
t-58.5 15.5q-36 0 -58 -15.5t-22 -44.5q0 -28 21.5 -44.5t58.5 -16.5z" />
    <glyph glyph-name="zero.dnom" horiz-adv-x="400" 
d="M200 -7q-78 0 -119 47t-41 140q0 91 41 139t119 48q80 0 120 -48t40 -139q0 -93 -40 -140t-120 -47zM200 54q45 0 67.5 31t22.5 95q0 65 -22.5 95.5t-67.5 30.5q-44 0 -67 -30.5t-23 -95.5q0 -64 23 -95t67 -31z" />
    <glyph glyph-name="one.dnom" horiz-adv-x="400" 
d="M79 0v62h108v230l-106 -61l-31 52l132 81h73v-302h99v-62h-275z" />
    <glyph glyph-name="two.dnom" horiz-adv-x="400" 
d="M270 252q0 23 -17.5 40t-50.5 17q-35 0 -56.5 -17.5t-29.5 -47.5l-63 12q9 51 48 82t104 31q61 0 97.5 -30.5t36.5 -83.5q0 -43 -22 -71t-69 -59l-94 -63h193v-62h-289v63l154 108q31 22 44.5 40t13.5 41z" />
    <glyph glyph-name="three.dnom" horiz-adv-x="400" 
d="M200 55q40 0 62 14.5t22 42.5t-22.5 41t-61.5 13q-10 0 -25.5 -1.5t-26.5 -3.5l-15 48l135 95h-204v60h278v-67l-119 -82q59 0 93.5 -24.5t34.5 -73.5q0 -59 -42 -90.5t-111 -31.5q-60 0 -100.5 25t-53.5 78l66 13q8 -27 30.5 -41.5t59.5 -14.5z" />
    <glyph glyph-name="four.dnom" horiz-adv-x="400" 
d="M317 0h-64v80h-210v71l179 213h95v-226h47v-58h-47v-80zM105 138h148v176z" />
    <glyph glyph-name="five.dnom" horiz-adv-x="400" 
d="M205 -5q-60 0 -100 25t-53 78l66 13q7 -28 29.5 -42t58.5 -14q37 0 57.5 17t20.5 47q0 29 -22 44.5t-56 15.5q-24 0 -43 -7t-32 -18l-66 19l19 191h243v-61h-188l-10 -92q16 10 40 17t48 7q60 0 96 -29t36 -86q0 -56 -37.5 -90.5t-106.5 -34.5z" />
    <glyph glyph-name="six.dnom" horiz-adv-x="400" 
d="M208 -5q-77 0 -117.5 45t-40.5 137q0 99 42.5 145.5t117.5 46.5q54 0 91 -22t50 -73l-64 -13q-9 25 -27.5 37t-49.5 12q-44 0 -70 -30.5t-27 -90.5q16 18 42.5 30t61.5 12q61 0 99 -28.5t38 -85.5t-39.5 -89.5t-106.5 -32.5zM209 175q-34 0 -58 -15.5t-24 -43.5
q0 -31 22 -46.5t58 -15.5q37 0 58.5 15.5t21.5 46.5q0 29 -21 44t-57 15z" />
    <glyph glyph-name="seven.dnom" horiz-adv-x="400" 
d="M95 0l184 299h-227v65h290v-76l-172 -288h-75z" />
    <glyph glyph-name="eight.dnom" horiz-adv-x="400" 
d="M355 106q0 -55 -41.5 -83t-111.5 -28q-71 0 -111.5 27t-40.5 81q0 31 17.5 52t43.5 30q-24 9 -39 28.5t-15 50.5q0 49 39.5 77t106.5 28q70 0 107.5 -27t37.5 -78q0 -31 -15.5 -50t-42.5 -29q30 -7 47.5 -27.5t17.5 -51.5zM203 210q41 0 60 14t19 39q0 24 -19 37.5
t-60 13.5q-38 0 -58.5 -14t-20.5 -38q0 -25 20.5 -38.5t58.5 -13.5zM203 159q-40 0 -62.5 -14.5t-22.5 -40.5q0 -25 22 -39.5t63 -14.5q42 0 63 14.5t21 41.5q0 25 -21.5 39t-62.5 14z" />
    <glyph glyph-name="nine.dnom" horiz-adv-x="400" 
d="M191 -5q-51 0 -90 23t-52 72l62 13q9 -25 31 -37t51 -12q49 0 71 30.5t23 90.5q-16 -19 -40.5 -30.5t-61.5 -11.5q-60 0 -99.5 30t-39.5 84t40 88t106 34q77 0 117.5 -45t40.5 -137q0 -99 -39.5 -145.5t-119.5 -46.5zM193 189q37 0 58.5 16.5t21.5 44.5q0 29 -21.5 44.5
t-58.5 15.5q-36 0 -58 -15.5t-22 -44.5q0 -28 21.5 -44.5t58.5 -16.5z" />
    <glyph glyph-name="zero.numr" horiz-adv-x="400" 
d="M200 313q-78 0 -119 47t-41 140q0 91 41 139t119 48q80 0 120 -48t40 -139q0 -93 -40 -140t-120 -47zM200 374q45 0 67.5 31t22.5 95q0 65 -22.5 95.5t-67.5 30.5q-44 0 -67 -30.5t-23 -95.5q0 -64 23 -95t67 -31z" />
    <glyph glyph-name="one.numr" horiz-adv-x="400" 
d="M79 316v62h108v230l-106 -61l-31 52l132 81h73v-302h99v-62h-275z" />
    <glyph glyph-name="two.numr" horiz-adv-x="400" 
d="M270 568q0 23 -17.5 40t-50.5 17q-35 0 -56.5 -17.5t-29.5 -47.5l-63 12q9 51 48 82t104 31q61 0 97.5 -30.5t36.5 -83.5q0 -43 -22 -71t-69 -59l-94 -63h193v-62h-289v63l154 108q31 22 44.5 40t13.5 41z" />
    <glyph glyph-name="three.numr" horiz-adv-x="400" 
d="M200 371q40 0 62 14.5t22 42.5t-22.5 41t-61.5 13q-10 0 -25.5 -1.5t-26.5 -3.5l-15 48l135 95h-204v60h278v-67l-119 -82q59 0 93.5 -24.5t34.5 -73.5q0 -59 -42 -90.5t-111 -31.5q-60 0 -100.5 25t-53.5 78l66 13q8 -27 30.5 -41.5t59.5 -14.5z" />
    <glyph glyph-name="four.numr" horiz-adv-x="400" 
d="M317 316h-64v80h-210v71l179 213h95v-226h47v-58h-47v-80zM105 454h148v176z" />
    <glyph glyph-name="five.numr" horiz-adv-x="400" 
d="M205 311q-60 0 -100 25t-53 78l66 13q7 -28 29.5 -42t58.5 -14q37 0 57.5 17t20.5 47q0 29 -22 44.5t-56 15.5q-24 0 -43 -7t-32 -18l-66 19l19 191h243v-61h-188l-10 -92q16 10 40 17t48 7q60 0 96 -29t36 -86q0 -56 -37.5 -90.5t-106.5 -34.5z" />
    <glyph glyph-name="six.numr" horiz-adv-x="400" 
d="M208 311q-77 0 -117.5 45t-40.5 137q0 99 42.5 145.5t117.5 46.5q54 0 91 -22t50 -73l-64 -13q-9 25 -27.5 37t-49.5 12q-44 0 -70 -30.5t-27 -90.5q16 18 42.5 30t61.5 12q61 0 99 -28.5t38 -85.5t-39.5 -89.5t-106.5 -32.5zM209 491q-34 0 -58 -15.5t-24 -43.5
q0 -31 22 -46.5t58 -15.5q37 0 58.5 15.5t21.5 46.5q0 29 -21 44t-57 15z" />
    <glyph glyph-name="seven.numr" horiz-adv-x="400" 
d="M95 316l184 299h-227v65h290v-76l-172 -288h-75z" />
    <glyph glyph-name="eight.numr" horiz-adv-x="400" 
d="M355 422q0 -55 -41.5 -83t-111.5 -28q-71 0 -111.5 27t-40.5 81q0 31 17.5 52t43.5 30q-24 9 -39 28.5t-15 50.5q0 49 39.5 77t106.5 28q70 0 107.5 -27t37.5 -78q0 -31 -15.5 -50t-42.5 -29q30 -7 47.5 -27.5t17.5 -51.5zM203 526q41 0 60 14t19 39q0 24 -19 37.5
t-60 13.5q-38 0 -58.5 -14t-20.5 -38q0 -25 20.5 -38.5t58.5 -13.5zM203 475q-40 0 -62.5 -14.5t-22.5 -40.5q0 -25 22 -39.5t63 -14.5q42 0 63 14.5t21 41.5q0 25 -21.5 39t-62.5 14z" />
    <glyph glyph-name="nine.numr" horiz-adv-x="400" 
d="M191 311q-51 0 -90 23t-52 72l62 13q9 -25 31 -37t51 -12q49 0 71 30.5t23 90.5q-16 -19 -40.5 -30.5t-61.5 -11.5q-60 0 -99.5 30t-39.5 84t40 88t106 34q77 0 117.5 -45t40.5 -137q0 -99 -39.5 -145.5t-119.5 -46.5zM193 505q37 0 58.5 16.5t21.5 44.5q0 29 -21.5 44.5
t-58.5 15.5q-36 0 -58 -15.5t-22 -44.5q0 -28 21.5 -44.5t58.5 -16.5z" />
    <glyph glyph-name="uni2460" unicode="&#x2460;" horiz-adv-x="830" 
d="M415 716q82 0 151.5 -28t119 -77.5t77.5 -119t28 -151.5q0 -81 -28 -150.5t-77.5 -119.5t-119 -78t-151.5 -28t-151.5 28t-119 78t-77.5 119.5t-28 150.5q0 82 28 151.5t77.5 119t119 77.5t151.5 28zM415 660q-69 0 -127 -24t-99 -66.5t-64.5 -101.5t-23.5 -128
q0 -68 23.5 -127t64.5 -101.5t99 -67t127 -24.5t127 24.5t99 67t64.5 101.5t23.5 127q0 69 -23.5 128t-64.5 101.5t-99 66.5t-127 24zM268 137v70h126v284l-115 -66l-36 58l146 90h81v-366h109v-70h-311z" />
    <glyph glyph-name="uni2461" unicode="&#x2461;" horiz-adv-x="830" 
d="M415 716q82 0 151.5 -28t119 -77.5t77.5 -119t28 -151.5q0 -81 -28 -150.5t-77.5 -119.5t-119 -78t-151.5 -28t-151.5 28t-119 78t-77.5 119.5t-28 150.5q0 82 28 151.5t77.5 119t119 77.5t151.5 28zM415 660q-69 0 -127 -24t-99 -66.5t-64.5 -101.5t-23.5 -128
q0 -68 23.5 -127t64.5 -101.5t99 -67t127 -24.5t127 24.5t99 67t64.5 101.5t23.5 127q0 69 -23.5 128t-64.5 101.5t-99 66.5t-127 24zM506 439q0 32 -22 51t-60 19q-42 0 -66.5 -23t-33.5 -59l-75 15q10 57 54 96.5t122 39.5q74 0 116.5 -37.5t42.5 -98.5q0 -52 -27 -85.5
t-84 -71.5l-120 -80h234v-70h-339v76l183 127q37 26 56 48t19 53z" />
    <glyph glyph-name="uni2462" unicode="&#x2462;" horiz-adv-x="830" 
d="M415 716q82 0 151.5 -28t119 -77.5t77.5 -119t28 -151.5q0 -81 -28 -150.5t-77.5 -119.5t-119 -78t-151.5 -28t-151.5 28t-119 78t-77.5 119.5t-28 150.5q0 82 28 151.5t77.5 119t119 77.5t151.5 28zM415 660q-69 0 -127 -24t-99 -66.5t-64.5 -101.5t-23.5 -128
q0 -68 23.5 -127t64.5 -101.5t99 -67t127 -24.5t127 24.5t99 67t64.5 101.5t23.5 127q0 69 -23.5 128t-64.5 101.5t-99 66.5t-127 24zM598 252q0 -68 -47 -106t-131 -38q-72 0 -121.5 30.5t-63.5 93.5l76 15q10 -34 38 -52t76 -18q46 0 71.5 20.5t25.5 50.5q0 34 -25 50
t-74 16q-19 0 -35.5 -1.5t-32.5 -4.5l-23 59l158 119h-233v66h321v-78l-140 -104q73 1 116.5 -28t43.5 -90z" />
    <glyph glyph-name="uni2463" unicode="&#x2463;" horiz-adv-x="830" 
d="M415 716q82 0 151.5 -28t119 -77.5t77.5 -119t28 -151.5q0 -81 -28 -150.5t-77.5 -119.5t-119 -78t-151.5 -28t-151.5 28t-119 78t-77.5 119.5t-28 150.5q0 82 28 151.5t77.5 119t119 77.5t151.5 28zM415 660q-69 0 -127 -24t-99 -66.5t-64.5 -101.5t-23.5 -128
q0 -68 23.5 -127t64.5 -101.5t99 -67t127 -24.5t127 24.5t99 67t64.5 101.5t23.5 127q0 69 -23.5 128t-64.5 101.5t-99 66.5t-127 24zM528 128h-76v95h-252v75l224 266h104v-273h66v-68h-66v-95zM280 291h172v205z" />
    <glyph glyph-name="uni2464" unicode="&#x2464;" horiz-adv-x="830" 
d="M415 716q82 0 151.5 -28t119 -77.5t77.5 -119t28 -151.5q0 -81 -28 -150.5t-77.5 -119.5t-119 -78t-151.5 -28t-151.5 28t-119 78t-77.5 119.5t-28 150.5q0 82 28 151.5t77.5 119t119 77.5t151.5 28zM415 660q-69 0 -127 -24t-99 -66.5t-64.5 -101.5t-23.5 -128
q0 -68 23.5 -127t64.5 -101.5t99 -67t127 -24.5t127 24.5t99 67t64.5 101.5t23.5 127q0 69 -23.5 128t-64.5 101.5t-99 66.5t-127 24zM419 116q-69 0 -119 29.5t-62 94.5l78 13q10 -33 37 -50t66 -17q46 0 70.5 19.5t24.5 56.5t-24 57t-69 20q-28 0 -51 -8.5t-39 -20.5
l-77 23l23 227h288v-70h-223l-12 -110q19 10 47 18t62 8q63 0 108 -34t45 -107q0 -69 -46.5 -109t-126.5 -40z" />
    <glyph glyph-name="uni2465" unicode="&#x2465;" horiz-adv-x="830" 
d="M415 716q82 0 151.5 -28t119 -77.5t77.5 -119t28 -151.5q0 -81 -28 -150.5t-77.5 -119.5t-119 -78t-151.5 -28t-151.5 28t-119 78t-77.5 119.5t-28 150.5q0 82 28 151.5t77.5 119t119 77.5t151.5 28zM415 660q-69 0 -127 -24t-99 -66.5t-64.5 -101.5t-23.5 -128
q0 -68 23.5 -127t64.5 -101.5t99 -67t127 -24.5t127 24.5t99 67t64.5 101.5t23.5 127q0 69 -23.5 128t-64.5 101.5t-99 66.5t-127 24zM414 118q-92 0 -139.5 54t-47.5 164q0 118 53 176t140 58q65 0 108.5 -26.5t59.5 -83.5l-76 -15q-9 28 -31.5 41.5t-60.5 13.5
q-53 0 -85.5 -35t-32.5 -110q20 19 52 33t76 14q68 0 113.5 -34.5t45.5 -103.5q0 -68 -47 -107t-128 -39zM413 333q-43 0 -71.5 -18.5t-28.5 -52.5q0 -36 26.5 -55t72.5 -19q44 0 71.5 19t27.5 56q0 34 -24.5 52t-73.5 18z" />
    <glyph glyph-name="uni2466" unicode="&#x2466;" horiz-adv-x="830" 
d="M415 716q82 0 151.5 -28t119 -77.5t77.5 -119t28 -151.5q0 -81 -28 -150.5t-77.5 -119.5t-119 -78t-151.5 -28t-151.5 28t-119 78t-77.5 119.5t-28 150.5q0 82 28 151.5t77.5 119t119 77.5t151.5 28zM415 660q-69 0 -127 -24t-99 -66.5t-64.5 -101.5t-23.5 -128
q0 -68 23.5 -127t64.5 -101.5t99 -67t127 -24.5t127 24.5t99 67t64.5 101.5t23.5 127q0 69 -23.5 128t-64.5 101.5t-99 66.5t-127 24zM297 110l219 364h-269v72h348v-81l-207 -355h-91z" />
    <glyph glyph-name="uni2467" unicode="&#x2467;" horiz-adv-x="830" 
d="M415 716q82 0 151.5 -28t119 -77.5t77.5 -119t28 -151.5q0 -81 -28 -150.5t-77.5 -119.5t-119 -78t-151.5 -28t-151.5 28t-119 78t-77.5 119.5t-28 150.5q0 82 28 151.5t77.5 119t119 77.5t151.5 28zM415 660q-69 0 -127 -24t-99 -66.5t-64.5 -101.5t-23.5 -128
q0 -68 23.5 -127t64.5 -101.5t99 -67t127 -24.5t127 24.5t99 67t64.5 101.5t23.5 127q0 69 -23.5 128t-64.5 101.5t-99 66.5t-127 24zM416 569q89 0 131 -33.5t42 -89.5q0 -37 -18.5 -60t-49.5 -37q34 -11 54.5 -34t20.5 -63q0 -59 -45.5 -97t-133.5 -38q-89 0 -136.5 37
t-47.5 97q0 40 19.5 63.5t53.5 34.5q-31 12 -48 38t-17 58q0 57 47 90.5t128 33.5zM417 499q-46 0 -72 -14.5t-26 -42.5t26 -44t72 -16t70 16t24 44t-24 42.5t-70 14.5zM417 313q-51 0 -78.5 -14.5t-27.5 -45.5q0 -34 28 -50t78 -16q46 0 73.5 16t27.5 50q0 31 -27.5 45.5
t-73.5 14.5z" />
    <glyph glyph-name="uni2468" unicode="&#x2468;" horiz-adv-x="830" 
d="M415 716q82 0 151.5 -28t119 -77.5t77.5 -119t28 -151.5q0 -81 -28 -150.5t-77.5 -119.5t-119 -78t-151.5 -28t-151.5 28t-119 78t-77.5 119.5t-28 150.5q0 82 28 151.5t77.5 119t119 77.5t151.5 28zM415 660q-69 0 -127 -24t-99 -66.5t-64.5 -101.5t-23.5 -128
q0 -68 23.5 -127t64.5 -101.5t99 -67t127 -24.5t127 24.5t99 67t64.5 101.5t23.5 127q0 69 -23.5 128t-64.5 101.5t-99 66.5t-127 24zM418 568q92 0 139.5 -54t47.5 -164q0 -118 -53 -176t-140 -58q-65 0 -108.5 26.5t-59.5 83.5l75 15q9 -28 32 -41.5t61 -13.5
q53 0 85.5 35t32.5 110q-20 -19 -52 -33t-76 -14q-68 0 -113.5 34.5t-45.5 103.5q0 68 47 107t128 39zM418 353q43 0 72 17t29 54q0 35 -27.5 54.5t-72.5 19.5q-44 0 -71 -19t-27 -56q0 -34 24 -52t73 -18z" />
    <glyph glyph-name="uni2469" unicode="&#x2469;" horiz-adv-x="830" 
d="M415 716q82 0 151.5 -28t119 -77.5t77.5 -119t28 -151.5q0 -81 -28 -150.5t-77.5 -119.5t-119 -78t-151.5 -28t-151.5 28t-119 78t-77.5 119.5t-28 150.5q0 82 28 151.5t77.5 119t119 77.5t151.5 28zM413 660q-69 0 -126.5 -24t-98.5 -66.5t-64 -101.5t-23 -128
q0 -68 23.5 -127t64.5 -101.5t99 -67t127 -24.5t127 24.5t99 67t64.5 101.5t23.5 127q0 69 -23.5 128t-65.5 101.5t-100 66.5t-127 24zM509 564q30 0 55 -10t43 -35t28 -69t10 -110t-10 -110t-28 -69t-43 -35t-55 -10q-29 0 -54 10t-43 35t-28.5 69t-10.5 110t10.5 110
t28.5 69t43 35t54 10zM322 122h-68v357l-61 -37l-34 50l98 66h65v-436zM509 183q30 0 47.5 32.5t17.5 124.5t-17.5 124.5t-47.5 32.5q-31 0 -48 -32.5t-17 -124.5t17 -124.5t48 -32.5z" />
    <glyph glyph-name="uni24EA" unicode="&#x24ea;" horiz-adv-x="830" 
d="M415 716q82 0 151.5 -28t119 -77.5t77.5 -119t28 -151.5q0 -81 -28 -150.5t-77.5 -119.5t-119 -78t-151.5 -28t-151.5 28t-119 78t-77.5 119.5t-28 150.5q0 82 28 151.5t77.5 119t119 77.5t151.5 28zM415 660q-69 0 -127 -24t-99 -66.5t-64.5 -101.5t-23.5 -128
q0 -68 23.5 -127t64.5 -101.5t99 -67t127 -24.5t127 24.5t99 67t64.5 101.5t23.5 127q0 69 -23.5 128t-64.5 101.5t-99 66.5t-127 24zM415 116q-93 0 -143.5 58t-50.5 168q0 109 50.5 167.5t143.5 58.5q94 0 144 -58.5t50 -167.5q0 -110 -50 -168t-144 -58zM415 188
q56 0 86 37t30 117q0 81 -30 117.5t-86 36.5q-54 0 -85 -36.5t-31 -117.5q0 -80 31 -117t85 -37z" />
    <glyph glyph-name="uni24FF" unicode="&#x24ff;" horiz-adv-x="830" 
d="M415 716q82 0 151.5 -28t119 -77.5t77.5 -119t28 -151.5q0 -81 -28 -150.5t-77.5 -119.5t-119 -78t-151.5 -28t-151.5 28t-119 78t-77.5 119.5t-28 150.5q0 82 28 151.5t77.5 119t119 77.5t151.5 28zM415 116q94 0 144 58t50 168q0 109 -50 167.5t-144 58.5
q-93 0 -143.5 -58.5t-50.5 -167.5q0 -110 50.5 -168t143.5 -58zM415 188q-54 0 -85 37t-31 117q0 81 31 117.5t85 36.5q56 0 86 -36.5t30 -117.5q0 -80 -30 -117t-86 -37z" />
    <glyph glyph-name="uni2776" unicode="&#x2776;" horiz-adv-x="830" 
d="M415 716q82 0 151.5 -28t119 -77.5t77.5 -119t28 -151.5q0 -81 -28 -150.5t-77.5 -119.5t-119 -78t-151.5 -28t-151.5 28t-119 78t-77.5 119.5t-28 150.5q0 82 28 151.5t77.5 119t119 77.5t151.5 28zM268 137h311v70h-109v366h-81l-146 -90l36 -58l115 66v-284h-126v-70z
" />
    <glyph glyph-name="uni2777" unicode="&#x2777;" horiz-adv-x="830" 
d="M415 716q82 0 151.5 -28t119 -77.5t77.5 -119t28 -151.5q0 -81 -28 -150.5t-77.5 -119.5t-119 -78t-151.5 -28t-151.5 28t-119 78t-77.5 119.5t-28 150.5q0 82 28 151.5t77.5 119t119 77.5t151.5 28zM506 439q0 -31 -19 -53t-56 -48l-183 -127v-76h339v70h-234l120 80
q57 38 84 71.5t27 85.5q0 61 -42.5 98.5t-116.5 37.5q-78 0 -122 -39.5t-54 -96.5l75 -15q9 36 33.5 59t66.5 23q38 0 60 -19t22 -51z" />
    <glyph glyph-name="uni2778" unicode="&#x2778;" horiz-adv-x="830" 
d="M415 716q82 0 151.5 -28t119 -77.5t77.5 -119t28 -151.5q0 -81 -28 -150.5t-77.5 -119.5t-119 -78t-151.5 -28t-151.5 28t-119 78t-77.5 119.5t-28 150.5q0 82 28 151.5t77.5 119t119 77.5t151.5 28zM598 252q0 61 -43.5 90t-116.5 28l140 104v78h-321v-66h233l-158 -119
l23 -59q16 3 32.5 4.5t35.5 1.5q49 0 74 -16t25 -50q0 -30 -25.5 -50.5t-71.5 -20.5q-48 0 -76 18t-38 52l-76 -15q14 -63 63.5 -93.5t121.5 -30.5q84 0 131 38t47 106z" />
    <glyph glyph-name="uni2779" unicode="&#x2779;" horiz-adv-x="830" 
d="M415 716q82 0 151.5 -28t119 -77.5t77.5 -119t28 -151.5q0 -81 -28 -150.5t-77.5 -119.5t-119 -78t-151.5 -28t-151.5 28t-119 78t-77.5 119.5t-28 150.5q0 82 28 151.5t77.5 119t119 77.5t151.5 28zM528 128v95h66v68h-66v273h-104l-224 -266v-75h252v-95h76zM280 291
l172 205v-205h-172z" />
    <glyph glyph-name="uni277A" unicode="&#x277a;" horiz-adv-x="830" 
d="M415 716q82 0 151.5 -28t119 -77.5t77.5 -119t28 -151.5q0 -81 -28 -150.5t-77.5 -119.5t-119 -78t-151.5 -28t-151.5 28t-119 78t-77.5 119.5t-28 150.5q0 82 28 151.5t77.5 119t119 77.5t151.5 28zM419 116q80 0 126.5 40t46.5 109q0 73 -45 107t-108 34q-34 0 -62 -8
t-47 -18l12 110h223v70h-288l-23 -227l77 -23q16 12 39 20.5t51 8.5q45 0 69 -20t24 -57t-24.5 -56.5t-70.5 -19.5q-39 0 -66 17t-37 50l-78 -13q12 -65 62 -94.5t119 -29.5z" />
    <glyph glyph-name="uni277B" unicode="&#x277b;" horiz-adv-x="830" 
d="M415 716q82 0 151.5 -28t119 -77.5t77.5 -119t28 -151.5q0 -81 -28 -150.5t-77.5 -119.5t-119 -78t-151.5 -28t-151.5 28t-119 78t-77.5 119.5t-28 150.5q0 82 28 151.5t77.5 119t119 77.5t151.5 28zM414 118q81 0 128 39t47 107q0 69 -45.5 103.5t-113.5 34.5
q-44 0 -76 -14t-52 -33q0 75 32.5 110t85.5 35q38 0 60.5 -13.5t31.5 -41.5l76 15q-16 57 -59.5 83.5t-108.5 26.5q-87 0 -140 -58t-53 -176q0 -110 47.5 -164t139.5 -54zM413 333q49 0 73.5 -18t24.5 -52q0 -35 -27.5 -55t-71.5 -20q-46 0 -72.5 19.5t-26.5 54.5
q0 34 28.5 52.5t71.5 18.5z" />
    <glyph glyph-name="uni277C" unicode="&#x277c;" horiz-adv-x="830" 
d="M415 716q82 0 151.5 -28t119 -77.5t77.5 -119t28 -151.5q0 -81 -28 -150.5t-77.5 -119.5t-119 -78t-151.5 -28t-151.5 28t-119 78t-77.5 119.5t-28 150.5q0 82 28 151.5t77.5 119t119 77.5t151.5 28zM297 110h91l207 355v81h-348v-72h269z" />
    <glyph glyph-name="uni277D" unicode="&#x277d;" horiz-adv-x="830" 
d="M415 716q82 0 151.5 -28t119 -77.5t77.5 -119t28 -151.5q0 -81 -28 -150.5t-77.5 -119.5t-119 -78t-151.5 -28t-151.5 28t-119 78t-77.5 119.5t-28 150.5q0 82 28 151.5t77.5 119t119 77.5t151.5 28zM416 569q-81 0 -128 -33.5t-47 -90.5q0 -32 17 -58t48 -38
q-34 -11 -53.5 -34.5t-19.5 -63.5q0 -60 47.5 -97t136.5 -37q88 0 133.5 38t45.5 97q0 40 -20.5 63t-54.5 34q31 14 49.5 37t18.5 60q0 56 -42 89.5t-131 33.5zM417 499q46 0 70 -14.5t24 -42.5t-24 -44t-70 -16t-72 16t-26 44t26 42.5t72 14.5zM417 187q-50 0 -78 16
t-28 50q0 31 27.5 45.5t78.5 14.5q46 0 73.5 -14.5t27.5 -45.5q0 -34 -27.5 -50t-73.5 -16z" />
    <glyph glyph-name="uni277E" unicode="&#x277e;" horiz-adv-x="830" 
d="M415 716q82 0 151.5 -28t119 -77.5t77.5 -119t28 -151.5q0 -81 -28 -150.5t-77.5 -119.5t-119 -78t-151.5 -28t-151.5 28t-119 78t-77.5 119.5t-28 150.5q0 82 28 151.5t77.5 119t119 77.5t151.5 28zM418 568q-81 0 -128 -39t-47 -107q0 -69 45.5 -103.5t113.5 -34.5
q44 0 76 14t52 33q0 -75 -32.5 -110t-85.5 -35q-38 0 -61 13.5t-32 41.5l-75 -15q16 -57 59.5 -83.5t108.5 -26.5q87 0 140 58t53 176q0 110 -47.5 164t-139.5 54zM418 353q-49 0 -73 18t-24 52q0 37 27 56t71 19q45 0 72.5 -19.5t27.5 -54.5q0 -37 -29 -54t-72 -17z" />
    <glyph glyph-name="uni277F" unicode="&#x277f;" horiz-adv-x="830" 
d="M415 716q82 0 151.5 -28t119 -77.5t77.5 -119t28 -151.5q0 -81 -28 -150.5t-77.5 -119.5t-119 -78t-151.5 -28t-151.5 28t-119 78t-77.5 119.5t-28 150.5q0 82 28 151.5t77.5 119t119 77.5t151.5 28zM509 564q-29 0 -54 -10t-43 -35t-28.5 -69t-10.5 -110t10.5 -110
t28.5 -69t43 -35t54 -10q30 0 55 10t43 35t28 69t10 110t-10 110t-28 69t-43 35t-55 10zM320 122v436h-65l-98 -66l34 -50l61 37v-357h68zM509 183q-31 0 -48 32.5t-17 124.5t17 124.5t48 32.5q30 0 47.5 -32.5t17.5 -124.5t-17.5 -124.5t-47.5 -32.5z" />
    <glyph glyph-name="uni2206" unicode="&#x2206;" horiz-adv-x="689" 
d="M397 680l252 -608v-72h-609v72l249 608h108zM132 80h419l-210 524z" />
    <glyph glyph-name="uni0394" unicode="&#x394;" horiz-adv-x="689" 
d="M397 680l252 -608v-72h-609v72l249 608h108zM132 80h419l-210 524z" />
    <glyph glyph-name="Sigma" unicode="&#x3a3;" horiz-adv-x="669" 
d="M435 309l-259 -232h439v-77h-546v81l295 266l-286 252v81h521v-77h-414l250 -220v-74z" />
    <glyph glyph-name="uniA7B6" unicode="&#xa7b6;" horiz-adv-x="852" 
d="M202 352q0 -42 12 -85t35.5 -80.5t58.5 -66.5t81 -42v-78h-284v72h152q-60 39 -100.5 108.5t-41.5 174.5q0 77 24 139t67.5 105.5t105 67t133.5 23.5q75 0 135 -23.5t101 -67t63.5 -105t22.5 -137.5q0 -101 -43 -173t-108 -112h161v-72h-284v77q46 14 81.5 43.5t58.5 67
t35 81t12 85.5q0 122 -64 190.5t-171 68.5t-175 -68t-68 -193z" />
    <glyph glyph-name="uni03BC" unicode="&#x3bc;" horiz-adv-x="561" 
d="M75 -194v670h80v-303q0 -49 26.5 -80t86.5 -31q57 0 97 35t40 94v285h80v-476h-75v70q-23 -39 -67.5 -59.5t-90.5 -20.5q-31 0 -56.5 6t-46.5 17l6 -207h-80z" />
    <glyph glyph-name="pi" unicode="&#x3c0;" horiz-adv-x="582" 
d="M100 0v401h-70v75h513v-75h-76v-247q0 -50 13.5 -64t48.5 -14h14v-76h-37q-62 0 -92 32t-30 110v259h-201v-401h-83z" />
    <glyph glyph-name="uni04100301" horiz-adv-x="695" 
d="M400 680l265 -680h-93l-73 192h-306l-71 -192h-92l262 680h108zM222 270h248l-125 331zM392 876h99l-108 -130h-81z" />
    <glyph glyph-name="uni04150301" horiz-adv-x="631" 
d="M87 0v680h474v-80h-388v-217h375v-78h-375v-225h385v-80h-471zM348 876h99l-108 -130h-81z" />
    <glyph glyph-name="uni04180301" horiz-adv-x="732" 
d="M561 0v583l-376 -583h-98v680h84v-575l369 575h105v-680h-84zM400 876h99l-108 -130h-81z" />
    <glyph glyph-name="uni041E0301" horiz-adv-x="761" 
d="M381 -10q-74 0 -134.5 24t-103 68.5t-65.5 110t-23 147.5q0 80 23 145t65.5 110.5t103 70t134.5 24.5t134.5 -24.5t102.5 -70t65 -110.5t23 -145q0 -82 -23 -147.5t-65 -110t-102.5 -68.5t-134.5 -24zM381 68q114 0 176.5 75t62.5 197q0 123 -62.5 197.5t-176.5 74.5
t-177 -74.5t-63 -197.5q0 -122 63 -197t177 -75zM415 876h99l-108 -130h-81z" />
    <glyph glyph-name="uni04230301" horiz-adv-x="612" 
d="M360 144q-33 -72 -74.5 -108t-118.5 -36h-68v79h62q44 0 71 18t47 58l-264 525h97l211 -431l191 431h90zM347 876h99l-108 -130h-81z" />
    <glyph glyph-name="uni042B0301" horiz-adv-x="850" 
d="M87 680h86v-258h164q120 0 179 -53t59 -160q0 -99 -59.5 -154t-169.5 -55h-259v680zM677 0v680h86v-680h-86zM346 79q78 0 110.5 31t32.5 100q0 64 -33.5 98.5t-109.5 34.5h-173v-264h173zM450 866h99l-108 -130h-81z" />
    <glyph glyph-name="uni042D0301" horiz-adv-x="716" 
d="M55 209l81 14q15 -66 67.5 -110.5t143.5 -44.5q104 0 162 60.5t66 176.5h-311v76h311q-8 115 -64 173t-157 58q-87 0 -140 -42.5t-75 -111.5l-80 14q25 104 105.5 161t189.5 57q140 0 223.5 -86t83.5 -261q0 -174 -84 -263.5t-230 -89.5q-118 0 -195.5 56.5t-96.5 162.5z
M392 876h99l-108 -130h-81z" />
    <glyph glyph-name="uni042E0301" horiz-adv-x="992" 
d="M616 -10q-137 0 -221.5 82t-95.5 228h-126v-300h-86v680h86v-300h126q11 143 95.5 226.5t221.5 83.5q73 0 132.5 -24.5t101.5 -70t64.5 -110.5t22.5 -145q0 -82 -22.5 -147.5t-64.5 -110t-101.5 -68.5t-132.5 -24zM616 69q113 0 174.5 74.5t61.5 196.5q0 123 -61.5 197
t-174.5 74t-173 -74t-60 -197q0 -122 60 -196.5t173 -74.5zM521 876h99l-108 -130h-81z" />
    <glyph glyph-name="uni042F0301" horiz-adv-x="665" 
d="M578 0h-86v258h-178h-1l-170 -258h-103l183 269q-74 19 -110.5 71.5t-36.5 130.5q0 99 59.5 154t169.5 55h273v-680zM305 601q-75 0 -109 -32.5t-34 -98.5q0 -64 33.5 -98.5t109.5 -34.5h187v264h-187zM380 876h99l-108 -130h-81z" />
    <glyph glyph-name="uni04300301" horiz-adv-x="518" 
d="M373 0v56q-22 -29 -60.5 -47.5t-89.5 -18.5q-78 0 -123.5 38t-45.5 104q0 74 49.5 107t131.5 36q37 1 69 0.5t64 -1.5v41q0 52 -30 76t-76 24q-51 0 -77.5 -25t-38.5 -61l-76 16q15 63 64 102t128 39q81 0 133.5 -40.5t52.5 -127.5v-318h-75zM368 211q-30 1 -63.5 1
t-67.5 -1q-51 -2 -77 -22t-26 -56q0 -34 24.5 -54.5t66.5 -20.5q60 0 101.5 29.5t41.5 77.5v46zM292 670h96l-108 -130h-78z" />
    <glyph glyph-name="uni04350301" horiz-adv-x="518" 
d="M476 224h-352q4 -80 44 -122t102 -42q56 0 87 26t41 60l75 -13q-17 -67 -70 -105t-136 -38q-102 0 -162.5 66.5t-60.5 181.5q0 59 17.5 105.5t47.5 78t71.5 48t88.5 16.5q95 0 151 -60t56 -169v-33zM268 417q-56 0 -93.5 -35t-47.5 -92h269q-3 55 -34 91t-94 36zM295 670
h96l-108 -130h-78z" />
    <glyph glyph-name="uni04380301" horiz-adv-x="554" 
d="M161 0h-86v476h77v-373l239 373h88v-476h-77v375zM317 670h96l-108 -130h-78z" />
    <glyph glyph-name="uni043E0301" horiz-adv-x="545" 
d="M275 -10q-49 0 -91.5 16.5t-72.5 48t-47.5 78.5t-17.5 106q0 118 64 182.5t165 64.5q100 0 162 -64.5t62 -182.5q0 -116 -62 -182.5t-162 -66.5zM275 61q72 0 108 47.5t36 130.5q0 84 -36 130t-108 46q-71 0 -110 -46t-39 -130q0 -83 40 -130.5t109 -47.5zM306 670h96
l-108 -130h-78z" />
    <glyph glyph-name="uni04430301" horiz-adv-x="493" 
d="M266 -73q-27 -68 -63 -94.5t-90 -26.5h-46v74h30q34 0 59 15t41 55l21 52l-202 474h88l156 -377l140 377h83zM284 670h96l-108 -130h-78z" />
    <glyph glyph-name="uni044B0301" horiz-adv-x="673" 
d="M518 0v476h80v-476h-80zM75 0v476h80v-164h124q83 0 125.5 -39.5t42.5 -111.5q0 -75 -41.5 -118t-128.5 -43h-202zM279 240h-124v-168h123q54 0 73.5 24.5t19.5 63.5q0 40 -19 60t-73 20zM370 660h96l-108 -130h-78z" />
    <glyph glyph-name="uni044D0301" horiz-adv-x="520" 
d="M42 143l75 12q11 -41 43.5 -68t93.5 -27q63 0 97.5 37t40.5 106h-201v68h202q-7 68 -41 106.5t-96 38.5q-60 0 -91 -28.5t-44 -66.5l-72 16q17 68 71 108.5t136 40.5q99 0 158.5 -61.5t59.5 -186.5q0 -121 -60 -184.5t-160 -63.5q-90 0 -143.5 40.5t-68.5 112.5zM280 670
h96l-108 -130h-78z" />
    <glyph glyph-name="uni044E0301" horiz-adv-x="751" 
d="M75 0v476h80v-198h100q10 100 72 154t154 54q100 0 162 -64.5t62 -182.5q0 -116 -62 -182.5t-162 -66.5q-92 0 -155 57.5t-72 161.5h-99v-209h-80zM481 61q72 0 108 47.5t36 130.5q0 84 -36 130t-108 46q-71 0 -110 -46t-39 -130q0 -83 40 -130.5t109 -47.5zM400 670h96
l-108 -130h-78z" />
    <glyph glyph-name="uni044F0301" horiz-adv-x="513" 
d="M53 324q0 76 48.5 114t126.5 38h210v-476h-80v179h-107l-116 -179h-93l127 184q-56 12 -86 47.5t-30 92.5zM230 247h128v159h-128q-47 0 -72.5 -20.5t-25.5 -58.5t25 -59t73 -21zM283 670h96l-108 -130h-78z" />
    <glyph glyph-name="acute" unicode="&#xb4;" horiz-adv-x="266" 
d="M130 670h96l-108 -130h-78z" />
    <glyph glyph-name="grave" unicode="`" horiz-adv-x="266" 
d="M136 670h-96l108 -130h78z" />
    <glyph glyph-name="hungarumlaut" unicode="&#x2dd;" horiz-adv-x="422" 
d="M130 670h92l-108 -130h-74zM286 670h96l-128 -130h-76z" />
    <glyph glyph-name="circumflex" unicode="&#x2c6;" horiz-adv-x="392" 
d="M244 670l108 -130h-76l-80 81l-80 -81h-76l108 130h96z" />
    <glyph glyph-name="caron" unicode="&#x2c7;" horiz-adv-x="392" 
d="M244 540h-96l-106 130h76l78 -80l78 80h76z" />
    <glyph glyph-name="caron.alt" horiz-adv-x="175" 
d="M64 690h80l-53 -184h-57z" />
    <glyph glyph-name="breve" unicode="&#x2d8;" horiz-adv-x="366" 
d="M184 531q-67 0 -99.5 35.5t-35.5 88.5h66q4 -28 19 -47t50 -19q34 0 48 19t18 47h67q-4 -53 -35.5 -88.5t-97.5 -35.5z" />
    <glyph glyph-name="tilde" unicode="&#x2dc;" horiz-adv-x="361" 
d="M40 546v10q0 46 20 75.5t61 29.5q19 0 35.5 -8t30.5 -17.5t26 -17.5t22 -8q13 0 19 10t6 29v14h61v-15q0 -46 -20 -73.5t-57 -27.5q-19 0 -36 8t-32 18t-27.5 18t-22.5 8q-13 0 -19 -11.5t-6 -30.5v-11h-61z" />
    <glyph glyph-name="macron" unicode="&#xaf;" horiz-adv-x="360" 
d="M305 582h-250v68h250v-68z" />
    <glyph glyph-name="dieresis" unicode="&#xa8;" horiz-adv-x="362" 
d="M45 568v94h88v-94h-88zM229 568v94h88v-94h-88z" />
    <glyph glyph-name="dotaccent" unicode="&#x2d9;" horiz-adv-x="171" 
d="M40 568v96h91v-96h-91z" />
    <glyph glyph-name="ring" unicode="&#x2da;" horiz-adv-x="260" 
d="M130 524q-40 0 -68.5 26t-28.5 69t28.5 69t68.5 26t68.5 -26t28.5 -69t-28.5 -69t-68.5 -26zM130 574q20 0 32.5 13t12.5 32t-12.5 32t-32.5 13t-32.5 -13t-12.5 -32t12.5 -32t32.5 -13z" />
    <glyph glyph-name="uniF6D4" unicode="&#xf6d4;" horiz-adv-x="366" 
d="M184 530q-73 0 -108 35.5t-36 92.5h66q4 -33 22.5 -51.5t55.5 -18.5t54 18.5t21 51.5h67q-2 -57 -36 -92.5t-106 -35.5z" />
    <glyph glyph-name="acutecomb" unicode="&#x301;" horiz-adv-x="0" 
d="M-230 670h96l-108 -130h-78z" />
    <glyph glyph-name="uniF6C3" unicode="&#xf6c3;" horiz-adv-x="211" 
d="M62 -135v85h95v-76q0 -50 -21.5 -77.5t-70.5 -35.5l-11 43q31 7 43 23t12 38h-47z" />
    <glyph glyph-name="dotbelowcmb" unicode="&#x323;" horiz-adv-x="171" 
d="M40 -146v96h91v-96h-91z" />
    <glyph glyph-name="cedilla" unicode="&#xb8;" horiz-adv-x="300" 
d="M154 -206q-49 0 -79 17t-39 57l60 14q5 -17 19.5 -26t37.5 -9t35.5 8t12.5 25q0 19 -17.5 25.5t-57.5 5.5l-22 -1v45l41 50h66l-38 -45q46 -2 70.5 -20t24.5 -58q0 -38 -28.5 -63t-85.5 -25z" />
    <glyph glyph-name="ogonek" unicode="&#x2db;" horiz-adv-x="270" 
d="M167 -201q-45 0 -78.5 23t-33.5 72q0 36 25 63t56 43h71q-29 -14 -52.5 -40t-23.5 -51q0 -23 14 -34t36 -11q13 0 22 1.5l15 2.5l4 -61q-8 -4 -23 -6t-32 -2z" />
    <glyph glyph-name="acute.cap" horiz-adv-x="249" 
d="M120 876h99l-108 -130h-81z" />
    <glyph glyph-name="grave.cap" horiz-adv-x="299" 
d="M154 876l90 -130h-81l-108 130h99z" />
    <glyph glyph-name="hungarumlaut.cap" horiz-adv-x="430" 
d="M124 876h98l-107 -130h-82zM293 876h104l-126 -130h-87z" />
    <glyph glyph-name="circumflex.cap" horiz-adv-x="426" 
d="M261 876l115 -130h-86l-77 80l-77 -80h-86l115 130h96z" />
    <glyph glyph-name="caron.cap" horiz-adv-x="372" 
d="M234 746h-96l-115 130h86l77 -80l77 80h86z" />
    <glyph glyph-name="breve.cap" horiz-adv-x="346" 
d="M174 746q-71 0 -104 37.5t-34 90.5h66q4 -31 20.5 -50.5t51.5 -19.5q34 0 50 19.5t20 50.5h67q-2 -53 -34.5 -90.5t-102.5 -37.5z" />
    <glyph glyph-name="tilde.cap" horiz-adv-x="369" 
d="M42 754v15q0 47 22.5 75t59.5 28q22 0 38.5 -8.5t29.5 -18t24 -18t23 -8.5q15 0 21.5 10.5t6.5 30.5v13h60v-15q0 -46 -21 -75t-60 -29q-21 0 -37.5 8.5t-30.5 18.5t-25.5 18.5t-21.5 8.5q-16 0 -22.5 -12.5t-6.5 -28.5v-13h-60z" />
    <glyph glyph-name="macron.cap" horiz-adv-x="377" 
d="M327 772h-277v68h277v-68z" />
    <glyph glyph-name="dieresis.cap" horiz-adv-x="342" 
d="M35 764v94h88v-94h-88zM219 764v94h88v-94h-88z" />
    <glyph glyph-name="dotaccent.cap" horiz-adv-x="151" 
d="M29 762v98h93v-98h-93z" />
    <glyph glyph-name="ring.cap" horiz-adv-x="310" 
d="M155 708q-50 0 -84 32t-34 83t34 82t84 31q51 0 84.5 -31t33.5 -82t-33.5 -83t-84.5 -32zM155 762q28 0 44 18t16 43t-16 42t-44 17q-27 0 -43.5 -17t-16.5 -42t16.5 -43t43.5 -18z" />
    <glyph glyph-name="Cyrbreve" horiz-adv-x="392" 
d="M37 866h71q2 -32 21.5 -53.5t66.5 -21.5t67 21.5t21 53.5h71q-1 -63 -39.5 -99.5t-119.5 -36.5t-119.5 36.5t-39.5 99.5z" />
    </font>
</defs>
</svg>
